<svg width="177" height="176" viewBox="0 0 177 176" fill="none" xmlns="http://www.w3.org/2000/svg">
<path fill-rule="evenodd" clip-rule="evenodd" d="M92.0566 0.00116606C119.915 -0.0986797 149.543 6.1884 166.207 28.5707C182.416 50.342 177.214 79.4761 170.895 105.894C164.694 131.816 156.105 159.754 132.089 171.195C108.174 182.588 81.1989 171.639 57.425 159.951C33.9367 148.403 11.1602 133.21 3.69579 108.073C-4.32598 81.0598 0.745975 50.8978 18.5682 29.0998C36.1343 7.61507 64.3472 0.100478 92.0566 0.00116606Z" fill="#FECDE1"/>
<path d="M101.865 35.7808C101.865 29.2745 111.185 24 122.683 24C134.18 24 143.501 29.2744 143.501 35.7808C143.501 41.2897 136.818 45.9144 127.79 47.2031C126.88 48.9616 125.385 51.6424 123.681 53.8725C120.882 57.537 114.947 58.8962 114.947 58.8962C114.947 58.8962 119.479 52.2562 117.656 47.2136C108.588 45.941 101.865 41.3062 101.865 35.7808Z" fill="url(#paint0_linear_3338_4275)"/>
<path d="M100.801 37.486C100.801 30.9797 110.121 25.7052 121.619 25.7052C133.116 25.7052 142.437 30.9796 142.437 37.486C142.437 42.9949 135.754 47.6196 126.726 48.9083C125.816 50.6668 124.321 53.3476 122.617 55.5777C119.818 59.2423 113.883 60.6014 113.883 60.6014C113.883 60.6014 118.415 53.9614 116.592 48.9188C107.524 47.6462 100.801 43.0114 100.801 37.486Z" fill="url(#paint1_linear_3338_4275)"/>
<path d="M132.578 33.9844H110.773C110.438 33.9844 110.165 33.713 110.165 33.3813V33.3494C110.165 33.0177 110.438 32.7463 110.773 32.7463H132.578C132.912 32.7463 133.186 33.0177 133.186 33.3494V33.3813C133.186 33.713 132.912 33.9844 132.578 33.9844Z" fill="url(#paint2_linear_3338_4275)"/>
<path d="M132.578 38.0798H110.773C110.438 38.0798 110.165 37.8084 110.165 37.4767V37.4448C110.165 37.1131 110.438 36.8417 110.773 36.8417H132.578C132.912 36.8417 133.186 37.1131 133.186 37.4448V37.4767C133.186 37.8084 132.912 38.0798 132.578 38.0798Z" fill="url(#paint3_linear_3338_4275)"/>
<path d="M132.578 42.1751H110.773C110.438 42.1751 110.165 41.9037 110.165 41.572V41.5401C110.165 41.2084 110.438 40.937 110.773 40.937H132.578C132.912 40.937 133.186 41.2084 133.186 41.5401V41.572C133.186 41.9037 132.912 42.1751 132.578 42.1751Z" fill="url(#paint4_linear_3338_4275)"/>
<g opacity="0.39">
<path d="M121.422 26.0039C132.919 26.0039 142.24 31.2783 142.24 37.7847C142.24 39.1996 141.798 40.5559 140.989 41.8127C141.925 40.4734 142.439 39.0141 142.439 37.4866C142.439 30.9803 133.119 25.7058 121.621 25.7058C112.623 25.7058 104.959 28.9362 102.052 33.4593C105.099 29.093 112.623 26.0039 121.422 26.0039Z" fill="white"/>
<path d="M126.574 49.1993C126.558 49.2016 126.542 49.2042 126.526 49.2065C125.849 50.5141 124.848 52.3318 123.68 54.095C124.849 52.3671 125.862 50.5562 126.574 49.1993Z" fill="white"/>
</g>
<path d="M58.9419 107.612L74.1779 134.362L79.7464 130.915L70.3467 111.395L71.8342 109.708L68.0031 99.7621L58.9419 107.612Z" fill="url(#paint5_linear_3338_4275)"/>
<path d="M54.3438 111.451L68.3874 133.89L74.1793 134.36L58.9433 107.61L54.3438 111.451Z" fill="url(#paint6_linear_3338_4275)"/>
<path d="M114.64 88.6661C113.097 98.7853 104.277 101.139 94.9407 93.9226C85.6041 86.7065 79.2861 72.6534 80.8291 62.5342C82.3721 52.415 91.1918 50.0616 100.528 57.2777C109.865 64.4938 116.183 78.5469 114.64 88.6661Z" fill="url(#paint7_linear_3338_4275)"/>
<path d="M113.656 89.6188C112.113 99.738 103.293 102.091 93.9569 94.8754C84.6203 87.6593 78.3024 73.6062 79.8454 63.487C81.3884 53.3678 90.208 51.0143 99.5445 58.2304C108.881 65.4465 115.199 79.4996 113.656 89.6188Z" fill="url(#paint8_linear_3338_4275)"/>
<path d="M99.5434 58.2303C94.4364 54.2833 89.4842 53.1993 85.7928 54.6834C89.4681 53.286 94.3563 54.3914 99.3958 58.2863C108.732 65.5024 115.05 79.5555 113.507 89.6747C112.808 94.2588 110.616 97.2493 107.559 98.4783C110.693 97.2867 112.945 94.276 113.655 89.6187C115.198 79.4996 108.88 65.4464 99.5434 58.2303Z" fill="white"/>
<path d="M111.73 88.7555C110.317 98.0207 102.24 100.175 93.6893 93.5678C85.1408 86.9607 79.3546 74.0922 80.7677 64.8249C82.1809 55.5575 90.2577 53.4032 98.8063 60.0102C99.7761 60.7599 100.713 61.5914 101.605 62.4892C106.441 67.3488 110.043 74.1516 111.375 80.6049C111.966 83.4572 112.114 86.2384 111.73 88.7555Z" fill="url(#paint9_linear_3338_4275)"/>
<path d="M54.8377 112.045C54.8377 112.045 89.2658 92.6314 104.877 97.2311L83.72 58.4008C75.0699 82.51 44.3969 93.7379 44.3969 93.7379L54.8377 112.045Z" fill="url(#paint10_linear_3338_4275)"/>
<path d="M44.2949 94.3763L61.3998 84.7191C70.5794 86.8084 75.3406 94.1648 73.1713 103.254L52.2253 113.455L44.2949 94.3763Z" fill="url(#paint11_linear_3338_4275)"/>
<path d="M55.3969 109.521C54.7388 113.836 50.9508 114.835 46.9358 111.753C42.9218 108.671 40.2007 102.673 40.8588 98.3571C41.517 94.0408 45.3051 93.0413 49.3191 96.1234C49.7745 96.4732 50.2146 96.861 50.6332 97.2796C52.9049 99.5459 54.5982 102.717 55.2265 105.724C55.5052 107.053 55.5757 108.348 55.3969 109.521Z" fill="url(#paint12_linear_3338_4275)"/>
<path d="M52.2326 110.632C51.6602 114.386 48.3647 115.255 44.8719 112.574C41.38 109.892 39.0128 104.675 39.5854 100.92C40.158 97.1649 43.4534 96.2955 46.9454 98.9768C47.3415 99.2812 47.7244 99.6185 48.0886 99.9827C50.0648 101.954 51.5378 104.713 52.0844 107.329C52.3268 108.485 52.3882 109.612 52.2326 110.632Z" fill="url(#paint13_linear_3338_4275)"/>
<path d="M71.9181 103.786L73.2462 107.604L71.5065 108.873L69.8142 104.739L71.9181 103.786Z" fill="#DB7D0B"/>
<defs>
<linearGradient id="paint0_linear_3338_4275" x1="114.385" y1="40.5446" x2="141.353" y2="44.7885" gradientUnits="userSpaceOnUse">
<stop stop-color="#2D8462"/>
<stop offset="1" stop-color="#4BD19D"/>
</linearGradient>
<linearGradient id="paint1_linear_3338_4275" x1="137.058" y1="44.7435" x2="108.583" y2="42.2567" gradientUnits="userSpaceOnUse">
<stop stop-color="#2D8462"/>
<stop offset="1" stop-color="#4BD19D"/>
</linearGradient>
<linearGradient id="paint2_linear_3338_4275" x1="121.675" y1="33.9844" x2="121.675" y2="32.7463" gradientUnits="userSpaceOnUse">
<stop stop-color="#F9F9F9"/>
<stop offset="1" stop-color="#D7D6D6"/>
</linearGradient>
<linearGradient id="paint3_linear_3338_4275" x1="121.675" y1="38.0797" x2="121.675" y2="36.8417" gradientUnits="userSpaceOnUse">
<stop stop-color="#F9F9F9"/>
<stop offset="1" stop-color="#D7D6D6"/>
</linearGradient>
<linearGradient id="paint4_linear_3338_4275" x1="121.675" y1="42.1751" x2="121.675" y2="40.937" gradientUnits="userSpaceOnUse">
<stop stop-color="#F9F9F9"/>
<stop offset="1" stop-color="#D7D6D6"/>
</linearGradient>
<linearGradient id="paint5_linear_3338_4275" x1="62.414" y1="108.595" x2="79.6448" y2="125.691" gradientUnits="userSpaceOnUse">
<stop stop-color="#177DE2"/>
<stop offset="1" stop-color="#214E9C"/>
</linearGradient>
<linearGradient id="paint6_linear_3338_4275" x1="71.9496" y1="136.966" x2="58.9622" y2="112.816" gradientUnits="userSpaceOnUse">
<stop stop-color="#177DE2"/>
<stop offset="1" stop-color="#214E9C"/>
</linearGradient>
<linearGradient id="paint7_linear_3338_4275" x1="93.4978" y1="60.9897" x2="101.532" y2="89.1603" gradientUnits="userSpaceOnUse">
<stop stop-color="#F9F9F9"/>
<stop offset="1" stop-color="#A3A2A2"/>
</linearGradient>
<linearGradient id="paint8_linear_3338_4275" x1="102.653" y1="90.4608" x2="90.6978" y2="61.8182" gradientUnits="userSpaceOnUse">
<stop stop-color="#F9F9F9"/>
<stop offset="1" stop-color="#C1C0C0"/>
</linearGradient>
<linearGradient id="paint9_linear_3338_4275" x1="87.287" y1="62.2695" x2="104.701" y2="90.9574" gradientUnits="userSpaceOnUse">
<stop stop-color="#F9F9F9"/>
<stop offset="1" stop-color="#C1C0C0"/>
</linearGradient>
<linearGradient id="paint10_linear_3338_4275" x1="63.8807" y1="76.4763" x2="81.2944" y2="105.164" gradientUnits="userSpaceOnUse">
<stop stop-color="#F9F9F9"/>
<stop offset="1" stop-color="#C1C0C0"/>
</linearGradient>
<linearGradient id="paint11_linear_3338_4275" x1="54.9692" y1="90.7514" x2="63.6902" y2="105.692" gradientUnits="userSpaceOnUse">
<stop stop-color="#177DE2"/>
<stop offset="1" stop-color="#253D82"/>
</linearGradient>
<linearGradient id="paint12_linear_3338_4275" x1="44.6607" y1="98.1512" x2="54.1464" y2="114.251" gradientUnits="userSpaceOnUse">
<stop stop-color="#177DE2"/>
<stop offset="1" stop-color="#253D82"/>
</linearGradient>
<linearGradient id="paint13_linear_3338_4275" x1="47.116" y1="115.043" x2="45.2473" y2="100.457" gradientUnits="userSpaceOnUse">
<stop stop-color="#177DE2"/>
<stop offset="1" stop-color="#253D82"/>
</linearGradient>
</defs>
</svg>
