<svg width="177" height="176" viewBox="0 0 177 176" fill="none" xmlns="http://www.w3.org/2000/svg">
<path fill-rule="evenodd" clip-rule="evenodd" d="M92.0566 0.00116606C119.915 -0.0986797 149.543 6.1884 166.207 28.5707C182.416 50.342 177.214 79.4761 170.895 105.894C164.694 131.816 156.105 159.754 132.089 171.195C108.174 182.588 81.1989 171.639 57.425 159.951C33.9367 148.403 11.1602 133.21 3.69579 108.073C-4.32598 81.0598 0.745975 50.8978 18.5682 29.0998C36.1343 7.61507 64.3472 0.100478 92.0566 0.00116606Z" fill="#B3FFC6"/>
<g clip-path="url(#clip0_3338_4359)">
<path d="M58.4894 110.726C58.9957 110.726 59.5051 110.666 60.0045 110.546L105.801 99.5816C109.509 98.6934 111.979 94.7086 111.425 90.5106L106.352 52.0705C105.834 48.1437 102.77 45.1808 99.2264 45.1808C98.9423 45.1808 98.6556 45.1997 98.3667 45.2388L52.1635 51.4025C50.222 51.6607 48.4954 52.7584 47.303 54.4933C46.1101 56.2293 45.6043 58.3786 45.8789 60.5469L51.3584 103.789C51.8599 107.743 54.9255 110.726 58.4894 110.726Z" fill="url(#paint0_linear_3338_4359)"/>
<path d="M59.7136 109.194C60.2198 109.194 60.7293 109.133 61.2286 109.013L107.026 98.0491C110.733 97.161 113.203 93.1761 112.649 88.9781L107.576 50.538C107.058 46.6112 103.994 43.6483 100.45 43.6483C100.166 43.6483 99.8797 43.6673 99.5908 43.7063L53.3877 49.87C51.4462 50.1282 49.7196 51.226 48.5272 52.9608C47.3342 54.6968 46.8285 56.8461 47.1031 59.0144L52.5825 102.256C53.084 106.211 56.1496 109.194 59.7136 109.194Z" fill="url(#paint1_linear_3338_4359)"/>
<path d="M49.2754 55.6283C50.1096 54.2823 51.453 53.3123 53.0348 53.106L99.2424 46.9338C102.124 46.5579 104.757 48.8134 105.179 52.0268L110.261 90.4667C110.402 91.5581 110.272 92.6252 109.925 93.5831C110.672 92.3705 111.03 90.8547 110.824 89.2783L105.754 50.8384C105.331 47.625 102.698 45.3695 99.8057 45.7575L53.609 51.9176C51.5939 52.1845 49.9796 53.6639 49.2754 55.6283Z" fill="#2C2F44"/>
<path d="M48.9276 58.7211L54.4097 101.963C54.8431 105.419 57.8008 107.723 60.8451 106.995L106.641 96.0333C108.017 95.6937 109.165 94.7964 109.924 93.5838C110.27 92.6259 110.4 91.5588 110.26 90.4674L105.178 52.0276C104.756 48.8141 102.123 46.5587 99.2412 46.9346L53.0337 53.1068C51.452 53.313 50.1085 54.283 49.2743 55.629C48.9168 56.5749 48.7868 57.6298 48.9276 58.7211Z" fill="url(#paint2_linear_3338_4359)"/>
<path d="M85.5484 63.3347L88.0387 84.3553L72.682 75.0644L85.5484 63.3347Z" fill="url(#paint3_linear_3338_4359)"/>
<path d="M63.8675 116.181C64.3737 116.181 64.8832 116.121 65.3825 116.001L111.179 105.037C114.887 104.149 117.357 100.164 116.803 95.9659L111.73 57.5258C111.212 53.599 108.148 50.6361 104.604 50.6361C104.32 50.6361 104.034 50.655 103.745 50.6941L57.5415 56.8578C55.6001 57.116 53.8734 58.2137 52.681 59.9486C51.4881 61.6846 50.9824 63.8339 51.2569 66.0022L56.7364 109.244C57.2379 113.198 60.3035 116.181 63.8675 116.181Z" fill="url(#paint4_linear_3338_4359)"/>
<path d="M65.0916 114.649C65.5978 114.649 66.1073 114.588 66.6067 114.469L112.404 103.504C116.111 102.616 118.581 98.6315 118.027 94.4334L112.954 55.9933C112.436 52.0665 109.372 49.1036 105.829 49.1036C105.544 49.1036 105.258 49.1226 104.969 49.1616L58.7657 55.3254C56.8242 55.5835 55.0975 56.6813 53.9052 58.4161C52.7122 60.1521 52.2065 62.3015 52.481 64.4697L57.9605 107.712C58.462 111.666 61.5276 114.649 65.0916 114.649Z" fill="url(#paint5_linear_3338_4359)"/>
<path d="M54.6534 61.0836C55.4877 59.7376 56.8311 58.7676 58.4128 58.5614L104.62 52.3892C107.502 52.0133 110.135 54.2687 110.557 57.4822L115.639 95.922C115.78 97.0134 115.65 98.0805 115.303 99.0384C116.05 97.8258 116.408 96.31 116.202 94.7336L111.132 56.2937C110.709 53.0803 108.076 50.8248 105.184 51.2128L58.9871 57.3729C56.9719 57.6398 55.3577 59.1192 54.6534 61.0836Z" fill="#2C2F44"/>
<path d="M54.3057 64.1764L59.7877 107.418C60.2211 110.874 63.1788 113.178 66.2232 112.451L112.019 101.489C113.395 101.149 114.543 100.252 115.302 99.0392C115.648 98.0812 115.778 97.0141 115.638 95.9227L110.556 57.4829C110.134 54.2694 107.501 52.014 104.619 52.3899L58.4117 58.5621C56.83 58.7683 55.4865 59.7384 54.6523 61.0844C54.2948 62.0302 54.1648 63.0852 54.3057 64.1764Z" fill="url(#paint6_linear_3338_4359)"/>
<path d="M78.7691 70.4825L80.9859 91.5412L93.8232 78.3083L78.7691 70.4825Z" fill="url(#paint7_linear_3338_4359)"/>
<path d="M91.217 97.3784L92.3053 107.883C92.4162 108.776 93.1729 109.388 93.9517 109.219L105.982 107.346C106.334 107.266 106.628 107.042 106.822 106.734C106.911 106.49 107.648 105.737 107.612 105.455L105.608 95.9954C105.5 95.1646 104.826 94.5674 104.089 94.6467L92.6098 94.9879C92.2052 95.0315 91.5192 96.2417 91.3058 96.5836C91.2143 96.8252 91.181 97.0963 91.217 97.3784Z" fill="url(#paint8_linear_3338_4359)"/>
<path d="M92.0886 96.2217L93.1769 106.726C93.2877 107.619 94.0444 108.231 94.8233 108.062L106.854 106.189C107.206 106.11 107.499 105.885 107.693 105.578C107.782 105.333 107.815 105.059 107.779 104.776L106.479 94.8387C106.371 94.0079 105.698 93.4106 104.961 93.49L93.1391 94.7996C92.7345 94.8431 92.3908 95.085 92.1773 95.4268C92.0859 95.6684 92.0526 95.9396 92.0886 96.2217Z" fill="url(#paint9_linear_3338_4359)"/>
<path d="M100.83 98.6782L101.317 102.624L98.8686 100.991C98.8686 100.991 100.932 98.7236 100.83 98.6782Z" fill="url(#paint10_linear_3338_4359)"/>
<path d="M98.9225 98.9486L99.4087 102.894L96.9607 101.262C96.9607 101.262 99.0238 98.9939 98.9225 98.9486Z" fill="url(#paint11_linear_3338_4359)"/>
<path d="M145.206 87.1104L146.566 97.4688C146.699 98.3486 147.468 98.9116 148.237 98.6986L160.145 96.1406C160.493 96.0416 160.779 95.802 160.964 95.4852C161.045 95.2372 161.759 94.4478 161.715 94.17L159.473 84.9015C159.343 84.0836 158.658 83.5301 157.927 83.6518L146.527 84.6579C146.126 84.7246 145.476 85.9652 145.273 86.3168C145.188 86.5617 145.162 86.8326 145.206 87.1104Z" fill="url(#paint12_linear_3338_4359)"/>
<path d="M146.04 85.9119L147.4 96.2703C147.534 97.1501 148.302 97.7131 149.072 97.5001L160.979 94.9421C161.327 94.8431 161.613 94.6035 161.798 94.2868C161.88 94.0388 161.905 93.7647 161.862 93.4869L160.307 83.703C160.177 82.8851 159.492 82.3316 158.761 82.4533L147.046 84.4401C146.645 84.5068 146.31 84.7667 146.107 85.1183C146.022 85.3633 145.997 85.6342 146.04 85.9119Z" fill="url(#paint13_linear_3338_4359)"/>
<path d="M151.653 87.7439L152.126 91.6496L154.097 89.4144C154.097 89.4144 151.567 87.8152 151.653 87.7439Z" fill="url(#paint14_linear_3338_4359)"/>
<path d="M153.558 87.4763L154.03 91.382L156.001 89.1468C156.001 89.1468 153.471 87.5476 153.558 87.4763Z" fill="url(#paint15_linear_3338_4359)"/>
<path d="M144.845 70.5687C142.76 86.8192 140.884 103.102 138.799 119.352C138.562 121.176 137.085 122.357 135.503 121.991C125.2 119.61 119.922 117.909 109.346 115.333C107.712 114.934 106.591 113.17 106.83 111.378C108.878 95.9933 110.926 80.6085 112.975 65.2236C113.215 63.4208 114.702 62.188 116.313 62.4567C126.736 64.1953 131.948 65.0646 142.372 66.8032C143.973 67.0702 145.084 68.7338 144.845 70.5687Z" fill="url(#paint16_linear_3338_4359)"/>
<path d="M144.845 70.5687C144.622 72.2812 144.511 73.147 144.29 74.8923C131.574 72.7761 125.187 71.5879 112.414 69.4303C112.639 67.7476 112.751 66.9063 112.975 65.2236C113.215 63.4208 114.702 62.188 116.313 62.4567C126.736 64.1953 131.948 65.0646 142.372 66.8032C143.973 67.0702 145.084 68.7338 144.845 70.5687Z" fill="url(#paint17_linear_3338_4359)"/>
<path d="M120.337 81.864C117.91 81.3955 116.696 81.1622 114.266 80.7051C113.627 80.5851 113.186 79.9094 113.28 79.1952C113.53 77.3015 113.655 76.3549 113.905 74.4627C113.999 73.7491 114.592 73.2606 115.229 73.3722C117.655 73.7965 118.867 74.0117 121.29 74.443C121.927 74.5563 122.368 75.2346 122.275 75.959C122.029 77.8794 121.906 78.8421 121.66 80.7702C121.567 81.4972 120.975 81.9872 120.337 81.864Z" fill="#FAC20B"/>
<path d="M140.295 78.9771C134.241 77.9255 131.204 77.3672 125.125 76.2684C124.99 76.2441 124.896 76.0981 124.916 75.9442C124.917 75.9351 124.917 75.9305 124.918 75.9214C124.938 75.7675 125.064 75.6614 125.199 75.6856C131.278 76.7778 134.314 77.3323 140.37 78.3795C140.504 78.4028 140.597 78.5508 140.578 78.7088C140.577 78.7181 140.576 78.7228 140.575 78.7322C140.555 78.8902 140.429 79.0004 140.295 78.9771Z" fill="url(#paint18_linear_3338_4359)"/>
<path d="M140.104 80.5394C134.051 79.4754 131.015 78.9069 124.934 77.7897C124.799 77.765 124.705 77.6185 124.724 77.4643C124.726 77.4551 124.726 77.4506 124.727 77.4415C124.747 77.2873 124.873 77.1812 125.008 77.2058C131.088 78.3157 134.125 78.8802 140.178 79.9394C140.312 79.9628 140.406 80.1116 140.386 80.2702C140.385 80.2796 140.385 80.2842 140.383 80.2937C140.364 80.4523 140.238 80.5629 140.104 80.5394Z" fill="#C0C1C9"/>
<path d="M139.909 82.1063C133.858 81.0287 130.821 80.4494 124.739 79.3129C124.604 79.2877 124.51 79.1408 124.53 78.9863C124.531 78.9771 124.531 78.9725 124.532 78.9634C124.552 78.8089 124.678 78.703 124.813 78.728C130.895 79.8569 133.931 80.4321 139.983 81.5042C140.117 81.528 140.211 81.6774 140.191 81.8366C140.19 81.846 140.189 81.8508 140.188 81.8602C140.169 82.0194 140.043 82.1301 139.909 82.1063Z" fill="#C0C1C9"/>
<path d="M139.714 83.6786C133.665 82.5864 130.628 81.9958 124.544 80.8388C124.409 80.8132 124.315 80.6655 124.335 80.5109C124.336 80.5017 124.336 80.4972 124.338 80.488C124.357 80.3333 124.483 80.2276 124.618 80.253C130.701 81.402 133.738 81.9883 139.788 83.0747C139.922 83.0988 140.016 83.249 139.996 83.4086C139.995 83.4181 139.995 83.4227 139.993 83.4322C139.974 83.5917 139.848 83.7027 139.714 83.6786Z" fill="#C0C1C9"/>
<path d="M133.026 84.0382C129.54 83.3736 127.793 83.0324 124.295 82.3551C124.193 82.3352 124.121 82.2223 124.136 82.1043C124.144 82.0415 124.147 82.0101 124.155 81.9474C124.17 81.8293 124.267 81.749 124.369 81.7687C127.866 82.4412 129.613 82.7801 133.1 83.4402C133.202 83.4596 133.274 83.5739 133.259 83.6944C133.251 83.7585 133.247 83.7904 133.239 83.8546C133.224 83.9751 133.128 84.0577 133.026 84.0382Z" fill="#C0C1C9"/>
<path d="M139.62 85.272C137.423 84.8701 136.324 84.6638 134.122 84.2461C134.04 84.2306 133.982 84.139 133.994 84.0425C134.007 83.9431 134.013 83.8933 134.025 83.7939C134.037 83.6975 134.113 83.6313 134.195 83.6468C136.397 84.0617 137.497 84.2668 139.693 84.6666C139.775 84.6814 139.832 84.7731 139.82 84.8706C139.808 84.9711 139.802 85.0214 139.79 85.1219C139.778 85.2194 139.701 85.287 139.62 85.272Z" fill="url(#paint19_linear_3338_4359)"/>
<path d="M116.794 75.7153C116.637 76.9131 116.559 77.5123 116.403 78.7115C117.151 78.236 117.525 77.9976 118.273 77.5192C117.681 76.7951 117.385 76.4344 116.794 75.7153Z" fill="#EBEBEB"/>
<path d="M119.092 91.6039C116.659 91.0767 115.442 90.8144 113.005 90.3048C112.364 90.1708 111.921 89.4841 112.015 88.7695C112.265 86.8745 112.39 85.9269 112.64 84.0323C112.734 83.3178 113.329 82.8375 113.968 82.9607C116.4 83.4294 117.615 83.6693 120.043 84.1511C120.681 84.2776 121.123 84.9711 121.031 85.7C120.785 87.6327 120.662 88.6002 120.416 90.5344C120.324 91.2639 119.731 91.7425 119.092 91.6039Z" fill="#FAC20B"/>
<path d="M139.053 89.0849C133.009 87.9366 129.972 87.3041 123.883 86.0709C123.748 86.0436 123.654 85.8942 123.673 85.739C123.674 85.7298 123.675 85.7252 123.676 85.716C123.695 85.5608 123.822 85.456 123.957 85.4832C130.045 86.7074 133.083 87.3351 139.127 88.4767C139.261 88.5019 139.354 88.654 139.335 88.8148C139.334 88.8244 139.333 88.8291 139.332 88.8387C139.312 88.9995 139.187 89.1103 139.053 89.0849Z" fill="url(#paint20_linear_3338_4359)"/>
<path d="M138.862 90.671C132.82 89.505 129.782 88.8597 123.692 87.603C123.557 87.5751 123.462 87.4252 123.482 87.2699C123.483 87.2607 123.484 87.2562 123.485 87.247C123.504 87.0917 123.631 86.9872 123.766 87.0148C129.855 88.2625 132.893 88.9029 138.936 90.062C139.07 90.0876 139.163 90.2404 139.144 90.4013C139.143 90.4109 139.142 90.4156 139.141 90.4251C139.122 90.586 138.996 90.6968 138.862 90.671Z" fill="#C0C1C9"/>
<path d="M138.668 92.2586C132.627 91.0747 129.589 90.4163 123.497 89.1357C123.362 89.1073 123.268 88.9571 123.287 88.8017C123.288 88.7925 123.289 88.7878 123.29 88.7786C123.31 88.6233 123.436 88.5193 123.571 88.5475C129.662 89.8188 132.7 90.4722 138.741 91.6492C138.875 91.6752 138.969 91.8283 138.949 91.9894C138.948 91.9989 138.948 92.0038 138.946 92.0133C138.927 92.1743 138.802 92.2848 138.668 92.2586Z" fill="#C0C1C9"/>
<path d="M138.477 93.8478C132.438 92.6458 129.399 91.9743 123.306 90.6697C123.171 90.6408 123.076 90.49 123.096 90.3346C123.097 90.3253 123.098 90.3208 123.099 90.3116C123.118 90.1562 123.245 90.0525 123.38 90.0812C129.472 91.3765 132.511 92.0431 138.551 93.238C138.684 93.2645 138.778 93.4181 138.758 93.5792C138.757 93.5888 138.757 93.5935 138.756 93.6031C138.736 93.7642 138.611 93.8743 138.477 93.8478Z" fill="#C0C1C9"/>
<path d="M131.791 94.0833C128.305 93.3392 126.556 92.9533 123.053 92.1897C122.95 92.1672 122.878 92.052 122.893 91.9336C122.901 91.8705 122.905 91.8391 122.913 91.7761C122.928 91.6577 123.024 91.5791 123.127 91.6013C126.63 92.3596 128.378 92.7429 131.864 93.4819C131.967 93.5037 132.038 93.6205 132.024 93.7417C132.016 93.8061 132.012 93.8383 132.004 93.9027C131.989 94.0239 131.893 94.1052 131.791 94.0833Z" fill="#C0C1C9"/>
<path d="M138.383 95.4551C136.19 95.0125 135.091 94.783 132.89 94.3163C132.808 94.299 132.751 94.2054 132.763 94.1084C132.775 94.0085 132.781 93.9584 132.793 93.8584C132.805 93.7615 132.882 93.6962 132.964 93.7135C135.165 94.1772 136.264 94.4053 138.456 94.8454C138.538 94.8618 138.595 94.9554 138.583 95.0535C138.571 95.1547 138.564 95.2053 138.552 95.3065C138.54 95.4048 138.464 95.4716 138.383 95.4551Z" fill="url(#paint21_linear_3338_4359)"/>
<path d="M115.536 85.345C115.38 86.5462 115.302 87.1469 115.146 88.3484C115.896 87.8865 116.271 87.6547 117.02 87.1892C116.427 86.4483 116.13 86.0795 115.536 85.345Z" fill="#EBEBEB"/>
<path d="M117.846 101.336C115.408 100.752 114.187 100.462 111.743 99.902C111.101 99.7547 110.657 99.0581 110.751 98.344C111.001 96.4502 111.126 95.503 111.376 93.6084C111.47 92.8938 112.066 92.4245 112.707 92.5617C115.145 93.0839 116.364 93.3531 118.797 93.8944C119.437 94.0366 119.88 94.7435 119.787 95.4724C119.542 97.405 119.419 98.3708 119.173 100.299C119.08 101.026 118.486 101.49 117.846 101.336Z" fill="#FAC20B"/>
<path d="M137.816 99.2791C131.783 98.0156 128.743 97.2995 122.644 95.9134C122.509 95.8827 122.415 95.7305 122.434 95.5753C122.435 95.566 122.436 95.5615 122.437 95.5523C122.457 95.3971 122.583 95.295 122.718 95.3254C128.816 96.7027 131.856 97.4139 137.89 98.6705C138.024 98.6984 138.117 98.8527 138.098 99.0136C138.096 99.0232 138.096 99.0279 138.095 99.0375C138.075 99.1984 137.95 99.3071 137.816 99.2791Z" fill="url(#paint22_linear_3338_4359)"/>
<path d="M137.625 100.865C131.593 99.584 128.553 98.8552 122.453 97.4459C122.318 97.4146 122.224 97.2621 122.243 97.1069C122.244 97.0977 122.245 97.0932 122.246 97.084C122.266 96.9287 122.392 96.8273 122.527 96.8582C128.627 98.2587 131.667 98.9827 137.699 100.257C137.833 100.285 137.926 100.44 137.907 100.6C137.906 100.61 137.905 100.615 137.904 100.624C137.884 100.785 137.759 100.893 137.625 100.865Z" fill="#C0C1C9"/>
<path d="M137.434 102.446C131.404 101.148 128.364 100.407 122.262 98.9751C122.127 98.9434 122.032 98.7907 122.052 98.6356C122.053 98.6264 122.054 98.6218 122.055 98.6126C122.074 98.4576 122.201 98.3565 122.336 98.3881C128.437 99.8115 131.477 100.548 137.508 101.839C137.642 101.868 137.735 102.022 137.716 102.182C137.714 102.192 137.714 102.197 137.713 102.206C137.693 102.367 137.568 102.474 137.434 102.446Z" fill="#C0C1C9"/>
<path d="M137.243 104.025C131.215 102.711 128.174 101.958 122.071 100.504C121.936 100.472 121.841 100.319 121.861 100.164C121.862 100.155 121.862 100.151 121.864 100.141C121.883 99.9865 122.01 99.8859 122.145 99.9179C128.247 101.363 131.288 102.112 137.317 103.419C137.451 103.448 137.544 103.603 137.525 103.763C137.523 103.773 137.523 103.777 137.522 103.787C137.502 103.947 137.377 104.054 137.243 104.025Z" fill="#C0C1C9"/>
<path d="M130.563 104.115C127.077 103.294 125.327 102.864 121.818 102.017C121.715 101.992 121.643 101.875 121.658 101.757C121.666 101.694 121.67 101.663 121.678 101.6C121.693 101.482 121.789 101.406 121.892 101.431C125.401 102.274 127.151 102.701 130.636 103.518C130.739 103.542 130.81 103.66 130.796 103.78C130.788 103.844 130.784 103.876 130.776 103.94C130.761 104.06 130.665 104.139 130.563 104.115Z" fill="#C0C1C9"/>
<path d="M137.145 105.62C134.957 105.138 133.859 104.886 131.658 104.372C131.577 104.352 131.52 104.258 131.531 104.162C131.544 104.063 131.55 104.013 131.562 103.914C131.574 103.818 131.65 103.755 131.732 103.774C133.933 104.285 135.03 104.536 137.219 105.016C137.301 105.034 137.357 105.128 137.345 105.225C137.333 105.325 137.327 105.375 137.315 105.476C137.303 105.573 137.227 105.638 137.145 105.62Z" fill="url(#paint23_linear_3338_4359)"/>
<path d="M114.283 94.9879C114.127 96.1888 114.049 96.789 113.892 97.989C114.644 97.5429 115.02 97.3194 115.771 96.8703C115.176 96.1144 114.878 95.7377 114.283 94.9879Z" fill="#EBEBEB"/>
<path d="M116.601 111.005C114.159 110.38 112.936 110.071 110.485 109.477C109.841 109.32 109.396 108.618 109.49 107.905C109.74 106.015 109.865 105.07 110.115 103.178C110.209 102.464 110.807 102.005 111.45 102.155C113.895 102.725 115.117 103.021 117.555 103.616C118.196 103.773 118.64 104.488 118.547 105.212C118.301 107.132 118.178 108.09 117.931 110C117.838 110.72 117.243 111.169 116.601 111.005Z" fill="#FAC20B"/>
<path d="M136.581 109.391C130.559 108.03 127.517 107.24 121.41 105.718C121.274 105.684 121.18 105.531 121.199 105.377C121.2 105.368 121.201 105.363 121.202 105.354C121.222 105.2 121.348 105.101 121.484 105.135C127.591 106.649 130.632 107.436 136.656 108.792C136.789 108.822 136.882 108.976 136.863 109.135C136.861 109.144 136.861 109.149 136.86 109.158C136.84 109.316 136.715 109.421 136.581 109.391Z" fill="url(#paint24_linear_3338_4359)"/>
<path d="M136.39 110.946C130.369 109.574 127.327 108.774 121.218 107.235C121.083 107.201 120.988 107.048 121.008 106.894C121.009 106.885 121.01 106.88 121.011 106.871C121.031 106.717 121.157 106.619 121.293 106.653C127.401 108.185 130.443 108.982 136.464 110.35C136.598 110.38 136.691 110.534 136.671 110.692C136.67 110.701 136.669 110.706 136.668 110.715C136.648 110.873 136.523 110.977 136.39 110.946Z" fill="#C0C1C9"/>
<path d="M136.195 112.496C130.176 111.114 127.134 110.305 121.024 108.751C120.888 108.716 120.794 108.563 120.813 108.409C120.814 108.4 120.815 108.395 120.816 108.386C120.836 108.233 120.962 108.135 121.098 108.17C127.208 109.718 130.249 110.524 136.269 111.902C136.402 111.933 136.495 112.086 136.476 112.243C136.475 112.252 136.474 112.257 136.473 112.266C136.453 112.423 136.328 112.526 136.195 112.496Z" fill="#C0C1C9"/>
<path d="M136.003 114.038C129.986 112.648 126.944 111.83 120.833 110.262C120.697 110.227 120.602 110.074 120.622 109.921C120.623 109.912 120.624 109.907 120.625 109.898C120.645 109.745 120.771 109.648 120.907 109.682C127.018 111.245 130.059 112.06 136.077 113.447C136.211 113.478 136.304 113.631 136.284 113.787C136.283 113.796 136.282 113.8 136.281 113.81C136.261 113.966 136.136 114.068 136.003 114.038Z" fill="#C0C1C9"/>
<path d="M129.333 114C125.848 113.125 124.097 112.664 120.583 111.755C120.48 111.729 120.408 111.612 120.423 111.495C120.431 111.433 120.435 111.403 120.443 111.341C120.458 111.224 120.554 111.151 120.658 111.177C124.171 112.083 125.922 112.543 129.407 113.416C129.509 113.441 129.581 113.559 129.566 113.676C129.558 113.739 129.554 113.77 129.546 113.833C129.531 113.951 129.435 114.026 129.333 114Z" fill="#C0C1C9"/>
<path d="M135.903 115.593C133.719 115.087 132.622 114.82 130.423 114.272C130.342 114.252 130.284 114.159 130.296 114.064C130.309 113.967 130.315 113.919 130.327 113.822C130.339 113.728 130.416 113.667 130.497 113.688C132.697 114.233 133.793 114.5 135.978 115.005C136.059 115.024 136.115 115.117 136.103 115.212C136.091 115.309 136.085 115.358 136.072 115.455C136.06 115.55 135.984 115.612 135.903 115.593Z" fill="url(#paint25_linear_3338_4359)"/>
<path d="M113.03 104.612C112.874 105.809 112.795 106.407 112.639 107.601C113.393 107.169 113.769 106.953 114.522 106.52C113.925 105.755 113.627 105.373 113.03 104.612Z" fill="#EBEBEB"/>
<path d="M116.684 66.0173C116.64 66.3456 116.368 66.5719 116.074 66.5227C115.781 66.4736 115.579 66.1676 115.622 65.8395C115.666 65.5113 115.938 65.285 116.231 65.3341C116.525 65.3831 116.727 65.6889 116.684 66.0173Z" fill="#EBEBEB"/>
<path d="M118.272 66.2847C118.228 66.6134 117.956 66.8399 117.663 66.7906C117.369 66.7413 117.167 66.435 117.21 66.1066C117.253 65.7781 117.526 65.5518 117.819 65.6008C118.112 65.6499 118.315 65.956 118.272 66.2847Z" fill="#EBEBEB"/>
<path d="M119.867 66.552C119.824 66.881 119.551 67.1078 119.258 67.0584C118.965 67.0091 118.762 66.7024 118.805 66.3736C118.849 66.0448 119.121 65.8183 119.414 65.8674C119.707 65.9166 119.91 66.2229 119.867 66.552Z" fill="#EBEBEB"/>
</g>
<defs>
<linearGradient id="paint0_linear_3338_4359" x1="90.3297" y1="103.811" x2="54.0534" y2="38.5414" gradientUnits="userSpaceOnUse">
<stop stop-color="#3B3E5E"/>
<stop offset="1" stop-color="#626282"/>
</linearGradient>
<linearGradient id="paint1_linear_3338_4359" x1="112.727" y1="76.4209" x2="47.03" y2="76.4209" gradientUnits="userSpaceOnUse">
<stop stop-color="#3B3E5E"/>
<stop offset="1" stop-color="#626282"/>
</linearGradient>
<linearGradient id="paint2_linear_3338_4359" x1="78.6005" y1="44.7672" x2="79.7359" y2="71.989" gradientUnits="userSpaceOnUse">
<stop stop-color="white"/>
<stop offset="0.5027" stop-color="#FABB0C"/>
<stop offset="1" stop-color="#F88019"/>
</linearGradient>
<linearGradient id="paint3_linear_3338_4359" x1="88.0387" y1="73.845" x2="72.682" y2="73.845" gradientUnits="userSpaceOnUse">
<stop stop-color="#CBCBD6"/>
<stop offset="1" stop-color="#F9FAF9"/>
</linearGradient>
<linearGradient id="paint4_linear_3338_4359" x1="95.7078" y1="109.266" x2="59.4314" y2="43.9967" gradientUnits="userSpaceOnUse">
<stop stop-color="#3B3E5E"/>
<stop offset="1" stop-color="#626282"/>
</linearGradient>
<linearGradient id="paint5_linear_3338_4359" x1="118.105" y1="81.8763" x2="52.4081" y2="81.8763" gradientUnits="userSpaceOnUse">
<stop stop-color="#3B3E5E"/>
<stop offset="1" stop-color="#626282"/>
</linearGradient>
<linearGradient id="paint6_linear_3338_4359" x1="89.1064" y1="108.141" x2="79.2959" y2="57.0112" gradientUnits="userSpaceOnUse">
<stop stop-color="#5B677C"/>
<stop offset="1" stop-color="#39A9A5"/>
</linearGradient>
<linearGradient id="paint7_linear_3338_4359" x1="78.6709" y1="81.3546" x2="93.7374" y2="77.9307" gradientUnits="userSpaceOnUse">
<stop stop-color="#CBCBD6"/>
<stop offset="1" stop-color="#F9FAF9"/>
</linearGradient>
<linearGradient id="paint8_linear_3338_4359" x1="107.614" y1="101.943" x2="91.2028" y2="101.943" gradientUnits="userSpaceOnUse">
<stop stop-color="#D3D3DC"/>
<stop offset="1" stop-color="#7D859E"/>
</linearGradient>
<linearGradient id="paint9_linear_3338_4359" x1="104.989" y1="125.922" x2="96.185" y2="91.6905" gradientUnits="userSpaceOnUse">
<stop stop-color="#CBCBD6"/>
<stop offset="1" stop-color="#F9FAF9"/>
</linearGradient>
<linearGradient id="paint10_linear_3338_4359" x1="101.317" y1="100.651" x2="98.8686" y2="100.651" gradientUnits="userSpaceOnUse">
<stop stop-color="#D3D3DC"/>
<stop offset="1" stop-color="#7D859E"/>
</linearGradient>
<linearGradient id="paint11_linear_3338_4359" x1="99.4087" y1="100.921" x2="96.9607" y2="100.921" gradientUnits="userSpaceOnUse">
<stop stop-color="#D3D3DC"/>
<stop offset="1" stop-color="#7D859E"/>
</linearGradient>
<linearGradient id="paint12_linear_3338_4359" x1="161.717" y1="91.1893" x2="145.185" y2="91.1893" gradientUnits="userSpaceOnUse">
<stop stop-color="#D3D3DC"/>
<stop offset="1" stop-color="#7D859E"/>
</linearGradient>
<linearGradient id="paint13_linear_3338_4359" x1="157.351" y1="107.026" x2="148.547" y2="72.7953" gradientUnits="userSpaceOnUse">
<stop stop-color="#CBCBD6"/>
<stop offset="1" stop-color="#F9FAF9"/>
</linearGradient>
<linearGradient id="paint14_linear_3338_4359" x1="154.097" y1="89.6968" x2="151.651" y2="89.6968" gradientUnits="userSpaceOnUse">
<stop stop-color="#D3D3DC"/>
<stop offset="1" stop-color="#7D859E"/>
</linearGradient>
<linearGradient id="paint15_linear_3338_4359" x1="156.001" y1="89.4292" x2="153.556" y2="89.4292" gradientUnits="userSpaceOnUse">
<stop stop-color="#D3D3DC"/>
<stop offset="1" stop-color="#7D859E"/>
</linearGradient>
<linearGradient id="paint16_linear_3338_4359" x1="125.838" y1="122.565" x2="125.838" y2="71.5897" gradientUnits="userSpaceOnUse">
<stop stop-color="#CBCBD6"/>
<stop offset="1" stop-color="#F9FAF9"/>
</linearGradient>
<linearGradient id="paint17_linear_3338_4359" x1="112.414" y1="68.6561" x2="144.878" y2="68.6561" gradientUnits="userSpaceOnUse">
<stop stop-color="#FBD008"/>
<stop offset="1" stop-color="#F88019"/>
</linearGradient>
<linearGradient id="paint18_linear_3338_4359" x1="124.913" y1="77.3312" x2="140.58" y2="77.3312" gradientUnits="userSpaceOnUse">
<stop stop-color="#5B677C"/>
<stop offset="1" stop-color="#39A9A5"/>
</linearGradient>
<linearGradient id="paint19_linear_3338_4359" x1="133.993" y1="84.4593" x2="139.822" y2="84.4593" gradientUnits="userSpaceOnUse">
<stop stop-color="#5B677C"/>
<stop offset="1" stop-color="#39A9A5"/>
</linearGradient>
<linearGradient id="paint20_linear_3338_4359" x1="123.67" y1="87.2837" x2="139.337" y2="87.2837" gradientUnits="userSpaceOnUse">
<stop stop-color="#5B677C"/>
<stop offset="1" stop-color="#39A9A5"/>
</linearGradient>
<linearGradient id="paint21_linear_3338_4359" x1="132.761" y1="94.5842" x2="138.584" y2="94.5842" gradientUnits="userSpaceOnUse">
<stop stop-color="#5B677C"/>
<stop offset="1" stop-color="#39A9A5"/>
</linearGradient>
<linearGradient id="paint22_linear_3338_4359" x1="122.432" y1="97.3018" x2="138.1" y2="97.3018" gradientUnits="userSpaceOnUse">
<stop stop-color="#5B677C"/>
<stop offset="1" stop-color="#39A9A5"/>
</linearGradient>
<linearGradient id="paint23_linear_3338_4359" x1="131.53" y1="104.696" x2="137.347" y2="104.696" gradientUnits="userSpaceOnUse">
<stop stop-color="#5B677C"/>
<stop offset="1" stop-color="#39A9A5"/>
</linearGradient>
<linearGradient id="paint24_linear_3338_4359" x1="121.197" y1="107.262" x2="136.865" y2="107.262" gradientUnits="userSpaceOnUse">
<stop stop-color="#5B677C"/>
<stop offset="1" stop-color="#39A9A5"/>
</linearGradient>
<linearGradient id="paint25_linear_3338_4359" x1="130.295" y1="114.64" x2="136.105" y2="114.64" gradientUnits="userSpaceOnUse">
<stop stop-color="#5B677C"/>
<stop offset="1" stop-color="#39A9A5"/>
</linearGradient>
<clipPath id="clip0_3338_4359">
<rect width="130" height="103" fill="white" transform="matrix(-1 0 0 1 165.5 36)"/>
</clipPath>
</defs>
</svg>
