<svg width="33" height="52" viewBox="0 0 33 52" fill="none" xmlns="http://www.w3.org/2000/svg">
<path d="M27.6531 13.7698C27.9202 12.7816 28.5127 11.9446 29.3103 11.429L32.9929 9.50124L29.3103 7.50463C28.9178 7.26352 28.5772 6.92908 28.3121 6.52472C28.047 6.12036 27.864 5.65586 27.7758 5.1638L26.5483 0.000186498L25.1366 5.43919C25.0132 5.93347 24.8031 6.39513 24.5185 6.79709C24.234 7.19906 23.8807 7.53324 23.4795 7.78003L19.7969 9.77661L23.4795 11.7044C23.8645 11.9559 24.1994 12.2934 24.4634 12.6961C24.7273 13.0987 24.9147 13.558 25.0139 14.0452L26.3028 19.4842L27.6531 13.7698Z" fill="#FF3185"/>
<path d="M13.841 43.8504C14.0319 43.1045 14.38 42.4041 14.8638 41.7926C15.3476 41.1811 15.9567 40.6713 16.6537 40.2949L23.0931 37.3794L16.6537 34.3928C15.9719 34.0339 15.3801 33.536 14.9198 32.9341C14.4595 32.3322 14.1418 31.6408 13.9891 30.9084L11.6945 22.7308L9.25204 30.9084C9.06892 31.6483 8.72317 32.342 8.23807 32.943C7.75297 33.5439 7.13969 34.0383 6.43939 34.3928L8.93421e-06 37.3794L6.36541 40.2949C7.06007 40.6648 7.66398 41.1737 8.13642 41.787C8.60887 42.4004 8.93881 43.104 9.10398 43.8504L11.3985 51.9569L13.841 43.8504Z" fill="#FF3185"/>
</svg>
