<?xml version="1.0" encoding="UTF-8"?>
<svg version="1.1" xmlns="http://www.w3.org/2000/svg" width="81" height="80">
<path d="M0 0 C0 0.66 0 1.32 0 2 C0.5775 1.67 1.155 1.34 1.75 1 C4 0 4 0 8 0 C8 2.97 8 5.94 8 9 C9.98 8.67 11.96 8.34 14 8 C14.495 8.99 14.495 8.99 15 10 C15.99 9.34 16.98 8.68 18 8 C19.32 8 20.64 8 22 8 C22.495 12.455 22.495 12.455 23 17 C24.65 16.67 26.3 16.34 28 16 C28.495 16.99 28.495 16.99 29 18 C29.99 17.34 30.98 16.68 32 16 C33.32 16 34.64 16 36 16 C36.32320225 21.12227763 36.55796968 26.23855848 36.71411133 31.36865234 C36.77920754 33.10961262 36.86773109 34.8498694 36.98071289 36.58837891 C37.70167618 47.97372684 37.70167618 47.97372684 36 53 C32.74266837 56.53607325 29.24284018 58.30965786 24.84402466 60.17285156 C21.81855211 61.52994561 19.06745504 63.31625878 16.25390625 65.0625 C14.02457602 66.37693289 11.79410675 67.68943585 9.5625 69 C8.43134766 69.67933594 7.30019531 70.35867187 6.13476562 71.05859375 C5.03970703 71.69925781 3.94464844 72.33992188 2.81640625 73 C1.84131104 73.5775 0.86621582 74.155 -0.13842773 74.75 C-3.38396181 76.16772327 -5.49589929 76.45281681 -9 76 C-11.60799012 72.89860634 -13.37900434 70.03647181 -14 66 C-15.485 66.99 -15.485 66.99 -17 68 C-19.9375 68.4375 -19.9375 68.4375 -23 68 C-26.21775827 64.95617461 -27.49930857 62.38104998 -28 58 C-28.99 58.66 -29.98 59.32 -31 60 C-37.17736098 59.77937996 -37.17736098 59.77937996 -39.68066406 57.40771484 C-41.44857649 54.18137282 -41.54218438 51.19764044 -41.609375 47.6015625 C-41.62647522 46.88898285 -41.64357544 46.1764032 -41.66119385 45.44223022 C-41.68946447 43.93785864 -41.70911448 42.4333035 -41.72070312 40.92871094 C-41.74985181 38.63665301 -41.84289771 36.35266374 -41.9375 34.0625 C-42.17675077 23.57676836 -42.17675077 23.57676836 -39.4465332 19.91845703 C-37.05584098 18.28498883 -34.64631746 17.17639083 -32 16 C-30.30860416 15.01078743 -28.61783852 14.02019018 -26.94229126 13.00436401 C-24.50914296 11.53509858 -22.04376973 10.1248207 -19.57788086 8.71142578 C-17.66868084 7.61418439 -15.76706691 6.50448195 -13.86523438 5.39453125 C-12.64367357 4.6919351 -11.42168375 3.99008422 -10.19921875 3.2890625 C-9.10440186 2.65693848 -8.00958496 2.02481445 -6.8815918 1.37353516 C-4 0 -4 0 0 0 Z " fill="#ED5F72" transform="translate(43,2)"/>
<path d="M0 0 C1.32 0 2.64 0 4 0 C4.495 0.99 4.495 0.99 5 2 C5.99 1.34 6.98 0.68 8 0 C9.32 0 10.64 0 12 0 C12.32320225 5.12227763 12.55796968 10.23855848 12.71411133 15.36865234 C12.77920754 17.10961262 12.86773109 18.8498694 12.98071289 20.58837891 C13.70167618 31.97372684 13.70167618 31.97372684 12 37 C8.74266837 40.53607325 5.24284018 42.30965786 0.84402466 44.17285156 C-2.18144789 45.52994561 -4.93254496 47.31625878 -7.74609375 49.0625 C-9.97542398 50.37693289 -12.20589325 51.68943585 -14.4375 53 C-15.56865234 53.67933594 -16.69980469 54.35867187 -17.86523438 55.05859375 C-18.96029297 55.69925781 -20.05535156 56.33992188 -21.18359375 57 C-22.15868896 57.5775 -23.13378418 58.155 -24.13842773 58.75 C-27.48532974 60.21200309 -29.39871484 60.70179828 -33 60 C-36.86164783 55.79381404 -37.51737956 52.3711959 -37.56640625 46.7734375 C-37.57260483 46.10333649 -37.57880341 45.43323547 -37.58518982 44.74282837 C-37.59225147 43.33605391 -37.58917807 41.92919523 -37.57641602 40.52246094 C-37.56248569 38.37279242 -37.59673567 36.22743074 -37.63476562 34.078125 C-37.63571641 32.70572811 -37.63386016 31.33332578 -37.62890625 29.9609375 C-37.62963135 28.72134277 -37.63035645 27.48174805 -37.63110352 26.20458984 C-37 23 -37 23 -34.59765625 20.64501953 C-32.243209 19.15401713 -29.91538671 17.77364193 -27.4375 16.5 C-21.63793168 13.41274699 -16.0070718 10.06963464 -10.375 6.6875 C-9.02233032 5.87732422 -9.02233032 5.87732422 -7.64233398 5.05078125 C-3.60189141 2.81942391 -3.60189141 2.81942391 0 0 Z " fill="#5994FA" transform="translate(67,18)"/>
<path d="M0 0 C0.495 0.99 0.495 0.99 1 2 C1.99 1.34 2.98 0.68 4 0 C5.32 0 6.64 0 8 0 C8 3.63 8 7.26 8 11 C7.14019531 11.4846875 6.28039063 11.969375 5.39453125 12.46875 C-1.81857014 16.55291803 -8.93329004 20.7493063 -15.96484375 25.140625 C-19 27 -19 27 -20.90991211 27.66381836 C-23.13987701 28.53697866 -24.40709562 29.19416742 -26 31 C-26.93783632 35.34882828 -26.79523118 39.63115727 -26.6875 44.0625 C-26.65310377 46.42819593 -26.63538732 48.79421066 -26.63671875 51.16015625 C-26.61311279 52.20824463 -26.58950684 53.25633301 -26.56518555 54.33618164 C-27 57 -27 57 -28.83520508 58.83374023 C-31.82877384 60.44649291 -33.65082681 60.55819553 -37 60 C-39.89809367 57.21838128 -40.92044087 55.5482805 -41.50170898 51.54248047 C-41.49985596 50.24713379 -41.49800293 48.95178711 -41.49609375 47.6171875 C-41.49754898 46.92110382 -41.49900421 46.22502014 -41.50050354 45.50784302 C-41.49885047 44.04376009 -41.48735553 42.57965872 -41.46655273 41.11572266 C-41.43749452 38.87457744 -41.44597381 36.63578549 -41.45898438 34.39453125 C-41.45274925 32.96873851 -41.44436006 31.54295322 -41.43359375 30.1171875 C-41.42384521 28.82409668 -41.41409668 27.53100586 -41.40405273 26.19873047 C-41 23 -41 23 -39.61083984 21.13793945 C-37.54418545 19.67800067 -35.43064732 18.48620077 -33.1875 17.3125 C-28.71843247 14.92702422 -24.27898974 12.50303839 -19.875 10 C-19.28114502 9.66331299 -18.68729004 9.32662598 -18.07543945 8.97973633 C-13.83742326 6.54937695 -9.80886391 3.91465531 -5.8671875 1.03125 C-4 0 -4 0 0 0 Z " fill="#FBB962" transform="translate(57,10)"/>
<path d="M0 0 C0 0.66 0 1.32 0 2 C0.86625 1.4740625 0.86625 1.4740625 1.75 0.9375 C4.39786506 -0.16577711 5.33185326 0.19843491 8 1 C6.75443908 1.81928886 5.50333365 2.63015186 4.25 3.4375 C3.55390625 3.88996094 2.8578125 4.34242188 2.140625 4.80859375 C0 6 0 6 -2.015625 6.28515625 C-4.31720381 6.8667196 -4.31720381 6.8667196 -5.48828125 9.71875 C-7.54738392 13.11803148 -9.98739097 14.086651 -13.60546875 15.59375 C-23.73975054 19.90585066 -23.73975054 19.90585066 -32 27 C-35.24544581 36.54757302 -34.12591287 47.13875303 -33 57 C-35.4375 56.625 -35.4375 56.625 -38 56 C-39.49983085 53.0003383 -39.23902055 49.88053039 -39.31640625 46.5859375 C-39.3475779 45.49147812 -39.3475779 45.49147812 -39.37937927 44.37490845 C-39.44481917 42.04170237 -39.50373368 39.70838279 -39.5625 37.375 C-39.60569053 35.79425905 -39.64930499 34.21352961 -39.69335938 32.6328125 C-39.80049481 28.75532496 -39.90177782 24.87772315 -40 21 C-36.32055812 18.81125706 -32.640096 16.6242423 -28.95874023 14.4387207 C-27.71042184 13.69731569 -26.46236781 12.95546535 -25.21459961 12.21313477 C-21.15067073 9.79564318 -17.07796919 7.39373675 -13 5 C-12.09362793 4.46036621 -11.18725586 3.92073242 -10.25341797 3.36474609 C-9.46725098 2.90793457 -8.68108398 2.45112305 -7.87109375 1.98046875 C-7.20907959 1.59141357 -6.54706543 1.2023584 -5.86499023 0.80151367 C-4 0 -4 0 0 0 Z " fill="#EB798B" transform="translate(43,2)"/>
<path d="M0 0 C-1.50964204 6.41597868 -6.74155077 8.98022142 -12.00634766 12.24365234 C-14.28743705 13.63546121 -16.57797323 15.00966132 -18.875 16.375 C-19.6369165 16.82834717 -20.39883301 17.28169434 -21.18383789 17.7487793 C-21.90434326 18.1694165 -22.62484863 18.59005371 -23.3671875 19.0234375 C-24.01800293 19.40419434 -24.66881836 19.78495117 -25.33935547 20.17724609 C-27 21 -27 21 -29 21 C-29 30.9 -29 40.8 -29 51 C-33 48 -33 48 -33.83496094 45.12768555 C-34.27129663 41.31401562 -34.61005799 37.52242189 -34.75 33.6875 C-34.77635529 33.00592834 -34.80271057 32.32435669 -34.8298645 31.62213135 C-34.93966395 25.59234864 -34.74410751 20.09677216 -30.73974609 15.28271484 C-25.00159424 10.77802504 -18.56794133 7.84488162 -11.81982422 5.15917969 C-9.35032068 4.14401061 -7.13650658 3.02775917 -4.84765625 1.6640625 C-2 0 -2 0 0 0 Z " fill="#FEFBF5" transform="translate(53,16)"/>
<path d="M0 0 C-2.05025687 5.83534649 -4.78057228 8.02529602 -10.03515625 11.13671875 C-11.00904297 11.71357422 -11.98292969 12.29042969 -12.98632812 12.88476562 C-14.00146484 13.47966797 -15.01660156 14.07457031 -16.0625 14.6875 C-17.08150391 15.29400391 -18.10050781 15.90050781 -19.15039062 16.52539062 C-26.74564996 21 -26.74564996 21 -29 21 C-29 30.9 -29 40.8 -29 51 C-29.99 50.67 -30.98 50.34 -32 50 C-33.13917218 46.58248347 -33.11338481 43.96512063 -33.09765625 40.36328125 C-33.09443359 39.06455078 -33.09121094 37.76582031 -33.08789062 36.42773438 C-33.07953531 35.05598892 -33.07107037 33.68424413 -33.0625 32.3125 C-33.05748335 30.92903805 -33.05292073 29.54557437 -33.04882812 28.16210938 C-33.03702529 24.77469605 -33.02056019 21.38736967 -33 18 C-32.23856689 17.56131592 -31.47713379 17.12263184 -30.69262695 16.6706543 C-27.85030036 15.03282451 -25.00820408 13.39459648 -22.16625977 11.75610352 C-20.93946294 11.04891404 -19.71257625 10.34188043 -18.4855957 9.63500977 C-16.71541709 8.61516264 -14.94556931 7.59474343 -13.17578125 6.57421875 C-12.11270752 5.96151123 -11.04963379 5.34880371 -9.9543457 4.7175293 C-8.03187956 3.59989032 -6.12542012 2.45409325 -4.23901367 1.27661133 C-2 0 -2 0 0 0 Z " fill="#F5F8FD" transform="translate(67,24)"/>
<path d="M0 0 C0.66 0.33 1.32 0.66 2 1 C-0.29159682 5.9157282 -2.60369996 7.50599934 -7.60546875 9.59375 C-17.73975054 13.90585066 -17.73975054 13.90585066 -26 21 C-29.24544581 30.54757302 -28.12591287 41.13875303 -27 51 C-29.94728084 49.31765297 -30.87832288 48.43751987 -31.80322266 45.11181641 C-32.19689888 41.2821298 -32.50600975 37.47216223 -32.625 33.625 C-32.64746796 32.94148468 -32.66993591 32.25796936 -32.69308472 31.55374146 C-32.7759861 25.71035843 -32.69407254 20.17041594 -28.96826172 15.39697266 C-23.81059253 11.18348572 -17.97080421 8.55269592 -11.79736328 6.15185547 C-8.24543397 4.68929634 -5.0330535 2.81762883 -1.75756836 0.82250977 C-1.1775708 0.55108154 -0.59757324 0.27965332 0 0 Z " fill="#FEF6F7" transform="translate(37,8)"/>
<path d="M0 0 C1.32 0 2.64 0 4 0 C4.495 0.99 4.495 0.99 5 2 C5.99 1.34 6.98 0.68 8 0 C10.1875 0.375 10.1875 0.375 12 1 C10.84322467 1.8060509 9.67381043 2.5939646 8.5 3.375 C7.8503125 3.81585938 7.200625 4.25671875 6.53125 4.7109375 C4 6 4 6 0.5546875 6.69140625 C-6.02631973 8.20844665 -11.63668544 12.13863371 -17.375 15.5625 C-18.57367205 16.26850714 -19.77288716 16.97359313 -20.97265625 17.67773438 C-23.15560504 18.96087018 -25.33606126 20.24826275 -27.51318359 21.54125977 C-28.98422312 22.40415601 -30.47460242 23.23730121 -32 24 C-32.07430494 28.19918185 -32.12867413 32.39801274 -32.16479492 36.59765625 C-32.17985681 38.02545846 -32.20031062 39.4532146 -32.22631836 40.88085938 C-32.26281842 42.93631373 -32.27975166 44.99115505 -32.29296875 47.046875 C-32.3086792 48.28276367 -32.32438965 49.51865234 -32.34057617 50.79199219 C-31.97859576 54.20161411 -31.32290222 55.54581495 -29 58 C-33.875 56.25 -33.875 56.25 -35 54 C-35.50900836 49.5124452 -35.76660894 45.01560593 -35.99707031 40.50683594 C-36.08201577 39.0082944 -36.18507705 37.51066474 -36.30664062 36.01464844 C-37.30491157 23.60208167 -37.30491157 23.60208167 -34.16357422 19.74536133 C-31.83356628 18.17436013 -29.60016906 17.05376714 -27 16 C-26.08992188 15.47792969 -25.17984375 14.95585937 -24.2421875 14.41796875 C-23.46101563 14.01191406 -22.67984375 13.60585938 -21.875 13.1875 C-17.12533414 10.65074664 -12.49058108 7.95805491 -7.875 5.1875 C-7.21097168 4.79006592 -6.54694336 4.39263184 -5.86279297 3.9831543 C-2.7585475 2.22393864 -2.7585475 2.22393864 0 0 Z " fill="#F9C67F" transform="translate(53,10)"/>
<path d="M0 0 C0.495 0.99 0.495 0.99 1 2 C1.99 1.34 2.98 0.68 4 0 C4.99 0 5.98 0 7 0 C6 3 6 3 3.875 4.625 C1 6 1 6 -1.921875 6.15625 C-7.95799077 6.93668668 -13.02809757 10.77979016 -18.125 13.875 C-19.19621094 14.51308594 -20.26742187 15.15117188 -21.37109375 15.80859375 C-25.17343443 18.07673969 -28.96907894 20.35241046 -32.71826172 22.70751953 C-35 24 -35 24 -37 24 C-36.88146154 28.05698819 -36.75719418 32.11375694 -36.62768555 36.17041016 C-36.5844545 37.54959378 -36.54277134 38.92882685 -36.50268555 40.30810547 C-36.44469597 42.29406938 -36.38062277 44.27985269 -36.31640625 46.265625 C-36.27974854 47.45961914 -36.24309082 48.65361328 -36.20532227 49.88378906 C-36.03791006 52.42463255 -35.73682141 54.5771424 -35 57 C-35.99 56.67 -36.98 56.34 -38 56 C-39.47206013 53.05587973 -39.23807192 50.03714085 -39.31640625 46.8046875 C-39.33718735 46.09724396 -39.35796844 45.38980042 -39.37937927 44.66091919 C-39.44481078 42.39904575 -39.50372974 40.13705538 -39.5625 37.875 C-39.60569133 36.34243578 -39.64930582 34.80988343 -39.69335938 33.27734375 C-39.80048555 29.51834927 -39.9017709 25.75923708 -40 22 C-32.3189219 17.22378471 -24.61559232 12.5708561 -16.66796875 8.24804688 C-13.35708585 6.41940029 -10.2924767 4.51443055 -7.2734375 2.23046875 C-4 0 -4 0 0 0 Z " fill="#7BAAF6" transform="translate(71,18)"/>
<path d="M0 0 C0.99 0.495 0.99 0.495 2 1 C2.02505615 1.9286084 2.0501123 2.8572168 2.07592773 3.81396484 C2.17097932 7.25435804 2.27021707 10.69457713 2.37231445 14.13476562 C2.41566589 15.62462641 2.45734084 17.11453695 2.49731445 18.60449219 C2.55501215 20.74429327 2.61870755 22.88384385 2.68359375 25.0234375 C2.72025146 26.31169434 2.75690918 27.59995117 2.79467773 28.92724609 C2.79530675 31.9127682 2.79530675 31.9127682 4 34 C5.32 34.33 6.64 34.66 8 35 C8 25.1 8 15.2 8 5 C8.66 5.33 9.32 5.66 10 6 C10 16.56 10 27.12 10 38 C3 37 3 37 1.08081055 35.41308594 C-0.41462806 32.07427518 -0.37215234 28.97646988 -0.29296875 25.390625 C-0.28872391 24.66381531 -0.28447906 23.93700562 -0.28010559 23.18817139 C-0.2633613 20.87506496 -0.22571885 18.56284145 -0.1875 16.25 C-0.17244758 14.67839803 -0.15876015 13.10678236 -0.14648438 11.53515625 C-0.11347195 7.68976585 -0.06172056 3.84503244 0 0 Z " fill="#D43F54" transform="translate(2,24)"/>
<path d="M0 0 C0.66 0 1.32 0 2 0 C2.02505615 0.9286084 2.0501123 1.8572168 2.07592773 2.81396484 C2.17097932 6.25435804 2.27021707 9.69457713 2.37231445 13.13476562 C2.41566589 14.62462641 2.45734084 16.11453695 2.49731445 17.60449219 C2.55501215 19.74429327 2.61870755 21.88384385 2.68359375 24.0234375 C2.72025146 25.31169434 2.75690918 26.59995117 2.79467773 27.92724609 C2.79530675 30.9127682 2.79530675 30.9127682 4 33 C5.32 33.33 6.64 33.66 8 34 C8 24.43 8 14.86 8 5 C8.66 5 9.32 5 10 5 C10 15.56 10 26.12 10 37 C8.02 37 6.04 37 4 37 C0.0474887 32.72974423 -0.48471259 29.32511175 -0.390625 23.6328125 C-0.38496521 22.95322479 -0.37930542 22.27363708 -0.37347412 21.57345581 C-0.35125351 19.42322451 -0.30109198 17.27471926 -0.25 15.125 C-0.22991614 13.6588784 -0.21166868 12.19273042 -0.1953125 10.7265625 C-0.15143811 7.15048992 -0.08251443 3.57541369 0 0 Z " fill="#4F63CD" transform="translate(30,41)"/>
<path d="M0 0 C0.66 0 1.32 0 2 0 C2.01458252 0.92337158 2.02916504 1.84674316 2.04418945 2.7980957 C2.10526308 6.22577204 2.1794161 9.65264662 2.26245117 13.07983398 C2.29569423 14.56279854 2.32372823 16.04588944 2.34643555 17.52905273 C2.37999468 19.66184293 2.43230638 21.79347612 2.48828125 23.92578125 C2.51446533 25.20880127 2.54064941 26.49182129 2.56762695 27.8137207 C2.73147203 30.95873143 2.73147203 30.95873143 4.40698242 32.87963867 C6.01451486 34.06922929 6.01451486 34.06922929 8 35 C8 25.1 8 15.2 8 5 C8.66 5 9.32 5 10 5 C10.16726689 9.39635047 10.32786093 13.79287761 10.48217773 18.18969727 C10.53566434 19.68650938 10.5909987 21.18325663 10.64819336 22.67993164 C10.72991956 24.82684332 10.8050746 26.97389793 10.87890625 29.12109375 C10.9260376 30.4145874 10.97316895 31.70808105 11.02172852 33.04077148 C11 36 11 36 10 37 C7.1875 37.375 7.1875 37.375 4 37 C1.04391357 34.20618639 0.07240425 32.55887517 -0.45410156 28.49487305 C-0.4331543 27.18043213 -0.41220703 25.86599121 -0.390625 24.51171875 C-0.38496521 23.80852005 -0.37930542 23.10532135 -0.37347412 22.3808136 C-0.35119769 20.14899752 -0.30102373 17.91882539 -0.25 15.6875 C-0.22992343 14.16864309 -0.21167468 12.64976084 -0.1953125 11.13085938 C-0.15136357 7.42004455 -0.08239921 3.7101829 0 0 Z " fill="#EEA14F" transform="translate(16,33)"/>
<path d="M0 0 C0.33 0.66 0.66 1.32 1 2 C1.99 1.34 2.98 0.68 4 0 C4.99 0 5.98 0 7 0 C6 3 6 3 3.875 4.625 C1 6 1 6 -2.125 6.3125 C-6.89098635 7.15807822 -10.24237413 9.18520909 -14.4140625 11.5625 C-21.26821406 15.3726628 -21.26821406 15.3726628 -25.16015625 14.53515625 C-25.76730469 14.35855469 -26.37445313 14.18195312 -27 14 C-25.92621094 13.40832031 -24.85242187 12.81664062 -23.74609375 12.20703125 C-22.30977298 11.40907527 -20.87358198 10.61088566 -19.4375 9.8125 C-18.73302734 9.42513672 -18.02855469 9.03777344 -17.30273438 8.63867188 C-13.76937528 6.66845782 -10.45051662 4.64273922 -7.22265625 2.19921875 C-4 0 -4 0 0 0 Z " fill="#6BA2FB" transform="translate(71,18)"/>
<path d="M0 0 C1.97558594 1.0715332 1.97558594 1.0715332 4 3 C4.45410156 6.09448242 4.45410156 6.09448242 4.390625 9.85546875 C4.38496521 10.51710526 4.37930542 11.17874176 4.37347412 11.86042786 C4.35111247 13.97019332 4.30092371 16.07824952 4.25 18.1875 C4.2299344 19.61911606 4.21168372 21.0507588 4.1953125 22.48242188 C4.15125069 25.98883515 4.08222777 29.49425072 4 33 C3.01 32.67 2.02 32.34 1 32 C-0.13917218 28.58248347 -0.11338481 25.96512063 -0.09765625 22.36328125 C-0.09443359 21.06455078 -0.09121094 19.76582031 -0.08789062 18.42773438 C-0.07953531 17.05598892 -0.07107037 15.68424413 -0.0625 14.3125 C-0.05748335 12.92903805 -0.05292073 11.54557437 -0.04882812 10.16210938 C-0.03702529 6.77469605 -0.02056019 3.38736967 0 0 Z " fill="#E1E6F0" transform="translate(34,42)"/>
<path d="M0 0 C1.98 0.99 1.98 0.99 4 2 C4 11.9 4 21.8 4 32 C0 29 0 29 -0.45410156 25.99731445 C-0.4331543 24.7980835 -0.41220703 23.59885254 -0.390625 22.36328125 C-0.37773437 21.06455078 -0.36484375 19.76582031 -0.3515625 18.42773438 C-0.31814101 17.05597897 -0.28428123 15.68423419 -0.25 14.3125 C-0.22993376 12.92906188 -0.21168319 11.54559616 -0.1953125 10.16210938 C-0.14809207 6.77404351 -0.08224069 3.38736759 0 0 Z " fill="#E3E6EF" transform="translate(20,35)"/>
<path d="M0 0 C1.98 0.99 1.98 0.99 4 2 C4 11.9 4 21.8 4 32 C0 29 0 29 -0.45410156 25.99731445 C-0.4331543 24.7980835 -0.41220703 23.59885254 -0.390625 22.36328125 C-0.37773438 21.06455078 -0.36484375 19.76582031 -0.3515625 18.42773438 C-0.31814101 17.05597897 -0.28428123 15.68423419 -0.25 14.3125 C-0.22993376 12.92906188 -0.21168319 11.54559616 -0.1953125 10.16210938 C-0.14809207 6.77404351 -0.08224069 3.38736759 0 0 Z " fill="#E3E6EF" transform="translate(6,27)"/>
<path d="M0 0 C0.56074219 0.21914063 1.12148438 0.43828125 1.69921875 0.6640625 C-5.53970916 5.18538625 -12.82037596 9.59101886 -20.25366211 13.78515625 C-24.68050255 16.28736472 -29.014169 18.91655627 -33.3125 21.6328125 C-35.30078125 22.6640625 -35.30078125 22.6640625 -38.30078125 22.6640625 C-37.04777725 18.90505051 -35.99868926 18.6434014 -32.59375 16.7734375 C-31.61962158 16.23154785 -30.64549316 15.6896582 -29.6418457 15.13134766 C-28.60116943 14.56464355 -27.56049316 13.99793945 -26.48828125 13.4140625 C-24.38098217 12.25095656 -22.27420616 11.08690239 -20.16796875 9.921875 C-19.1531543 9.36274414 -18.13833984 8.80361328 -17.09277344 8.22753906 C-12.81429484 5.83165091 -8.65162377 3.26234667 -4.5078125 0.640625 C-2.30078125 -0.3359375 -2.30078125 -0.3359375 0 0 Z " fill="#FC8FA3" transform="translate(41.30078125,2.3359375)"/>
<path d="M0 0 C2.0625 0.4375 2.0625 0.4375 4 1 C-2.70070952 5.64065146 -9.63161672 9.72416789 -16.75 13.6875 C-18.76593181 14.81585828 -20.78156735 15.94474607 -22.796875 17.07421875 C-24.11703613 17.81031372 -24.11703613 17.81031372 -25.46386719 18.5612793 C-27.22522147 19.56047652 -28.9489032 20.62788865 -30.63769531 21.74536133 C-31.41725586 22.15939209 -32.19681641 22.57342285 -33 23 C-33.99 22.67 -34.98 22.34 -36 22 C-30.54428858 18.20120834 -24.98680804 14.84948839 -19.125 11.71875 C-15.32180564 9.6269931 -11.59613949 7.4211562 -7.875 5.1875 C-7.21097168 4.79006592 -6.54694336 4.39263184 -5.86279297 3.9831543 C-2.7585475 2.22393864 -2.7585475 2.22393864 0 0 Z " fill="#FED28D" transform="translate(53,10)"/>
<path d="M0 0 C-4.55903448 3.17677402 -8.32225763 5.23398666 -13.84765625 6.328125 C-17.54106965 7.48105986 -20.60658255 9.71430259 -23.80078125 11.85546875 C-24.52652344 12.23316406 -25.25226562 12.61085938 -26 13 C-26.99 12.67 -27.98 12.34 -29 12 C-25.73565792 9.98925441 -22.46252137 7.99329608 -19.1875 6 C-18.25873047 5.42765625 -17.32996094 4.8553125 -16.37304688 4.265625 C-15.0340332 3.45351562 -15.0340332 3.45351562 -13.66796875 2.625 C-12.84578857 2.12226563 -12.0236084 1.61953125 -11.17651367 1.1015625 C-9 0 -9 0 -6 0 C-3.50907189 -1.24546405 -2.58919267 -0.7767578 0 0 Z " fill="#FDBF6A" transform="translate(65,11)"/>
<path d="M0 0 C-4.49623719 3.13301634 -8.26149003 5.23282099 -13.703125 6.33203125 C-18.75243337 7.80045256 -23.36992513 10.54606032 -28 13 C-28 12.34 -28 11.68 -28 11 C-26.33520508 9.77905273 -26.33520508 9.77905273 -24.01953125 8.43359375 C-23.18486328 7.94826172 -22.35019531 7.46292969 -21.49023438 6.96289062 C-20.60658203 6.45951172 -19.72292969 5.95613281 -18.8125 5.4375 C-17.94818359 4.93025391 -17.08386719 4.42300781 -16.19335938 3.90039062 C-5.9622286 -1.98740953 -5.9622286 -1.98740953 0 0 Z " fill="#EE677B" transform="translate(51,3)"/>
<path d="M0 0 C-6.43014852 4.4772886 -13.0578295 8.37039275 -20 12 C-20.70511719 12.40734375 -21.41023438 12.8146875 -22.13671875 13.234375 C-24 14 -24 14 -27 13 C-23.07223881 10.62928538 -19.13134905 8.28133735 -15.1875 5.9375 C-14.06794922 5.26138672 -12.94839844 4.58527344 -11.79492188 3.88867188 C-10.18520508 2.93637695 -10.18520508 2.93637695 -8.54296875 1.96484375 C-7.0583313 1.07720337 -7.0583313 1.07720337 -5.54370117 0.17163086 C-3 -1 -3 -1 0 0 Z " fill="#7FB1FD" transform="translate(65,32)"/>
<path d="M0 0 C0.66 0.66 1.32 1.32 2 2 C1.01 2.59167969 0.02 3.18335938 -1 3.79296875 C-1.63639404 4.17404785 -2.27278809 4.55512695 -2.9284668 4.94775391 C-4.31188645 5.77568614 -5.69616824 6.60217945 -7.08129883 7.42724609 C-10.67962192 9.57746874 -14.2080323 11.7854722 -17.6875 14.125 C-21 16 -21 16 -23.20703125 15.6171875 C-23.79871094 15.41351563 -24.39039062 15.20984375 -25 15 C-23.91730835 14.37170288 -23.91730835 14.37170288 -22.81274414 13.73071289 C-19.56172662 11.84291536 -16.31209753 9.95274073 -13.0625 8.0625 C-11.92619141 7.40314453 -10.78988281 6.74378906 -9.61914062 6.06445312 C-8.53955078 5.43603516 -7.45996094 4.80761719 -6.34765625 4.16015625 C-5.34742432 3.57886963 -4.34719238 2.99758301 -3.31665039 2.39868164 C-1.11714307 1.19709736 -1.11714307 1.19709736 0 0 Z " fill="#FEDA95" transform="translate(49,22)"/>
<path d="M0 0 C0.66 0.66 1.32 1.32 2 2 C-0.68705841 3.58408362 -3.37472829 5.167127 -6.0625 6.75 C-6.81466797 7.1934375 -7.56683594 7.636875 -8.34179688 8.09375 C-9.83891225 8.97516857 -11.33711426 9.8547442 -12.83642578 10.73242188 C-14.24389057 11.55701646 -15.64867543 12.38620828 -17.05029297 13.22070312 C-21.77681327 16 -21.77681327 16 -24 16 C-24 15.34 -24 14.68 -24 14 C-21.796875 12.48779297 -21.796875 12.48779297 -18.75 10.7421875 C-17.6671875 10.11699219 -16.584375 9.49179687 -15.46875 8.84765625 C-14.3240625 8.19667969 -13.179375 7.54570312 -12 6.875 C-10.84335718 6.21031851 -9.6871017 5.54496251 -8.53125 4.87890625 C-5.69125295 3.24590795 -2.84743478 1.61998339 0 0 Z " fill="#FC94AA" transform="translate(35,14)"/>
<path d="M0 0 C0.66 0 1.32 0 2 0 C2 0.66 2 1.32 2 2 C-3.41176471 6 -3.41176471 6 -6 6 C-6.33 6.99 -6.66 7.98 -7 9 C-10.80269732 10.6900877 -13.05272168 11.19873962 -17 10 C-15.28490234 9.04287109 -15.28490234 9.04287109 -13.53515625 8.06640625 C-12.04422197 7.23185813 -10.55333921 6.39721796 -9.0625 5.5625 C-8.30775391 5.14162109 -7.55300781 4.72074219 -6.77539062 4.28710938 C-6.05673828 3.88427734 -5.33808594 3.48144531 -4.59765625 3.06640625 C-3.93258057 2.69459229 -3.26750488 2.32277832 -2.58227539 1.93969727 C-1.01422168 1.09652286 -1.01422168 1.09652286 0 0 Z " fill="#82AEF2" transform="translate(61,22)"/>
<path d="M0 0 C0.33 0 0.66 0 1 0 C1.0093457 0.81678223 1.01869141 1.63356445 1.02832031 2.47509766 C1.08215507 6.19233506 1.16577994 9.908332 1.25 13.625 C1.26417969 14.91019531 1.27835938 16.19539063 1.29296875 17.51953125 C1.41179595 26.57940314 1.41179595 26.57940314 6 34 C1.125 32.25 1.125 32.25 0 30 C-0.08573394 27.74879258 -0.10712188 25.49500697 -0.09765625 23.2421875 C-0.0962413 22.57913605 -0.09482635 21.91608459 -0.09336853 21.23294067 C-0.08776754 19.11358137 -0.075215 16.99432741 -0.0625 14.875 C-0.05748512 13.43880361 -0.05292219 12.00260556 -0.04882812 10.56640625 C-0.03779782 7.04423655 -0.02053259 3.52212855 0 0 Z " fill="#FCBA62" transform="translate(18,34)"/>
<path d="M0 0 C0.33 0 0.66 0 1 0 C1.01981934 0.82201904 1.03963867 1.64403809 1.06005859 2.4909668 C1.15544603 6.22346126 1.26507089 9.9554067 1.375 13.6875 C1.4059375 14.98107422 1.436875 16.27464844 1.46875 17.60742188 C1.50742187 18.85458984 1.54609375 20.10175781 1.5859375 21.38671875 C1.6173584 22.53358154 1.6487793 23.68044434 1.68115234 24.86206055 C1.99423652 27.94327872 2.69670803 30.2082114 4 33 C3.01 32.67 2.02 32.34 1 32 C-0.46098845 29.0780231 -0.11134901 26.50106525 -0.09765625 23.2421875 C-0.0962413 22.57913605 -0.09482635 21.91608459 -0.09336853 21.23294067 C-0.08776754 19.11358137 -0.075215 16.99432741 -0.0625 14.875 C-0.05748512 13.43880361 -0.05292219 12.00260556 -0.04882812 10.56640625 C-0.03779782 7.04423655 -0.02053259 3.52212855 0 0 Z " fill="#558CF6" transform="translate(32,42)"/>
<path d="M0 0 C0 0.66 0 1.32 0 2 C-2.26896632 3.31582063 -4.54003187 4.62775236 -6.8125 5.9375 C-7.45509766 6.31068359 -8.09769531 6.68386719 -8.75976562 7.06835938 C-11.48316424 8.63466635 -14.01108122 10.00369374 -17 11 C-17 10.34 -17 9.68 -17 9 C-14.98828125 7.59765625 -14.98828125 7.59765625 -12.3125 6.0625 C-11.44238281 5.55847656 -10.57226562 5.05445313 -9.67578125 4.53515625 C-8.79277344 4.02855469 -7.90976563 3.52195312 -7 3 C-6.10667969 2.44183594 -5.21335937 1.88367188 -4.29296875 1.30859375 C-2 0 -2 0 0 0 Z " fill="#EE6B7E" transform="translate(23,15)"/>
<path d="M0 0 C-8.261959 5.74031891 -8.261959 5.74031891 -13 5 C-5.19759185 -1.50200679 -5.19759185 -1.50200679 0 0 Z " fill="#FB93A6" transform="translate(51,3)"/>
<path d="M0 0 C-8.261959 5.74031891 -8.261959 5.74031891 -13 5 C-11.232472 3.232472 -9.74170669 2.0926916 -7.625 0.8125 C-7.03976563 0.44769531 -6.45453125 0.08289063 -5.8515625 -0.29296875 C-3.52898272 -1.17986103 -2.30911786 -0.79852754 0 0 Z " fill="#FED296" transform="translate(65,11)"/>
<path d="M0 0 C-1 3 -1 3 -3.25 4.6875 C-6.1364252 6.06511203 -7.85173236 6.26985151 -11 6 C-7.88264342 2.55450062 -4.75616064 0 0 0 Z " fill="#7AACFC" transform="translate(78,18)"/>
<path d="M0 0 C-1.47559669 4.42679007 -3.90057368 4.91432696 -8 7 C-8.66 7 -9.32 7 -10 7 C-8.60449526 2.81348579 -4.64858615 0 0 0 Z " fill="#C2D4F5" transform="translate(76,50)"/>
<path d="M0 0 C-4.95 2.97 -4.95 2.97 -10 6 C-10.33 5.34 -10.66 4.68 -11 4 C-9.71264403 1.42528807 -8.71510189 1.29583343 -6.0625 0.3125 C-5.35222656 0.04050781 -4.64195313 -0.23148438 -3.91015625 -0.51171875 C-2 -1 -2 -1 0 0 Z " fill="#619BFC" transform="translate(54,31)"/>
<path d="M0 0 C0 0.66 0 1.32 0 2 C-4.95 4.475 -4.95 4.475 -10 7 C-7.82013545 2.6402709 -5.16806446 0 0 0 Z " fill="#C6D7F5" transform="translate(76,43)"/>
<path d="M0 0 C0.5775 0.61875 1.155 1.2375 1.75 1.875 C3.80249821 3.81347053 5.43366582 4.90014249 8 6 C7.01 6 6.02 6 5 6 C4.67 6.66 4.34 7.32 4 8 C0 2.25 0 2.25 0 0 Z " fill="#496DDE" transform="translate(30,70)"/>
<path d="M0 0 C0.66 0 1.32 0 2 0 C1.38722388 2.96175123 0.74627478 4.38058783 -1 7 C-1.66 7 -2.32 7 -3 7 C-1.125 2.25 -1.125 2.25 0 0 Z " fill="#4962D5" transform="translate(67,24)"/>
<path d="M0 0 C0.66 0 1.32 0 2 0 C1.1875 2.9375 1.1875 2.9375 0 6 C-0.99 6.33 -1.98 6.66 -3 7 C-1.125 1.125 -1.125 1.125 0 0 Z " fill="#D9465C" transform="translate(39,8)"/>
</svg>
