<svg width="90" height="90" viewBox="0 0 90 90" fill="none" xmlns="http://www.w3.org/2000/svg">
<path d="M39.0123 61.9112C51.6612 61.9112 61.9152 51.6573 61.9152 39.0084C61.9152 26.3594 51.6612 16.1055 39.0123 16.1055C26.3633 16.1055 16.1094 26.3594 16.1094 39.0084C16.1094 51.6573 26.3633 61.9112 39.0123 61.9112Z" fill="white"/>
<path d="M61.7624 67.8525L67.8564 61.7585C67.9745 61.6404 68.1028 61.5391 68.2361 61.4484L63.7603 56.9727C61.8081 59.5225 59.5261 61.8042 56.9766 63.7564L61.4523 68.2322C61.543 68.0989 61.6443 67.9706 61.7624 67.8525Z" fill="#939598"/>
<path d="M72.2769 82.0464L61.762 71.5315C60.746 70.5155 60.746 68.8681 61.762 67.8521L67.856 61.7581C68.872 60.7421 70.5194 60.7421 71.5354 61.7581L82.0507 72.2733C83.0667 73.2894 83.0667 74.9368 82.0507 75.9528L75.9567 82.0468C74.94 83.0624 73.2929 83.0624 72.2769 82.0464Z" fill="#8C3F0A"/>
<path d="M80.206 77.7961C79.19 78.8121 77.5426 78.8121 76.5266 77.7961L66.0117 67.2812C64.9957 66.2652 64.9957 64.6177 66.0117 63.6017L67.8595 61.7539C67.8585 61.755 67.8574 61.756 67.856 61.7571L61.762 67.8511C60.746 68.8671 60.746 70.5145 61.762 71.5305L72.2769 82.0454C73.2929 83.0614 74.9403 83.0614 75.9563 82.0454L82.0503 75.9514L82.0528 75.9489L80.206 77.7961Z" fill="#7C3108"/>
<path d="M60.5664 60.6133C59.4407 61.7365 58.2418 62.7866 56.9766 63.7552L61.4523 68.2309C61.543 68.0977 61.6443 67.9694 61.7624 67.8512L64.783 64.8306L60.5664 60.6133Z" fill="#808285"/>
<path d="M39.0105 6.53906C21.079 6.53906 6.54297 21.0755 6.54297 39.0066C6.54297 56.9377 21.0794 71.4741 39.0105 71.4741C56.9416 71.4741 71.478 56.9377 71.478 39.0066C71.478 21.0755 56.9419 6.53906 39.0105 6.53906ZM39.0105 61.9095C26.3616 61.9095 16.1079 51.6554 16.1079 39.0069C16.1079 26.3584 26.362 16.104 39.0105 16.104C51.659 16.104 61.913 26.358 61.913 39.0069C61.913 51.6558 51.6593 61.9095 39.0105 61.9095Z" fill="#939598"/>
<path d="M39.0121 13.457C24.9004 13.457 13.4609 24.8969 13.4609 39.0082C13.4609 53.1196 24.9008 64.5595 39.0121 64.5595C53.1235 64.5595 64.5634 53.1196 64.5634 39.0082C64.5634 24.8969 53.1239 13.457 39.0121 13.457ZM39.0121 61.9111C26.3633 61.9111 16.1096 51.6571 16.1096 39.0086C16.1096 26.3601 26.3636 16.1057 39.0121 16.1057C51.6607 16.1057 61.9147 26.3597 61.9147 39.0086C61.9147 51.6575 51.661 61.9111 39.0121 61.9111Z" fill="#808285"/>
<path d="M53.3477 21.1484C56.504 25.0736 58.393 30.0612 58.393 35.4901C58.393 48.1389 48.1389 58.393 35.4901 58.393C30.0613 58.393 25.0736 56.504 21.1484 53.3477C25.3461 58.5677 31.7857 61.9086 39.0057 61.9086C51.6546 61.9086 61.9086 51.6546 61.9086 39.0057C61.9089 31.786 58.568 25.3464 53.3477 21.1484Z" fill="#E6E7E8"/>
<path d="M49.6009 50.2478L41.1897 56.9402C40.0429 57.8525 38.4215 57.8637 37.2621 56.9676L28.5978 50.2689C24.6628 47.2265 22.4258 42.9505 22.4258 38.4716V29.8041C22.4258 28.5891 23.1177 27.4803 24.2086 26.9463L37.8615 20.2617C38.758 19.8226 39.8088 19.83 40.6993 20.2814L53.8284 26.9357C54.8979 27.4778 55.5718 28.5751 55.5718 29.7743V38.6083C55.5718 43.0071 53.4139 47.2142 49.6009 50.2478Z" fill="#478CF7"/>
<path d="M24.5352 39.1749C24.1484 39.1749 23.832 38.8585 23.832 38.4718C23.832 38.0851 24.1484 37.7687 24.5352 37.7687C24.9219 37.7687 25.2383 38.0851 25.2383 38.4718C25.2383 38.8585 24.9219 39.1749 24.5352 39.1749ZM24.5352 36.3624C24.1484 36.3624 23.832 36.046 23.832 35.6593V29.8058C23.8355 29.1237 24.2152 28.512 24.827 28.2097L38.4781 21.5265C38.8227 21.3577 39.2551 21.5089 39.4203 21.8464C39.5891 22.1944 39.4449 22.6198 39.0969 22.7886L25.4457 29.4718C25.3262 29.528 25.2348 29.6722 25.2383 29.8058V35.6558V35.6593C25.2383 36.046 24.9219 36.3624 24.5352 36.3624Z" fill="#5E9CF7"/>
<path d="M53.827 26.9337L52.0389 26.0273C52.0446 26.1036 52.0551 26.1792 52.0551 26.2562V35.0903C52.0551 39.4894 49.8969 43.6965 46.0842 46.7302L37.673 53.4225C36.5262 54.3348 34.9048 54.3461 33.7454 53.4499L25.3086 46.927C26.2125 48.1473 27.3121 49.2737 28.5968 50.2669L37.261 56.9656C38.4205 57.862 40.0419 57.8504 41.1887 56.9381L49.5998 50.2458C53.4129 47.2118 55.5707 43.005 55.5707 38.6059V29.7722C55.5704 28.573 54.8964 27.4758 53.827 26.9337Z" fill="#377DE2"/>
<path d="M53.8268 26.9358L53.5684 26.8047C53.7245 27.183 53.8128 27.5925 53.8128 28.0162V36.8502C53.8128 41.2493 51.6545 45.4565 47.8418 48.4901L39.4307 55.1825C38.2839 56.0948 36.6625 56.106 35.503 55.2099L26.8388 48.5112C26.573 48.3059 26.3164 48.0936 26.0664 47.8773C26.8079 48.7359 27.652 49.5388 28.5966 50.269L37.2609 56.9677C38.4203 57.8642 40.0417 57.8526 41.1885 56.9403L49.5996 50.2479C53.4127 47.2139 55.5706 43.0071 55.5706 38.608V29.7743C55.5702 28.5752 54.8963 27.4779 53.8268 26.9358Z" fill="#2266D3"/>
<path d="M37.3647 45.8581C36.6918 45.8581 36.0193 45.6015 35.5056 45.0882L30.3285 39.9111C29.302 38.8842 29.302 37.2199 30.3285 36.193C31.3554 35.1668 33.0197 35.1668 34.0466 36.193L37.365 39.5114L43.9498 32.9259C44.9767 31.8997 46.641 31.8997 47.6679 32.9259C48.6945 33.9528 48.6945 35.6171 47.6679 36.644L39.2238 45.0882C38.7101 45.6015 38.0376 45.8581 37.3647 45.8581Z" fill="#FFA91A"/>
<path d="M35.9453 38.0938L34.0483 36.1967L34.0469 36.1953L35.9453 38.0938Z" fill="#F79219"/>
<path d="M47.67 32.9286C47.4182 32.6768 47.1275 32.4877 46.8178 32.3594C47.2122 33.3125 47.0231 34.4501 46.2482 35.225L37.8041 43.6691C37.2904 44.1824 36.6179 44.4391 35.945 44.4391C35.2721 44.4391 34.5996 44.1824 34.0859 43.6691L35.5073 45.0905C36.0209 45.6038 36.6935 45.8604 37.3664 45.8604C38.0393 45.8604 38.7118 45.6038 39.2254 45.0905L47.6696 36.6463C48.6965 35.6198 48.6965 33.9555 47.67 32.9286Z" fill="#F79219"/>
</svg>
