<svg width="100" height="100" viewBox="0 0 100 100" fill="none" xmlns="http://www.w3.org/2000/svg">
<g filter="url(#filter0_i_3410_7761)">
<path d="M0 50C0 22.3858 22.3858 0 50 0C77.6142 0 100 22.3858 100 50C100 77.6142 77.6142 100 50 100C22.3858 100 0 77.6142 0 50Z" fill="#6E0092"/>
<path d="M37.5137 38.75H40.0147V41.25H37.5137V38.75Z" fill="white"/>
<path d="M37.5137 48.75H40.0147V51.25H37.5137V48.75Z" fill="white"/>
<path d="M36.2583 46.25H41.2603C41.3603 46.25 41.4479 46.2625 41.5354 46.2875C42.1106 45.15 42.8859 44.1 43.8113 43.1749C44.224 42.7624 44.6491 42.3999 45.0993 42.0624C45.2744 41.5874 45.7245 41.2499 46.2623 41.2499H46.2998C50.1263 38.9874 54.9032 38.9374 58.7672 41.1124V33.75C58.7672 31.6875 57.079 30 55.0157 30H33.7573C31.694 30 30.0059 31.6875 30.0059 33.75V66.25C30.0059 68.3125 31.694 70 33.7573 70H55.0157C56.8539 70 58.392 68.6625 58.7047 66.9L57.9544 66.15C57.3166 65.5125 56.8664 64.725 56.6538 63.8625C55.3783 64.2875 54.0403 64.5125 52.6523 64.5125C51.1643 64.5125 49.7011 64.25 48.3381 63.75H46.2623C45.5745 63.75 45.0118 63.1875 45.0118 62.5C45.0118 62.3125 45.0493 62.15 45.1243 61.9875C44.6616 61.65 44.224 61.2625 43.8113 60.85C43.3361 60.375 42.8984 59.8625 42.5108 59.325V62.5C42.5108 63.1875 41.9481 63.75 41.2603 63.75H36.2583C35.5705 63.75 35.0078 63.1875 35.0078 62.5V57.5C35.0078 56.8125 35.5705 56.25 36.2583 56.25H40.8726C40.5975 55.4375 40.3849 54.6 40.2724 53.75H36.2583C35.5705 53.75 35.0078 53.1875 35.0078 52.5V47.5C35.0078 46.8125 35.5705 46.25 36.2583 46.25ZM46.2623 36.25H52.5147C53.2025 36.25 53.7652 36.8125 53.7652 37.5C53.7652 38.1875 53.2025 38.75 52.5147 38.75H46.2623C45.5745 38.75 45.0118 38.1875 45.0118 37.5C45.0118 36.8125 45.5745 36.25 46.2623 36.25ZM35.0078 37.5C35.0078 36.8125 35.5705 36.25 36.2583 36.25H41.2603C41.9481 36.25 42.5108 36.8125 42.5108 37.5V42.5C42.5108 43.1875 41.9481 43.75 41.2603 43.75H36.2583C35.5705 43.75 35.0078 43.1875 35.0078 42.5V37.5Z" fill="white"/>
<path d="M37.5137 58.75H40.0147V61.25H37.5137V58.75Z" fill="white"/>
<path d="M59.7516 44.9377C55.8501 41.0377 49.4976 41.0377 45.5961 44.9377C41.6945 48.8377 41.6945 55.1877 45.5961 59.0877C47.4968 60.9752 49.9978 62.0127 52.6739 62.0127C55.3499 62.0127 57.8634 60.9752 59.7516 59.0877C61.6399 57.2002 62.6778 54.6877 62.6778 52.0127C62.6778 49.3377 61.6399 46.8377 59.7516 44.9377ZM56.7255 50.7252L52.6864 55.0127C52.4613 55.2627 52.1361 55.4002 51.7985 55.4002H51.7735C51.4484 55.4002 51.1358 55.2752 50.8982 55.0377L48.6598 52.8002C48.1721 52.3127 48.1721 51.5252 48.6598 51.0377C49.1475 50.5502 49.9353 50.5502 50.423 51.0377L51.7485 52.3627L54.8997 49.0127C55.3749 48.5127 56.1627 48.4877 56.6629 48.9627C57.1756 49.4377 57.2008 50.2252 56.7255 50.7252Z" fill="white"/>
<path d="M61.5148 62.1016C61.1948 62.1016 60.8749 61.9794 60.6307 61.7353L57.9777 59.0833C57.4892 58.5951 57.4892 57.8041 57.9777 57.3157C58.4661 56.8273 59.2574 56.8274 59.746 57.3157L62.399 59.9677C62.8875 60.4559 62.8875 61.2469 62.399 61.7353C62.1548 61.9794 61.8347 62.1016 61.5148 62.1016Z" fill="white"/>
<path d="M68.8952 62.9617L65.0167 59.0853C64.0421 58.1099 62.4546 58.1099 61.4801 59.0853L59.7118 60.8529C58.7367 61.8277 58.7367 63.4133 59.7118 64.388L63.5897 68.265C64.3213 68.9963 65.2816 69.3618 66.2421 69.3618C67.2033 69.3618 68.1636 68.9962 68.8952 68.265C70.3581 66.8027 70.3581 64.4235 68.8952 62.9617Z" fill="white"/>
</g>
<defs>
<filter id="filter0_i_3410_7761" x="0" y="0" width="100" height="100" filterUnits="userSpaceOnUse" color-interpolation-filters="sRGB">
<feFlood flood-opacity="0" result="BackgroundImageFix"/>
<feBlend mode="normal" in="SourceGraphic" in2="BackgroundImageFix" result="shape"/>
<feColorMatrix in="SourceAlpha" type="matrix" values="0 0 0 0 0 0 0 0 0 0 0 0 0 0 0 0 0 0 127 0" result="hardAlpha"/>
<feMorphology radius="30.3333" operator="dilate" in="SourceAlpha" result="effect1_innerShadow_3410_7761"/>
<feOffset dx="-26" dy="-26"/>
<feGaussianBlur stdDeviation="6.5"/>
<feComposite in2="hardAlpha" operator="arithmetic" k2="-1" k3="1"/>
<feColorMatrix type="matrix" values="0 0 0 0 0.405799 0 0 0 0 0.394978 0 0 0 0 0.394978 0 0 0 1 0"/>
<feBlend mode="plus-lighter" in2="shape" result="effect1_innerShadow_3410_7761"/>
</filter>
</defs>
</svg>
