<?xml version="1.0" encoding="UTF-8"?>
<svg version="1.1" xmlns="http://www.w3.org/2000/svg" width="81" height="80">
<path d="M0 0 C0.8816835 -0.0033284 1.763367 -0.0066568 2.67176819 -0.01008606 C4.54053219 -0.01515908 6.40930529 -0.01749427 8.27807617 -0.01733398 C11.14451969 -0.01951933 14.01057785 -0.0376678 16.87695312 -0.05664062 C18.68880076 -0.05957464 20.50065023 -0.06155938 22.3125 -0.0625 C23.60473732 -0.07327827 23.60473732 -0.07327827 24.92308044 -0.08427429 C30.99383465 -0.06085285 30.99383465 -0.06085285 33.22265625 2.16796875 C33.34765625 4.79296875 33.34765625 4.79296875 33.22265625 7.16796875 C34.90294922 7.11576172 34.90294922 7.11576172 36.6171875 7.0625 C38.08982876 7.03436036 39.56248623 7.00706038 41.03515625 6.98046875 C42.14213867 6.94276367 42.14213867 6.94276367 43.27148438 6.90429688 C48.68166389 6.83085552 48.68166389 6.83085552 50.92773438 8.23046875 C52.87075811 11.13767772 52.70277186 14.07566617 52.734375 17.4609375 C52.7523262 18.16696609 52.7702774 18.87299469 52.78877258 19.60041809 C52.84288803 21.85204116 52.87677347 24.10345218 52.91015625 26.35546875 C52.94332844 27.88349306 52.97781802 29.41148938 53.01367188 30.93945312 C53.0986145 34.68213864 53.16541873 38.42476116 53.22265625 42.16796875 C54.87265625 42.82796875 56.52265625 43.48796875 58.22265625 44.16796875 C57.89265625 45.15796875 57.56265625 46.14796875 57.22265625 47.16796875 C55.90265625 46.50796875 54.58265625 45.84796875 53.22265625 45.16796875 C53.18527344 45.92722656 53.14789063 46.68648437 53.109375 47.46875 C53.04363281 48.46261719 52.97789063 49.45648438 52.91015625 50.48046875 C52.85214844 51.46660156 52.79414062 52.45273437 52.734375 53.46875 C52.15226243 56.53928274 51.6125428 57.25578809 49.22265625 59.16796875 C42.97890419 60.90892971 36.04771823 60.13818547 29.66015625 59.73046875 C28.74685547 59.67826172 27.83355469 59.62605469 26.89257812 59.57226562 C24.66878544 59.4441938 22.44563689 59.30932916 20.22265625 59.16796875 C20.22265625 61.47796875 20.22265625 63.78796875 20.22265625 66.16796875 C24.18265625 66.82796875 28.14265625 67.48796875 32.22265625 68.16796875 C32.22265625 69.48796875 32.22265625 70.80796875 32.22265625 72.16796875 C21.33265625 72.16796875 10.44265625 72.16796875 -0.77734375 72.16796875 C-0.44734375 70.84796875 -0.11734375 69.52796875 0.22265625 68.16796875 C2.07890625 67.67296875 2.07890625 67.67296875 3.97265625 67.16796875 C4.66875 66.98234375 5.36484375 66.79671875 6.08203125 66.60546875 C8.22265625 66.16796875 8.22265625 66.16796875 12.22265625 66.16796875 C12.22265625 63.85796875 12.22265625 61.54796875 12.22265625 59.16796875 C11.35987061 59.1836792 10.49708496 59.19938965 9.6081543 59.21557617 C6.40456358 59.2667283 3.2011811 59.30433035 -0.00268555 59.33276367 C-1.38882294 59.34784272 -2.77491269 59.36830925 -4.16088867 59.39428711 C-6.15392521 59.43070591 -8.14731098 59.44609893 -10.140625 59.4609375 C-11.33985596 59.47664795 -12.53908691 59.4923584 -13.7746582 59.50854492 C-16.77734375 59.16796875 -16.77734375 59.16796875 -18.44075012 57.9289093 C-20.13974374 55.69051261 -20.15721122 54.44487555 -20.16552734 51.65234375 C-20.17498383 50.74129883 -20.18444031 49.83025391 -20.19418335 48.89160156 C-20.18811066 47.91030273 -20.18203796 46.92900391 -20.17578125 45.91796875 C-20.17865143 44.90831055 -20.18152161 43.89865234 -20.18447876 42.85839844 C-20.18652063 40.72330159 -20.18098221 38.58818609 -20.16845703 36.453125 C-20.15240553 33.18056504 -20.168302 29.90924019 -20.1875 26.63671875 C-20.18551759 24.56379935 -20.18167396 22.49088072 -20.17578125 20.41796875 C-20.18185394 19.43666992 -20.18792664 18.45537109 -20.19418335 17.44433594 C-20.18472687 16.53329102 -20.17527039 15.62224609 -20.16552734 14.68359375 C-20.16314056 13.88211914 -20.16075378 13.08064453 -20.15829468 12.25488281 C-19.67689773 9.61770835 -18.93887881 8.72556993 -16.77734375 7.16796875 C-13.08984375 6.98046875 -13.08984375 6.98046875 -9.77734375 7.16796875 C-9.79796875 6.19859375 -9.81859375 5.22921875 -9.83984375 4.23046875 C-9.71539508 -1.8675159 -4.887116 0.00629809 0 0 Z " fill="#6A7DA1" transform="translate(19.77734375,3.83203125)"/>
<path d="M0 0 C1.51815699 0.00015911 3.0363194 0.00585313 4.55444336 0.01586914 C5.35208603 0.01728409 6.1497287 0.01869904 6.97154236 0.02015686 C9.52916146 0.02577223 12.08669429 0.03832727 14.64428711 0.05102539 C16.37410356 0.05603841 18.10392137 0.06060166 19.83374023 0.06469727 C24.08312264 0.07574664 28.33244023 0.09302153 32.58178711 0.11352539 C33.24178711 1.43352539 33.90178711 2.75352539 34.58178711 4.11352539 C33.94241211 4.23727539 33.30303711 4.36102539 32.64428711 4.48852539 C31.96366211 4.69477539 31.28303711 4.90102539 30.58178711 5.11352539 C30.25178711 5.77352539 29.92178711 6.43352539 29.58178711 7.11352539 C30.90178711 7.11352539 32.22178711 7.11352539 33.58178711 7.11352539 C33.91178711 6.45352539 34.24178711 5.79352539 34.58178711 5.11352539 C34.58178711 7.09352539 34.58178711 9.07352539 34.58178711 11.11352539 C35.57178711 11.11352539 36.56178711 11.11352539 37.58178711 11.11352539 C37.58178711 20.02352539 37.58178711 28.93352539 37.58178711 38.11352539 C40.55178711 38.11352539 43.52178711 38.11352539 46.58178711 38.11352539 C43.58178711 41.11352539 43.58178711 41.11352539 42.08178711 42.42602539 C40.02695702 44.73770924 38.88312651 47.32494096 37.58178711 50.11352539 C36.9669043 50.02973633 36.35202148 49.94594727 35.71850586 49.85961914 C34.91026367 49.7577832 34.10202148 49.65594727 33.26928711 49.55102539 C32.4687793 49.44661133 31.66827148 49.34219727 30.84350586 49.23461914 C28.41361595 48.96597361 28.41361595 48.96597361 25.58178711 50.11352539 C25.25178711 49.45352539 24.92178711 48.79352539 24.58178711 48.11352539 C23.31733765 48.07594116 23.31733765 48.07594116 22.02734375 48.03759766 C18.90937037 47.94264384 15.79157208 47.84340091 12.67382812 47.74121094 C11.32264564 47.69781316 9.97140658 47.65614169 8.62011719 47.61621094 C6.6814201 47.55862588 4.74292435 47.49438242 2.80444336 47.42993164 C1.6366333 47.39327393 0.46882324 47.35661621 -0.734375 47.31884766 C-3.41821289 47.11352539 -3.41821289 47.11352539 -4.41821289 46.11352539 C-4.5162614 44.70677319 -4.54619475 43.29517403 -4.54760742 41.88500977 C-4.55075958 40.98737915 -4.55391174 40.08974854 -4.55715942 39.16491699 C-4.55513519 38.18889526 -4.55311096 37.21287354 -4.55102539 36.20727539 C-4.55198212 35.21223999 -4.55293884 34.21720459 -4.55392456 33.1920166 C-4.55460649 31.08365821 -4.55275133 28.97529774 -4.54858398 26.86694336 C-4.54323592 23.62747512 -4.54852856 20.38814554 -4.55493164 17.14868164 C-4.55427086 15.10571258 -4.5529897 13.06274361 -4.55102539 11.01977539 C-4.55304962 10.04375366 -4.55507385 9.06773193 -4.55715942 8.06213379 C-4.55400726 7.16450317 -4.5508551 6.26687256 -4.54760742 5.34204102 C-4.54681183 4.54785767 -4.54601624 3.75367432 -4.54519653 2.9354248 C-4.31310087 -0.39457068 -3.43214518 0.11398811 0 0 Z " fill="#E0E2E7" transform="translate(14.418212890625,3.886474609375)"/>
<path d="M0 0 C1.32 0 2.64 0 4 0 C4.33 11.22 4.66 22.44 5 34 C14.12448871 34.24957754 14.12448871 34.24957754 23.24951172 34.47802734 C24.38146973 34.5136377 25.51342773 34.54924805 26.6796875 34.5859375 C28.42354736 34.63306885 28.42354736 34.63306885 30.20263672 34.68115234 C33 35 33 35 35 37 C36.670625 36.7525 36.670625 36.7525 38.375 36.5 C41.97691339 36.00318436 43.0870004 36.01916027 46 38 C46.2475 37.0925 46.495 36.185 46.75 35.25 C48.2845409 31.26019366 50.16127596 28.91936202 54 27 C51.36 26.67 48.72 26.34 46 26 C46 17.42 46 8.84 46 0 C56.83984375 -0.09765625 56.83984375 -0.09765625 60 0 C61.89623202 1.89623202 61.12897626 4.66370359 61.13894653 7.1862793 C61.1369223 8.05293213 61.13489807 8.91958496 61.1328125 9.8125 C61.13376923 10.69655518 61.13472595 11.58061035 61.13571167 12.49145508 C61.13639351 14.36442129 61.13453893 16.23738986 61.13037109 18.11035156 C61.12502289 20.98768388 61.13031593 23.86486008 61.13671875 26.7421875 C61.13605797 28.55729201 61.13477681 30.37239643 61.1328125 32.1875 C61.13483673 33.05415283 61.13686096 33.92080566 61.13894653 34.8137207 C61.11495009 40.88504991 61.11495009 40.88504991 60 42 C52.78817734 42.4729064 52.78817734 42.4729064 49.5 40.5 C49.005 40.005 48.51 39.51 48 39 C48.33 39.99 48.66 40.98 49 42 C42.03996553 42.02526838 35.0799428 42.04283222 28.11987305 42.05493164 C25.75007688 42.05997341 23.38028385 42.06680665 21.01049805 42.07543945 C17.61245961 42.0875119 14.21446215 42.09322971 10.81640625 42.09765625 C9.74975235 42.10281754 8.68309845 42.10797882 7.5841217 42.11329651 C6.60318039 42.11337204 5.62223907 42.11344757 4.61157227 42.11352539 C3.30918358 42.11685631 3.30918358 42.11685631 1.98048401 42.12025452 C0 42 0 42 -1 41 C-1.10110353 38.0546443 -1.13969279 35.1332244 -1.1328125 32.1875 C-1.13376923 31.30344482 -1.13472595 30.41938965 -1.13571167 29.50854492 C-1.13639351 27.63557871 -1.13453893 25.76261014 -1.13037109 23.88964844 C-1.12502289 21.01231612 -1.13031593 18.13513992 -1.13671875 15.2578125 C-1.13605797 13.44270799 -1.13477681 11.62760357 -1.1328125 9.8125 C-1.13483673 8.94584717 -1.13686096 8.07919434 -1.13894653 7.1862793 C-1.11495009 1.11495009 -1.11495009 1.11495009 0 0 Z " fill="#F8597C" transform="translate(6,16)"/>
<path d="M0 0 C4.875 0.875 4.875 0.875 6 2 C6.04063832 3.66617115 6.042721 5.33388095 6 7 C7.68029297 6.94779297 7.68029297 6.94779297 9.39453125 6.89453125 C10.86717251 6.86639161 12.33982998 6.83909163 13.8125 6.8125 C14.55048828 6.78736328 15.28847656 6.76222656 16.04882812 6.73632812 C21.45900764 6.66288677 21.45900764 6.66288677 23.70507812 8.0625 C25.64810186 10.96970897 25.48011561 13.90769742 25.51171875 17.29296875 C25.53864555 18.35201164 25.53864555 18.35201164 25.56611633 19.43244934 C25.62023178 21.68407241 25.65411722 23.93548343 25.6875 26.1875 C25.72067219 27.71552431 25.75516177 29.24352063 25.79101562 30.77148438 C25.87595825 34.51416989 25.94276248 38.25679241 26 42 C27.65 42.66 29.3 43.32 31 44 C30.67 44.99 30.34 45.98 30 47 C28.68 46.34 27.36 45.68 26 45 C25.96261719 45.75925781 25.92523438 46.51851562 25.88671875 47.30078125 C25.82097656 48.29464844 25.75523438 49.28851563 25.6875 50.3125 C25.62949219 51.29863281 25.57148437 52.28476562 25.51171875 53.30078125 C24.94722069 56.27840077 24.43661494 57.25540696 22 59 C18.00199836 59.60839155 16.47798748 59.33251303 13.125 57 C12.42375 56.34 11.7225 55.68 11 55 C12 54 12 54 19 53 C19 39.8 19 26.6 19 13 C12.07 12.505 12.07 12.505 5 12 C4.01 11.67 3.02 11.34 2 11 C1.3125 8.9375 1.3125 8.9375 1 7 C-0.32 7 -1.64 7 -3 7 C-2.67 6.01 -2.34 5.02 -2 4 C-0.68 4 0.64 4 2 4 C1.34 2.68 0.68 1.36 0 0 Z " fill="#6D81A5" transform="translate(47,4)"/>
<path d="M0 0 C1.51815699 0.00015911 3.0363194 0.00585313 4.55444336 0.01586914 C5.35208603 0.01728409 6.1497287 0.01869904 6.97154236 0.02015686 C9.52916146 0.02577223 12.08669429 0.03832727 14.64428711 0.05102539 C16.37410356 0.05603841 18.10392137 0.06060166 19.83374023 0.06469727 C24.08312264 0.07574664 28.33244023 0.09302153 32.58178711 0.11352539 C33.24178711 1.43352539 33.90178711 2.75352539 34.58178711 4.11352539 C33.94241211 4.23727539 33.30303711 4.36102539 32.64428711 4.48852539 C31.96366211 4.69477539 31.28303711 4.90102539 30.58178711 5.11352539 C30.25178711 5.77352539 29.92178711 6.43352539 29.58178711 7.11352539 C30.90178711 7.11352539 32.22178711 7.11352539 33.58178711 7.11352539 C33.91178711 6.45352539 34.24178711 5.79352539 34.58178711 5.11352539 C34.58178711 7.09352539 34.58178711 9.07352539 34.58178711 11.11352539 C21.71178711 11.11352539 8.84178711 11.11352539 -4.41821289 11.11352539 C-4.41821289 0.1467373 -4.41821289 0.1467373 0 0 Z " fill="#39C0F5" transform="translate(14.418212890625,3.886474609375)"/>
<path d="M0 0 C0.99 0 1.98 0 3 0 C3 8.91 3 17.82 3 27 C5.97 27 8.94 27 12 27 C9 30 9 30 7.5 31.3125 C5.44516992 33.62418385 4.3013394 36.21141556 3 39 C2.38511719 38.91621094 1.77023438 38.83242188 1.13671875 38.74609375 C0.32847656 38.64425781 -0.47976562 38.54242188 -1.3125 38.4375 C-2.11300781 38.33308594 -2.91351563 38.22867188 -3.73828125 38.12109375 C-6.16817116 37.85244822 -6.16817116 37.85244822 -9 39 C-9.84026396 37.23244474 -10.67198722 35.46082737 -11.5 33.6875 C-11.9640625 32.70136719 -12.428125 31.71523438 -12.90625 30.69921875 C-14 28 -14 28 -14 25 C-7.07 25.495 -7.07 25.495 0 26 C0 17.42 0 8.84 0 0 Z " fill="#C0C7CF" transform="translate(49,15)"/>
<path d="M0 0 C0 1.32 0 2.64 0 4 C-10.89 4 -21.78 4 -33 4 C-32.67 2.68 -32.34 1.36 -32 0 C-21.63158004 -3.38560652 -10.42735816 -2.92697773 0 0 Z " fill="#6E81A4" transform="translate(52,72)"/>
<path d="M0 0 C3.42363304 0.61136304 5.2713268 1.89502353 8 4 C10.30678089 5.38506498 12.64953518 6.68916385 15 8 C12.27521226 11.36591427 8.93143208 12.44226276 5 14 C4.15973604 12.23244474 3.32801278 10.46082737 2.5 8.6875 C2.0359375 7.70136719 1.571875 6.71523438 1.09375 5.69921875 C0 3 0 3 0 0 Z " fill="#77DEFC" transform="translate(35,40)"/>
<path d="M0 0 C0.33 0.66 0.66 1.32 1 2 C1.99 1.67 2.98 1.34 4 1 C4 1.66 4 2.32 4 3 C4.66 3 5.32 3 6 3 C6 2.01 6 1.02 6 0 C12.875 0.875 12.875 0.875 14 2 C14.33 1.34 14.66 0.68 15 0 C17.01822917 0.29296875 19.03645833 0.5859375 21.0546875 0.87890625 C23.08140667 1.1684297 23.08140667 1.1684297 25 0 C24.67 1.65 24.34 3.3 24 5 C21.92446352 5.5534764 20.15634036 6 18 6 C17.67 5.01 17.34 4.02 17 3 C16.01 4.485 16.01 4.485 15 6 C12.375 6.1875 12.375 6.1875 10 6 C9.67 4.68 9.34 3.36 9 2 C8.34 2 7.68 2 7 2 C6.67 3.32 6.34 4.64 6 6 C4.35 6 2.7 6 1 6 C0.67 4.02 0.34 2.04 0 0 Z " fill="#40405B" transform="translate(19,29)"/>
<path d="M0 0 C4.19283118 0.64844086 8.26499921 1.51216646 12.375 2.5625 C13.43460938 2.83191406 14.49421875 3.10132813 15.5859375 3.37890625 C16.38257812 3.58386719 17.17921875 3.78882813 18 4 C17.38550003 7.33822957 16.65439171 10.02209492 15 13 C12.36 12.34 9.72 11.68 7 11 C8.65 9.68 10.3 8.36 12 7 C8.04 5.02 4.08 3.04 0 1 C0 0.67 0 0.34 0 0 Z " fill="#4BB6DA" transform="translate(37,41)"/>
<path d="M0 0 C2.64 0 5.28 0 8 0 C8 2.64 8 5.28 8 8 C5.36 8 2.72 8 0 8 C0 5.36 0 2.72 0 0 Z " fill="#EDE7E9" transform="translate(32,62)"/>
<path d="M0 0 C4.875 0.875 4.875 0.875 6 2 C5.91062197 3.52519276 5.75462854 5.04681929 5.5625 6.5625 C5.46066406 7.38878906 5.35882813 8.21507812 5.25390625 9.06640625 C5.17011719 9.70449219 5.08632813 10.34257812 5 11 C4.01 11 3.02 11 2 11 C1.67 9.68 1.34 8.36 1 7 C-0.32 7 -1.64 7 -3 7 C-2.67 6.01 -2.34 5.02 -2 4 C-0.68 4 0.64 4 2 4 C1.34 2.68 0.68 1.36 0 0 Z " fill="#4287C0" transform="translate(47,4)"/>
<path d="M0 0 C6.74233419 -0.12910853 13.30386804 0.202163 20 1 C17.94766315 3.2477975 16.99332739 4.0022242 14 5 C11.5479609 4.43194903 9.20959033 3.8054297 6.8125 3.0625 C5.83120117 2.76956055 5.83120117 2.76956055 4.83007812 2.47070312 C3.21772593 1.98817437 1.60853711 1.49509795 0 1 C0 0.67 0 0.34 0 0 Z " fill="#7FD7F4" transform="translate(41,41)"/>
<path d="M0 0 C2.64 0 5.28 0 8 0 C8 1.32 8 2.64 8 4 C5.36 4 2.72 4 0 4 C0 2.68 0 1.36 0 0 Z " fill="#C3B8C0" transform="translate(32,62)"/>
<path d="M0 0 C1.11375 0.185625 2.2275 0.37125 3.375 0.5625 C6.82568861 1.31680657 6.82568861 1.31680657 9 0 C8.67 1.65 8.34 3.3 8 5 C5.92446352 5.5534764 4.15634036 6 2 6 C1.34 4.02 0.68 2.04 0 0 Z " fill="#40415B" transform="translate(35,29)"/>
<path d="M0 0 C0.33 0.66 0.66 1.32 1 2 C1.99 1.67 2.98 1.34 4 1 C4 1.66 4 2.32 4 3 C4.66 3 5.32 3 6 3 C6.33 2.34 6.66 1.68 7 1 C6.67 2.65 6.34 4.3 6 6 C4.35 6 2.7 6 1 6 C0.67 4.02 0.34 2.04 0 0 Z " fill="#333350" transform="translate(19,29)"/>
<path d="M0 0 C2.97 0.33 5.94 0.66 9 1 C9 2.32 9 3.64 9 5 C7.68 5 6.36 5 5 5 C4.67 4.01 4.34 3.02 4 2 C2.68 1.34 1.36 0.68 0 0 Z " fill="#3D4D6F" transform="translate(43,71)"/>
<path d="M0 0 C0.33 1.65 0.66 3.3 1 5 C-1.64 4.34 -4.28 3.68 -7 3 C-3.375 0 -3.375 0 0 0 Z " fill="#498EAE" transform="translate(51,49)"/>
<path d="M0 0 C-0.99 1.485 -0.99 1.485 -2 3 C-3.32 3 -4.64 3 -6 3 C-6 2.01 -6 1.02 -6 0 C-3.50907189 -1.24546405 -2.58919267 -0.7767578 0 0 Z " fill="#1F2141" transform="translate(77,65)"/>
<path d="M0 0 C2.475 0.99 2.475 0.99 5 2 C4.67 2.99 4.34 3.98 4 5 C2.68 4.34 1.36 3.68 0 3 C0 2.01 0 1.02 0 0 Z " fill="#212444" transform="translate(73,46)"/>
<path d="M0 0 C2.97 0.495 2.97 0.495 6 1 C5.67 1.99 5.34 2.98 5 4 C2.525 3.01 2.525 3.01 0 2 C0 1.34 0 0.68 0 0 Z " fill="#1D1F3F" transform="translate(64,64)"/>
<path d="M0 0 C0.99 0.33 1.98 0.66 3 1 C2.34 2.65 1.68 4.3 1 6 C0.34 6 -0.32 6 -1 6 C-0.67 4.02 -0.34 2.04 0 0 Z " fill="#1F2242" transform="translate(78,58)"/>
<path d="M0 0 C1.485 0.99 1.485 0.99 3 2 C2.67 3.32 2.34 4.64 2 6 C1.34 6 0.68 6 0 6 C-0.38218767 4.34385343 -0.71395102 2.67542976 -1 1 C-0.67 0.67 -0.34 0.34 0 0 Z " fill="#1F2141" transform="translate(78,51)"/>
</svg>
