<svg width="79" height="74" viewBox="0 0 79 74" fill="none" xmlns="http://www.w3.org/2000/svg">
<path fill-rule="evenodd" clip-rule="evenodd" d="M7.27481 73.8638H20.206C20.4068 71.6345 20.9714 65.2487 21.2421 60.9685C21.5744 55.7085 4.62092 56.2629 4.62092 56.2629L3.83594 60.9685C3.83594 60.9685 4.27925 65.575 5.83212 67.9035C7.2099 69.9714 7.27737 71.7771 7.27481 73.8638Z" fill="#434343"/>
<path fill-rule="evenodd" clip-rule="evenodd" d="M70.8276 73.8638H57.8964C57.6957 71.6345 57.1311 65.2487 56.8603 60.9685C56.528 55.7085 73.4815 56.2629 73.4815 56.2629L74.2665 60.9685C74.2665 60.9685 73.8232 65.575 72.2712 67.9035C70.8925 69.9714 70.8259 71.7771 70.8276 73.8638Z" fill="#434343"/>
<path fill-rule="evenodd" clip-rule="evenodd" d="M73.3379 27.3633L59.4534 46.6751C58.7581 47.6421 57.7374 48.3254 56.5783 48.5996L41.9883 52.053C39.3335 52.6816 36.6685 51.0365 36.0398 48.3818C35.412 45.727 37.0572 43.0612 39.7119 42.4334L52.5048 39.4053L65.3113 21.5917C66.9034 19.3768 69.9947 18.872 72.2104 20.4642C74.4252 22.0564 74.9309 25.1476 73.3379 27.3633Z" fill="#434343"/>
<path fill-rule="evenodd" clip-rule="evenodd" d="M73.9623 22.7148C73.9623 22.7148 76.5487 27.5084 74.7473 35.7862C72.9458 44.063 78.5825 60.9704 78.5825 60.9704H54.7461C61.4735 43.3908 55.3842 41.1708 67.2374 22.7148H73.9623Z" fill="#4F4F4F"/>
<path d="M9.97661 15.1017C14.1468 15.1017 17.5274 11.721 17.5274 7.55083C17.5274 3.38062 14.1468 0 9.97661 0C5.8064 0 2.42578 3.38062 2.42578 7.55083C2.42578 11.721 5.8064 15.1017 9.97661 15.1017Z" fill="#FAC7A5"/>
<path fill-rule="evenodd" clip-rule="evenodd" d="M4.62019 22.7148C4.62019 22.7148 2.03377 27.5084 3.83521 35.7862C5.63665 44.063 0 60.9704 0 60.9704H23.8364C23.8364 60.9704 24.3907 54.5958 23.8364 45.5877C23.282 36.5797 4.62019 22.7148 4.62019 22.7148Z" fill="#4F4F4F"/>
<path fill-rule="evenodd" clip-rule="evenodd" d="M5.16335 27.3633L19.0478 46.6751C19.7431 47.6421 20.7638 48.3254 21.923 48.5996L40.2756 52.9439C42.9303 53.5725 45.5962 51.9274 46.224 49.2727C46.8527 46.6179 45.2075 43.9521 42.5528 43.3234L25.9965 39.4053L13.19 21.5917C11.5978 19.3768 8.50656 18.872 6.2917 20.4642C4.076 22.0564 3.57118 25.1476 5.16335 27.3633Z" fill="#7B7B7B"/>
<path fill-rule="evenodd" clip-rule="evenodd" d="M38.3633 42.332L35.8555 51.897L40.2749 52.9433C42.9297 53.572 45.5955 51.9269 46.2233 49.2721C46.852 46.6174 45.2069 43.9515 42.5521 43.3229L38.3633 42.332Z" fill="#FAC7A5"/>
<path d="M68.5235 15.1017C72.6937 15.1017 76.0743 11.721 76.0743 7.55083C76.0743 3.38062 72.6937 0 68.5235 0C64.3533 0 60.9727 3.38062 60.9727 7.55083C60.9727 11.721 64.3533 15.1017 68.5235 15.1017Z" fill="#FAC7A5"/>
<path fill-rule="evenodd" clip-rule="evenodd" d="M76.7949 24.6886L75.7818 48.4524C75.7314 49.6414 75.2531 50.7732 74.4348 51.6384L61.4745 65.3393C59.5996 67.3218 56.4683 67.4089 54.4866 65.534C52.5049 63.6591 52.4178 60.5278 54.2919 58.5461L65.9837 46.1863L66.9173 24.2675C67.0335 21.5419 69.3406 19.4235 72.0662 19.5397C74.7919 19.6559 76.911 21.963 76.7949 24.6886Z" fill="#7B7B7B"/>
<path fill-rule="evenodd" clip-rule="evenodd" d="M56.329 56.3945L63.7022 62.9861L61.4745 65.3411C59.5996 67.3236 56.4683 67.4107 54.4866 65.5358C52.5049 63.6609 52.4178 60.5296 54.2919 58.5479L56.329 56.3945Z" fill="#FAC7A5"/>
<path fill-rule="evenodd" clip-rule="evenodd" d="M36.3984 17.9453H42.1803V27.8562H36.3984V17.9453Z" fill="#5583FD"/>
<path fill-rule="evenodd" clip-rule="evenodd" d="M47.9336 10.6523H53.7154V27.8553H47.9336V10.6523Z" fill="#72A962"/>
<path fill-rule="evenodd" clip-rule="evenodd" d="M24.8672 20.6172H30.649V27.8571H24.8672V20.6172Z" fill="#9F66FE"/>
<path fill-rule="evenodd" clip-rule="evenodd" d="M46.7936 0.90046C42.7996 8.69644 34.474 14.0529 24.8672 14.0529C24.1599 14.0529 23.5859 14.6269 23.5859 15.3342C23.5859 16.0414 24.1599 16.6154 24.8672 16.6154C35.4785 16.6154 44.6625 10.6798 49.0743 2.06896C49.3963 1.43944 49.1477 0.666419 48.5182 0.344398C47.8887 0.0215228 47.1157 0.270939 46.7936 0.90046Z" fill="#4F4F4F"/>
</svg>
