<svg width="47" height="40" viewBox="0 0 47 40" fill="none" xmlns="http://www.w3.org/2000/svg">
<path fill-rule="evenodd" clip-rule="evenodd" d="M21.8382 33.3283V36.655L15.1088 36.6467C14.1823 36.645 13.4303 37.39 13.4286 38.31C13.4269 39.23 14.1789 39.9783 15.1055 39.98L31.8912 40C32.8178 40.0017 33.5698 39.255 33.5714 38.335C33.5731 37.415 32.8211 36.6683 31.8945 36.6667L25.1954 36.6583V33.3283H41.9643C43.3004 33.3283 44.5812 32.8017 45.5245 31.865C46.4696 30.9267 47 29.655 47 28.3283V26.6667H0V28.3283C0 29.655 0.530428 30.9267 1.47546 31.865C2.41882 32.8017 3.69957 33.3283 5.03571 33.3283H21.8382ZM0 23.3333H47V5C47 3.67333 46.4696 2.40167 45.5245 1.465C44.5812 0.526667 43.3004 0 41.9643 0H5.03571C3.69957 0 2.41882 0.526667 1.47546 1.465C0.530428 2.40167 0 3.67333 0 5V23.3333ZM8.39454 15.0067L20.1429 15C20.7052 15 21.2272 14.7217 21.5394 14.2583L21.8214 13.8367V18.3317C21.8214 19.0067 22.2293 19.6133 22.8571 19.8717C23.4849 20.13 24.2067 19.9883 24.6868 19.5117L29.2256 15.005L38.5971 15.065C39.522 15.07 40.279 14.3283 40.2857 13.4083C40.2924 12.4883 39.5438 11.7367 38.6172 11.7317L28.5458 11.6667C28.0976 11.6633 27.6662 11.84 27.349 12.155L25.1786 14.3083L25.1803 8.33333C25.1803 7.59833 24.6968 6.95 23.9885 6.73833C23.2801 6.525 22.5164 6.79667 22.1051 7.40833L19.2448 11.6667L8.39118 11.6733C7.46461 11.6733 6.71429 12.4217 6.71429 13.3417C6.71429 14.2617 7.46796 15.0067 8.39454 15.0067Z" fill="white"/>
</svg>
