<svg width="40" height="40" viewBox="0 0 40 40" fill="none" xmlns="http://www.w3.org/2000/svg">
<path d="M7.50781 8.75H10.0088V11.25H7.50781V8.75Z" fill="white"/>
<path d="M7.50781 18.75H10.0088V21.25H7.50781V18.75Z" fill="white"/>
<path d="M6.25246 16.25H11.2544C11.3545 16.25 11.442 16.2625 11.5295 16.2875C12.1048 15.15 12.8801 14.1 13.8054 13.1749C14.2181 12.7624 14.6433 12.3999 15.0934 12.0624C15.2685 11.5874 15.7187 11.2499 16.2564 11.2499H16.2939C20.1204 8.98738 24.8973 8.93738 28.7613 11.1124V3.75C28.7613 1.6875 27.0732 0 25.0098 0H3.75148C1.68816 0 0 1.6875 0 3.75V36.25C0 38.3125 1.68816 40 3.75148 40H25.0098C26.8481 40 28.3862 38.6625 28.6988 36.9L27.9485 36.15C27.3107 35.5125 26.8606 34.725 26.648 33.8625C25.3725 34.2875 24.0345 34.5125 22.6464 34.5125C21.1585 34.5125 19.6952 34.25 18.3322 33.75H16.2564C15.5686 33.75 15.0059 33.1875 15.0059 32.5C15.0059 32.3125 15.0434 32.15 15.1184 31.9875C14.6558 31.65 14.2181 31.2625 13.8054 30.85C13.3302 30.375 12.8926 29.8625 12.5049 29.325V32.5C12.5049 33.1875 11.9422 33.75 11.2544 33.75H6.25246C5.56469 33.75 5.00197 33.1875 5.00197 32.5V27.5C5.00197 26.8125 5.56469 26.25 6.25246 26.25H10.8668C10.5917 25.4375 10.3791 24.6 10.2665 23.75H6.25246C5.56469 23.75 5.00197 23.1875 5.00197 22.5V17.5C5.00197 16.8125 5.56469 16.25 6.25246 16.25ZM16.2564 6.25H22.5089C23.1966 6.25 23.7593 6.8125 23.7593 7.5C23.7593 8.1875 23.1966 8.75 22.5089 8.75H16.2564C15.5686 8.75 15.0059 8.1875 15.0059 7.5C15.0059 6.8125 15.5686 6.25 16.2564 6.25ZM5.00197 7.5C5.00197 6.8125 5.56469 6.25 6.25246 6.25H11.2544C11.9422 6.25 12.5049 6.8125 12.5049 7.5V12.5C12.5049 13.1875 11.9422 13.75 11.2544 13.75H6.25246C5.56469 13.75 5.00197 13.1875 5.00197 12.5V7.5Z" fill="white"/>
<path d="M7.50781 28.75H10.0088V31.25H7.50781V28.75Z" fill="white"/>
<path d="M29.7458 14.9377C25.8443 11.0377 19.4917 11.0377 15.5902 14.9377C11.6887 18.8377 11.6887 25.1877 15.5902 29.0877C17.491 30.9752 19.9919 32.0127 22.668 32.0127C25.3441 32.0127 27.8575 30.9752 29.7458 29.0877C31.634 27.2002 32.6719 24.6877 32.6719 22.0127C32.6719 19.3377 31.634 16.8377 29.7458 14.9377ZM26.7196 20.7252L22.6805 25.0127C22.4554 25.2627 22.1303 25.4002 21.7927 25.4002H21.7676C21.4425 25.4002 21.1299 25.2752 20.8923 25.0377L18.6539 22.8002C18.1662 22.3127 18.1662 21.5252 18.6539 21.0377C19.1416 20.5502 19.9294 20.5502 20.4171 21.0377L21.7426 22.3627L24.8939 19.0127C25.3691 18.5127 26.1569 18.4877 26.6571 18.9627C27.1698 19.4377 27.1949 20.2252 26.7196 20.7252Z" fill="white"/>
<path d="M31.5089 32.1016C31.1889 32.1016 30.8691 31.9794 30.6248 31.7353L27.9718 29.0833C27.4834 28.5951 27.4834 27.8041 27.9718 27.3157C28.4602 26.8273 29.2516 26.8274 29.7401 27.3157L32.3932 29.9677C32.8816 30.4559 32.8816 31.2469 32.3932 31.7353C32.1489 31.9794 31.8288 32.1016 31.5089 32.1016Z" fill="white"/>
<path d="M38.8893 32.9617L35.0108 29.0853C34.0363 28.1099 32.4488 28.1099 31.4743 29.0853L29.706 30.8529C28.7308 31.8277 28.7308 33.4133 29.706 34.388L33.5839 38.265C34.3154 38.9963 35.2758 39.3618 36.2363 39.3618C37.1974 39.3618 38.1578 38.9962 38.8893 38.265C40.3523 36.8027 40.3523 34.4235 38.8893 32.9617Z" fill="white"/>
</svg>
