<svg width="41" height="40" viewBox="0 0 41 40" fill="none" xmlns="http://www.w3.org/2000/svg">
<path d="M22.674 7.34741C22.674 8.28037 21.9087 9.04568 20.9758 9.04568H19.8388C18.9059 9.04568 18.1406 8.28037 18.1406 7.34741V4.54126H11.3479V7.34741C11.3479 8.28037 10.5826 9.04568 9.64974 9.04568H8.52005C7.58714 9.04568 6.82187 8.28037 6.82187 7.34741V4.54126H2.75499C1.23901 4.54126 0 5.78034 0 7.29639V11.0063H28.7306C28.7306 11.0063 28.767 10.9626 28.7889 10.9407L30.7421 8.98737C30.0133 8.80516 29.4667 8.1346 29.4667 7.34741V4.54126H22.674V7.34741Z" fill="white"/>
<path d="M38.063 4.54126H33.9961V6.76432C34.9509 6.80076 35.7672 7.42759 36.0514 8.34597L36.5834 10.0734L38.3108 10.6055C38.595 10.6929 38.8501 10.8314 39.0688 11.0063H40.818V7.29639C40.818 5.78034 39.5789 4.54126 38.063 4.54126Z" fill="white"/>
<path d="M22.6779 1.69098C22.6779 0.758026 21.9126 0 20.9797 0H19.8427C18.9098 0 18.1445 0.758026 18.1445 1.69098V4.54087H22.6779V1.69098Z" fill="white"/>
<path d="M11.3503 1.69098C11.3503 0.758026 10.585 0 9.65209 0H8.5224C7.58949 0 6.82422 0.758026 6.82422 1.69098V4.54087H11.3503V1.69098Z" fill="white"/>
<path d="M32.2966 0H31.1669C30.234 0 29.4688 0.758026 29.4688 1.69098V4.54087H33.9948V1.69098C33.9948 0.758026 33.2295 0 32.2966 0Z" fill="white"/>
<path d="M33.6738 34.4607V40.0001H38.0614C39.5774 40.0001 40.8164 38.761 40.8164 37.245V32.8572H35.27C34.3881 32.8572 33.6738 33.5715 33.6738 34.4607Z" fill="white"/>
<path d="M39.2403 14.3445L35.7565 17.8285C35.2828 18.3023 34.6414 18.5866 33.9636 18.6084L30.6984 18.7323C30.6984 18.7323 30.6109 18.7323 30.5964 18.7323C30.1372 18.7323 29.6926 18.6011 29.2918 18.3752L30.4142 17.2527C30.487 17.2673 30.5672 17.2746 30.6401 17.2673L33.9053 17.1434C34.2114 17.1288 34.5102 17.0049 34.7289 16.7863L38.2054 13.3095C38.6281 12.8868 38.4459 12.1725 37.8774 11.9976L35.414 11.2395L34.656 8.77596C34.481 8.20744 33.7595 8.02522 33.3368 8.44796L29.8165 11.9684C29.5979 12.1871 29.4667 12.4859 29.4594 12.7993L29.3646 16.0136C29.3646 16.0865 29.3646 16.1594 29.3792 16.225L28.2568 17.3475C28.0236 16.932 27.8924 16.4583 27.907 15.9699L27.9944 12.7556C27.9944 12.6536 28.009 12.5515 28.0236 12.4568H0V37.2384C0 38.7544 1.23901 39.9935 2.75499 39.9935H32.2144V34.4541C32.2144 32.7631 33.5846 31.3928 35.2682 31.3928H40.8146V12.4568H39.8744C39.9692 13.1492 39.7432 13.8343 39.2403 14.3372V14.3445ZM20.4437 37.5518C14.1685 37.5518 9.08125 32.4643 9.08125 26.1887C9.08125 19.9131 14.1685 14.8256 20.4437 14.8256C23.3226 14.8256 25.9391 15.9043 27.9434 17.6682L25.2249 20.3796C23.9203 19.3081 22.2585 18.6595 20.4437 18.6595C16.2821 18.6595 12.9149 22.0341 12.9149 26.1887C12.9149 30.3433 16.2894 33.7179 20.4437 33.7179C24.6054 33.7179 27.9726 30.3433 27.9726 26.1887C27.9726 24.9059 27.6519 23.7032 27.0834 22.6464L23.9859 25.7441C24.0077 25.8899 24.0296 26.0429 24.0296 26.196C24.0296 28.1785 22.4189 29.7893 20.4365 29.7893C18.454 29.7893 16.8433 28.1785 16.8433 26.196C16.8433 24.2135 18.454 22.6026 20.4365 22.6026C21.1653 22.6026 21.8358 22.8286 22.4043 23.2003L19.9263 25.6785C19.642 25.9627 19.642 26.4219 19.9263 26.7062C20.072 26.852 20.2542 26.9176 20.4437 26.9176C20.6332 26.9176 20.8154 26.8447 20.9612 26.7062L23.4465 24.228L26.2671 21.4146L28.9784 18.7032C30.7348 20.7076 31.8135 23.3169 31.8135 26.196C31.8135 32.4716 26.7263 37.5591 20.451 37.5591L20.4437 37.5518Z" fill="white"/>
</svg>
