<svg width="42" height="42" viewBox="0 0 42 42" fill="none" xmlns="http://www.w3.org/2000/svg">
<path d="M36.4963 7.32861L31.9682 2.80048C31.0941 1.92505 29.9312 1.44336 28.6935 1.44336H8.95219C6.30356 1.44336 4.14844 3.59848 4.14844 6.24711V35.7521C4.14844 38.4007 6.30356 40.5559 8.95219 40.5559H33.0497C35.6983 40.5559 37.8534 38.4007 37.8534 35.7521V10.6046C37.8534 9.34855 37.3691 8.18173 36.4963 7.32861ZM17.0464 29.3195L14.4214 31.4353C14.2101 31.6059 13.9489 31.6965 13.6811 31.6965C13.6365 31.6965 13.5919 31.6939 13.5473 31.6886C13.2336 31.6532 12.9461 31.493 12.7519 31.2437L11.7203 29.9272C11.3173 29.414 11.4079 28.6712 11.9211 28.2682C12.4356 27.8666 13.1771 27.9572 13.5801 28.469L13.8728 28.8431L15.5672 27.4781C16.0738 27.0686 16.8193 27.1487 17.2275 27.6566C17.6344 28.1659 17.5543 28.91 17.0464 29.3195ZM17.0464 22.1625L14.4214 24.2782C14.2101 24.4489 13.9489 24.5394 13.6811 24.5394C13.6365 24.5394 13.5919 24.5368 13.5473 24.5315C13.2336 24.4961 12.9461 24.336 12.7519 24.0866L11.7176 22.7715C11.3147 22.2583 11.4053 21.5154 11.9184 21.1125C12.4329 20.7109 13.1745 20.8001 13.5774 21.3133L13.8701 21.6874L15.5646 20.3224C16.0712 19.9129 16.8167 19.9929 17.2249 20.5009C17.6344 21.0101 17.5543 21.7543 17.0464 22.1625ZM29.3537 30.6386H20.9589C20.3066 30.6386 19.7777 30.1097 19.7777 29.4574C19.7777 28.805 20.3066 28.2761 20.9589 28.2761H29.3537C30.006 28.2761 30.5349 28.805 30.5349 29.4574C30.5349 30.1097 30.006 30.6386 29.3537 30.6386ZM29.3537 23.4815H20.9589C20.3066 23.4815 19.7777 22.9526 19.7777 22.3003C19.7777 21.648 20.3066 21.119 20.9589 21.119H29.3537C30.006 21.119 30.5349 21.648 30.5349 22.3003C30.5349 22.9526 30.006 23.4815 29.3537 23.4815ZM35.4909 11.2031H29.9535C28.9389 11.2031 28.1121 10.3775 28.1121 9.36167V3.80586H28.6922C29.2986 3.80586 29.8682 4.04211 30.2974 4.46998L34.8334 9.0073C35.256 9.42073 35.4896 9.98905 35.4896 10.6046V11.2031H35.4909Z" fill="white"/>
</svg>
