<svg width="42" height="42" viewBox="0 0 42 42" fill="none" xmlns="http://www.w3.org/2000/svg">
<path d="M30.1449 3.8064H28.4011V5.44408C28.4011 7.89303 26.4087 9.88706 23.9567 9.88706H11.4029C8.95402 9.88706 6.96002 7.89454 6.96002 5.44408V3.8064H5.23139C2.33517 3.8064 0 6.14161 0 9.03789V35.6654C0 38.5465 2.33517 40.8817 5.23139 40.8817H24.9985C24.0113 40.1478 23.379 38.9802 23.379 37.6943V32.8586L22.3646 32.2687C21.4957 31.738 20.9999 30.8555 20.9999 29.885C20.9999 28.9145 21.4957 28.0305 22.3267 27.524L30.6029 22.7216C31.1836 22.3774 31.869 22.1879 32.5681 22.1879C33.2686 22.1879 33.954 22.3774 34.556 22.7338L35.3475 23.1932V9.03789C35.346 6.12645 33.0412 3.8064 30.1449 3.8064ZM18.5085 27.3618H8.30957C7.55595 27.3618 6.94486 26.7507 6.94486 25.997C6.94486 25.2434 7.55595 24.6323 8.30957 24.6323H18.5085C19.2621 24.6323 19.8732 25.2434 19.8732 25.997C19.8732 26.7507 19.2621 27.3618 18.5085 27.3618ZM27.0319 20.0574H8.30805C7.55443 20.0574 6.94334 19.4463 6.94334 18.6926C6.94334 17.939 7.55443 17.3279 8.30805 17.3279H27.0319C27.7855 17.3279 28.3966 17.939 28.3966 18.6926C28.3966 19.4463 27.7855 20.0574 27.0319 20.0574Z" fill="white"/>
<path d="M41.6282 30.3033L38.8153 31.9365L33.3944 35.0935C32.8864 35.3817 32.2556 35.3817 31.7476 35.0935L26.3131 31.9365L23.5139 30.3033C23.1985 30.1107 23.1985 29.6589 23.5139 29.4663L31.7476 24.6897C32.2556 24.3879 32.8864 24.3879 33.3944 24.6897L41.6282 29.4663C41.9451 29.6573 41.9451 30.1107 41.6282 30.3033Z" fill="white"/>
<path d="M34.0479 37.1902C33.5915 37.4495 33.082 37.5829 32.5649 37.5829C32.0494 37.5829 31.5399 37.4495 31.0941 37.1962L25.6504 34.03V37.6936C25.6504 38.3153 25.984 38.9067 26.5299 39.21L30.3359 41.4087C31.7158 42.1972 33.4141 42.1972 34.794 41.4087L38.6 39.21C39.1307 38.9067 39.4643 38.3153 39.4643 37.6936V34.0391L34.0479 37.1902Z" fill="white"/>
<path d="M26.1284 2.15325V5.44378C26.1284 6.64172 25.158 7.6122 23.96 7.6122H11.4047C10.2068 7.6122 9.23633 6.64172 9.23633 5.44378V2.15325C9.23633 0.955316 10.2068 0 11.4047 0H23.96C25.158 0 26.1284 0.955316 26.1284 2.15325Z" fill="white"/>
</svg>
