<svg width="90" height="91" viewBox="0 0 90 91" fill="none" xmlns="http://www.w3.org/2000/svg">
<path d="M72.5294 20.5123H66.857C64.7594 20.5123 62.682 19.9185 61.0281 18.6937C56.4599 15.3107 50.8723 13.4691 44.9953 13.4691C38.9336 13.4691 33.3548 15.444 28.9208 18.7509C27.3322 19.9355 25.3332 20.5123 23.3133 20.5123H17.4727C23.4454 12.1536 33.5512 6.66406 44.9951 6.66406C54.1811 6.66406 62.5071 10.2026 68.5396 15.9188C70.0209 17.3254 71.3586 18.8679 72.5294 20.5123Z" fill="url(#paint0_linear_3396_8033)"/>
<path d="M51.8399 86.2343C51.4027 86.2343 51.0116 85.9446 50.9186 85.5227C50.8119 85.039 51.1385 84.565 51.6476 84.4635C63.207 82.1684 72.5199 74.069 75.9518 63.3271C76.1028 62.8542 76.6282 62.5865 77.1271 62.7302C77.6249 62.8736 77.9067 63.3733 77.7557 63.8461C74.124 75.2145 64.2682 83.7858 52.0341 86.2155C51.9688 86.2281 51.9034 86.2343 51.8399 86.2343Z" fill="url(#paint1_linear_3396_8033)"/>
<path d="M78.2884 44.76C77.7675 44.76 77.346 44.3593 77.346 43.8653V38.2737C77.346 32.0813 75.4116 26.1141 71.7521 21.0166C70.611 19.4135 69.3068 17.9123 67.8747 16.5517C61.7546 10.7531 53.6298 7.55917 44.9961 7.55917C34.2713 7.55917 24.2738 12.5893 18.2529 21.0147C14.5928 26.1148 12.6582 32.0825 12.6582 38.2735V43.8197C12.6582 44.3139 12.2366 44.7144 11.7158 44.7144C11.195 44.7144 10.7734 44.3137 10.7734 43.8197V38.2735C10.7734 31.7217 12.8211 25.4056 16.6948 20.0085C23.0653 11.0929 33.6456 5.76953 44.9961 5.76953C54.1323 5.76953 62.7302 9.14903 69.2065 15.2855C70.725 16.7273 72.1055 18.3168 73.3111 20.0112C77.1831 25.404 79.2308 31.72 79.2308 38.2735V43.8651C79.2308 44.3593 78.8092 44.76 78.2884 44.76Z" fill="url(#paint2_linear_3396_8033)"/>
<path d="M83.6625 53.3548C83.6625 58.4999 80.0719 62.8396 75.1241 64.2444C74.2289 64.5039 73.277 64.6561 72.2969 64.7097V42C73.277 42.0536 74.2289 42.2058 75.1241 42.4653C80.0719 43.8699 83.6625 48.1919 83.6625 53.3548Z" fill="url(#paint3_linear_3396_8033)"/>
<path d="M72.2961 42.3785V64.325C72.2961 66.151 70.7432 67.6253 68.8198 67.6253C66.8915 67.6253 65.3438 66.1576 65.3438 64.325V42.3785C65.3438 40.5527 66.8966 39.0781 68.8198 39.0781C70.7158 39.0781 72.2961 40.524 72.2961 42.3785Z" fill="url(#paint4_linear_3396_8033)"/>
<path d="M17.7111 42V64.7098C16.7309 64.6563 15.7886 64.504 14.8838 64.2445C9.92662 62.8488 6.33594 58.518 6.33594 53.355C6.33594 48.2099 9.92662 43.8701 14.8838 42.4655C15.7886 42.2058 16.7309 42.0536 17.7111 42Z" fill="url(#paint5_linear_3396_8033)"/>
<path d="M17.7109 64.3248V42.3785C17.7109 40.5525 19.2638 39.0781 21.1872 39.0781C23.1155 39.0781 24.6633 40.5458 24.6633 42.3785V64.325C24.6633 66.1508 23.1104 67.6253 21.1872 67.6253C19.2914 67.6252 17.7109 66.1793 17.7109 64.3248Z" fill="url(#paint6_linear_3396_8033)"/>
<path d="M52.2511 85.9224C52.2511 88.7282 49.9751 90.9977 47.1745 90.9977C44.3659 90.9977 42.0898 88.7282 42.0898 85.9224C42.0898 83.129 44.3659 80.8594 47.1745 80.8594C49.9751 80.8594 52.2511 83.1292 52.2511 85.9224Z" fill="url(#paint7_linear_3396_8033)"/>
<path d="M60.2079 49.446C58.9356 56.5237 52.5647 61.5078 45.0067 61.5078C44.592 61.5078 44.1772 61.4899 43.772 61.4631C43.348 61.4272 42.9331 61.5615 42.6317 61.8479L39.0222 65.3466C38.1929 66.1519 36.7416 65.6687 36.6189 64.5413L36.0631 59.3248C36.0253 58.9579 35.8181 58.6358 35.5164 58.412C31.53 55.4591 29.0985 50.6899 29.6263 45.4286C30.3048 38.6102 36.0631 33.0357 43.2255 32.2751C53.4602 31.1831 61.9891 39.6211 60.2079 49.446Z" fill="url(#paint8_linear_3396_8033)"/>
<path d="M42.8179 46.7988C42.8179 48.5514 41.3174 49.9761 39.4713 49.9761C37.6255 49.9761 36.125 48.5514 36.125 46.7988C36.125 45.0463 37.6255 43.6328 39.4713 43.6328C41.3174 43.6328 42.8179 45.0463 42.8179 46.7988Z" fill="url(#paint9_linear_3396_8033)"/>
<path d="M53.8804 46.7988C53.8804 48.5514 52.3799 49.9761 50.5338 49.9761C48.6878 49.9761 47.1875 48.5514 47.1875 46.7988C47.1875 45.0463 48.688 43.6328 50.5338 43.6328C52.3797 43.6328 53.8804 45.0463 53.8804 46.7988Z" fill="url(#paint10_linear_3396_8033)"/>
<defs>
<linearGradient id="paint0_linear_3396_8033" x1="45.0011" y1="20.5123" x2="45.0011" y2="6.66406" gradientUnits="userSpaceOnUse">
<stop stop-color="#20C59D"/>
<stop offset="0.3103" stop-color="#38CE8C"/>
<stop offset="0.9631" stop-color="#75E461"/>
<stop offset="1" stop-color="#79E55E"/>
</linearGradient>
<linearGradient id="paint1_linear_3396_8033" x1="64.3474" y1="86.2343" x2="64.3474" y2="62.6913" gradientUnits="userSpaceOnUse">
<stop stop-color="#41262F"/>
<stop offset="1" stop-color="#543843"/>
</linearGradient>
<linearGradient id="paint2_linear_3396_8033" x1="45.0021" y1="44.76" x2="45.0021" y2="5.76953" gradientUnits="userSpaceOnUse">
<stop stop-color="#41262F"/>
<stop offset="1" stop-color="#543843"/>
</linearGradient>
<linearGradient id="paint3_linear_3396_8033" x1="77.9797" y1="64.7097" x2="77.9797" y2="42" gradientUnits="userSpaceOnUse">
<stop stop-color="#F79808"/>
<stop offset="1" stop-color="#ECBD0B"/>
</linearGradient>
<linearGradient id="paint4_linear_3396_8033" x1="68.82" y1="67.6252" x2="68.82" y2="39.0781" gradientUnits="userSpaceOnUse">
<stop offset="0.0168" stop-color="#CCCCCC"/>
<stop offset="1" stop-color="#F2F2F2"/>
</linearGradient>
<linearGradient id="paint5_linear_3396_8033" x1="12.0235" y1="64.7097" x2="12.0235" y2="42" gradientUnits="userSpaceOnUse">
<stop stop-color="#F79808"/>
<stop offset="1" stop-color="#ECBD0B"/>
</linearGradient>
<linearGradient id="paint6_linear_3396_8033" x1="21.187" y1="67.6252" x2="21.187" y2="39.0781" gradientUnits="userSpaceOnUse">
<stop offset="0.0168" stop-color="#CCCCCC"/>
<stop offset="1" stop-color="#F2F2F2"/>
</linearGradient>
<linearGradient id="paint7_linear_3396_8033" x1="47.1705" y1="90.9978" x2="47.1705" y2="80.8594" gradientUnits="userSpaceOnUse">
<stop stop-color="#0969DB"/>
<stop offset="1" stop-color="#4F8AFF"/>
</linearGradient>
<linearGradient id="paint8_linear_3396_8033" x1="44.9995" y1="65.7463" x2="44.9995" y2="32.1795" gradientUnits="userSpaceOnUse">
<stop stop-color="#F9403E"/>
<stop offset="1" stop-color="#F77953"/>
</linearGradient>
<linearGradient id="paint9_linear_3396_8033" x1="39.4715" y1="49.9761" x2="39.4715" y2="43.6328" gradientUnits="userSpaceOnUse">
<stop offset="0.0168" stop-color="#CCCCCC"/>
<stop offset="1" stop-color="#F2F2F2"/>
</linearGradient>
<linearGradient id="paint10_linear_3396_8033" x1="50.534" y1="49.9761" x2="50.534" y2="43.6328" gradientUnits="userSpaceOnUse">
<stop offset="0.0168" stop-color="#CCCCCC"/>
<stop offset="1" stop-color="#F2F2F2"/>
</linearGradient>
</defs>
</svg>
