<?xml version="1.0" encoding="UTF-8"?>
<svg version="1.1" xmlns="http://www.w3.org/2000/svg" width="81" height="80">
<path d="M0 0 C7.59 0 15.18 0 23 0 C23.495 1.485 23.495 1.485 24 3 C24.78375 3.12375 25.5675 3.2475 26.375 3.375 C29 4 29 4 31 6 C30.69842966 8.77444711 30.17130903 11.3718669 29.4375 14.0625 C28.87386263 16.55860834 28.69046517 18.44246848 29 21 C30.95203521 22.81887402 30.95203521 22.81887402 33.5625 24.25 C43.23044982 30.56767018 48.66759451 39.66363214 51.25 50.8125 C52.44606359 57.71949785 53.03958511 64.7657352 50.875 71.5 C46.77135466 76.97152712 41.54853879 78.8636819 35 80 C31.42747135 80.27984261 27.87138817 80.3041986 24.2890625 80.30078125 C23.2808847 80.30506638 22.27270691 80.3093515 21.23397827 80.31376648 C19.11107124 80.31948376 16.98814463 80.32002934 14.86523438 80.31567383 C11.64158232 80.31251624 8.41885125 80.33599821 5.1953125 80.36132812 C3.12239698 80.36360183 1.04947902 80.36430428 -1.0234375 80.36328125 C-1.97479584 80.372491 -2.92615417 80.38170074 -3.90634155 80.39118958 C-11.48682931 80.33955206 -18.49331063 79.19168085 -25 75.125 C-29.39264021 70.45781978 -29.37708203 65.42771871 -29.2421875 59.3125 C-28.30257024 46.46096073 -24.01234893 35.19453 -14.3125 26.4375 C-12.1776102 24.67422512 -10.04365329 23.02968424 -7.75390625 21.47265625 C-5.66144396 20.05473026 -5.66144396 20.05473026 -5.625 17 C-5.7950271 13.82297795 -5.7950271 13.82297795 -8 11 C-8.375 8.5 -8.375 8.5 -8 6 C-6.1875 4.1875 -6.1875 4.1875 -4 3 C-3.01 3 -2.02 3 -1 3 C-0.67 2.01 -0.34 1.02 0 0 Z " fill="#D15900" transform="translate(29,0)"/>
<path d="M0 0 C6.39620616 -0.9949654 10.11799445 1.36848935 15.3515625 4.953125 C24.60319169 12.10335169 29.80944566 21.87581664 31.71875 33.38671875 C33.31764706 48.24313725 33.31764706 48.24313725 29 54 C21.6987204 60.1126992 13.37022806 60.3094442 4.2890625 60.30078125 C3.2808847 60.30506638 2.27270691 60.3093515 1.23397827 60.31376648 C-0.88892876 60.31948376 -3.01185537 60.32002934 -5.13476562 60.31567383 C-8.35841768 60.31251624 -11.58114875 60.33599821 -14.8046875 60.36132812 C-16.87760302 60.36360183 -18.95052098 60.36430428 -21.0234375 60.36328125 C-21.97479584 60.372491 -22.92615417 60.38170074 -23.90634155 60.39118958 C-31.56370969 60.33902836 -38.54548131 59.14180159 -45.125 55.0625 C-47 53 -47 53 -47 49 C-46.28714844 49.20496094 -45.57429688 49.40992188 -44.83984375 49.62109375 C-43.88207031 49.89050781 -42.92429687 50.15992188 -41.9375 50.4375 C-40.99777344 50.70433594 -40.05804688 50.97117188 -39.08984375 51.24609375 C-31.15975467 53.18099538 -23.38788953 53.24838848 -15.25 53.3125 C-14.03828125 53.34150391 -12.8265625 53.37050781 -11.578125 53.40039062 C-2.41207425 53.46459249 5.22058604 52.08670485 13 47.0625 C18.31220899 41.58428448 19.38231431 36.11539182 19.2734375 28.72265625 C18.5176844 21.19751463 15.31392925 15.52040155 9.80859375 10.453125 C7.81413681 8.79796002 7.81413681 8.79796002 4.6875 6.875 C1.70346579 4.79311567 0.95876753 3.4515631 0 0 Z " fill="#C64808" transform="translate(49,20)"/>
<path d="M0 0 C7.59 0 15.18 0 23 0 C23.33 0.99 23.66 1.98 24 3 C24.78375 3.12375 25.5675 3.2475 26.375 3.375 C29 4 29 4 31 6 C30.69645719 8.79259386 30.15571411 11.41174668 29.4375 14.125 C28.84851359 16.32833327 28.84851359 16.32833327 29 20 C26.03 20 23.06 20 20 20 C23.02736973 25.10613191 23.02736973 25.10613191 28 28 C27.67 29.32 27.34 30.64 27 32 C22.59852343 31.49697411 20.24604581 29.97554199 17 27 C16.67 26.34 16.34 25.68 16 25 C15.34 25 14.68 25 14 25 C13.34 26.98 12.68 28.96 12 31 C10.68 30.67 9.36 30.34 8 30 C8.875 22.125 8.875 22.125 10 21 C8.51886719 21.01740234 8.51886719 21.01740234 7.0078125 21.03515625 C5.72648437 21.04417969 4.44515625 21.05320312 3.125 21.0625 C1.84882813 21.07410156 0.57265625 21.08570312 -0.7421875 21.09765625 C-4 21 -4 21 -6 20 C-5.95875 19.071875 -5.9175 18.14375 -5.875 17.1875 C-5.72863661 13.84190281 -5.72863661 13.84190281 -8 11 C-8.375 8.5 -8.375 8.5 -8 6 C-6.1875 4.1875 -6.1875 4.1875 -4 3 C-3.01 3 -2.02 3 -1 3 C-0.67 2.01 -0.34 1.02 0 0 Z " fill="#FB7800" transform="translate(29,0)"/>
<path d="M0 0 C1.5631897 0.00785522 1.5631897 0.00785522 3.15795898 0.01586914 C4.28266602 0.0190918 5.40737305 0.02231445 6.56616211 0.02563477 C7.75016602 0.03401367 8.93416992 0.04239258 10.15405273 0.05102539 C11.34192383 0.05553711 12.52979492 0.06004883 13.75366211 0.06469727 C16.69967499 0.07652864 19.64558954 0.09301252 22.59155273 0.11352539 C22.26155273 1.76352539 21.93155273 3.41352539 21.59155273 5.11352539 C19.94155273 5.11352539 18.29155273 5.11352539 16.59155273 5.11352539 C16.92155273 6.43352539 17.25155273 7.75352539 17.59155273 9.11352539 C19.24155273 9.11352539 20.89155273 9.11352539 22.59155273 9.11352539 C22.26155273 10.76352539 21.93155273 12.41352539 21.59155273 14.11352539 C20.66342773 14.23727539 20.66342773 14.23727539 19.71655273 14.36352539 C17.43004917 14.89388055 17.43004917 14.89388055 16.65405273 16.98852539 C15.21815084 19.86032918 13.41738182 20.70061085 10.59155273 22.11352539 C9.93155273 22.11352539 9.27155273 22.11352539 8.59155273 22.11352539 C9.54868164 23.26981445 9.54868164 23.26981445 10.52514648 24.44946289 C11.35143555 25.45235352 12.17772461 26.45524414 13.02905273 27.48852539 C14.26461914 28.98512695 14.26461914 28.98512695 15.52514648 30.51196289 C17.59155273 33.11352539 17.59155273 33.11352539 18.59155273 35.11352539 C15.10309001 35.70343245 12.06899312 35.83316236 8.59155273 35.11352539 C5.05848873 32.54451391 2.33220182 29.49870341 -0.40844727 26.11352539 C-0.98336914 25.41227539 -1.55829102 24.71102539 -2.15063477 23.98852539 C-3.76293776 21.58509236 -3.64461606 19.94755094 -3.40844727 17.11352539 C-2.77036133 17.05293945 -2.13227539 16.99235352 -1.47485352 16.92993164 C-0.23541992 16.80424805 -0.23541992 16.80424805 1.02905273 16.67602539 C1.85276367 16.59481445 2.67647461 16.51360352 3.52514648 16.42993164 C5.57817299 16.32421725 5.57817299 16.32421725 6.59155273 15.11352539 C2.96155273 14.78352539 -0.66844727 14.45352539 -4.40844727 14.11352539 C-4.07844727 12.46352539 -3.74844727 10.81352539 -3.40844727 9.11352539 C-0.10844727 8.78352539 3.19155273 8.45352539 6.59155273 8.11352539 C3.29155273 7.78352539 -0.00844727 7.45352539 -3.40844727 7.11352539 C-3.45099083 5.11397793 -3.44925509 3.11310903 -3.40844727 1.11352539 C-2.40844727 0.11352539 -2.40844727 0.11352539 0 0 Z " fill="#FED707" transform="translate(31.408447265625,33.886474609375)"/>
<path d="M0 0 C11.55 0 23.1 0 35 0 C35 1.32 35 2.64 35 4 C32.03 4 29.06 4 26 4 C29.02736973 9.10613191 29.02736973 9.10613191 34 12 C33.67 13.32 33.34 14.64 33 16 C28.59852343 15.49697411 26.24604581 13.97554199 23 11 C22.67 10.34 22.34 9.68 22 9 C21.34 9 20.68 9 20 9 C19.34 10.98 18.68 12.96 18 15 C16.68 14.67 15.36 14.34 14 14 C14.875 6.125 14.875 6.125 16 5 C15.01257812 5.01160156 14.02515625 5.02320313 13.0078125 5.03515625 C11.72648437 5.04417969 10.44515625 5.05320312 9.125 5.0625 C7.84882813 5.07410156 6.57265625 5.08570313 5.2578125 5.09765625 C2 5 2 5 0 4 C0 2.68 0 1.36 0 0 Z " fill="#FA8C00" transform="translate(23,16)"/>
<path d="M0 0 C-1.32 0.33 -2.64 0.66 -4 1 C-3.04287109 2.15628906 -3.04287109 2.15628906 -2.06640625 3.3359375 C-1.24011719 4.33882812 -0.41382813 5.34171875 0.4375 6.375 C1.67306641 7.87160156 1.67306641 7.87160156 2.93359375 9.3984375 C5 12 5 12 6 14 C2.51108974 14.58998274 -0.52199787 14.71875495 -4 14 C-8.76481895 10.58222761 -12.62485026 6.39356921 -15 1 C-13.0641649 0.63684334 -11.12624752 0.28477269 -9.1875 -0.0625 C-8.10855469 -0.25972656 -7.02960937 -0.45695312 -5.91796875 -0.66015625 C-3 -1 -3 -1 0 0 Z " fill="#FCB405" transform="translate(44,55)"/>
<path d="M0 0 C1.65 0.33 3.3 0.66 5 1 C5 1.66 5 2.32 5 3 C6.175625 3.185625 6.175625 3.185625 7.375 3.375 C10 4 10 4 12 6 C11.65409139 9.97794897 10.81374398 12.37251204 9 16 C3.39 15.67 -2.22 15.34 -8 15 C-6.68 14.34 -5.36 13.68 -4 13 C-0.05901529 9.8703945 0.88290073 6.84076348 2 2 C1.34 1.34 0.68 0.68 0 0 Z " fill="#EC6700" transform="translate(48,0)"/>
<path d="M0 0 C2 0.91796875 2 0.91796875 3.265625 3.421875 C3.59046875 4.43121094 3.9153125 5.44054687 4.25 6.48046875 C4.58515625 7.49238281 4.9203125 8.50429687 5.265625 9.546875 C5.62914062 10.72056641 5.62914062 10.72056641 6 11.91796875 C1.545 12.41296875 1.545 12.41296875 -3 12.91796875 C-5.34793424 9.49389799 -6.77262438 7.11221536 -6 2.91796875 C-4.01728414 0.79363033 -2.94774626 -0.12090366 0 0 Z " fill="#D65600" transform="translate(27,3.08203125)"/>
<path d="M0 0 C10.89 0 21.78 0 33 0 C32.67 0.99 32.34 1.98 32 3 C21.77 3 11.54 3 1 3 C0.67 2.01 0.34 1.02 0 0 Z " fill="#FFB505" transform="translate(24,16)"/>
<path d="M0 0 C1.32 0.33 2.64 0.66 4 1 C4.33 1.99 4.66 2.98 5 4 C1.99038462 8.51442308 1.99038462 8.51442308 0 10 C-1.65 10 -3.3 10 -5 10 C-3.35 6.7 -1.7 3.4 0 0 Z " fill="#D65600" transform="translate(53,5)"/>
<path d="M0 0 C1.27230469 0.00902344 2.54460938 0.01804687 3.85546875 0.02734375 C5.31919922 0.04474609 5.31919922 0.04474609 6.8125 0.0625 C5.8225 1.5475 5.8225 1.5475 4.8125 3.0625 C2.0239711 3.28357787 -0.53403181 3.34357535 -3.3125 3.25 C-4.06660156 3.23646484 -4.82070313 3.22292969 -5.59765625 3.20898438 C-7.46124127 3.17359985 -9.32445978 3.11979167 -11.1875 3.0625 C-9.07664535 -1.15920929 -4.12352068 -0.03783046 0 0 Z " fill="#CB4F06" transform="translate(33.1875,19.9375)"/>
<path d="M0 0 C0.86625 0.3403125 0.86625 0.3403125 1.75 0.6875 C1.42 1.3475 1.09 2.0075 0.75 2.6875 C-0.57 2.6875 -1.89 2.6875 -3.25 2.6875 C-2.71930939 6.50847239 -1.75298434 8.74921403 0.75 11.6875 C-0.57 12.0175 -1.89 12.3475 -3.25 12.6875 C-5.59793424 9.26342924 -7.02262438 6.88174661 -6.25 2.6875 C-4.11319077 0.39806154 -3.15626895 -0.43837069 0 0 Z " fill="#E76401" transform="translate(27.25,3.3125)"/>
<path d="M0 0 C2.18939607 2.18939607 4.36437967 4.38259866 6.5 6.625 C8.66533738 8.68207051 10.2706719 9.88805152 13 11 C10.875 11.8125 10.875 11.8125 8 12 C4.42859026 9.50001318 1.17743877 6.84253901 -1 3 C-0.67 2.01 -0.34 1.02 0 0 Z " fill="#F98300" transform="translate(44,20)"/>
<path d="M0 0 C3.8263442 1.55888097 6.14637496 4.07127956 9 7 C9.66 7.33 10.32 7.66 11 8 C11 8.66 11 9.32 11 10 C7.44849408 9.69558521 6.02861198 9.02406007 3.25 6.6875 C1.21365935 4.25520422 0.3422216 3.07999437 0 0 Z " fill="#FDA601" transform="translate(46,20)"/>
<path d="M0 0 C0.66 0.66 1.32 1.32 2 2 C1.34 4.31 0.68 6.62 0 9 C-0.66 9 -1.32 9 -2 9 C-2.25 3.375 -2.25 3.375 0 0 Z " fill="#FFAC02" transform="translate(42,21)"/>
</svg>
