<?xml version="1.0" encoding="UTF-8"?>
<svg version="1.1" xmlns="http://www.w3.org/2000/svg" width="81" height="81">
<path d="M0 0 C5.04106885 3.84081436 8.20586224 8.68443335 9.9921875 14.75 C10.87544387 22.79183897 10.67825533 29.53812816 6.9921875 36.75 C7.34800574 38.88866675 7.34800574 38.88866675 7.9921875 40.75 C9.28125 40.90082031 10.5703125 41.05164062 11.8984375 41.20703125 C18.34975277 42.64922379 22.03465937 46.79916154 26.4921875 51.4375 C27.30171875 52.22833984 28.11125 53.01917969 28.9453125 53.83398438 C35.37388926 60.36503006 35.37388926 60.36503006 36.1796875 64.58984375 C35.92481573 68.88549496 34.72890564 70.37118438 31.796875 73.34375 C28.70186204 75.75544841 26.89262196 76.15349322 22.9921875 75.75 C19.89022862 73.85921812 17.53290937 71.32488284 14.9921875 68.75 C13.96057063 67.80471654 12.92516347 66.86355881 11.88671875 65.92578125 C5.91996091 60.42232251 1.55835631 56.24253222 0.9921875 47.75 C-2.16924764 46.72778007 -2.6906699 46.5879049 -5.8203125 48.1875 C-12.48770344 51.27691606 -21.06997189 50.90970437 -27.9921875 48.87109375 C-35.54385764 45.40419064 -39.9963233 40.43951427 -43.3828125 32.9375 C-46.04865442 25.5757608 -45.94534784 18.31787527 -43.17578125 10.984375 C-39.40335855 3.76756636 -33.68470313 -1.54050919 -26.0078125 -4.25 C-16.66620989 -7.00746101 -8.14226965 -5.06911729 0 0 Z " fill="#81B5FB" transform="translate(45.0078125,5.25)"/>
<path d="M0 0 C1.49273438 0.51046875 1.49273438 0.51046875 3.015625 1.03125 C6.6725492 2.69188225 9.19122094 4.10506208 12 7 C13.90409275 12.8271283 13.56806182 20.39249312 11.12695312 26.00854492 C8.34623047 31.06338883 4.55032799 35.09207475 -1 37 C-4.9745149 36.56713204 -7.15388166 35.45155218 -10.125 32.8125 C-10.78757812 32.24144531 -11.45015625 31.67039063 -12.1328125 31.08203125 C-17.35494864 25.2590217 -18.3062113 18.43175341 -17.953125 10.88671875 C-17.42454944 7.38785154 -16.90342517 6.90028785 -14.234375 4.14453125 C-5.06861659 -2.16220747 -5.06861659 -2.16220747 0 0 Z " fill="#5784B9" transform="translate(30,10)"/>
<path d="M0 0 C5.62883178 3.59591431 10.52161855 9.42613605 12.125 16 C12.97026409 22.72249099 11.83973332 28.29783233 8.125 34 C2.80393377 39.9559006 -2.77699758 43.60971405 -10.8125 44.375 C-17.66552854 44.05748516 -23.32959766 41.44417335 -28.33203125 36.78515625 C-33.18798439 31.16700287 -34.57621423 24.94595641 -34.25 17.63671875 C-33.21284861 10.34424805 -29.4425863 6.12139585 -23.97265625 1.4453125 C-16.92795929 -3.40857554 -7.63088368 -3.84130924 0 0 Z M-17.875 4.875 C-19.174375 5.67550781 -19.174375 5.67550781 -20.5 6.4921875 C-22.30619722 7.63888508 -24.09486661 8.81324441 -25.875 10 C-26.18120622 12.67780344 -26.29313514 15.0756212 -26.25 17.75 C-26.26160156 18.45382813 -26.27320313 19.15765625 -26.28515625 19.8828125 C-26.25309666 25.63216567 -24.93509337 29.7028666 -21.0078125 34.08203125 C-20.34523438 34.65308594 -19.68265625 35.22414062 -19 35.8125 C-18.34257812 36.39644531 -17.68515625 36.98039062 -17.0078125 37.58203125 C-14.52893552 39.23007583 -12.84320625 39.80026155 -9.875 40 C-4.8342634 38.02876222 -0.83235022 34.49517234 2.125 30 C4.15162432 23.92012705 5.05503543 16.23643652 3.125 10 C-0.10995075 5.85854502 -5.0456971 3.77415237 -9.875 2 C-13.49259584 2 -14.83198951 2.98217502 -17.875 4.875 Z " fill="#DDF1FC" transform="translate(38.875,7)"/>
<path d="M0 0 C0.99 0.66 1.98 1.32 3 2 C4.35884865 2.23077711 5.72487077 2.42110462 7.09375 2.58203125 C13.4699218 3.91126156 17.11762459 8.12736267 21.5 12.6875 C22.71429688 13.87375977 22.71429688 13.87375977 23.953125 15.08398438 C30.38170176 21.61503006 30.38170176 21.61503006 31.1875 25.83984375 C30.93262823 30.13549496 29.73671814 31.62118438 26.8046875 34.59375 C23.70967454 37.00544841 21.90043446 37.40349322 18 37 C14.89804112 35.10921812 12.54072187 32.57488284 10 30 C8.96838313 29.05471654 7.93297597 28.11355881 6.89453125 27.17578125 C0.84152412 21.59381471 -3.18844376 17.52134051 -4 9 C-4.66 8.01 -5.32 7.02 -6 6 C-4.02 4.02 -2.04 2.04 0 0 Z " fill="#7DB2FB" transform="translate(50,44)"/>
<path d="M0 0 C1.49273438 0.51046875 1.49273438 0.51046875 3.015625 1.03125 C6.6725492 2.69188225 9.19122094 4.10506208 12 7 C13.90409275 12.8271283 13.56806182 20.39249312 11.12695312 26.00854492 C8.34623047 31.06338883 4.55032799 35.09207475 -1 37 C-4.9745149 36.56713204 -7.15388166 35.45155218 -10.125 32.8125 C-10.78757812 32.24144531 -11.45015625 31.67039063 -12.1328125 31.08203125 C-17.35494864 25.2590217 -18.3062113 18.43175341 -17.953125 10.88671875 C-17.42454944 7.38785154 -16.90342517 6.90028785 -14.234375 4.14453125 C-5.06861659 -2.16220747 -5.06861659 -2.16220747 0 0 Z M-11.08984375 7.88671875 C-14.20773852 11.3361688 -13.8162992 14.63154225 -13.609375 19.09765625 C-12.33651034 25.16008215 -8.95946557 28.62756342 -4 32 C0.36943134 32.1065715 2.90785505 29.92500198 6 27 C9.22350508 21.91326326 9.19679449 15.74888782 8 10 C5.42714492 7.0528156 2.64582757 5.37899178 -1 4 C-5.21866402 4 -7.64834532 5.54202307 -11.08984375 7.88671875 Z " fill="#376390" transform="translate(30,10)"/>
<path d="M0 0 C2 2 2 2 2.0625 5.25 C0.83657211 9.5768043 -0.53950755 11.25917982 -4.01171875 13.9765625 C-7.18647961 15.61072231 -9.68023442 14.94850445 -13 14 C-10.31735452 8.63470904 -5.44370213 2.72185107 0 0 Z " fill="#7EB2FA" transform="translate(79,66)"/>
<path d="M0 0 C0.99 0.66 1.98 1.32 3 2 C2.59316505 4.35964273 2.10185661 5.85934088 0.6875 7.8125 C-1 9 -1 9 -3.1875 8.6875 C-3.785625 8.460625 -4.38375 8.23375 -5 8 C-5 5 -5 5 -2.5 2.3125 C-1.675 1.549375 -0.85 0.78625 0 0 Z " fill="#63A3F9" transform="translate(50,44)"/>
<path d="M0 0 C0.66 0.33 1.32 0.66 2 1 C2 1.66 2 2.32 2 3 C0.390625 4.55078125 0.390625 4.55078125 -1.75 6.3125 C-4.90170177 8.98362313 -7.55769329 11.64182828 -10 15 C-10.99 14.67 -11.98 14.34 -13 14 C-8.88380164 9.08064098 -4.59589638 4.47352044 0 0 Z " fill="#62A2F9" transform="translate(77,64)"/>
<path d="M0 0 C0.66 0.33 1.32 0.66 2 1 C2 1.66 2 2.32 2 3 C0.390625 4.55078125 0.390625 4.55078125 -1.75 6.3125 C-4.90170177 8.98362313 -7.55769329 11.64182828 -10 15 C-10.99 14.67 -11.98 14.34 -13 14 C-8.88380164 9.08064098 -4.59589638 4.47352044 0 0 Z " fill="#61A1F9" transform="translate(73,60)"/>
<path d="M0 0 C0.99 0.33 1.98 0.66 3 1 C1.88020758 2.11979242 0.75972433 3.23889873 -0.36328125 4.35546875 C-1.59997791 5.5980685 -2.82446294 6.85283833 -4.04296875 8.11328125 C-5.10451172 9.20189453 -5.10451172 9.20189453 -6.1875 10.3125 C-6.86167969 11.00988281 -7.53585938 11.70726563 -8.23046875 12.42578125 C-10 14 -10 14 -12 14 C-10.41332422 10.09714233 -7.86649519 7.66479018 -4.875 4.75 C-3.96492188 3.85796875 -3.05484375 2.9659375 -2.1171875 2.046875 C-1.41851562 1.37140625 -0.71984375 0.6959375 0 0 Z " fill="#61A1F9" transform="translate(65,53)"/>
<path d="M0 0 C-1.58667578 3.90285767 -4.13350481 6.33520982 -7.125 9.25 C-8.03507812 10.14203125 -8.94515625 11.0340625 -9.8828125 11.953125 C-10.58148438 12.62859375 -11.28015625 13.3040625 -12 14 C-12.99 13.67 -13.98 13.34 -15 13 C-13.88020758 11.88020758 -12.75972433 10.76110127 -11.63671875 9.64453125 C-10.40002209 8.4019315 -9.17553706 7.14716167 -7.95703125 5.88671875 C-6.89548828 4.79810547 -6.89548828 4.79810547 -5.8125 3.6875 C-5.13832031 2.99011719 -4.46414062 2.29273438 -3.76953125 1.57421875 C-2 0 -2 0 0 0 Z " fill="#61A1F9" transform="translate(63,49)"/>
<path d="M0 0 C-1.1487362 3.44620861 -2.07581642 4.09169196 -4.9375 6.1875 C-5.64777344 6.71730469 -6.35804687 7.24710938 -7.08984375 7.79296875 C-9 9 -9 9 -11 9 C-11.33 7.02 -11.66 5.04 -12 3 C-11.34 3 -10.68 3 -10 3 C-10 3.66 -10 4.32 -10 5 C-1.59090909 0 -1.59090909 0 0 0 Z " fill="#E6EFF6" transform="translate(34,24)"/>
</svg>
