<svg width="64" height="64" viewBox="0 0 64 64" fill="none" xmlns="http://www.w3.org/2000/svg">
<path d="M52 0C58.6274 0 64 5.37258 64 12V52C64 58.6274 58.6274 64 52 64H12C5.37258 64 0 58.6274 0 52V12C0 5.37258 5.37258 0 12 0H52Z" fill="#F3E8FF"/>
<path d="M52 0C58.6274 0 64 5.37258 64 12V52C64 58.6274 58.6274 64 52 64H12C5.37258 64 0 58.6274 0 52V12C0 5.37258 5.37258 0 12 0H52Z" stroke="#E5E7EB"/>
<g clip-path="url(#clip0_2023_7120)">
<path fill-rule="evenodd" clip-rule="evenodd" d="M32.0003 18C37.2433 18 41.6124 22.3691 41.6124 27.6122C41.6124 29.3234 41.0242 31.011 40.2022 32.54C39.377 34.0749 38.2846 35.5081 37.1993 36.7282C36.112 37.9508 35.0133 38.9801 34.1573 39.7073C33.7298 40.0705 33.3555 40.3645 33.067 40.5727C32.9245 40.6755 32.791 40.7659 32.6758 40.8351C32.6197 40.8687 32.5513 40.9075 32.4787 40.9411C32.4425 40.9577 32.3905 40.9801 32.3284 40.9999C32.2795 41.0155 32.1574 41.0521 32.0003 41.0521C31.8417 41.0521 31.7187 41.0149 31.6697 40.9991C31.6073 40.9789 31.555 40.9563 31.5188 40.9395C31.446 40.9055 31.3776 40.8665 31.3215 40.8325C31.2063 40.7627 31.0728 40.6715 30.9304 40.5679C30.6421 40.3583 30.268 40.0623 29.8407 39.6967C28.9851 38.9651 27.8869 37.9305 26.8001 36.7046C25.7155 35.4813 24.6236 34.0468 23.7987 32.5154C22.9772 30.9906 22.3881 29.31 22.3881 27.6122C22.3881 22.3691 26.7572 18 32.0003 18ZM32.0003 30.4829C30.4148 30.4829 29.1295 29.1977 29.1295 27.6122C29.1295 26.0267 30.4148 24.7415 32.0003 24.7415C33.5857 24.7415 34.871 26.0267 34.871 27.6122C34.871 29.1977 33.5857 30.4829 32.0003 30.4829ZM38.1986 38.3143C38.5676 37.8994 38.9368 37.4648 39.2992 37.0133H40.1426H41.9854C42.3854 37.0133 42.747 37.2517 42.9046 37.6194L45.9 44.6091C46.0324 44.9181 46.0008 45.2729 45.8158 45.5535C45.6308 45.8341 45.317 46.0029 44.981 46.0029H19.0195C18.6834 46.0029 18.3697 45.8341 18.1847 45.5535C17.9996 45.2729 17.968 44.9181 18.1004 44.6091L21.0959 37.6194C21.2535 37.2517 21.615 37.0133 22.0151 37.0133H23.8577H24.7257C25.0799 37.4543 25.4404 37.8793 25.8006 38.2855C27.1236 39.7779 28.4607 41.0377 29.5017 41.9277C30.0217 42.3725 30.475 42.7311 30.8222 42.9835C30.994 43.1085 31.1518 43.2161 31.2853 43.2969C31.3505 43.3365 31.4266 43.3797 31.5054 43.4165C31.5447 43.4349 31.5996 43.4585 31.6642 43.4793C31.7154 43.4959 31.8403 43.5335 32.0001 43.5335C32.1587 43.5335 32.2826 43.4965 32.3336 43.4803C32.3979 43.4597 32.4526 43.4363 32.4918 43.4181C32.5705 43.3817 32.6465 43.3389 32.7118 43.2997C32.8453 43.2195 33.0031 43.1127 33.175 42.9887C33.5224 42.7381 33.9759 42.3821 34.4961 41.9401C35.5375 41.0555 36.8751 39.8023 38.1986 38.3143Z" fill="#9E4FF3"/>
</g>
<defs>
<clipPath id="clip0_2023_7120">
<rect width="28" height="28" fill="white" transform="translate(18 18)"/>
</clipPath>
</defs>
</svg>
