<svg width="64" height="64" viewBox="0 0 64 64" fill="none" xmlns="http://www.w3.org/2000/svg">
<path d="M52 0C58.6274 0 64 5.37258 64 12V52C64 58.6274 58.6274 64 52 64H12C5.37258 64 0 58.6274 0 52V12C0 5.37258 5.37258 0 12 0H52Z" fill="#FFEDD5"/>
<path d="M52 0C58.6274 0 64 5.37258 64 12V52C64 58.6274 58.6274 64 52 64H12C5.37258 64 0 58.6274 0 52V12C0 5.37258 5.37258 0 12 0H52Z" stroke="#E5E7EB"/>
<g clip-path="url(#clip0_2023_7138)">
<path fill-rule="evenodd" clip-rule="evenodd" d="M33.3976 22.4574C33.1439 22.3475 32.8561 22.3475 32.6024 22.4574L19.6024 28.09C19.2367 28.2485 19 28.609 19 29.0076C19 29.4062 19.2367 29.7667 19.6024 29.9252L21.3876 30.6986V41.8807C20.519 42.2661 19.9131 43.1361 19.9131 44.1477C19.9131 45.5167 21.0229 46.6265 22.3919 46.6265C23.7609 46.6265 24.8707 45.5167 24.8707 44.1477C24.8707 43.1351 24.2636 42.2643 23.3936 41.8795V31.5678L32.6024 35.5577C32.8561 35.6676 33.1439 35.6676 33.3976 35.5577L46.3976 29.9252C46.7632 29.7667 47 29.4062 47 29.0076C47 28.609 46.7632 28.2485 46.3976 28.09L33.3976 22.4574ZM24.9114 39.7076L24.9014 34.946L31.6076 37.8517C32.4954 38.2363 33.5028 38.2363 34.3905 37.8517L41.098 34.9455L41.099 39.7053C41.099 39.9238 41.0274 40.1364 40.8952 40.3104L40.099 39.7055C40.8952 40.3104 40.8956 40.31 40.8952 40.3104L40.8938 40.3123L40.8922 40.3144L40.8884 40.3194L40.8782 40.3324L40.8476 40.3704C40.8228 40.4008 40.789 40.4411 40.7458 40.4898C40.6596 40.5874 40.5362 40.7191 40.3744 40.8733C40.0508 41.1815 39.5714 41.5815 38.9254 41.9779C37.627 42.7747 35.673 43.5459 32.9995 43.5459C30.3258 43.5459 28.3744 42.7747 27.0783 41.9773C26.4335 41.5807 25.9554 41.1805 25.6328 40.872C25.4714 40.7176 25.3484 40.5858 25.2625 40.4881C25.2195 40.4393 25.1858 40.3989 25.161 40.3685L25.1306 40.3305L25.1204 40.3174L25.1166 40.3124L25.115 40.3102C25.1146 40.3098 25.1135 40.3084 25.9113 39.7056L25.1135 40.3084C24.9828 40.1353 24.9118 39.9245 24.9114 39.7076Z" fill="#FF7F22"/>
</g>
<defs>
<clipPath id="clip0_2023_7138">
<rect width="32" height="32" fill="white" transform="translate(16 16)"/>
</clipPath>
</defs>
</svg>
