<svg width="64" height="64" viewBox="0 0 64 64" fill="none" xmlns="http://www.w3.org/2000/svg">
<path d="M52 0C58.6274 0 64 5.37258 64 12V52C64 58.6274 58.6274 64 52 64H12C5.37258 64 0 58.6274 0 52V12C0 5.37258 5.37258 0 12 0H52Z" fill="#DBEAFE"/>
<path d="M52 0C58.6274 0 64 5.37258 64 12V52C64 58.6274 58.6274 64 52 64H12C5.37258 64 0 58.6274 0 52V12C0 5.37258 5.37258 0 12 0H52Z" stroke="#E5E7EB"/>
<g clip-path="url(#clip0_2023_7129)">
<path fill-rule="evenodd" clip-rule="evenodd" d="M18.2461 29.1658V32.5713C18.2461 34.5084 21.3469 36.1353 25.501 36.4966V31.4287C25.501 31.3478 25.5032 31.2678 25.5075 31.1887C23.1987 31.024 21.1016 30.5341 19.4556 29.7997C19.0287 29.6092 18.6227 29.3981 18.2461 29.1658ZM36.2461 22V24.9411C33.7746 25.0224 31.4531 25.5018 29.6217 26.3158C28.6164 26.7625 27.6481 27.3593 26.8973 28.1483C26.726 28.3282 26.5613 28.5238 26.4088 28.7345C24.0353 28.6451 21.9626 28.1807 20.4742 27.5166C19.6421 27.1454 19.0472 26.7362 18.6771 26.3457C18.4201 26.0744 18.2965 25.8417 18.2461 25.6498V22C18.2461 19.7909 22.2755 18 27.2461 18C32.2167 18 36.2461 19.7909 36.2461 22ZM27.2458 23.8626C30.7166 23.8626 33.5302 23.0535 33.5302 22.0553C33.5302 21.0572 30.7166 20.248 27.2458 20.248C23.7751 20.248 20.9614 21.0572 20.9614 22.0553C20.9614 23.0535 23.7751 23.8626 27.2458 23.8626ZM28.001 42V38.5944C28.3776 38.8268 28.7836 39.038 29.2105 39.2284C31.2614 40.1434 34.0124 40.6788 37.0008 40.6788C39.9892 40.6788 42.7402 40.1434 44.7912 39.2284C45.2182 39.0378 45.6244 38.8266 46.001 38.5942V42C46.001 44.2 42.001 46 37.001 46C32.001 46 28.001 44.2 28.001 42ZM28.432 35.7744C28.175 35.5031 28.0514 35.2704 28.001 35.0785V31.4287C28.001 29.2196 32.0304 27.4287 37.001 27.4287C41.9716 27.4287 46.001 29.2196 46.001 31.4287V35.0771C45.9508 35.2693 45.8272 35.5025 45.5696 35.7744C45.1994 36.1649 44.6046 36.5741 43.7726 36.9453C42.1116 37.6864 39.723 38.1788 37.0008 38.1788C34.2785 38.1788 31.89 37.6864 30.2291 36.9453C29.397 36.5741 28.8021 36.1649 28.432 35.7744ZM43.2852 31.484C43.2852 32.4822 40.4716 33.2913 37.0007 33.2913C33.5299 33.2913 30.7163 32.4822 30.7163 31.484C30.7163 30.4859 33.5299 29.6768 37.0007 29.6768C40.4716 29.6768 43.2852 30.4859 43.2852 31.484Z" fill="#3786FF"/>
</g>
<defs>
<clipPath id="clip0_2023_7129">
<rect width="28" height="28" fill="white" transform="translate(18 18)"/>
</clipPath>
</defs>
</svg>
