<svg width="100" height="100" viewBox="0 0 100 100" fill="none" xmlns="http://www.w3.org/2000/svg">
<ellipse cx="49.9807" cy="49.7025" rx="49.9807" ry="49.7025" fill="#FFEDD5"/>
<path fill-rule="evenodd" clip-rule="evenodd" d="M31.8803 31.2553C32.684 30.4515 33.7741 30 34.9107 30H50.8701C52.0067 30 53.0968 30.4515 53.9006 31.2553L63.6554 41.0101C64.4591 41.8139 64.9109 42.904 64.9109 44.0406V65.7143C64.9109 66.8509 64.4591 67.9411 63.6554 68.7449C62.8517 69.5486 61.7617 70 60.6251 70H34.9107C33.7741 70 32.684 69.5486 31.8803 68.7449C31.0765 67.9411 30.625 66.8509 30.625 65.7143V34.2857C30.625 33.1491 31.0765 32.059 31.8803 31.2553ZM45.2295 42.9382C46.1925 43.6261 46.4155 44.9644 45.7277 45.9274L41.7377 51.5134C41.3716 52.0259 40.7985 52.3515 40.1707 52.4034C39.543 52.4554 38.9242 52.2285 38.4787 51.7831L36.0848 49.3891C35.2479 48.5523 35.2479 47.1955 36.0848 46.3587C36.9216 45.5218 38.2784 45.5218 39.1152 46.3587L39.7205 46.9639L42.2402 43.4364C42.9281 42.4734 44.2664 42.2503 45.2295 42.9382ZM47.9429 48.2143C47.9429 47.0308 48.9023 46.0714 50.0857 46.0714H57.2286C58.412 46.0714 59.3714 47.0308 59.3714 48.2143C59.3714 49.3977 58.412 50.3571 57.2286 50.3571H50.0857C48.9023 50.3571 47.9429 49.3977 47.9429 48.2143ZM47.9429 59.5537C47.9429 58.3701 48.9023 57.4107 50.0857 57.4107H57.2286C58.412 57.4107 59.3714 58.3701 59.3714 59.5537C59.3714 60.7371 58.412 61.6966 57.2286 61.6966H50.0857C48.9023 61.6966 47.9429 60.7371 47.9429 59.5537ZM45.7277 57.4453C46.4155 56.4823 46.1925 55.1439 45.2295 54.4561C44.2664 53.7682 42.9281 53.9912 42.2402 54.9543L39.7205 58.4818L39.1152 57.8765C38.2784 57.0397 36.9216 57.0397 36.0848 57.8765C35.2479 58.7134 35.2479 60.07 36.0848 60.9069L38.4787 63.3009C38.9242 63.7463 39.543 63.9731 40.1707 63.9211C40.7985 63.8694 41.3716 63.5437 41.7377 63.0311L45.7277 57.4453Z" fill="#FF7F22"/>
</svg>
