<svg width="100" height="100" viewBox="0 0 100 100" fill="none" xmlns="http://www.w3.org/2000/svg">
<circle cx="49.9807" cy="49.9807" r="49.9807" fill="#DBEAFE"/>
<path fill-rule="evenodd" clip-rule="evenodd" d="M50.5679 32.4342C50.2056 32.2772 49.7944 32.2772 49.4321 32.4342L30.8606 40.4807C30.3381 40.7071 30 41.2221 30 41.7915C30 42.3609 30.3381 42.8759 30.8606 43.1023L33.4109 44.2073V60.1817C32.1699 60.7323 31.3044 61.9752 31.3044 63.4203C31.3044 65.376 32.8898 66.9615 34.8455 66.9615C36.8013 66.9615 38.3867 65.376 38.3867 63.4203C38.3867 61.9737 37.5195 60.7297 36.2766 60.18V45.4489L49.4321 51.1489C49.7944 51.3059 50.2056 51.3059 50.5679 51.1489L69.1394 43.1023C69.6617 42.8759 70 42.3609 70 41.7915C70 41.2221 69.6617 40.7071 69.1394 40.4807L50.5679 32.4342ZM38.4448 57.0773L38.4305 50.275L48.0109 54.4259C49.2791 54.9754 50.7183 54.9754 51.9865 54.4259L61.5686 50.2743L61.57 57.0739C61.57 57.3862 61.4677 57.6898 61.2789 57.9384L60.1414 57.0743C61.2789 57.9384 61.2794 57.9378 61.2789 57.9384L61.2769 57.9411L61.2746 57.9441L61.2691 57.9512L61.2546 57.9699L61.2109 58.0241C61.1754 58.0675 61.1271 58.1251 61.0654 58.1947C60.9423 58.3341 60.766 58.5222 60.5349 58.7426C60.0726 59.1829 59.3877 59.7543 58.4649 60.3206C56.6099 61.4589 53.8185 62.5606 49.9992 62.5606C46.1798 62.5606 43.3919 61.4589 41.5404 60.3197C40.6192 59.7532 39.9363 59.1815 39.4754 58.7407C39.2448 58.5201 39.0692 58.3318 38.9465 58.1923C38.8851 58.1225 38.8368 58.0649 38.8014 58.0214L38.758 57.9671L38.7435 57.9484L38.7379 57.9412L38.7357 57.9382C38.7352 57.9375 38.7336 57.9355 39.8733 57.0743L38.7336 57.9355C38.5469 57.6883 38.4455 57.3871 38.4448 57.0773Z" fill="#0CA9FE"/>
</svg>
