<svg width="100" height="100" viewBox="0 0 100 100" fill="none" xmlns="http://www.w3.org/2000/svg">
<circle cx="49.9807" cy="49.9807" r="49.9807" fill="#FFF7DA"/>
<g clip-path="url(#clip0_2421_15972)">
<path fill-rule="evenodd" clip-rule="evenodd" d="M68.4638 58.0417C68.4638 66.5352 60.7704 70.3512 49.9995 70.3512C39.2286 70.3512 31.5352 66.5352 31.5352 58.1032C31.5352 48.8711 36.1512 44.1931 45.3834 39.5155L42.114 33.4293C41.919 33.1243 41.8105 32.7721 41.7999 32.4102C41.7893 32.0483 41.8772 31.6904 42.0541 31.3745C42.231 31.0586 42.4903 30.7967 42.8043 30.6166C43.1184 30.4365 43.4754 30.345 43.8374 30.3519H56.8855C57.2248 30.3606 57.5564 30.4554 57.8489 30.6275C58.1415 30.7996 58.3855 31.0434 58.5579 31.3358C58.7301 31.6282 58.8252 31.9597 58.8344 32.299C58.8432 32.6384 58.7655 32.9744 58.6089 33.2754L54.6155 39.5155C63.8478 44.1316 68.4638 48.8095 68.4638 58.0417ZM51.7851 44.3154C51.7851 43.3291 50.9857 42.5296 49.9994 42.5296C49.0132 42.5296 48.2137 43.3291 48.2137 44.3154V46.1055C45.5651 46.2165 43.4519 48.3988 43.4519 51.0747C43.4519 53.4121 45.0794 55.434 47.3627 55.9335L51.5716 56.8542C52.3907 57.0334 52.9757 57.7599 52.9757 58.5997C52.9757 59.5866 52.1753 60.3866 51.19 60.3866H48.8091C48.0343 60.3866 47.3705 59.8924 47.1245 59.1964C46.7959 58.2665 45.7756 57.7792 44.8458 58.1078C43.9159 58.4365 43.4286 59.4566 43.7572 60.3866C44.4285 62.2858 46.1414 63.6964 48.2137 63.9255V65.7438C48.2137 66.7301 49.0132 67.5295 49.9994 67.5295C50.9857 67.5295 51.7851 66.7301 51.7851 65.7438V63.9255C54.4644 63.6292 56.5471 61.3564 56.5471 58.5997C56.5471 56.0828 54.7948 53.9034 52.3348 53.3653L48.1259 52.4446C47.4822 52.3038 47.0233 51.7337 47.0233 51.0747C47.0233 50.3003 47.6511 49.6725 48.4256 49.6725H51.19C51.7187 49.6725 52.1919 49.9 52.5214 50.2682C52.6762 50.4412 52.7968 50.6429 52.8745 50.8628C53.2032 51.7927 54.2234 52.28 55.1533 51.9514C56.0831 51.6227 56.5705 50.6025 56.2418 49.6726C56.006 49.0054 55.6427 48.4004 55.1826 47.8863C54.3283 46.9318 53.1314 46.283 51.7851 46.1338V44.3154Z" fill="#FFC000"/>
</g>
<defs>
<clipPath id="clip0_2421_15972">
<rect width="40" height="40" fill="white" transform="translate(30 30.3516)"/>
</clipPath>
</defs>
</svg>
