<svg width="100" height="100" viewBox="0 0 100 100" fill="none" xmlns="http://www.w3.org/2000/svg">
<circle cx="49.9807" cy="49.9807" r="49.9807" fill="#DCFCE7"/>
<g clip-path="url(#clip0_2421_15942)">
<path fill-rule="evenodd" clip-rule="evenodd" d="M34.2935 50.0013C34.2935 41.3262 41.3262 34.2935 50.0013 34.2935C52.2402 34.2935 54.3698 34.762 56.2972 35.6061V36.396C56.2972 37.669 55.7915 38.8899 54.8914 39.79C53.9912 40.6902 52.7704 41.1959 51.4974 41.1959C50.8534 41.1955 50.2161 41.3247 49.6231 41.5758C49.0302 41.8269 48.4938 42.1947 48.046 42.6573C47.5982 43.12 47.248 43.668 47.0163 44.2688C46.7846 44.8696 46.6762 45.5108 46.6975 46.1544V50.1212C46.6975 50.7515 46.5734 51.3757 46.3322 51.958C46.0909 52.5404 45.7374 53.0695 45.2917 53.5152C44.846 53.9609 44.3168 54.3145 43.7345 54.5557C43.1522 54.7969 42.528 54.921 41.8977 54.921H37.0582H35.0794C34.5694 53.3735 34.2935 51.7196 34.2935 50.0013ZM57.7558 63.6648C61.1365 61.7419 63.7336 58.6008 64.9502 54.8388L64.5616 54.5539C63.3091 53.9066 61.9231 53.5601 60.5131 53.5418H55.1636C54.0676 53.6414 53.0484 54.1471 52.3062 54.9597C51.564 55.7723 51.1526 56.8331 51.1526 57.9336C51.1526 59.0342 51.564 60.0948 52.3062 60.9074C53.0484 61.7202 54.0676 62.2259 55.1636 62.3254C55.5748 62.3205 55.9829 62.3974 56.3643 62.5516C56.7456 62.7056 57.0926 62.9339 57.3851 63.2231C57.5224 63.3588 57.6465 63.5068 57.7558 63.6648ZM50.0013 30.0078C38.9592 30.0078 30.0078 38.9592 30.0078 50.0013C30.0078 61.0434 38.9592 69.9948 50.0013 69.9948C61.0434 69.9948 69.9948 61.0434 69.9948 50.0013C69.9948 38.9592 61.0434 30.0078 50.0013 30.0078Z" fill="#1CA238"/>
</g>
<defs>
<clipPath id="clip0_2421_15942">
<rect width="40" height="40" fill="white" transform="translate(30 30)"/>
</clipPath>
</defs>
</svg>
