<svg width="100" height="100" viewBox="0 0 100 100" fill="none" xmlns="http://www.w3.org/2000/svg">
<path d="M99.9614 49.9807C99.9614 77.5843 77.5843 99.9614 49.9807 99.9614C22.3771 99.9614 0 77.5843 0 49.9807C0 22.3771 22.3771 0 49.9807 0C77.5843 0 99.9614 22.3771 99.9614 49.9807Z" fill="#F3E8FF"/>
<g clip-path="url(#clip0_2421_15922)">
<path fill-rule="evenodd" clip-rule="evenodd" d="M49.9616 34.2872C48.7665 34.2657 47.5789 34.4803 46.4668 34.9187C45.3548 35.357 44.3402 36.0105 43.4811 36.8416C42.6221 37.6728 41.9355 38.6652 41.4606 39.7622C40.9878 40.8545 40.7343 42.0289 40.7143 43.2189V44.2857V50.7161V55.7143C40.7143 57.2922 39.4351 58.5714 37.8571 58.5714H34.2857C31.9188 58.5714 30 56.6527 30 54.2857V48.5714C30 46.2045 31.9188 44.2857 34.2857 44.2857H36.4286V43.2018V43.1694C36.4551 41.4105 36.8288 39.6741 37.5276 38.0597C38.2264 36.4453 39.2369 34.9847 40.5011 33.7615C41.7654 32.5383 43.2586 31.5767 44.8952 30.9316C46.5199 30.2911 48.2541 29.9752 50 30.0015C51.7459 29.9752 53.4801 30.2911 55.1048 30.9316C56.7414 31.5767 58.2346 32.5383 59.4989 33.7615C60.7631 34.9847 61.7737 36.4453 62.4723 38.0597C63.1711 39.6741 63.5446 41.4105 63.5711 43.1694L63.5717 43.2018L63.5714 44.2857H65.7143C68.0811 44.2857 70 46.2045 70 48.5714V54.2857C70 56.6527 68.0811 58.5714 65.7143 58.5714H63.5714V60C63.5714 62.0837 62.7437 64.0823 61.27 65.5557C60.0063 66.8194 58.3565 67.6083 56.5979 67.8074C55.8642 69.1157 54.4639 70 52.8571 70H48.5714C46.2045 70 44.2857 68.0811 44.2857 65.7143C44.2857 63.3474 46.2045 61.4286 48.5714 61.4286H52.8571C54.4056 61.4286 55.7623 62.2497 56.5154 63.4806C57.1632 63.3314 57.7621 63.0029 58.2397 62.5254C58.9094 61.8557 59.2857 60.9471 59.2857 60V43.2189C59.2657 42.0289 59.0123 40.8545 58.5394 39.7622C58.0645 38.6652 57.3779 37.6728 56.5189 36.8416C55.6598 36.0105 54.6452 35.357 53.5332 34.9187C52.4211 34.4803 51.2335 34.2657 50.0384 34.2872C50.0128 34.2876 49.9872 34.2876 49.9616 34.2872Z" fill="#8D3CE4"/>
</g>
<defs>
<clipPath id="clip0_2421_15922">
<rect width="40" height="40" fill="white" transform="translate(30 30)"/>
</clipPath>
</defs>
</svg>
