<svg width="100" height="100" viewBox="0 0 100 100" fill="none" xmlns="http://www.w3.org/2000/svg">
<circle cx="49.9807" cy="49.9807" r="49.9807" fill="#FFDEEB"/>
<path fill-rule="evenodd" clip-rule="evenodd" d="M36.6607 30.3516C34.2938 30.3516 32.375 32.2703 32.375 34.6373V66.0658C32.375 68.4327 34.2938 70.3516 36.6607 70.3516H62.375C64.7419 70.3516 66.6607 68.4327 66.6607 66.0658V34.6373C66.6607 32.2703 64.7419 30.3516 62.375 30.3516H36.6607ZM50.9464 57.1047C55.1681 56.4825 58.5059 53.1447 59.1281 48.923H50.9464V57.1047ZM48.0893 57.1048C43.8675 56.4826 40.5296 53.1447 39.9075 48.923H48.0893V57.1048ZM50.9464 46.0658H59.1281C58.5059 41.8442 55.1681 38.5063 50.9464 37.8841V46.0658ZM48.0893 37.8841V46.0658H39.9075C40.5296 41.8441 43.8675 38.5062 48.0893 37.8841Z" fill="#FF3185"/>
</svg>
