<svg width="174" height="60" viewBox="0 0 174 60" fill="none" xmlns="http://www.w3.org/2000/svg">
<g clip-path="url(#clip0_6930_6114)">
<path d="M79.3653 37.9312L77.945 34.6211H70.1333L68.713 37.9312H65.541L72.5478 22.1736H75.7198L82.632 37.9312H79.3653ZM71.2222 32.0104H76.8561L74.0628 25.3903L71.2222 32.0104ZM85.7566 22.1736H89.26L94.5625 32.3368L99.8176 22.1736H103.321V37.9312H100.528V26.6491L95.5567 36.2995H93.6156L88.5972 26.6491V37.9312H85.804V22.1736H85.7566ZM119.56 23.6188C120.649 24.5512 121.217 25.9032 121.217 27.6281C121.217 29.3531 120.649 30.8449 119.56 31.8239C118.471 32.803 116.909 33.3158 114.873 33.3158H111.369V37.9312H108.292V22.1736H114.825C116.814 22.1736 118.376 22.6398 119.512 23.5722L119.56 23.6188ZM117.382 29.9125C117.997 29.3997 118.329 28.7004 118.329 27.7213C118.329 26.7423 117.997 26.043 117.382 25.5768C116.767 25.1106 115.867 24.8776 114.731 24.8776H111.417V30.7051H114.731C115.867 30.7051 116.767 30.4719 117.382 29.9591V29.9125ZM124.91 22.1736H127.987V35.1806H134.899V37.8845H124.957V22.127L124.91 22.1736ZM138.402 22.1736H141.48V37.9312H138.402V22.1736ZM146.546 22.1736H157.577V24.7843H149.623V29.0267H156.866V31.6375H149.623V37.8845H146.546V22.127V22.1736ZM173.815 22.1736L167.992 32.7563V37.8845H164.915V32.8496L158.95 22.127H162.074L166.43 29.5396L170.738 22.127H173.815V22.1736Z" fill="#27358F"/>
<path d="M-0.1875 60.0723C-0.1875 60.0723 53.4999 14.2448 62.5425 0.0722656C62.5425 0.0722656 38.5394 40.6783 84.0364 51.9604C84.0364 51.9604 53.5472 50.1888 46.067 32.007C46.067 32.007 35.1307 33.359 -0.1875 60.0723Z" fill="#4C6FB5"/>
</g>
<defs>
<clipPath id="clip0_6930_6114">
<rect width="174" height="60" fill="white"/>
</clipPath>
</defs>
</svg>
