<?xml version="1.0" encoding="UTF-8"?>
<svg version="1.1" xmlns="http://www.w3.org/2000/svg" width="1931" height="1002">
<path d="M0 0 C637.23 0 1274.46 0 1931 0 C1931 330.66 1931 661.32 1931 1002 C1293.77 1002 656.54 1002 0 1002 C0 671.34 0 340.68 0 0 Z " fill="#F5EBF2" transform="translate(0,0)"/>
<path d="M0 0 C3.3 0 6.6 0 10 0 C10.00586624 1.15844925 10.01173248 2.3168985 10.01777649 3.51045227 C10.07492686 14.41431878 10.14764799 25.31798437 10.23571491 36.22164631 C10.28049067 41.8276813 10.31973085 47.43364241 10.34643555 53.03979492 C10.37239668 58.44749652 10.41274786 63.85491486 10.46318626 69.26244164 C10.47990374 71.32812166 10.49138751 73.39385072 10.49761391 75.459589 C10.50720201 78.34746806 10.53519745 81.2346144 10.56762695 84.12231445 C10.56619186 84.98114731 10.56475677 85.83998016 10.5632782 86.72483826 C10.44924143 91.05125024 10.44924143 91.05125024 12.52492046 94.6182127 C13.01169671 95.07420251 13.49847296 95.53019232 14 96 C14 96.66 14 97.32 14 98 C13.01 97.67 12.02 97.34 11 97 C10.67 395.65 10.34 694.3 10 1002 C6.7 1002 3.4 1002 0 1002 C0 671.34 0 340.68 0 0 Z " fill="#000000" transform="translate(0,0)"/>
<path d="M0 0 C5.64157654 2.22994748 9.43463083 5.2482621 12.75 10.3515625 C15.64176272 19.02685065 12.58552783 26.43651652 8.75 34.3515625 C3.75674654 42.48343241 -4.3342005 51.07436283 -12.25 56.3515625 C-11.73976773 61.76841193 -10.31047826 66.0619308 -7.8125 70.9140625 C-7.46195557 71.60298584 -7.11141113 72.29190918 -6.75024414 73.00170898 C3.14944924 91.88185396 16.30272847 104.46688258 35.75 113.3515625 C36.56210938 113.72796875 37.37421875 114.104375 38.2109375 114.4921875 C49.94638046 118.46418358 63.16461201 113.81649282 73.9140625 108.90625 C75.60054857 108.05571668 77.27526547 107.18086542 78.9296875 106.26953125 C80.75 105.3515625 80.75 105.3515625 82.75 105.3515625 C82.62625 104.4440625 82.5025 103.5365625 82.375 102.6015625 C82.375 94.61417123 88.01117758 86.34776613 93.3125 80.6875 C96.17437648 78.02782132 98.49132341 76.53137344 102.375 75.9765625 C104.75 76.3515625 104.75 76.3515625 106.5625 77.4765625 C108.41070183 80.39477592 108.33034835 81.93395556 107.75 85.3515625 C103.18589057 93.70180816 94.87675821 100.59443574 86.75 105.3515625 C86.09 105.3515625 85.43 105.3515625 84.75 105.3515625 C86.03384016 116.43313021 87.84782194 124.46687044 96.06640625 132.328125 C103.0798281 137.61626549 111.58198547 141.21123847 119.75 144.3515625 C119.234375 143.2584375 118.71875 142.1653125 118.1875 141.0390625 C116.75 137.3515625 116.75 137.3515625 117.75 134.3515625 C121.17931954 138.1074839 122.31429083 142.58622995 123.75 147.3515625 C122.17274653 148.05289849 120.58788667 148.7371455 119 149.4140625 C118.11828125 149.79691406 117.2365625 150.17976562 116.328125 150.57421875 C113.59743691 151.39756258 112.38098653 151.3289617 109.75 150.3515625 C113.215 148.3715625 113.215 148.3715625 116.75 146.3515625 C115.64205078 145.949375 115.64205078 145.949375 114.51171875 145.5390625 C101.44964587 140.49348416 89.52948659 132.4940059 83.4609375 119.44921875 C82.23315642 115.82658995 81.9260844 112.15498564 81.75 108.3515625 C80.79480469 108.82207031 79.83960938 109.29257813 78.85546875 109.77734375 C65.61956197 116.20095495 51.40436808 122.17938563 36.62109375 117.0625 C28.14663163 113.72174097 20.81437392 109.10107833 13.75 103.3515625 C13.14285156 102.90683594 12.53570312 102.46210938 11.91015625 102.00390625 C-1.07964576 92.00939976 -10.24678195 75.58259797 -15.25 60.3515625 C-15.25 59.6915625 -15.25 59.0315625 -15.25 58.3515625 C-16.08660156 58.85945313 -16.92320312 59.36734375 -17.78515625 59.890625 C-45.25280932 76.26342227 -76.6062211 80.80781014 -107.75195312 73.02734375 C-130.97416804 66.74518084 -151.94145196 54.79513656 -170.25 39.3515625 C-169.92 38.6915625 -169.59 38.0315625 -169.25 37.3515625 C-168.46496094 37.95484375 -167.67992187 38.558125 -166.87109375 39.1796875 C-161.50216062 43.27568046 -156.2075562 47.14364762 -150.25 50.3515625 C-149.07943929 51.09547024 -147.91310064 51.84604413 -146.75 52.6015625 C-118.62907802 70.10979937 -84.86317014 78.72020695 -51.94921875 71.39453125 C-39.87840678 67.99125058 -27.72024902 63.33172852 -17.25 56.3515625 C-17.45496094 55.51753906 -17.65992188 54.68351562 -17.87109375 53.82421875 C-21.16089481 40.08260954 -25.05353087 21.60427367 -18.25 8.3515625 C-13.20180836 1.32849959 -9.13291617 -2.6320557 0 0 Z " fill="#181818" transform="translate(184.25,59.6484375)"/>
<path d="M0 0 C3.33058181 2.61411945 4.76851437 5.2802238 5.5546875 9.421875 C5.8831973 21.26316022 1.19006815 30.2675068 -6.421875 39.08203125 C-10.21936453 43.02257689 -14.24902757 46.78851694 -18.984375 49.58203125 C-19.644375 49.58203125 -20.304375 49.58203125 -20.984375 49.58203125 C-25.62132763 34.57403724 -28.49587985 17.31028147 -21.03515625 2.7265625 C-15.76748272 -6.03901282 -7.89455342 -4.34752505 0 0 Z " fill="#F0F2F4" transform="translate(189.984375,64.41796875)"/>
<path d="M0 0 C1.8125 1.125 1.8125 1.125 3 3 C3.64919062 6.10168851 3.50041423 8.08446943 1.96875 10.88671875 C-3.21101134 18.21032575 -10.26499012 24.47218934 -18 29 C-18.66 29 -19.32 29 -20 29 C-18.71615984 40.08156771 -16.90217806 48.11530794 -8.68359375 55.9765625 C-1.6701719 61.26470299 6.83198547 64.85967597 15 68 C14.484375 66.906875 13.96875 65.81375 13.4375 64.6875 C12 61 12 61 13 58 C16.42931954 61.7559214 17.56429083 66.23466745 19 71 C17.42274653 71.70133599 15.83788667 72.385583 14.25 73.0625 C13.36828125 73.44535156 12.4865625 73.82820313 11.578125 74.22265625 C8.84743691 75.04600008 7.63098653 74.9773992 5 74 C7.31 72.68 9.62 71.36 12 70 C11.26136719 69.731875 10.52273438 69.46375 9.76171875 69.1875 C-3.12274461 64.21052813 -15.38346147 56.18179391 -21.28125 43.19140625 C-24.45809342 33.50548691 -22.99483337 23.8772732 -18.75 14.8125 C-14.96631762 7.73478825 -9.18765 -1.45068158 0 0 Z " fill="#191919" transform="translate(289,136)"/>
<path d="M0 0 C2.875 1.5625 2.875 1.5625 5 4 C6.14888518 7.94929279 6.43129396 10.02958859 4.75 13.8125 C2.44612273 16.69234659 0.80848609 17.89454529 -2.875 18.375 C-6.71852258 17.91377729 -8.25600111 16.66559892 -11 14 C-12.56935594 10.86128812 -12.35201103 8.46144178 -12 5 C-8.57935012 0.12816532 -5.85570965 -0.94109619 0 0 Z " fill="#FEC34B" transform="translate(63,54)"/>
<path d="M0 0 C-0.14489213 6.95482243 -3.14102632 10.24728618 -8 15 C-12.02342613 18.85831793 -15.84369284 21.73625539 -21 24 C-20.45160788 15.59132087 -17.15196056 8.55080416 -10.8125 2.9375 C-6.76369693 -0.35263634 -5.17721472 -1.22618243 0 0 Z " fill="#EBEDEE" transform="translate(290,139)"/>
<path d="M0 0 C0.33 0 0.66 0 1 0 C1.09796875 0.7734375 1.1959375 1.546875 1.296875 2.34375 C2.87299005 13.32220656 5.92302735 21.1559362 15 28 C21.66248576 31.94722844 28.77668757 35.22288182 36 38 C35.484375 36.906875 34.96875 35.81375 34.4375 34.6875 C33 31 33 31 34 28 C37.42931954 31.7559214 38.56429083 36.23466745 40 41 C38.42274653 41.70133599 36.83788667 42.385583 35.25 43.0625 C34.36828125 43.44535156 33.4865625 43.82820313 32.578125 44.22265625 C29.84743691 45.04600008 28.63098653 44.9773992 26 44 C28.31 42.68 30.62 41.36 33 40 C32.26136719 39.731875 31.52273438 39.46375 30.76171875 39.1875 C17.86747885 34.20675168 5.65213624 26.12487396 -0.421875 13.23046875 C-1.56170839 8.83286832 -0.74736602 4.41920777 0 0 Z " fill="#202121" transform="translate(268,166)"/>
<path d="M0 0 C6.64329228 1.98949734 11.20312345 5.15552216 15 11 C16.28317892 14.84953676 16.06643637 17.94738135 16 22 C15.01 22.33 14.02 22.66 13 23 C12.95101562 22.26394531 12.90203125 21.52789062 12.8515625 20.76953125 C12.77679688 19.79371094 12.70203125 18.81789063 12.625 17.8125 C12.55539063 16.84957031 12.48578125 15.88664062 12.4140625 14.89453125 C11.99224879 11.94581468 11.33443502 9.65947262 10 7 C7.63813861 5.73854232 7.63813861 5.73854232 5 5 C4.38125 4.62875 3.7625 4.2575 3.125 3.875 C-0.89493695 2.21973184 -4.61449657 2.54890586 -8.6875 3.875 C-12.32394344 7.21659668 -13.4511679 11.39321735 -15 16 C-15.30164063 16.8765625 -15.60328125 17.753125 -15.9140625 18.65625 C-16.62821936 20.76534877 -17.32359492 22.87854769 -18 25 C-18.33 25 -18.66 25 -19 25 C-18.66439343 15.87150134 -17.43176085 9.00177057 -10.6875 2.5 C-7.04935383 -0.32709448 -4.63477133 -0.79909851 0 0 Z " fill="#232323" transform="translate(182,59)"/>
<path d="M0 0 C0.66 0.33 1.32 0.66 2 1 C2 3.31 2 5.62 2 8 C1.67 8 1.34 8 1 8 C1 6.35 1 4.7 1 3 C0.04480469 3.47050781 -0.91039062 3.94101563 -1.89453125 4.42578125 C-15.04138724 10.80617459 -28.26416144 16.10525915 -43.14453125 12.16796875 C-49.66047745 9.67904509 -49.66047745 9.67904509 -51 7 C-48.04831962 7.41186238 -45.42820504 7.8126603 -42.6875 9.01171875 C-31.92331482 12.9700601 -20.16439226 8.95281921 -10 5 C-7.208858 3.69402121 -4.50126355 2.33800343 -1.8203125 0.8203125 C-1.21960938 0.54960937 -0.61890625 0.27890625 0 0 Z " fill="#242525" transform="translate(265,165)"/>
<path d="M0 0 C0 0.66 0 1.32 0 2 C-13.77136313 8.86589512 -27.36440186 14.67425837 -43 15 C-43 14.34 -43 13.68 -43 13 C-41.5459375 12.77957031 -41.5459375 12.77957031 -40.0625 12.5546875 C-27.82711552 10.55987157 -16.92359514 6.70484838 -5.625 1.625 C-2 0 -2 0 0 0 Z " fill="#242424" transform="translate(163,120)"/>
<path d="M0 0 C1.3921875 1.2065625 1.3921875 1.2065625 2.8125 2.4375 C4.20710813 3.62643865 5.60311505 4.81373722 7 6 C7.85722656 6.73476562 8.71445313 7.46953125 9.59765625 8.2265625 C15.11252968 12.86495112 20.52406067 16.81799524 27 20 C26.34 20.66 25.68 21.32 25 22 C16.14191495 17.17900681 5.50512346 10.69622892 0 2 C0 1.34 0 0.68 0 0 Z " fill="#161617" transform="translate(188,151)"/>
<path d="M0 0 C5.19355461 1.37476445 8.00427491 4.74341593 11 9 C12.28317892 12.84953676 12.06643637 15.94738135 12 20 C11.01 20.33 10.02 20.66 9 21 C8.95101562 20.26394531 8.90203125 19.52789062 8.8515625 18.76953125 C8.77679688 17.79371094 8.70203125 16.81789063 8.625 15.8125 C8.55539063 14.84957031 8.48578125 13.88664062 8.4140625 12.89453125 C7.99187079 9.94317222 7.34335289 7.65852355 6 5 C3.54295238 3.76709799 3.54295238 3.76709799 1 3 C0.34 2.34 -0.32 1.68 -1 1 C-0.67 0.67 -0.34 0.34 0 0 Z " fill="#202020" transform="translate(186,61)"/>
<path d="M0 0 C0.66 0.33 1.32 0.66 2 1 C2 3.31 2 5.62 2 8 C1.67 8 1.34 8 1 8 C1 6.35 1 4.7 1 3 C-0.01320313 3.49371094 -1.02640625 3.98742187 -2.0703125 4.49609375 C-3.42168478 5.1436263 -4.77325802 5.79073956 -6.125 6.4375 C-6.79015625 6.76298828 -7.4553125 7.08847656 -8.140625 7.42382812 C-12.06168369 9.28825309 -15.59744358 10.75115985 -20 11 C-20.99 10.34 -21.98 9.68 -23 9 C-22.17757812 8.76925781 -21.35515625 8.53851563 -20.5078125 8.30078125 C-13.91318161 6.3741743 -7.93159498 4.20732224 -1.92578125 0.85546875 C-1.29027344 0.57316406 -0.65476562 0.29085937 0 0 Z " fill="#2D2E2E" transform="translate(265,165)"/>
<path d="M0 0 C4.43601966 3.51822249 5.52033129 7.75390186 7 13 C5.42274653 13.70133599 3.83788667 14.385583 2.25 15.0625 C1.36828125 15.44535156 0.4865625 15.82820312 -0.421875 16.22265625 C-3.15256309 17.04600008 -4.36901347 16.9773992 -7 16 C-1.375 13 -1.375 13 2 13 C2 12.34 2 11.68 2 11 C2.66 11 3.32 11 4 11 C3.71125 10.45730469 3.4225 9.91460937 3.125 9.35546875 C2.75375 8.64003906 2.3825 7.92460937 2 7.1875 C1.443125 6.12595703 1.443125 6.12595703 0.875 5.04296875 C0 3 0 3 0 0 Z " fill="#131314" transform="translate(301,194)"/>
<path d="M0 0 C5.35810969 -0.16898112 10.19349172 0.43488578 15.4375 1.5 C16.16904297 1.64308594 16.90058594 1.78617188 17.65429688 1.93359375 C19.43735486 2.28321296 21.21885203 2.64077688 23 3 C23 3.33 23 3.66 23 4 C14.89563895 5.98474148 7.74839684 3.3507506 0 1 C0 0.67 0 0.34 0 0 Z " fill="#303031" transform="translate(68,129)"/>
<path d="M0 0 C0.33 0 0.66 0 1 0 C1.09796875 0.7734375 1.1959375 1.546875 1.296875 2.34375 C2.26172778 9.06444868 3.7602227 14.06040828 7 20 C7 20.99 7 21.98 7 23 C3.11079739 19.66639776 0.42020087 15.92606814 -1 11 C-1.03448158 7.26121121 -0.62280449 3.68267001 0 0 Z " fill="#1B1C1C" transform="translate(268,166)"/>
<path d="M0 0 C2.4375 1 2.4375 1 4 2 C1 3 1 3 -2.3125 2.8125 C-6.68135485 3.03464516 -8.6010402 4.34715333 -12 7 C-12.66 6.67 -13.32 6.34 -14 6 C-9.54403298 1.44922517 -6.70526502 -1.01211547 0 0 Z " fill="#191919" transform="translate(182,59)"/>
<path d="M0 0 C5.07648175 2.78387709 9.4833069 6.40829416 14 10 C13.67 10.66 13.34 11.32 13 12 C11.01402714 10.5711779 9.03649356 9.13270528 7.0625 7.6875 C6.49853516 7.28337891 5.93457031 6.87925781 5.35351562 6.46289062 C1.11328125 3.33984375 1.11328125 3.33984375 0 0 Z " fill="#151515" transform="translate(14,97)"/>
<path d="M0 0 C0.66 0 1.32 0 2 0 C2.38897161 1.62171239 2.76078298 3.24754925 3.125 4.875 C3.33382812 5.77992187 3.54265625 6.68484375 3.7578125 7.6171875 C3.83773437 8.40351562 3.91765625 9.18984375 4 10 C3.34 10.66 2.68 11.32 2 12 C0.86235649 7.73383684 0 4.43513689 0 0 Z " fill="#2D2D2D" transform="translate(164,99)"/>
<path d="M0 0 C0.66 0.33 1.32 0.66 2 1 C2 3.64 2 6.28 2 9 C1.01 9.33 0.02 9.66 -1 10 C-1.02689216 8.52093108 -1.04634621 7.04172517 -1.0625 5.5625 C-1.07410156 4.73878906 -1.08570313 3.91507812 -1.09765625 3.06640625 C-1 1 -1 1 0 0 Z " fill="#4C4C4D" transform="translate(196,72)"/>
<path d="M0 0 C0 0.66 0 1.32 0 2 C-6.28571429 4.42857143 -6.28571429 4.42857143 -10 3 C-6.48812804 0.59185923 -4.27343092 -0.36629408 0 0 Z " fill="#242525" transform="translate(289,136)"/>
<path d="M0 0 C0.66 0 1.32 0 2 0 C0.54744301 3.82946843 -1.42895561 5.12050295 -5 7 C-5.66 6.34 -6.32 5.68 -7 5 C-6.030625 4.360625 -5.06125 3.72125 -4.0625 3.0625 C-1.23963731 1.3034741 -1.23963731 1.3034741 0 0 Z " fill="#1F1F1F" transform="translate(176,109)"/>
<path d="M0 0 C0.33 0 0.66 0 1 0 C1.33 3.96 1.66 7.92 2 12 C1.01 12.495 1.01 12.495 0 13 C-0.96661363 9.87819599 -0.98988909 7.47916205 -0.5625 4.25 C-0.46066406 3.45078125 -0.35882813 2.6515625 -0.25390625 1.828125 C-0.17011719 1.22484375 -0.08632813 0.6215625 0 0 Z " fill="#4C4C4D" transform="translate(268,166)"/>
<path d="M0 0 C0.99 0.33 1.98 0.66 3 1 C1.515 4.96 1.515 4.96 0 9 C-0.66 8.01 -1.32 7.02 -2 6 C-1.125 2.8125 -1.125 2.8125 0 0 Z " fill="#323232" transform="translate(167,66)"/>
<path d="M0 0 C-0.33 0.99 -0.66 1.98 -1 3 C-3.31 3.33 -5.62 3.66 -8 4 C-5.57415142 1.34311822 -3.76063134 0 0 0 Z " fill="#262727" transform="translate(302,207)"/>
<path d="M0 0 C3.45925163 1.2491742 6.14693203 2.67527795 9 5 C8.01 5.495 8.01 5.495 7 6 C1.125 2.25 1.125 2.25 0 0 Z " fill="#131313" transform="translate(281,194)"/>
<path d="M0 0 C0.66 0.33 1.32 0.66 2 1 C-3.75 6 -3.75 6 -6 6 C-5 3 -5 3 -2.5625 1.25 C-1.716875 0.8375 -0.87125 0.425 0 0 Z " fill="#141415" transform="translate(278,157)"/>
<path d="M0 0 C3.3 0.99 6.6 1.98 10 3 C10 3.33 10 3.66 10 4 C6.05272412 4.17942163 3.4019487 4.09350689 0 2 C0 1.34 0 0.68 0 0 Z " fill="#131414" transform="translate(61,125)"/>
</svg>
