<svg width="167" height="49" viewBox="0 0 167 49" fill="none" xmlns="http://www.w3.org/2000/svg">
<path d="M0 7.8017C1.97765 7.24476 3.95669 6.68226 5.93712 6.12948C13.1292 4.12115 20.3241 2.12115 27.5134 0.101705C28.0651 -0.0538503 28.5641 -0.0205182 29.1033 0.130871C38.0271 2.62809 46.9536 5.11282 55.8787 7.6017C56.0997 7.66282 56.3151 7.74476 56.5389 7.97115C55.163 8.36143 53.7885 8.75587 52.4112 9.14198C50.2335 9.7517 48.0487 10.3392 45.8779 10.9725C45.3665 11.1211 44.9481 11.0628 44.4812 10.842C42.1366 9.73226 39.7518 8.6767 37.1932 8.21003C35.1739 7.84198 33.1615 7.26837 31.0559 7.50865C32.2567 7.8892 33.5172 8.05032 34.7402 8.35309C36.9722 8.90448 39.093 9.71698 41.1485 10.7156C42.0796 11.1684 42.9733 11.6948 43.8919 12.1739C44.2185 12.3434 44.363 12.567 44.3533 12.9489C44.3297 13.9573 44.313 14.9684 44.3561 15.9753C44.3825 16.5781 44.131 16.6448 43.6292 16.5545C38.6372 15.6614 33.6409 14.8031 28.6544 13.8795C27.4926 13.6642 26.4349 14.0198 25.3481 14.2156C21.1899 14.9656 17.04 15.7573 12.8902 16.5503C12.3565 16.6517 12.1619 16.5336 12.1758 15.9628C12.2092 14.6281 12.1703 13.2906 12.1967 11.9545C12.205 11.517 12.0396 11.3225 11.6352 11.217C10.5276 10.9281 9.42129 10.6323 8.32615 10.3003C7.88837 10.167 7.73966 10.2503 7.74105 10.717C7.75217 13.5809 7.75078 16.4434 7.73966 19.3073C7.73966 19.6475 7.89393 19.8309 8.13714 20.0448C8.92236 20.7364 8.96961 21.8003 8.29279 22.5114C7.65211 23.1837 6.52639 23.192 5.86624 22.5295C5.17136 21.8323 5.19359 20.7545 5.98855 20.0698C6.31792 19.785 6.42911 19.5059 6.42772 19.0948C6.41521 16.2309 6.40409 13.3684 6.43605 10.5045C6.443 9.92393 6.23593 9.69615 5.69947 9.55448C3.90666 9.08504 2.12497 8.56976 0.340493 8.06976C0.218192 8.03504 0.0597604 8.04892 0 7.79892V7.8017Z" fill="#FF3180"/>
<path d="M39.5755 18.7985C40.9944 18.7985 42.4134 18.7985 43.8337 18.7985C44.1131 18.7985 44.3771 18.7568 44.3646 19.1929C44.2854 21.9096 44.6328 24.6582 43.8254 27.3221C41.9089 33.6526 37.7437 37.5943 31.2549 39.0027C30.4835 39.1693 30.5238 39.4165 30.8032 40.0013C32.5863 43.7429 36.6375 45.8179 40.6108 44.9943C44.6704 44.1527 47.6056 40.5971 47.6959 36.4096C47.7043 36.0554 47.6834 35.6999 47.7043 35.3457C47.7612 34.4068 47.625 33.6735 46.7981 32.9443C45.293 31.6152 45.4598 29.1985 46.9315 27.8415C48.4367 26.454 50.7812 26.5735 52.1362 28.1054C53.4621 29.6054 53.3342 31.9499 51.768 33.2207C51.251 33.6388 51.1036 34.0471 51.1217 34.661C51.1717 36.3804 51.1314 38.0943 50.6311 39.7665C49.0773 44.9638 44.3313 48.5582 38.932 48.6124C33.6314 48.6652 28.763 45.129 27.1467 39.9999C26.9591 39.4027 26.6978 39.2151 26.0932 39.1457C19.2736 38.3707 13.2336 32.3763 12.3567 25.5874C12.0857 23.4929 12.2538 21.3929 12.1843 19.2971C12.1718 18.8943 12.315 18.7901 12.6999 18.7915C15.5379 18.804 18.3772 18.8054 21.2151 18.7915C21.6265 18.7888 21.8016 18.8846 21.7794 19.3332C21.7321 20.2554 22.0698 21.4304 21.6209 22.0318C21.1887 22.6096 19.9421 22.1832 19.0554 22.2179C18.102 22.254 17.1445 22.2402 16.1897 22.2152C15.7797 22.204 15.6365 22.3152 15.6185 22.7554C15.3739 28.5152 19.2833 33.7693 24.8021 35.379C30.4029 37.0124 36.3915 34.5193 39.2433 29.4624C40.3565 27.4888 40.8971 25.4096 40.9402 23.161C40.9541 22.454 40.8179 22.1638 40.0243 22.1999C38.4998 22.2707 36.9682 22.1943 35.4409 22.2346C34.8863 22.2499 34.7432 22.0721 34.7738 21.5485C34.8155 20.8152 34.8085 20.0749 34.7738 19.3401C34.7543 18.911 34.885 18.7804 35.32 18.7874C36.7389 18.8138 38.1579 18.7971 39.5768 18.7971L39.5755 18.7985Z" fill="#2E3183"/>
<path d="M66.7605 36.4822C66.4784 36.2794 66.1407 36.1502 65.7474 36.0947C66.1282 36.0266 66.4506 35.8988 66.7133 35.7099C66.976 35.5224 67.1747 35.2877 67.3095 35.0085C67.4443 34.728 67.511 34.4183 67.511 34.0752C67.511 33.5488 67.4054 33.0988 67.1942 32.7224C66.9829 32.346 66.6674 32.0572 66.2505 31.853C65.8336 31.6502 65.3235 31.5488 64.7204 31.5488H60.9805V40.871H64.8302C65.4069 40.871 65.9072 40.7683 66.3283 40.5627C66.7494 40.3572 67.0733 40.0641 67.297 39.6808C67.5221 39.2988 67.6333 38.8488 67.6333 38.3308V38.3113C67.6333 37.9224 67.5583 37.571 67.4082 37.2572C67.2581 36.9433 67.0427 36.6849 66.7605 36.4822ZM62.5064 32.9974H64.5716C65.0289 32.9974 65.3749 33.0974 65.6112 33.296C65.8461 33.4947 65.9642 33.7863 65.9642 34.1711C65.9642 34.5558 65.853 34.8572 65.6307 35.0627C65.4083 35.2683 65.0859 35.371 64.662 35.371H62.5064V32.9988V32.9974ZM66.0865 38.1461C66.0865 38.5474 65.9559 38.8613 65.6946 39.0849C65.4333 39.3099 65.0358 39.421 64.5008 39.421H62.505V36.8058H64.6606C64.9775 36.8058 65.2415 36.8585 65.4556 36.9627C65.6696 37.0683 65.828 37.2183 65.9309 37.4141C66.0337 37.6113 66.0851 37.8474 66.0851 38.1266V38.1461H66.0865Z" fill="#333333"/>
<path d="M73.1389 34.5455C72.7344 34.2608 72.248 34.1191 71.6796 34.1191C71.0764 34.1191 70.5608 34.2414 70.13 34.4844C69.6992 34.7275 69.3726 35.083 69.1488 35.5483C68.9237 36.0136 68.8125 36.5761 68.8125 37.2344V37.9844C68.8125 38.6164 68.9306 39.1566 69.1655 39.6039C69.4004 40.0511 69.7409 40.3886 70.1856 40.6205C70.6303 40.8511 71.1668 40.9664 71.7964 40.9664C72.2244 40.9664 72.6483 40.8803 73.0694 40.7066C73.4905 40.533 73.8699 40.2886 74.2076 39.9733L73.207 39.0372C73.0096 39.208 72.7887 39.3414 72.5427 39.4386C72.2967 39.5344 72.0479 39.583 71.795 39.583C71.2988 39.583 70.9138 39.4469 70.6401 39.1761C70.3955 38.9344 70.2676 38.5941 70.2412 38.1664H74.3813V37.7303C74.3813 36.9691 74.2757 36.3191 74.0631 35.7816C73.8518 35.2428 73.5433 34.8316 73.1389 34.5469V34.5455ZM70.2384 37.0428C70.2579 36.5747 70.3774 36.2025 70.6095 35.9372C70.8624 35.6483 71.2196 35.5039 71.681 35.5039C72.0493 35.5039 72.3411 35.6316 72.5593 35.8886C72.7775 36.1455 72.9082 36.5066 72.9513 36.9719L72.9582 37.0428H70.2398H70.2384Z" fill="#333333"/>
<path d="M80.3694 31.5488L76.8672 40.871H78.5155L79.1297 39.1016H82.7251L83.3394 40.871H84.9876L81.4854 31.5488H80.3694ZM79.6398 37.6322L80.9267 33.9266L82.2137 37.6322H79.6384H79.6398Z" fill="#333333"/>
<path d="M92.8348 31.9385C92.2942 31.6774 91.6423 31.5469 90.8807 31.5469H87.8594V40.8691H90.8752C91.6493 40.8691 92.3067 40.7344 92.8473 40.4649C93.3879 40.1955 93.7979 39.8108 94.0758 39.3108C94.3538 38.8108 94.4928 38.2163 94.4928 37.5288V34.8872C94.4928 34.1816 94.351 33.5788 94.0689 33.0788C93.7868 32.5788 93.3754 32.1983 92.8334 31.9372L92.8348 31.9385ZM92.914 37.5802C92.914 38.1622 92.7403 38.6108 92.3914 38.926C92.0426 39.2427 91.552 39.3997 90.9197 39.3997H89.3923V33.0135H90.9197C91.552 33.0135 92.044 33.1719 92.3914 33.4885C92.7403 33.8052 92.914 34.2538 92.914 34.8358V37.5802Z" fill="#333333"/>
<path d="M100.16 34.4553C99.7387 34.2303 99.2328 34.1191 98.6422 34.1191C98.0515 34.1191 97.5456 34.2316 97.1245 34.4553C96.7034 34.6803 96.3824 35.0066 96.1628 35.4358C95.9418 35.865 95.832 36.3816 95.832 36.9844V38.0678C95.832 38.6789 95.9418 39.2011 96.1628 39.6358C96.3824 40.0691 96.7034 40.3997 97.1245 40.6261C97.5456 40.8525 98.0515 40.9664 98.6422 40.9664C99.2328 40.9664 99.7387 40.8525 100.16 40.6261C100.581 40.3997 100.902 40.0719 101.122 39.6414C101.341 39.2122 101.452 38.6941 101.452 38.0858V36.983C101.452 36.3803 101.343 35.8636 101.122 35.4344C100.901 35.0053 100.581 34.6775 100.16 34.4539V34.4553ZM99.9194 38.0872C99.9194 38.5358 99.8082 38.883 99.5858 39.1289C99.3635 39.3747 99.0494 39.4969 98.6422 39.4969C98.235 39.4969 97.9167 39.3733 97.6957 39.1289C97.4748 38.883 97.365 38.5358 97.365 38.0872V36.9844C97.365 36.54 97.4761 36.1955 97.6985 35.9525C97.9209 35.7094 98.235 35.5872 98.6422 35.5872C99.0494 35.5872 99.3621 35.7094 99.5858 35.9525C99.8082 36.1955 99.9194 36.54 99.9194 36.9844V38.0872Z" fill="#333333"/>
<path d="M104.589 35.9747C104.851 35.7164 105.218 35.5872 105.693 35.5872C105.95 35.5872 106.196 35.6358 106.431 35.7344C106.666 35.833 106.871 35.9733 107.047 36.158L108.086 35.183C107.919 34.9566 107.711 34.7636 107.461 34.6066C107.211 34.4483 106.928 34.3275 106.614 34.2441C106.3 34.1608 105.965 34.1191 105.611 34.1191C104.991 34.1191 104.46 34.2344 104.02 34.465C103.579 34.6955 103.244 35.0316 103.012 35.4747C102.781 35.9164 102.666 36.4497 102.666 37.0747V37.9789C102.666 38.6108 102.781 39.1511 103.012 39.5983C103.243 40.0455 103.579 40.3844 104.02 40.6178C104.46 40.8511 104.991 40.9678 105.611 40.9678C105.961 40.9678 106.295 40.9275 106.609 40.8455C106.923 40.765 107.205 40.6455 107.455 40.49C107.705 40.3344 107.917 40.1441 108.088 39.9219L107.048 38.883C106.877 39.0803 106.674 39.2316 106.438 39.3386C106.203 39.4455 105.954 39.4983 105.694 39.4983C105.215 39.4983 104.847 39.3664 104.588 39.1039C104.33 38.8414 104.2 38.4664 104.2 37.9789V37.0747C104.2 36.5997 104.331 36.233 104.592 35.9747H104.589Z" fill="#333333"/>
<path d="M110.778 32.2793H109.245V34.2154H108.559V35.5557H109.245V39.139C109.245 39.721 109.376 40.1599 109.637 40.4571C109.898 40.7543 110.308 40.9029 110.868 40.9029H111.69V39.4349H111.157C111.034 39.4349 110.939 39.3904 110.875 39.3029C110.811 39.2154 110.779 39.0904 110.779 38.9279V35.5557H111.691V34.2154H110.779V32.2793H110.778Z" fill="#333333"/>
<path d="M117.164 34.4553C116.743 34.2303 116.237 34.1191 115.646 34.1191C115.055 34.1191 114.55 34.2316 114.128 34.4553C113.707 34.6803 113.386 35.0066 113.167 35.4358C112.946 35.865 112.836 36.3816 112.836 36.9844V38.0678C112.836 38.6789 112.946 39.2011 113.167 39.6358C113.386 40.0691 113.707 40.3997 114.128 40.6261C114.55 40.8525 115.055 40.9664 115.646 40.9664C116.237 40.9664 116.743 40.8525 117.164 40.6261C117.585 40.3997 117.906 40.0719 118.125 39.6414C118.345 39.2122 118.456 38.6941 118.456 38.0858V36.983C118.456 36.3803 118.346 35.8636 118.125 35.4344C117.904 35.0053 117.585 34.6775 117.164 34.4539V34.4553ZM116.923 38.0872C116.923 38.5358 116.812 38.883 116.59 39.1289C116.367 39.3747 116.053 39.4969 115.646 39.4969C115.239 39.4969 114.921 39.3733 114.7 39.1289C114.479 38.883 114.369 38.5358 114.369 38.0872V36.9844C114.369 36.54 114.48 36.1955 114.702 35.9525C114.925 35.7094 115.239 35.5872 115.646 35.5872C116.053 35.5872 116.366 35.7094 116.59 35.9525C116.812 36.1955 116.923 36.54 116.923 36.9844V38.0872Z" fill="#333333"/>
<path d="M123.887 34.2491C123.652 34.1616 123.388 34.1172 123.098 34.1172C122.725 34.1172 122.385 34.2269 122.075 34.4477C121.831 34.62 121.626 34.8491 121.456 35.1297V34.213H119.859V40.8672H121.456V36.8797C121.456 36.4741 121.562 36.1561 121.773 35.9269C121.984 35.6977 122.283 35.5839 122.668 35.5839C122.865 35.5839 123.038 35.613 123.188 35.67C123.338 35.7283 123.463 35.8116 123.566 35.9227L124.503 34.6339C124.328 34.463 124.122 34.3339 123.887 34.2464V34.2491Z" fill="#333333"/>
<path d="M71.836 19.539H71.6164L66.7369 7.64453H60.9805V26.8668H65.5111V15.0112H65.6654L70.2739 26.7376H73.166L77.8134 15.0501H77.9427V26.8668H82.4984V7.64453H76.728L71.836 19.539Z" fill="#FF3180"/>
<path d="M90.3239 7.64453L83.8184 26.8668H88.8146L90.0835 22.8293H96.7377L98.0066 26.8668H102.989L96.4959 7.64453H90.3253H90.3239ZM91.1925 19.2945L93.3314 12.4834H93.4856L95.6245 19.2945H91.1911H91.1925Z" fill="#2E3183"/>
<path d="M115.98 8.48342C114.93 7.92369 113.683 7.64453 112.236 7.64453H104.311V26.8668H108.945V20.907H112.109C113.572 20.907 114.841 20.6334 115.917 20.0876C116.992 19.5418 117.821 18.7737 118.401 17.7848C118.982 16.7959 119.273 15.639 119.273 14.314C119.273 12.989 118.987 11.8265 118.414 10.8237C117.841 9.82231 117.031 9.04175 115.98 8.48203V8.48342ZM114.09 15.8501C113.844 16.289 113.483 16.6306 113.006 16.8751C112.528 17.1209 111.942 17.2431 111.244 17.2431H108.947V11.3987H111.232C111.938 11.3987 112.53 11.5168 113.006 11.7529C113.484 11.989 113.846 12.3251 114.09 12.7584C114.335 13.1931 114.459 13.7112 114.459 14.3126C114.459 14.914 114.336 15.4084 114.09 15.8473V15.8501Z" fill="#2E3183"/>
<path d="M132.484 8.48342C131.434 7.92369 130.187 7.64453 128.74 7.64453H120.814V26.8668H125.449V20.907H128.612C130.076 20.907 131.345 20.6334 132.42 20.0876C133.496 19.5418 134.324 18.7737 134.905 17.7848C135.486 16.7959 135.777 15.639 135.777 14.314C135.777 12.989 135.49 11.8265 134.918 10.8237C134.345 9.82231 133.535 9.04175 132.484 8.48203V8.48342ZM130.593 15.8501C130.347 16.289 129.986 16.6306 129.509 16.8751C129.031 17.1209 128.444 17.2431 127.747 17.2431H125.449V11.3987H127.734C128.44 11.3987 129.031 11.5168 129.509 11.7529C129.987 11.989 130.348 12.3251 130.593 12.7584C130.838 13.1931 130.961 13.7112 130.961 14.3126C130.961 14.914 130.839 15.4084 130.593 15.8473V15.8501Z" fill="#2E3183"/>
<path d="M141.944 7.64453H137.311V26.8668H149.96V23.0876H141.944V7.64453Z" fill="#2E3183"/>
<path d="M161.202 7.64453L157.123 15.6945H156.942L152.889 7.64453H147.688L154.735 20.4556V26.8668H159.344V20.4556L166.379 7.64453H161.202Z" fill="#2E3183"/>
</svg>
