<svg width="170" height="55" viewBox="0 0 170 55" fill="none" xmlns="http://www.w3.org/2000/svg">
<path fill-rule="evenodd" clip-rule="evenodd" d="M4.30426 38.4681C3.39525 38.6083 2.58193 37.9538 2.48624 37.1125C2.34272 36.2244 3.01251 35.4297 3.87368 35.3362C10.4759 34.4481 16.7912 32.5785 22.6279 29.7739C28.6083 26.9226 34.158 23.1364 38.9901 18.6024C39.6599 17.948 41.0952 16.5924 42.3869 15.2836C42.8653 14.8162 43.2959 14.3488 43.7265 13.9748H41.3344C41.0952 13.8814 40.856 13.7411 40.8081 13.5074C40.7603 13.2737 40.9038 13.04 41.0952 12.9465L49.1806 9.34733C49.1806 9.34733 49.6111 9.30057 49.7547 9.4408C49.946 9.58103 49.9939 9.76801 49.946 10.0017L47.5061 18.3687C47.4104 18.6024 47.219 18.7426 46.9798 18.7426C46.7406 18.7426 46.5014 18.5556 46.4535 18.3219L46.023 16.312C45.6402 16.7327 45.1618 17.1533 44.7312 17.6208C43.3916 18.9763 41.9563 20.3319 41.2387 20.9863C37.5548 24.3985 33.5361 27.4367 29.1824 29.9608C29.2781 30.9424 29.3737 31.924 29.4694 32.8589C25.5463 35.196 21.6233 37.1125 17.5088 38.6083C15.93 39.1692 14.3034 39.6834 12.6767 40.1508C12.7245 39.9171 12.8202 39.7301 12.8681 39.4964C13.1551 38.4681 13.3943 37.4864 13.5379 36.5983C10.5238 37.4397 7.41402 38.0941 4.20857 38.5148L4.30426 38.4681Z" fill="#EE3A85"/>
<path fill-rule="evenodd" clip-rule="evenodd" d="M1.44956 48.3317C0.588396 48.3317 -0.0814004 47.7239 -0.177085 46.8826C-0.272771 46.0412 0.301342 45.2933 1.11467 45.1531C5.51618 44.6857 9.86985 43.7976 14.08 42.5823C21.4956 40.3853 29.9159 36.3655 36.1832 31.9249C39.3408 29.728 42.3071 27.2507 45.1298 24.4929C45.7518 23.8852 46.8043 23.8852 47.4262 24.4929C48.0482 25.1005 48.0482 26.1288 47.4262 26.7365C44.5078 29.5878 41.3981 32.2054 38.097 34.4958C35.7048 36.1785 33.217 37.721 30.6813 39.0766C31.4947 42.4888 32.5472 45.8543 33.6954 49.1263C33.8868 49.6404 33.6954 50.1546 33.2649 50.4818C32.8343 50.809 32.2602 50.7622 31.8296 50.4818C27.5716 47.8642 25.1795 44.9661 23.7442 42.442C21.7348 43.3301 19.6776 44.1248 17.5725 44.826C15.8023 48.0512 13.7929 51.1829 10.3961 53.707C8.96084 54.7821 7.33419 53.0526 8.33889 51.0427C9.05652 49.5937 9.72632 48.1914 10.3004 46.8826C7.38204 47.537 4.46364 48.0512 1.49741 48.3317H1.44956Z" fill="#2B3785"/>
<path fill-rule="evenodd" clip-rule="evenodd" d="M13.1272 26.5031C13.5577 27.4847 13.8448 28.5598 14.0362 29.8686C17.1938 28.8402 20.16 27.6717 22.9827 26.2694C25.1356 25.1943 27.2407 23.9323 29.2501 22.53C29.3458 21.5017 29.4893 20.4733 29.6328 19.4917C29.6328 19.4449 29.6328 19.3515 29.6328 19.3047C32.9818 17.2481 36.0437 14.9577 38.8186 12.3401C39.4406 11.7324 39.4884 10.7041 38.8664 10.0964C38.2445 9.44202 37.1919 9.44201 36.57 10.0497C32.6469 13.6956 28.1976 16.7339 23.1741 19.2112C18.1028 21.7353 12.5052 23.6051 6.33351 24.9606C5.47235 25.1476 4.89824 25.9889 5.08961 26.877C5.28098 27.7651 6.14215 28.2794 7.05115 28.0924C9.15623 27.625 11.1656 27.1108 13.1272 26.5499V26.5031Z" fill="#2B3785"/>
<path fill-rule="evenodd" clip-rule="evenodd" d="M7.99609 8.2264C8.28315 8.92755 8.33099 9.58196 8.28315 10.3298C8.28315 10.3298 8.37883 10.3298 8.42668 10.3298C8.47452 10.3298 8.52236 10.3298 8.5702 10.3298C8.80942 9.62871 8.61805 8.83409 8.5702 8.17969C8.37883 8.17969 8.23531 8.22641 8.04394 8.27316L7.99609 8.2264Z" fill="#2B3785"/>
<path fill-rule="evenodd" clip-rule="evenodd" d="M8.37301 10.4258C8.37301 10.4258 8.56438 10.4725 8.56438 10.566C8.56438 10.6595 8.51654 10.753 8.37301 10.753C8.27733 10.753 8.18164 10.7062 8.18164 10.6128C8.18164 10.5193 8.22948 10.4258 8.37301 10.4258Z" fill="#231F20"/>
<path fill-rule="evenodd" clip-rule="evenodd" d="M8.09062 10.8457C8.04277 11.5001 7.89924 12.7154 7.66003 13.2296C7.32513 13.9774 6.99023 14.6319 6.99023 14.6319C6.99023 14.6319 7.56434 15.2862 7.75571 15.2862C7.94708 15.2862 8.13845 15.2862 8.13845 15.2862L8.56904 13.697L8.37767 15.2395L8.85609 15.0525C8.85609 15.0525 8.85609 12.248 8.71256 10.9392C8.66472 11.0327 8.56904 11.0327 8.47336 11.0794C8.32983 11.0794 8.1863 11.0326 8.09062 10.8924V10.8457Z" fill="#2B3785"/>
<path fill-rule="evenodd" clip-rule="evenodd" d="M18.2031 7.48103C14.9498 6.73315 11.6487 8.69633 10.8832 11.9216C10.1177 15.1001 12.1271 18.3253 15.4282 19.0732C18.6815 19.8211 21.9827 17.8579 22.7481 14.6327C23.5136 11.4542 21.5042 8.22891 18.2031 7.48103Z" fill="#2B3785"/>
<path fill-rule="evenodd" clip-rule="evenodd" d="M12.5623 2.9441L20.7912 2.52344L18.2077 5.18777L18.0164 5.51497L18.6383 6.96398C15.6721 6.26284 12.7058 7.47814 11.0314 9.76854L10.4572 8.41299L6.39062 8.27277L12.5623 2.99086V2.9441Z" fill="#2B3785"/>
<path d="M68.385 11.9661V14.4435C68.385 17.435 66.8541 19.1645 63.8878 19.1645C60.9216 19.1645 59.3906 17.435 59.3906 14.4435V4.72099C59.3906 1.72945 60.9216 0 63.8878 0C66.8541 0 68.385 1.72945 68.385 4.72099V6.54395H65.5623V4.53401C65.5623 3.17847 64.9404 2.71105 63.9835 2.71105C63.0267 2.71105 62.4047 3.22522 62.4047 4.53401V14.6305C62.4047 15.986 63.0267 16.4534 63.9835 16.4534C64.9404 16.4534 65.5623 15.986 65.5623 14.6305V11.9661H68.385Z" fill="#EE3A85"/>
<path d="M80.1152 18.9763H77.1011L76.5748 15.5641H72.891L72.3647 18.9763H69.5898L72.6518 0.279297H77.0533L80.1152 18.9763ZM73.2737 13.0401H76.1921L74.7568 3.59803L73.3216 13.0401H73.2737Z" fill="#EE3A85"/>
<path d="M87.9422 18.9763C87.7986 18.5089 87.6551 18.1818 87.6551 16.686V13.7412C87.6551 12.0117 87.0332 11.3573 85.6936 11.3573H84.641V18.9763H81.627V0.279297H86.172C89.2818 0.279297 90.6214 1.68157 90.6214 4.57962V6.02867C90.6214 7.94512 89.9994 9.20716 88.6598 9.81481C90.1429 10.4225 90.6692 11.8247 90.6692 13.7879V16.686C90.6692 17.5741 90.6692 18.2752 91.0041 18.9763H87.9422ZM84.641 2.94363V8.693H85.8371C86.9375 8.693 87.6551 8.22554 87.6551 6.72978V4.90682C87.6551 3.55128 87.1767 2.99038 86.1242 2.99038H84.6889L84.641 2.94363Z" fill="#EE3A85"/>
<path d="M95.7836 8.13195H99.8981V10.7963H95.7836V16.2652H100.998V18.9295H92.7695V0.232422H100.998V2.89676H95.7836V8.13195Z" fill="#EE3A85"/>
<path d="M105.991 8.13195H110.105V10.7963H105.991V16.2652H111.205V18.9295H102.977V0.232422H111.205V2.89676H105.991V8.13195Z" fill="#EE3A85"/>
<path d="M119.483 18.9763C119.34 18.5089 119.196 18.1818 119.196 16.686V13.7412C119.196 12.0117 118.574 11.3573 117.235 11.3573H116.182V18.9763H113.168V0.279297H117.713C120.823 0.279297 122.162 1.68157 122.162 4.57962V6.02867C122.162 7.94512 121.54 9.20716 120.201 9.81481C121.684 10.4225 122.21 11.8247 122.21 13.7879V16.686C122.21 17.5741 122.21 18.2752 122.545 18.9763H119.483ZM116.23 2.94363V8.693H117.426C118.526 8.693 119.244 8.22554 119.244 6.72978V4.90682C119.244 3.55128 118.766 2.99038 117.713 2.99038H116.278L116.23 2.94363Z" fill="#EE3A85"/>
<path d="M68.385 35.7591V38.2364C68.385 41.228 66.8541 42.9574 63.8878 42.9574C60.9216 42.9574 59.3906 41.228 59.3906 38.2364V28.514C59.3906 25.5224 60.9216 23.793 63.8878 23.793C66.8541 23.793 68.385 25.5224 68.385 28.514V30.3369H65.5623V28.3269C65.5623 26.9714 64.9404 26.504 63.9835 26.504C63.0267 26.504 62.4047 27.0181 62.4047 28.3269V38.4234C62.4047 39.7789 63.0267 40.2463 63.9835 40.2463C64.9404 40.2463 65.5623 39.7789 65.5623 38.4234V35.7591H68.385Z" fill="#EE3A85"/>
<path d="M70.1504 28.514C70.1504 25.5224 71.777 23.793 74.7433 23.793C77.7095 23.793 79.3362 25.5224 79.3362 28.514V38.2364C79.3362 41.228 77.7095 42.9574 74.7433 42.9574C71.777 42.9574 70.1504 41.228 70.1504 38.2364V28.514ZM73.1166 38.4234C73.1166 39.7789 73.7386 40.2463 74.6954 40.2463C75.6523 40.2463 76.2742 39.7322 76.2742 38.4234V28.3269C76.2742 26.9714 75.6523 26.504 74.6954 26.504C73.7386 26.504 73.1166 27.0181 73.1166 28.3269V38.4234Z" fill="#EE3A85"/>
<path d="M84.2289 24.0254V38.4689C84.2289 39.8245 84.8509 40.2919 85.8077 40.2919C86.7646 40.2919 87.3865 39.8245 87.3865 38.4689V24.0254H90.2092V38.2819C90.2092 41.2735 88.6783 43.003 85.712 43.003C82.7458 43.003 81.2148 41.2735 81.2148 38.2819V24.0254H84.2289Z" fill="#EE3A85"/>
<path d="M95.0825 29.1671V42.7225H92.3555V24.0254H96.135L99.2448 35.2437V24.0254H101.924V42.7225H98.8142L95.0825 29.1671Z" fill="#EE3A85"/>
<path d="M108.242 23.793C111.161 23.793 112.692 25.5224 112.692 28.514V29.1216H109.869V28.3269C109.869 26.9714 109.343 26.504 108.386 26.504C107.429 26.504 106.903 27.0181 106.903 28.3269C106.903 32.1598 112.787 32.9078 112.787 38.2364C112.787 41.228 111.256 42.9574 108.29 42.9574C105.324 42.9574 103.793 41.228 103.793 38.2364V37.0679H106.616V38.4234C106.616 39.7789 107.238 40.2463 108.194 40.2463C109.151 40.2463 109.773 39.7789 109.773 38.4234C109.773 34.5905 103.889 33.8426 103.889 28.514C103.889 25.5224 105.372 23.793 108.338 23.793H108.242Z" fill="#EE3A85"/>
<path d="M117.567 31.9249H121.681V34.5893H117.567V40.0582H122.782V42.7225H114.553V24.0254H122.782V26.6898H117.567V31.9249Z" fill="#EE3A85"/>
<path d="M124.793 24.0254H127.807V40.0582H132.783V42.7225H124.841V24.0254H124.793Z" fill="#EE3A85"/>
<path d="M134.213 24.0254H137.227V40.0582H142.203V42.7225H134.261V24.0254H134.213Z" fill="#EE3A85"/>
<path d="M143.604 24.0254H146.618V42.7225H143.604V24.0254Z" fill="#EE3A85"/>
<path d="M151.631 29.1671V42.7225H148.904V24.0254H152.684L155.794 35.2437V24.0254H158.473V42.7225H155.363L151.631 29.1671Z" fill="#EE3A85"/>
<path d="M165.282 32.3001H169.492V38.2364C169.492 41.228 167.961 42.9574 164.995 42.9574C162.029 42.9574 160.498 41.228 160.498 38.2364V28.514C160.498 25.5224 162.029 23.793 164.995 23.793C167.961 23.793 169.492 25.5224 169.492 28.514V30.3369H166.67V28.3269C166.67 26.9714 166.048 26.504 165.091 26.504C164.134 26.504 163.512 27.0181 163.512 28.3269V38.4234C163.512 39.7789 164.134 40.2463 165.091 40.2463C166.048 40.2463 166.67 39.7789 166.67 38.4234V34.9645H165.282V32.3001Z" fill="#EE3A85"/>
</svg>
