<svg width="170" height="60" viewBox="0 0 170 60" fill="none" xmlns="http://www.w3.org/2000/svg">
<g clip-path="url(#clip0_6930_6276)">
<path d="M65.4815 37.0156L61.0877 24.3483H60.9942C61.1344 26.218 61.1811 27.9942 61.1811 29.6302V37.0156H58.9375V21.8242H62.4432L66.65 33.8838H66.6968L71.0438 21.8242H74.5495V37.0156H72.1657V29.5367C72.1657 28.7889 72.1657 27.8072 72.2124 26.5919C72.2124 25.3766 72.3059 24.6287 72.3059 24.395H72.2124L67.6784 37.0623H65.4815V37.0156Z" fill="#2D388D"/>
<path d="M83.3081 37.2476C81.5319 37.2476 80.1295 36.7335 79.1012 35.7052C78.0729 34.6768 77.6055 33.2277 77.6055 31.4048C77.6055 29.5818 78.0728 28.0393 79.0077 26.9642C79.9425 25.8892 81.2046 25.375 82.8406 25.375C84.3364 25.375 85.5517 25.8424 86.4398 26.7773C87.3279 27.7121 87.7486 28.9742 87.7486 30.5634V31.8722H80.0828C80.0828 32.9941 80.41 33.8354 80.9709 34.4431C81.5319 35.0508 82.3265 35.3312 83.3548 35.3312C84.0559 35.3312 84.6636 35.2844 85.2713 35.1442C85.8789 35.004 86.4866 34.817 87.1409 34.4898V36.453C86.5333 36.7335 85.9256 36.9204 85.318 37.0607C84.7103 37.2009 84.0092 37.2476 83.2146 37.2476H83.3081ZM82.8406 27.198C82.046 27.198 81.4384 27.4317 80.9709 27.9459C80.5035 28.46 80.223 29.1611 80.1295 30.096H85.318C85.318 29.1611 85.0843 28.4133 84.6169 27.9459C84.1962 27.4784 83.5885 27.198 82.7939 27.198H82.8406Z" fill="#2D388D"/>
<path d="M94.7908 35.2837C95.3984 35.2837 95.9593 35.1902 96.567 35.0032V36.8262C96.2865 36.9664 95.9593 37.0599 95.5387 37.1066C95.118 37.2001 94.6505 37.2469 94.2299 37.2469C91.9395 37.2469 90.7709 36.0316 90.7709 33.6009V27.4309H89.1816V26.3559L90.8644 25.4678L91.7057 23.0371H93.2015V25.608H96.4735V27.4777H93.2015V33.6009C93.2015 34.2086 93.3417 34.6293 93.6222 34.9097C93.9026 35.1902 94.3233 35.3305 94.7908 35.3305V35.2837Z" fill="#2D388D"/>
<path d="M106.067 37.0122L105.6 35.4229H105.506C104.946 36.124 104.385 36.5915 103.824 36.8719C103.263 37.1524 102.562 37.2458 101.674 37.2458C100.552 37.2458 99.6636 36.9186 99.0559 36.311C98.4015 35.7033 98.1211 34.8619 98.1211 33.7401C98.1211 32.5716 98.5418 31.6835 99.4299 31.0758C100.318 30.4682 101.627 30.1409 103.45 30.0942H105.413V29.4398C105.413 28.6919 105.226 28.1778 104.899 27.8038C104.572 27.4299 104.011 27.2429 103.31 27.2429C102.702 27.2429 102.141 27.3364 101.627 27.5234C101.066 27.7104 100.552 27.8973 100.084 28.131L99.2897 26.4016C99.8973 26.0744 100.598 25.8406 101.346 25.6536C102.094 25.4667 102.795 25.4199 103.45 25.4199C104.899 25.4199 106.021 25.7472 106.768 26.3548C107.516 27.0092 107.89 27.9908 107.89 29.3464V37.0589H106.161L106.067 37.0122ZM102.421 35.3761C103.31 35.3761 104.011 35.1424 104.572 34.6282C105.086 34.1141 105.366 33.4597 105.366 32.5248V31.5433H103.87C102.702 31.6368 101.907 31.8237 101.346 32.1977C100.832 32.5249 100.552 33.0858 100.552 33.7869C100.552 34.3011 100.692 34.675 101.019 34.9555C101.346 35.2359 101.767 35.3761 102.375 35.3761H102.421Z" fill="#2D388D"/>
<path d="M120.174 32.8999C120.174 34.2554 119.706 35.3304 118.725 36.0783C117.743 36.8262 116.388 37.2469 114.705 37.2469C113.022 37.2469 111.573 36.9665 110.498 36.4523V34.1151C111.199 34.4423 111.947 34.6761 112.695 34.863C113.443 35.05 114.191 35.1435 114.892 35.1435C115.873 35.1435 116.621 34.9565 117.089 34.5826C117.556 34.2087 117.79 33.6945 117.79 33.0868C117.79 32.5259 117.556 32.0585 117.136 31.6378C116.715 31.2638 115.827 30.7964 114.471 30.2355C113.069 29.6746 112.134 29.0202 111.526 28.3191C110.965 27.618 110.685 26.7298 110.685 25.7482C110.685 24.4862 111.152 23.5046 112.041 22.7567C112.929 22.0088 114.144 21.6816 115.64 21.6816C117.136 21.6816 118.538 22.0088 119.987 22.6165L119.192 24.6264C117.837 24.0655 116.621 23.785 115.593 23.785C114.798 23.785 114.191 23.972 113.77 24.2992C113.349 24.6264 113.162 25.0939 113.162 25.7015C113.162 26.0755 113.256 26.4493 113.396 26.7298C113.536 27.0102 113.817 27.2908 114.237 27.5245C114.611 27.7582 115.313 28.0854 116.294 28.506C117.416 28.9735 118.211 29.3941 118.725 29.8148C119.239 30.2355 119.613 30.6562 119.847 31.1704C120.08 31.6846 120.221 32.2922 120.221 32.9466L120.174 32.8999Z" fill="#ED3B83"/>
<path d="M127.136 35.2837C127.744 35.2837 128.305 35.1902 128.913 35.0032V36.8262C128.632 36.9664 128.305 37.0599 127.884 37.1066C127.464 37.2001 126.996 37.2469 126.576 37.2469C124.285 37.2469 123.117 36.0316 123.117 33.6009V27.4309H121.527V26.3559L123.21 25.4678L124.051 23.0371H125.547V25.608H128.819V27.4777H125.547V33.6009C125.547 34.2086 125.687 34.6293 125.968 34.9097C126.248 35.1902 126.669 35.3305 127.136 35.3305V35.2837Z" fill="#ED3B83"/>
<path d="M138.382 37.0122L137.914 35.4229H137.821C137.26 36.124 136.699 36.5915 136.138 36.8719C135.577 37.1524 134.876 37.2458 133.988 37.2458C132.866 37.2458 131.978 36.9186 131.37 36.311C130.716 35.7033 130.436 34.8619 130.436 33.7401C130.436 32.5716 130.856 31.6835 131.744 31.0758C132.632 30.4682 133.941 30.1409 135.764 30.0942H137.727V29.4398C137.727 28.6919 137.54 28.1778 137.213 27.8038C136.886 27.4299 136.325 27.2429 135.624 27.2429C135.016 27.2429 134.455 27.3364 133.941 27.5234C133.38 27.7104 132.866 27.8973 132.399 28.131L131.604 26.4016C132.212 26.0744 132.913 25.8406 133.661 25.6536C134.409 25.4667 135.11 25.4199 135.764 25.4199C137.213 25.4199 138.335 25.7472 139.083 26.3548C139.831 27.0092 140.205 27.9908 140.205 29.3464V37.0589H138.475L138.382 37.0122ZM134.736 35.3761C135.624 35.3761 136.325 35.1424 136.886 34.6282C137.4 34.1141 137.681 33.4597 137.681 32.5248V31.5433H136.185C135.016 31.6368 134.222 31.8237 133.661 32.1977C133.147 32.5249 132.866 33.0858 132.866 33.7869C132.866 34.3011 133.006 34.675 133.334 34.9555C133.661 35.2359 134.081 35.3761 134.689 35.3761H134.736Z" fill="#ED3B83"/>
<path d="M141.808 25.5625H144.473L146.81 32.0597C147.184 32.9946 147.418 33.836 147.511 34.6774H147.605C147.651 34.3034 147.791 33.836 147.932 33.2751C148.119 32.7142 148.96 30.1433 150.549 25.5625H153.167L148.259 38.557C147.371 40.9409 145.875 42.1562 143.818 42.1562C143.257 42.1562 142.743 42.1095 142.229 41.9692V40.0528C142.603 40.1463 143.024 40.193 143.491 40.193C144.66 40.193 145.501 39.4918 145.969 38.1363L146.389 37.0612L141.762 25.5625H141.808Z" fill="#ED3B83"/>
<path d="M37.1452 26.5448H35.6962C36.1636 26.7785 36.5844 27.0122 36.9583 27.2459H37.1452V43.9798C37.1452 45.7093 36.2571 47.2518 34.7614 48.1399L27.6565 52.3C26.9086 52.7207 26.0672 52.9544 25.2259 52.9544C24.3845 52.9544 23.5431 52.7207 22.7952 52.3L15.6436 48.1399C14.1478 47.2985 13.2597 45.7093 13.2597 43.9798V27.2459H13.4934C13.8674 26.9654 14.2881 26.7318 14.8022 26.498H13.2597H12.5586V43.9798C12.5586 45.943 13.6337 47.766 15.3164 48.7476L22.468 52.9076C23.3094 53.3751 24.2443 53.6556 25.2259 53.6556C26.2075 53.6556 27.1423 53.3751 28.0304 52.9076L35.1353 48.7476C36.8181 47.766 37.8931 45.943 37.8931 43.9798V26.498H37.192L37.1452 26.5448Z" fill="#2C3A8C"/>
<path d="M25.2118 51.875C24.6041 51.875 24.0432 51.7348 23.529 51.4076L16.0969 47.1072C15.0686 46.4996 14.4609 45.4245 14.4609 44.2092V28.3634H15.1153C18.0134 28.3634 20.9114 27.6623 23.529 26.4002L25.0716 25.6523L27.0347 26.5405C29.6523 27.7558 32.4569 28.3634 35.355 28.3634H35.8691V44.2092C35.8691 45.3778 35.2147 46.4996 34.2331 47.1072L26.8478 51.4076C26.3336 51.6881 25.7727 51.875 25.165 51.875M15.4893 29.3918V44.2559C15.4893 45.0973 15.91 45.8452 16.6579 46.2659L24.09 50.5662C24.7911 50.9869 25.726 50.9869 26.4271 50.5662L33.8125 46.2659C34.5136 45.8452 34.981 45.0973 34.981 44.2559V29.4385C32.1297 29.3917 29.3718 28.7374 26.7543 27.5221L25.2118 26.8209L24.09 27.3818C21.4256 28.6439 18.4808 29.345 15.5828 29.4385" fill="#ED3B83"/>
<path d="M49.4908 17.0549L25.9792 10.3239C25.5118 10.1837 24.9976 10.1837 24.5302 10.3239L1.0186 17.0549C1.0186 17.0549 0.691406 17.2419 0.691406 17.4288C0.691406 17.6158 0.831633 17.756 1.0186 17.8027L12.7043 21.1215C12.6108 21.4019 12.5641 21.6356 12.5641 21.9161V27.0111C12.5641 27.0111 12.5641 27.0578 12.5641 27.1045C12.5641 27.2448 12.7043 27.3382 12.8445 27.385C12.8912 27.385 12.9847 27.385 13.0315 27.385C13.0782 27.385 13.1717 27.385 13.2652 27.385C13.3119 27.385 13.3587 27.385 13.4054 27.2915C13.4054 27.2915 13.4522 27.2915 13.4989 27.2448C13.8728 26.9643 14.2935 26.7306 14.8077 26.4969C16.8176 25.5621 19.7157 24.9077 22.9409 24.7207C23.5486 24.7207 24.1563 24.6739 24.7639 24.6272C24.9041 24.6272 25.0911 24.6272 25.2313 24.6272C25.3248 24.6272 25.465 24.6272 25.5585 24.6272C26.2129 24.6272 26.8206 24.6272 27.4282 24.674C30.7469 24.8609 33.6917 25.5153 35.7017 26.4969C36.1691 26.7306 36.5898 26.9643 36.9638 27.198C36.9638 27.198 37.0105 27.198 37.0573 27.2448C37.0573 27.2448 37.104 27.2448 37.1507 27.2915C37.2909 27.3383 37.4779 27.3383 37.6182 27.2915C37.7584 27.2915 37.8051 27.198 37.8986 27.1045C37.8986 27.0578 37.9453 27.0111 37.9453 26.9176V21.8227C37.9453 21.5422 37.8986 21.3085 37.8051 21.028L43.4142 19.4388V25.4686C43.0403 25.4686 42.6663 25.6088 42.4794 25.7957C42.3391 25.936 41.0304 29.4885 41.0304 29.4885C41.0304 30.4233 43.461 30.47 43.9284 30.47C44.3958 30.47 46.8265 30.4701 46.8265 29.4885C46.8265 29.4885 45.5644 26.0762 45.3775 25.7957C45.3775 25.7957 44.8165 25.5153 44.4426 25.4686V19.1116L49.4908 17.6625C49.4908 17.6625 49.818 17.4755 49.818 17.2886C49.818 17.1016 49.6777 16.9614 49.4908 16.9147M25.5118 23.8326C25.5118 23.8326 25.3248 23.8326 25.2313 23.8326C25.0911 23.8326 24.9041 23.8326 24.7639 23.8326C20.2299 23.8793 16.1165 24.7674 13.5924 26.1697V21.9161C13.5924 19.392 18.9211 17.2419 25.2313 17.2419C31.5416 17.2419 36.917 19.392 36.917 21.9161V26.1697C34.3461 24.7674 30.1393 23.8793 25.5585 23.8326M44.4893 26.4034C44.7231 26.9176 45.4709 28.8808 45.7046 29.4885C45.4709 29.5819 44.8165 29.7221 43.8817 29.7221C42.9468 29.7221 42.2924 29.5819 42.0587 29.4885C42.2924 28.8808 43.0403 26.9176 43.274 26.4034C43.5077 26.3567 44.2556 26.3567 44.4893 26.4034ZM37.4311 20.3736C35.9354 18.0832 31.1209 16.4005 25.2313 16.4005C19.3417 16.4005 14.5272 18.0364 13.0315 20.3736L2.70134 17.4288L24.8574 11.0718C25.0911 11.0251 25.3716 11.0251 25.6053 11.0718L47.7613 17.4288L37.4311 20.3736Z" fill="#2C3A8C"/>
<path d="M0.496578 15.1844C0.216122 15.1844 -0.0643314 14.9974 -0.157817 14.717C-0.251302 14.343 -0.0643385 13.9691 0.309603 13.8756L24.6158 6.63046C25.2235 6.44349 25.8311 6.44349 26.4388 6.63046L50.6983 13.6419C51.0722 13.7354 51.2591 14.1093 51.1657 14.4832C51.0722 14.8572 50.6983 15.0441 50.3243 14.9507L26.0648 7.93925C25.7376 7.84577 25.3637 7.84577 25.0365 7.93925L0.730306 15.1844C0.730306 15.1844 0.590074 15.1844 0.543331 15.1844" fill="#ED3B83"/>
<path d="M20.4898 32.9941H23.7618C24.2292 32.9941 24.6032 33.368 24.6032 33.8355V37.1075C24.6032 37.5749 24.2292 37.9489 23.7618 37.9489H20.4898C20.0224 37.9489 19.6484 37.5749 19.6484 37.1075V33.8355C19.6484 33.368 20.0224 32.9941 20.4898 32.9941Z" fill="#ED3B83"/>
<path d="M26.6206 32.9941H29.8926C30.36 32.9941 30.734 33.368 30.734 33.8355V37.1075C30.734 37.5749 30.36 37.9489 29.8926 37.9489H26.6206C26.1532 37.9489 25.7793 37.5749 25.7793 37.1075V33.8355C25.7793 33.368 26.1532 32.9941 26.6206 32.9941Z" fill="#ED3B83"/>
<path d="M20.4898 39.1191H23.7618C24.2292 39.1191 24.6032 39.493 24.6032 39.9605V43.2325C24.6032 43.6999 24.2292 44.0739 23.7618 44.0739H20.4898C20.0224 44.0739 19.6484 43.6999 19.6484 43.2325V39.9605C19.6484 39.493 20.0224 39.1191 20.4898 39.1191Z" fill="#ED3B83"/>
<path d="M26.6206 39.1191H29.8926C30.36 39.1191 30.734 39.493 30.734 39.9605V43.2325C30.734 43.6999 30.36 44.0739 29.8926 44.0739H26.6206C26.1532 44.0739 25.7793 43.6999 25.7793 43.2325V39.9605C25.7793 39.493 26.1532 39.1191 26.6206 39.1191Z" fill="#ED3B83"/>
</g>
<defs>
<clipPath id="clip0_6930_6276">
<rect width="170" height="60" fill="white"/>
</clipPath>
</defs>
</svg>
