<svg width="183" height="60" viewBox="0 0 183 60" fill="none" xmlns="http://www.w3.org/2000/svg">
<g clip-path="url(#clip0_6930_6256)">
<path d="M66.2443 37.8695L61.7317 24.8599H61.6357C61.7797 26.7801 61.8277 28.6044 61.8277 30.2846V37.8695H59.5234V22.2676H63.1239L67.4444 34.6531H67.4925L71.957 22.2676H75.5574V37.8695H73.1092V30.1886C73.1092 29.4205 73.1091 28.4124 73.1571 27.1642C73.1571 25.9161 73.2532 25.148 73.2532 24.9079H73.1571L68.5005 37.9176H66.2443V37.8695Z" fill="#2D388D"/>
<path d="M84.5521 38.0627C82.7278 38.0627 81.2876 37.5346 80.2315 36.4785C79.1753 35.4223 78.6953 33.9342 78.6953 32.0619C78.6953 30.1897 79.1753 28.6055 80.1354 27.5014C81.0956 26.3972 82.3918 25.8691 84.072 25.8691C85.6082 25.8691 86.8563 26.3492 87.7684 27.3093C88.6806 28.2695 89.1126 29.5656 89.1126 31.1978V32.542H81.2396C81.2396 33.6941 81.5757 34.5582 82.1518 35.1823C82.7278 35.8064 83.5439 36.0944 84.6 36.0944C85.3201 36.0944 85.9442 36.0464 86.5683 35.9024C87.1924 35.7584 87.8164 35.5664 88.4885 35.2303V37.2466C87.8644 37.5346 87.2404 37.7266 86.6163 37.8706C85.9922 38.0147 85.2721 38.0627 84.456 38.0627H84.5521ZM84.1199 27.7414C83.3038 27.7414 82.6798 27.9814 82.1997 28.5095C81.7197 29.0376 81.4316 29.7576 81.3356 30.7178H86.6643C86.6643 29.7576 86.4243 28.9895 85.9442 28.5095C85.5121 28.0294 84.8881 27.7414 84.072 27.7414H84.1199Z" fill="#2D388D"/>
<path d="M96.3779 36.0444C97.002 36.0444 97.5781 35.9484 98.2021 35.7563V37.6286C97.9141 37.7726 97.5781 37.8686 97.146 37.9166C96.714 38.0126 96.2339 38.0606 95.8018 38.0606C93.4496 38.0606 92.2494 36.8125 92.2494 34.3162V27.9794H90.6172V26.8752L92.3454 25.9631L93.2096 23.4668H94.7457V26.1071H98.1061V28.0274H94.7457V34.3162C94.7457 34.9402 94.8897 35.3723 95.1777 35.6603C95.4658 35.9484 95.8978 36.0924 96.3779 36.0924V36.0444Z" fill="#2D388D"/>
<path d="M107.927 37.8684L107.447 36.2362H107.351C106.775 36.9563 106.198 37.4363 105.622 37.7244C105.046 38.0124 104.326 38.1084 103.414 38.1084C102.262 38.1084 101.35 37.7723 100.726 37.1483C100.054 36.5242 99.7656 35.6601 99.7656 34.508C99.7656 33.3078 100.198 32.3957 101.11 31.7716C102.022 31.1475 103.366 30.8115 105.238 30.7635H107.255V30.0914C107.255 29.3233 107.063 28.7952 106.726 28.4112C106.39 28.0271 105.814 27.8351 105.094 27.8351C104.47 27.8351 103.894 27.9311 103.366 28.1231C102.79 28.3152 102.262 28.5072 101.782 28.7472L100.966 26.971C101.59 26.635 102.31 26.3949 103.078 26.2029C103.846 26.0109 104.566 25.9629 105.238 25.9629C106.726 25.9629 107.879 26.2989 108.647 26.923C109.415 27.5951 109.799 28.6032 109.799 29.9954V37.9164H108.023L107.927 37.8684ZM104.23 36.1401C105.142 36.1401 105.862 35.9001 106.438 35.3721C106.967 34.844 107.255 34.1719 107.255 33.2118V32.2037H105.718C104.518 32.2997 103.702 32.4917 103.126 32.8757C102.598 33.2118 102.31 33.7879 102.31 34.508C102.31 35.036 102.454 35.4201 102.79 35.7081C103.126 35.9961 103.558 36.1401 104.182 36.1401H104.23Z" fill="#2D388D"/>
<path d="M113.5 37.8695V22.2676H116.044V37.8695H113.5Z" fill="#ED3B83"/>
<path d="M130.258 37.8718H127.761V30.6229C127.761 29.7108 127.569 29.0387 127.233 28.6066C126.849 28.1746 126.273 27.9345 125.505 27.9345C124.449 27.9345 123.681 28.2706 123.201 28.8946C122.721 29.5187 122.481 30.5749 122.481 32.015V37.8718H119.984V26.0623H121.953L122.289 27.5985H122.433C122.769 27.0224 123.297 26.5904 123.969 26.3024C124.641 26.0143 125.361 25.8223 126.129 25.8223C128.961 25.8223 130.354 27.2625 130.354 30.1428V37.8238L130.258 37.8718Z" fill="#ED3B83"/>
<path d="M141.672 34.5114C141.672 35.6635 141.24 36.5276 140.424 37.1517C139.608 37.7758 138.408 38.0638 136.824 38.0638C135.24 38.0638 133.991 37.8238 133.031 37.3437V35.1835C134.423 35.8075 135.72 36.1436 136.92 36.1436C138.456 36.1436 139.224 35.6635 139.224 34.7514C139.224 34.4634 139.128 34.2233 138.984 33.9833C138.792 33.7913 138.552 33.5992 138.12 33.3592C137.736 33.1672 137.208 32.9272 136.488 32.6391C135.144 32.1111 134.231 31.583 133.751 31.0549C133.271 30.5269 133.031 29.8548 133.031 28.9907C133.031 27.9826 133.415 27.2145 134.231 26.6384C135.048 26.0623 136.152 25.8223 137.544 25.8223C138.936 25.8223 140.232 26.1103 141.48 26.6864L140.664 28.5586C139.416 28.0305 138.312 27.7905 137.448 27.7905C136.104 27.7905 135.48 28.1746 135.48 28.9427C135.48 29.3267 135.672 29.6148 136.008 29.9028C136.344 30.1428 137.112 30.5269 138.264 30.9589C139.224 31.343 139.944 31.679 140.376 32.015C140.808 32.3511 141.144 32.6871 141.336 33.1192C141.528 33.5513 141.672 34.0313 141.672 34.6074V34.5114Z" fill="#ED3B83"/>
<path d="M152.652 37.8689L152.316 36.3327H152.172C151.836 36.8608 151.308 37.2928 150.684 37.6289C150.06 37.9649 149.292 38.1089 148.476 38.1089C147.035 38.1089 145.979 37.7729 145.259 37.0528C144.539 36.3327 144.203 35.2766 144.203 33.8364V26.1554H146.747V33.4043C146.747 34.3164 146.939 34.9885 147.323 35.4206C147.708 35.8526 148.284 36.0926 149.052 36.0926C150.108 36.0926 150.876 35.7566 151.356 35.1325C151.836 34.5085 152.076 33.4523 152.076 31.9642V26.1074H154.572V37.9169H152.604L152.652 37.8689Z" fill="#ED3B83"/>
<path d="M164.187 25.8714C164.715 25.8714 165.099 25.8714 165.435 25.9674L165.195 28.3197C164.859 28.2237 164.475 28.1757 164.091 28.1757C163.083 28.1757 162.267 28.5117 161.643 29.1358C161.019 29.8079 160.731 30.624 160.731 31.6801V37.8249H158.234V26.0154H160.203L160.539 28.0797H160.683C161.067 27.3596 161.595 26.8315 162.219 26.3995C162.843 25.9674 163.515 25.7754 164.235 25.7754L164.187 25.8714Z" fill="#ED3B83"/>
<path d="M172.763 38.0627C170.939 38.0627 169.499 37.5346 168.442 36.4785C167.386 35.4223 166.906 33.9342 166.906 32.0619C166.906 30.1897 167.386 28.6055 168.346 27.5014C169.307 26.3972 170.603 25.8691 172.283 25.8691C173.819 25.8691 175.067 26.3492 175.979 27.3093C176.892 28.2695 177.324 29.5656 177.324 31.1978V32.542H169.451C169.451 33.6941 169.787 34.5582 170.363 35.1823C170.939 35.8064 171.755 36.0944 172.811 36.0944C173.531 36.0944 174.155 36.0464 174.779 35.9024C175.403 35.7584 176.027 35.5664 176.7 35.2303V37.2466C176.075 37.5346 175.451 37.7266 174.827 37.8706C174.203 38.0147 173.483 38.0627 172.667 38.0627H172.763ZM172.283 27.7414C171.467 27.7414 170.843 27.9814 170.363 28.5095C169.883 29.0376 169.595 29.7576 169.499 30.7178H174.827C174.827 29.7576 174.587 28.9895 174.107 28.5095C173.675 28.0294 173.051 27.7414 172.235 27.7414H172.283Z" fill="#ED3B83"/>
<path d="M37.4029 26.8792H35.9147C36.3948 27.1192 36.8269 27.3593 37.2109 27.5993H37.4029V44.6415C37.4029 46.3697 36.4908 48.0019 34.9546 48.866L27.7057 53.0905C26.9376 53.5225 26.0735 53.7626 25.2574 53.7626C24.4413 53.7626 23.5772 53.5225 22.8091 53.0905L15.5122 48.866C14.024 48.0019 13.0638 46.3697 13.0638 44.6415V27.5993H13.3039C13.6879 27.3113 14.12 27.0712 14.6 26.8312H13.0638H12.3438V44.5934C12.3438 46.6097 13.3999 48.4339 15.1281 49.4421L22.425 53.6666C23.2891 54.1466 24.2493 54.4347 25.2574 54.4347C26.2655 54.4347 27.2256 54.1466 28.0897 53.6666L35.3386 49.4421C37.0669 48.4339 38.123 46.5617 38.123 44.5934V26.7832H37.4029V26.8792Z" fill="#2C3A8C"/>
<path d="M25.3126 52.7039C24.7365 52.7039 24.1124 52.5599 23.6324 52.2238L16.0474 47.8553C14.9913 47.2312 14.3672 46.1271 14.3672 44.9269V28.7969H15.0393C18.0157 28.7969 20.944 28.0768 23.6324 26.8287L25.2166 26.0605L27.2328 26.9727C29.9211 28.2208 32.7535 28.7969 35.6819 28.7969H36.2099V44.9269C36.2099 46.1271 35.5859 47.2312 34.5297 47.8553L27.0408 52.2238C26.5127 52.5119 25.9367 52.7039 25.3126 52.7039ZM15.3753 29.805V44.9269C15.3753 45.743 15.8074 46.5591 16.5275 46.9432L24.1124 51.3117C24.8325 51.7438 25.7446 51.7438 26.4647 51.3117L33.9537 46.9432C34.6737 46.5111 35.1058 45.743 35.1058 44.9269V29.853C32.1775 29.805 29.3931 29.1329 26.7048 27.9328L25.1206 27.2127L23.9684 27.7408C21.2801 29.0369 18.2557 29.757 15.2793 29.805" fill="#ED3B83"/>
<path d="M32.2187 34.3193L31.6906 33.6952C31.3546 33.3111 30.7785 33.2151 30.3945 33.5511L23.1455 39.3599C22.7615 39.6959 22.1374 39.5999 21.8494 39.2159L20.4572 37.4876C20.1212 37.1036 19.5451 37.0076 19.161 37.3436L18.537 37.8717C18.1529 38.2077 18.0569 38.7838 18.3929 39.1679L21.4653 43.0083C21.8014 43.3924 22.3774 43.4884 22.7615 43.1524L32.1227 35.6634C32.5067 35.3274 32.6027 34.7513 32.2667 34.3673" fill="#ED3B83"/>
<path d="M49.9429 17.2248L26.0359 10.36C25.5558 10.2159 25.0278 10.2159 24.5477 10.36L0.640728 17.2248C0.640728 17.2248 0.304688 17.4168 0.304688 17.6089C0.304688 17.8009 0.448704 17.9449 0.640728 17.9929L12.5462 21.4013C12.4502 21.6414 12.4022 21.9294 12.4022 22.2174V27.4021C12.4022 27.4021 12.4022 27.4501 12.4022 27.4981C12.4022 27.6421 12.5462 27.7381 12.6902 27.7861C12.7382 27.7861 12.8342 27.7861 12.8822 27.7861C12.9302 27.7861 13.0263 27.7861 13.1223 27.7861C13.1703 27.7861 13.2183 27.7861 13.2663 27.7381C13.2663 27.7381 13.3143 27.7381 13.3623 27.6901C13.7463 27.4021 14.1784 27.1621 14.6585 26.922C16.7227 25.9619 19.6511 25.2898 22.9635 25.0978C23.5876 25.0978 24.2117 25.0498 24.8357 25.0018C24.9797 25.0018 25.1718 25.0018 25.3158 25.0018C25.4118 25.0018 25.5559 25.0018 25.6519 25.0018C26.2759 25.0018 26.948 25.0018 27.5721 25.0498C30.9325 25.2418 33.9569 25.9139 36.0211 26.874C36.5012 27.114 36.9332 27.3541 37.3173 27.5941C37.3173 27.5941 37.3653 27.5941 37.4133 27.6421C37.4133 27.6421 37.4613 27.6421 37.5094 27.6901C37.6534 27.7381 37.8454 27.7381 37.9894 27.6901C38.1334 27.6901 38.1815 27.5941 38.2775 27.4981C38.2775 27.4501 38.3255 27.4021 38.3255 27.3061V22.1214C38.3255 21.8334 38.2775 21.5934 38.1814 21.3053L43.8461 19.6731V25.8179C43.4621 25.8179 43.078 25.9619 42.886 26.1539C42.742 26.2979 41.3978 29.8984 41.3978 29.8984C41.3978 30.8105 43.8461 30.8585 44.3742 30.8585C44.9022 30.8585 47.3506 30.8585 47.3506 29.8984C47.3506 29.8984 46.0544 26.3939 45.8624 26.1539C45.8624 26.1539 45.2863 25.8659 44.9503 25.8179V19.3371L50.0869 17.8489C50.0869 17.8489 50.423 17.6569 50.423 17.4648C50.423 17.2728 50.2789 17.1288 50.0869 17.0808M25.5558 24.1377C25.5558 24.1377 25.3638 24.1377 25.2678 24.1377C25.1238 24.1377 24.9318 24.1377 24.7878 24.1377C20.1792 24.1857 16.0026 25.0978 13.4103 26.49V22.1694C13.4103 19.5771 18.835 17.3688 25.2678 17.3688C31.7006 17.3688 37.1253 19.5771 37.1253 22.1694V26.49C34.485 25.0498 30.2124 24.1857 25.5558 24.1377ZM44.9023 26.778C45.1423 27.3061 45.9104 29.3223 46.1505 29.9464C45.9104 30.0424 45.2383 30.1864 44.2782 30.1864C43.3181 30.1864 42.694 30.0424 42.4059 29.9464C42.6459 29.3223 43.4141 27.3061 43.6541 26.778C43.8942 26.73 44.6622 26.73 44.9023 26.778ZM37.7013 20.6333C36.1652 18.281 31.2686 16.6007 25.2678 16.6007C19.2671 16.6007 14.3704 18.281 12.8342 20.6333L2.27292 17.6089L24.8357 11.128C25.0758 11.08 25.3638 11.08 25.6038 11.128L48.1667 17.6089L37.6534 20.6333H37.7013Z" fill="#2C3A8C"/>
<path d="M0.102799 15.3557C-0.185237 15.3557 -0.47327 15.1637 -0.569282 14.8757C-0.665294 14.4916 -0.473278 14.1076 -0.0892293 14.0116L24.6339 6.61863C25.258 6.4266 25.882 6.4266 26.4581 6.61863L51.1332 13.7716C51.5172 13.8676 51.7093 14.2516 51.6133 14.6357C51.5173 15.0197 51.1332 15.2117 50.7491 15.1157L26.074 7.96283C25.738 7.86681 25.3539 7.86681 25.0179 7.96283L0.294828 15.3557C0.294828 15.3557 0.150805 15.3557 0.102799 15.3557Z" fill="#ED3B83"/>
</g>
<defs>
<clipPath id="clip0_6930_6256">
<rect width="183" height="60" fill="white"/>
</clipPath>
</defs>
</svg>
