<svg width="212" height="60" viewBox="0 0 212 60" fill="none" xmlns="http://www.w3.org/2000/svg">
<g clip-path="url(#clip0_6930_6235)">
<path d="M66.8068 37.1523L62.2942 24.485H62.1982C62.3422 26.3548 62.3903 28.131 62.3903 29.767V37.1523H60.0859V21.9609H63.6864L68.007 34.0206H68.055L72.5196 21.9609H76.12V37.1523H73.6717V29.6735C73.6717 28.9256 73.6717 27.944 73.7197 26.7287C73.7197 25.5134 73.8157 24.7655 73.8157 24.5318H73.7197L69.0631 37.1991H66.8068V37.1523Z" fill="#2D388D"/>
<path d="M85.0989 37.3863C83.2747 37.3863 81.8345 36.8721 80.7784 35.8438C79.7223 34.8155 79.2422 33.3665 79.2422 31.5435C79.2422 29.7205 79.7223 28.178 80.6824 27.1029C81.6425 26.0278 82.9386 25.5137 84.6188 25.5137C86.155 25.5137 87.4032 25.9811 88.3153 26.916C89.2274 27.8508 89.6595 29.1129 89.6595 30.7021V32.0109H81.7865C81.7865 33.1327 82.1226 33.9741 82.6986 34.5818C83.2747 35.1894 84.0908 35.4699 85.1469 35.4699C85.867 35.4699 86.4911 35.4231 87.1152 35.2829C87.7393 35.1427 88.3633 34.9557 89.0354 34.6285V36.5917C88.4113 36.8722 87.7872 37.0591 87.1632 37.1994C86.5391 37.3396 85.819 37.3863 85.0029 37.3863H85.0989ZM84.6188 27.3366C83.8027 27.3366 83.1787 27.5704 82.6986 28.0845C82.2186 28.5987 81.9305 29.2998 81.8345 30.2347H87.1632C87.1632 29.2998 86.9232 28.552 86.4431 28.0845C86.011 27.6171 85.387 27.3366 84.5709 27.3366H84.6188Z" fill="#2D388D"/>
<path d="M96.8935 35.3775C97.5176 35.3775 98.0937 35.284 98.7178 35.097V36.92C98.4297 37.0602 98.0937 37.1537 97.6616 37.2004C97.2296 37.2939 96.7495 37.3406 96.3175 37.3406C93.9652 37.3406 92.7651 36.1253 92.7651 33.6947V27.5247H91.1328V26.4496L92.861 25.5615L93.7252 23.1309H95.2613V25.7017H98.6217V27.5714H95.2613V33.6947C95.2613 34.3024 95.4053 34.7231 95.6934 35.0035C95.9814 35.284 96.4135 35.4242 96.8935 35.4242V35.3775Z" fill="#2D388D"/>
<path d="M108.489 37.1527L108.009 35.5635H107.913C107.337 36.2646 106.761 36.732 106.185 37.0125C105.609 37.293 104.889 37.3864 103.977 37.3864C102.824 37.3864 101.912 37.0592 101.288 36.4516C100.616 35.8439 100.328 35.0026 100.328 33.8807C100.328 32.7122 100.76 31.8241 101.672 31.2164C102.584 30.6088 103.929 30.2816 105.801 30.2348H107.817V29.5804C107.817 28.8325 107.625 28.3183 107.289 27.9444C106.953 27.5705 106.377 27.3835 105.657 27.3835C105.033 27.3835 104.457 27.477 103.929 27.664C103.353 27.8509 102.824 28.0379 102.344 28.2716L101.528 26.5421C102.152 26.2149 102.872 25.9812 103.641 25.7942C104.409 25.6073 105.129 25.5605 105.801 25.5605C107.289 25.5605 108.441 25.8877 109.209 26.4954C109.977 27.1498 110.361 28.1314 110.361 29.4869V37.1995H108.585L108.489 37.1527ZM104.745 35.5167C105.657 35.5167 106.377 35.283 106.953 34.7689C107.481 34.2547 107.769 33.6003 107.769 32.6654V31.6838H106.233C105.033 31.7773 104.217 31.9643 103.641 32.3382C103.112 32.6654 102.824 33.2264 102.824 33.9275C102.824 34.4417 102.968 34.8156 103.304 35.0961C103.641 35.3765 104.073 35.5167 104.697 35.5167H104.745Z" fill="#2D388D"/>
<path d="M116.521 37.1523H113.977V21.9609H122.762V24.0644H116.473V28.7854H122.33V30.8888H116.473V37.1056L116.521 37.1523Z" fill="#ED3B83"/>
<path d="M125.219 22.6621C125.219 22.2414 125.363 21.9142 125.603 21.6337C125.843 21.4 126.179 21.2598 126.659 21.2598C127.139 21.2598 127.427 21.4 127.667 21.6337C127.907 21.8674 128.051 22.1946 128.051 22.6621C128.051 23.1295 127.907 23.4099 127.667 23.6437C127.427 23.8774 127.091 24.0176 126.659 24.0176C126.227 24.0176 125.843 23.8774 125.603 23.6437C125.363 23.4099 125.219 23.0827 125.219 22.6621ZM127.859 37.1523H125.363V25.6536H127.859V37.1523Z" fill="#ED3B83"/>
<path d="M141.844 37.1504H139.347V30.0922C139.347 29.2041 139.155 28.5497 138.819 28.129C138.435 27.7083 137.859 27.4746 137.091 27.4746C136.035 27.4746 135.267 27.8018 134.787 28.4095C134.307 29.0172 134.067 30.0455 134.067 31.4477V37.1504H131.57V25.6517H133.539L133.875 27.1474H134.019C134.355 26.5865 134.883 26.1658 135.555 25.8854C136.227 25.6049 136.947 25.418 137.715 25.418C140.547 25.418 141.94 26.8202 141.94 29.6248V37.1036L141.844 37.1504Z" fill="#ED3B83"/>
<path d="M152.7 37.1508L152.22 35.5615H152.124C151.548 36.2627 150.972 36.7301 150.396 37.0105C149.82 37.291 149.1 37.3845 148.187 37.3845C147.035 37.3845 146.123 37.0573 145.499 36.4496C144.827 35.842 144.539 35.0006 144.539 33.8788C144.539 32.7102 144.971 31.8221 145.883 31.2145C146.795 30.6068 148.14 30.2796 150.012 30.2329H152.028V29.5785C152.028 28.8306 151.836 28.3164 151.5 27.9424C151.164 27.5685 150.588 27.3816 149.868 27.3816C149.244 27.3816 148.668 27.475 148.14 27.662C147.563 27.849 147.035 28.0359 146.555 28.2696L145.739 26.5402C146.363 26.213 147.083 25.9793 147.851 25.7923C148.62 25.6053 149.34 25.5586 150.012 25.5586C151.5 25.5586 152.652 25.8858 153.42 26.4934C154.188 27.1478 154.572 28.1294 154.572 29.485V37.1975H152.796L152.7 37.1508ZM148.956 35.5148C149.868 35.5148 150.588 35.2811 151.164 34.7669C151.692 34.2527 151.98 33.5983 151.98 32.6635V31.6819H150.444C149.244 31.7754 148.427 31.9623 147.851 32.3363C147.323 32.6635 147.035 33.2244 147.035 33.9255C147.035 34.4397 147.179 34.8137 147.515 35.0941C147.851 35.3746 148.283 35.5148 148.908 35.5148H148.956Z" fill="#ED3B83"/>
<path d="M168.32 37.1504H165.824V30.0922C165.824 29.2041 165.632 28.5497 165.296 28.129C164.912 27.7083 164.336 27.4746 163.568 27.4746C162.511 27.4746 161.743 27.8018 161.263 28.4095C160.783 29.0172 160.543 30.0455 160.543 31.4477V37.1504H158.047V25.6517H160.015L160.351 27.1474H160.495C160.831 26.5865 161.359 26.1658 162.031 25.8854C162.703 25.6049 163.424 25.418 164.192 25.418C167.024 25.418 168.416 26.8202 168.416 29.6248V37.1036L168.32 37.1504Z" fill="#ED3B83"/>
<path d="M176.613 37.3863C174.837 37.3863 173.493 36.8721 172.533 35.8438C171.621 34.8155 171.141 33.3664 171.141 31.4967C171.141 29.627 171.621 28.0845 172.581 27.0562C173.541 26.0279 174.933 25.5137 176.805 25.5137C178.054 25.5137 179.158 25.7474 180.166 26.1681L179.398 28.1313C178.342 27.7106 177.477 27.5236 176.757 27.5236C174.741 27.5236 173.685 28.8324 173.685 31.4967C173.685 32.8055 173.925 33.7404 174.453 34.3948C174.981 35.0492 175.701 35.3764 176.709 35.3764C177.813 35.3764 178.87 35.0959 179.878 34.5818V36.7319C179.446 36.9656 178.966 37.1526 178.438 37.2928C177.909 37.3863 177.333 37.4798 176.565 37.4798L176.613 37.3863Z" fill="#ED3B83"/>
<path d="M187.794 37.3863C185.97 37.3863 184.53 36.8721 183.474 35.8438C182.418 34.8155 181.938 33.3665 181.938 31.5435C181.938 29.7205 182.418 28.178 183.378 27.1029C184.338 26.0278 185.634 25.5137 187.314 25.5137C188.85 25.5137 190.099 25.9811 191.011 26.916C191.923 27.8508 192.355 29.1129 192.355 30.7021V32.0109H184.482C184.482 33.1327 184.818 33.9741 185.394 34.5818C185.97 35.1894 186.786 35.4699 187.842 35.4699C188.562 35.4699 189.186 35.4231 189.81 35.2829C190.435 35.1427 191.059 34.9557 191.731 34.6285V36.5917C191.107 36.8722 190.483 37.0591 189.858 37.1994C189.234 37.3396 188.514 37.3863 187.698 37.3863H187.794ZM187.362 27.3366C186.546 27.3366 185.922 27.5704 185.442 28.0845C184.962 28.5987 184.674 29.2998 184.578 30.2347H189.907C189.907 29.2998 189.666 28.552 189.186 28.0845C188.754 27.6171 188.13 27.3366 187.314 27.3366H187.362Z" fill="#ED3B83"/>
<path d="M37.952 26.541H36.4638C36.9439 26.7747 37.3759 27.0084 37.76 27.2422H37.952V43.9293C37.952 45.612 37.0399 47.2013 35.5037 48.0427L28.2548 52.156C27.4867 52.5767 26.6226 52.8104 25.7585 52.8104C24.8944 52.8104 24.0783 52.5767 23.3102 52.156L15.9653 48.0427C14.4291 47.2013 13.5169 45.612 13.5169 43.9293V27.2889H13.757C14.141 27.0084 14.5731 26.7747 15.0531 26.541H13.5169H12.7969V43.9293C12.7969 45.8925 13.853 47.7155 15.6292 48.697L22.9741 52.8104C23.8382 53.2778 24.7984 53.5583 25.8065 53.5583C26.8146 53.5583 27.7747 53.2778 28.6388 52.8104L35.8878 48.697C37.616 47.7155 38.6721 45.8925 38.6721 43.9293V26.541H37.952Z" fill="#2C3A8C"/>
<path d="M25.8137 51.7836C25.2376 51.7836 24.6135 51.6434 24.0855 51.3162L16.5005 47.0158C15.4444 46.4082 14.8203 45.3331 14.8203 44.1645V28.4123H15.4924C18.4688 28.4123 21.4451 27.7111 24.0855 26.449L25.6696 25.7012L27.6859 26.5893C30.3743 27.8046 33.2546 28.4123 36.183 28.4123H36.711V44.1645C36.711 45.3331 36.087 46.4549 35.0308 47.0158L27.4939 51.3162C26.9658 51.5966 26.3898 51.7836 25.7657 51.7836M15.8284 29.3939V44.1645C15.8284 45.0059 16.2605 45.7538 17.0286 46.1745L24.6135 50.4748C25.3336 50.8955 26.2457 50.8955 26.9658 50.4748L34.5028 46.1745C35.2229 45.7538 35.6549 45.0059 35.6549 44.1645V29.3939C32.7265 29.3471 29.8942 28.6927 27.2539 27.5241L25.6696 26.823L24.5175 27.3839C21.8292 28.646 18.8048 29.3471 15.7804 29.3939" fill="#ED3B83"/>
<path d="M50.5412 17.1019L26.5382 10.4177C26.0581 10.2774 25.5301 10.2774 25.05 10.4177L1.04698 17.1019C1.04698 17.1019 0.710938 17.2889 0.710938 17.4758C0.710938 17.6628 0.854954 17.803 1.04698 17.8498L12.9525 21.1685C12.8565 21.4022 12.8085 21.6827 12.8085 21.9631V27.0113C12.8085 27.0113 12.8085 27.0581 12.8085 27.1048C12.8085 27.245 12.9525 27.3386 13.0965 27.3853C13.1445 27.3853 13.2405 27.3853 13.2885 27.3853C13.3365 27.3853 13.4325 27.3853 13.5285 27.3853C13.5765 27.3853 13.6245 27.3853 13.6725 27.2918C13.6725 27.2918 13.7206 27.2918 13.7686 27.2451C14.1526 26.9646 14.5847 26.7309 15.0647 26.4972C17.129 25.5623 20.0574 24.9079 23.3698 24.721C23.9939 24.721 24.6179 24.6742 25.242 24.6275C25.386 24.6275 25.5781 24.6275 25.7221 24.6275C25.8181 24.6275 25.9621 24.6275 26.0581 24.6275C26.6822 24.6275 27.3543 24.6275 27.9784 24.6742C31.3388 24.8612 34.3631 25.5156 36.4754 26.4972C36.9555 26.7309 37.3875 26.9646 37.7716 27.1983C37.7716 27.1983 37.8196 27.1983 37.8676 27.2451C37.8676 27.2451 37.9156 27.2451 37.9636 27.2918C38.1076 27.3385 38.2997 27.3385 38.4437 27.2918C38.5877 27.2918 38.6357 27.1983 38.7317 27.1048C38.7317 27.0581 38.7797 27.0114 38.7797 26.9179V21.8697C38.7797 21.5892 38.7317 21.3555 38.6357 21.075L44.3484 19.4858V25.5156C43.9644 25.5156 43.5803 25.6558 43.3883 25.8428C43.2443 25.983 41.9001 29.4887 41.9001 29.5355C41.9001 30.4703 44.3964 30.5171 44.8765 30.5171C45.3565 30.5171 47.8529 30.5171 47.8529 29.5355C47.8529 29.5355 46.5567 26.1232 46.3646 25.8428C46.3646 25.8428 45.7886 25.5623 45.4045 25.5156V19.2053L50.5412 17.7563C50.5412 17.7563 50.8772 17.5693 50.8772 17.3824C50.8772 17.1954 50.7332 17.0552 50.5412 17.0084M26.0581 23.8796C26.0581 23.8796 25.8661 23.8796 25.7701 23.8796C25.6261 23.8796 25.4341 23.8796 25.29 23.8796C20.6815 23.9263 16.4569 24.8144 13.8646 26.17V21.9631C13.8646 19.439 19.3373 17.2889 25.7701 17.2889C32.2029 17.2889 37.6756 19.439 37.6756 21.9631V26.17C35.0352 24.7677 30.7627 23.8796 26.0581 23.8796ZM45.4526 26.4504C45.6926 26.9646 46.4607 28.9278 46.7007 29.5355C46.4607 29.6289 45.7886 29.7692 44.8285 29.7692C43.8684 29.7692 43.2443 29.6289 42.9563 29.5355C43.1963 28.9278 43.9644 26.9646 44.2044 26.4504C44.4444 26.4037 45.2126 26.4037 45.4526 26.4504ZM38.2516 20.4206C36.7155 18.1303 31.7708 16.4942 25.7701 16.4942C19.7693 16.4942 14.8727 18.1303 13.3365 20.4206L2.7752 17.4758L25.434 11.1656C25.6741 11.1188 25.9621 11.1188 26.2021 11.1656L48.861 17.4758L38.2997 20.4206H38.2516Z" fill="#2C3A8C"/>
<path d="M0.509049 15.2781C0.221013 15.2781 -0.0670203 15.0911 -0.163032 14.8107C-0.259044 14.4367 -0.0670276 14.0628 0.317021 13.9693L25.1362 6.72421C25.7602 6.53724 26.3843 6.53724 26.9604 6.72421L51.7315 13.7356C52.1156 13.8291 52.3075 14.203 52.2115 14.577C52.1155 14.9509 51.7315 15.1379 51.3474 15.0444L26.5763 8.033C26.2403 7.93952 25.8562 7.93952 25.5202 8.033L0.701078 15.2781C0.701078 15.2781 0.557055 15.2781 0.509049 15.2781Z" fill="#ED3B83"/>
<path d="M28.1992 43.4634C27.7672 43.9776 27.2391 44.3048 26.567 44.4917V45.4266H24.9828V44.4917C24.3107 44.3515 23.7827 43.9776 23.3506 43.4634C22.9666 42.9492 22.7266 42.3416 22.7266 41.5937V41.173L24.5508 40.986V41.4535C24.5508 41.8742 24.6468 42.2481 24.8868 42.4818C25.0788 42.7155 25.4149 42.8557 25.7509 42.8557C26.087 42.8557 26.423 42.7623 26.615 42.5285C26.8071 42.2948 26.9511 42.0611 26.9511 41.6872C26.9511 41.3132 26.807 40.9393 26.519 40.5654C26.231 40.1914 25.7989 39.7707 25.1748 39.3033C24.4548 38.7424 23.9267 38.1815 23.4946 37.6205C23.1106 37.0596 22.8706 36.452 22.8706 35.7509C22.8706 35.003 23.0626 34.3486 23.3986 33.8344C23.7347 33.3202 24.2627 32.993 24.8868 32.8528V31.918H26.471V32.8528C27.1431 32.993 27.6232 33.3202 28.0072 33.8344C28.3913 34.3486 28.5353 35.003 28.5353 35.7509V36.0781L26.711 36.265V35.9378C26.711 35.4704 26.615 35.1432 26.423 34.8627C26.231 34.629 25.9909 34.4888 25.6549 34.4888C25.3189 34.4888 25.0788 34.5823 24.8868 34.7693C24.6948 34.9562 24.5988 35.2367 24.5988 35.6106C24.5988 35.9846 24.7428 36.3585 25.0308 36.6857C25.3189 37.0129 25.7509 37.4336 26.375 37.9478C27.0951 38.5554 27.6711 39.1163 28.0552 39.6305C28.4392 40.1447 28.6313 40.7991 28.6313 41.4535C28.6313 42.2014 28.4393 42.809 28.0072 43.3232L28.1992 43.4634Z" fill="#ED3B83"/>
</g>
<defs>
<clipPath id="clip0_6930_6235">
<rect width="211.568" height="60" fill="white"/>
</clipPath>
</defs>
</svg>
