<svg width="175" height="60" viewBox="0 0 175 60" fill="none" xmlns="http://www.w3.org/2000/svg">
<g clip-path="url(#clip0_6930_6297)">
<path d="M67.5216 38.3402L63.0091 25.3306H62.9131C63.0571 27.2508 63.105 29.0751 63.105 30.7553V38.3402H60.8008V22.7383H64.4012L68.7217 35.1238H68.7698L73.2343 22.7383H76.8348V38.3402H74.3865V30.6592C74.3865 29.8911 74.3865 28.883 74.4345 27.6348C74.4345 26.3867 74.5305 25.6187 74.5305 25.3786H74.4345L69.7779 38.3882H67.5216V38.3402Z" fill="#2D388D"/>
<path d="M85.8294 38.5333C84.0052 38.5333 82.5649 38.0053 81.5088 36.9491C80.4527 35.893 79.9727 34.4048 79.9727 32.5326C79.9727 30.6604 80.4527 29.0762 81.4128 27.972C82.3729 26.8679 83.6691 26.3398 85.3493 26.3398C86.8855 26.3398 88.1337 26.8199 89.0458 27.78C89.9579 28.7402 90.39 30.0363 90.39 31.6685V33.0127H82.517C82.517 34.1648 82.853 35.0289 83.4291 35.653C84.0052 36.2771 84.8212 36.5651 85.8774 36.5651C86.5975 36.5651 87.2216 36.5171 87.8456 36.3731C88.4697 36.2291 89.0938 36.037 89.7659 35.701V37.7172C89.1418 38.0053 88.5177 38.1973 87.8936 38.3414C87.2695 38.4854 86.5495 38.5333 85.7334 38.5333H85.8294ZM85.3493 28.2121C84.5332 28.2121 83.9092 28.4521 83.4291 28.9802C82.949 29.5083 82.661 30.2283 82.5649 31.1884H87.8936C87.8936 30.2283 87.6536 29.4603 87.1736 28.9802C86.6935 28.5001 86.1174 28.2121 85.3013 28.2121H85.3493Z" fill="#2D388D"/>
<path d="M97.624 36.517C98.2481 36.517 98.8242 36.421 99.4482 36.229V38.1012C99.1602 38.2452 98.8242 38.3412 98.3921 38.3892C97.96 38.4853 97.48 38.5333 97.0479 38.5333C94.6956 38.5333 93.4955 37.2851 93.4955 34.7888V28.452H91.8633V27.3478L93.5915 26.4357L94.4556 23.9395H95.9918V26.5798H99.3522V28.5H95.9918V34.7888C95.9918 35.4129 96.1358 35.8449 96.4238 36.133C96.7119 36.421 97.1439 36.565 97.624 36.565V36.517Z" fill="#2D388D"/>
<path d="M109.204 38.3391L108.724 36.7069H108.628C108.052 37.427 107.476 37.9071 106.9 38.1951C106.324 38.4832 105.604 38.5792 104.691 38.5792C103.539 38.5792 102.627 38.2431 102.003 37.619C101.331 36.9949 101.043 36.1309 101.043 34.9787C101.043 33.7786 101.475 32.8664 102.387 32.2424C103.299 31.6183 104.643 31.2822 106.516 31.2342H108.532V30.5621C108.532 29.794 108.34 29.266 108.004 28.8819C107.668 28.4979 107.092 28.3058 106.372 28.3058C105.748 28.3058 105.171 28.4019 104.643 28.5939C104.067 28.7859 103.539 28.9779 103.059 29.218L102.243 27.4418C102.867 27.1057 103.587 26.8657 104.355 26.6736C105.123 26.4816 105.844 26.4336 106.516 26.4336C108.004 26.4336 109.156 26.7697 109.924 27.3938C110.692 28.0659 111.076 29.074 111.076 30.4662V38.3871H109.3L109.204 38.3391ZM105.46 36.6109C106.372 36.6109 107.092 36.3709 107.668 35.8428C108.196 35.3147 108.484 34.6427 108.484 33.6826V32.6744H106.948C105.748 32.7704 104.931 32.9624 104.355 33.3465C103.779 33.7305 103.539 34.2586 103.539 34.9787C103.539 35.5068 103.683 35.8908 104.019 36.1789C104.355 36.4669 104.787 36.6109 105.411 36.6109H105.46Z" fill="#2D388D"/>
<path d="M117.244 38.3402H114.699V22.7383H123.484V24.8985H117.196V29.7471H123.052V31.9074H117.196V38.2922L117.244 38.3402Z" fill="#ED3B83"/>
<path d="M128.594 38.3394H126.098V21.7773H128.594V38.3394Z" fill="#ED3B83"/>
<path d="M130.341 26.5312H133.077L135.478 33.2041C135.862 34.1642 136.102 35.0283 136.198 35.8924H136.294C136.342 35.5084 136.486 35.0284 136.63 34.4523C136.822 33.8762 137.686 31.2358 139.318 26.5312H142.006L136.966 39.8769C136.054 42.3252 134.518 43.5734 132.405 43.5734C131.829 43.5734 131.301 43.5254 130.773 43.3814V41.4131C131.157 41.5092 131.589 41.5572 132.069 41.5572C133.269 41.5572 134.133 40.8371 134.614 39.4449L135.046 38.3408L130.293 26.5312H130.341Z" fill="#ED3B83"/>
<path d="M38.4805 27.1507H36.9923C37.4724 27.3908 37.9044 27.6308 38.2885 27.8708H38.4805V45.0569C38.4805 46.8332 37.5684 48.4174 36.0322 49.3295L28.7353 53.602C27.9672 54.0341 27.1031 54.2741 26.239 54.2741C25.3749 54.2741 24.5107 54.0341 23.7906 53.602L16.4458 49.3295C14.9096 48.4654 13.9974 46.8332 13.9974 45.0569V27.8708H14.2375C14.6215 27.5827 15.0536 27.3427 15.5816 27.1027H13.9974H13.2773V45.009C13.2773 47.0252 14.3815 48.8974 16.1097 49.9055L23.4546 54.1781C24.3187 54.6582 25.2788 54.9462 26.287 54.9462C27.2951 54.9462 28.2552 54.6582 29.1193 54.1781L36.4162 49.9055C38.1445 48.8974 39.2486 47.0252 39.2486 45.009V27.0547H38.5285L38.4805 27.1507Z" fill="#2C3A8C"/>
<path d="M26.2718 53.1716C25.6478 53.1716 25.0717 53.0276 24.5436 52.6915L16.9107 48.275C15.8545 47.6509 15.2305 46.5468 15.2305 45.2986V29.0246H15.9026C18.8789 29.0246 21.8553 28.3045 24.5436 27.0083L26.1278 26.2402L28.1441 27.1524C30.8324 28.4005 33.7128 29.0246 36.6891 29.0246H37.2172V45.2507C37.2172 46.4508 36.5452 47.603 35.537 48.179L27.9521 52.5956C27.424 52.8836 26.8479 53.0756 26.2239 53.0756M16.2386 30.1287V45.3466C16.2386 46.2107 16.6706 46.9789 17.4387 47.4109L25.0717 51.8275C25.7918 52.2595 26.7519 52.2595 27.472 51.8275L35.0569 47.4109C35.777 46.9789 36.2571 46.2107 36.2571 45.3466V30.1287C33.3287 30.0807 30.4964 29.4086 27.8081 28.1604L26.2239 27.4404L25.0717 28.0164C22.3353 29.3126 19.359 30.0327 16.3346 30.1287" fill="#ED3B83"/>
<path d="M51.1121 17.4584L27.0131 10.5455C26.5331 10.4015 26.005 10.4015 25.5249 10.5455L1.42588 17.4584C1.42588 17.4584 1.08984 17.6504 1.08984 17.8424C1.08984 18.0345 1.23386 18.1785 1.42588 18.2265L13.4274 21.6349C13.3314 21.9229 13.2834 22.163 13.2834 22.4511V27.6837C13.2834 27.6837 13.2834 27.7317 13.2834 27.7797C13.2834 27.9237 13.4274 28.0197 13.5714 28.0678C13.6194 28.0678 13.7154 28.0678 13.7634 28.0678C13.8114 28.0678 13.9075 28.0678 14.0035 28.0678C14.0515 28.0678 14.0995 28.0677 14.1475 27.9717C14.1475 27.9717 14.1955 27.9717 14.2435 27.9237C14.6276 27.6357 15.0596 27.3957 15.5877 27.1556C17.6519 26.1955 20.6283 25.5234 23.9407 25.3314C24.5648 25.3314 25.1889 25.2833 25.813 25.2353C25.957 25.2353 26.149 25.2353 26.293 25.2353C26.389 25.2353 26.5331 25.2353 26.6291 25.2353C27.3012 25.2353 27.9252 25.2354 28.5493 25.2834C31.9577 25.4754 34.9821 26.1475 37.0464 27.1556C37.5264 27.3957 37.9584 27.6357 38.3425 27.8757C38.3425 27.8757 38.3905 27.8757 38.4385 27.9237C38.4385 27.9237 38.4866 27.9237 38.5346 27.9717C38.6786 28.0197 38.8706 28.0197 39.0146 27.9717C39.1587 27.9717 39.2067 27.8757 39.3027 27.7797C39.3027 27.7317 39.3507 27.6837 39.3507 27.5877V22.355C39.3507 22.067 39.3027 21.827 39.2066 21.5389L44.9194 19.9067V26.0995C44.5353 26.0995 44.1513 26.2435 43.9593 26.4355C43.8152 26.5795 42.471 30.228 42.471 30.228C42.471 31.1881 44.9674 31.2361 45.4474 31.2361C45.9275 31.2361 48.4238 31.2361 48.4238 30.228C48.4238 30.228 47.1276 26.7235 46.9356 26.4355C46.9356 26.4355 46.3596 26.1475 45.9755 26.0995V19.5707L51.1602 18.0825C51.1602 18.0825 51.4962 17.8905 51.4962 17.6984C51.4962 17.5064 51.3522 17.3624 51.1602 17.3144M26.5331 24.4193C26.5331 24.4193 26.341 24.4193 26.245 24.4193C26.101 24.4193 25.909 24.4193 25.7649 24.4193C21.1084 24.4673 16.8838 25.3794 14.2915 26.8196V22.4511C14.2915 19.8587 19.7642 17.6505 26.245 17.6505C32.7258 17.6505 38.1985 19.8587 38.1985 22.4511V26.8196C35.5581 25.3794 31.2376 24.4673 26.5331 24.4193ZM46.0235 27.0596C46.2635 27.5877 47.0316 29.6039 47.2716 30.228C47.0316 30.324 46.3595 30.4681 45.3994 30.4681C44.4393 30.4681 43.7672 30.324 43.5272 30.228C43.7672 29.6039 44.5353 27.5877 44.7754 27.0596C45.0154 27.0116 45.7835 27.0116 46.0235 27.0596ZM38.7746 20.8669C37.2384 18.5146 32.2938 16.7863 26.245 16.7863C20.1963 16.7863 15.2997 18.4666 13.7155 20.8669L3.10609 17.8424L25.861 11.3136C26.101 11.2656 26.3891 11.2656 26.6291 11.3136L49.3839 17.8424L38.7746 20.8669Z" fill="#2C3A8C"/>
<path d="M0.887955 15.5366C0.599919 15.5366 0.311886 15.3445 0.215874 15.0565C0.119862 14.6724 0.311879 14.2884 0.695927 14.1924L25.6111 6.75144C26.2351 6.55942 26.8592 6.55942 27.4833 6.75144L52.3505 13.9523C52.7345 14.0484 52.9265 14.4324 52.8305 14.8164C52.7345 15.2005 52.3504 15.3925 51.9664 15.2965L27.0992 8.0956C26.7632 7.99959 26.3791 7.99959 26.0431 8.0956L1.128 15.5366C1.128 15.5366 0.983978 15.5366 0.935972 15.5366" fill="#ED3B83"/>
<path d="M26.508 40.0174C25.932 40.2574 25.4039 40.4975 24.8758 40.7376C23.9637 41.1216 23.0036 41.5057 21.9954 41.6497C21.6114 41.6977 21.1794 41.6977 20.7473 41.6497C20.4593 41.6497 20.2192 41.4576 20.1232 41.1696C19.7872 40.4015 19.4511 39.6814 19.1151 38.9133C18.9711 38.6253 19.1151 38.3852 19.4031 38.3852C19.5951 38.3852 19.8352 38.3852 19.9792 38.5292C20.4113 38.8173 20.7953 39.1054 21.1794 39.3934C21.4194 39.5854 21.6594 39.6334 21.9954 39.4893C24.7798 38.2412 27.5642 36.993 30.3485 35.7449C31.1166 35.4088 31.8847 35.2168 32.7008 35.4569C32.9888 35.5529 33.2768 35.6969 33.5169 35.8889C33.8049 36.1289 33.8049 36.273 33.5169 36.465C33.0368 36.8011 32.5088 37.1371 32.0287 37.3771C31.2606 37.8092 30.4445 38.1452 29.6764 38.5292C29.5324 38.6253 29.4364 38.7213 29.3404 38.8653C28.6203 40.4015 27.9482 41.9377 27.2281 43.4739C27.1321 43.6659 27.0361 43.8579 26.8921 44.098C26.6521 44.434 26.316 44.626 25.932 44.77C25.788 44.818 25.6919 44.7701 25.7399 44.578C25.7879 44.242 25.884 43.906 25.932 43.5219C26.124 42.4178 26.364 41.3136 26.556 40.2575C26.556 40.2095 26.556 40.1134 26.556 40.0174" fill="#ED3B83"/>
<path d="M26.2818 36.8959C25.9457 37.0399 25.6097 37.184 25.2256 37.376C24.9376 37.52 24.6496 37.616 24.3616 37.76C24.2656 37.76 24.1696 37.76 24.0735 37.76C23.4015 37.3759 22.7773 36.9919 22.1533 36.5598C22.1533 36.5598 22.1052 36.5599 22.0572 36.5118C21.9132 36.3678 21.9132 36.3198 22.0572 36.2238C22.5373 35.9358 23.0174 35.8877 23.5455 36.0318C24.4576 36.3198 25.3217 36.5599 26.2338 36.8479C26.2338 36.8479 26.2338 36.8479 26.2338 36.8959" fill="#ED3B83"/>
</g>
<defs>
<clipPath id="clip0_6930_6297">
<rect width="175" height="60" fill="white"/>
</clipPath>
</defs>
</svg>
