<svg width="174" height="60" viewBox="0 0 174 60" fill="none" xmlns="http://www.w3.org/2000/svg">
<g clip-path="url(#clip0_6930_6194)">
<path d="M95.3192 45.0261H94.793V41.1465H96.2761C96.2761 41.1465 96.5153 41.1465 96.611 41.1465C96.7067 41.1465 96.8024 41.1465 96.8981 41.1465C97.0894 41.1465 97.2808 41.24 97.4243 41.3802C97.6635 41.5672 97.8071 41.8477 97.8071 42.2216C97.8071 42.5956 97.7114 42.876 97.52 43.063C97.3765 43.2032 97.2329 43.2967 97.0416 43.3434C96.898 43.3901 96.6588 43.4369 96.3718 43.4369H95.3671V45.0261H95.3192ZM95.3192 41.6139V43.0162H96.3239C96.9459 43.0162 97.2329 42.7825 97.2329 42.2683C97.2329 42.0814 97.1851 41.9411 97.0416 41.8009C96.9459 41.7074 96.8502 41.6607 96.7067 41.6607C96.6588 41.6607 96.5631 41.6607 96.5153 41.6607H95.2714L95.3192 41.6139Z" fill="#010101"/>
<path d="M98.6406 42.5536C98.8798 42.3199 99.2147 42.1797 99.5974 42.1797C100.028 42.1797 100.411 42.3199 100.65 42.6471C100.841 42.8809 100.937 43.208 100.937 43.6287C100.937 44.0961 100.793 44.4701 100.554 44.7038C100.315 44.9375 99.9802 45.0777 99.5974 45.0777C99.1668 45.0777 98.7841 44.9375 98.5449 44.6103C98.3535 44.3766 98.2578 44.0494 98.2578 43.6287C98.2578 43.1613 98.4013 42.7874 98.6406 42.5536ZM99.5974 44.7038C99.8366 44.7038 100.076 44.6103 100.219 44.4233C100.363 44.2363 100.459 43.9559 100.459 43.6287C100.459 42.9276 100.172 42.5536 99.5974 42.5536C99.0233 42.5536 98.7362 42.9276 98.7362 43.6287C98.7362 44.3298 99.0233 44.7038 99.5974 44.7038Z" fill="#010101"/>
<path d="M102.604 45.0291H102.078L101.217 42.2246H101.743L102.365 44.4682C102.365 44.4682 102.461 44.141 102.509 43.9073L102.939 42.2713H103.465L103.944 44.141C103.944 44.141 103.992 44.328 104.04 44.4215L104.709 42.2713H105.188L104.279 45.0758H103.752L103.274 43.3932C103.274 43.3932 103.274 43.2061 103.226 43.1127V43.0192V42.9257L102.652 45.0758L102.604 45.0291Z" fill="#010101"/>
<path d="M107.999 43.7671H105.846C105.846 44.4215 106.181 44.7487 106.707 44.7487C107.09 44.7487 107.329 44.5617 107.472 44.1878H107.999C107.855 44.8422 107.424 45.1694 106.755 45.1694C105.846 45.1694 105.367 44.7019 105.367 43.7203C105.367 43.2529 105.511 42.9257 105.75 42.6453C105.989 42.3648 106.324 42.2246 106.707 42.2246C107.09 42.2246 107.424 42.3648 107.664 42.5985C107.903 42.8789 108.046 43.2062 108.046 43.6736V43.8138L107.999 43.7671ZM107.52 43.3464V43.2062C107.52 43.2062 107.52 43.066 107.472 43.0192C107.329 42.7388 107.09 42.5518 106.755 42.5518C106.515 42.5518 106.324 42.6453 106.181 42.7855C106.037 42.9257 105.941 43.1127 105.941 43.3464H107.52Z" fill="#010101"/>
<path d="M109.092 45.031H108.613V42.2265H109.044V42.6471C109.044 42.6471 109.235 42.3667 109.283 42.3199C109.379 42.2264 109.522 42.1797 109.666 42.1797C109.809 42.1797 110.001 42.2264 110.144 42.3199L110.001 42.7406C110.001 42.7406 109.762 42.6471 109.618 42.6471C109.283 42.6471 109.092 42.9276 109.092 43.5353V45.031Z" fill="#010101"/>
<path d="M112.934 43.7671H110.781C110.781 44.4215 111.116 44.7487 111.642 44.7487C112.025 44.7487 112.264 44.5617 112.408 44.1878H112.934C112.791 44.8422 112.36 45.1694 111.69 45.1694C110.781 45.1694 110.303 44.7019 110.303 43.7203C110.303 43.2529 110.446 42.9257 110.685 42.6453C110.925 42.3648 111.26 42.2246 111.642 42.2246C112.025 42.2246 112.36 42.3648 112.599 42.5985C112.838 42.8789 112.982 43.2062 112.982 43.6736V43.8138L112.934 43.7671ZM112.456 43.3464V43.2062C112.456 43.2062 112.456 43.066 112.408 43.0192C112.264 42.7388 112.025 42.5518 111.69 42.5518C111.451 42.5518 111.26 42.6453 111.116 42.7855C110.973 42.9257 110.877 43.1127 110.877 43.3464H112.456Z" fill="#010101"/>
<path d="M115.421 44.699C115.229 44.9794 114.99 45.1196 114.607 45.1196C114.224 45.1196 113.937 44.9794 113.746 44.699C113.507 44.4185 113.363 44.0445 113.363 43.6238C113.363 43.2032 113.459 42.8292 113.698 42.5488C113.937 42.2683 114.224 42.1748 114.607 42.1748C114.942 42.1748 115.181 42.3151 115.373 42.5488V41.1465H115.851V45.0261H115.373V44.6522L115.421 44.699ZM114.081 44.4185C114.081 44.4185 114.416 44.699 114.655 44.699C114.894 44.699 115.038 44.6054 115.181 44.4185C115.325 44.2315 115.421 43.9978 115.421 43.6706C115.421 42.9227 115.181 42.5488 114.655 42.5488C114.129 42.5488 113.89 42.9227 113.89 43.6238C113.89 43.951 113.985 44.2315 114.129 44.4185H114.081Z" fill="#010101"/>
<path d="M118.629 45.0261H118.15V41.1465H118.629V42.5488C118.82 42.3151 119.107 42.1748 119.394 42.1748C119.777 42.1748 120.064 42.3151 120.255 42.5488C120.495 42.7825 120.59 43.1564 120.59 43.5771C120.59 44.0446 120.447 44.4185 120.208 44.699C119.968 44.9794 119.681 45.0729 119.346 45.0729C119.012 45.0729 118.725 44.9326 118.533 44.6522V45.0261H118.629ZM118.629 43.9978C118.629 43.9978 118.677 44.2315 118.772 44.3717C118.916 44.6055 119.107 44.7457 119.394 44.7457C119.921 44.7457 120.16 44.3717 120.16 43.6238C120.16 43.3434 120.112 43.063 119.968 42.876C119.825 42.689 119.634 42.5955 119.394 42.5955C119.155 42.5955 118.964 42.689 118.82 42.876C118.677 43.063 118.581 43.3434 118.581 43.6238C118.581 43.8108 118.581 43.9043 118.581 43.9978H118.629Z" fill="#010101"/>
<path d="M123.584 42.2265L122.484 45.0777C122.484 45.0777 122.484 45.0778 122.484 45.1245C122.484 45.1245 122.484 45.2647 122.484 45.3114C122.484 45.4049 122.436 45.4517 122.388 45.5452C122.341 45.6854 122.245 45.8257 122.197 45.8724C122.053 46.0594 121.862 46.1528 121.575 46.1528C121.527 46.1528 121.479 46.1528 121.384 46.1528C121.384 46.1528 121.336 46.1528 121.288 46.1528H121.24L121.192 45.6854H121.336C121.336 45.6854 121.432 45.6854 121.479 45.6854C121.671 45.6854 121.814 45.6387 121.862 45.4985C121.862 45.4517 121.91 45.3582 121.958 45.2647L122.054 44.9843L120.953 42.1797H121.479L122.101 43.8157C122.101 43.8157 122.245 44.2364 122.293 44.4701L122.388 44.2364C122.388 44.2364 122.484 44.0027 122.532 43.8624L123.154 42.2265H123.632H123.584Z" fill="#010101"/>
<path d="M126.081 45.0279H125.555V41.1483H126.368L127.325 43.9061C127.325 43.9061 127.373 44.0931 127.421 44.1866C127.421 44.1866 127.421 44.2801 127.468 44.3268V44.4203L127.612 44.0931C127.612 43.9996 127.66 43.9061 127.708 43.8126L128.664 41.1016H129.382V44.9812H128.856V41.756L127.708 44.9812H127.229L126.081 41.6625V44.9812V45.0279Z" fill="#010101"/>
<path d="M132.631 43.7671H130.478C130.478 44.4215 130.813 44.7487 131.34 44.7487C131.722 44.7487 131.962 44.5617 132.105 44.1878H132.631C132.488 44.8422 132.057 45.1694 131.387 45.1694C130.478 45.1694 130 44.7019 130 43.7203C130 43.2529 130.144 42.9257 130.383 42.6453C130.622 42.3648 130.957 42.2246 131.34 42.2246C131.722 42.2246 132.057 42.3648 132.296 42.5985C132.536 42.8789 132.679 43.2062 132.679 43.6736V43.8138L132.631 43.7671ZM132.153 43.3464V43.2062C132.153 43.2062 132.153 43.066 132.105 43.0192C131.962 42.7388 131.722 42.5518 131.387 42.5518C131.148 42.5518 130.957 42.6453 130.813 42.7855C130.67 42.9257 130.574 43.1127 130.574 43.3464H132.153Z" fill="#010101"/>
<path d="M133.821 42.5977V44.2804C133.821 44.2804 133.821 44.4207 133.821 44.4674C133.821 44.5142 133.821 44.5609 133.821 44.6077C133.821 44.6544 133.917 44.7012 134.06 44.7012C134.06 44.7012 134.108 44.7012 134.156 44.7012H134.252L134.347 45.1218C134.204 45.1218 134.108 45.1218 133.965 45.1218C133.678 45.1218 133.438 45.0284 133.343 44.8414C133.343 44.7947 133.295 44.7012 133.247 44.561C133.247 44.5142 133.247 44.4674 133.247 44.4207V42.5977H132.912V42.2238H133.247V41.5226L133.725 41.2422V42.2238H134.204V42.5977H133.725H133.821Z" fill="#010101"/>
<path d="M135.638 45.1245C134.968 45.1245 134.633 44.8441 134.633 44.3299C134.633 43.8625 134.92 43.582 135.542 43.4885H135.829C135.829 43.4885 136.068 43.4418 136.116 43.395C136.307 43.395 136.499 43.3015 136.642 43.3015V43.208C136.642 43.208 136.642 42.8809 136.499 42.7874C136.403 42.6471 136.212 42.6004 135.925 42.6004C135.685 42.6004 135.494 42.6471 135.35 42.7406C135.255 42.8341 135.207 42.9276 135.159 43.1145H134.681C134.824 42.4601 135.255 42.1797 135.972 42.1797C136.451 42.1797 136.786 42.2732 136.929 42.5069C137.025 42.6004 137.073 42.6939 137.073 42.8341C137.073 42.8808 137.073 42.9744 137.073 43.0211V44.2364C137.073 44.2364 137.073 44.4701 137.073 44.5636C137.073 44.7506 137.121 44.9375 137.216 45.0777H136.69C136.69 45.0777 136.594 44.844 136.594 44.7506C136.259 45.031 135.925 45.1712 135.542 45.1712L135.638 45.1245ZM136.642 43.6287C136.642 43.6287 136.355 43.7222 136.116 43.7689L135.638 43.8624C135.638 43.8624 135.35 43.9559 135.303 44.0027C135.207 44.0961 135.159 44.1897 135.159 44.3299C135.159 44.6103 135.35 44.7506 135.781 44.7506C136.068 44.7506 136.259 44.6571 136.451 44.4701C136.547 44.3766 136.594 44.2831 136.642 44.1429C136.642 44.0494 136.642 43.9559 136.642 43.7689V43.582V43.6287Z" fill="#010101"/>
<path d="M138.041 45.0261H137.467L138.998 41.1465H139.572L141.199 45.0261H140.577L140.098 43.8576H138.424L137.993 45.0261H138.041ZM139.524 42.2216C139.524 42.2216 139.476 42.0814 139.476 42.0346C139.428 41.8944 139.38 41.7074 139.333 41.5672C139.285 41.8009 139.189 42.0346 139.093 42.3151L138.663 43.4369H140.002L139.524 42.2216Z" fill="#010101"/>
<path d="M142.017 42.6004C142.209 42.3199 142.496 42.1797 142.831 42.1797C143.214 42.1797 143.501 42.3199 143.74 42.5536C143.979 42.8341 144.075 43.1613 144.075 43.582C144.075 44.0494 143.931 44.4234 143.692 44.7038C143.453 44.9843 143.166 45.0777 142.783 45.0777C142.496 45.0777 142.209 44.9375 142.017 44.7038V46.0593H141.539V42.1797H141.97V42.5536L142.017 42.6004ZM142.783 44.7038C142.783 44.7038 143.214 44.6103 143.357 44.4233C143.501 44.2363 143.596 43.9559 143.596 43.582C143.596 42.8808 143.357 42.5069 142.831 42.5069C142.592 42.5069 142.4 42.6004 142.257 42.7874C142.113 42.9743 142.017 43.2548 142.017 43.582C142.017 44.2831 142.257 44.657 142.783 44.657V44.7038Z" fill="#010101"/>
<path d="M145.125 42.6004C145.316 42.3199 145.603 42.1797 145.938 42.1797C146.321 42.1797 146.608 42.3199 146.847 42.5536C147.086 42.8341 147.182 43.1613 147.182 43.582C147.182 44.0494 147.039 44.4234 146.799 44.7038C146.56 44.9843 146.273 45.0777 145.89 45.0777C145.603 45.0777 145.316 44.9375 145.125 44.7038V46.0593H144.646V42.1797H145.077V42.5536L145.125 42.6004ZM145.89 44.7038C145.89 44.7038 146.321 44.6103 146.464 44.4233C146.608 44.2363 146.704 43.9559 146.704 43.582C146.704 42.8808 146.465 42.5069 145.938 42.5069C145.699 42.5069 145.508 42.6004 145.364 42.7874C145.221 42.9743 145.125 43.2548 145.125 43.582C145.125 44.2831 145.364 44.657 145.89 44.657V44.7038Z" fill="#010101"/>
<path d="M148.23 45.0261H147.752V41.1465H148.23V45.0261Z" fill="#010101"/>
<path d="M151.35 42.2265L150.25 45.0777C150.25 45.0777 150.25 45.0778 150.25 45.1245C150.25 45.1245 150.25 45.2647 150.25 45.3114C150.25 45.4049 150.202 45.4517 150.154 45.5452C150.106 45.6854 150.011 45.8257 149.963 45.8724C149.819 46.0594 149.628 46.1528 149.341 46.1528C149.293 46.1528 149.245 46.1528 149.149 46.1528C149.149 46.1528 149.101 46.1528 149.054 46.1528H149.006L148.958 45.6854H149.101C149.101 45.6854 149.197 45.6854 149.245 45.6854C149.436 45.6854 149.58 45.6387 149.628 45.4985C149.628 45.4517 149.676 45.3582 149.723 45.2647L149.819 44.9843L148.719 42.1797H149.245L149.867 43.8157C149.867 43.8157 150.01 44.2364 150.058 44.4701L150.154 44.2364C150.154 44.2364 150.25 44.0027 150.298 43.8624L150.92 42.2265H151.398H151.35Z" fill="#010101"/>
<path d="M48.8574 38.1605V17.5938H52.9719L61.5835 31.3361V17.5938H65.5545V38.1605H61.2965L52.8284 24.7454V38.1605H48.8574Z" fill="#2D348A"/>
<path d="M79.1726 31.2893L82.8565 29.5598C83.2871 31.0088 83.2393 32.3643 82.7608 33.6264C82.2824 34.8885 81.3734 35.9635 79.986 36.8984C77.833 38.3941 75.728 38.7681 73.6707 38.1137C72.0441 37.5528 70.6567 36.431 69.4128 34.7483C67.9775 32.7383 67.3555 30.7751 67.6426 28.9054C67.9296 27.0357 68.8386 25.4932 70.5131 24.3714C72.379 23.1093 74.2449 22.6887 76.2064 23.1561C78.1201 23.6235 79.986 25.1193 81.7083 27.5966L73.4315 33.2524C74.1492 34.1873 74.9625 34.7482 75.8237 34.9352C76.7327 35.1222 77.546 34.9352 78.3115 34.421C78.8377 34.0471 79.1726 33.6264 79.3162 33.1122C79.4597 32.5981 79.4119 31.9904 79.1726 31.2425V31.2893ZM77.0197 27.8771C76.3499 26.9422 75.5844 26.428 74.7711 26.241C73.9578 26.0541 73.1923 26.2411 72.5225 26.7085C71.8049 27.2227 71.3743 27.877 71.2786 28.7184C71.1829 29.5598 71.4221 30.4012 72.0919 31.2893L77.0197 27.9238V27.8771Z" fill="#2D348A"/>
<path d="M107.487 23.2487V26.3804H104.712V32.3636C104.712 33.5789 104.712 34.28 104.807 34.467C104.855 34.6539 104.999 34.8409 105.19 34.9811C105.382 35.1214 105.621 35.1681 105.86 35.1681C106.243 35.1681 106.769 35.0278 107.487 34.7941L107.822 37.8324C106.865 38.2064 105.812 38.4401 104.616 38.4401C103.898 38.4401 103.229 38.2998 102.655 38.0661C102.08 37.8324 101.65 37.5052 101.363 37.1313C101.076 36.7573 100.884 36.2431 100.789 35.5887C100.693 35.1213 100.645 34.1865 100.645 32.8309V26.3337H98.7793V23.202H100.645V20.2571L104.712 17.9668V23.2487H107.487Z" fill="#2D348A"/>
<path d="M109.408 31.4303L113.523 31.0563C113.762 32.4119 114.288 33.3936 115.054 34.048C115.819 34.7023 116.824 34.9828 118.116 34.9828C119.503 34.9828 120.508 34.7023 121.225 34.1414C121.943 33.5805 122.278 32.9261 122.278 32.1782C122.278 31.7108 122.134 31.2901 121.847 30.9161C121.56 30.5889 121.034 30.2618 120.316 30.0281C119.838 29.8411 118.69 29.5606 116.919 29.14C114.623 28.579 113.044 27.9246 112.135 27.0833C110.843 25.9614 110.174 24.5592 110.174 22.9232C110.174 21.8948 110.461 20.9132 111.083 19.9783C111.705 19.0435 112.566 18.3891 113.714 17.8749C114.862 17.4075 116.25 17.1738 117.876 17.1738C120.508 17.1738 122.517 17.7347 123.857 18.8566C125.196 19.9784 125.914 21.5208 125.962 23.3905L121.704 23.5776C121.512 22.5025 121.13 21.7546 120.556 21.2871C119.934 20.8197 119.072 20.586 117.876 20.586C116.68 20.586 115.676 20.8198 114.958 21.3339C114.527 21.6611 114.288 22.0818 114.288 22.5959C114.288 23.0634 114.48 23.4841 114.91 23.858C115.436 24.2787 116.728 24.7461 118.833 25.2135C120.938 25.6809 122.421 26.1951 123.426 26.7093C124.431 27.2235 125.196 27.9246 125.77 28.8127C126.344 29.7008 126.632 30.7759 126.632 32.0847C126.632 33.2533 126.297 34.3751 125.627 35.4035C124.957 36.4318 124 37.1797 122.804 37.6939C121.56 38.208 120.029 38.4417 118.211 38.4417C115.532 38.4417 113.523 37.8341 112.087 36.6187C110.652 35.4034 109.791 33.674 109.552 31.3836L109.408 31.4303Z" fill="#EE3A80"/>
<path d="M136.311 23.2487V26.3804H133.536V32.3636C133.536 33.5789 133.536 34.28 133.632 34.467C133.68 34.6539 133.823 34.8409 134.014 34.9811C134.206 35.1214 134.445 35.1681 134.684 35.1681C135.067 35.1681 135.593 35.0278 136.311 34.7941L136.646 37.8324C135.689 38.2064 134.636 38.4401 133.44 38.4401C132.723 38.4401 132.053 38.2998 131.479 38.0661C130.905 37.8324 130.474 37.5052 130.187 37.1313C129.9 36.7573 129.709 36.2431 129.613 35.5887C129.517 35.1213 129.469 34.1865 129.469 32.8309V26.3337H127.604V23.202H129.469V20.2571L133.536 17.9668V23.2487H136.311Z" fill="#EE3A80"/>
<path d="M148.288 31.2893L151.972 29.5598C152.402 31.0088 152.354 32.3643 151.876 33.6264C151.398 34.8885 150.489 35.9635 149.101 36.8984C146.948 38.3941 144.843 38.7681 142.786 38.1137C141.159 37.5528 139.772 36.431 138.528 34.7483C137.093 32.7383 136.471 30.7751 136.758 28.9054C137.045 27.0357 137.954 25.4932 139.628 24.3714C141.494 23.1093 143.36 22.6887 145.322 23.1561C147.235 23.6235 149.101 25.1193 150.824 27.5966L142.547 33.2524C143.264 34.1873 144.078 34.7482 144.939 34.9352C145.848 35.1222 146.661 34.9352 147.427 34.421C147.953 34.0471 148.288 33.6264 148.431 33.1122C148.575 32.5981 148.527 31.9904 148.288 31.2425V31.2893ZM146.135 27.8771C145.465 26.9422 144.7 26.428 143.886 26.241C143.073 26.0541 142.308 26.2411 141.638 26.7085C140.92 27.2227 140.49 27.877 140.394 28.7184C140.298 29.5598 140.537 30.4012 141.207 31.2893L146.135 27.9238V27.8771Z" fill="#EE3A80"/>
<path d="M153.912 23.249H157.692V25.446C158.17 24.6981 158.84 24.0904 159.653 23.623C160.467 23.1556 161.423 22.9219 162.428 22.9219C164.198 22.9219 165.681 23.623 166.925 24.9786C168.169 26.3341 168.791 28.2038 168.791 30.6344C168.791 33.065 168.169 35.075 166.925 36.4305C165.681 37.8328 164.15 38.4872 162.38 38.4872C161.519 38.4872 160.754 38.3002 160.084 37.973C159.414 37.6458 158.696 37.0849 157.931 36.2903V46.153H153.912V23.2023V23.249ZM157.883 30.4475C157.883 32.1302 158.218 33.3455 158.888 34.1401C159.558 34.9347 160.419 35.3555 161.376 35.3555C162.332 35.3555 163.098 34.9815 163.72 34.2336C164.342 33.4857 164.677 32.3171 164.677 30.6344C164.677 29.0919 164.342 27.9234 163.72 27.1755C163.098 26.4276 162.285 26.0536 161.328 26.0536C160.371 26.0536 159.51 26.4276 158.888 27.1755C158.218 27.9234 157.931 28.9984 157.931 30.4942L157.883 30.4475Z" fill="#EE3A80"/>
<path fill-rule="evenodd" clip-rule="evenodd" d="M20.7675 33.1091L-0.1875 23.0594L20.7675 13.0098V17.1231C20.7675 18.6656 19.9064 20.0211 18.4232 20.7223L13.4955 23.0594L18.4232 25.3966C19.9064 26.0977 20.7675 27.4533 20.7675 28.9958V33.1091Z" fill="#EE3A80"/>
<path fill-rule="evenodd" clip-rule="evenodd" d="M23.9258 33.1091V28.9958C23.9258 27.4533 24.7869 26.0977 26.2701 25.3966L31.1978 23.0594L26.2701 20.7223C24.7869 20.0211 23.9258 18.6656 23.9258 17.1231V13.0098L44.8808 23.0594L23.9258 33.1091Z" fill="#EE3A80"/>
<path fill-rule="evenodd" clip-rule="evenodd" d="M18.4343 20.6774L13.5065 23.0146L6.61719 19.7425L20.7307 12.9648V17.0782C20.7307 18.6207 19.8696 19.9763 18.3865 20.6774" fill="#C91D69"/>
<path fill-rule="evenodd" clip-rule="evenodd" d="M26.2613 25.3977L31.1891 23.0605C34.1553 24.5096 36.4518 25.5846 38.0784 26.3325L23.9648 33.1102V28.9969C23.9648 27.4544 24.826 26.0988 26.3091 25.3977" fill="#C91D69"/>
<path fill-rule="evenodd" clip-rule="evenodd" d="M-0.1875 25.166L1.48699 25.9606V33.8602L-0.1875 33.0655V25.166Z" fill="#EE3A80"/>
<path fill-rule="evenodd" clip-rule="evenodd" d="M37.959 28.4336V33.2949C32.7441 35.7255 27.5771 38.1561 22.3623 40.5867C17.1475 38.1561 11.9805 35.7255 6.76562 33.2949V28.4336L22.3623 35.7254L37.959 28.4336Z" fill="#2D348A"/>
<path fill-rule="evenodd" clip-rule="evenodd" d="M37.959 35.0254V39.8867C32.7441 42.3173 27.5771 44.7479 22.3623 47.1785C17.1475 44.7479 11.9805 42.3173 6.76562 39.8867V35.0254L22.3623 42.3172L37.959 35.0254Z" fill="#2D348A"/>
<path d="M82.7256 38.4384L87.9404 31.1466L82.9169 24.2754H87.6055L90.189 28.155L92.8682 24.2754H97.3654L92.4376 30.9596L97.796 38.3917H93.1074L90.1412 33.9979L87.1749 38.3917H82.6777L82.7256 38.4384Z" fill="#2D348A"/>
<path d="M87.6446 24.3203L92.4767 31.0045L87.214 38.4366H82.7168L87.9316 31.1447L82.956 24.3203H87.6446Z" fill="#EE3A80"/>
</g>
<defs>
<clipPath id="clip0_6930_6194">
<rect width="174" height="60" fill="white"/>
</clipPath>
</defs>
</svg>
