<svg width="175" height="60" viewBox="0 0 175 60" fill="none" xmlns="http://www.w3.org/2000/svg">
<g clip-path="url(#clip0_6930_6153)">
<path d="M12.5636 10.2997H9.09918V29.0435C9.09918 29.7914 8.71424 30.1653 7.94436 30.1653H5.5866C4.81672 30.1653 4.43178 29.7914 4.43178 29.0435V10.2997H0.967319C0.197439 10.2997 -0.1875 9.92571 -0.1875 9.17782V6.88744C-0.1875 6.13956 0.197439 5.76562 0.967319 5.76562H12.5155C13.2854 5.76562 13.6703 6.13956 13.6703 6.88744V9.17782C13.6703 9.92571 13.2854 10.2997 12.5155 10.2997H12.5636Z" fill="#67308F"/>
<path d="M25.9278 30.1186H19.3838C18.1809 30.1186 17.1223 29.6979 16.2562 28.8565C15.3901 28.0151 14.957 27.0336 14.957 25.8183V6.88744C14.957 6.13956 15.342 5.76562 16.1119 5.76562H25.7835C26.5533 5.76562 26.9383 6.13956 26.9383 6.88744V9.17782C26.9383 9.92571 26.5533 10.2997 25.7835 10.2997H19.5763V15.7218H24.773C25.5429 15.7218 25.9278 16.0957 25.9278 16.8436V19.134C25.9278 19.8819 25.5429 20.2559 24.773 20.2559H19.5763V25.678H25.8797C26.6496 25.678 27.0345 26.052 27.0345 26.7998V29.0435C27.0345 29.7914 26.6496 30.1653 25.8797 30.1653L25.9278 30.1186Z" fill="#67308F"/>
<path d="M37.6343 30.1168H32.9669C31.7159 30.1168 30.6573 29.6493 29.7431 28.7612C28.8288 27.8731 28.3477 26.798 28.3477 25.6295V24.7881C28.3477 24.0402 28.7326 23.6663 29.5025 23.6663H31.8602C32.6301 23.6663 33.0151 24.0402 33.0151 24.7881V25.6295H37.6825V20.2073H33.0151C31.764 20.2073 30.7054 19.7399 29.7912 18.8518C28.877 17.9637 28.3958 16.8886 28.3958 15.72V10.2979C28.3958 9.12931 28.877 8.0542 29.7912 7.16609C30.7054 6.27798 31.8121 5.81055 33.0151 5.81055H37.6825C38.8854 5.81055 39.9921 6.27798 40.9063 7.16609C41.8206 8.0542 42.3017 9.12931 42.3017 10.2979V11.0457C42.3017 11.7936 41.9168 12.1676 41.1469 12.1676H38.7892C38.0193 12.1676 37.6343 11.7936 37.6343 11.0457V10.2979H32.9669V15.72H37.6343C38.8373 15.72 39.944 16.1874 40.8582 17.0756C41.7724 17.9637 42.2536 19.0387 42.2536 20.2073V25.6762C42.2536 26.8915 41.7724 27.9199 40.8582 28.808C39.944 29.6961 38.8373 30.1635 37.6343 30.1635V30.1168Z" fill="#67308F"/>
<path d="M56.2433 10.2997H52.7789V29.0435C52.7789 29.7914 52.3939 30.1653 51.624 30.1653H49.2663C48.4964 30.1653 48.1115 29.7914 48.1115 29.0435V10.2997H44.647C43.8771 10.2997 43.4922 9.92571 43.4922 9.17782V6.88744C43.4922 6.13956 43.8771 5.76562 44.647 5.76562H56.1952C56.9651 5.76562 57.35 6.13956 57.35 6.88744V9.17782C57.35 9.92571 56.9651 10.2997 56.1952 10.2997H56.2433Z" fill="#67308F"/>
<path d="M94.9308 30.1186H92.4287C91.8994 30.1186 91.5626 29.8848 91.3701 29.4174L87.7132 20.2091H86.3178V28.9968C86.3178 29.7446 85.9328 30.1186 85.163 30.1186H82.8052C82.0353 30.1186 81.6504 29.7446 81.6504 28.9968V6.88744C81.6504 6.13956 82.0353 5.76562 82.8052 5.76562H90.9371C92.14 5.76562 93.2467 6.23306 94.2091 7.12117C95.1714 8.00928 95.6526 9.08435 95.6526 10.2529V15.6283C95.6526 16.5632 95.3639 17.4513 94.7384 18.1992C94.1128 18.9938 93.3911 19.508 92.525 19.8352L95.9894 28.5293C96.1338 28.9032 96.0856 29.2772 95.8932 29.5576C95.6526 29.8848 95.3639 30.0251 94.9308 30.0251V30.1186ZM91.0333 15.7218V10.2997H86.3659V15.7218H91.0333Z" fill="#67308F"/>
<path d="M108.447 30.1186H101.903C100.7 30.1186 99.6419 29.6979 98.7757 28.8565C97.9096 28.0151 97.4766 27.0336 97.4766 25.8183V6.88744C97.4766 6.13956 97.8615 5.76562 98.6314 5.76562H108.303C109.073 5.76562 109.458 6.13956 109.458 6.88744V9.17782C109.458 9.92571 109.073 10.2997 108.303 10.2997H102.096V15.7218H107.293C108.062 15.7218 108.447 16.0957 108.447 16.8436V19.134C108.447 19.8819 108.062 20.2559 107.293 20.2559H102.096V25.678H108.399C109.169 25.678 109.554 26.052 109.554 26.7998V29.0435C109.554 29.7914 109.169 30.1653 108.399 30.1653L108.447 30.1186Z" fill="#67308F"/>
<path d="M120.155 21.8451H115.488V28.9968C115.488 29.7446 115.103 30.1186 114.333 30.1186H111.975C111.205 30.1186 110.82 29.7446 110.82 28.9968V6.88744C110.82 6.13956 111.205 5.76562 111.975 5.76562H120.107C121.31 5.76562 122.417 6.23306 123.331 7.12117C124.293 8.00928 124.726 9.08435 124.726 10.2529V17.3111C124.726 18.5264 124.245 19.5547 123.331 20.4896C122.369 21.3777 121.31 21.8451 120.059 21.8451H120.155ZM120.203 17.3578V10.2529H115.488V17.3578H120.203Z" fill="#67308F"/>
<path d="M64.207 5.81234L60.1651 10.3464H59.5396C58.7697 10.3464 58.3848 9.97246 58.3848 9.22458V6.93419C58.3848 6.18631 58.7697 5.81234 59.5396 5.81234H64.1589H64.207ZM77.2949 14.7402C76.4769 15.2544 75.659 15.8153 74.841 16.3295C74.7928 16.3295 74.7447 16.423 74.6485 16.4697C74.8891 16.7034 75.1297 16.9371 75.3702 17.1241C76.3326 18.059 77.2949 18.9938 78.2573 19.9287C79.3159 18.4796 79.8933 16.7034 79.8933 14.787C79.8933 9.83224 75.7552 5.76562 70.6066 5.76562C70.3179 5.76562 70.0292 5.76562 69.7886 5.76562C69.6924 5.76562 69.548 5.76562 69.4037 5.76562H65.2175L61.1756 10.2997H61.2718V29.137C61.2718 29.8849 61.6568 30.2588 62.4266 30.2588H64.7844C65.5543 30.2588 65.9392 29.8849 65.9392 29.137V22.5462C67.3346 23.3409 68.9225 23.7616 70.6066 23.7616C72.4351 23.7616 74.1192 23.2474 75.5627 22.3593C74.8891 21.7049 74.2635 21.0972 73.5899 20.4428C73.1087 19.9754 72.6275 19.508 72.1464 19.0405C72.1464 19.0405 72.0983 18.9938 72.0501 18.9471C71.8577 19.2275 71.6652 19.508 71.4727 19.7417C71.0878 20.3026 70.7029 20.8635 70.2698 21.4712C70.1254 21.7049 69.933 21.7984 69.6443 21.7516C69.3556 21.7516 69.2112 21.5647 69.115 21.2842C68.0564 18.059 66.9497 14.8337 65.8911 11.6552C65.843 11.4682 65.7467 11.2813 65.6986 11.0475C65.6024 10.7203 65.6986 10.4399 65.8911 10.2997C65.8911 10.2997 65.9392 10.2997 65.9873 10.2529C66.0354 10.2529 66.1317 10.2529 66.1798 10.2529C66.276 10.2529 66.3723 10.2529 66.4685 10.2529C68.1526 10.7671 69.8367 11.328 71.4727 11.8422C73.3012 12.4031 75.1778 13.0107 77.0062 13.5716C77.2468 13.6651 77.4393 13.8054 77.4874 14.0858C77.4874 14.3663 77.3912 14.5532 77.1987 14.6935L77.2949 14.7402Z" fill="url(#paint0_linear_6930_6153)"/>
<path d="M0.0481186 35.541H124.817V49.8443C124.817 52.3217 122.748 54.3784 120.149 54.3784H4.66739C2.11717 54.3784 0 52.3684 0 49.8443V35.541H0.0481186Z" fill="url(#paint1_linear_6930_6153)"/>
</g>
<defs>
<linearGradient id="paint0_linear_6930_6153" x1="58.4329" y1="18.059" x2="79.9414" y2="18.059" gradientUnits="userSpaceOnUse">
<stop stop-color="#EE3533"/>
<stop offset="0.67" stop-color="#F37226"/>
<stop offset="0.99" stop-color="#F68A22"/>
</linearGradient>
<linearGradient id="paint1_linear_6930_6153" x1="0.0481175" y1="44.9831" x2="124.817" y2="44.9831" gradientUnits="userSpaceOnUse">
<stop stop-color="#EE3533"/>
<stop offset="0.67" stop-color="#F37226"/>
<stop offset="0.99" stop-color="#F68A22"/>
</linearGradient>
<clipPath id="clip0_6930_6153">
<rect width="175" height="60" fill="white"/>
</clipPath>
</defs>
</svg>
