<svg width="376" height="240" viewBox="0 0 376 240" fill="none" xmlns="http://www.w3.org/2000/svg">
<rect width="376" height="240" rx="16" fill="#FFEAF3"/>
<path opacity="0.3" d="M275.59 155.45C257.178 198.802 208.134 223.089 165.602 216.538C158.681 215.471 139.707 212.296 122.909 197.315C90.5708 168.476 83.655 111.371 109.741 71.1279C128.727 41.8379 162.762 25.2344 195.102 26.0649C202.068 26.2437 228.764 27.3463 252.225 46.6922C255.672 49.5337 263.272 56.286 270.122 66.998C286.207 92.1517 287.59 127.196 275.59 155.45Z" fill="url(#paint0_linear_6930_5865)"/>
<path d="M272.182 60.6105C272.491 59.6558 271.378 58.8712 270.573 59.4713C262.404 65.5639 242.309 84.3053 242.606 121.083C242.977 167.226 231.609 182.755 218.656 191.544C218.656 191.544 235.405 188.622 247.517 172.93C277.255 134.401 266.682 77.586 272.182 60.6105Z" fill="url(#paint1_linear_6930_5865)"/>
<path d="M264.951 74.1864C263.451 79.1481 262.051 84.1368 260.834 89.1695C259.592 94.195 258.502 99.2558 257.572 104.343C256.661 109.434 255.846 114.541 255.249 119.675C254.629 124.806 254.23 129.958 253.848 135.132C253.437 140.301 253.052 145.51 252.133 150.696C251.22 155.872 249.675 161.022 247.235 165.738C246.625 166.913 245.992 168.081 245.296 169.2C244.62 170.333 243.895 171.436 243.149 172.526C241.648 174.699 239.999 176.776 238.204 178.721C234.603 182.602 230.415 185.932 225.909 188.641C225.435 188.926 224.819 188.773 224.534 188.299C224.254 187.833 224.397 187.231 224.851 186.939L224.854 186.937C225.932 186.247 227 185.546 228.033 184.799C228.555 184.434 229.06 184.047 229.573 183.669C230.07 183.272 230.583 182.894 231.068 182.483C233.034 180.869 234.884 179.119 236.595 177.241C240.033 173.506 242.931 169.238 245.27 164.737C246.415 162.473 247.39 160.129 248.182 157.717C248.972 155.305 249.578 152.828 250.044 150.315C250.975 145.286 251.398 140.133 251.846 134.967C252.301 129.801 252.794 124.613 253.5 119.453C253.845 116.872 254.237 114.298 254.675 111.732C254.887 110.448 255.123 109.168 255.357 107.888C255.604 106.611 255.857 105.334 256.121 104.061C257.185 98.9667 258.405 93.9078 259.782 88.8944C261.183 83.8877 262.717 78.9199 264.44 74.0196C264.489 73.8794 264.642 73.8059 264.783 73.8552C264.919 73.903 264.992 74.0498 264.951 74.1864Z" fill="white"/>
<path d="M222.042 146.978C222.602 148.74 224.78 149.357 226.197 148.169C234.017 141.614 254.449 121.083 253.913 85.8637C253.461 56.1228 256.041 39.9531 257.722 32.6937C258.077 31.1587 256.266 30.0623 255.069 31.0863C241.857 42.3839 201.73 83.1245 222.042 146.978Z" fill="url(#paint2_linear_6930_5865)"/>
<path d="M224.541 147.091C224.578 147.118 224.619 147.142 224.662 147.162C225.024 147.329 225.453 147.171 225.62 146.809C225.809 146.398 244.579 105.297 245.817 63.9155C245.829 63.5173 245.516 63.1845 245.117 63.1722C244.719 63.1604 244.386 63.4737 244.374 63.8724C243.144 104.952 224.497 145.796 224.309 146.204C224.162 146.522 224.267 146.893 224.541 147.091Z" fill="white"/>
<path d="M99.1164 30.1664C94.8842 44.1125 73.5691 126.277 147.078 160.128C147.078 160.128 175.035 109.648 101.201 29.6845C100.555 28.985 99.3929 29.2554 99.1164 30.1664Z" fill="url(#paint3_linear_6930_5865)"/>
<path opacity="0.45" d="M104.53 43.9001C105.049 48.5183 105.665 53.1318 106.321 57.736C106.978 62.3407 107.689 66.9378 108.453 71.5256C109.982 80.7011 111.715 89.8427 113.728 98.9206C115.748 107.996 118.032 117.015 120.801 125.881C122.172 130.318 123.702 134.703 125.396 139.018C127.096 143.33 128.967 147.576 131.161 151.643L131.163 151.646C131.327 151.95 131.213 152.33 130.909 152.495C130.604 152.659 130.224 152.545 130.06 152.241L130.058 152.237C127.858 148.095 125.998 143.796 124.313 139.441C122.634 135.082 121.124 130.663 119.777 126.198C117.053 117.275 114.822 108.218 112.857 99.1111C110.898 90.0019 109.222 80.8364 107.751 71.6402C107.016 67.042 106.334 62.4356 105.706 57.8219C105.079 53.2074 104.493 48.59 104.001 43.9555C103.986 43.8097 104.092 43.6791 104.237 43.6636C104.383 43.6482 104.513 43.7529 104.529 43.8978L104.53 43.9001Z" fill="white"/>
<path d="M125.348 44.4188L225.637 45.6278C231.17 45.6945 235.68 50.0854 235.895 55.6145L241.545 201.104C241.713 205.431 238.265 209.037 233.935 209.063L118.966 209.767C114.898 209.792 111.6 206.474 111.649 202.406L113.413 56.0698C113.492 49.5566 118.835 44.3403 125.348 44.4188Z" fill="url(#paint4_linear_6930_5865)"/>
<path d="M125.67 43.2446C139.343 45.2669 186.369 51.5787 225.342 49.0591C227.119 48.9442 228.644 50.3081 228.717 52.0877L234.719 198.229C234.801 200.233 233.251 201.927 231.248 202.022C214.86 202.793 147.372 205.727 123.347 202.917C121.884 202.746 120.788 201.5 120.797 200.028L121.744 46.6143C121.757 44.5303 123.609 42.9396 125.67 43.2446Z" fill="url(#paint5_linear_6930_5865)"/>
<path opacity="0.63" d="M127.088 47.0518C140.246 48.998 185.501 55.072 223.007 52.6473C224.717 52.5367 226.185 53.8493 226.255 55.5618L232.031 196.201C232.11 198.129 230.618 199.759 228.69 199.85C212.92 200.593 147.973 203.416 124.852 200.712C123.445 200.547 122.39 199.348 122.398 197.931L123.31 50.2946C123.322 48.2891 125.104 46.7583 127.088 47.0518Z" fill="white"/>
<path opacity="0.78" d="M135.384 61.2769L136.421 91.4261C136.455 92.4288 137.255 93.2354 138.258 93.2757C143.836 93.5004 161.22 94.1342 171.045 93.7406C172.156 93.6961 173.046 92.8082 173.096 91.6971C173.351 86.0485 173.959 69.606 172.755 62.7149C172.56 61.6018 171.615 60.7764 170.486 60.7234L137.516 59.1722C136.327 59.1163 135.343 60.0874 135.384 61.2769Z" fill="white"/>
<path d="M160.705 72.3569C160.662 75.9343 157.727 78.7994 154.15 78.7563C150.572 78.7132 147.707 75.7782 147.75 72.2007C147.794 68.6233 150.729 65.7582 154.306 65.8013C157.884 65.8444 160.749 68.7794 160.705 72.3569Z" fill="url(#paint6_linear_6930_5865)"/>
<path d="M144.168 91.1786L164.804 91.4274C166.069 91.4427 166.844 90.0548 166.176 88.9804C164.456 86.2165 160.837 82.1428 154.483 82.2481C148.36 82.3496 144.687 85.9455 142.832 88.5339C142.044 89.6327 142.816 91.1623 144.168 91.1786Z" fill="url(#paint7_linear_6930_5865)"/>
<g opacity="0.6">
<path d="M218.128 64.8965C218.637 64.9026 219.046 64.4911 219.038 63.982L219.035 63.8109C219.026 63.3018 218.603 62.8728 218.094 62.8576L181.432 61.7622C180.924 61.747 180.641 62.1291 180.804 62.6113L181.131 63.5773C181.295 64.0595 181.845 64.4591 182.354 64.4652L218.128 64.8965Z" fill="white"/>
</g>
<g opacity="0.6">
<path d="M181.37 67.3793C180.861 67.3642 180.578 67.7463 180.742 68.2285L181.069 69.1945C181.232 69.6767 181.782 70.0763 182.291 70.0824L218.065 70.5137C218.575 70.5199 218.984 70.1083 218.975 69.5992L218.972 69.4281C218.964 68.919 218.54 68.49 218.031 68.4748L181.37 67.3793Z" fill="white"/>
</g>
<g opacity="0.6">
<path d="M181.292 73.0786C180.783 73.0634 180.5 73.4455 180.663 73.9277L180.991 74.8937C181.154 75.3759 181.704 75.7756 182.213 75.7817L217.987 76.2129C218.496 76.2191 218.906 75.8075 218.897 75.2984L218.894 75.1273C218.885 74.6182 218.462 74.1892 217.953 74.174L181.292 73.0786Z" fill="white"/>
</g>
<g opacity="0.6">
<path d="M221.174 103.74C221.684 103.746 222.078 103.335 222.05 102.827L222.041 102.652C222.013 102.144 221.575 101.719 221.065 101.709L135.837 100.01C135.328 99.9999 135.167 100.321 135.48 100.723L136.468 101.995C136.78 102.397 137.452 102.731 137.961 102.737L221.174 103.74Z" fill="white"/>
</g>
<g opacity="0.6">
<path d="M135.775 105.627C135.266 105.617 135.105 105.938 135.417 106.34L136.405 107.612C136.717 108.014 137.39 108.348 137.899 108.354L221.112 109.357C221.621 109.363 222.015 108.952 221.988 108.444L221.978 108.269C221.951 107.761 221.512 107.337 221.003 107.327L135.775 105.627Z" fill="white"/>
</g>
<path d="M146.835 127.417C146.821 127.417 146.807 127.417 146.793 127.417L139.642 127.262C138.642 127.24 137.825 126.544 137.742 125.642L137.185 119.634C137.153 119.293 137.263 118.958 137.494 118.689C137.754 118.388 138.144 118.201 138.565 118.178C139.168 118.144 140.018 118.082 140.917 118.016C142.81 117.877 145.166 117.705 146.489 117.705C146.489 117.705 146.49 117.705 146.49 117.705C147.423 117.705 148.222 118.278 148.433 119.098C148.787 120.474 148.723 123.078 148.619 125.851C148.586 126.722 147.79 127.417 146.835 127.417ZM138.591 118.64C138.295 118.656 138.023 118.785 137.845 118.991C137.697 119.164 137.626 119.377 137.646 119.591L138.202 125.599C138.264 126.267 138.887 126.782 139.652 126.799L146.803 126.954C147.526 126.964 148.133 126.467 148.156 125.834C148.259 123.096 148.324 120.529 147.985 119.213C147.829 118.607 147.2 118.168 146.49 118.168C146.49 118.168 146.49 118.168 146.489 118.168C145.183 118.168 142.836 118.34 140.951 118.477C140.05 118.543 139.198 118.606 138.591 118.64Z" fill="white"/>
<g opacity="0.6">
<path d="M153.509 121.32C152.999 121.313 152.684 121.711 152.808 122.204L153.257 123.994C153.381 124.488 153.899 124.892 154.408 124.893L219.776 124.997C220.285 124.998 220.698 124.582 220.693 124.073L220.685 123.256C220.68 122.747 220.259 122.324 219.75 122.316L153.509 121.32Z" fill="white"/>
</g>
<path d="M146.656 142.745C146.641 142.745 146.627 142.745 146.613 142.745L139.462 142.59C138.462 142.568 137.645 141.872 137.562 140.97L137.005 134.962C136.974 134.621 137.084 134.286 137.315 134.017C137.574 133.716 137.965 133.53 138.385 133.506C138.989 133.472 139.838 133.41 140.738 133.344C142.631 133.206 144.986 133.034 146.309 133.033C146.31 133.033 146.31 133.033 146.311 133.033C147.243 133.033 148.042 133.606 148.253 134.426C148.608 135.803 148.544 138.406 148.439 141.179C148.407 142.05 147.611 142.745 146.656 142.745ZM138.411 133.968C138.116 133.984 137.844 134.113 137.665 134.32C137.517 134.492 137.446 134.705 137.466 134.919L138.023 140.928C138.084 141.595 138.708 142.111 139.472 142.127L146.623 142.282C147.346 142.297 147.953 141.795 147.977 141.162C148.08 138.424 148.144 135.857 147.805 134.541C147.649 133.935 147.021 133.496 146.311 133.496C146.31 133.496 146.31 133.496 146.31 133.496C145.003 133.497 142.657 133.668 140.772 133.806C139.87 133.871 139.018 133.934 138.411 133.968Z" fill="white"/>
<path opacity="0.6" d="M139.183 134.639C140.686 134.555 143.956 134.262 145.505 134.262C146.161 134.262 146.732 134.665 146.879 135.236C147.164 136.345 147.098 138.547 147.022 140.58C146.999 141.188 146.434 141.668 145.751 141.653L140.036 141.529C139.334 141.514 138.756 141.028 138.698 140.403L138.253 135.601C138.207 135.105 138.625 134.67 139.183 134.639Z" fill="white"/>
<g opacity="0.6">
<path d="M153.329 136.649C152.82 136.641 152.505 137.039 152.629 137.533L153.077 139.322C153.201 139.816 153.719 140.22 154.229 140.221L219.596 140.325C220.106 140.326 220.518 139.91 220.513 139.401L220.505 138.584C220.5 138.075 220.08 137.652 219.57 137.644L153.329 136.649Z" fill="white"/>
</g>
<path d="M146.476 158.071C146.462 158.071 146.447 158.071 146.433 158.071L139.282 157.916C138.283 157.894 137.466 157.198 137.382 156.297L136.826 150.288C136.794 149.948 136.904 149.612 137.135 149.344C137.395 149.042 137.785 148.856 138.206 148.832C138.809 148.798 139.659 148.736 140.558 148.67C142.451 148.532 144.807 148.36 146.13 148.359C146.13 148.359 146.131 148.359 146.131 148.359C147.064 148.359 147.862 148.932 148.073 149.752C148.428 151.129 148.364 153.732 148.26 156.505C148.227 157.377 147.431 158.071 146.476 158.071ZM138.232 149.294C137.936 149.311 137.664 149.439 137.486 149.646C137.337 149.818 137.267 150.031 137.287 150.246L137.843 156.254C137.905 156.921 138.528 157.437 139.292 157.453L146.443 157.608C146.454 157.608 146.465 157.609 146.476 157.609C147.184 157.609 147.774 157.112 147.797 156.488C147.9 153.75 147.965 151.184 147.625 149.867C147.469 149.262 146.841 148.822 146.131 148.822C146.131 148.822 146.13 148.822 146.13 148.822C144.824 148.823 142.477 148.994 140.592 149.132C139.69 149.198 138.839 149.26 138.232 149.294Z" fill="white"/>
<path opacity="0.6" d="M138.995 149.967C140.499 149.883 143.768 149.59 145.317 149.59C145.973 149.59 146.544 149.993 146.691 150.564C146.977 151.673 146.911 153.875 146.834 155.908C146.811 156.516 146.246 156.996 145.563 156.981L139.849 156.857C139.146 156.842 138.568 156.356 138.511 155.731L138.066 150.929C138.02 150.433 138.438 149.999 138.995 149.967Z" fill="white"/>
<g opacity="0.6">
<path d="M153.141 151.973C152.632 151.965 152.317 152.363 152.441 152.857L152.89 154.646C153.014 155.14 153.532 155.545 154.041 155.546L219.409 155.65C219.918 155.65 220.331 155.234 220.326 154.725L220.318 153.908C220.313 153.399 219.892 152.976 219.383 152.969L153.141 151.973Z" fill="white"/>
</g>
<path d="M146.288 173.4C146.274 173.4 146.26 173.399 146.246 173.399L139.095 173.244C138.095 173.223 137.278 172.527 137.195 171.625L136.638 165.617C136.607 165.276 136.716 164.94 136.948 164.672C137.207 164.37 137.598 164.184 138.018 164.16C138.621 164.126 139.471 164.064 140.37 163.998C142.263 163.86 144.619 163.688 145.942 163.688C145.942 163.688 145.943 163.688 145.943 163.688C146.876 163.688 147.675 164.26 147.886 165.08C148.241 166.457 148.176 169.06 148.072 171.833C148.039 172.705 147.243 173.4 146.288 173.4ZM138.044 164.622C137.749 164.639 137.477 164.767 137.299 164.974C137.15 165.146 137.079 165.359 137.099 165.574L137.656 171.582C137.717 172.249 138.34 172.765 139.105 172.782L146.256 172.936C146.989 172.958 147.586 172.449 147.61 171.816C147.713 169.078 147.777 166.512 147.438 165.195C147.279 164.58 146.665 164.15 145.943 164.15C145.943 164.15 145.943 164.15 145.943 164.15C144.636 164.151 142.29 164.322 140.404 164.46C139.503 164.526 138.651 164.588 138.044 164.622Z" fill="white"/>
<path opacity="0.6" d="M138.8 165.295C140.303 165.211 143.573 164.919 145.122 164.918C145.778 164.918 146.349 165.321 146.496 165.892C146.782 167.001 146.715 169.203 146.639 171.236C146.616 171.844 146.051 172.324 145.368 172.309L139.654 172.185C138.951 172.17 138.373 171.684 138.315 171.059L137.871 166.258C137.825 165.761 138.242 165.327 138.8 165.295Z" fill="white"/>
<g opacity="0.6">
<path d="M152.946 167.301C152.437 167.293 152.122 167.691 152.246 168.185L152.695 169.974C152.819 170.468 153.337 170.873 153.846 170.874L219.214 170.978C219.723 170.978 220.135 170.563 220.13 170.053L220.122 169.236C220.117 168.727 219.697 168.304 219.188 168.297L152.946 167.301Z" fill="white"/>
</g>
<path d="M181.953 25.2741C178.361 22.7103 175.21 22.7222 172.985 23.3497C170.955 23.9222 169.62 25.8593 169.788 27.9617L170.618 38.4107L181.985 39.5577C181.985 39.5577 188.998 30.3021 181.953 25.2741ZM176.847 33.6342C175.28 33.6153 174.025 32.3298 174.044 30.7627C174.063 29.1957 175.349 27.9407 176.916 27.9596C178.483 27.9785 179.738 29.2642 179.719 30.8312C179.7 32.3982 178.414 33.6531 176.847 33.6342Z" fill="url(#paint8_linear_6930_5865)"/>
<path d="M171.814 33.9902C171.695 33.9902 171.593 33.8982 171.584 33.777L171.451 32.1131C171.441 31.9857 171.536 31.8742 171.664 31.864C171.793 31.8538 171.903 31.9492 171.913 32.0765L172.045 33.7404C172.055 33.8679 171.96 33.9793 171.833 33.9895C171.827 33.9899 171.82 33.9902 171.814 33.9902ZM171.555 30.7292C171.435 30.7292 171.334 30.6372 171.324 30.5161L171.224 29.2527C171.067 27.2703 172.335 25.4413 174.239 24.9041C175.595 24.5221 176.988 24.4819 178.379 24.7839C178.504 24.811 178.583 24.9344 178.556 25.0592C178.529 25.1844 178.407 25.2646 178.281 25.2364C176.965 24.9503 175.647 24.9882 174.365 25.3498C172.672 25.8271 171.545 27.4531 171.686 29.216L171.786 30.4795C171.796 30.6069 171.701 30.7183 171.574 30.7285C171.567 30.729 171.561 30.7292 171.555 30.7292Z" fill="white"/>
<path d="M155.008 44.9701L155.071 39.7225C155.093 37.9109 156.612 36.4782 158.422 36.5621L194.587 38.2378C196.192 38.3122 197.477 39.5952 197.554 41.2001L197.795 46.246L155.008 44.9701Z" fill="url(#paint9_linear_6930_5865)"/>
<path d="M168.577 38.6183C168.576 38.6183 168.575 38.6183 168.574 38.6183L167.018 38.5996C166.89 38.598 166.788 38.4932 166.789 38.3655C166.791 38.2384 166.894 38.1367 167.021 38.1367C167.021 38.1367 167.022 38.1367 167.023 38.1367L168.579 38.1555C168.707 38.157 168.809 38.2619 168.808 38.3896C168.806 38.5166 168.703 38.6183 168.577 38.6183Z" fill="white"/>
<path d="M156.989 43.3002C156.988 43.3002 156.987 43.3002 156.986 43.3002C156.859 43.2986 156.756 43.1938 156.758 43.066L156.783 40.9433C156.793 40.1602 157.107 39.4277 157.667 38.8807C158.227 38.3335 158.963 38.037 159.75 38.0471L165.47 38.1161C165.598 38.1177 165.701 38.2225 165.699 38.3502C165.697 38.4773 165.594 38.579 165.468 38.579C165.467 38.579 165.466 38.579 165.465 38.579L159.744 38.51C159.086 38.4937 158.462 38.7512 157.99 39.212C157.518 39.6726 157.254 40.2895 157.246 40.9488L157.221 43.0715C157.219 43.1985 157.116 43.3002 156.989 43.3002Z" fill="white"/>
<path d="M143.686 42.9104L206.954 43.6713C209.229 43.6987 211.154 45.3593 211.515 47.6055L211.565 47.9155C211.961 50.376 210.043 52.5989 207.551 52.5688L142.642 51.7864C141.151 51.7684 139.978 50.5072 140.067 49.0186L140.242 46.1151C140.351 44.299 141.867 42.8886 143.686 42.9104Z" fill="url(#paint10_linear_6930_5865)"/>
<path d="M237.606 125.935C237.606 125.935 236.708 122.554 241.488 121.991C246.269 121.427 247.599 129.655 243.809 130.767C240.019 131.878 237.606 125.935 237.606 125.935Z" fill="url(#paint11_linear_6930_5865)"/>
<path d="M270.175 143.82C268.694 142.218 266.616 141.3 264.434 141.285L235.832 141.082C233.505 141.066 231.29 142.077 229.777 143.845C228.265 145.614 227.61 147.97 227.987 150.266L233.714 185.13H269.721L272.252 149.752C272.407 147.576 271.655 145.422 270.175 143.82Z" fill="url(#paint12_linear_6930_5865)"/>
<path d="M231.438 160.772L241.362 160.352L243.611 164.409L231.438 163.487V160.772Z" fill="url(#paint13_linear_6930_5865)"/>
<path d="M263.38 198.551H237.922V201.097H263.38V198.551Z" fill="url(#paint14_linear_6930_5865)"/>
<path d="M235.914 186.516L237.737 216.169C237.749 216.366 237.894 216.603 238.068 216.603H239.271C239.454 216.603 239.764 216.394 239.764 216.186V186.516L235.914 186.516Z" fill="url(#paint15_linear_6930_5865)"/>
<path d="M266.039 186.516L264.216 216.169C264.204 216.366 264.059 216.603 263.884 216.603H262.682C262.499 216.603 262.445 216.394 262.445 216.186V186.516L266.039 186.516Z" fill="url(#paint16_linear_6930_5865)"/>
<path d="M273.091 184.251C273.091 186.524 271.248 188.367 268.975 188.367H233.233C230.96 188.367 229.117 186.524 229.117 184.251V184.151C229.117 181.878 230.96 180.035 233.233 180.035H268.975C271.248 180.035 273.091 181.878 273.091 184.151V184.251Z" fill="url(#paint17_linear_6930_5865)"/>
<path d="M215.717 211.74C215.743 211.714 219.647 174.592 220.71 170.794C220.888 170.155 221.379 169.653 222.014 169.46L226.992 167.945L237.726 174.252L226.205 176.201C229.904 182.133 222.15 196.773 219.582 202C219.321 202.531 219.562 203.17 220.107 203.397L222.484 204.386C221.002 208.27 218.682 211.366 215.555 213.7L215.717 211.74Z" fill="url(#paint18_linear_6930_5865)"/>
<path d="M221.143 203.882C221.143 203.882 222.33 203.761 223.089 204.532C223.452 204.901 223.491 205.482 223.227 205.927C222.054 207.905 218.15 214.343 215.886 216.263C215.7 216.42 215.412 216.316 215.365 216.077C215.232 215.414 215.134 214.015 215.749 211.634L215.735 211.942C215.718 212.332 216.213 212.512 216.446 212.199C217.756 210.451 220.358 206.739 221.143 203.882Z" fill="url(#paint19_linear_6930_5865)"/>
<path d="M223.013 213.39C223.037 213.362 223.869 206.166 223.893 206.138C222.082 190.533 224.407 176.061 225.209 172.199C225.344 171.549 225.799 171.016 226.419 170.78L231.282 168.93L242.747 177.749L231.059 177.22C235.154 182.886 228.413 198.02 226.206 203.41C225.982 203.957 226.266 204.579 226.826 204.768L229.265 205.593C228.05 209.569 225.946 212.815 222.984 215.356L223.013 213.39Z" fill="url(#paint20_linear_6930_5865)"/>
<path d="M227.891 205.178C227.891 205.178 229.066 204.977 229.876 205.694C230.263 206.038 230.341 206.615 230.108 207.077C229.073 209.13 225.615 215.819 223.487 217.888C223.313 218.058 223.018 217.974 222.955 217.739C222.778 217.085 222.584 215.697 223.036 213.28L223.043 213.588C223.052 213.978 223.558 214.123 223.77 213.796C224.958 211.962 227.302 208.082 227.891 205.178Z" fill="url(#paint21_linear_6930_5865)"/>
<path d="M261.875 177.62C261.49 174.438 256.801 167.463 256.801 167.463C256.801 167.463 238.612 166.872 236.488 167.696C234.839 168.336 228.111 167.974 225.182 167.78C225.071 167.773 224.97 167.847 224.944 167.955C224.918 168.064 224.973 168.176 225.075 168.22C232.23 171.332 232.918 173.106 233.864 179.138C233.864 179.138 241.064 183.515 255.67 182.308C260.579 181.902 262.26 180.802 261.875 177.62Z" fill="url(#paint22_linear_6930_5865)"/>
<path d="M244.12 166.432C244.12 166.432 238.659 161.232 235.971 157.788C234.518 155.926 234.061 153.475 234.733 151.211C235.961 147.077 238.142 142.794 238.341 142.128C238.646 141.106 244.769 141.149 244.769 141.149C244.769 141.149 256.818 148.969 261.552 162.215L256.235 163.87C256.235 163.87 253.089 158.592 249.981 155.237C249.981 155.237 255.359 162.342 255.549 165.251L244.12 166.432Z" fill="url(#paint23_linear_6930_5865)"/>
<path d="M237.609 136.417C237.673 136.629 239.271 141.927 239.396 142.037C239.521 142.147 242.901 142.329 244.492 141.242L241.245 134.059L237.609 136.417Z" fill="url(#paint24_linear_6930_5865)"/>
<path d="M233.209 130.466C233.209 130.466 232.071 133.094 233.408 137.09C234.745 141.086 236.93 141.433 238.313 140.445C239.697 139.457 241.491 137.692 241.714 134.073C241.937 130.453 234.777 127.142 233.209 130.466Z" fill="url(#paint25_linear_6930_5865)"/>
<path d="M239.325 126.028C238.023 125.312 236.663 125.113 235.404 125.297C234.449 125.432 233.551 125.787 232.774 126.302C231.982 126.82 231.351 127.501 230.883 128.285C230.73 128.603 230.622 128.938 230.553 129.29C230.292 130.614 230.645 131.984 231.509 133.019C232.156 133.793 232.809 134.434 232.809 134.434L232.921 133.62C232.921 132.601 233.723 131.501 234.717 131.185C235.71 130.869 236.76 131.117 237.516 131.831C238.495 132.757 239.031 133.999 239.031 133.999L239.355 133.903C239.355 133.903 239.329 132.321 240.334 132.69C241.335 133.062 241.744 135.152 241.744 135.152C241.744 135.152 243.872 136.128 244.071 133.282C244.269 130.439 243.016 128.051 239.325 126.028Z" fill="url(#paint26_linear_6930_5865)"/>
<path d="M239.841 133.903C239.841 133.903 238.584 131.13 240.345 131.03C242.106 130.93 241.39 133.703 241.039 134.715L239.841 133.903Z" fill="url(#paint27_linear_6930_5865)"/>
<path d="M233.719 168.484L237.822 164.019L242.561 165.295C242.561 165.295 248.086 166.151 251.248 165.295C254.41 164.439 254.41 164.439 254.41 164.439L261.556 162.215L262.678 165.387C262.963 166.192 262.676 167.086 261.98 167.581C261.362 168.02 260.637 168.503 260.176 168.705C259.235 169.116 238.498 168.835 238.498 168.835L233.719 168.484Z" fill="url(#paint28_linear_6930_5865)"/>
<path d="M238.995 168.509L231.129 151.093C231.048 150.915 230.848 150.823 230.661 150.88L223.66 152.986C223.557 153.017 223.472 153.09 223.424 153.186C223.376 153.282 223.37 153.394 223.407 153.495L229.37 169.585C229.431 169.75 229.595 169.853 229.77 169.838L238.673 169.058C238.799 169.047 238.912 168.976 238.976 168.867C239.04 168.758 239.047 168.625 238.995 168.509Z" fill="url(#paint29_linear_6930_5865)"/>
<path d="M229.045 151.702L228.827 151.209C228.755 151.046 228.569 150.966 228.402 151.027L227.365 151.4C227.32 151.416 227.27 151.401 227.241 151.363L227.057 151.113C226.915 150.921 226.659 150.852 226.439 150.947L225.486 151.365C225.297 151.446 225.189 151.632 225.189 151.837V152.137C225.189 152.184 225.145 152.226 225.099 152.24L224.782 152.336C224.691 152.364 224.612 152.43 224.572 152.517C224.531 152.604 224.528 152.703 224.565 152.792L224.792 153.336C224.863 153.505 225.054 153.587 225.224 153.523L228.854 152.157C228.941 152.124 229.011 152.057 229.047 151.971C229.083 151.885 229.082 151.788 229.045 151.702Z" fill="url(#paint30_linear_6930_5865)"/>
<path d="M224.807 159.729C224.807 159.729 226.305 157.692 226.363 158.307C226.42 158.922 226.363 160.247 226.363 160.247C226.363 160.247 226.651 160.497 227.074 161.419C227.496 162.342 227.724 163.788 227.264 163.92C226.805 164.051 224.634 161.208 224.807 159.729Z" fill="url(#paint31_linear_6930_5865)"/>
<path d="M240.405 159.686C240.361 159.628 240.292 159.594 240.218 159.594C240.058 159.594 239.917 159.698 239.87 159.851L238.508 164.294L239.22 164.506L240.446 159.89C240.465 159.819 240.45 159.744 240.405 159.686Z" fill="url(#paint32_linear_6930_5865)"/>
<path d="M231.996 132.781C231.98 132.781 231.963 132.774 231.952 132.76C231.928 132.731 229.59 129.834 231.957 127.66C231.981 127.638 232.017 127.64 232.039 127.663C232.06 127.687 232.059 127.723 232.035 127.745C229.75 129.845 232.018 132.658 232.041 132.686C232.061 132.711 232.058 132.747 232.033 132.768C232.022 132.777 232.009 132.781 231.996 132.781Z" fill="white"/>
<path d="M192.324 193.461H127.289V199.247H192.324V193.461Z" fill="url(#paint33_linear_6930_5865)"/>
<path d="M126.117 192.766L128.409 216.029C128.506 217.011 128.907 217.761 129.371 217.761H130.288C130.808 217.761 131.238 216.839 131.27 215.717L131.932 192.766H126.117Z" fill="url(#paint34_linear_6930_5865)"/>
<path d="M195.252 192.766L192.961 216.029C192.864 217.011 192.463 217.761 191.999 217.761H191.081C190.562 217.761 190.132 216.839 190.099 215.717L189.438 192.766H195.252Z" fill="url(#paint35_linear_6930_5865)"/>
<path d="M201.265 185.066C200.496 184.301 199.434 183.874 198.349 183.88L137.753 184.213C136.045 184.223 134.466 183.287 133.657 181.781L113.197 143.678C111.865 141.198 108.94 140.036 106.269 140.927L105.722 141.109C104.19 141.619 102.94 142.748 102.277 144.22C101.613 145.693 101.595 147.376 102.228 148.863L119.358 189.12C120.971 192.911 124.654 195.407 128.772 195.502L196.092 197.053C197.759 197.092 199.41 196.456 200.603 195.291C201.795 194.126 202.507 192.529 202.507 190.862V187.957C202.507 186.872 202.035 185.831 201.265 185.066Z" fill="url(#paint36_linear_6930_5865)"/>
<path d="M174.119 142.9L173.69 142.202C173.443 141.8 173.026 141.532 172.558 141.474L167.99 140.908C167.99 140.908 167.787 140.395 168.627 139.788C169.466 139.18 168.97 138.191 168.97 138.191C168.97 138.191 167.847 139.112 166.223 140.531C165.294 141.343 164.941 142.434 164.809 143.221L164.078 144.824C164.486 145.305 165.117 145.686 166.076 145.564L166.242 144.337C168.989 144.427 171.603 143.891 174.119 142.9Z" fill="url(#paint37_linear_6930_5865)"/>
<path d="M164.08 144.705C163.588 145.783 163.1 146.863 162.608 147.941C161.976 149.328 161.448 151.1 160.432 152.258C159.233 153.624 157.27 153.384 156.043 152.191C154.697 150.883 153.259 149.68 151.868 148.42C151.501 148.087 151.124 147.766 150.753 147.437L150.648 155.907C154.041 157.452 157.776 160.067 161.662 158.739C162.732 158.373 163.804 157.692 164.412 156.715C164.776 156.13 165.087 155.32 165.157 154.63C165.158 154.629 166.093 145.457 166.093 145.457C164.986 145.597 164.551 145.26 164.08 144.705Z" fill="url(#paint38_linear_6930_5865)"/>
<path d="M168.292 214.934C164.932 214.934 163.446 214.646 162.781 214.383C162.91 214.935 163.402 215.37 164.023 215.37H175.908C176.308 215.37 176.561 214.987 176.465 214.64C175.111 214.749 172.233 214.934 168.292 214.934Z" fill="url(#paint39_linear_6930_5865)"/>
<path d="M176.468 214.639C176.449 214.569 176.421 214.5 176.371 214.437C175.465 213.281 173.647 211.466 171.173 211.5C167.549 211.551 166.285 211.945 163.469 211.523L162.804 213.725C162.736 213.949 162.735 214.174 162.784 214.382C163.449 214.645 164.935 214.933 168.295 214.933C172.236 214.933 175.113 214.748 176.468 214.639Z" fill="url(#paint40_linear_6930_5865)"/>
<path d="M164.269 209.148L163.453 211.922C163.453 211.922 165.26 212.745 166.849 212.084L167.161 209.681L164.269 209.148Z" fill="url(#paint41_linear_6930_5865)"/>
<path d="M188.905 213.183C186.286 215.288 184.948 215.995 184.266 216.207C184.71 216.555 185.365 216.585 185.849 216.196L195.114 208.751C195.426 208.501 195.384 208.045 195.093 207.836C194.105 208.769 191.977 210.715 188.905 213.183Z" fill="url(#paint42_linear_6930_5865)"/>
<path d="M195.1 207.837C195.041 207.794 194.976 207.759 194.898 207.741C193.472 207.411 190.922 207.142 189.015 208.718C186.222 211.028 185.482 212.124 183.023 213.561L183.878 215.686C183.966 215.902 184.104 216.077 184.272 216.208C184.954 215.996 186.293 215.288 188.912 213.184C191.984 210.716 194.112 208.77 195.1 207.837Z" fill="url(#paint43_linear_6930_5865)"/>
<path d="M146.826 177.547C146.826 177.547 166.94 179.189 171.066 181.132C175.192 183.074 167.699 210.298 167.699 210.298C167.699 210.298 166.575 210.839 164.076 210.062C164.076 210.062 166.639 189.972 164.732 185.615L142.953 182.053L146.826 177.547Z" fill="url(#paint44_linear_6930_5865)"/>
<path d="M181.023 209.737C181.21 209.908 183.022 213.562 183.022 213.562C183.022 213.562 185.039 213.125 185.45 211.849L183.635 208.551L181.023 209.737Z" fill="url(#paint45_linear_6930_5865)"/>
<path d="M134.715 177.379C134.715 177.379 134.06 178.956 134.087 181.052C134.124 183.951 136.454 186.303 139.349 186.447L163.127 187.532C163.63 187.555 164.055 187.902 164.18 188.389C164.739 190.55 167.47 197.187 180.821 210.431C181.176 210.783 181.729 210.843 182.152 210.576L184.053 209.376C184.252 209.25 184.316 208.988 184.197 208.784L170.352 185.142C169.625 183.942 168.456 183.075 167.096 182.728L146.83 177.547L134.715 177.379Z" fill="url(#paint46_linear_6930_5865)"/>
<path d="M134.647 177.308C134.647 177.308 134.411 165.523 136.767 154.432C137.637 150.336 139.902 146.669 143.191 144.078L144.291 143.211L149.802 145.45L152.634 150.343C154.193 153.461 153.81 160.233 152.634 163.514C150.667 169.002 149.094 174.688 148.424 177.481C148.424 177.481 139.297 178.686 134.647 177.308Z" fill="url(#paint47_linear_6930_5865)"/>
<path d="M148.086 134.426L143.781 144.414C143.781 144.414 145.159 147.514 149.981 146.308L151.703 139.42L148.086 134.426Z" fill="url(#paint48_linear_6930_5865)"/>
<path d="M156.612 129.872C156.664 130.012 156.778 139.852 156.778 139.852L151.158 139.798L149.664 130.487C149.664 130.487 155.743 127.537 156.612 129.872Z" fill="url(#paint49_linear_6930_5865)"/>
<path d="M151.316 132.277L151.718 137.24C151.724 137.304 151.737 137.365 151.759 137.425C151.895 137.791 152.455 139.018 153.675 138.369C154.782 137.78 155.801 137.259 156.597 137.326C156.954 137.356 157.23 137.652 157.234 138.01C157.244 138.904 157.23 140.92 156.95 142.668C156.894 143.023 156.572 143.273 156.214 143.247C155.134 143.171 152.86 142.945 151.073 142.336C150.831 142.253 150.653 142.048 150.609 141.796C150.398 140.567 149.74 136.834 149.396 135.822C149.072 134.872 147.751 134.547 147.186 134.45C147.001 134.418 146.839 134.313 146.734 134.157C146.363 133.606 145.73 132.283 147.364 131.331C147.706 131.132 147.814 130.694 147.605 130.358C147.188 129.69 146.839 128.607 148.067 127.704C149.315 126.786 150.506 127.299 151.193 127.778C151.471 127.971 151.841 127.93 152.082 127.693C152.219 127.558 152.417 127.48 152.698 127.581C153.077 127.717 153.489 127.48 153.585 127.089C153.769 126.338 154.286 125.464 155.689 125.404C158.179 125.296 159.026 127.898 158.73 129.594C158.433 131.29 155.727 131.253 154.264 130.747C153.152 130.362 152.012 131.264 151.529 131.718C151.376 131.862 151.299 132.068 151.316 132.277Z" fill="url(#paint50_linear_6930_5865)"/>
<path d="M149.567 137.627C149.567 137.627 149.956 134.65 148.796 134.192C147.635 133.735 146.209 134.411 146.973 136.342C147.923 138.743 149.567 137.627 149.567 137.627Z" fill="url(#paint51_linear_6930_5865)"/>
<path d="M161.346 167.84C147.154 172.295 147.909 152.319 147.817 152.178C142.19 143.581 139.031 155.038 139.576 156.653C144.567 174.721 157.147 173.826 162.049 170.277C161.439 169.327 161.299 168.492 161.346 167.84Z" fill="url(#paint52_linear_6930_5865)"/>
<path d="M150.467 164.759C150.389 164.735 150.319 164.684 150.271 164.609C148.12 161.258 147.514 156.602 147.383 153.285C147.375 153.086 147.531 152.918 147.73 152.91C147.929 152.903 148.097 153.058 148.105 153.257C148.209 155.899 148.707 160.835 150.879 164.219C150.986 164.387 150.938 164.61 150.77 164.718C150.676 164.778 150.566 164.79 150.467 164.759Z" fill="url(#paint53_linear_6930_5865)"/>
<path d="M146.511 169.299C146.466 169.285 146.424 169.262 146.386 169.231C143.143 166.513 140.699 162.241 139.122 156.535C139.069 156.343 139.182 156.144 139.374 156.091C139.567 156.038 139.765 156.151 139.819 156.343C141.355 161.905 143.721 166.055 146.85 168.677C147.003 168.805 147.023 169.033 146.895 169.186C146.798 169.301 146.646 169.341 146.511 169.299Z" fill="url(#paint54_linear_6930_5865)"/>
<path d="M169.707 163.672C169.707 163.672 169.476 164.04 167.815 165.327C166.153 166.615 164.48 167.358 165.75 165.588C167.021 163.819 166.403 162.906 164.953 164.812C163.503 166.718 162.467 167.454 162.467 167.454C162.085 167.6 161.714 167.729 161.352 167.843C161.305 168.495 161.444 169.331 162.055 170.28C162.63 170.09 162.954 169.95 162.954 169.95C162.954 169.95 167.35 169.15 168.291 167.278C169.233 165.407 169.707 163.672 169.707 163.672Z" fill="url(#paint55_linear_6930_5865)"/>
<path d="M169.586 135.606C169.055 135.424 169.131 134.648 169.688 134.576C172.226 134.246 175.946 133.253 177.165 130.275C179.076 125.602 175.117 107.587 193.306 104.364C210.084 101.391 219.429 106.7 219.217 122.204C219.011 137.232 194.859 144.279 169.586 135.606Z" fill="url(#paint56_linear_6930_5865)"/>
<path d="M198.641 135.415C198.61 135.415 198.58 135.403 198.557 135.379C198.516 135.336 197.56 134.314 197.682 133.085C197.715 132.751 197.825 132.435 198.01 132.14C197.933 132.087 197.861 132.031 197.793 131.971C197.383 131.607 196.825 130.792 197.689 129.414C198.178 128.635 198.942 127.974 200.094 127.332C200.505 127.103 200.964 126.887 201.45 126.658C202.54 126.145 203.714 125.593 204.53 124.793C203.141 124.028 201.474 123.632 199.788 123.684C199.369 123.696 198.856 123.743 198.293 123.829C198.83 124.993 198.942 126.369 198.533 127.645C197.956 129.451 196.469 130.561 194.556 130.614C193.599 130.636 192.237 130.392 191.554 129.605C191.189 129.184 191.057 128.665 191.16 128.061C191.226 127.676 191.361 127.319 191.552 126.989C191.165 126.717 190.858 126.341 190.653 125.881C190.616 125.798 190.583 125.712 190.553 125.626C188.811 125.29 187.335 123.927 186.84 122.031C186.281 119.884 186.962 117.866 188.664 116.633C188.742 116.577 188.821 116.523 188.901 116.471C189.074 115.798 189.35 115.175 189.566 114.786C190.888 112.41 193.279 110.715 195.96 110.251C199.088 109.711 203.394 110.47 205.189 112.677C206.102 113.799 206.306 115.171 205.798 116.761C205.8 116.791 205.803 116.821 205.805 116.851C206.076 116.669 206.393 116.592 206.735 116.631C207.315 116.696 207.935 117.092 208.313 117.639C208.914 118.508 208.963 119.527 208.453 120.509C208.197 121.002 207.823 121.436 207.383 121.776C207.871 122.033 208.396 122.212 208.9 122.358C208.954 122.374 208.989 122.426 208.983 122.481C208.978 122.537 208.933 122.58 208.877 122.585C207.925 122.657 207.174 123.169 206.867 123.953C206.652 124.501 206.678 125.094 206.924 125.64C207.6 125.453 208.81 125.324 209.378 125.747C209.626 125.932 209.733 126.207 209.688 126.542C209.626 126.998 209.372 127.17 209.17 127.234C208.535 127.436 207.564 126.872 207.243 126.525C207.068 126.337 206.922 126.132 206.807 125.918C206.764 125.933 206.725 125.949 206.692 125.964C206.585 126.012 206.474 126.07 206.363 126.137C206.584 126.473 206.743 126.84 206.774 127.207C206.813 127.659 206.652 128.049 206.295 128.366C205.977 128.647 205.644 128.701 205.381 128.512C205.023 128.256 204.887 127.611 205.088 127.132C205.267 126.707 205.645 126.341 206.034 126.073C205.691 125.615 205.239 125.22 204.879 124.997C204.834 124.969 204.788 124.941 204.742 124.914C203.899 125.761 202.68 126.335 201.548 126.868C201.066 127.095 200.611 127.309 200.206 127.534C199.09 128.156 198.352 128.792 197.885 129.536C197.303 130.464 197.324 131.246 197.946 131.798C198.007 131.851 198.072 131.902 198.142 131.949C198.337 131.692 198.594 131.451 198.91 131.228C200.412 130.17 201.576 130.324 202.023 130.915C202.344 131.34 202.226 131.913 201.737 132.309C201.052 132.864 199.317 132.889 198.207 132.262C198.04 132.528 197.942 132.81 197.912 133.106C197.8 134.229 198.715 135.209 198.725 135.219C198.769 135.265 198.767 135.339 198.72 135.382C198.698 135.404 198.669 135.415 198.641 135.415ZM198.34 132.072C199.359 132.634 200.973 132.629 201.592 132.129C201.984 131.811 202.083 131.379 201.838 131.055C201.52 130.633 200.513 130.382 199.043 131.418C198.754 131.621 198.52 131.84 198.34 132.072ZM191.745 127.113C191.571 127.418 191.448 127.747 191.388 128.1C191.297 128.632 191.412 129.087 191.729 129.453C192.359 130.179 193.642 130.413 194.549 130.382C196.359 130.332 197.766 129.282 198.313 127.575C198.71 126.332 198.593 124.992 198.056 123.867C197.94 123.886 197.823 123.907 197.704 123.93C196.929 125.871 194.933 127.932 192.558 127.424C192.263 127.36 191.99 127.256 191.745 127.113ZM206.168 126.263C205.798 126.518 205.455 126.857 205.302 127.222C205.144 127.596 205.248 128.132 205.515 128.323C205.734 128.48 205.976 128.339 206.141 128.193C206.44 127.927 206.576 127.602 206.544 127.227C206.516 126.906 206.371 126.574 206.168 126.263ZM191.866 126.915C192.09 127.044 192.338 127.14 192.606 127.197C194.797 127.664 196.655 125.8 197.432 123.983C195.35 124.415 192.913 125.334 191.866 126.915ZM207.031 125.85C207.133 126.031 207.261 126.205 207.413 126.368C207.703 126.681 208.587 127.175 209.1 127.013C209.304 126.949 209.422 126.784 209.459 126.511C209.493 126.257 209.422 126.068 209.24 125.933C208.768 125.581 207.671 125.683 207.031 125.85ZM190.815 125.668C190.831 125.708 190.847 125.748 190.865 125.787C191.05 126.203 191.327 126.543 191.675 126.792C192.05 126.23 192.59 125.749 193.223 125.341C192.848 125.488 192.468 125.591 192.084 125.652C191.655 125.719 191.229 125.723 190.815 125.668ZM204.904 124.741C204.937 124.761 204.969 124.78 205.001 124.8C205.363 125.024 205.855 125.443 206.23 125.946C206.356 125.87 206.481 125.805 206.596 125.753C206.628 125.739 206.665 125.724 206.706 125.709C206.447 125.112 206.42 124.458 206.651 123.869C206.935 123.144 207.557 122.63 208.36 122.433C207.958 122.299 207.555 122.137 207.174 121.928C206.753 122.212 206.284 122.415 205.807 122.509C205.806 122.526 205.806 122.542 205.805 122.558C205.768 123.454 205.424 124.16 204.904 124.741ZM190.731 125.422C191.159 125.49 191.602 125.493 192.048 125.423C193.681 125.166 195.257 124.086 196.743 122.209C196.719 122.19 196.694 122.171 196.67 122.153C195.67 121.397 194.39 121.085 193.247 121.318C192.293 121.512 191.533 122.06 191.048 122.903C190.895 123.168 190.782 123.452 190.709 123.745C190.88 123.877 191.071 123.98 191.283 124.045C191.344 124.063 191.379 124.128 191.36 124.189C191.341 124.25 191.276 124.285 191.215 124.266C191.012 124.204 190.826 124.111 190.657 123.992C190.575 124.472 190.598 124.966 190.731 125.422ZM188.825 116.803C188.816 116.809 188.808 116.815 188.8 116.821C187.178 117.996 186.529 119.922 187.064 121.972C187.524 123.736 188.874 125.017 190.478 125.374C190.353 124.876 190.346 124.344 190.452 123.83C189.529 123.004 189.193 121.382 189.272 120.262C189.286 120.059 189.348 119.719 189.45 119.295C189.223 119.135 189.048 118.923 188.927 118.66C188.683 118.128 188.695 117.456 188.825 116.803ZM196.921 122.357C196.148 123.334 195.348 124.099 194.527 124.652C195.5 124.226 196.56 123.924 197.533 123.73C197.594 123.566 197.646 123.404 197.688 123.245C197.689 123.241 197.69 123.236 197.692 123.232C197.473 122.91 197.215 122.615 196.921 122.357ZM200.068 123.449C201.719 123.449 203.339 123.859 204.696 124.62C205.203 124.066 205.539 123.395 205.574 122.549C205.574 122.548 205.574 122.547 205.574 122.546C205.46 122.56 205.346 122.568 205.232 122.569C205.221 122.569 205.209 122.569 205.198 122.569C204.114 122.569 203.059 122.164 202.044 121.361C201.213 121.823 200.296 122.107 199.331 122.122C198.919 122.131 198.508 122.081 198.106 121.983C198.092 122.386 198.038 122.791 197.941 123.19C198.03 123.326 198.112 123.468 198.187 123.613C198.789 123.517 199.336 123.466 199.782 123.453C199.877 123.45 199.973 123.449 200.068 123.449ZM197.857 123.494C197.839 123.555 197.818 123.617 197.797 123.679C197.847 123.67 197.897 123.661 197.947 123.653C197.918 123.599 197.888 123.546 197.857 123.494ZM189.662 119.421C189.57 119.806 189.515 120.108 189.503 120.279C189.431 121.308 189.719 122.785 190.515 123.575C190.593 123.302 190.704 123.036 190.847 122.787C191.366 121.885 192.18 121.298 193.201 121.091C194.408 120.845 195.757 121.173 196.809 121.968C196.835 121.987 196.86 122.007 196.886 122.027C196.979 121.905 197.071 121.781 197.164 121.653C195.895 121.072 194.758 119.971 193.928 118.471C193.849 118.329 193.757 118.152 193.663 117.947C192.81 119.051 191.473 119.859 190.186 119.598C189.993 119.558 189.818 119.499 189.662 119.421ZM197.064 122.174C197.324 122.402 197.557 122.656 197.762 122.931C197.83 122.596 197.868 122.258 197.876 121.921C197.71 121.872 197.544 121.814 197.381 121.748C197.276 121.894 197.17 122.036 197.064 122.174ZM202.252 121.24C203.2 121.976 204.175 122.337 205.197 122.337C205.208 122.337 205.219 122.337 205.23 122.337C205.346 122.336 205.463 122.328 205.579 122.313C205.581 121.807 205.528 121.313 205.476 120.834C205.446 120.564 205.416 120.29 205.397 120.012C205.201 119.541 205.052 118.933 205.074 118.355C204.402 119.484 203.421 120.537 202.252 121.24ZM205.679 120.559C205.687 120.642 205.697 120.725 205.706 120.809C205.757 121.282 205.81 121.769 205.81 122.273C206.207 122.188 206.596 122.024 206.952 121.798C206.459 121.493 206.015 121.096 205.679 120.559ZM198.109 121.745C198.509 121.847 198.917 121.897 199.327 121.891C200.221 121.877 201.075 121.621 201.852 121.204C201.296 120.735 200.753 120.146 200.224 119.438C199.942 119.061 199.602 118.606 199.342 118.108C198.994 119.049 198.524 119.97 198.027 120.779C198.08 121.098 198.107 121.42 198.109 121.745ZM197.519 121.553C197.638 121.6 197.757 121.642 197.877 121.68C197.874 121.479 197.86 121.279 197.837 121.081C197.731 121.244 197.625 121.402 197.519 121.553ZM205.624 119.955C205.653 120.023 205.683 120.088 205.713 120.148C206.056 120.833 206.575 121.307 207.163 121.654C207.61 121.325 207.991 120.896 208.248 120.402C208.716 119.5 208.672 118.565 208.123 117.771C207.786 117.284 207.218 116.918 206.709 116.861C206.367 116.823 206.066 116.915 205.815 117.135C205.815 117.559 205.759 118 205.682 118.44C205.59 118.964 205.59 119.459 205.624 119.955ZM193.82 117.733C193.93 117.982 194.039 118.194 194.13 118.359C194.944 119.831 196.061 120.905 197.301 121.461C197.309 121.45 197.317 121.439 197.325 121.427C197.478 121.208 197.633 120.975 197.784 120.731C197.495 119.12 196.548 117.633 195.117 116.712C194.908 116.578 194.693 116.459 194.473 116.354C194.414 116.577 194.331 116.805 194.224 117.034C194.112 117.272 193.977 117.508 193.82 117.733ZM199.451 117.802C199.709 118.363 200.097 118.881 200.41 119.3C200.954 120.028 201.503 120.623 202.061 121.087C203.473 120.261 204.612 118.906 205.252 117.522C205.259 117.508 205.265 117.494 205.272 117.48C205.323 117.367 205.372 117.253 205.417 117.14C205.469 117.007 205.517 116.875 205.559 116.746C205.471 115.928 205.095 115.205 204.119 114.725C202.852 114.102 200.988 114.199 199.929 115.108C199.951 115.958 199.763 116.884 199.451 117.802ZM194.526 116.124C194.772 116.238 195.011 116.369 195.242 116.518C196.653 117.426 197.611 118.864 197.962 120.44C198.44 119.636 198.884 118.732 199.203 117.819C198.907 117.143 198.795 116.402 199.181 115.674C199.314 115.422 199.489 115.201 199.695 115.01C199.681 114.734 199.644 114.469 199.579 114.215C199.345 113.298 198.768 112.606 197.864 112.159C196.507 111.486 194.738 112.037 193.838 113.414C193.792 113.485 193.749 113.556 193.709 113.627C194.436 114.247 194.718 115.138 194.526 116.124ZM189.719 119.188C189.868 119.27 190.04 119.331 190.233 119.371C191.448 119.62 192.756 118.781 193.555 117.701C193.344 117.199 193.143 116.573 193.071 115.898C192.332 115.759 191.573 115.766 190.847 115.919C190.348 117.02 189.949 118.28 189.719 119.188ZM205.574 117.414C205.267 117.89 205.258 118.549 205.377 119.147C205.386 118.902 205.41 118.653 205.454 118.4C205.512 118.068 205.558 117.737 205.574 117.414ZM189.099 116.619C188.933 117.299 188.886 118.017 189.137 118.564C189.227 118.758 189.351 118.92 189.511 119.049C189.736 118.175 190.105 117.026 190.566 115.985C190.051 116.122 189.556 116.334 189.099 116.619ZM193.309 115.948C193.378 116.509 193.537 117.035 193.712 117.475C193.828 117.299 193.929 117.118 194.014 116.936C194.092 116.769 194.187 116.533 194.258 116.257C193.949 116.126 193.631 116.023 193.309 115.948ZM199.7 115.332C199.578 115.468 199.472 115.618 199.385 115.783C199.089 116.342 199.126 116.922 199.318 117.473C199.547 116.743 199.69 116.014 199.7 115.332ZM198.019 110.314C197.318 110.314 196.635 110.369 196 110.479C193.386 110.931 191.057 112.584 189.769 114.899C189.584 115.231 189.353 115.739 189.186 116.299C189.658 116.032 190.165 115.838 190.688 115.717C191.203 114.615 191.822 113.679 192.477 113.391C192.837 113.232 193.189 113.265 193.524 113.485C193.561 113.419 193.601 113.353 193.644 113.288C194.607 111.814 196.506 111.227 197.967 111.951C198.934 112.43 199.552 113.173 199.803 114.158C199.858 114.373 199.894 114.597 199.914 114.827C201.064 113.962 202.935 113.885 204.222 114.518C205.092 114.946 205.524 115.544 205.705 116.227C206.013 114.912 205.78 113.77 205.01 112.823C203.629 111.126 200.699 110.314 198.019 110.314ZM193.286 115.706C193.633 115.782 193.975 115.889 194.308 116.028C194.43 115.355 194.362 114.513 193.601 113.84C193.316 114.453 193.242 115.095 193.286 115.706ZM192.922 113.524C192.807 113.524 192.69 113.55 192.57 113.603C191.991 113.857 191.439 114.674 190.967 115.66C191.651 115.537 192.358 115.536 193.051 115.659C193.013 115.016 193.101 114.339 193.415 113.691C193.253 113.58 193.089 113.524 192.922 113.524Z" fill="url(#paint57_linear_6930_5865)"/>
<defs>
<linearGradient id="paint0_linear_6930_5865" x1="299.801" y1="220.188" x2="157.339" y2="95.534" gradientUnits="userSpaceOnUse">
<stop stop-color="#B37CFF"/>
<stop offset="1" stop-color="#F895E7"/>
</linearGradient>
<linearGradient id="paint1_linear_6930_5865" x1="378.981" y1="84.7864" x2="317.18" y2="103.535" gradientUnits="userSpaceOnUse">
<stop stop-color="#B37CFF"/>
<stop offset="1" stop-color="#F895E7"/>
</linearGradient>
<linearGradient id="paint2_linear_6930_5865" x1="252.34" y1="142.191" x2="227.272" y2="37.5539" gradientUnits="userSpaceOnUse">
<stop stop-color="#A737D5"/>
<stop offset="1" stop-color="#EF497A"/>
</linearGradient>
<linearGradient id="paint3_linear_6930_5865" x1="124.366" y1="190.156" x2="120.622" y2="1.99944" gradientUnits="userSpaceOnUse">
<stop stop-color="#B37CFF"/>
<stop offset="1" stop-color="#F895E7"/>
</linearGradient>
<linearGradient id="paint4_linear_6930_5865" x1="299.688" y1="-34.3007" x2="192.057" y2="108.744" gradientUnits="userSpaceOnUse">
<stop stop-color="#53D8FF"/>
<stop offset="0.7009" stop-color="#406EFA"/>
<stop offset="0.844" stop-color="#3C58F9"/>
<stop offset="0.92" stop-color="#3A4CF8"/>
<stop offset="1" stop-color="#3840F7"/>
</linearGradient>
<linearGradient id="paint5_linear_6930_5865" x1="218.744" y1="40.7305" x2="81.8648" y2="317.121" gradientUnits="userSpaceOnUse">
<stop stop-color="#53D8FF"/>
<stop offset="0.7009" stop-color="#406EFA"/>
<stop offset="0.844" stop-color="#3C58F9"/>
<stop offset="0.92" stop-color="#3A4CF8"/>
<stop offset="1" stop-color="#3840F7"/>
</linearGradient>
<linearGradient id="paint6_linear_6930_5865" x1="202.263" y1="-18.3723" x2="134.991" y2="108.582" gradientUnits="userSpaceOnUse">
<stop stop-color="#A737D5"/>
<stop offset="1" stop-color="#EF497A"/>
</linearGradient>
<linearGradient id="paint7_linear_6930_5865" x1="209.646" y1="-14.4689" x2="142.371" y2="112.49" gradientUnits="userSpaceOnUse">
<stop stop-color="#A737D5"/>
<stop offset="1" stop-color="#EF497A"/>
</linearGradient>
<linearGradient id="paint8_linear_6930_5865" x1="200.207" y1="18.5857" x2="134.726" y2="55.4641" gradientUnits="userSpaceOnUse">
<stop stop-color="#2B3582"/>
<stop offset="1" stop-color="#150E42"/>
</linearGradient>
<linearGradient id="paint9_linear_6930_5865" x1="198.34" y1="14.3476" x2="151.474" y2="74.4741" gradientUnits="userSpaceOnUse">
<stop stop-color="#2B3582"/>
<stop offset="1" stop-color="#150E42"/>
</linearGradient>
<linearGradient id="paint10_linear_6930_5865" x1="176.63" y1="-8.26272" x2="175.241" y2="92.1828" gradientUnits="userSpaceOnUse">
<stop stop-color="#53D8FF"/>
<stop offset="0.7009" stop-color="#406EFA"/>
<stop offset="0.844" stop-color="#3C58F9"/>
<stop offset="0.92" stop-color="#3A4CF8"/>
<stop offset="1" stop-color="#3840F7"/>
</linearGradient>
<linearGradient id="paint11_linear_6930_5865" x1="256.237" y1="99.8679" x2="243.276" y2="123.706" gradientUnits="userSpaceOnUse">
<stop stop-color="#2B3582"/>
<stop offset="1" stop-color="#150E42"/>
</linearGradient>
<linearGradient id="paint12_linear_6930_5865" x1="236.389" y1="141.695" x2="276.66" y2="200.48" gradientUnits="userSpaceOnUse">
<stop stop-color="#C32B78"/>
<stop offset="1" stop-color="#593092"/>
</linearGradient>
<linearGradient id="paint13_linear_6930_5865" x1="231.438" y1="162.38" x2="243.611" y2="162.38" gradientUnits="userSpaceOnUse">
<stop stop-color="#F9B776"/>
<stop offset="1" stop-color="#F47960"/>
</linearGradient>
<linearGradient id="paint14_linear_6930_5865" x1="252.874" y1="163.226" x2="249.866" y2="212.754" gradientUnits="userSpaceOnUse">
<stop stop-color="#C32B78"/>
<stop offset="1" stop-color="#593092"/>
</linearGradient>
<linearGradient id="paint15_linear_6930_5865" x1="240.202" y1="162.457" x2="237.193" y2="211.985" gradientUnits="userSpaceOnUse">
<stop stop-color="#C32B78"/>
<stop offset="1" stop-color="#593092"/>
</linearGradient>
<linearGradient id="paint16_linear_6930_5865" x1="262.772" y1="177.173" x2="265.781" y2="226.701" gradientUnits="userSpaceOnUse">
<stop stop-color="#C32B78"/>
<stop offset="1" stop-color="#593092"/>
</linearGradient>
<linearGradient id="paint17_linear_6930_5865" x1="154.613" y1="184.598" x2="204.429" y2="184.393" gradientUnits="userSpaceOnUse">
<stop stop-color="#C32B78"/>
<stop offset="1" stop-color="#593092"/>
</linearGradient>
<linearGradient id="paint18_linear_6930_5865" x1="201.15" y1="188.709" x2="233.754" y2="192.133" gradientUnits="userSpaceOnUse">
<stop stop-color="#F9B776"/>
<stop offset="1" stop-color="#F47960"/>
</linearGradient>
<linearGradient id="paint19_linear_6930_5865" x1="210.928" y1="202.379" x2="235.761" y2="226.216" gradientUnits="userSpaceOnUse">
<stop stop-color="#CB236D"/>
<stop offset="1" stop-color="#4C246D"/>
</linearGradient>
<linearGradient id="paint20_linear_6930_5865" x1="206.024" y1="186.052" x2="92.8508" y2="153.392" gradientUnits="userSpaceOnUse">
<stop stop-color="#F9B776"/>
<stop offset="1" stop-color="#F47960"/>
</linearGradient>
<linearGradient id="paint21_linear_6930_5865" x1="217.598" y1="204.375" x2="243.993" y2="226.465" gradientUnits="userSpaceOnUse">
<stop stop-color="#CB236D"/>
<stop offset="1" stop-color="#4C246D"/>
</linearGradient>
<linearGradient id="paint22_linear_6930_5865" x1="250.608" y1="160.724" x2="224.695" y2="207.566" gradientUnits="userSpaceOnUse">
<stop stop-color="#50E7B7"/>
<stop offset="0.9964" stop-color="#323992"/>
</linearGradient>
<linearGradient id="paint23_linear_6930_5865" x1="234.066" y1="143.365" x2="302.856" y2="209.72" gradientUnits="userSpaceOnUse">
<stop stop-color="#FDF53F"/>
<stop offset="1" stop-color="#D93C65"/>
</linearGradient>
<linearGradient id="paint24_linear_6930_5865" x1="242.691" y1="149.351" x2="240.708" y2="136.629" gradientUnits="userSpaceOnUse">
<stop stop-color="#F9B776"/>
<stop offset="1" stop-color="#F47960"/>
</linearGradient>
<linearGradient id="paint25_linear_6930_5865" x1="232.319" y1="135.657" x2="247.594" y2="133.097" gradientUnits="userSpaceOnUse">
<stop stop-color="#F9B776"/>
<stop offset="1" stop-color="#F47960"/>
</linearGradient>
<linearGradient id="paint26_linear_6930_5865" x1="233.373" y1="135.843" x2="242.168" y2="125.891" gradientUnits="userSpaceOnUse">
<stop stop-color="#2B3582"/>
<stop offset="1" stop-color="#150E42"/>
</linearGradient>
<linearGradient id="paint27_linear_6930_5865" x1="232.09" y1="134.309" x2="247.365" y2="131.749" gradientUnits="userSpaceOnUse">
<stop stop-color="#F9B776"/>
<stop offset="1" stop-color="#F47960"/>
</linearGradient>
<linearGradient id="paint28_linear_6930_5865" x1="251.836" y1="165.572" x2="280.905" y2="165.572" gradientUnits="userSpaceOnUse">
<stop stop-color="#F9B776"/>
<stop offset="1" stop-color="#F47960"/>
</linearGradient>
<linearGradient id="paint29_linear_6930_5865" x1="223.383" y1="160.352" x2="239.03" y2="160.352" gradientUnits="userSpaceOnUse">
<stop stop-color="#2B3582"/>
<stop offset="1" stop-color="#150E42"/>
</linearGradient>
<linearGradient id="paint30_linear_6930_5865" x1="224.539" y1="152.225" x2="229.074" y2="152.225" gradientUnits="userSpaceOnUse">
<stop stop-color="#A737D5"/>
<stop offset="1" stop-color="#EF497A"/>
</linearGradient>
<linearGradient id="paint31_linear_6930_5865" x1="224.797" y1="161.058" x2="227.518" y2="161.058" gradientUnits="userSpaceOnUse">
<stop stop-color="#F9B776"/>
<stop offset="1" stop-color="#F47960"/>
</linearGradient>
<linearGradient id="paint32_linear_6930_5865" x1="238.508" y1="162.05" x2="240.454" y2="162.05" gradientUnits="userSpaceOnUse">
<stop stop-color="#2B3582"/>
<stop offset="1" stop-color="#150E42"/>
</linearGradient>
<linearGradient id="paint33_linear_6930_5865" x1="156.38" y1="238.326" x2="160.083" y2="192.964" gradientUnits="userSpaceOnUse">
<stop stop-color="#CB236D"/>
<stop offset="1" stop-color="#4C246D"/>
</linearGradient>
<linearGradient id="paint34_linear_6930_5865" x1="126.116" y1="235.855" x2="129.819" y2="190.493" gradientUnits="userSpaceOnUse">
<stop stop-color="#CB236D"/>
<stop offset="1" stop-color="#4C246D"/>
</linearGradient>
<linearGradient id="paint35_linear_6930_5865" x1="194.784" y1="230.108" x2="191.081" y2="184.746" gradientUnits="userSpaceOnUse">
<stop stop-color="#CB236D"/>
<stop offset="1" stop-color="#4C246D"/>
</linearGradient>
<linearGradient id="paint36_linear_6930_5865" x1="126.761" y1="168.842" x2="227.503" y2="168.842" gradientUnits="userSpaceOnUse">
<stop stop-color="#C32B78"/>
<stop offset="1" stop-color="#593092"/>
</linearGradient>
<linearGradient id="paint37_linear_6930_5865" x1="169.217" y1="144.453" x2="171.298" y2="154.817" gradientUnits="userSpaceOnUse">
<stop stop-color="#F9B776"/>
<stop offset="1" stop-color="#F47960"/>
</linearGradient>
<linearGradient id="paint38_linear_6930_5865" x1="165.702" y1="141.498" x2="154.556" y2="156.04" gradientUnits="userSpaceOnUse">
<stop stop-color="#A737D5"/>
<stop offset="1" stop-color="#EF497A"/>
</linearGradient>
<linearGradient id="paint39_linear_6930_5865" x1="162.781" y1="214.876" x2="176.486" y2="214.876" gradientUnits="userSpaceOnUse">
<stop stop-color="#53D8FF"/>
<stop offset="0.7009" stop-color="#406EFA"/>
<stop offset="0.844" stop-color="#3C58F9"/>
<stop offset="0.92" stop-color="#3A4CF8"/>
<stop offset="1" stop-color="#3840F7"/>
</linearGradient>
<linearGradient id="paint40_linear_6930_5865" x1="173.343" y1="188.524" x2="169.598" y2="214.394" gradientUnits="userSpaceOnUse">
<stop stop-color="#2B3582"/>
<stop offset="1" stop-color="#150E42"/>
</linearGradient>
<linearGradient id="paint41_linear_6930_5865" x1="163.453" y1="210.745" x2="167.161" y2="210.745" gradientUnits="userSpaceOnUse">
<stop stop-color="#F9B776"/>
<stop offset="1" stop-color="#F47960"/>
</linearGradient>
<linearGradient id="paint42_linear_6930_5865" x1="184.266" y1="212.157" x2="195.33" y2="212.157" gradientUnits="userSpaceOnUse">
<stop stop-color="#53D8FF"/>
<stop offset="0.7009" stop-color="#406EFA"/>
<stop offset="0.844" stop-color="#3C58F9"/>
<stop offset="0.92" stop-color="#3A4CF8"/>
<stop offset="1" stop-color="#3840F7"/>
</linearGradient>
<linearGradient id="paint43_linear_6930_5865" x1="191.883" y1="191.206" x2="188.139" y2="217.076" gradientUnits="userSpaceOnUse">
<stop stop-color="#2B3582"/>
<stop offset="1" stop-color="#150E42"/>
</linearGradient>
<linearGradient id="paint44_linear_6930_5865" x1="142.953" y1="194.014" x2="172.306" y2="194.014" gradientUnits="userSpaceOnUse">
<stop stop-color="#2B3582"/>
<stop offset="1" stop-color="#150E42"/>
</linearGradient>
<linearGradient id="paint45_linear_6930_5865" x1="712.823" y1="490.244" x2="709.549" y2="488.518" gradientUnits="userSpaceOnUse">
<stop stop-color="#F9B776"/>
<stop offset="1" stop-color="#F47960"/>
</linearGradient>
<linearGradient id="paint46_linear_6930_5865" x1="159.694" y1="193.039" x2="127.47" y2="229.575" gradientUnits="userSpaceOnUse">
<stop stop-color="#2B3582"/>
<stop offset="1" stop-color="#150E42"/>
</linearGradient>
<linearGradient id="paint47_linear_6930_5865" x1="152.64" y1="148.19" x2="123.757" y2="196.569" gradientUnits="userSpaceOnUse">
<stop stop-color="#A737D5"/>
<stop offset="1" stop-color="#EF497A"/>
</linearGradient>
<linearGradient id="paint48_linear_6930_5865" x1="143.781" y1="140.506" x2="151.703" y2="140.506" gradientUnits="userSpaceOnUse">
<stop stop-color="#F9B776"/>
<stop offset="1" stop-color="#F47960"/>
</linearGradient>
<linearGradient id="paint49_linear_6930_5865" x1="154.558" y1="130.706" x2="149.185" y2="148.641" gradientUnits="userSpaceOnUse">
<stop stop-color="#F9B776"/>
<stop offset="1" stop-color="#F47960"/>
</linearGradient>
<linearGradient id="paint50_linear_6930_5865" x1="144.634" y1="157.261" x2="161.991" y2="107.272" gradientUnits="userSpaceOnUse">
<stop stop-color="#2B3582"/>
<stop offset="1" stop-color="#150E42"/>
</linearGradient>
<linearGradient id="paint51_linear_6930_5865" x1="143.195" y1="147.557" x2="148.443" y2="135.692" gradientUnits="userSpaceOnUse">
<stop stop-color="#F9B776"/>
<stop offset="1" stop-color="#F47960"/>
</linearGradient>
<linearGradient id="paint52_linear_6930_5865" x1="158.113" y1="154.599" x2="116.19" y2="192.243" gradientUnits="userSpaceOnUse">
<stop stop-color="#A737D5"/>
<stop offset="1" stop-color="#EF497A"/>
</linearGradient>
<linearGradient id="paint53_linear_6930_5865" x1="-161.797" y1="379.014" x2="-29.4892" y2="285.334" gradientUnits="userSpaceOnUse">
<stop stop-color="#C32B78"/>
<stop offset="1" stop-color="#593092"/>
</linearGradient>
<linearGradient id="paint54_linear_6930_5865" x1="-162.016" y1="378.693" x2="-29.7091" y2="285.014" gradientUnits="userSpaceOnUse">
<stop stop-color="#C32B78"/>
<stop offset="1" stop-color="#593092"/>
</linearGradient>
<linearGradient id="paint55_linear_6930_5865" x1="167.166" y1="165.601" x2="150.332" y2="180.294" gradientUnits="userSpaceOnUse">
<stop stop-color="#F9B776"/>
<stop offset="1" stop-color="#F47960"/>
</linearGradient>
<linearGradient id="paint56_linear_6930_5865" x1="194.359" y1="114.536" x2="193.691" y2="183.003" gradientUnits="userSpaceOnUse">
<stop stop-color="#FDF53F"/>
<stop offset="1" stop-color="#D93C65"/>
</linearGradient>
<linearGradient id="paint57_linear_6930_5865" x1="198.304" y1="110.086" x2="198.057" y2="135.409" gradientUnits="userSpaceOnUse">
<stop stop-color="#2B3582"/>
<stop offset="1" stop-color="#150E42"/>
</linearGradient>
</defs>
</svg>
