<svg width="29" height="30" viewBox="0 0 29 30" fill="none" xmlns="http://www.w3.org/2000/svg">
<path opacity="0.9" d="M4.2018 29.195C2.7618 26.825 1.7868 24.35 1.2768 21.77C0.766797 19.19 0.721797 16.655 1.1418 14.165C1.5618 11.675 2.4318 9.29 3.7518 7.01C5.1018 4.7 6.9018 2.63 9.1518 0.799997L12.6168 2.91499C13.2168 3.30499 13.4868 3.785 13.4268 4.355C13.3668 4.925 13.1718 5.375 12.8418 5.705C12.2118 6.455 11.6118 7.44499 11.0418 8.675C10.4718 9.905 10.0668 11.285 9.8268 12.815C9.6168 14.345 9.6468 15.98 9.9168 17.72C10.1868 19.46 10.8618 21.2 11.9418 22.94C12.4818 23.81 12.6318 24.575 12.3918 25.235C12.1518 25.865 11.6568 26.315 10.9068 26.585L4.2018 29.195ZM19.1418 29.195C17.7018 26.825 16.7268 24.35 16.2168 21.77C15.7068 19.19 15.6618 16.655 16.0818 14.165C16.5018 11.675 17.3718 9.29 18.6918 7.01C20.0418 4.7 21.8418 2.63 24.0918 0.799997L27.5568 2.91499C28.1568 3.30499 28.4268 3.785 28.3668 4.355C28.3068 4.925 28.1118 5.375 27.7818 5.705C27.1518 6.455 26.5518 7.44499 25.9818 8.675C25.4118 9.905 25.0068 11.285 24.7668 12.815C24.5568 14.345 24.5868 15.98 24.8568 17.72C25.1268 19.46 25.8018 21.2 26.8818 22.94C27.4218 23.81 27.5718 24.575 27.3318 25.235C27.0918 25.865 26.5968 26.315 25.8468 26.585L19.1418 29.195Z" fill="#FF3185"/>
</svg>
