<svg width="262" height="68" viewBox="0 0 262 68" fill="none" xmlns="http://www.w3.org/2000/svg">
<rect width="262" height="68" rx="10" fill="#262626"/>
<g clip-path="url(#clip0_4359_1204)">
<path d="M46.8455 17.0792C48.3506 15.4679 49.3687 13.2308 49.09 11C46.9216 11.0774 44.2936 12.2728 42.7372 13.884C41.342 15.3104 40.1205 17.59 40.4465 19.777C42.866 19.9407 45.3379 18.6879 46.8455 17.0792ZM51.4634 32.4851C51.4171 27.4839 55.4229 25.0819 55.6003 24.9658C53.3483 21.5696 49.8409 21.1049 48.5918 21.0525C45.6053 20.739 42.7686 22.8611 41.2524 22.8611C39.7423 22.8611 37.4066 21.0936 34.9297 21.1411C31.6734 21.1948 28.673 23.0909 27.0007 26.0961C23.6181 32.1417 26.1337 41.0973 29.4299 46.0011C31.0412 48.4018 32.9597 51.0948 35.479 50.9974C37.9109 50.9 38.8277 49.3799 41.7618 49.3799C44.6972 49.3799 45.519 50.9974 48.087 50.9487C50.7001 50.9 52.3538 48.5018 53.9514 46.0936C55.7999 43.3095 56.562 40.614 56.6056 40.4779C56.5495 40.4454 51.517 38.4656 51.4634 32.4851Z" fill="white"/>
</g>
<path d="M85.6328 23.1797C85.6328 24.4661 85.3984 25.5417 84.9297 26.4062C84.4609 27.2656 83.7812 27.9141 82.8906 28.3516C82.0052 28.7839 80.9297 29 79.6641 29H76.5625V17.5781H80.0078C81.1693 17.5781 82.1693 17.7917 83.0078 18.2188C83.8464 18.6406 84.4922 19.2682 84.9453 20.1016C85.4036 20.9297 85.6328 21.9557 85.6328 23.1797ZM84.2344 23.2266C84.2344 22.2005 84.0625 21.3542 83.7188 20.6875C83.3802 20.0208 82.8802 19.526 82.2188 19.2031C81.5625 18.875 80.7578 18.7109 79.8047 18.7109H77.8906V27.8594H79.5078C81.0807 27.8594 82.2604 27.4714 83.0469 26.6953C83.8385 25.9193 84.2344 24.763 84.2344 23.2266ZM94.5594 24.7031C94.5594 25.4062 94.4682 26.0339 94.2859 26.5859C94.1036 27.138 93.8406 27.6042 93.4969 27.9844C93.1531 28.3646 92.7365 28.6562 92.2469 28.8594C91.7625 29.0573 91.213 29.1562 90.5984 29.1562C90.0255 29.1562 89.4995 29.0573 89.0203 28.8594C88.5464 28.6562 88.1349 28.3646 87.7859 27.9844C87.4422 27.6042 87.174 27.138 86.9812 26.5859C86.7937 26.0339 86.7 25.4062 86.7 24.7031C86.7 23.7656 86.8589 22.9688 87.1766 22.3125C87.4943 21.651 87.9474 21.1484 88.5359 20.8047C89.1297 20.4557 89.8354 20.2812 90.6531 20.2812C91.4344 20.2812 92.1167 20.4557 92.7 20.8047C93.2885 21.1536 93.7443 21.6589 94.0672 22.3203C94.3953 22.9766 94.5594 23.7708 94.5594 24.7031ZM88.0437 24.7031C88.0437 25.3906 88.1349 25.987 88.3172 26.4922C88.4995 26.9974 88.7807 27.388 89.1609 27.6641C89.5411 27.9401 90.0307 28.0781 90.6297 28.0781C91.2234 28.0781 91.7104 27.9401 92.0906 27.6641C92.476 27.388 92.7599 26.9974 92.9422 26.4922C93.1245 25.987 93.2156 25.3906 93.2156 24.7031C93.2156 24.0208 93.1245 23.4323 92.9422 22.9375C92.7599 22.4375 92.4786 22.0521 92.0984 21.7812C91.7182 21.5104 91.226 21.375 90.6219 21.375C89.7312 21.375 89.0776 21.6693 88.6609 22.2578C88.2495 22.8464 88.0437 23.6615 88.0437 24.7031ZM102.97 28.9844L101.447 24C101.379 23.7865 101.314 23.5781 101.252 23.375C101.194 23.1667 101.14 22.9688 101.087 22.7812C101.041 22.5885 100.996 22.4115 100.955 22.25C100.918 22.0833 100.887 21.9401 100.861 21.8203H100.806C100.785 21.9401 100.757 22.0833 100.72 22.25C100.684 22.4115 100.64 22.5885 100.587 22.7812C100.541 22.974 100.489 23.1771 100.431 23.3906C100.374 23.599 100.309 23.8099 100.236 24.0234L98.6422 28.9844H97.1812L94.8219 20.4219H96.1656L97.4 25.1484C97.4833 25.4609 97.5615 25.7708 97.6344 26.0781C97.7125 26.3802 97.7776 26.6667 97.8297 26.9375C97.887 27.2031 97.9286 27.4349 97.9547 27.6328H98.0172C98.0484 27.5026 98.0823 27.3464 98.1187 27.1641C98.1604 26.9818 98.2047 26.7891 98.2516 26.5859C98.3036 26.3776 98.3583 26.1719 98.4156 25.9688C98.4729 25.7604 98.5302 25.5651 98.5875 25.3828L100.166 20.4219H101.564L103.087 25.375C103.166 25.625 103.241 25.8854 103.314 26.1562C103.392 26.4271 103.462 26.6901 103.525 26.9453C103.587 27.1953 103.632 27.4193 103.658 27.6172H103.72C103.741 27.4401 103.78 27.2214 103.837 26.9609C103.895 26.7005 103.96 26.4141 104.033 26.1016C104.111 25.7891 104.192 25.4714 104.275 25.1484L105.525 20.4219H106.845L104.478 28.9844H102.97ZM111.663 20.2812C112.678 20.2812 113.446 20.5312 113.967 21.0312C114.488 21.526 114.748 22.3229 114.748 23.4219V29H113.467V23.5078C113.467 22.7943 113.303 22.2604 112.975 21.9062C112.652 21.5521 112.155 21.375 111.483 21.375C110.535 21.375 109.868 21.6432 109.483 22.1797C109.097 22.7161 108.905 23.4948 108.905 24.5156V29H107.608V20.4375H108.655L108.85 21.6719H108.92C109.103 21.3698 109.334 21.1172 109.616 20.9141C109.897 20.7057 110.212 20.5495 110.561 20.4453C110.91 20.3359 111.277 20.2812 111.663 20.2812ZM117.925 29H116.62V16.8438H117.925V29ZM127.25 24.7031C127.25 25.4062 127.159 26.0339 126.977 26.5859C126.794 27.138 126.531 27.6042 126.188 27.9844C125.844 28.3646 125.427 28.6562 124.938 28.8594C124.453 29.0573 123.904 29.1562 123.289 29.1562C122.716 29.1562 122.19 29.0573 121.711 28.8594C121.237 28.6562 120.826 28.3646 120.477 27.9844C120.133 27.6042 119.865 27.138 119.672 26.5859C119.484 26.0339 119.391 25.4062 119.391 24.7031C119.391 23.7656 119.549 22.9688 119.867 22.3125C120.185 21.651 120.638 21.1484 121.227 20.8047C121.82 20.4557 122.526 20.2812 123.344 20.2812C124.125 20.2812 124.807 20.4557 125.391 20.8047C125.979 21.1536 126.435 21.6589 126.758 22.3203C127.086 22.9766 127.25 23.7708 127.25 24.7031ZM120.734 24.7031C120.734 25.3906 120.826 25.987 121.008 26.4922C121.19 26.9974 121.471 27.388 121.852 27.6641C122.232 27.9401 122.721 28.0781 123.32 28.0781C123.914 28.0781 124.401 27.9401 124.781 27.6641C125.167 27.388 125.451 26.9974 125.633 26.4922C125.815 25.987 125.906 25.3906 125.906 24.7031C125.906 24.0208 125.815 23.4323 125.633 22.9375C125.451 22.4375 125.169 22.0521 124.789 21.7812C124.409 21.5104 123.917 21.375 123.312 21.375C122.422 21.375 121.768 21.6693 121.352 22.2578C120.94 22.8464 120.734 23.6615 120.734 24.7031ZM131.895 20.2969C132.916 20.2969 133.674 20.526 134.169 20.9844C134.664 21.4427 134.911 22.1745 134.911 23.1797V29H133.966L133.716 27.7344H133.653C133.414 28.0469 133.164 28.3099 132.903 28.5234C132.643 28.7318 132.341 28.8906 131.997 29C131.658 29.1042 131.242 29.1562 130.747 29.1562C130.226 29.1562 129.763 29.0651 129.356 28.8828C128.955 28.7005 128.638 28.4245 128.403 28.0547C128.174 27.6849 128.059 27.2161 128.059 26.6484C128.059 25.7943 128.398 25.138 129.075 24.6797C129.752 24.2214 130.783 23.9714 132.169 23.9297L133.645 23.8672V23.3438C133.645 22.6042 133.486 22.0859 133.169 21.7891C132.851 21.4922 132.403 21.3438 131.825 21.3438C131.377 21.3438 130.95 21.4089 130.544 21.5391C130.138 21.6693 129.752 21.8229 129.388 22L128.989 21.0156C129.374 20.8177 129.817 20.6484 130.317 20.5078C130.817 20.3672 131.343 20.2969 131.895 20.2969ZM133.63 24.7812L132.325 24.8359C131.257 24.8776 130.505 25.0521 130.067 25.3594C129.63 25.6667 129.411 26.1016 129.411 26.6641C129.411 27.1536 129.559 27.5156 129.856 27.75C130.153 27.9844 130.546 28.1016 131.036 28.1016C131.796 28.1016 132.419 27.8906 132.903 27.4688C133.388 27.0469 133.63 26.4141 133.63 25.5703V24.7812ZM139.83 29.1562C138.746 29.1562 137.887 28.7865 137.252 28.0469C136.621 27.3073 136.306 26.2083 136.306 24.75C136.306 23.276 136.629 22.1641 137.275 21.4141C137.921 20.6589 138.78 20.2812 139.853 20.2812C140.306 20.2812 140.702 20.3411 141.041 20.4609C141.379 20.5807 141.671 20.7422 141.916 20.9453C142.16 21.1432 142.366 21.3698 142.533 21.625H142.627C142.606 21.4635 142.585 21.2422 142.564 20.9609C142.543 20.6797 142.533 20.4505 142.533 20.2734V16.8438H143.83V29H142.783L142.588 27.7812H142.533C142.371 28.0365 142.166 28.2682 141.916 28.4766C141.671 28.6849 141.377 28.8516 141.033 28.9766C140.694 29.0964 140.293 29.1562 139.83 29.1562ZM140.033 28.0781C140.949 28.0781 141.598 27.8177 141.978 27.2969C142.358 26.776 142.548 26.0026 142.548 24.9766V24.7422C142.548 23.6536 142.366 22.8177 142.002 22.2344C141.642 21.651 140.986 21.3594 140.033 21.3594C139.236 21.3594 138.64 21.6667 138.244 22.2812C137.848 22.8906 137.65 23.724 137.65 24.7812C137.65 25.8333 137.845 26.6458 138.236 27.2188C138.632 27.7917 139.231 28.0781 140.033 28.0781ZM156.519 24.7031C156.519 25.4062 156.428 26.0339 156.245 26.5859C156.063 27.138 155.8 27.6042 155.456 27.9844C155.113 28.3646 154.696 28.6562 154.206 28.8594C153.722 29.0573 153.172 29.1562 152.558 29.1562C151.985 29.1562 151.459 29.0573 150.98 28.8594C150.506 28.6562 150.094 28.3646 149.745 27.9844C149.402 27.6042 149.133 27.138 148.941 26.5859C148.753 26.0339 148.659 25.4062 148.659 24.7031C148.659 23.7656 148.818 22.9688 149.136 22.3125C149.454 21.651 149.907 21.1484 150.495 20.8047C151.089 20.4557 151.795 20.2812 152.613 20.2812C153.394 20.2812 154.076 20.4557 154.659 20.8047C155.248 21.1536 155.704 21.6589 156.027 22.3203C156.355 22.9766 156.519 23.7708 156.519 24.7031ZM150.003 24.7031C150.003 25.3906 150.094 25.987 150.277 26.4922C150.459 26.9974 150.74 27.388 151.12 27.6641C151.501 27.9401 151.99 28.0781 152.589 28.0781C153.183 28.0781 153.67 27.9401 154.05 27.6641C154.435 27.388 154.719 26.9974 154.902 26.4922C155.084 25.987 155.175 25.3906 155.175 24.7031C155.175 24.0208 155.084 23.4323 154.902 22.9375C154.719 22.4375 154.438 22.0521 154.058 21.7812C153.678 21.5104 153.185 21.375 152.581 21.375C151.691 21.375 151.037 21.6693 150.62 22.2578C150.209 22.8464 150.003 23.6615 150.003 24.7031ZM162.016 20.2812C163.031 20.2812 163.799 20.5312 164.32 21.0312C164.841 21.526 165.102 22.3229 165.102 23.4219V29H163.82V23.5078C163.82 22.7943 163.656 22.2604 163.328 21.9062C163.005 21.5521 162.508 21.375 161.836 21.375C160.888 21.375 160.221 21.6432 159.836 22.1797C159.451 22.7161 159.258 23.4948 159.258 24.5156V29H157.961V20.4375H159.008L159.203 21.6719H159.273C159.456 21.3698 159.688 21.1172 159.969 20.9141C160.25 20.7057 160.565 20.5495 160.914 20.4453C161.263 20.3359 161.63 20.2812 162.016 20.2812ZM173.095 28.0938C173.309 28.0938 173.528 28.0755 173.752 28.0391C173.976 28.0026 174.158 27.9583 174.298 27.9062V28.9141C174.147 28.9818 173.936 29.0391 173.666 29.0859C173.4 29.1328 173.14 29.1562 172.884 29.1562C172.431 29.1562 172.02 29.0781 171.65 28.9219C171.28 28.7604 170.983 28.4896 170.759 28.1094C170.541 27.7292 170.431 27.2031 170.431 26.5312V21.4531H169.213V20.8203L170.439 20.3125L170.955 18.4531H171.736V20.4375H174.244V21.4531H171.736V26.4922C171.736 27.0286 171.858 27.4297 172.103 27.6953C172.353 27.9609 172.684 28.0938 173.095 28.0938ZM176.53 16.8438V20.4766C176.53 20.6849 176.524 20.8958 176.514 21.1094C176.504 21.3177 176.485 21.5104 176.459 21.6875H176.545C176.722 21.3854 176.946 21.1328 177.217 20.9297C177.493 20.7214 177.806 20.5651 178.155 20.4609C178.504 20.3516 178.873 20.2969 179.264 20.2969C179.952 20.2969 180.524 20.4062 180.983 20.625C181.446 20.8438 181.793 21.1823 182.022 21.6406C182.256 22.099 182.373 22.6927 182.373 23.4219V29H181.092V23.5078C181.092 22.7943 180.928 22.2604 180.6 21.9062C180.277 21.5521 179.78 21.375 179.108 21.375C178.472 21.375 177.965 21.4974 177.584 21.7422C177.209 21.9818 176.939 22.3359 176.772 22.8047C176.61 23.2734 176.53 23.8464 176.53 24.5234V29H175.233V16.8438H176.53ZM187.542 20.2812C188.271 20.2812 188.896 20.4427 189.417 20.7656C189.938 21.0885 190.336 21.5417 190.613 22.125C190.889 22.7031 191.027 23.3802 191.027 24.1562V24.9609H185.113C185.128 25.9661 185.378 26.7318 185.863 27.2578C186.347 27.7839 187.029 28.0469 187.909 28.0469C188.451 28.0469 188.93 27.9974 189.347 27.8984C189.764 27.7995 190.196 27.6536 190.644 27.4609V28.6016C190.211 28.7943 189.782 28.9349 189.355 29.0234C188.933 29.112 188.433 29.1562 187.855 29.1562C187.032 29.1562 186.313 28.9896 185.698 28.6562C185.089 28.3177 184.615 27.8229 184.277 27.1719C183.938 26.5208 183.769 25.724 183.769 24.7812C183.769 23.8594 183.922 23.0625 184.23 22.3906C184.542 21.7135 184.98 21.1927 185.542 20.8281C186.11 20.4635 186.777 20.2812 187.542 20.2812ZM187.527 21.3438C186.834 21.3438 186.282 21.5703 185.87 22.0234C185.459 22.4766 185.214 23.1094 185.136 23.9219H189.667C189.662 23.4115 189.581 22.9635 189.425 22.5781C189.274 22.1875 189.042 21.8854 188.73 21.6719C188.417 21.4531 188.016 21.3438 187.527 21.3438Z" fill="white"/>
<path d="M85.5371 50L84.502 46.6016H79.2969L78.2617 50H75L80.0391 35.6641H83.7402L88.7988 50H85.5371ZM83.7793 44.0625L82.7441 40.7422C82.679 40.5208 82.5911 40.2376 82.4805 39.8926C82.3763 39.541 82.2689 39.1862 82.1582 38.8281C82.054 38.4635 81.9694 38.1478 81.9043 37.8809C81.8392 38.1478 81.748 38.4798 81.6309 38.877C81.5202 39.2676 81.4128 39.6387 81.3086 39.9902C81.2044 40.3418 81.1296 40.5924 81.084 40.7422L80.0586 44.0625H83.7793ZM95.4453 38.877C96.6758 38.877 97.6686 39.3555 98.4238 40.3125C99.1855 41.2695 99.5664 42.6725 99.5664 44.5215C99.5664 45.7585 99.3874 46.8001 99.0293 47.6465C98.6712 48.4863 98.1764 49.1211 97.5449 49.5508C96.9134 49.9805 96.1875 50.1953 95.3672 50.1953C94.8398 50.1953 94.3874 50.1302 94.0098 50C93.6322 49.8633 93.3099 49.6908 93.043 49.4824C92.776 49.2676 92.5449 49.0397 92.3496 48.7988H92.1934C92.2454 49.0592 92.2845 49.3262 92.3105 49.5996C92.3366 49.873 92.3496 50.14 92.3496 50.4004V54.8047H89.3711V39.082H91.793L92.2129 40.498H92.3496C92.5449 40.2051 92.7826 39.9349 93.0625 39.6875C93.3424 39.4401 93.6777 39.2448 94.0684 39.1016C94.4655 38.9518 94.9245 38.877 95.4453 38.877ZM94.4883 41.2598C93.9674 41.2598 93.554 41.3672 93.248 41.582C92.9421 41.7969 92.7174 42.1191 92.5742 42.5488C92.4375 42.9785 92.3626 43.5221 92.3496 44.1797V44.502C92.3496 45.2051 92.4147 45.8008 92.5449 46.2891C92.6816 46.7773 92.9062 47.1484 93.2188 47.4023C93.5378 47.6562 93.974 47.7832 94.5273 47.7832C94.9831 47.7832 95.3574 47.6562 95.6504 47.4023C95.9434 47.1484 96.1615 46.7773 96.3047 46.2891C96.4544 45.7943 96.5293 45.1921 96.5293 44.4824C96.5293 43.4147 96.3633 42.6107 96.0312 42.0703C95.6992 41.5299 95.1849 41.2598 94.4883 41.2598ZM107.102 38.877C108.332 38.877 109.325 39.3555 110.08 40.3125C110.842 41.2695 111.223 42.6725 111.223 44.5215C111.223 45.7585 111.044 46.8001 110.686 47.6465C110.327 48.4863 109.833 49.1211 109.201 49.5508C108.57 49.9805 107.844 50.1953 107.023 50.1953C106.496 50.1953 106.044 50.1302 105.666 50C105.288 49.8633 104.966 49.6908 104.699 49.4824C104.432 49.2676 104.201 49.0397 104.006 48.7988H103.85C103.902 49.0592 103.941 49.3262 103.967 49.5996C103.993 49.873 104.006 50.14 104.006 50.4004V54.8047H101.027V39.082H103.449L103.869 40.498H104.006C104.201 40.2051 104.439 39.9349 104.719 39.6875C104.999 39.4401 105.334 39.2448 105.725 39.1016C106.122 38.9518 106.581 38.877 107.102 38.877ZM106.145 41.2598C105.624 41.2598 105.21 41.3672 104.904 41.582C104.598 41.7969 104.374 42.1191 104.23 42.5488C104.094 42.9785 104.019 43.5221 104.006 44.1797V44.502C104.006 45.2051 104.071 45.8008 104.201 46.2891C104.338 46.7773 104.562 47.1484 104.875 47.4023C105.194 47.6562 105.63 47.7832 106.184 47.7832C106.639 47.7832 107.014 47.6562 107.307 47.4023C107.6 47.1484 107.818 46.7773 107.961 46.2891C108.111 45.7943 108.186 45.1921 108.186 44.4824C108.186 43.4147 108.02 42.6107 107.688 42.0703C107.355 41.5299 106.841 41.2598 106.145 41.2598ZM125.541 46.0352C125.541 46.8815 125.336 47.6172 124.926 48.2422C124.516 48.8672 123.917 49.349 123.129 49.6875C122.348 50.026 121.397 50.1953 120.277 50.1953C119.783 50.1953 119.298 50.1628 118.822 50.0977C118.354 50.0326 117.901 49.9382 117.465 49.8145C117.035 49.6842 116.625 49.5247 116.234 49.3359V46.5234C116.911 46.8229 117.615 47.0931 118.344 47.334C119.073 47.5749 119.796 47.6953 120.512 47.6953C121.007 47.6953 121.404 47.6302 121.703 47.5C122.009 47.3698 122.23 47.1908 122.367 46.9629C122.504 46.735 122.572 46.4746 122.572 46.1816C122.572 45.8236 122.452 45.5176 122.211 45.2637C121.97 45.0098 121.638 44.7721 121.215 44.5508C120.798 44.3294 120.326 44.0918 119.799 43.8379C119.467 43.6816 119.105 43.4928 118.715 43.2715C118.324 43.0436 117.953 42.7669 117.602 42.4414C117.25 42.1159 116.96 41.722 116.732 41.2598C116.511 40.791 116.4 40.2311 116.4 39.5801C116.4 38.7272 116.596 37.998 116.986 37.3926C117.377 36.7871 117.934 36.3249 118.656 36.0059C119.385 35.6803 120.245 35.5176 121.234 35.5176C121.977 35.5176 122.683 35.6055 123.354 35.7812C124.031 35.9505 124.737 36.1979 125.473 36.5234L124.496 38.877C123.839 38.61 123.249 38.4049 122.729 38.2617C122.208 38.112 121.677 38.0371 121.137 38.0371C120.759 38.0371 120.437 38.099 120.17 38.2227C119.903 38.3398 119.701 38.5091 119.564 38.7305C119.428 38.9453 119.359 39.196 119.359 39.4824C119.359 39.821 119.457 40.1074 119.652 40.3418C119.854 40.5697 120.154 40.791 120.551 41.0059C120.954 41.2207 121.456 41.4714 122.055 41.7578C122.784 42.1029 123.406 42.4642 123.92 42.8418C124.441 43.2129 124.841 43.6523 125.121 44.1602C125.401 44.6615 125.541 45.2865 125.541 46.0352ZM131.494 47.8223C131.82 47.8223 132.135 47.7897 132.441 47.7246C132.754 47.6595 133.063 47.5781 133.369 47.4805V49.6973C133.05 49.8405 132.653 49.9577 132.178 50.0488C131.709 50.1465 131.195 50.1953 130.635 50.1953C129.984 50.1953 129.398 50.0911 128.877 49.8828C128.363 49.668 127.956 49.3001 127.656 48.7793C127.363 48.252 127.217 47.5195 127.217 46.582V41.3184H125.791V40.0586L127.432 39.0625L128.291 36.7578H130.195V39.082H133.252V41.3184H130.195V46.582C130.195 46.9987 130.312 47.3112 130.547 47.5195C130.788 47.7214 131.104 47.8223 131.494 47.8223ZM144.508 44.5215C144.508 45.4329 144.384 46.2402 144.137 46.9434C143.896 47.6465 143.541 48.2422 143.072 48.7305C142.61 49.2122 142.05 49.5768 141.393 49.8242C140.742 50.0716 140.006 50.1953 139.186 50.1953C138.417 50.1953 137.711 50.0716 137.066 49.8242C136.428 49.5768 135.872 49.2122 135.396 48.7305C134.928 48.2422 134.563 47.6465 134.303 46.9434C134.049 46.2402 133.922 45.4329 133.922 44.5215C133.922 43.3105 134.137 42.2852 134.566 41.4453C134.996 40.6055 135.608 39.9674 136.402 39.5312C137.197 39.0951 138.144 38.877 139.244 38.877C140.266 38.877 141.171 39.0951 141.959 39.5312C142.753 39.9674 143.375 40.6055 143.824 41.4453C144.28 42.2852 144.508 43.3105 144.508 44.5215ZM136.959 44.5215C136.959 45.2376 137.037 45.8398 137.193 46.3281C137.35 46.8164 137.594 47.1842 137.926 47.4316C138.258 47.679 138.691 47.8027 139.225 47.8027C139.752 47.8027 140.178 47.679 140.504 47.4316C140.836 47.1842 141.077 46.8164 141.227 46.3281C141.383 45.8398 141.461 45.2376 141.461 44.5215C141.461 43.7988 141.383 43.1999 141.227 42.7246C141.077 42.2428 140.836 41.8815 140.504 41.6406C140.172 41.3997 139.739 41.2793 139.205 41.2793C138.417 41.2793 137.844 41.5495 137.486 42.0898C137.135 42.6302 136.959 43.4408 136.959 44.5215ZM152.062 38.877C152.212 38.877 152.385 38.8867 152.58 38.9062C152.782 38.9193 152.945 38.9388 153.068 38.9648L152.844 41.7578C152.746 41.7253 152.606 41.7025 152.424 41.6895C152.248 41.6699 152.095 41.6602 151.965 41.6602C151.581 41.6602 151.206 41.709 150.842 41.8066C150.484 41.9043 150.161 42.0638 149.875 42.2852C149.589 42.5 149.361 42.7865 149.191 43.1445C149.029 43.4961 148.947 43.929 148.947 44.4434V50H145.969V39.082H148.225L148.664 40.918H148.811C149.025 40.5469 149.292 40.2083 149.611 39.9023C149.937 39.5898 150.305 39.3424 150.715 39.1602C151.132 38.9714 151.581 38.877 152.062 38.877ZM158.553 38.877C159.562 38.877 160.431 39.0723 161.16 39.4629C161.889 39.847 162.452 40.4069 162.85 41.1426C163.247 41.8783 163.445 42.7767 163.445 43.8379V45.2832H156.404C156.437 46.123 156.688 46.7839 157.156 47.2656C157.632 47.7409 158.289 47.9785 159.129 47.9785C159.826 47.9785 160.464 47.9069 161.043 47.7637C161.622 47.6204 162.218 47.4056 162.83 47.1191V49.4238C162.29 49.6908 161.723 49.8861 161.131 50.0098C160.545 50.1335 159.832 50.1953 158.992 50.1953C157.898 50.1953 156.928 49.9935 156.082 49.5898C155.242 49.1862 154.581 48.571 154.1 47.7441C153.624 46.9173 153.387 45.8757 153.387 44.6191C153.387 43.3431 153.602 42.2819 154.031 41.4355C154.467 40.5827 155.073 39.9447 155.848 39.5215C156.622 39.0918 157.524 38.877 158.553 38.877ZM158.572 40.9961C157.993 40.9961 157.511 41.1816 157.127 41.5527C156.749 41.9238 156.531 42.5065 156.473 43.3008H160.652C160.646 42.8581 160.564 42.4642 160.408 42.1191C160.258 41.7741 160.031 41.5007 159.725 41.2988C159.425 41.097 159.041 40.9961 158.572 40.9961Z" fill="white"/>
<defs>
<clipPath id="clip0_4359_1204">
<rect width="32" height="40" fill="white" transform="translate(25 11)"/>
</clipPath>
</defs>
</svg>
