<svg width="100" height="100" viewBox="0 0 100 100" fill="none" xmlns="http://www.w3.org/2000/svg">
<g clip-path="url(#clip0_4359_1479)">
<path d="M50 100C77.6142 100 100 77.6142 100 50C100 22.3858 77.6142 0 50 0C22.3858 0 0 22.3858 0 50C0 77.6142 22.3858 100 50 100Z" fill="#FF4C4C"/>
<path d="M98.9082 60.4297C94.1113 83.0371 74.0352 100 49.998 100C48.7611 100 47.5352 99.9551 46.3203 99.8652L18.6641 72.209L17.9453 70.6875V43.9941L18.4609 42.8613L19.918 42.0195H36.6836V29.3125L37.6016 27.7324L38.6562 27.3418H61.3398L62.8691 28.1992L76.8887 42.2188H80.6953L98.9082 60.4297Z" fill="url(#paint0_linear_4359_1479)"/>
<path d="M80.0781 42.0195H63.3145V29.3125C63.3145 29.0534 63.2634 28.7969 63.1643 28.5576C63.0652 28.3183 62.9199 28.1008 62.7367 27.9176C62.5535 27.7344 62.336 27.5891 62.0967 27.49C61.8574 27.3909 61.6009 27.3398 61.3418 27.3398H38.6582C38.135 27.3398 37.6333 27.5477 37.2633 27.9176C36.8934 28.2876 36.6855 28.7893 36.6855 29.3125V42.0195H19.9219C19.3985 42.0201 18.8968 42.2283 18.5269 42.5986C18.157 42.9688 17.9492 43.4708 17.9492 43.9941V70.6875C17.9503 71.21 18.1585 71.7108 18.5284 72.0799C18.8982 72.449 19.3994 72.6563 19.9219 72.6563H80.0781C80.6013 72.6563 81.1031 72.4484 81.473 72.0785C81.843 71.7085 82.0508 71.2068 82.0508 70.6836V43.9941C82.0508 43.4708 81.843 42.9688 81.4731 42.5986C81.1032 42.2283 80.6015 42.0201 80.0781 42.0195ZM21.8926 45.9668H36.6855V68.7129H21.8926V45.9668ZM40.625 43.9941V31.2871H59.375V68.7129H40.625V43.9941ZM78.1074 68.7129H63.3145V45.9668H78.1074V68.7129Z" fill="white"/>
<path d="M47.334 33.8457H45.1738C44.6809 33.8457 44.2812 34.2453 44.2812 34.7383V41.0137C44.2812 41.5066 44.6809 41.9063 45.1738 41.9063H47.334C47.8269 41.9063 48.2266 41.5066 48.2266 41.0137V34.7383C48.2266 34.2453 47.8269 33.8457 47.334 33.8457Z" fill="white"/>
<path d="M54.8262 33.8457H52.666C52.1731 33.8457 51.7734 34.2453 51.7734 34.7383V41.0137C51.7734 41.5066 52.1731 41.9063 52.666 41.9063H54.8262C55.3191 41.9063 55.7188 41.5066 55.7188 41.0137V34.7383C55.7188 34.2453 55.3191 33.8457 54.8262 33.8457Z" fill="white"/>
<path d="M47.334 45.2832H45.1738C44.6809 45.2832 44.2812 45.6828 44.2812 46.1758V52.4512C44.2812 52.9441 44.6809 53.3437 45.1738 53.3437H47.334C47.8269 53.3437 48.2266 52.9441 48.2266 52.4512V46.1758C48.2266 45.6828 47.8269 45.2832 47.334 45.2832Z" fill="white"/>
<path d="M54.8262 45.2832H52.666C52.1731 45.2832 51.7734 45.6828 51.7734 46.1758V52.4512C51.7734 52.9441 52.1731 53.3437 52.666 53.3437H54.8262C55.3191 53.3437 55.7188 52.9441 55.7188 52.4512V46.1758C55.7188 45.6828 55.3191 45.2832 54.8262 45.2832Z" fill="white"/>
<path d="M47.334 56.7227H45.1738C44.6809 56.7227 44.2812 57.1223 44.2812 57.6152V63.8906C44.2812 64.3836 44.6809 64.7832 45.1738 64.7832H47.334C47.8269 64.7832 48.2266 64.3836 48.2266 63.8906V57.6152C48.2266 57.1223 47.8269 56.7227 47.334 56.7227Z" fill="white"/>
<path d="M54.8262 56.7227H52.666C52.1731 56.7227 51.7734 57.1223 51.7734 57.6152V63.8906C51.7734 64.3836 52.1731 64.7832 52.666 64.7832H54.8262C55.3191 64.7832 55.7188 64.3836 55.7188 63.8906V57.6152C55.7188 57.1223 55.3191 56.7227 54.8262 56.7227Z" fill="white"/>
<path d="M26.541 48.6387H24.2012C23.7578 48.6387 23.3984 48.9981 23.3984 49.4414V51.7812C23.3984 52.2246 23.7578 52.584 24.2012 52.584H26.541C26.9844 52.584 27.3438 52.2246 27.3438 51.7812V49.4414C27.3438 48.9981 26.9844 48.6387 26.541 48.6387Z" fill="white"/>
<path d="M34.377 48.6387H32.0371C31.5938 48.6387 31.2344 48.9981 31.2344 49.4414V51.7812C31.2344 52.2246 31.5938 52.584 32.0371 52.584H34.377C34.8203 52.584 35.1797 52.2246 35.1797 51.7812V49.4414C35.1797 48.9981 34.8203 48.6387 34.377 48.6387Z" fill="white"/>
<path d="M26.541 55.3652H24.2012C23.7578 55.3652 23.3984 55.7246 23.3984 56.168V58.5078C23.3984 58.9511 23.7578 59.3105 24.2012 59.3105H26.541C26.9844 59.3105 27.3438 58.9511 27.3438 58.5078V56.168C27.3438 55.7246 26.9844 55.3652 26.541 55.3652Z" fill="white"/>
<path d="M34.377 55.3652H32.0371C31.5938 55.3652 31.2344 55.7246 31.2344 56.168V58.5078C31.2344 58.9511 31.5938 59.3105 32.0371 59.3105H34.377C34.8203 59.3105 35.1797 58.9511 35.1797 58.5078V56.168C35.1797 55.7246 34.8203 55.3652 34.377 55.3652Z" fill="white"/>
<path d="M26.541 62.0918H24.2012C23.7578 62.0918 23.3984 62.4512 23.3984 62.8945V65.2344C23.3984 65.6777 23.7578 66.0371 24.2012 66.0371H26.541C26.9844 66.0371 27.3438 65.6777 27.3438 65.2344V62.8945C27.3438 62.4512 26.9844 62.0918 26.541 62.0918Z" fill="white"/>
<path d="M34.377 62.0918H32.0371C31.5938 62.0918 31.2344 62.4512 31.2344 62.8945V65.2344C31.2344 65.6777 31.5938 66.0371 32.0371 66.0371H34.377C34.8203 66.0371 35.1797 65.6777 35.1797 65.2344V62.8945C35.1797 62.4512 34.8203 62.0918 34.377 62.0918Z" fill="white"/>
<path d="M67.9629 48.6387H65.6231C65.1797 48.6387 64.8203 48.9981 64.8203 49.4414V51.7812C64.8203 52.2246 65.1797 52.584 65.6231 52.584H67.9629C68.4062 52.584 68.7656 52.2246 68.7656 51.7812V49.4414C68.7656 48.9981 68.4062 48.6387 67.9629 48.6387Z" fill="white"/>
<path d="M75.7988 48.6387H73.459C73.0156 48.6387 72.6562 48.9981 72.6562 49.4414V51.7812C72.6562 52.2246 73.0156 52.584 73.459 52.584H75.7988C76.2422 52.584 76.6016 52.2246 76.6016 51.7812V49.4414C76.6016 48.9981 76.2422 48.6387 75.7988 48.6387Z" fill="white"/>
<path d="M67.9629 55.3652H65.6231C65.1797 55.3652 64.8203 55.7246 64.8203 56.168V58.5078C64.8203 58.9511 65.1797 59.3105 65.6231 59.3105H67.9629C68.4062 59.3105 68.7656 58.9511 68.7656 58.5078V56.168C68.7656 55.7246 68.4062 55.3652 67.9629 55.3652Z" fill="white"/>
<path d="M75.7988 55.3652H73.459C73.0156 55.3652 72.6562 55.7246 72.6562 56.168V58.5078C72.6562 58.9511 73.0156 59.3105 73.459 59.3105H75.7988C76.2422 59.3105 76.6016 58.9511 76.6016 58.5078V56.168C76.6016 55.7246 76.2422 55.3652 75.7988 55.3652Z" fill="white"/>
<path d="M67.9629 62.0918H65.6231C65.1797 62.0918 64.8203 62.4512 64.8203 62.8945V65.2344C64.8203 65.6777 65.1797 66.0371 65.6231 66.0371H67.9629C68.4062 66.0371 68.7656 65.6777 68.7656 65.2344V62.8945C68.7656 62.4512 68.4062 62.0918 67.9629 62.0918Z" fill="white"/>
<path d="M75.7988 62.0918H73.459C73.0156 62.0918 72.6562 62.4512 72.6562 62.8945V65.2344C72.6562 65.6777 73.0156 66.0371 73.459 66.0371H75.7988C76.2422 66.0371 76.6016 65.6777 76.6016 65.2344V62.8945C76.6016 62.4512 76.2422 62.0918 75.7988 62.0918Z" fill="white"/>
</g>
<defs>
<linearGradient id="paint0_linear_4359_1479" x1="26.8945" y1="34.4277" x2="81.5879" y2="89.1211" gradientUnits="userSpaceOnUse">
<stop stop-color="#8E0303"/>
<stop offset="1" stop-color="#8E0303" stop-opacity="0"/>
</linearGradient>
<clipPath id="clip0_4359_1479">
<rect width="100" height="100" fill="white"/>
</clipPath>
</defs>
</svg>
