<svg width="262" height="68" viewBox="0 0 262 68" fill="none" xmlns="http://www.w3.org/2000/svg">
<rect width="262" height="68" rx="10" fill="#262626"/>
<g clip-path="url(#clip0_4359_1194)">
<path d="M25.7666 14.6182C25.3143 15.0969 25.0469 15.8401 25.0469 16.803V51.197C25.0469 52.1607 25.3144 52.9031 25.7666 53.3818L25.8816 53.4939L45.1484 34.2273V34.0001V33.7727L25.8816 14.5053L25.7666 14.6182Z" fill="url(#paint0_linear_4359_1194)"/>
<path d="M51.5703 40.6523L45.1484 34.2273V34.0001V33.7727L51.5718 27.3494L51.7166 27.4319L59.3256 31.7555C61.4991 32.9902 61.4991 35.0107 59.3256 36.2462L51.7166 40.5698L51.5703 40.6523Z" fill="url(#paint1_linear_4359_1194)"/>
<path d="M51.7157 40.5689L45.1475 34.0001L25.7656 53.3818C26.4823 54.1402 27.6648 54.2341 28.9974 53.4772L51.7157 40.5689Z" fill="url(#paint2_linear_4359_1194)"/>
<path d="M51.7157 27.4311L28.9974 14.5227C27.6648 13.7658 26.4823 13.8598 25.7656 14.6182L45.1475 34.0001L51.7157 27.4311Z" fill="url(#paint3_linear_4359_1194)"/>
</g>
<path d="M81.4453 23.0156H85.4375V28.5547C84.8385 28.7578 84.2214 28.9089 83.5859 29.0078C82.9557 29.1068 82.25 29.1562 81.4688 29.1562C80.2812 29.1562 79.2786 28.9193 78.4609 28.4453C77.6484 27.9714 77.0312 27.2969 76.6094 26.4219C76.1875 25.5417 75.9766 24.4974 75.9766 23.2891C75.9766 22.1068 76.2083 21.0755 76.6719 20.1953C77.1406 19.3151 77.8151 18.6328 78.6953 18.1484C79.5807 17.6589 80.6432 17.4141 81.8828 17.4141C82.5182 17.4141 83.1198 17.474 83.6875 17.5938C84.2604 17.7083 84.7917 17.8724 85.2812 18.0859L84.7734 19.2422C84.3516 19.0599 83.8854 18.9036 83.375 18.7734C82.8698 18.6432 82.3464 18.5781 81.8047 18.5781C80.8724 18.5781 80.0729 18.7708 79.4062 19.1562C78.7448 19.5417 78.237 20.0859 77.8828 20.7891C77.5339 21.4922 77.3594 22.3255 77.3594 23.2891C77.3594 24.2422 77.513 25.0729 77.8203 25.7812C78.1276 26.4844 78.6068 27.0312 79.2578 27.4219C79.9089 27.8125 80.7474 28.0078 81.7734 28.0078C82.2891 28.0078 82.7318 27.9792 83.1016 27.9219C83.4714 27.8594 83.8073 27.7865 84.1094 27.7031V24.2031H81.4453V23.0156ZM90.5047 20.2812C91.2339 20.2812 91.8589 20.4427 92.3797 20.7656C92.9005 21.0885 93.299 21.5417 93.575 22.125C93.851 22.7031 93.9891 23.3802 93.9891 24.1562V24.9609H88.075C88.0906 25.9661 88.3406 26.7318 88.825 27.2578C89.3094 27.7839 89.9917 28.0469 90.8719 28.0469C91.4135 28.0469 91.8927 27.9974 92.3094 27.8984C92.726 27.7995 93.1583 27.6536 93.6062 27.4609V28.6016C93.174 28.7943 92.7443 28.9349 92.3172 29.0234C91.8953 29.112 91.3953 29.1562 90.8172 29.1562C89.9943 29.1562 89.2755 28.9896 88.6609 28.6562C88.0516 28.3177 87.5776 27.8229 87.2391 27.1719C86.9005 26.5208 86.7312 25.724 86.7312 24.7812C86.7312 23.8594 86.8849 23.0625 87.1922 22.3906C87.5047 21.7135 87.9422 21.1927 88.5047 20.8281C89.0724 20.4635 89.7391 20.2812 90.5047 20.2812ZM90.4891 21.3438C89.7964 21.3438 89.2443 21.5703 88.8328 22.0234C88.4214 22.4766 88.1766 23.1094 88.0984 23.9219H92.6297C92.6245 23.4115 92.5437 22.9635 92.3875 22.5781C92.2365 22.1875 92.0047 21.8854 91.6922 21.6719C91.3797 21.4531 90.9786 21.3438 90.4891 21.3438ZM98.1578 28.0938C98.3714 28.0938 98.5901 28.0755 98.8141 28.0391C99.038 28.0026 99.2203 27.9583 99.3609 27.9062V28.9141C99.2099 28.9818 98.999 29.0391 98.7281 29.0859C98.4625 29.1328 98.2021 29.1562 97.9469 29.1562C97.4937 29.1562 97.0823 29.0781 96.7125 28.9219C96.3427 28.7604 96.0458 28.4896 95.8219 28.1094C95.6031 27.7292 95.4937 27.2031 95.4937 26.5312V21.4531H94.275V20.8203L95.5016 20.3125L96.0172 18.4531H96.7984V20.4375H99.3062V21.4531H96.7984V26.4922C96.7984 27.0286 96.9208 27.4297 97.1656 27.6953C97.4156 27.9609 97.7464 28.0938 98.1578 28.0938ZM104.948 20.4375V29H103.652V20.4375H104.948ZM104.316 17.2344C104.529 17.2344 104.711 17.3047 104.862 17.4453C105.019 17.5807 105.097 17.7943 105.097 18.0859C105.097 18.3724 105.019 18.5859 104.862 18.7266C104.711 18.8672 104.529 18.9375 104.316 18.9375C104.092 18.9375 103.904 18.8672 103.753 18.7266C103.607 18.5859 103.534 18.3724 103.534 18.0859C103.534 17.7943 103.607 17.5807 103.753 17.4453C103.904 17.3047 104.092 17.2344 104.316 17.2344ZM109.664 28.0938C109.878 28.0938 110.096 28.0755 110.32 28.0391C110.544 28.0026 110.727 27.9583 110.867 27.9062V28.9141C110.716 28.9818 110.505 29.0391 110.234 29.0859C109.969 29.1328 109.708 29.1562 109.453 29.1562C109 29.1562 108.589 29.0781 108.219 28.9219C107.849 28.7604 107.552 28.4896 107.328 28.1094C107.109 27.7292 107 27.2031 107 26.5312V21.4531H105.781V20.8203L107.008 20.3125L107.523 18.4531H108.305V20.4375H110.812V21.4531H108.305V26.4922C108.305 27.0286 108.427 27.4297 108.672 27.6953C108.922 27.9609 109.253 28.0938 109.664 28.0938ZM122.541 24.7031C122.541 25.4062 122.449 26.0339 122.267 26.5859C122.085 27.138 121.822 27.6042 121.478 27.9844C121.134 28.3646 120.718 28.6562 120.228 28.8594C119.744 29.0573 119.194 29.1562 118.58 29.1562C118.007 29.1562 117.481 29.0573 117.002 28.8594C116.528 28.6562 116.116 28.3646 115.767 27.9844C115.423 27.6042 115.155 27.138 114.963 26.5859C114.775 26.0339 114.681 25.4062 114.681 24.7031C114.681 23.7656 114.84 22.9688 115.158 22.3125C115.476 21.651 115.929 21.1484 116.517 20.8047C117.111 20.4557 117.817 20.2812 118.634 20.2812C119.416 20.2812 120.098 20.4557 120.681 20.8047C121.27 21.1536 121.726 21.6589 122.048 22.3203C122.377 22.9766 122.541 23.7708 122.541 24.7031ZM116.025 24.7031C116.025 25.3906 116.116 25.987 116.298 26.4922C116.481 26.9974 116.762 27.388 117.142 27.6641C117.522 27.9401 118.012 28.0781 118.611 28.0781C119.205 28.0781 119.692 27.9401 120.072 27.6641C120.457 27.388 120.741 26.9974 120.923 26.4922C121.106 25.987 121.197 25.3906 121.197 24.7031C121.197 24.0208 121.106 23.4323 120.923 22.9375C120.741 22.4375 120.46 22.0521 120.08 21.7812C119.699 21.5104 119.207 21.375 118.603 21.375C117.713 21.375 117.059 21.6693 116.642 22.2578C116.231 22.8464 116.025 23.6615 116.025 24.7031ZM128.037 20.2812C129.053 20.2812 129.821 20.5312 130.342 21.0312C130.863 21.526 131.123 22.3229 131.123 23.4219V29H129.842V23.5078C129.842 22.7943 129.678 22.2604 129.35 21.9062C129.027 21.5521 128.53 21.375 127.858 21.375C126.91 21.375 126.243 21.6432 125.858 22.1797C125.472 22.7161 125.28 23.4948 125.28 24.5156V29H123.983V20.4375H125.03L125.225 21.6719H125.295C125.478 21.3698 125.709 21.1172 125.991 20.9141C126.272 20.7057 126.587 20.5495 126.936 20.4453C127.285 20.3359 127.652 20.2812 128.037 20.2812Z" fill="white"/>
<path d="M82.2168 41.9824H87.8809V49.3848C87.1322 49.6322 86.3542 49.8307 85.5469 49.9805C84.7396 50.1237 83.8249 50.1953 82.8027 50.1953C81.3835 50.1953 80.179 49.9154 79.1895 49.3555C78.1999 48.7956 77.4479 47.9688 76.9336 46.875C76.4193 45.7812 76.1621 44.4368 76.1621 42.8418C76.1621 41.3444 76.4486 40.0488 77.0215 38.9551C77.6009 37.8613 78.444 37.015 79.5508 36.416C80.6641 35.8171 82.0215 35.5176 83.623 35.5176C84.3783 35.5176 85.1237 35.599 85.8594 35.7617C86.5951 35.9245 87.2624 36.1361 87.8613 36.3965L86.8555 38.8184C86.4193 38.597 85.9212 38.4115 85.3613 38.2617C84.8014 38.112 84.2155 38.0371 83.6035 38.0371C82.7246 38.0371 81.9596 38.2389 81.3086 38.6426C80.6641 39.0462 80.1628 39.6126 79.8047 40.3418C79.4531 41.0645 79.2773 41.9173 79.2773 42.9004C79.2773 43.8314 79.4043 44.6582 79.6582 45.3809C79.9121 46.097 80.3125 46.6602 80.8594 47.0703C81.4062 47.474 82.1191 47.6758 82.998 47.6758C83.4277 47.6758 83.7891 47.6562 84.082 47.6172C84.3815 47.5716 84.6615 47.526 84.9219 47.4805V44.502H82.2168V41.9824ZM99.9766 44.5215C99.9766 45.4329 99.8529 46.2402 99.6055 46.9434C99.3646 47.6465 99.0098 48.2422 98.541 48.7305C98.0788 49.2122 97.5189 49.5768 96.8613 49.8242C96.2103 50.0716 95.4746 50.1953 94.6543 50.1953C93.8861 50.1953 93.1797 50.0716 92.5352 49.8242C91.8971 49.5768 91.3405 49.2122 90.8652 48.7305C90.3965 48.2422 90.0319 47.6465 89.7715 46.9434C89.5176 46.2402 89.3906 45.4329 89.3906 44.5215C89.3906 43.3105 89.6055 42.2852 90.0352 41.4453C90.4648 40.6055 91.0768 39.9674 91.8711 39.5312C92.6654 39.0951 93.6126 38.877 94.7129 38.877C95.735 38.877 96.64 39.0951 97.4277 39.5312C98.222 39.9674 98.8438 40.6055 99.293 41.4453C99.7487 42.2852 99.9766 43.3105 99.9766 44.5215ZM92.4277 44.5215C92.4277 45.2376 92.5059 45.8398 92.6621 46.3281C92.8184 46.8164 93.0625 47.1842 93.3945 47.4316C93.7266 47.679 94.1595 47.8027 94.6934 47.8027C95.2207 47.8027 95.6471 47.679 95.9727 47.4316C96.3047 47.1842 96.5456 46.8164 96.6953 46.3281C96.8516 45.8398 96.9297 45.2376 96.9297 44.5215C96.9297 43.7988 96.8516 43.1999 96.6953 42.7246C96.5456 42.2428 96.3047 41.8815 95.9727 41.6406C95.6406 41.3997 95.2077 41.2793 94.6738 41.2793C93.8861 41.2793 93.3132 41.5495 92.9551 42.0898C92.6035 42.6302 92.4277 43.4408 92.4277 44.5215ZM111.359 44.5215C111.359 45.4329 111.236 46.2402 110.988 46.9434C110.747 47.6465 110.393 48.2422 109.924 48.7305C109.462 49.2122 108.902 49.5768 108.244 49.8242C107.593 50.0716 106.857 50.1953 106.037 50.1953C105.269 50.1953 104.562 50.0716 103.918 49.8242C103.28 49.5768 102.723 49.2122 102.248 48.7305C101.779 48.2422 101.415 47.6465 101.154 46.9434C100.9 46.2402 100.773 45.4329 100.773 44.5215C100.773 43.3105 100.988 42.2852 101.418 41.4453C101.848 40.6055 102.46 39.9674 103.254 39.5312C104.048 39.0951 104.995 38.877 106.096 38.877C107.118 38.877 108.023 39.0951 108.811 39.5312C109.605 39.9674 110.227 40.6055 110.676 41.4453C111.132 42.2852 111.359 43.3105 111.359 44.5215ZM103.811 44.5215C103.811 45.2376 103.889 45.8398 104.045 46.3281C104.201 46.8164 104.445 47.1842 104.777 47.4316C105.109 47.679 105.542 47.8027 106.076 47.8027C106.604 47.8027 107.03 47.679 107.355 47.4316C107.688 47.1842 107.928 46.8164 108.078 46.3281C108.234 45.8398 108.312 45.2376 108.312 44.5215C108.312 43.7988 108.234 43.1999 108.078 42.7246C107.928 42.2428 107.688 41.8815 107.355 41.6406C107.023 41.3997 106.59 41.2793 106.057 41.2793C105.269 41.2793 104.696 41.5495 104.338 42.0898C103.986 42.6302 103.811 43.4408 103.811 44.5215ZM116.014 54.8047C114.49 54.8047 113.325 54.5378 112.518 54.0039C111.717 53.4766 111.316 52.7344 111.316 51.7773C111.316 51.1198 111.521 50.5697 111.932 50.127C112.342 49.6842 112.944 49.3685 113.738 49.1797C113.432 49.0495 113.165 48.8379 112.938 48.5449C112.71 48.2454 112.596 47.9297 112.596 47.5977C112.596 47.181 112.716 46.8359 112.957 46.5625C113.198 46.2826 113.546 46.0091 114.002 45.7422C113.429 45.4948 112.973 45.0977 112.635 44.5508C112.303 44.0039 112.137 43.3594 112.137 42.6172C112.137 41.8229 112.309 41.1491 112.654 40.5957C113.006 40.0358 113.514 39.6094 114.178 39.3164C114.848 39.0234 115.662 38.877 116.619 38.877C116.821 38.877 117.055 38.89 117.322 38.916C117.589 38.9421 117.833 38.9714 118.055 39.0039C118.283 39.0365 118.436 39.0625 118.514 39.082H122.322V40.5957L120.613 41.0352C120.77 41.276 120.887 41.5332 120.965 41.8066C121.043 42.0801 121.082 42.3698 121.082 42.6758C121.082 43.8477 120.672 44.7624 119.852 45.4199C119.038 46.071 117.905 46.3965 116.453 46.3965C116.108 46.377 115.783 46.3509 115.477 46.3184C115.327 46.4355 115.213 46.5592 115.135 46.6895C115.057 46.8197 115.018 46.9564 115.018 47.0996C115.018 47.2428 115.076 47.3633 115.193 47.4609C115.317 47.5521 115.499 47.6237 115.74 47.6758C115.988 47.7214 116.294 47.7441 116.658 47.7441H118.514C119.712 47.7441 120.623 48.0013 121.248 48.5156C121.88 49.0299 122.195 49.7852 122.195 50.7812C122.195 52.0573 121.661 53.0469 120.594 53.75C119.533 54.4531 118.006 54.8047 116.014 54.8047ZM116.141 52.8613C116.85 52.8613 117.459 52.793 117.967 52.6562C118.481 52.526 118.875 52.3372 119.148 52.0898C119.422 51.849 119.559 51.5592 119.559 51.2207C119.559 50.9473 119.477 50.7292 119.314 50.5664C119.158 50.4102 118.917 50.2995 118.592 50.2344C118.273 50.1693 117.863 50.1367 117.361 50.1367H115.818C115.454 50.1367 115.125 50.1953 114.832 50.3125C114.546 50.4297 114.318 50.5924 114.148 50.8008C113.979 51.0156 113.895 51.263 113.895 51.543C113.895 51.9531 114.09 52.2754 114.48 52.5098C114.878 52.7441 115.431 52.8613 116.141 52.8613ZM116.619 44.5801C117.179 44.5801 117.589 44.4076 117.85 44.0625C118.11 43.7174 118.24 43.2487 118.24 42.6562C118.24 41.9987 118.104 41.5072 117.83 41.1816C117.563 40.8496 117.16 40.6836 116.619 40.6836C116.072 40.6836 115.662 40.8496 115.389 41.1816C115.115 41.5072 114.979 41.9987 114.979 42.6562C114.979 43.2487 115.112 43.7174 115.379 44.0625C115.652 44.4076 116.066 44.5801 116.619 44.5801ZM126.107 50H123.129V34.8047H126.107V50ZM132.744 38.877C133.753 38.877 134.622 39.0723 135.352 39.4629C136.081 39.847 136.644 40.4069 137.041 41.1426C137.438 41.8783 137.637 42.7767 137.637 43.8379V45.2832H130.596C130.628 46.123 130.879 46.7839 131.348 47.2656C131.823 47.7409 132.48 47.9785 133.32 47.9785C134.017 47.9785 134.655 47.9069 135.234 47.7637C135.814 47.6204 136.41 47.4056 137.021 47.1191V49.4238C136.481 49.6908 135.915 49.8861 135.322 50.0098C134.736 50.1335 134.023 50.1953 133.184 50.1953C132.09 50.1953 131.12 49.9935 130.273 49.5898C129.434 49.1862 128.773 48.571 128.291 47.7441C127.816 46.9173 127.578 45.8757 127.578 44.6191C127.578 43.3431 127.793 42.2819 128.223 41.4355C128.659 40.5827 129.264 39.9447 130.039 39.5215C130.814 39.0918 131.715 38.877 132.744 38.877ZM132.764 40.9961C132.184 40.9961 131.702 41.1816 131.318 41.5527C130.941 41.9238 130.723 42.5065 130.664 43.3008H134.844C134.837 42.8581 134.756 42.4642 134.6 42.1191C134.45 41.7741 134.222 41.5007 133.916 41.2988C133.617 41.097 133.232 40.9961 132.764 40.9961ZM148.049 35.7227C149.891 35.7227 151.236 36.1198 152.082 36.9141C152.928 37.7018 153.352 38.7891 153.352 40.1758C153.352 40.8008 153.257 41.3997 153.068 41.9727C152.88 42.5391 152.57 43.0436 152.141 43.4863C151.717 43.929 151.151 44.2806 150.441 44.541C149.732 44.7949 148.856 44.9219 147.814 44.9219H146.516V50H143.488V35.7227H148.049ZM147.893 38.2031H146.516V42.4414H147.512C148.078 42.4414 148.57 42.3665 148.986 42.2168C149.403 42.0671 149.725 41.8327 149.953 41.5137C150.181 41.1947 150.295 40.7845 150.295 40.2832C150.295 39.5801 150.1 39.0592 149.709 38.7207C149.318 38.3757 148.713 38.2031 147.893 38.2031ZM157.791 50H154.812V34.8047H157.791V50ZM164.398 38.8574C165.863 38.8574 166.986 39.1764 167.768 39.8145C168.549 40.4525 168.939 41.4225 168.939 42.7246V50H166.859L166.283 48.5156H166.205C165.893 48.9062 165.574 49.2253 165.248 49.4727C164.923 49.7201 164.548 49.9023 164.125 50.0195C163.702 50.1367 163.188 50.1953 162.582 50.1953C161.938 50.1953 161.358 50.0716 160.844 49.8242C160.336 49.5768 159.936 49.1992 159.643 48.6914C159.35 48.1771 159.203 47.526 159.203 46.7383C159.203 45.5794 159.61 44.7266 160.424 44.1797C161.238 43.6263 162.458 43.3203 164.086 43.2617L165.98 43.2031V42.7246C165.98 42.1517 165.831 41.7318 165.531 41.4648C165.232 41.1979 164.815 41.0645 164.281 41.0645C163.754 41.0645 163.236 41.1393 162.729 41.2891C162.221 41.4388 161.713 41.6276 161.205 41.8555L160.219 39.8438C160.798 39.5378 161.446 39.2969 162.162 39.1211C162.885 38.9453 163.63 38.8574 164.398 38.8574ZM165.98 44.9414L164.828 44.9805C163.865 45.0065 163.194 45.179 162.816 45.498C162.445 45.8171 162.26 46.237 162.26 46.7578C162.26 47.2135 162.393 47.5391 162.66 47.7344C162.927 47.9232 163.275 48.0176 163.705 48.0176C164.343 48.0176 164.88 47.8288 165.316 47.4512C165.759 47.0736 165.98 46.5365 165.98 45.8398V44.9414ZM169.453 39.082H172.715L174.775 45.2246C174.84 45.4199 174.896 45.6185 174.941 45.8203C174.987 46.0221 175.026 46.2305 175.059 46.4453C175.091 46.6602 175.117 46.8848 175.137 47.1191H175.195C175.234 46.7676 175.286 46.4388 175.352 46.1328C175.423 45.8268 175.511 45.5241 175.615 45.2246L177.637 39.082H180.83L176.211 51.3965C175.931 52.1517 175.566 52.7799 175.117 53.2812C174.668 53.7891 174.15 54.1699 173.564 54.4238C172.985 54.6777 172.347 54.8047 171.65 54.8047C171.312 54.8047 171.019 54.7852 170.771 54.7461C170.524 54.7135 170.312 54.6777 170.137 54.6387V52.2754C170.273 52.3079 170.446 52.3372 170.654 52.3633C170.863 52.3893 171.081 52.4023 171.309 52.4023C171.725 52.4023 172.083 52.3145 172.383 52.1387C172.682 51.9629 172.933 51.7253 173.135 51.4258C173.337 51.1328 173.496 50.8105 173.613 50.459L173.789 49.9219L169.453 39.082ZM194.26 46.0352C194.26 46.8815 194.055 47.6172 193.645 48.2422C193.234 48.8672 192.635 49.349 191.848 49.6875C191.066 50.026 190.116 50.1953 188.996 50.1953C188.501 50.1953 188.016 50.1628 187.541 50.0977C187.072 50.0326 186.62 49.9382 186.184 49.8145C185.754 49.6842 185.344 49.5247 184.953 49.3359V46.5234C185.63 46.8229 186.333 47.0931 187.062 47.334C187.792 47.5749 188.514 47.6953 189.23 47.6953C189.725 47.6953 190.122 47.6302 190.422 47.5C190.728 47.3698 190.949 47.1908 191.086 46.9629C191.223 46.735 191.291 46.4746 191.291 46.1816C191.291 45.8236 191.171 45.5176 190.93 45.2637C190.689 45.0098 190.357 44.7721 189.934 44.5508C189.517 44.3294 189.045 44.0918 188.518 43.8379C188.186 43.6816 187.824 43.4928 187.434 43.2715C187.043 43.0436 186.672 42.7669 186.32 42.4414C185.969 42.1159 185.679 41.722 185.451 41.2598C185.23 40.791 185.119 40.2311 185.119 39.5801C185.119 38.7272 185.314 37.998 185.705 37.3926C186.096 36.7871 186.652 36.3249 187.375 36.0059C188.104 35.6803 188.964 35.5176 189.953 35.5176C190.695 35.5176 191.402 35.6055 192.072 35.7812C192.749 35.9505 193.456 36.1979 194.191 36.5234L193.215 38.877C192.557 38.61 191.968 38.4049 191.447 38.2617C190.926 38.112 190.396 38.0371 189.855 38.0371C189.478 38.0371 189.156 38.099 188.889 38.2227C188.622 38.3398 188.42 38.5091 188.283 38.7305C188.146 38.9453 188.078 39.196 188.078 39.4824C188.078 39.821 188.176 40.1074 188.371 40.3418C188.573 40.5697 188.872 40.791 189.27 41.0059C189.673 41.2207 190.174 41.4714 190.773 41.7578C191.503 42.1029 192.124 42.4642 192.639 42.8418C193.16 43.2129 193.56 43.6523 193.84 44.1602C194.12 44.6615 194.26 45.2865 194.26 46.0352ZM200.213 47.8223C200.538 47.8223 200.854 47.7897 201.16 47.7246C201.473 47.6595 201.782 47.5781 202.088 47.4805V49.6973C201.769 49.8405 201.372 49.9577 200.896 50.0488C200.428 50.1465 199.913 50.1953 199.354 50.1953C198.702 50.1953 198.117 50.0911 197.596 49.8828C197.081 49.668 196.674 49.3001 196.375 48.7793C196.082 48.252 195.936 47.5195 195.936 46.582V41.3184H194.51V40.0586L196.15 39.0625L197.01 36.7578H198.914V39.082H201.971V41.3184H198.914V46.582C198.914 46.9987 199.031 47.3112 199.266 47.5195C199.507 47.7214 199.822 47.8223 200.213 47.8223ZM213.227 44.5215C213.227 45.4329 213.103 46.2402 212.855 46.9434C212.615 47.6465 212.26 48.2422 211.791 48.7305C211.329 49.2122 210.769 49.5768 210.111 49.8242C209.46 50.0716 208.725 50.1953 207.904 50.1953C207.136 50.1953 206.43 50.0716 205.785 49.8242C205.147 49.5768 204.59 49.2122 204.115 48.7305C203.646 48.2422 203.282 47.6465 203.021 46.9434C202.768 46.2402 202.641 45.4329 202.641 44.5215C202.641 43.3105 202.855 42.2852 203.285 41.4453C203.715 40.6055 204.327 39.9674 205.121 39.5312C205.915 39.0951 206.863 38.877 207.963 38.877C208.985 38.877 209.89 39.0951 210.678 39.5312C211.472 39.9674 212.094 40.6055 212.543 41.4453C212.999 42.2852 213.227 43.3105 213.227 44.5215ZM205.678 44.5215C205.678 45.2376 205.756 45.8398 205.912 46.3281C206.068 46.8164 206.312 47.1842 206.645 47.4316C206.977 47.679 207.41 47.8027 207.943 47.8027C208.471 47.8027 208.897 47.679 209.223 47.4316C209.555 47.1842 209.796 46.8164 209.945 46.3281C210.102 45.8398 210.18 45.2376 210.18 44.5215C210.18 43.7988 210.102 43.1999 209.945 42.7246C209.796 42.2428 209.555 41.8815 209.223 41.6406C208.891 41.3997 208.458 41.2793 207.924 41.2793C207.136 41.2793 206.563 41.5495 206.205 42.0898C205.854 42.6302 205.678 43.4408 205.678 44.5215ZM220.781 38.877C220.931 38.877 221.104 38.8867 221.299 38.9062C221.501 38.9193 221.663 38.9388 221.787 38.9648L221.562 41.7578C221.465 41.7253 221.325 41.7025 221.143 41.6895C220.967 41.6699 220.814 41.6602 220.684 41.6602C220.299 41.6602 219.925 41.709 219.561 41.8066C219.202 41.9043 218.88 42.0638 218.594 42.2852C218.307 42.5 218.079 42.7865 217.91 43.1445C217.747 43.4961 217.666 43.929 217.666 44.4434V50H214.688V39.082H216.943L217.383 40.918H217.529C217.744 40.5469 218.011 40.2083 218.33 39.9023C218.656 39.5898 219.023 39.3424 219.434 39.1602C219.85 38.9714 220.299 38.877 220.781 38.877ZM227.271 38.877C228.281 38.877 229.15 39.0723 229.879 39.4629C230.608 39.847 231.171 40.4069 231.568 41.1426C231.965 41.8783 232.164 42.7767 232.164 43.8379V45.2832H225.123C225.156 46.123 225.406 46.7839 225.875 47.2656C226.35 47.7409 227.008 47.9785 227.848 47.9785C228.544 47.9785 229.182 47.9069 229.762 47.7637C230.341 47.6204 230.937 47.4056 231.549 47.1191V49.4238C231.008 49.6908 230.442 49.8861 229.85 50.0098C229.264 50.1335 228.551 50.1953 227.711 50.1953C226.617 50.1953 225.647 49.9935 224.801 49.5898C223.961 49.1862 223.3 48.571 222.818 47.7441C222.343 46.9173 222.105 45.8757 222.105 44.6191C222.105 43.3431 222.32 42.2819 222.75 41.4355C223.186 40.5827 223.792 39.9447 224.566 39.5215C225.341 39.0918 226.243 38.877 227.271 38.877ZM227.291 40.9961C226.712 40.9961 226.23 41.1816 225.846 41.5527C225.468 41.9238 225.25 42.5065 225.191 43.3008H229.371C229.365 42.8581 229.283 42.4642 229.127 42.1191C228.977 41.7741 228.749 41.5007 228.443 41.2988C228.144 41.097 227.76 40.9961 227.291 40.9961Z" fill="white"/>
<defs>
<linearGradient id="paint0_linear_4359_1194" x1="43.4399" y1="16.4404" x2="17.3407" y2="42.5396" gradientUnits="userSpaceOnUse">
<stop stop-color="#00A0FF"/>
<stop offset="0.0066" stop-color="#00A2FF"/>
<stop offset="0.2601" stop-color="#00BEFF"/>
<stop offset="0.5122" stop-color="#00D2FF"/>
<stop offset="0.7604" stop-color="#00DFFF"/>
<stop offset="1" stop-color="#00E3FF"/>
</linearGradient>
<linearGradient id="paint1_linear_4359_1194" x1="62.1556" y1="34.0008" x2="24.5257" y2="34.0008" gradientUnits="userSpaceOnUse">
<stop stop-color="#FFE000"/>
<stop offset="0.4087" stop-color="#FFBD00"/>
<stop offset="0.7754" stop-color="#FFA600"/>
<stop offset="1" stop-color="#FF9C00"/>
</linearGradient>
<linearGradient id="paint2_linear_4359_1194" x1="48.1467" y1="37.5693" x2="12.7541" y2="72.9619" gradientUnits="userSpaceOnUse">
<stop stop-color="#FF3743"/>
<stop offset="1" stop-color="#E30864"/>
</linearGradient>
<linearGradient id="paint3_linear_4359_1194" x1="20.8855" y1="3.16945" x2="36.6897" y2="18.9737" gradientUnits="userSpaceOnUse">
<stop stop-color="#00A06F"/>
<stop offset="0.0685" stop-color="#00A86E"/>
<stop offset="0.4762" stop-color="#00CF6E"/>
<stop offset="0.8009" stop-color="#00E76D"/>
<stop offset="1" stop-color="#00EF6D"/>
</linearGradient>
<clipPath id="clip0_4359_1194">
<rect width="36" height="40" fill="white" transform="translate(25 14)"/>
</clipPath>
</defs>
</svg>
