<svg width="100" height="100" viewBox="0 0 100 100" fill="none" xmlns="http://www.w3.org/2000/svg">
<path d="M50 96.875C75.8884 96.875 96.875 75.8884 96.875 50C96.875 24.1117 75.8884 3.125 50 3.125C24.1117 3.125 3.125 24.1117 3.125 50C3.125 75.8884 24.1117 96.875 50 96.875Z" fill="#5793FB"/>
<path fill-rule="evenodd" clip-rule="evenodd" d="M96.7371 53.6317C94.9756 76.6199 76.6322 94.9672 53.6455 96.735L24.8568 67.9463C24.1244 67.3418 23.6562 66.4276 23.6562 65.4073V35.0119L31.8545 39.753L24.5002 32.3987C25.1029 31.7256 25.9797 31.3004 26.9496 31.3004H73.0522C74.0221 31.3004 74.8988 31.7246 75.5016 32.3963L96.7371 53.6317Z" fill="#386DC7"/>
<path fill-rule="evenodd" clip-rule="evenodd" d="M76.3455 35.0086L50.6887 49.8487C50.2832 50.0905 49.7625 50.1112 49.3297 49.8586L23.6562 35.0119V65.4073C23.6562 67.2211 25.1357 68.6996 26.9496 68.6996H73.0522C74.8658 68.6996 76.3455 67.2211 76.3455 65.4073V35.0086ZM26.9496 31.3004H73.0522C74.0221 31.3004 74.8988 31.7246 75.5016 32.3963L50.0035 47.1465L24.5 32.3985C25.1029 31.7256 25.9797 31.3004 26.9496 31.3004Z" fill="white"/>
</svg>
