<svg width="100" height="100" viewBox="0 0 100 100" fill="none" xmlns="http://www.w3.org/2000/svg">
<g clip-path="url(#clip0_4359_1456)">
<path d="M50 100C77.6142 100 100 77.6142 100 50C100 22.3858 77.6142 0 50 0C22.3858 0 0 22.3858 0 50C0 77.6142 22.3858 100 50 100Z" fill="#6AAF50"/>
<path d="M26.5013 19.9621L26.4997 19.9629C20.7109 22.9832 18.2822 29.9672 20.9345 35.9336C24.7523 44.5225 29.8785 52.3785 36.065 59.2584L40.7406 63.934L71.8095 95.0029C79.5869 91.2266 86.2359 85.4931 91.1212 78.4437L79.657 66.9795C79.2152 66.3283 78.6474 65.7492 77.9615 65.284L34.715 22.0377C32.8997 19.3629 29.3669 18.4668 26.5013 19.9621Z" fill="#4D8538"/>
<path d="M68.2787 58.7136C66.6787 57.6279 64.5767 57.6334 62.9826 58.7275L60.6873 60.3029C58.1306 62.0576 54.7306 61.9623 52.2732 60.0711C49.9572 58.2884 47.7466 56.3771 45.6474 54.3517C43.6218 52.2525 41.7107 50.0422 39.9281 47.7259C38.0367 45.2687 37.9415 41.8687 39.6962 39.3119L41.2716 37.0166C42.3656 35.4224 42.3712 33.3205 41.2855 31.7205L34.7152 22.0379C32.9001 19.3633 29.3673 18.4672 26.5015 19.9623L26.4997 19.9631C20.7109 22.9834 18.2822 29.9674 20.9345 35.9338C24.7523 44.5226 29.8785 52.3787 36.065 59.2586L40.7406 63.9341C47.6206 70.1205 55.4767 75.2468 64.0654 79.0646C70.032 81.717 77.0158 79.2882 80.0361 73.4994L80.0369 73.4976C81.532 70.632 80.6361 67.099 77.9613 65.284L68.2787 58.7136Z" fill="white"/>
</g>
<defs>
<clipPath id="clip0_4359_1456">
<rect width="100" height="100" fill="white"/>
</clipPath>
</defs>
</svg>
