<svg width="127" height="66" viewBox="0 0 127 66" fill="none" xmlns="http://www.w3.org/2000/svg">
<path d="M78.3079 7.07422H75.7315V8.8262H78.3079C82.5443 8.8262 86.0026 12.2955 86.0026 16.5453C86.0026 20.7951 82.5443 24.2644 78.3079 24.2644H64.25V26.0164H78.3079C83.5126 26.0164 87.749 21.7839 87.749 16.5453C87.7317 11.3241 83.5126 7.07422 78.3079 7.07422Z" fill="#010101"/>
<path d="M60.0897 24.2617H39.7031V26.0137H60.0897V24.2617Z" fill="#010101"/>
<path d="M60.0897 41.457H39.7031V43.209H60.0897V41.457Z" fill="#010101"/>
<path d="M48.833 7.07422H39.7031V8.8262H48.833V7.07422Z" fill="#010101"/>
<path d="M50.043 7.07422V8.8262H61.2997V43.2066H63.0461V8.8262H74.3028V7.07422H50.043Z" fill="#069AC8"/>
<path d="M87.7334 40.5021L76.6324 27.2148H74.3672L87.7334 43.2255V40.5021Z" fill="#010101"/>
<path d="M5.27069 56.1227H0.66822V60.4774H4.82771V61.0405H0.66822V65.4252H5.27069V65.9883H0V55.5596H5.27069V56.1227Z" fill="#010101"/>
<path d="M13.1431 58.2024C14.7348 58.2024 15.9061 59.0959 16.3491 60.2822V55.5596H16.9797V65.8757H16.3491V63.871C15.9286 65.0573 14.8024 65.9883 13.1431 65.9883C11.0258 65.9883 9.49417 64.4717 9.49417 62.0841C9.48666 59.6815 11.0258 58.2024 13.1431 58.2024ZM13.2257 58.7505C11.4012 58.7505 10.1324 59.9893 10.1324 62.0841C10.1324 64.1789 11.4012 65.4327 13.2257 65.4327C14.9976 65.4327 16.3491 64.1338 16.3491 62.0841C16.3491 60.0569 14.9976 58.7505 13.2257 58.7505Z" fill="#010101"/>
<path d="M21.1872 55.5596H27.7943V56.1227H24.8211V65.9883H24.1529V56.1227H21.1797V55.5596H21.1872Z" fill="#069AC8"/>
<path d="M35.6949 65.9795C33.5851 65.9795 32.0234 64.5079 32.0234 62.0903C32.0234 59.6877 33.5551 58.2236 35.6949 58.2236C37.9623 58.2236 39.2162 59.8379 39.2162 61.5873C39.2162 61.9176 39.2162 62.0903 39.1862 62.3381H32.6616C32.7142 64.4403 34.1332 65.4389 35.6949 65.4389C37.1815 65.4389 38.2552 64.6431 38.5029 63.3967H39.1561C38.8633 64.8833 37.6245 65.9795 35.6949 65.9795ZM32.6616 61.8275H38.5855C38.6831 59.7253 37.2115 58.7567 35.6799 58.7567C34.1332 58.7492 32.7292 59.7403 32.6616 61.8275Z" fill="#069AC8"/>
<path d="M47.0822 58.2236C49.0043 58.2236 50.2506 59.2673 50.5435 60.8365H49.8903C49.6425 59.5451 48.5538 58.7492 47.0822 58.7492C45.468 58.7492 44.064 59.8229 44.064 62.0828C44.064 64.3653 45.468 65.4314 47.0822 65.4314C48.5538 65.4314 49.6425 64.6506 49.8903 63.3442H50.5435C50.2506 64.8908 48.9968 65.972 47.0822 65.972C44.9574 65.972 43.4258 64.5004 43.4258 62.0828C43.4258 59.6877 44.9574 58.2236 47.0822 58.2236Z" fill="#069AC8"/>
<path d="M54.7653 55.5596H55.396V59.9593C55.8465 58.773 56.9427 58.1874 58.2266 58.1874C59.9159 58.1874 61.2974 59.216 61.2974 61.5135V65.9958H60.6742V61.5585C60.6742 59.6965 59.6456 58.743 58.1064 58.743C56.5147 58.743 55.3885 59.7416 55.3885 61.8739V66.0033H54.7578V55.5596H54.7653Z" fill="#069AC8"/>
<path d="M68.3876 55.5596C70.7977 55.5596 71.8639 56.8209 71.8639 58.5478C71.8639 60.1095 70.9854 61.2357 69.221 61.491L71.954 65.9883H71.1506L68.4777 61.5435H68.4177H66.1878V65.9883H65.5195V55.5596H68.3876ZM68.3876 56.1527H66.1878V60.9804H68.4177C70.3322 60.9804 71.1656 59.9443 71.1656 58.5478C71.1656 57.0687 70.3998 56.1527 68.3876 56.1527Z" fill="#010101"/>
<path d="M79.8394 65.9795C77.7297 65.9795 76.168 64.5079 76.168 62.0903C76.168 59.6877 77.6996 58.2236 79.8394 58.2236C82.1069 58.2236 83.3607 59.8379 83.3607 61.5873C83.3607 61.9176 83.3607 62.0903 83.3307 62.3381H76.8062C76.8587 64.4403 78.2777 65.4389 79.8394 65.4389C81.326 65.4389 82.3997 64.6431 82.6474 63.3967H83.3007C83.0078 64.8833 81.769 65.9795 79.8394 65.9795ZM76.8062 61.8275H82.73C82.8276 59.7253 81.3561 58.7567 79.8244 58.7567C78.2852 58.7492 76.8812 59.7403 76.8062 61.8275Z" fill="#010101"/>
<path d="M88.2786 58.2236L91.1392 65.2812L93.9998 58.2236H94.6831L91.4696 65.9795H90.8014L87.5879 58.2236H88.2786Z" fill="#010101"/>
<path d="M107.849 65.9795C105.739 65.9795 104.178 64.5079 104.178 62.0903C104.178 59.6877 105.709 58.2236 107.849 58.2236C110.117 58.2236 111.37 59.8379 111.37 61.5873C111.37 61.9176 111.37 62.0903 111.34 62.3381H104.816C104.868 64.4403 106.288 65.4389 107.849 65.4389C109.336 65.4389 110.409 64.6431 110.657 63.3967H111.31C111.025 64.8833 109.786 65.9795 107.849 65.9795ZM104.823 61.8275H110.747C110.845 59.7253 109.373 58.7567 107.842 58.7567C106.295 58.7492 104.891 59.7403 104.823 61.8275Z" fill="#010101"/>
<path d="M115.588 58.2236H116.256L118.343 65.2512L120.829 58.2236H121.444L123.914 65.2212L126.002 58.2236H126.662L124.222 65.9795H123.607L121.136 59.1096L118.651 65.9795H118.036L115.588 58.2236Z" fill="#010101"/>
<path d="M99.7381 58.3306H99.1074V65.9813H99.7381V58.3306Z" fill="#010101"/>
<path d="M99.4237 56.6562C99.7181 56.6562 99.9568 56.4109 99.9568 56.1081C99.9568 55.8054 99.7181 55.5601 99.4237 55.5601C99.1293 55.5601 98.8906 55.8054 98.8906 56.1081C98.8906 56.4109 99.1293 56.6562 99.4237 56.6562Z" fill="#010101"/>
</svg>
