<svg width="430" height="250" viewBox="0 0 430 250" fill="none" xmlns="http://www.w3.org/2000/svg">
<path d="M0 16C0 7.16345 7.16344 0 16 0H430V250H16C7.16343 250 0 242.837 0 234V16Z" fill="#F8F8F8"/>
<path d="M121.191 170.256L295.844 108.856L162.956 183.77L121.191 170.256Z" fill="#E5649A"/>
<path d="M162.957 183.77L193.095 221.233L295.845 108.856L162.957 183.77Z" fill="#C23470"/>
<path d="M295.845 108.856L240.317 212.223L179.924 187.564L295.845 108.856Z" fill="#E5649A"/>
<path d="M179.924 187.564L193.094 221.233L211.93 200.632L179.924 187.564Z" fill="#DB4A87"/>
<path d="M222.035 67.5536L260.113 47.0412C261.152 46.4818 262.448 46.8695 263.008 47.907C263.568 48.9449 263.18 50.2395 262.141 50.799C262.112 50.8146 262.076 50.8326 262.047 50.8469L223.002 69.4563C222.47 69.7101 221.832 69.4845 221.578 68.9526C221.333 68.4374 221.539 67.8224 222.035 67.5536Z" fill="#5F5399"/>
<path d="M253.4 50.6575L252.859 50.9488C253.847 51.0345 254.289 51.9797 254.526 52.9282C254.633 53.4076 254.677 53.887 254.671 54.3624L255.589 53.9249C255.552 52.3249 254.979 50.7877 253.4 50.6575Z" fill="#4D418A"/>
<path d="M244.133 55.6501L236.771 59.6159C237.598 60.1597 238.126 61.1557 238.254 62.1873L245.763 58.6086C245.537 57.397 245.023 56.2774 244.133 55.6501Z" fill="#5F5399"/>
<path d="M236.248 59.8977L222.036 67.5538C221.539 67.8225 221.332 68.4375 221.578 68.9527C221.833 69.4846 222.47 69.7102 223.003 69.4564L237.624 62.4874C237.615 61.4917 237.187 60.4778 236.248 59.8977Z" fill="#5F5399"/>
<path d="M236.771 59.616L236.248 59.8977C237.187 60.4781 237.615 61.4917 237.624 62.4874L238.254 62.1874C238.125 61.1558 237.598 60.1601 236.771 59.616Z" fill="#4D418A"/>
<path d="M244.666 55.363L244.133 55.6501C245.023 56.2776 245.537 57.3969 245.762 58.6089L246.376 58.3162C246.271 57.057 245.674 55.8521 244.666 55.363Z" fill="#4D418A"/>
<path d="M254.527 52.9279C254.29 51.9794 253.848 51.0342 252.86 50.9485L244.666 55.3627C245.674 55.8517 246.272 57.0567 246.377 58.3155L254.672 54.3617C254.678 53.8867 254.634 53.4073 254.527 52.9279Z" fill="#5F5399"/>
<path d="M263.007 47.9073C262.447 46.8697 261.152 46.482 260.113 47.0415L253.4 50.6574C254.979 50.7876 255.552 52.3248 255.589 53.9248L262.047 50.8471C262.076 50.8331 262.112 50.8149 262.141 50.7993C263.179 50.2395 263.567 48.9448 263.007 47.9073Z" fill="#5F5399"/>
<path d="M263.008 47.9074C262.871 47.6532 262.689 47.4386 262.478 47.2668C262.889 48.2648 262.487 49.4319 261.515 49.9552C261.486 49.9708 261.45 49.9887 261.421 50.003L222.376 68.6125C222.084 68.752 221.761 68.7424 221.486 68.6211C221.5 68.7334 221.527 68.8453 221.578 68.9527C221.832 69.4845 222.47 69.7101 223.003 69.4563L262.047 50.8469C262.077 50.8329 262.113 50.8146 262.141 50.799C263.18 50.2396 263.568 48.9449 263.008 47.9074Z" fill="#4D418A"/>
<path d="M223.476 68.5067C223.476 69.0589 223.028 69.5064 222.475 69.5064C221.922 69.5064 221.475 69.0589 221.475 68.5067C221.475 67.9546 221.922 67.5071 222.475 67.5071C223.028 67.5071 223.476 67.9549 223.476 68.5067Z" fill="#4D418A"/>
<path d="M168.984 84.0329L177.67 89.2853C177.67 89.2853 186.237 78.712 205.874 79.3157C194.168 75.5008 180.238 78.8419 168.984 84.0329Z" fill="#DB4A87"/>
<path d="M205.874 79.3155C207.44 79.3637 209.075 79.481 210.783 79.6823C210.783 79.6823 190.721 72.5694 174.822 75.5329L168.652 83.8314L168.985 84.0321C180.238 78.8418 194.168 75.5006 205.874 79.3155Z" fill="#E5649A"/>
<path d="M211.949 80.6665C212.519 80.6239 212.972 80.3774 213.028 79.8605C213.112 79.0771 213.586 77.9243 214.065 76.925C213.736 76.8143 213.408 76.6625 213.079 76.5532C212.672 77.9104 212.299 79.2844 211.949 80.6665Z" fill="#FF96A9"/>
<path d="M213.264 74.5256C213.264 74.5256 210.357 76.9558 209.468 78.6751C208.855 79.8588 210.689 80.7611 211.949 80.6668C212.298 79.2844 212.671 77.9103 213.079 76.5532C213.407 76.6625 213.736 76.8143 214.064 76.9249C214.599 75.807 215.138 74.8814 215.138 74.8814L213.264 74.5256Z" fill="#ED7E94"/>
<path d="M218.955 70.3586L217.833 68.7168C211.07 70.4357 208.875 74.6443 212.553 75.7114C214.139 76.1712 215.514 76.1453 216.585 75.9257C216.114 73.942 217.452 71.8845 218.955 70.3586Z" fill="#ED7E94"/>
<path d="M218.954 70.3586C217.451 71.8845 216.114 73.942 216.584 75.9254C217.998 75.6353 218.884 75.0068 219.019 74.7034C219.256 74.1699 218.663 71.9174 218.663 71.9174L219.493 71.1467L218.954 70.3586Z" fill="#FF96A9"/>
<path d="M216.527 72.3324C216.527 72.3324 221.748 68.361 222.519 60.7737C222.519 60.7737 204.9 65.1009 207.273 73.7549C209.646 82.409 214.786 73.7549 214.786 73.7549C214.786 73.7549 214.214 72.6287 214.451 72.036C214.688 71.4433 216.527 72.3324 216.527 72.3324Z" fill="#3F327A"/>
<path d="M243.164 112.166C243.164 112.166 218.465 104.441 199.443 112.598C201.325 117.207 207.378 117.484 211.966 117.966C220.311 119.078 228.378 116.576 236.445 114.908C229.061 124.428 224.534 136.19 221.813 148.099C221.812 148.175 221.809 148.248 221.807 148.323C221.807 148.323 241.028 121.768 243.164 112.166Z" fill="#8B77E8"/>
<path d="M211.966 117.966C207.378 117.483 201.325 117.208 199.444 112.598C197.537 113.415 195.686 114.39 193.925 115.551C193.925 115.551 186.568 127.933 200.094 130.067C213.621 132.201 232.723 116.789 232.723 116.789C232.723 116.789 222.354 126.093 221.814 148.1C224.535 136.191 229.062 124.429 236.446 114.909C228.379 116.576 220.311 119.078 211.966 117.966Z" fill="#7860DC"/>
<path d="M202.23 131.029C207.339 130.462 211.932 128.222 215.573 124.836C216.145 120.712 216.468 118.212 216.468 118.212C216.468 118.212 206.066 106.159 200.687 122.598C196.341 135.882 200.4 173.625 202.118 187.626C201.426 168.828 201.701 149.803 202.23 131.029Z" fill="#7860DC"/>
<path d="M215.574 124.836C211.932 128.222 207.339 130.462 202.23 131.029C201.701 149.803 201.426 168.827 202.119 187.625C202.527 190.951 202.803 192.938 202.803 192.938C207.954 177.511 213.462 140.078 215.574 124.836Z" fill="#8B77E8"/>
<path d="M237.376 63.8057C237.017 63.5503 236.653 63.3077 236.283 63.0855C236.283 63.0855 236.837 60.7144 235.413 60.0031C233.99 59.2918 230.509 59.45 228.611 61.3466C228.248 61.7088 227.906 62.0994 227.604 62.4994C227.739 63.1755 228.167 63.7383 228.936 64.0456C231.161 65.1572 233.664 63.7675 235.333 64.6014C235.606 64.7602 235.863 64.9386 236.113 65.1257C236.48 64.6336 236.905 64.1878 237.376 63.8057Z" fill="#FF96A9"/>
<path d="M228.936 64.0457C228.167 63.7384 227.739 63.1756 227.604 62.4995C226.32 64.1945 225.745 66.0513 227.345 66.5629C229.323 67.1951 232.091 67.9855 234.78 66.2466C234.78 66.2466 234.962 66.3729 235.257 66.6018C235.483 66.0769 235.773 65.5812 236.113 65.1254C235.863 64.9384 235.606 64.7599 235.334 64.6011C233.665 63.7676 231.161 65.1573 228.936 64.0457Z" fill="#ED7E94"/>
<path d="M237.375 66.2823C237.75 65.7361 238.17 65.2265 238.654 64.7976C238.236 64.4488 237.811 64.1152 237.376 63.8059C236.905 64.188 236.48 64.6335 236.113 65.1258C236.571 65.4687 236.992 65.8561 237.375 66.2823Z" fill="#FEF2FE"/>
<path d="M236.112 65.1257C235.773 65.5815 235.483 66.0772 235.256 66.6021C235.574 66.8493 236.028 67.2197 236.538 67.6902C236.787 67.2098 237.065 66.7333 237.374 66.2819C236.991 65.856 236.57 65.4686 236.112 65.1257Z" fill="#EAC7ED"/>
<path d="M191.98 105.763C191.812 105.481 191.613 105.142 191.396 104.763C191.079 104.998 190.747 105.21 190.404 105.404C190.573 105.75 190.738 106.097 190.9 106.445C191.276 106.244 191.637 106.017 191.98 105.763Z" fill="#EAC7ED"/>
<path d="M188.764 107.242C189.511 107.074 190.229 106.803 190.9 106.445C190.738 106.097 190.572 105.75 190.404 105.404C189.626 105.843 188.784 106.174 187.883 106.376C188.168 106.666 188.459 106.956 188.764 107.242Z" fill="#FEF2FE"/>
<path d="M203.9 84.6133C197.502 87.1146 191.661 90.172 185.541 92.9514C186.16 97.4869 188.462 101.411 190.405 105.404C190.748 105.21 191.079 104.998 191.396 104.764C189.727 101.854 186.91 96.4414 187.459 93.9089C187.459 93.9089 196.536 88.1591 202.112 87.3292C202.772 87.2309 203.504 87.1731 204.278 87.1448C204.297 86.3216 204.229 85.489 203.9 84.6133Z" fill="#7860DC"/>
<path d="M236.539 67.6904C237.797 68.8506 239.401 70.6213 240.179 72.6658C239.827 70.2455 238.892 67.9678 237.376 66.2825C237.067 66.7336 236.789 67.2097 236.539 67.6904Z" fill="#7860DC"/>
<path d="M247.831 76.6005C247.831 76.6005 247.798 76.536 247.733 76.4158C239.719 82.9091 229.105 85.5898 218.969 88.4299C222.02 88.2572 235.146 86.9203 247.831 76.6005Z" fill="#7860DC"/>
<path d="M238.653 64.7976C238.169 65.2265 237.748 65.7361 237.375 66.2823C238.89 67.9677 239.826 70.2457 240.178 72.6656C240.511 73.5407 240.695 74.4656 240.633 75.4148C240.633 75.4148 229.974 81.6585 210.783 78.6157C210.783 78.6157 206.146 78.7343 202.586 79.9197C199.027 81.1051 186.094 86.6771 179.924 92.7232C179.924 92.7232 181.6 99.9786 187.883 106.376C188.784 106.174 189.626 105.842 190.404 105.403C188.461 101.411 186.159 97.4869 185.54 92.9511C191.66 90.1717 197.501 87.1143 203.899 84.613C204.228 85.4887 204.296 86.3213 204.277 87.1449C210.053 86.9356 218.307 88.4555 218.307 88.4555C218.307 88.4555 218.538 88.4542 218.969 88.4299C229.105 85.5894 239.719 82.909 247.733 76.4158C247.101 75.252 243.507 68.8547 238.653 64.7976Z" fill="#8B77E8"/>
<path d="M190.826 112.685C189.066 113.438 186.853 111.468 187.264 109.441C185.924 109.39 184.22 109.642 184.552 111.335C185.086 114.062 189.909 118.378 194.578 112.936C195.646 111.691 195.112 107.838 192.561 106.712C192.561 106.712 192.335 106.356 191.98 105.762C191.637 106.017 191.276 106.244 190.9 106.445C191.388 107.493 191.839 108.549 192.217 109.628C192.773 111.018 191.938 112.407 190.826 112.685Z" fill="#ED7E94"/>
<path d="M189.89 108.253C189.89 108.253 188.051 108.846 188.763 109.617C188.763 109.617 188.081 109.472 187.263 109.441C186.852 111.469 189.065 113.439 190.825 112.685C191.937 112.407 192.772 111.018 192.216 109.628C191.838 108.55 191.387 107.493 190.899 106.445C190.228 106.803 189.511 107.074 188.763 107.242C189.126 107.583 189.499 107.921 189.89 108.253Z" fill="#FF96A9"/>
<path d="M201.519 84.4246C201.519 84.4246 200.926 101.496 197.01 107.186C193.095 112.877 186.213 119.99 186.213 119.99C186.213 119.99 191.315 124.613 194.518 125.917C194.518 125.917 197.485 122.124 199.027 116.789C199.027 116.789 199.146 125.325 198.197 127.103C198.197 127.103 205.79 129.948 216.706 123.428C216.706 123.428 221.477 102.029 218.307 88.4554C215.138 74.8815 201.519 84.4246 201.519 84.4246Z" fill="#8B77E8"/>
<path d="M221.969 144.834L233.85 142.1L220.205 149.687L221.969 144.834Z" fill="#3F327A"/>
<path d="M202.507 190.708L201.578 195.626L213.384 185.786L202.507 190.708Z" fill="#3F327A"/>
<path d="M208.609 78.7623C208.609 78.7623 208.927 77.8619 211.213 78.0354C213.499 78.2088 214.007 79.0513 214.007 79.0513C214.007 79.0513 209.829 78.6264 208.609 78.7623Z" fill="#7860DC"/>
<path d="M238.957 66.2822C239.123 66.2822 239.259 66.147 239.259 65.9802C239.259 65.8134 239.123 65.6782 238.957 65.6782C238.79 65.6782 238.654 65.8134 238.654 65.9802C238.654 66.147 238.79 66.2822 238.957 66.2822Z" fill="#7860DC"/>
<path d="M237.893 64.7976C237.893 64.9644 237.758 65.0992 237.591 65.0992C237.424 65.0992 237.289 64.964 237.289 64.7976C237.289 64.6308 237.424 64.4956 237.591 64.4956C237.758 64.4956 237.893 64.6308 237.893 64.7976Z" fill="#EAC7ED"/>
<path d="M239.987 66.5839C239.987 66.7507 239.852 66.8855 239.685 66.8855C239.518 66.8855 239.383 66.7503 239.383 66.5839C239.383 66.4171 239.518 66.2822 239.685 66.2822C239.852 66.2822 239.987 66.4174 239.987 66.5839Z" fill="#7860DC"/>
<path d="M240.692 67.1875C240.692 67.3543 240.557 67.4891 240.39 67.4891C240.223 67.4891 240.088 67.3539 240.088 67.1875C240.088 67.0207 240.223 66.8855 240.39 66.8855C240.557 66.8858 240.692 67.021 240.692 67.1875Z" fill="#7860DC"/>
<path d="M210.782 114.577C210.653 114.577 210.538 114.488 210.51 114.357C210.478 114.207 210.573 114.059 210.724 114.027L217.487 112.578C217.639 112.546 217.785 112.641 217.818 112.791C217.85 112.941 217.754 113.089 217.604 113.121L210.841 114.571C210.82 114.575 210.801 114.577 210.782 114.577Z" fill="#7860DC"/>
<path d="M51.4177 220.136C51.2635 220.136 51.1148 220.05 51.0423 219.902C50.9413 219.695 51.0274 219.446 51.2342 219.345L131.029 180.421C131.236 180.32 131.486 180.406 131.587 180.613C131.689 180.82 131.602 181.069 131.396 181.17L51.6006 220.094C51.5414 220.123 51.4793 220.136 51.4177 220.136Z" fill="#E4E0FF"/>
<path d="M228.36 235.693C228.292 235.693 228.223 235.676 228.159 235.641C227.957 235.53 227.884 235.276 227.996 235.074L238.286 216.467C238.398 216.265 238.652 216.192 238.853 216.304C239.055 216.415 239.128 216.669 239.017 216.87L228.725 235.478C228.65 235.615 228.507 235.693 228.36 235.693Z" fill="#E4E0FF"/>
<path d="M160.251 233.608C160.138 233.608 160.025 233.562 159.943 233.472C159.788 233.302 159.8 233.038 159.97 232.883L195.645 200.366C195.815 200.212 196.079 200.223 196.234 200.393C196.389 200.563 196.377 200.827 196.207 200.982L160.532 233.5C160.452 233.572 160.352 233.608 160.251 233.608Z" fill="#E4E0FF"/>
<path d="M326.976 55.1032H318.005C317.722 55.1032 317.492 54.874 317.492 54.5909C317.492 54.3078 317.722 54.0786 318.005 54.0786H326.976C327.259 54.0786 327.488 54.3078 327.488 54.5909C327.488 54.874 327.259 55.1032 326.976 55.1032Z" fill="#FFA42F"/>
<path d="M326.259 56.5395H318.724C318.44 56.5395 318.211 56.3102 318.211 56.0272C318.211 55.7441 318.44 55.5149 318.724 55.5149H326.259C326.543 55.5149 326.772 55.7441 326.772 56.0272C326.772 56.3099 326.543 56.5395 326.259 56.5395Z" fill="#FFA42F"/>
<path d="M325.258 57.9753H319.722C319.438 57.9753 319.209 57.746 319.209 57.463C319.209 57.1799 319.438 56.9507 319.722 56.9507H325.258C325.541 56.9507 325.771 57.1799 325.771 57.463C325.771 57.746 325.541 57.9753 325.258 57.9753Z" fill="#FFA42F"/>
<path d="M322.471 27.6453C322.469 27.6453 322.468 27.6453 322.466 27.6453C322.465 27.6453 322.463 27.6453 322.462 27.6453C316.36 27.713 311.523 32.2233 311.45 37.9133C311.392 42.5737 313.409 44.6783 315.545 46.9065C315.901 47.2779 316.269 47.6623 316.628 48.0593C318.93 50.6088 318.602 53.1789 318.598 53.2044C318.567 53.4227 318.718 53.6254 318.937 53.6573C318.956 53.6603 318.976 53.6613 318.995 53.6613H325.937C325.956 53.6613 325.976 53.6599 325.996 53.6573C326.215 53.6254 326.366 53.4221 326.334 53.2031C326.331 53.1779 325.988 50.6247 328.305 48.0593C328.663 47.6623 329.031 47.2783 329.388 46.9065C331.523 44.6783 333.541 42.5737 333.482 37.9133C333.41 32.223 328.573 27.7127 322.471 27.6453Z" fill="#FFCC46"/>
<path d="M320.389 58.3464L320.383 58.6537C320.361 59.868 321.331 60.8743 322.546 60.8969C323.761 60.9195 324.768 59.9501 324.791 58.7358L324.797 58.4285L320.389 58.3464Z" fill="#FFA42F"/>
<path d="M307.29 38.1658H296.248C296.111 38.1658 296 38.0545 296 37.9176C296 37.7804 296.111 37.6694 296.248 37.6694H307.29C307.427 37.6694 307.538 37.7804 307.538 37.9176C307.538 38.0548 307.427 38.1658 307.29 38.1658Z" fill="#FFCC46"/>
<path d="M302.819 54.3268C302.743 54.3268 302.668 54.2923 302.619 54.2265C302.538 54.1165 302.56 53.9611 302.671 53.8793L311.31 47.4691C311.42 47.3874 311.576 47.4103 311.657 47.5206C311.739 47.6306 311.716 47.7861 311.606 47.8678L302.967 54.278C302.922 54.3109 302.87 54.3268 302.819 54.3268Z" fill="#FFCC46"/>
<path d="M311.458 27.2314C311.398 27.2314 311.337 27.2098 311.29 27.166L302.651 19.2229C302.549 19.1302 302.543 18.973 302.636 18.872C302.729 18.7714 302.886 18.7647 302.987 18.8574L311.626 26.8005C311.727 26.8932 311.734 27.0503 311.641 27.1513C311.591 27.2045 311.525 27.2314 311.458 27.2314Z" fill="#FFCC46"/>
<path d="M348.69 39.5239H337.649C337.512 39.5239 337.4 39.413 337.4 39.2758C337.4 39.1385 337.512 39.0276 337.649 39.0276H348.69C348.827 39.0276 348.939 39.1389 348.939 39.2758C348.939 39.413 348.827 39.5239 348.69 39.5239Z" fill="#FFCC46"/>
<path d="M342.122 55.6852C342.07 55.6852 342.018 55.6692 341.974 55.6363L333.335 49.2261C333.225 49.1444 333.202 48.9889 333.283 48.8789C333.365 48.769 333.521 48.7461 333.631 48.8278L342.27 55.238C342.38 55.3197 342.403 55.4752 342.321 55.5852C342.273 55.6503 342.198 55.6852 342.122 55.6852Z" fill="#FFCC46"/>
<path d="M333.483 28.5898C333.416 28.5898 333.349 28.5629 333.3 28.5097C333.207 28.4091 333.214 28.2519 333.315 28.1589L341.954 20.2158C342.054 20.1231 342.212 20.1298 342.305 20.2304C342.398 20.3311 342.391 20.4882 342.29 20.5813L333.651 28.5244C333.603 28.5679 333.543 28.5898 333.483 28.5898Z" fill="#FFCC46"/>
<path d="M322.491 25.0803C322.353 25.0803 322.242 24.9693 322.242 24.8321V13.2482C322.242 13.111 322.354 13 322.491 13C322.628 13 322.739 13.111 322.739 13.2482V24.8321C322.739 24.9693 322.628 25.0803 322.491 25.0803Z" fill="#FFCC46"/>
</svg>
