<svg width="20" height="20" viewBox="0 0 20 20" fill="none" xmlns="http://www.w3.org/2000/svg">
<g clip-path="url(#clip0_3033_7762)">
<mask id="mask0_3033_7762" style="mask-type:luminance" maskUnits="userSpaceOnUse" x="0" y="0" width="20" height="20">
<path d="M20 0H0V20H20V0Z" fill="white"/>
</mask>
<g mask="url(#mask0_3033_7762)">
<path d="M10 20C15.5228 20 20 15.5228 20 10C20 4.47715 15.5228 0 10 0C4.47715 0 0 4.47715 0 10C0 15.5228 4.47715 20 10 20Z" fill="#1DD882"/>
<path d="M19.9289 11.193C19.4746 15.0078 16.8727 18.1633 13.3664 19.4164L4.96797 11.018L4.64844 10.0609L4.73984 9.19531L5.27852 8.7164L6.36719 8.59687L7.06328 8.91836L8.69024 10.5441L12.9367 6.29843L14.0871 6.00781L15.0344 6.29843L19.9289 11.193Z" fill="url(#paint0_linear_3033_7762)"/>
<path d="M12.9363 6.30137L8.68984 10.547L7.06289 8.92012C6.78458 8.64222 6.40736 8.48614 6.01406 8.48614C5.62076 8.48614 5.24354 8.64222 4.96523 8.92012C4.68734 9.19843 4.53125 9.57565 4.53125 9.96895C4.53125 10.3622 4.68734 10.7394 4.96523 11.0177L7.54843 13.6009C7.57617 13.6341 7.60546 13.6666 7.63671 13.6978C7.91652 13.976 8.29507 14.1322 8.68964 14.1322C9.08422 14.1322 9.46276 13.976 9.74257 13.6978C9.77382 13.6666 9.80312 13.6341 9.83085 13.6009L15.034 8.39863C15.3119 8.12032 15.468 7.7431 15.468 7.34981C15.468 6.95651 15.3119 6.57929 15.034 6.30098C14.7556 6.02314 14.3784 5.86712 13.9851 5.86719C13.5918 5.86727 13.2146 6.02342 12.9363 6.30137Z" fill="white"/>
</g>
</g>
<defs>
<linearGradient id="paint0_linear_3033_7762" x1="7.63906" y1="6.29609" x2="17.741" y2="16.3984" gradientUnits="userSpaceOnUse">
<stop stop-color="#068C46"/>
<stop offset="1" stop-color="#068C46" stop-opacity="0"/>
</linearGradient>
<clipPath id="clip0_3033_7762">
<rect width="20" height="20" fill="white"/>
</clipPath>
</defs>
</svg>
