<svg width="256" height="235" viewBox="0 0 256 235" fill="none" xmlns="http://www.w3.org/2000/svg">
<path d="M96.3387 26.3805C96.6387 27.0805 95.7387 28.0805 95.0387 27.6805C95.0387 28.2805 94.8388 29.0805 94.2388 29.0805C94.4388 28.1805 94.3387 27.1805 93.9387 26.3805C94.5387 26.3805 95.0387 25.9805 95.1387 25.3805C93.7387 24.9805 92.5388 23.9805 91.7388 22.6805C91.5388 22.3805 91.4388 22.1805 91.2388 21.9805C91.0388 21.7805 90.7387 21.6805 90.5387 21.5805C89.7387 21.2805 88.9387 20.9805 88.1387 20.6805C87.5387 20.4805 86.8387 20.0805 86.8387 19.4805C86.4387 20.4805 86.1387 21.4805 85.9387 22.4805C85.2387 22.5805 84.4387 21.9805 84.4387 21.2805C83.7387 21.2805 83.1387 21.9805 83.0387 22.6805C82.9387 21.8805 82.6387 20.9805 81.8387 20.9805C81.8387 21.9805 81.7387 22.9805 81.6387 23.9805C81.6387 24.5805 81.3387 25.4805 80.6387 25.2805C80.1387 25.1805 80.0387 24.5805 79.9387 24.0805C79.9387 23.5805 79.3387 22.9805 78.9387 23.2805C78.9387 23.6805 78.9387 24.0805 78.9387 24.4805C78.0387 25.2805 76.7387 25.1805 75.6387 25.0805C76.7387 26.0805 77.4387 27.5805 77.4387 29.0805C76.9387 29.0805 76.6388 28.6805 76.2388 28.4805C75.8388 28.2805 75.2387 28.1805 74.9387 28.4805C74.6387 28.8805 74.9387 29.4805 75.4387 29.8805C75.8387 30.2805 76.3387 30.6805 76.3387 31.1805C75.4387 31.8805 74.7388 29.1805 73.7388 29.7805C73.7388 30.0805 73.7388 30.3805 73.7388 30.6805C73.0388 30.4805 72.1388 30.7805 71.7388 31.4805C71.3388 32.1805 71.4387 33.0805 72.0387 33.5805C72.2387 33.7805 72.4387 33.8805 72.5387 34.1805C72.8387 34.8805 71.5387 35.5805 71.8387 36.2805C72.4387 36.2805 73.0387 36.3804 73.6387 36.4804C73.8387 36.6804 73.6387 36.9805 73.3387 37.0805C71.6387 37.7805 69.7387 36.2804 67.9387 36.4804C67.9387 35.5804 66.9387 34.8805 66.0387 35.0805C65.7387 35.3805 66.1387 35.8805 66.5387 36.0805C66.9387 36.2805 67.4387 36.5804 67.3387 36.9804C67.2387 37.3804 66.6387 37.3805 66.3387 37.6805C65.7387 38.1805 66.3387 39.0804 67.0387 39.4804C67.6387 39.8804 68.4387 40.5805 68.0387 41.2805C67.8387 41.2805 67.5387 41.3804 67.3387 41.4804C67.3387 42.1804 67.3387 42.9804 67.4387 43.6805C67.4387 43.9804 67.4387 44.3805 67.1387 44.5805C66.9387 44.6805 66.6387 44.5805 66.4387 44.5805C65.3387 43.8805 65.7387 41.8805 64.6387 41.1805C64.3387 40.9804 63.9388 40.8805 63.7388 40.5805C63.5388 40.2805 63.7387 39.8804 63.5387 39.4804C63.5387 39.2804 63.2387 39.0804 63.0387 38.9804C62.4387 38.3804 62.4387 37.3805 62.9387 36.7805C61.3387 38.2805 59.8388 39.7805 58.2388 41.2805C57.8388 41.6805 57.4388 42.0805 57.2388 42.5805C56.8388 43.9805 58.0387 45.7805 56.9387 46.5805C57.3387 47.2805 58.7387 46.9805 58.9387 47.7805C59.1387 48.3805 58.2387 48.7804 57.6387 48.9804C56.1387 49.4804 55.0387 50.7805 54.6387 52.3805C54.6387 52.7805 54.5388 53.1804 54.2388 53.4804C53.9388 53.8804 53.4387 53.9804 52.9387 54.1805C52.4387 54.3805 52.1387 55.0805 52.4387 55.3805C52.2387 56.6805 51.0387 57.6805 49.8387 58.2805C46.9387 59.8805 43.5388 60.5805 40.2388 60.3805C39.7388 60.3805 39.1387 60.3804 38.6387 60.4804C37.6387 60.9804 37.3387 62.2804 36.3387 62.6805C35.6387 62.8805 34.9388 62.5804 34.2388 62.4804C32.6388 62.3804 31.3387 63.6805 29.9387 64.1805C27.9387 64.9804 25.6387 64.3805 23.6387 64.8805C22.5387 65.1805 21.5387 65.7805 20.5387 66.3805C19.8387 66.7805 19.2387 67.1805 18.6387 67.6805C18.0387 68.2804 17.5387 68.9805 16.9387 69.5805C15.1387 71.3805 12.4388 71.8805 10.2388 73.0805C10.0388 73.1805 9.83877 73.2804 9.73877 73.4804C9.63877 73.6804 9.63867 73.9804 9.63867 74.1805C9.63867 75.1805 9.63867 76.1805 9.63867 77.1805C8.53867 77.1805 7.7387 76.1805 7.5387 75.1805C7.3387 74.1805 7.83877 73.0805 8.23877 72.0805C6.93877 72.5805 6.23867 73.9805 5.63867 75.2805C5.23867 76.0805 4.9387 76.9805 5.0387 77.7805C5.1387 78.3805 5.53867 78.8804 5.63867 79.4804C6.03867 80.7804 5.5387 82.0805 5.0387 83.3805C4.5387 84.5805 4.33867 86.0805 3.63867 87.1805C3.13867 87.9805 3.13867 89.0805 3.63867 89.8805C4.13867 90.7805 5.13877 91.4804 5.23877 92.4804C5.23877 92.7804 5.23877 93.0805 5.23877 93.3805C5.43877 94.5805 6.93877 95.0805 7.23877 96.1805C7.33877 96.6805 7.23877 97.1805 7.23877 97.5805C7.23877 98.5805 7.83875 99.4804 8.33875 100.48C8.73874 101.38 9.03874 102.58 8.33875 103.38C8.03874 103.58 7.53877 103.38 7.23877 103.08C6.93877 102.78 6.83867 102.38 6.63867 102.08C6.33867 101.58 5.8387 101.28 5.5387 100.78C5.1387 100.18 5.13872 99.4805 4.93872 98.7805C4.73872 98.0805 4.13872 97.4805 3.43872 97.5805C2.93872 98.6805 3.63872 99.8805 4.43872 100.78C5.13872 101.68 6.03867 102.58 6.13867 103.78C6.13867 104.28 5.83872 104.88 5.43872 104.78C5.23872 104.78 5.1387 104.58 5.0387 104.48C3.5387 102.88 2.23872 101.08 1.43872 98.9804C1.23872 98.3804 0.638672 97.6804 0.138672 97.9804C1.23867 99.7804 2.23875 101.48 3.33875 103.28C3.83875 104.08 4.23877 104.78 4.73877 105.58C5.63877 107.18 6.5387 108.68 7.5387 110.28C7.7387 110.68 8.03867 111.08 8.13867 111.58C8.13867 111.98 8.13867 112.48 8.13867 112.98C8.13867 114.98 9.53877 116.58 10.7388 118.08C10.9388 118.38 11.2387 118.68 11.3387 119.08C11.4387 119.48 11.3387 119.88 11.3387 120.28C11.3387 121.78 12.1387 122.98 13.3387 123.98C12.7387 127.58 13.2388 131.38 14.7388 134.68C15.2388 135.78 15.8387 136.88 16.4387 138.08C16.9387 139.18 17.4387 140.28 17.8387 141.38C18.1387 142.08 18.4387 142.78 18.5387 143.48C18.7387 145.08 18.2388 146.68 17.7388 148.18C17.6388 148.48 17.5387 148.78 17.4387 149.18C17.3387 150.48 18.2387 151.98 17.4387 153.08C17.1387 153.38 16.7387 153.68 16.5387 154.08C16.5387 154.38 16.5387 154.78 16.4387 155.08C16.1387 155.58 15.3387 155.48 14.8387 155.08C14.3387 154.78 13.7387 154.38 13.1387 154.68C13.7387 156.48 13.8387 158.48 13.6387 160.28C16.0387 160.48 18.4388 161.88 19.7388 163.88C19.9388 164.18 20.0387 164.38 20.3387 164.58C20.6387 164.78 20.9388 164.68 21.2388 164.78C21.7388 164.88 22.1387 165.38 22.5387 165.58C23.2387 165.88 24.0388 165.78 24.7388 165.78C25.7388 165.78 26.6387 165.78 27.6387 165.98C28.3387 166.08 29.0388 166.38 29.7388 166.18C30.0388 166.18 30.3387 165.98 30.5387 165.88C33.0387 164.68 35.6388 163.08 37.7388 161.38C38.7388 161.58 40.0387 161.68 40.6387 160.88C40.9387 160.48 41.0388 159.88 41.2388 159.38C41.7388 158.28 43.1387 157.78 44.3387 157.68C45.5387 157.68 46.8387 157.78 48.0387 157.48C48.7387 157.28 49.3387 156.98 50.0387 156.88C50.6387 156.78 51.2387 156.78 51.9387 156.88C53.7387 156.88 55.4387 157.28 57.1387 157.88C57.5387 157.98 57.9387 158.18 58.3387 158.28C58.7387 158.28 59.2387 158.28 59.6387 158.28C60.9387 157.98 62.2387 157.38 63.5387 157.48C64.3387 157.58 65.0387 157.98 65.8387 157.88C67.0387 157.68 67.6387 156.48 68.0387 155.38C68.5387 154.28 68.9387 153.08 69.4387 151.98C69.5387 151.68 69.7387 151.28 69.9387 151.08C70.3387 150.58 70.9387 150.48 71.5387 150.28C74.8387 149.38 77.8387 147.78 80.4387 145.58C80.6387 145.38 80.8387 145.28 81.0387 145.18C81.2387 145.18 81.3387 145.18 81.5387 145.18C82.9387 145.18 84.4387 145.18 85.8387 145.18C89.7387 145.58 93.4387 143.88 96.9387 142.18C97.7387 141.78 98.6387 141.38 99.5387 141.18C99.5387 141.18 99.6388 141.18 99.7388 141.18V27.3805C98.6388 27.0805 97.4387 26.9805 96.3387 26.9805V26.3805Z" fill="#D3EEFB" stroke="white" stroke-width="0.2"/>
<path d="M115.441 5.17889C115.341 5.47889 115.141 5.5789 114.941 5.7789C114.541 6.1789 114.141 6.57891 113.841 6.87891C113.441 7.27891 112.841 7.77892 112.341 7.57892C111.841 7.47892 111.541 6.87891 111.041 6.87891C110.741 6.87891 110.441 7.0789 110.141 7.2789C109.041 7.8789 107.641 7.8789 106.541 7.2789C106.541 7.0789 106.541 6.9789 106.541 6.7789C106.741 6.6789 106.941 6.77892 107.141 6.57892C107.441 6.37892 107.341 5.97889 107.341 5.67889C107.341 5.07889 107.741 4.4789 108.341 4.2789C109.141 4.0789 109.941 4.47889 110.641 4.67889C111.541 4.87889 112.541 4.6789 113.341 4.2789C113.641 4.0789 113.941 3.87891 114.241 3.87891C114.641 3.87891 115.041 3.8789 115.241 4.2789C115.441 4.5789 115.541 4.97891 115.341 5.37891L115.441 5.17889Z" fill="#D3EEFB" stroke="white" stroke-width="0.2"/>
<path d="M148.838 20.9805C149.038 20.8805 149.038 20.5805 149.038 20.2805C149.038 20.1805 149.038 20.0805 148.938 19.9805C148.738 19.7805 148.338 19.7805 148.038 19.6805C147.838 19.6805 147.638 19.4805 147.438 19.4805C147.238 19.4805 147.138 19.6805 146.938 19.7805C146.538 20.2805 146.238 20.7805 145.938 21.3805C145.838 21.5805 145.738 21.8805 145.938 22.0805C145.938 22.0805 145.938 22.0805 146.038 22.1805C146.338 22.4805 146.838 22.5805 147.238 22.6805C147.638 22.7805 147.938 22.8805 148.338 22.9805C148.538 22.9805 148.838 23.0805 149.038 22.9805C149.038 22.7805 149.038 22.6805 149.038 22.4805C148.638 22.2805 148.138 22.0805 148.138 21.5805C148.138 21.2805 148.338 20.9805 148.638 20.8805C148.738 20.8805 148.938 20.8805 149.038 20.8805L148.838 20.9805Z" fill="#D3EEFB" stroke="white" stroke-width="0.2"/>
<path d="M156.64 38.6797C156.34 38.5797 156.14 38.4798 155.84 38.2798C155.44 37.8797 155.14 37.4797 154.84 36.9797C153.44 34.9797 151.14 33.6797 148.74 33.5797C148.24 33.5797 147.64 33.5797 147.24 33.1797C147.04 32.9797 146.94 32.6797 146.84 32.3797C146.44 31.4797 145.54 30.8797 144.74 30.3797C143.24 29.3797 141.74 28.3797 140.24 27.3797C139.94 27.1797 139.64 26.9797 139.54 26.5797C139.44 26.1797 139.64 25.7797 139.84 25.4797C140.64 24.1797 141.44 23.0797 142.44 21.8797C142.94 21.2797 143.44 20.6797 143.54 19.9797C143.64 19.2797 143.14 18.2797 142.34 18.3797C142.14 18.3797 141.84 18.3797 141.74 18.1797C142.64 16.9797 143.84 15.9797 145.24 15.3797C145.24 15.7797 145.24 16.1797 145.14 16.5797C146.34 16.1797 146.74 14.2797 145.84 13.3797C147.34 12.6797 149.04 11.6797 148.94 10.0797C148.54 10.4797 147.84 10.3797 147.44 10.0797C147.04 9.67974 146.64 9.17973 146.14 8.97973C145.64 8.67973 144.84 8.97973 144.84 9.47973C144.84 9.87973 145.14 10.1797 145.44 10.4797C145.64 10.7797 145.74 11.2797 145.44 11.4797C144.34 11.8797 142.94 10.7797 143.24 9.67972C142.64 9.57972 141.84 9.77973 141.54 10.3797C141.54 9.47973 141.84 8.57973 142.54 7.87973C141.94 8.07973 141.34 8.17973 140.74 8.37973C140.74 8.67973 140.74 8.97973 140.74 9.37973C140.14 9.37973 139.64 9.37973 139.04 9.37973C139.04 9.77973 139.04 10.1797 139.04 10.5797C138.44 10.9797 137.64 10.5797 137.14 10.1797C136.64 9.67972 136.14 9.17973 135.44 8.97973C135.04 8.87973 134.64 8.97973 134.24 8.97973C132.54 8.97973 130.84 8.27974 129.64 7.07974C129.24 7.07974 128.84 7.27973 128.44 7.37973C126.84 7.87973 125.24 6.37972 124.64 4.77972C124.04 5.27972 123.24 5.47972 122.54 5.17972C121.94 4.87972 121.54 4.37974 120.94 4.07974C120.34 3.77974 119.44 3.87974 119.34 4.57974C119.34 4.17974 119.14 3.77972 119.04 3.27972C118.54 3.07972 117.94 3.27974 117.54 3.57974C117.14 4.67974 118.64 5.37973 119.74 5.37973C120.84 5.37973 122.34 5.37973 122.74 6.47973C122.34 7.47973 122.34 8.57973 122.74 9.47973C122.14 9.47973 121.44 9.87973 121.14 10.3797C120.64 9.67973 119.54 9.97972 118.64 10.1797C116.74 10.7797 114.54 10.5797 112.74 9.67972C112.74 10.1797 112.64 10.6797 112.54 11.1797C112.24 11.1797 111.94 11.1797 111.74 11.0797C111.74 11.5797 111.94 12.0797 111.94 12.5797C111.24 12.5797 110.64 11.9797 110.64 11.3797C110.04 11.5797 109.74 12.2797 109.94 12.8797C109.54 12.8797 109.04 12.7797 108.64 12.6797C109.14 12.9797 108.94 13.7797 108.54 14.0797C108.14 14.4797 107.54 14.5797 107.04 14.8797C106.54 15.1797 106.34 15.9797 106.74 16.2797C107.14 16.3797 107.54 16.5797 107.94 16.6797C107.94 17.0797 107.94 17.7797 107.54 17.8797C106.24 17.9797 104.64 18.3797 104.44 19.6797C104.44 20.0797 104.44 20.5797 104.24 20.8797C104.14 21.0797 103.84 21.1797 103.64 21.3797C102.74 21.8797 102.24 22.8797 102.24 23.8797C103.24 23.8797 104.14 24.8797 103.94 25.8797C104.44 25.8797 104.94 26.3797 104.84 26.8797C104.54 27.0797 104.24 27.0797 103.94 27.0797C104.24 27.3797 104.44 27.8797 104.34 28.3797C103.44 28.3797 102.54 28.0797 101.84 27.5797C101.84 27.8797 101.64 28.2797 101.54 28.5797C101.04 28.5797 101.14 27.7797 100.84 27.3797C100.74 27.1797 100.44 27.0797 100.24 27.0797C100.04 27.0797 99.9402 27.0797 99.7402 26.9797V98.5797H156.74V38.8797L156.64 38.6797Z" fill="#D3EEFB" stroke="white" stroke-width="0.2"/>
<path d="M153.94 170.481C153.74 170.381 153.64 170.081 153.44 169.981C152.94 169.581 152.24 169.581 151.54 169.681C150.24 169.881 148.94 170.081 147.64 170.281C147.24 170.281 146.74 170.481 146.54 170.781C146.24 171.181 146.54 171.781 146.84 172.081C147.34 172.581 148.14 172.581 148.84 172.481C149.54 172.481 150.24 172.281 150.94 172.381C151.74 172.581 152.54 173.081 153.34 172.981C153.14 172.681 153.34 172.181 153.64 171.981C153.94 171.781 154.34 171.781 154.74 171.881C155.04 171.881 155.24 171.881 155.54 171.881C155.84 171.881 156.04 171.681 156.14 171.381C156.24 170.881 155.74 170.581 155.24 170.481C154.74 170.381 154.24 170.481 153.84 170.181L153.94 170.481Z" fill="#D3EEFB" stroke="white" stroke-width="0.2"/>
<path d="M156.639 98.3789H99.6387V140.679C100.439 140.479 101.239 140.379 102.039 140.279C103.139 140.179 104.239 139.979 105.439 139.879C106.839 139.679 108.239 139.579 109.639 139.679C110.139 139.679 110.639 139.879 111.239 139.779C112.039 139.779 112.739 139.179 113.539 139.079C114.239 138.979 115.039 139.079 115.639 139.479C116.639 139.879 117.439 140.579 118.039 141.479C118.539 142.179 118.939 142.979 119.739 143.079C120.139 143.079 120.439 142.979 120.839 142.879C122.439 142.379 124.339 142.579 125.439 143.779C125.639 143.979 125.839 144.279 126.039 144.379C126.639 144.679 127.439 144.379 128.139 144.279C129.139 144.279 130.139 145.079 130.139 146.079C131.339 145.879 132.639 146.979 132.439 148.279C132.139 148.279 131.939 148.279 131.639 148.279C131.539 149.279 131.639 150.279 132.339 151.079C132.939 151.879 134.239 152.479 135.139 151.979C136.139 152.779 136.139 154.279 136.639 155.379C137.039 156.279 137.939 156.979 138.539 157.879C139.239 158.679 139.739 159.779 139.339 160.779C139.139 161.379 138.639 161.879 138.839 162.479C138.939 162.779 139.239 162.979 139.539 163.079C140.639 163.679 141.739 164.279 142.839 164.779C142.639 163.979 142.339 163.079 142.639 162.279C142.939 161.479 143.639 160.979 144.039 160.379C144.439 159.879 144.639 159.279 144.939 158.679C145.839 157.179 147.539 156.379 149.239 155.679C149.539 155.579 149.939 155.379 150.239 155.179C150.739 154.779 150.939 153.979 151.139 153.379C151.439 152.479 151.839 151.479 152.339 150.679C152.739 150.079 153.339 149.479 154.039 149.379C154.639 149.379 155.239 149.779 155.439 150.379C155.639 150.979 155.239 151.679 154.739 151.979C154.639 152.379 154.939 152.879 155.039 153.279C155.039 153.979 154.639 154.479 154.239 155.079C153.239 156.279 152.539 157.679 152.039 159.179C151.939 159.579 151.839 159.879 151.839 160.279C151.839 160.779 152.139 161.279 152.239 161.779C152.539 162.879 151.839 164.279 150.739 164.379C150.439 164.379 150.039 164.379 149.739 164.479C149.539 164.579 149.339 164.879 149.239 165.079C148.839 165.779 148.539 166.479 148.139 167.179C148.739 167.479 149.339 167.179 149.939 166.879C150.439 166.579 151.039 166.179 151.639 166.179C152.139 166.179 152.739 166.379 153.139 166.179C153.439 165.979 153.439 165.679 153.539 165.379C153.939 163.579 154.539 161.779 155.139 159.979C155.339 159.479 155.739 158.779 156.239 158.879C156.639 158.879 156.839 159.379 156.939 159.779C157.039 160.179 156.939 160.579 157.139 160.979C157.439 161.879 158.639 162.179 158.939 163.079C159.139 163.879 158.439 164.679 158.339 165.479C158.339 165.979 158.339 166.379 158.339 166.879C158.239 167.779 157.539 168.579 156.739 168.879C156.439 169.479 157.239 170.079 157.839 169.979C158.439 169.979 159.039 169.479 159.739 169.379C160.239 169.379 160.639 169.379 161.139 169.579C162.939 170.179 164.539 171.579 165.439 173.279C165.839 174.179 166.339 175.079 166.739 175.979C167.139 176.879 167.639 177.879 167.439 178.779C167.439 179.179 167.139 179.579 166.839 179.979C166.739 180.079 166.639 180.179 166.539 180.379C166.339 180.679 166.539 181.079 166.539 181.479C167.439 183.779 169.139 185.579 170.739 187.379C171.239 187.879 171.739 188.479 172.439 188.779C173.339 189.179 174.339 189.079 175.139 189.579V98.4789H156.839L156.639 98.3789Z" fill="#D3EEFB" stroke="white" stroke-width="0.2"/>
<path d="M165.24 37.8791C165.44 37.6791 165.639 37.4791 165.839 37.2791C166.039 37.0791 166.039 36.7791 166.039 36.4791C165.139 36.1791 164.139 36.4791 163.339 36.9791C163.339 36.9791 163.139 36.9791 163.139 37.0791C163.039 37.0791 162.939 37.2791 162.939 37.3791C162.939 37.5791 162.939 37.7791 163.139 37.9791C163.239 38.1791 163.439 38.2791 163.639 38.3791C163.839 38.3791 164.04 38.4791 164.24 38.4791C164.64 38.4791 165.039 38.1791 165.339 37.8791H165.24Z" fill="#D3EEFB" stroke="white" stroke-width="0.2"/>
<path d="M250.238 92.5774C250.238 92.3774 250.238 92.0774 250.038 91.8774C249.938 91.6774 249.638 91.4774 249.438 91.5774C249.438 92.0774 249.438 92.6774 249.438 93.1774C249.438 93.2774 249.438 93.4774 249.438 93.5774C249.438 93.8774 249.138 94.1774 248.938 94.3774C248.738 94.5774 248.638 94.7773 248.438 94.9773V97.5774C248.238 97.7774 248.338 97.9774 248.438 98.0774C248.538 98.0774 248.738 98.0773 248.838 97.9773C248.938 97.8773 249.038 97.6774 249.038 97.5774C249.238 96.6774 249.438 95.7773 250.038 94.9773C250.238 94.6773 250.638 94.3773 250.638 93.9773C250.738 93.4773 250.338 92.9773 250.138 92.4773L250.238 92.5774Z" fill="#D3EEFB" stroke="white" stroke-width="0.2"/>
<path d="M251.638 117.678C251.638 117.478 251.938 117.278 252.038 117.178C252.438 116.378 251.538 115.478 251.138 114.678C250.438 113.378 250.638 111.678 249.738 110.478C249.438 110.078 249.038 109.878 248.838 109.378C248.538 108.678 248.838 107.878 248.938 107.078C249.438 105.078 249.138 103.078 248.838 101.078C249.338 101.078 249.538 100.478 249.338 99.9781C249.138 99.4781 248.638 99.2781 248.338 98.9781C247.738 98.2781 247.738 97.3781 247.638 96.4781C247.538 95.5781 247.138 94.5781 246.338 94.2781C245.938 94.1781 245.538 94.0781 245.338 93.7781C245.238 93.5781 245.338 93.2781 245.338 93.0781C245.338 92.2781 244.638 91.6781 243.938 91.3781C243.238 91.0781 242.438 90.7781 242.038 90.0781C241.538 89.3781 241.738 88.3781 241.238 87.5781C240.738 86.8781 239.838 86.6781 239.038 86.3781C237.538 85.8781 236.138 84.8781 235.138 83.5781C234.938 83.2781 234.738 83.0781 234.738 82.7781C234.738 82.5781 234.738 82.2781 234.738 81.9781C234.738 81.4781 234.738 80.9781 234.538 80.5781C234.238 79.1781 234.038 77.7781 233.738 76.3781C233.738 76.1781 233.638 75.8781 233.438 75.6781C233.238 75.4781 232.938 75.4781 232.838 75.6781C232.838 76.1781 233.238 76.5781 233.638 76.8781C232.038 76.8781 230.438 75.7781 229.738 74.3781C229.738 75.1781 229.838 76.0781 229.938 76.8781C228.238 76.4781 227.438 74.5781 227.038 72.8781C226.938 72.3781 226.738 71.8781 226.638 71.4781C226.038 69.3781 225.238 67.0781 223.438 65.7781C223.038 65.4781 222.638 65.2781 222.238 64.9781C221.938 64.5781 221.738 64.0781 222.038 63.6781C222.438 63.6781 222.738 63.6781 223.038 63.4781C222.838 62.6781 222.538 61.7781 221.838 61.2781C221.138 60.7781 220.038 60.7781 219.638 61.4781C219.638 59.8781 216.638 59.9781 216.338 58.3781C216.038 58.5781 215.838 58.7781 215.538 59.0781C214.538 58.4781 214.838 56.7781 213.938 55.9781C213.438 55.4781 212.738 55.4781 212.038 55.3781C209.938 55.1781 207.838 54.1781 206.438 52.5781C207.238 51.9781 207.438 50.7781 206.838 49.9781C206.338 49.2781 205.438 48.8781 205.138 48.0781C204.738 46.9781 205.838 45.8781 205.838 44.6781C205.838 43.4781 204.638 42.4781 204.438 41.2781C204.438 40.8781 204.438 40.3781 204.238 40.0781C203.938 39.6781 203.438 39.4781 203.038 39.2781C201.638 38.4781 201.338 36.6781 201.238 35.0781C201.138 33.1781 200.938 31.3781 200.838 29.4781C200.838 28.2781 200.538 26.9781 199.638 26.1781C198.738 25.4781 197.138 25.3781 196.738 24.2781C196.538 23.7781 196.638 22.9781 196.038 22.7781C196.038 23.0781 195.738 23.2781 195.338 23.2781C195.038 23.2781 194.738 23.2781 194.438 23.2781C193.938 23.4781 193.838 24.0781 193.438 24.4781C192.638 25.0781 191.738 24.1781 191.238 23.3781C190.238 21.8781 189.238 20.0781 189.738 18.3781C189.738 18.0781 189.938 17.7781 189.938 17.4781C189.938 17.2781 189.938 16.9781 189.838 16.7781C189.638 15.9781 189.538 15.0781 189.638 14.1781C189.338 13.9781 189.038 13.7781 188.638 13.5781C189.438 13.1781 189.038 12.0781 188.338 11.4781C187.738 10.8781 186.938 10.2781 187.038 9.47812C187.138 8.97812 187.638 8.27812 187.138 7.97812C186.538 8.47812 185.438 7.97811 185.138 7.27811C184.738 6.57811 184.838 5.67811 184.938 4.87811C184.938 4.07811 185.138 3.17812 184.738 2.47812C184.538 2.07812 184.138 1.77811 183.838 1.37811C183.538 0.978113 183.438 0.478125 183.838 0.078125C183.338 0.478125 182.938 0.778101 182.438 1.1781C182.138 1.4781 181.738 1.77813 181.538 2.07812C181.238 2.57812 181.138 3.0781 181.038 3.6781C180.538 6.4781 180.038 9.5781 177.638 11.1781C178.538 11.5781 179.338 12.3781 179.738 13.2781C178.838 12.9781 178.038 14.0781 177.938 15.0781C177.938 16.0781 178.138 17.0781 177.938 17.9781C177.738 18.5781 177.338 19.0781 177.038 19.6781C176.738 20.2781 176.638 20.9781 177.038 21.4781C177.238 21.7781 177.638 21.8781 177.738 22.2781C177.938 22.6781 177.638 23.1781 177.438 23.6781C177.038 25.0781 178.138 26.4781 177.838 27.9781C177.638 29.1781 176.638 30.1781 176.338 31.3781C176.138 32.2781 176.338 33.1781 176.138 33.9781C175.938 34.4781 175.538 34.9781 175.438 35.5781C175.338 36.1781 175.738 36.8781 176.238 36.8781C174.838 38.2781 173.838 39.9781 173.338 41.8781C173.338 42.1781 173.138 42.5781 172.938 42.8781C172.738 43.1781 172.438 43.3781 172.238 43.5781C170.138 45.0781 167.138 45.0781 165.038 43.6781C163.138 42.3781 161.938 39.9781 159.638 39.2781C158.538 38.9781 157.338 39.0781 156.338 38.6781V98.3781H174.638V120.778H222.438C222.638 119.578 223.638 118.678 224.738 118.378C225.838 118.078 227.138 118.478 227.938 119.378C227.938 119.378 228.038 119.578 228.138 119.578C228.338 119.578 228.538 119.578 228.638 119.478C229.238 119.078 229.938 118.978 230.638 119.078C230.738 119.078 230.838 119.078 230.938 119.178C231.038 119.278 231.038 119.478 231.138 119.678C231.138 119.778 231.338 119.878 231.538 119.878C232.038 119.978 232.638 119.878 233.138 119.878C233.638 119.878 234.238 119.878 234.638 120.378C234.938 120.778 234.938 121.278 235.238 121.578C235.638 122.078 236.438 122.078 236.638 122.678C236.638 122.878 236.638 123.078 236.838 123.278C237.038 123.778 237.638 124.078 238.138 123.978C238.638 123.878 238.938 123.278 238.838 122.778C239.638 123.078 240.638 123.278 241.238 122.578C241.738 121.978 241.238 120.978 241.638 120.178C241.938 119.378 242.938 119.078 243.838 118.978C244.738 118.978 245.638 119.078 246.438 119.478C246.838 119.578 247.138 119.778 247.538 119.878C247.938 119.878 248.238 119.878 248.638 119.878C249.138 119.778 249.538 119.578 250.038 119.478C250.438 119.278 250.938 119.078 251.338 118.878C251.338 118.478 251.238 118.178 251.338 117.878L251.638 117.678Z" fill="#B5E2F7" stroke="white" stroke-width="0.2"/>
<path d="M251.639 118.681C251.139 118.881 250.739 119.081 250.339 119.281C249.939 119.481 249.439 119.581 248.939 119.681C248.539 119.681 248.239 119.781 247.839 119.681C247.439 119.681 247.14 119.481 246.74 119.281C245.939 118.981 245.039 118.781 244.139 118.781C243.239 118.781 242.239 119.081 241.939 119.981C241.639 120.781 242.039 121.681 241.539 122.381C241.039 123.081 239.939 122.881 239.139 122.581C239.239 123.081 238.939 123.681 238.439 123.781C237.939 123.881 237.339 123.581 237.139 123.081C237.139 122.881 237.139 122.681 236.939 122.481C236.639 121.981 235.939 121.881 235.539 121.381C235.239 120.981 235.239 120.481 234.939 120.181C234.639 119.781 234.039 119.681 233.439 119.681C232.939 119.681 232.339 119.781 231.839 119.681C231.739 119.681 231.539 119.581 231.439 119.481C231.339 119.281 231.34 119.081 231.24 118.981C231.24 118.981 231.039 118.981 230.939 118.881C230.239 118.881 229.539 118.881 228.939 119.281C228.739 119.281 228.639 119.481 228.439 119.381C228.439 119.381 228.24 119.281 228.24 119.181C227.44 118.281 226.239 117.881 225.039 118.181C223.939 118.481 222.94 119.481 222.74 120.581H174.939V155.781C175.439 155.781 175.94 155.981 176.24 156.281C176.44 156.481 176.639 156.681 176.839 156.781C177.539 157.181 178.239 156.781 179.039 156.481C180.839 155.981 182.839 157.481 183.039 159.281C183.039 159.681 183.039 160.081 183.139 160.481C183.239 160.881 183.639 161.181 184.039 161.181C184.539 161.181 184.639 160.481 185.139 160.181C185.439 159.981 185.739 159.981 186.039 160.081C187.239 160.281 188.939 160.781 189.039 161.981C189.239 163.481 189.44 164.881 189.74 166.381C190.94 165.981 192.339 166.781 193.039 167.881C193.839 168.981 194.139 170.181 194.839 171.281C195.239 171.781 195.64 172.281 196.24 172.581C196.84 172.781 197.639 172.581 197.939 172.081C198.139 171.781 198.139 171.281 198.439 170.981C198.839 170.581 199.439 170.681 199.939 170.881C200.439 171.081 200.84 171.481 201.24 171.781C201.84 172.081 202.439 172.181 203.139 172.281C204.439 172.481 205.739 172.681 207.039 172.881C208.839 173.181 210.739 173.381 212.539 173.481C213.239 173.481 214.04 173.481 214.74 173.881C215.64 174.481 215.739 175.681 215.939 176.781C216.139 177.881 216.539 179.081 217.639 179.281C217.639 179.881 217.639 180.381 217.639 180.981C220.739 181.981 223.639 183.581 226.139 185.681C226.339 185.881 226.54 185.981 226.74 186.181C226.74 186.181 226.739 186.181 226.839 186.181C228.039 185.781 228.939 184.581 229.539 183.381C229.739 182.981 229.939 182.581 229.839 182.181C229.739 181.881 229.44 181.581 229.24 181.281C229.04 180.981 229.039 180.581 229.139 180.181C229.339 176.581 229.939 172.781 231.839 169.681C232.039 169.381 232.239 169.081 232.439 168.781C232.639 168.481 232.839 168.181 233.039 167.781C233.339 167.381 233.639 166.981 233.839 166.481C234.939 164.381 234.84 161.781 235.74 159.581C236.24 158.481 236.939 157.581 237.439 156.481C237.939 155.381 238.24 154.181 237.74 153.081C238.64 153.081 239.34 152.481 239.74 151.681C240.14 150.881 240.339 150.081 240.839 149.281C241.339 148.581 242.239 147.981 243.039 148.381C243.239 147.081 244.939 146.581 245.339 145.381C245.739 144.381 245.14 143.181 245.74 142.381C245.939 142.081 246.239 141.781 246.539 141.481C247.439 140.381 247.139 139.081 247.939 137.781C248.539 136.781 249.14 135.581 248.74 134.581C248.64 134.281 248.439 133.981 248.339 133.681C248.239 133.181 248.339 132.681 248.439 132.281C249.239 129.381 249.939 126.481 250.74 123.581C250.939 122.981 251.039 122.381 251.339 121.781C251.639 121.181 252.14 120.681 252.24 120.081C252.24 119.581 252.039 118.981 251.839 118.481L251.639 118.681Z" fill="#D3EEFB" stroke="white" stroke-width="0.2"/>
<path d="M219.24 208.78C219.44 208.58 219.64 208.28 219.74 208.08C219.94 207.58 219.74 206.98 219.74 206.38C219.54 205.68 219.44 204.98 219.04 204.38C218.84 204.08 218.64 203.78 218.44 203.48L217.54 202.28C217.44 202.08 217.14 201.88 216.94 201.98C216.94 201.98 216.74 202.08 216.74 202.18C216.44 202.68 216.34 203.38 216.64 203.88C216.84 204.48 217.34 204.88 217.64 205.38C217.94 206.08 217.64 206.98 217.64 207.78C217.64 207.98 217.64 208.18 217.74 208.38C218.04 208.88 218.74 208.78 219.24 208.78Z" fill="#D3EEFB" stroke="white" stroke-width="0.2"/>
<path d="M192.34 200.777C191.94 200.777 191.54 201.077 191.34 201.477C191.14 201.777 191.04 202.277 191.04 202.677C191.04 203.277 190.84 203.977 191.24 204.477C191.64 205.077 192.74 205.277 193.24 204.677C193.74 204.177 193.84 203.377 193.74 202.577C193.74 202.177 193.64 201.777 193.34 201.377C193.04 200.977 192.74 200.777 192.34 200.777Z" fill="#D3EEFB" stroke="white" stroke-width="0.2"/>
<path d="M217.639 181.18C217.639 180.58 217.639 180.08 217.639 179.48C216.539 179.28 216.139 177.98 215.939 176.98C215.739 175.98 215.64 174.681 214.74 174.081C214.14 173.681 213.339 173.68 212.539 173.68C210.739 173.68 208.839 173.381 207.039 173.081C205.739 172.881 204.439 172.68 203.139 172.48C202.539 172.48 201.84 172.28 201.24 171.98C200.74 171.68 200.339 171.381 199.939 171.081C199.439 170.881 198.839 170.78 198.439 171.18C198.139 171.48 198.139 171.881 197.939 172.281C197.639 172.781 196.84 172.981 196.24 172.781C195.64 172.581 195.139 172.08 194.839 171.48C194.139 170.38 193.739 169.081 193.039 168.081C192.239 166.981 190.94 166.181 189.74 166.581C189.54 165.081 189.339 163.68 189.039 162.18C188.839 160.98 187.239 160.481 186.039 160.281C185.739 160.281 185.439 160.28 185.139 160.38C184.739 160.68 184.539 161.28 184.039 161.38C183.639 161.38 183.239 161.08 183.139 160.68C183.039 160.28 183.139 159.88 183.039 159.48C182.939 157.68 180.839 156.18 179.039 156.68C178.339 156.88 177.539 157.28 176.839 156.98C176.639 156.88 176.44 156.68 176.24 156.48C175.84 156.18 175.439 156.08 174.939 155.98V189.48C175.539 189.88 175.939 190.681 176.439 191.281C176.439 191.381 176.639 191.48 176.839 191.48C176.939 191.48 177.039 191.48 177.139 191.38C177.839 190.88 178.639 190.28 179.439 190.38C179.839 190.38 180.139 190.581 180.439 190.781C181.339 191.181 182.34 191.181 183.24 191.581C184.14 191.981 184.939 192.58 185.939 192.98C186.839 193.38 188.139 192.981 188.639 193.781C188.939 194.381 189.739 194.58 190.439 194.48C191.139 194.38 191.64 193.981 192.24 193.581C193.24 192.881 194.139 192.18 195.139 191.48C195.839 190.98 196.639 190.381 197.039 189.581C196.839 189.481 196.539 189.381 196.339 189.281C196.339 188.881 196.739 188.48 197.139 188.38C197.539 188.18 198.039 188.181 198.439 188.281C198.739 188.281 199.04 188.28 199.24 188.38C199.74 188.68 199.839 189.38 199.539 189.88C199.239 190.38 198.74 190.68 198.24 190.88C197.94 190.98 197.539 191.281 197.539 191.581C197.539 191.881 197.94 192.08 198.24 192.18C198.94 192.38 199.84 192.38 200.24 191.68C200.44 191.38 200.439 191.081 200.639 190.781C201.139 190.281 201.939 190.681 202.539 191.081C202.539 191.081 202.64 191.181 202.74 191.281C202.74 191.481 202.539 191.681 202.339 191.781C201.839 192.281 202.339 193.08 202.939 193.38C203.539 193.68 204.239 193.88 204.539 194.48C204.739 194.78 204.739 195.28 205.039 195.38C205.239 195.38 205.439 195.38 205.639 195.38C206.639 195.38 207.139 197.18 208.139 196.98C208.139 196.38 207.839 195.78 207.339 195.48C207.039 195.28 206.639 195.181 206.639 194.781C206.639 194.481 206.939 194.28 207.139 194.18C208.439 193.68 210.039 194.281 211.139 193.581C211.839 193.081 212.139 192.28 212.539 191.48C213.139 190.48 214.039 189.68 214.839 188.98C215.439 188.48 216.04 187.98 216.74 187.68C217.74 187.18 218.839 187.081 219.939 187.081C221.639 186.981 223.139 186.881 224.839 186.781C225.439 186.981 226.039 186.981 226.639 186.781C226.439 186.581 226.239 186.481 226.039 186.281C223.539 184.181 220.639 182.581 217.539 181.581L217.639 181.18Z" fill="#D3EEFB" stroke="white" stroke-width="0.2"/>
<path d="M218.84 220.779C218.74 220.979 218.74 221.379 218.54 221.579C218.34 221.979 217.74 222.079 217.44 222.479C217.04 222.979 217.34 223.679 217.24 224.279C217.24 224.879 216.84 225.479 216.64 226.079C216.44 226.679 216.34 227.379 216.64 227.879C216.84 228.079 217.04 228.179 217.14 228.379C217.74 228.979 217.44 230.179 216.54 230.479C215.74 230.679 214.84 229.779 215.14 228.979C215.44 228.979 215.84 228.979 216.14 229.079C216.44 228.579 216.14 227.779 215.44 227.679C214.84 227.579 214.24 227.879 213.84 228.279C213.54 228.479 213.14 228.779 212.94 229.179C212.74 229.479 212.64 229.779 212.54 229.979C212.34 230.279 212.04 230.479 211.74 230.379C211.94 231.079 211.14 231.679 210.84 232.379C210.74 232.679 210.84 233.079 210.64 233.379C210.64 233.679 210.34 234.079 209.94 234.079C209.64 234.079 209.44 233.879 209.24 233.679C208.44 233.079 207.44 232.779 206.44 232.879C206.04 232.879 205.64 233.079 205.24 232.879C204.84 232.879 204.44 232.279 204.64 231.979C205.24 231.979 205.84 231.979 206.34 231.779C206.44 231.579 206.34 231.179 205.94 231.179C205.54 231.179 205.34 231.179 205.14 231.179C204.54 231.179 203.94 230.879 203.44 230.479C202.94 229.879 202.74 229.179 202.24 228.479C201.94 227.979 201.54 227.679 201.24 227.179C200.64 226.379 200.34 225.379 199.94 224.479C199.74 223.879 199.54 223.179 199.44 222.579C199.84 222.579 200.24 222.779 200.54 223.179C200.84 223.479 201.04 223.879 201.34 224.179C201.34 224.179 201.54 224.379 201.64 224.379C201.94 224.379 202.04 223.979 201.94 223.679C201.84 223.379 201.54 223.279 201.34 223.079C200.94 222.679 200.54 222.179 200.34 221.679C200.34 221.379 200.14 221.179 200.04 220.879C199.84 220.479 199.64 220.179 199.34 219.779C198.04 217.979 196.74 216.079 196.74 213.879C196.74 213.479 196.74 212.979 196.34 212.779C196.14 212.679 195.94 212.679 195.74 212.479C195.54 212.279 195.74 211.979 195.84 211.779C196.04 211.579 196.24 211.379 196.34 211.179C196.44 210.779 196.14 210.379 196.34 210.079C196.64 209.679 197.24 209.879 197.74 210.079C198.64 210.579 199.64 210.779 200.64 211.079C202.14 211.579 203.44 212.479 204.94 212.979C206.44 213.479 208.14 213.679 209.44 212.779C209.44 212.979 209.54 213.179 209.64 213.379C209.84 213.479 210.04 213.379 210.14 213.179C210.24 212.979 210.24 212.779 210.34 212.579C210.74 211.879 211.94 212.579 212.44 211.979C212.54 211.879 212.64 211.679 212.74 211.679C212.94 211.579 213.24 211.679 213.44 211.679C213.94 211.679 214.24 210.979 214.74 210.779C215.04 210.679 215.44 210.779 215.84 210.779C216.14 210.779 216.34 210.479 216.64 210.379C217.14 210.179 217.84 210.279 218.24 210.679C218.64 211.079 218.84 211.679 218.64 212.279C218.54 212.679 218.24 212.979 218.24 213.279C218.24 213.979 219.14 214.579 218.94 215.179C218.94 215.379 218.74 215.479 218.64 215.679C218.14 216.379 218.04 217.379 218.44 218.079C218.64 218.379 218.84 218.679 219.04 218.979C219.24 219.279 219.24 219.779 219.04 220.079C218.84 220.379 218.44 220.479 218.24 220.779H218.84Z" fill="#D3EEFB" stroke="white" stroke-width="0.2"/>
<path d="M213.141 231.177C212.841 231.377 212.541 231.677 212.341 231.977C212.241 232.177 212.041 232.377 212.041 232.577C212.041 232.777 212.041 232.977 212.041 233.177C212.241 233.477 212.641 233.477 212.941 233.377C213.241 233.277 213.441 232.977 213.641 232.677C213.741 232.577 213.841 232.377 213.941 232.277C213.941 232.077 213.941 231.777 213.941 231.577C213.941 231.577 213.941 231.477 213.941 231.377C213.941 231.377 213.841 231.277 213.741 231.177C213.541 231.177 213.341 231.077 213.241 231.177C213.241 231.177 213.141 231.177 213.041 231.277L213.141 231.177Z" fill="#D3EEFB" stroke="white" stroke-width="0.2"/>
<path d="M248.139 112.778C247.939 112.778 247.739 112.478 247.539 112.278C245.239 109.678 241.739 104.678 241.139 101.278C240.239 96.1779 244.839 91.8779 249.939 93.0779C253.639 93.9779 255.939 97.5779 255.339 101.278C254.739 104.678 251.339 109.778 248.939 112.278C248.739 112.478 248.639 112.678 248.339 112.778H248.039H248.139ZM248.139 96.4779C245.339 96.5779 243.739 99.7779 245.339 102.178C246.939 104.578 250.639 104.078 251.639 101.378C252.539 98.9779 250.739 96.2779 248.139 96.4779Z" fill="#ED3983"/>
</svg>
