<svg width="68" height="72" viewBox="0 0 68 72" fill="none" xmlns="http://www.w3.org/2000/svg">
<path fill-rule="evenodd" clip-rule="evenodd" d="M45.6337 42.7216L42.4386 42.0619L40.1446 36.4536L41.947 33.732C42.2747 33.3196 42.1928 32.7423 41.7831 32.3299L37.6048 28.1237C37.1952 27.7113 36.6217 27.7113 36.2121 27.9588L33.5084 29.7732L27.9374 27.4639L27.2819 24.2474C27.2 23.7526 26.7084 23.3402 26.2169 23.3402H20.3181C19.7446 23.3402 19.3349 23.6701 19.253 24.2474L18.5976 27.4639L13.0265 29.7732L10.3229 27.9588C9.91326 27.6289 9.33977 27.7113 8.93013 28.1237L4.75181 32.3299C4.34217 32.7423 4.34217 33.3196 4.58796 33.732L6.39036 36.4536L4.09639 42.0619L0.90121 42.7216C0.409644 42.8041 0 43.299 0 43.7938V49.732C0 50.3093 0.327716 50.7216 0.90121 50.8041L4.09639 51.4639L6.39036 57.0722L4.58796 59.7938C4.26025 60.2062 4.34217 60.7835 4.75181 61.1959L8.93013 65.4021C9.33977 65.8144 9.91326 65.8144 10.3229 65.567L13.0265 63.7526L18.5976 66.0618L19.253 69.2784C19.3349 69.7732 19.8265 70.1856 20.3181 70.1856H26.2169C26.7904 70.1856 27.2 69.8557 27.2819 69.2784L27.9374 66.0618L33.5084 63.7526L36.2121 65.567C36.6217 65.8969 37.1952 65.8144 37.6048 65.4021L41.7831 61.1959C42.1928 60.7835 42.1928 60.2062 41.947 59.7938L40.1446 57.0722L42.4386 51.4639L45.6337 50.8041C46.1253 50.7216 46.535 50.2268 46.535 49.732V43.7938C46.535 43.2165 46.2072 42.8041 45.6337 42.7216ZM23.2675 59.6289C16.2217 59.6289 10.5687 53.8557 10.5687 46.8454C10.5687 39.835 16.3036 34.0619 23.2675 34.0619C30.2313 34.0619 35.9663 39.835 35.9663 46.8454C35.9663 53.8557 30.2313 59.6289 23.2675 59.6289ZM31.3783 51.4639C30.8868 52.2887 29.8217 52.6185 29.0024 52.1237L22.6121 48.4124C22.0386 48.0825 21.6289 47.5051 21.6289 46.8454V39.2577C21.6289 38.268 22.4482 37.4433 23.4313 37.4433C24.4145 37.4433 25.2337 38.268 25.2337 39.2577V45.8557L30.8868 49.1546C31.706 49.6495 32.0337 50.7217 31.5422 51.5464L31.3783 51.4639ZM17.2868 6.51546L21.9566 0.659784C22.2844 0.247413 22.7759 0 23.3494 0C23.9229 0 24.4145 0.247413 24.7422 0.659784L29.412 6.51546C29.9855 7.25773 29.9036 8.41237 29.1663 8.98969C28.4289 9.56701 27.2819 9.48452 26.7084 8.74225L25.2337 6.84535V17.4845C25.2337 18.4742 24.4145 19.299 23.4313 19.299C22.4482 19.299 21.6289 18.4742 21.6289 17.4845V6.84535L20.1542 8.74225C19.5807 9.48452 18.4337 9.64948 17.6964 8.98969C16.959 8.41237 16.7952 7.25773 17.4506 6.51546H17.2868ZM63.0024 40.4124C63.5759 41.1546 63.494 42.3093 62.7566 42.8866C62.0193 43.4639 60.8723 43.3814 60.2988 42.6392L58.8241 40.7423V70.1856C58.8241 71.1752 58.0048 72 57.0217 72C56.0386 72 55.2193 71.1752 55.2193 70.1856V40.7423L53.7446 42.6392C53.1711 43.3814 52.0241 43.5464 51.2868 42.8866C50.5494 42.3093 50.3856 41.1546 51.041 40.4124L55.7108 34.5567C56.0386 34.1443 56.5301 33.8969 57.1036 33.8969C57.6771 33.8969 58.1687 34.1443 58.4964 34.5567L63.1663 40.4124H63.0024ZM53.8265 1.81442C46.0434 1.81442 39.653 8.24742 39.653 16.0825C39.653 23.9175 46.0434 30.3505 53.8265 30.3505C61.6096 30.3505 68 23.9175 68 16.0825C68 8.24742 61.6096 1.81442 53.8265 1.81442ZM60.2169 21.0309C59.7253 22.8454 57.9229 24.0825 55.6289 24.4124V25.0722C55.6289 26.0619 54.8097 26.8866 53.8265 26.8866C52.8434 26.8866 52.0241 26.0619 52.0241 25.0722V24.3299C49.5663 23.7526 47.7639 22.268 47.2723 20.1237C47.0265 19.134 47.6819 18.2268 48.5831 17.9794C49.5663 17.732 50.4675 18.3918 50.7132 19.299C50.959 20.3711 52.5157 20.866 53.9084 20.9485C55.547 20.9485 56.694 20.4536 56.7759 19.9587C56.8578 19.5464 56.7759 19.4639 56.7759 19.3814C56.694 19.2165 56.2843 18.6392 54.4819 18.1443C54.1542 18.0619 53.7446 17.9794 53.3349 17.8969C51.9422 17.567 50.3855 17.2371 49.2386 16.2474C48.0916 15.3402 47.4362 14.1855 47.3542 12.866C47.2723 11.6288 47.6819 10.3917 48.6651 9.40206C49.5663 8.49484 50.7132 7.91752 51.9422 7.67009V6.92783C51.9422 5.93814 52.7615 5.11339 53.7446 5.11339C54.7277 5.11339 55.547 5.93814 55.547 6.92783V7.67009C55.7928 7.67009 55.9566 7.75258 56.2024 7.83505C58.4145 8.41237 59.8892 9.81441 60.2988 11.6288C60.5446 12.6185 59.8892 13.5258 58.988 13.7732C58.0048 14.0206 57.1036 13.3608 56.8578 12.4536C56.694 11.7113 55.6289 11.3814 55.3012 11.299C53.6627 10.8041 51.9422 11.299 51.2868 11.8763C51.041 12.1237 50.959 12.3711 50.959 12.6185C50.959 12.9484 51.2868 13.1959 51.4506 13.4433C52.0241 13.8557 53.1711 14.1856 54.1542 14.433C54.5639 14.5155 55.0554 14.6804 55.4651 14.7629C57.6771 15.4227 59.1518 16.4124 59.8892 17.732C60.4627 18.7217 60.5446 19.8763 60.2169 21.0309Z" fill="url(#paint0_linear_3703_8273)"/>
<defs>
<linearGradient id="paint0_linear_3703_8273" x1="34" y1="72" x2="34" y2="0.0824745" gradientUnits="userSpaceOnUse">
<stop stop-color="#7E7DBA"/>
<stop offset="0.1" stop-color="#7982BF"/>
<stop offset="0.4" stop-color="#6C94CD"/>
<stop offset="0.8" stop-color="#3FB9EA"/>
<stop offset="1" stop-color="#41C4E8"/>
</linearGradient>
</defs>
</svg>
