<svg width="90" height="90" viewBox="0 0 90 90" fill="none" xmlns="http://www.w3.org/2000/svg">
<path d="M46.5 85C36.5224 85 27.116 81.0886 20.0137 73.9863C12.9114 66.884 9 57.4776 9 47.5C9 42.428 10.0072 37.5016 11.994 32.8574C12.353 32.0182 13.1941 31.4872 14.1054 31.5263C15.0174 31.5643 15.8109 32.1619 16.0991 33.0279L18.0316 38.8363L21.6327 41.2371L22.3408 34.0995C22.4153 33.3486 22.8699 32.6884 23.5449 32.351L31.6408 28.3044L33.582 24.0312C33.8174 23.513 34.2445 23.1064 34.7736 22.8969L38.4048 21.4593L31.8955 16.5603C31.264 16.085 30.9365 15.3073 31.0377 14.5234C31.1388 13.7396 31.6532 13.0705 32.3848 12.7712C36.8782 10.9324 41.6273 10 46.5 10C60.012 10 72.5467 17.3646 79.2122 29.2201C79.5316 29.7881 79.5823 30.4688 79.3506 31.0781C79.1189 31.6873 78.6286 32.1622 78.0123 32.3745L70.2457 35.0493C69.8999 35.1684 69.5295 35.1994 69.1689 35.1391L61.8945 33.9262C61.2957 33.8263 60.7648 33.4831 60.4279 32.978L59.0996 30.9864L50.7415 35.3721L55.7969 36.5731C56.3493 36.7044 56.8293 37.0442 57.1367 37.5216L59.6136 41.3695L62.9341 40.5389C63.5347 40.3885 64.1708 40.4988 64.6859 40.8421L68.3231 43.2665C68.9345 43.674 69.3018 44.3601 69.3018 45.0949V49.0855L75.7368 56.0538C76.1117 56.4597 76.3198 56.992 76.3198 57.5446V69.4201C76.3198 69.9172 76.1512 70.3998 75.8416 70.7887C72.3981 75.1139 67.9708 78.6911 63.0381 81.1337C57.8571 83.6991 52.2927 85 46.5 85Z" fill="url(#paint0_linear_3720_8040)"/>
<path d="M79.2114 29.2194C78.6911 28.2947 77.5842 27.8738 76.581 28.2194L69.3414 30.7127L63.5554 29.7479L61.6576 26.9023C61.0339 25.9669 59.8043 25.6534 58.8086 26.1758L43.5025 34.2075C42.6911 34.6333 42.2291 35.518 42.3433 36.4272C42.4576 37.3364 43.1241 38.0792 44.0156 38.2911L53.92 40.6442L56.7706 45.0726C57.2802 45.8643 58.2378 46.2436 59.1514 46.0147L63.0571 45.0377L64.9068 46.2707V49.9446C64.9068 50.4972 65.1149 51.0295 65.4898 51.4354L71.9248 58.4037V69.4199C71.9248 70.354 72.5153 71.1859 73.3971 71.4941C73.6347 71.5771 73.8794 71.6173 74.1216 71.6173C74.7782 71.6173 75.4158 71.3224 75.8409 70.7886C78.4283 67.5393 80.4441 63.9219 81.8324 60.0365C83.2705 56.0126 83.9995 51.7947 83.9995 47.5C83.9995 41.1081 82.3438 34.7869 79.2114 29.2194ZM45.7119 51.2545L38.8501 49.8816L33.058 43.511C32.6348 43.0455 32.0324 42.7855 31.4031 42.7921L25.8868 42.865L26.5938 35.7397L34.3013 31.8872C34.7518 31.6621 35.1111 31.2891 35.3194 30.8306L37.2158 26.6564L43.6653 24.103C44.4044 23.8105 44.9278 23.1415 45.0341 22.3539C45.1404 21.5662 44.8129 20.7824 44.1779 20.3045L34.5378 13.0492C33.9189 12.5834 33.1005 12.4777 32.3836 12.7714C23.2875 16.497 15.8554 23.8184 11.9931 32.8584C11.7822 33.352 11.7593 33.9059 11.9288 34.4154L14.0997 40.9398C14.2541 41.4039 14.5589 41.803 14.9658 42.0743L21.2603 46.2707V50.9848C21.2603 51.557 21.4834 52.1066 21.8824 52.5167L27.3233 58.1114V64.3207C27.3233 64.8348 27.5034 65.3325 27.8326 65.7273L33.8941 73.0017C34.3198 73.5126 34.9428 73.7924 35.5825 73.7924C35.8327 73.7924 36.0855 73.7497 36.33 73.6612C37.1998 73.3462 37.7793 72.5202 37.7793 71.5952V66.6323L41.7504 63.6542C42.3036 63.2393 42.6293 62.588 42.6293 61.8964V59.1692L46.8345 54.9626C47.4074 54.3895 47.6184 53.5479 47.3836 52.7724C47.1489 51.9967 46.5064 51.4136 45.7119 51.2545Z" fill="url(#paint1_linear_3720_8040)"/>
<defs>
<linearGradient id="paint0_linear_3720_8040" x1="44.2471" y1="85" x2="44.2471" y2="10" gradientUnits="userSpaceOnUse">
<stop stop-color="#5558FF"/>
<stop offset="1" stop-color="#00C0FF"/>
</linearGradient>
<linearGradient id="paint1_linear_3720_8040" x1="47.908" y1="73.7926" x2="47.908" y2="12.6074" gradientUnits="userSpaceOnUse">
<stop stop-color="#ADDCFF"/>
<stop offset="0.5028" stop-color="#EAF6FF"/>
<stop offset="1" stop-color="#EAF6FF"/>
</linearGradient>
</defs>
</svg>
