<svg width="68" height="72" viewBox="0 0 68 72" fill="none" xmlns="http://www.w3.org/2000/svg">
<path d="M17.6148 54.8472H10.5379C9.92248 54.8472 9.46094 55.3087 9.46094 55.9241V70.8472H18.6917V55.9241C18.6917 55.3087 18.2302 54.8472 17.6148 54.8472Z" fill="#CAEAF7"/>
<path d="M18.614 55.9241V70.8472H15.614V55.9241C15.614 55.3087 15.1525 54.8472 14.5371 54.8472H17.5371C18.1525 54.8472 18.614 55.3087 18.614 55.9241Z" fill="#A3DDF2"/>
<path d="M31.5367 42.2297H24.4597C23.8444 42.2297 23.3828 42.6913 23.3828 43.3067V70.922H32.6136V43.3067C32.6136 42.6913 32.152 42.2297 31.5367 42.2297Z" fill="#A3DDF2"/>
<path d="M32.5398 43.3067V70.922H29.5398V43.3067C29.5398 42.6913 29.0783 42.2297 28.4629 42.2297H31.4629C32.0783 42.2297 32.5398 42.6913 32.5398 43.3067Z" fill="#41C5EB"/>
<path d="M45.4624 29.5383H38.3855C37.7701 29.5383 37.3086 29.9999 37.3086 30.6152V70.846H46.5394V30.6152C46.5394 29.9999 46.0778 29.5383 45.4624 29.5383Z" fill="#41C5EB"/>
<path d="M46.4617 30.6152V70.846H43.4617V30.6152C43.4617 29.9999 43.0002 29.5383 42.3848 29.5383H45.3848C46.0002 29.5383 46.4617 29.9999 46.4617 30.6152Z" fill="#2FA7DF"/>
<path d="M59.3863 16.9243H52.3094C51.694 16.9243 51.2324 17.3859 51.2324 18.0012V70.8474H60.4632V18.0012C60.4632 17.3859 60.0017 16.9243 59.3863 16.9243Z" fill="#2FA7DF"/>
<path d="M60.3836 18.0012V70.8474H57.3836V18.0012C57.3836 17.3859 56.922 16.9243 56.3066 16.9243H59.3066C59.922 16.9243 60.3836 17.3859 60.3836 18.0012Z" fill="#0891CC"/>
<path d="M66 71.9231H1.07692C0.461534 71.9231 0 71.4615 0 70.8462V1.07692C0 0.461537 0.461534 0 1.07692 0H3.6923C4.30769 0 4.76923 0.461537 4.76923 1.07692C4.76923 1.69231 4.30769 2.15385 3.6923 2.15385H2.15384V69.8462H65V68.3077C65 67.6923 65.4615 67.2308 66.0769 67.2308C66.6923 67.2308 67.1538 67.6923 67.1538 68.3077V70.9231C67.1538 71.5385 66.6923 72 66.0769 72L66 71.9231Z" fill="#ACACAC"/>
<path d="M4.76942 46.5407C4.30788 46.5407 3.92327 46.3099 3.76942 45.8484C3.53865 45.3099 3.76942 44.6945 4.38481 44.4638C4.92327 44.233 5.46173 44.0791 5.92327 43.8484C6.46173 43.6176 7.07712 43.8484 7.30789 44.4638C7.53866 45.0022 7.30788 45.6176 6.6925 45.8484C6.15404 46.0791 5.61558 46.233 5.07712 46.4638C4.92327 46.4638 4.84635 46.4638 4.6925 46.4638L4.76942 46.5407ZM9.46173 44.6176C9.07711 44.6176 8.6925 44.3868 8.46173 44.0022C8.23096 43.4638 8.46173 42.8484 9.00019 42.6176C9.53865 42.3868 10.0002 42.1561 10.5387 41.9253C11.0771 41.6945 11.6925 41.9253 11.9233 42.3868C12.154 42.9253 11.9233 43.5407 11.4617 43.7714C10.9233 44.0022 10.4617 44.233 9.92327 44.4638C9.76942 44.4638 9.61557 44.5407 9.46173 44.5407V44.6176ZM14.0002 42.3868C13.6156 42.3868 13.231 42.1561 13.0771 41.8484C12.7694 41.3099 13.0002 40.6945 13.5387 40.3868C14.0002 40.1561 14.5387 39.8484 15.0002 39.6176C15.5387 39.3099 16.154 39.5407 16.4617 40.0022C16.7694 40.4638 16.5387 41.1561 16.0771 41.4638C15.6156 41.7714 15.0771 42.0022 14.5387 42.3099C14.3848 42.3868 14.231 42.4638 14.0771 42.4638L14.0002 42.3868ZM18.3848 39.9253C18.0002 39.9253 17.6925 39.7714 17.4617 39.4637C17.154 39.0022 17.3079 38.3099 17.7694 38.0022C18.231 37.6945 18.6925 37.3868 19.154 37.0791C19.6156 36.7714 20.3079 36.9253 20.6156 37.3868C20.9233 37.8484 20.7694 38.5407 20.3079 38.8484C19.8463 39.1561 19.3848 39.4638 18.8463 39.7714C18.6925 39.8484 18.4617 39.9253 18.3079 39.9253H18.3848ZM22.5387 37.0791C22.231 37.0791 21.9233 36.9253 21.6925 36.6176C21.3848 36.1561 21.4617 35.4638 21.9233 35.1561C22.3848 34.8484 22.8463 34.4638 23.231 34.1561C23.6925 33.7714 24.3848 33.9253 24.6925 34.3868C25.0771 34.8484 24.9233 35.5407 24.4617 35.8484C24.0002 36.1561 23.5387 36.5407 23.0771 36.8484C22.9233 37.0022 22.6925 37.0791 22.4617 37.0791H22.5387ZM26.5387 34.0022C26.231 34.0022 25.9233 33.8484 25.6925 33.6176C25.3079 33.1561 25.3848 32.5407 25.8463 32.1561C26.3079 31.7714 26.6925 31.4638 27.0771 31.0791C27.5387 30.6945 28.154 30.7714 28.5387 31.1561C28.9233 31.6176 28.8463 32.233 28.4617 32.6176C28.0002 33.0022 27.6156 33.3868 27.154 33.6945C26.9233 33.8484 26.6925 33.9253 26.4617 33.9253L26.5387 34.0022ZM30.3079 30.6176C30.0002 30.6176 29.7694 30.5407 29.5387 30.3099C29.154 29.9253 29.154 29.233 29.5387 28.8484C29.9233 28.4638 30.3079 28.0791 30.6925 27.6945C31.0771 27.3099 31.7694 27.3099 32.154 27.6945C32.5387 28.0791 32.5387 28.7714 32.154 29.1561C31.7694 29.5407 31.3079 29.9253 30.9233 30.3868C30.6925 30.6176 30.4617 30.6945 30.231 30.6945L30.3079 30.6176ZM33.8463 27.0022C33.6156 27.0022 33.3079 26.9253 33.154 26.6945C32.6925 26.3099 32.6925 25.6176 33.154 25.233C33.5387 24.8484 33.9233 24.3868 34.231 24.0022C34.6156 23.5407 35.3079 23.5407 35.6925 23.9253C36.0771 24.3099 36.154 25.0022 35.7694 25.3868C35.3848 25.8484 35.0002 26.233 34.6156 26.6945C34.3848 26.9253 34.154 27.0022 33.8463 27.0022ZM37.154 23.1561C36.9233 23.1561 36.6925 23.1561 36.4617 22.9253C36.0002 22.5407 35.9233 21.9253 36.3079 21.4638C36.6156 21.0022 37.0002 20.6176 37.3079 20.1561C37.6925 19.6945 38.3079 19.6176 38.7694 19.9253C39.231 20.233 39.3079 20.9253 39.0002 21.3868C38.6925 21.8484 38.3079 22.3099 37.9233 22.7714C37.6925 23.0022 37.3848 23.1561 37.0771 23.1561H37.154ZM40.154 19.0791C39.9233 19.0791 39.7694 19.0791 39.5387 18.9253C39.0771 18.6176 38.9233 17.9253 39.3079 17.4637C39.6156 17.0022 39.9233 16.5407 40.231 16.0791C40.5387 15.6176 41.231 15.4638 41.6925 15.7714C42.154 16.0791 42.3079 16.7714 42.0002 17.233C41.6925 17.6945 41.3848 18.1561 41.0771 18.6176C40.8463 18.9253 40.5387 19.0791 40.231 19.0791H40.154ZM42.9233 14.8484C42.7694 14.8484 42.5387 14.8484 42.3848 14.6945C41.9233 14.3868 41.6925 13.7714 42.0002 13.233C42.3079 12.7714 42.5387 12.3099 42.8463 11.7714C43.154 11.233 43.7694 11.0791 44.3079 11.3868C44.8463 11.6945 45.0002 12.3099 44.6925 12.8484C44.3848 13.3099 44.154 13.8484 43.8463 14.3099C43.6156 14.6176 43.3079 14.8484 42.9233 14.8484ZM45.3848 10.3868C45.231 10.3868 45.0771 10.3868 44.9233 10.3099C44.3848 10.0791 44.231 9.38683 44.4617 8.92529C44.6925 8.46375 44.9233 7.92529 45.154 7.46375C45.3848 6.92529 46.0002 6.69452 46.5387 6.92529C47.0771 7.15606 47.3079 7.77144 47.0771 8.30991C46.8463 8.84837 46.6156 9.3099 46.3079 9.84836C46.154 10.233 45.7694 10.4638 45.3848 10.4638V10.3868ZM47.4617 5.77144C47.3079 5.77144 47.231 5.77144 47.0771 5.77144C46.5387 5.54067 46.3079 4.92529 46.4617 4.38683C46.8463 3.38683 47.0002 2.84836 47.0002 2.84836C47.154 2.3099 47.7694 2.00221 48.3079 2.15606C48.8464 2.3099 49.154 2.92529 49.0002 3.46375C49.0002 3.46375 48.7694 4.07913 48.3848 5.15606C48.231 5.54067 47.8463 5.84837 47.3848 5.84837L47.4617 5.77144Z" fill="#F79822"/>
<path d="M15.0771 11.5371H9.46169C8.84631 11.5371 8.38477 11.0756 8.38477 10.4602C8.38477 9.84484 8.84631 9.3833 9.46169 9.3833H15.0771C15.6925 9.3833 16.154 9.84484 16.154 10.4602C16.154 11.0756 15.6925 11.5371 15.0771 11.5371Z" fill="#ACACAC"/>
<path d="M9.46169 7.92289C8.84631 7.92289 8.38477 7.46135 8.38477 6.84596C8.38477 6.23058 8.84631 5.76904 9.46169 5.76904C10.0771 5.76904 10.5386 6.23058 10.5386 6.84596C10.5386 7.46135 10.0771 7.92289 9.46169 7.92289Z" fill="#2FA7DF"/>
<path d="M20.6155 15.4605H9.46169C8.84631 15.4605 8.38477 14.9989 8.38477 14.3836C8.38477 13.7682 8.84631 13.3066 9.46169 13.3066H20.6155C21.2309 13.3066 21.6925 13.7682 21.6925 14.3836C21.6925 14.9989 21.2309 15.4605 20.6155 15.4605Z" fill="#ACACAC"/>
<path d="M11.6947 22.3085C11.387 22.3085 11.1563 22.2315 10.9255 22.0008L10.5409 21.6162L10.1563 22.0008C9.77164 22.3854 9.07933 22.3854 8.69471 22.0008C8.3101 21.6162 8.3101 20.9238 8.69471 20.5392L9.84856 19.3854C10.2332 19.0008 10.9255 19.0008 11.3101 19.3854L12.4639 20.5392C12.8486 20.9238 12.8486 21.6162 12.4639 22.0008C12.0793 22.3854 12.0024 22.3085 11.6947 22.3085Z" fill="#2FA7DF"/>
</svg>
