<svg width="80" height="80" viewBox="0 0 80 80" fill="none" xmlns="http://www.w3.org/2000/svg">
<path d="M22.5083 60.6304C24.9543 60.8051 27.2433 61.9001 28.9144 63.6948C30.5854 65.4896 31.5144 67.8508 31.5143 70.3031V72.7273C31.5124 73.3697 31.2564 73.9852 30.8022 74.4394C30.3479 74.8936 29.7324 75.1497 29.0901 75.1516H7.2719C6.62954 75.1497 6.01404 74.8936 5.55982 74.4394C5.1056 73.9852 4.84957 73.3697 4.84766 72.7273V70.3031C4.84799 67.8469 5.78036 65.4824 7.45649 63.687C9.13262 61.8917 11.4276 60.7992 13.878 60.6304H22.5083Z" fill="#FFC756"/>
<path d="M66.145 60.6304C68.591 60.8051 70.88 61.9001 72.5511 63.6948C74.2221 65.4896 75.1511 67.8508 75.151 70.3031V72.7273C75.1491 73.3697 74.8931 73.9852 74.4389 74.4394C73.9847 74.8936 73.3692 75.1497 72.7268 75.1516H50.9086C50.2663 75.1497 49.6508 74.8936 49.1965 74.4394C48.7423 73.9852 48.4863 73.3697 48.4844 72.7273V70.3031C48.4847 67.8469 49.4171 65.4824 51.0932 63.687C52.7693 61.8917 55.0643 60.7992 57.5147 60.6304H66.145Z" fill="#FFC756"/>
<path d="M44.3266 60.6304C46.7727 60.8051 49.0617 61.9001 50.7327 63.6948C52.4038 65.4896 53.3328 67.8508 53.3327 70.3031V72.7273C53.3308 73.3697 53.0747 73.9852 52.6205 74.4394C52.1663 74.8936 51.5508 75.1497 50.9084 75.1516H29.0903C28.4479 75.1497 27.8324 74.8936 27.3782 74.4394C26.924 73.9852 26.6679 73.3697 26.666 72.7273V70.3031C26.6663 67.8469 27.5987 65.4824 29.2748 63.687C30.951 61.8917 33.246 60.7992 35.6963 60.6304H44.3266Z" fill="#7C63F9"/>
<path d="M56.9703 18.0244V30.5808C56.9747 31.2407 56.7975 31.8891 56.4583 32.4552C56.119 33.0213 55.6307 33.4832 55.0467 33.7905C52.8745 34.9093 48.6333 36.3638 41.2127 36.3638C33.7921 36.3638 29.5509 34.9093 27.3788 33.7905C26.7948 33.4832 26.3064 33.0213 25.9672 32.4552C25.6279 31.8891 25.4508 31.2407 25.4552 30.5808V18.0244H56.9703Z" fill="#3D499B"/>
<path d="M68.83 15.1127L41.7149 21.7575C41.3844 21.8387 41.0393 21.8387 40.7088 21.7575L13.5937 15.1127C13.1791 15.0343 12.8049 14.8136 12.5357 14.4888C12.2665 14.1639 12.1191 13.7552 12.1191 13.3333C12.1191 12.9114 12.2665 12.5027 12.5357 12.1778C12.8049 11.8529 13.1791 11.6323 13.5937 11.5539L40.7088 4.90905C41.0393 4.82784 41.3844 4.82784 41.7149 4.90905L68.83 11.5539C69.2446 11.6323 69.6188 11.8529 69.888 12.1778C70.1572 12.5027 70.3046 12.9114 70.3046 13.3333C70.3046 13.7552 70.1572 14.1639 69.888 14.4888C69.6188 14.8136 69.2446 15.0343 68.83 15.1127Z" fill="#31408A"/>
<path d="M26.667 49.697V53.3334C26.667 55.5837 25.773 57.7418 24.1818 59.3331C22.5906 60.9243 20.4324 61.8182 18.1821 61.8182C15.9318 61.8182 13.7736 60.9243 12.1824 59.3331C10.5912 57.7418 9.69727 55.5837 9.69727 53.3334V49.697C9.69727 47.4467 10.5912 45.2885 12.1824 43.6973C13.7736 42.1061 15.9318 41.2122 18.1821 41.2122C20.4324 41.2122 22.5906 42.1061 24.1818 43.6973C25.773 45.2885 26.667 47.4467 26.667 49.697Z" fill="#B48277"/>
<path d="M53.334 49.697V53.3334C53.334 55.5837 54.2279 57.7418 55.8191 59.3331C57.4104 60.9243 59.5685 61.8182 61.8188 61.8182C64.0692 61.8182 66.2273 60.9243 67.8185 59.3331C69.4097 57.7418 70.3037 55.5837 70.3037 53.3334V49.697C70.3037 47.4467 69.4097 45.2885 67.8185 43.6973C66.2273 42.1061 64.0692 41.2122 61.8188 41.2122C59.5685 41.2122 57.4104 42.1061 55.8191 43.6973C54.2279 45.2885 53.334 47.4467 53.334 49.697Z" fill="#B48277"/>
<path d="M48.4853 49.697V53.3334C48.4853 55.5837 47.5914 57.7418 46.0002 59.3331C44.409 60.9243 42.2508 61.8182 40.0005 61.8182C37.7502 61.8182 35.592 60.9243 34.0008 59.3331C32.4096 57.7418 31.5156 55.5837 31.5156 53.3334V49.697C31.5156 47.4467 32.4096 45.2885 34.0008 43.6973C35.592 42.1061 37.7502 41.2122 40.0005 41.2122C42.2508 41.2122 44.409 42.1061 46.0002 43.6973C47.5914 45.2885 48.4853 47.4467 48.4853 49.697Z" fill="#EF876F"/>
<path d="M64.2433 27.8788C63.9218 27.8788 63.6135 27.7511 63.3862 27.5238C63.1588 27.2964 63.0311 26.9881 63.0311 26.6667V17.8254C63.0323 17.6769 62.9789 17.5331 62.881 17.4214C62.7831 17.3097 62.6476 17.2378 62.5002 17.2194L41.0627 14.5357C40.7496 14.4891 40.4672 14.3218 40.2759 14.0697C40.0845 13.8176 39.9994 13.5006 40.0387 13.1865C40.0779 12.8725 40.2385 12.5862 40.486 12.389C40.7335 12.1917 41.0484 12.0991 41.3633 12.1309L62.8021 14.8194C63.5346 14.9112 64.2084 15.2673 64.697 15.8208C65.1855 16.3743 65.4552 17.0872 65.4554 17.8254V26.6667C65.4554 26.9881 65.3277 27.2964 65.1004 27.5238C64.873 27.7511 64.5647 27.8788 64.2433 27.8788Z" fill="#FFC756"/>
</svg>
