<svg width="68" height="68" viewBox="0 0 68 68" fill="none" xmlns="http://www.w3.org/2000/svg">
<path d="M50.9006 66.7315L43.8553 62.1401C43.4595 61.9026 42.9054 61.9026 42.5096 62.1401L33.5645 67.9981V45.2786H52.8004V65.7815C52.8004 66.7315 51.6922 67.3648 50.9006 66.8106V66.7315Z" fill="#FDC151"/>
<path d="M33.5655 51.7698C34.1196 52.6406 34.6737 53.3531 35.5445 53.5906C37.761 54.303 40.6899 51.374 43.1439 51.374C45.5979 51.374 48.5268 54.3822 50.7433 53.5906C51.6141 53.3531 52.1682 52.6406 52.7223 51.7698V45.2786H33.4863V51.7698H33.5655Z" fill="#EAAF43"/>
<path d="M67.9196 27.2298C67.9196 29.6838 64.199 31.5837 63.4074 33.8003C62.6158 36.096 64.5948 39.8166 63.1699 41.7165C61.7451 43.6955 57.6287 42.9831 55.6497 44.408C53.7498 45.8329 53.1166 49.9493 50.8209 50.7409C48.6044 51.4534 45.6755 48.5244 43.2215 48.5244C40.7675 48.5244 37.8386 51.5326 35.6221 50.7409C33.3264 49.9493 32.6932 45.8329 30.7933 44.408C28.8143 42.9831 24.698 43.6955 23.2731 41.7165C21.8482 39.8166 23.8272 36.096 23.0356 33.8003C22.3231 31.5837 18.5234 29.6838 18.5234 27.2298C18.5234 24.7758 22.244 22.8759 23.0356 20.6593C23.8272 18.3636 21.8482 14.643 23.2731 12.7431C24.698 10.7641 28.8143 11.4765 30.7933 10.0516C32.6932 8.62671 33.3264 4.51028 35.6221 3.71866C37.8386 3.0062 40.7675 5.93519 43.2215 5.93519C45.6755 5.93519 48.6044 2.92704 50.8209 3.71866C53.1166 4.51028 53.7498 8.62671 55.6497 10.0516C57.6287 11.4765 61.7451 10.7641 63.1699 12.7431C64.5948 14.643 62.6158 18.3636 63.4074 20.6593C64.1199 22.8759 67.9196 24.7758 67.9196 27.2298Z" fill="#DD636E"/>
<path d="M63.406 33.8028C64.1184 31.5863 67.9181 29.6864 67.9181 27.2323C67.9181 24.7783 64.1976 22.8784 63.406 20.6619C62.6144 18.3662 64.5934 14.6456 63.1685 12.7457C61.7436 10.7666 57.6272 11.4791 55.6482 10.0542C53.7484 8.62927 53.1151 4.51284 50.8194 3.72122C49.9487 3.48373 49.0779 3.72122 48.0488 4.11703C49.7904 5.38362 50.4237 8.78759 52.1652 10.0542C54.1442 11.4791 58.2605 10.7666 59.6854 12.7457C61.1103 14.6456 59.1313 18.3662 59.9229 20.6619C60.6353 22.8784 64.4351 24.7783 64.4351 27.2323C64.4351 29.6864 60.7145 31.5863 59.9229 33.8028C59.1313 36.0985 61.1103 39.8191 59.6854 41.719C58.2605 43.6981 54.1442 42.9856 52.1652 44.4105C50.4237 45.6771 49.7904 49.0019 48.0488 50.3477C48.9988 50.7435 49.9487 50.981 50.8194 50.7435C53.1151 49.9519 53.7484 45.8354 55.6482 44.4105C57.6272 42.9856 61.7436 43.6981 63.1685 41.719C64.5934 39.8191 62.6144 36.0985 63.406 33.8028Z" fill="#DA4A55"/>
<path d="M43.2218 43.1457C52.0093 43.1457 59.1331 36.0218 59.1331 27.2341C59.1331 18.4463 52.0093 11.3225 43.2218 11.3225C34.4343 11.3225 27.3105 18.4463 27.3105 27.2341C27.3105 36.0218 34.4343 43.1457 43.2218 43.1457Z" fill="#F7F5F8"/>
<path d="M43.2211 11.3225C42.5878 11.3225 42.0337 11.3225 41.4004 11.4017C49.3956 12.2724 55.5701 19.0804 55.5701 27.2341C55.5701 35.3878 49.3956 42.1957 41.4004 43.0665C41.9545 43.0665 42.5878 43.1457 43.2211 43.1457C52.0079 43.1457 59.1323 36.0211 59.1323 27.2341C59.1323 18.4471 52.0079 11.3225 43.2211 11.3225Z" fill="#DDD9EB"/>
<path d="M29.1311 36.4131H9.73674L5.06627 38.7879C1.97901 40.3712 0 43.5377 0 47.0208V66.9697C0 67.5238 0.474965 67.9988 1.02909 67.9988H37.7595C38.3928 67.9988 38.9469 67.4446 38.9469 66.8113V47.1C38.9469 43.6168 36.9679 40.4504 33.8807 38.8671L29.2102 36.4923L29.1311 36.4131Z" fill="#C0D7EF"/>
<path d="M33.8019 38.7879L29.1315 36.4131H26.9941L27.3108 37.838L30.4772 39.4213C33.5645 41.0045 35.5435 44.171 35.5435 47.6541V67.9196H37.6808C38.3141 67.9196 38.8682 67.3655 38.8682 66.7322V47.0208C38.8682 43.5377 36.8892 40.3712 33.8019 38.7879Z" fill="#A1C3E7"/>
<path d="M14.959 24.3013H23.9041V38.7879H14.959V24.3013Z" fill="#E9AB9C"/>
<path d="M21.2116 42.9845H17.7285L16.3828 37.7598H22.4782L21.1324 42.9845H21.2116Z" fill="#5A67AE"/>
<path d="M14.962 33.8013L19.3949 37.7594L16.3868 40.3717C15.9119 40.7675 15.1994 40.7675 14.7245 40.3717L9.6582 36.4136L14.8828 33.8013H14.962Z" fill="#ECF2FA"/>
<path d="M23.9076 33.8013L19.4746 37.7594L22.4827 40.3717C22.9577 40.7675 23.6701 40.7675 24.1451 40.3717L29.2113 36.4136L23.9868 33.8013H23.9076Z" fill="#ECF2FA"/>
<path d="M17.6546 42.9839H21.1376L24.1457 67.9199H14.6465L17.6546 42.9839Z" fill="#737CBB"/>
<path d="M10.7652 68.0001V51.9302C10.7652 51.3761 10.2902 50.9011 9.73612 50.9011C9.182 50.9011 8.70703 51.3761 8.70703 51.9302V68.0001H10.7652Z" fill="#A1C3E7"/>
<path d="M30.1597 68.0001V51.9302C30.1597 51.3761 29.6848 50.9011 29.1307 50.9011C28.5765 50.9011 28.1016 51.3761 28.1016 51.9302V68.0001H30.1597Z" fill="#A1C3E7"/>
<path d="M26.2032 1.03101L25.2532 2.29758C24.62 3.16837 23.3534 3.0892 22.7201 2.29758L22.0077 1.18932C21.5327 0.47686 20.8203 0.0810547 19.9495 0.0810547H10.2128C7.44214 0.0810547 5.14648 2.37675 5.14648 5.14742V19.5549C5.14648 22.1673 7.28382 24.2255 9.81695 24.2255H28.7363C31.3486 24.2255 33.4068 22.0881 33.4068 19.5549V5.14742C33.4068 2.37675 31.1111 0.0810547 28.3405 0.0810547H28.0239C27.2323 0.0810547 26.5198 0.476855 26.0448 1.11015L26.2032 1.03101Z" fill="#5E6B75"/>
<path d="M28.4969 0H28.1803C27.7845 0 27.4679 0.0791766 27.1512 0.237501C29.2094 0.870797 30.7134 2.77067 30.7134 5.06637V19.4739C30.7134 22.0862 28.5761 24.1444 26.043 24.1444H28.9719C31.5842 24.1444 33.6424 22.0071 33.6424 19.4739V5.06637C33.6424 2.2957 31.3467 0 28.5761 0H28.4969Z" fill="#4D5962"/>
<path d="M19.3949 28.8955C14.012 28.8955 9.6582 24.5416 9.6582 19.1585V11.2423C9.6582 11.0049 9.89568 10.7674 10.1332 10.8465C15.0411 11.559 18.92 10.8465 21.6906 8.62997C21.8489 8.47165 22.0864 8.47165 22.2447 8.62997C23.6696 10.2132 25.7278 10.9257 28.5776 10.7674C28.815 10.7674 29.0525 10.9257 29.0525 11.1632V19.1585C29.0525 24.5416 24.6987 28.8955 19.3158 28.8955H19.3949Z" fill="#FCDBCD"/>
<path d="M28.6573 10.8437C27.9449 10.8437 27.2325 10.8437 26.6783 10.8437V17.5724C26.6783 22.9555 22.3245 27.3094 16.9416 27.3094C11.5587 27.3094 14.0127 26.9927 12.7461 26.3594C14.4876 27.9427 16.7833 28.9718 19.3956 28.9718C24.7785 28.9718 29.1323 24.6179 29.1323 19.2348V11.2395C29.1323 11.002 28.8948 10.7645 28.6573 10.8437Z" fill="#FACABE"/>
<path d="M43.9325 57.6298H42.5076C41.9535 57.6298 41.4785 57.1548 41.4785 56.6006C41.4785 56.0465 41.9535 55.5715 42.5076 55.5715H43.9325C44.4866 55.5715 44.9616 56.0465 44.9616 56.6006C44.9616 57.1548 44.4866 57.6298 43.9325 57.6298Z" fill="#EAAF43"/>
<path d="M44.0123 21.452L45.6747 23.9852C45.833 24.1435 45.9914 24.3018 46.2288 24.381L49.1578 25.1726C49.7911 25.3309 50.1077 26.1225 49.6327 26.6767L47.7329 29.0515C47.5746 29.2099 47.4954 29.4473 47.4954 29.6848L47.6537 32.7721C47.6537 33.4846 47.0204 33.9596 46.3872 33.7221L43.5374 32.6138C43.2999 32.5347 43.0624 32.5347 42.9041 32.6138L40.0543 33.7221C39.421 33.9596 38.7086 33.4846 38.7877 32.7721L38.9461 29.6848C38.9461 29.4473 38.9461 29.2099 38.7086 29.0515L36.8087 26.6767C36.4129 26.1225 36.6504 25.3309 37.2837 25.1726L40.2126 24.381C40.4501 24.381 40.6084 24.1435 40.7668 23.9852L42.4291 21.452C42.8249 20.8978 43.6165 20.8978 44.0123 21.452Z" fill="#FDC151"/>
</svg>
