<svg width="80" height="80" viewBox="0 0 80 80" fill="none" xmlns="http://www.w3.org/2000/svg">
<path d="M27.3574 21.8203V36.3659L40.0021 43.6387V29.0931L27.3574 21.8203Z" fill="#7EB4E1"/>
<path d="M40.002 29.0931V43.6387L52.6467 36.3659V21.8203L40.002 29.0931Z" fill="#6AACDE"/>
<path d="M14.7109 43.7212V58.2668L27.3557 65.5396V50.994L14.7109 43.7212Z" fill="#FAA919"/>
<path d="M27.3574 50.994V65.5396L40.0021 58.2668V43.7212L27.3574 50.994Z" fill="#EBA321"/>
<path d="M40.002 43.7212V58.2668L52.6467 65.5396V50.994L40.002 43.7212Z" fill="#EF4B51"/>
<path d="M52.6445 50.994V65.5396L65.2893 58.2668V43.7212L52.6445 50.994Z" fill="#E0474F"/>
<path d="M52.6445 50.994V65.5396L65.2893 58.2668V43.7212L52.6445 50.994Z" fill="#E0474F"/>
<path d="M65.2074 43.7205L52.5627 36.4478L39.918 43.7205L52.5627 50.9933L65.2074 43.7205Z" fill="#4E6675"/>
<path d="M52.6469 21.8197L40.0021 14.5469L27.3574 21.8197L40.0021 29.0924L52.6469 21.8197Z" fill="#4E6675"/>
<path d="M40.0004 43.7205L27.3557 36.4478L14.7109 43.7205L27.3557 50.9933L40.0004 43.7205Z" fill="#4E6675"/>
<g opacity="0.3">
<path d="M54.957 49.5886C55.7835 50.4977 57.1058 50.8283 58.2628 50.1672L60.4116 48.9275C61.486 48.349 62.8083 49.0928 62.8083 50.3325C62.8083 51.5721 63.8827 52.8118 65.2877 52.8945V43.6382L55.0397 49.5886H54.957Z" fill="#E1E1E1"/>
</g>
<g opacity="0.3">
<path d="M29.75 49.5886C30.5765 50.4977 31.8988 50.8283 33.0558 50.1672L35.2046 48.9275C36.279 48.349 37.6013 49.0928 37.6013 50.3325C37.6013 51.5721 38.6757 52.8118 40.0807 52.8945V43.6382L29.8327 49.5886H29.75Z" fill="white"/>
</g>
<g opacity="0.3">
<path d="M42.3164 27.7708C43.1429 28.6799 44.4652 29.0105 45.6222 28.3493L47.771 27.1096C48.8454 26.5311 50.1677 27.2749 50.1677 28.5146C50.1677 29.7543 51.2421 30.9939 52.6471 31.0766V21.8203L42.3991 27.7708H42.3164Z" fill="white"/>
</g>
<g opacity="0.3">
<path d="M52.6447 36.3647L40 43.6375C48.1819 40.9102 57.0249 40.9102 65.2895 43.6375L52.6447 36.3647Z" fill="#E1E1E1"/>
</g>
<g opacity="0.3">
<path d="M40.0041 14.5469L27.3594 21.8197C35.5413 19.0924 44.3843 19.0924 52.6488 21.8197L40.0041 14.5469Z" fill="#E1E1E1"/>
</g>
<g opacity="0.3">
<path d="M27.3557 36.3647L14.7109 43.6375C22.8928 40.9102 31.7359 40.9102 40.0004 43.6375L27.3557 36.3647Z" fill="#E1E1E1"/>
</g>
<path d="M40.6611 0.247936C40.3305 -0.0826453 39.6694 -0.0826453 39.3388 0.247936L35.785 3.80169C35.4545 4.13227 35.4545 4.79343 35.785 5.12401C36.1156 5.45459 36.7768 5.45459 37.1073 5.12401L39.0909 3.14052V9.50421C39.0909 10.0001 39.5041 10.4133 39.9999 10.4133C40.4958 10.4133 40.909 10.0001 40.909 9.50421V3.14052L42.8925 5.12401C43.0578 5.2893 43.3058 5.37194 43.5537 5.37194C43.8016 5.37194 44.0496 5.2893 44.2149 5.12401C44.5454 4.79343 44.5454 4.13227 44.2149 3.80169L40.6611 0.247936Z" fill="#4E6675"/>
<path d="M42.8925 74.876L40.909 76.8595V70.4958C40.909 69.9999 40.4958 69.5867 39.9999 69.5867C39.5041 69.5867 39.0909 69.9999 39.0909 70.4958V76.8595L37.1073 74.876C36.7768 74.5454 36.1156 74.5454 35.785 74.876C35.4545 75.2065 35.4545 75.8677 35.785 76.1983L39.3388 79.752C39.5041 79.9173 39.752 80 39.9999 80C40.2479 80 40.4958 79.9173 40.6611 79.752L44.2149 76.1983C44.5454 75.8677 44.5454 75.2065 44.2149 74.876C43.8843 74.5454 43.2231 74.4627 42.8925 74.876Z" fill="#4E6675"/>
<path d="M9.50421 39.0913H3.14052L5.12402 37.1079C5.4546 36.7773 5.4546 36.1161 5.12402 35.7855C4.79344 35.455 4.13227 35.455 3.80169 35.7855L0.247938 39.3393C0.0826478 39.5046 0 39.7525 0 40.0004C0 40.2484 0.0826478 40.4963 0.247938 40.6616L3.80169 44.2154C3.96698 44.3806 4.21492 44.4633 4.46285 44.4633C4.71079 44.4633 4.95873 44.3806 5.12402 44.2154C5.4546 43.8848 5.4546 43.2236 5.12402 42.893L3.14052 40.9095H9.50421C10.0001 40.9095 10.4133 40.4963 10.4133 40.0004C10.4133 39.5046 10.0001 39.0913 9.42157 39.0913H9.50421Z" fill="#4E6675"/>
<path d="M79.7513 39.3393L76.1976 35.7855C75.867 35.455 75.2058 35.455 74.8752 35.7855C74.5447 36.1161 74.5447 36.7773 74.8752 37.1079L76.8587 39.0913H70.495C69.9992 39.0913 69.5859 39.5046 69.5859 40.0004C69.5859 40.4963 69.9992 40.9095 70.495 40.9095H76.8587L74.8752 42.893C74.5447 43.2236 74.5447 43.8848 74.8752 44.2154C75.2058 44.5459 75.2884 44.4633 75.5364 44.4633C75.7843 44.4633 76.0323 44.3806 76.1976 44.2154L79.7513 40.6616C79.9166 40.4963 79.9992 40.2484 79.9992 40.0004C79.9992 39.7525 79.9166 39.5046 79.7513 39.3393Z" fill="#4E6675"/>
<path d="M67.6024 11.4058H62.561C62.0651 11.4058 61.6519 11.819 61.6519 12.3149C61.6519 12.8107 62.0651 13.224 62.561 13.224H65.3709L60.9081 17.6868C60.5775 18.0174 60.5775 18.6786 60.9081 19.0091C61.0734 19.1744 61.3213 19.2571 61.5692 19.2571C61.8172 19.2571 62.0651 19.1744 62.2304 19.0091L66.6933 14.5463V17.3562C66.6933 17.8521 67.1065 18.2653 67.6024 18.2653C68.0982 18.2653 68.5114 17.8521 68.5114 17.3562V12.3149C68.5114 11.819 68.0982 11.4058 67.6024 11.4058Z" fill="#4E6675"/>
<path d="M17.7674 60.9083L13.3045 65.3712V62.5612C13.3045 62.0654 12.8913 61.6521 12.3954 61.6521C11.8995 61.6521 11.4863 62.0654 11.4863 62.5612V67.6026C11.4863 68.0985 11.8995 68.5117 12.3954 68.5117H17.4368C17.9327 68.5117 18.3459 68.0985 18.3459 67.6026C18.3459 67.1067 17.9327 66.6935 17.4368 66.6935H14.6269L19.0897 62.2307C19.4203 61.9001 19.4203 61.2389 19.0897 60.9083C18.7591 60.5778 18.0979 60.5778 17.7674 60.9083Z" fill="#4E6675"/>
<path d="M14.6269 13.3045H17.4368C17.9327 13.3045 18.3459 12.8913 18.3459 12.3954C18.3459 11.8996 17.9327 11.4863 17.4368 11.4863H12.3954C11.8995 11.4863 11.4863 11.8996 11.4863 12.3954V17.4368C11.4863 17.9327 11.8995 18.3459 12.3954 18.3459C12.8913 18.3459 13.3045 17.9327 13.3045 17.4368V14.6269L17.7674 19.0897C17.9327 19.255 18.1806 19.3376 18.4285 19.3376C18.6765 19.3376 18.9244 19.255 19.0897 19.0897C19.4203 18.7591 19.4203 18.098 19.0897 17.7674L14.6269 13.3045Z" fill="#4E6675"/>
<path d="M67.6024 61.6521C67.1065 61.6521 66.6933 62.0654 66.6933 62.5612V65.3712L62.2304 60.9083C61.8998 60.5778 61.2387 60.5778 60.9081 60.9083C60.5775 61.2389 60.5775 61.9001 60.9081 62.2307L65.3709 66.6935H62.561C62.0651 66.6935 61.6519 67.1067 61.6519 67.6026C61.6519 68.0985 62.0651 68.5117 62.561 68.5117H67.6024C68.0982 68.5117 68.5114 68.0985 68.5114 67.6026V62.5612C68.5114 62.0654 68.0982 61.6521 67.6024 61.6521Z" fill="#4E6675"/>
</svg>
