<svg width="466" height="401" viewBox="0 0 466 401" fill="none" xmlns="http://www.w3.org/2000/svg">
<g clip-path="url(#clip0_3703_7931)">
<path d="M215.045 357.563H0.681334C0.48181 357.563 0.320312 357.401 0.320312 357.201C0.320312 357.002 0.48181 356.84 0.681334 356.84H215.045C215.244 356.84 215.406 357.002 215.406 357.201C215.406 357.401 215.244 357.563 215.045 357.563Z" fill="white"/>
<path d="M465.318 357.563H250.955C250.755 357.563 250.594 357.401 250.594 357.201C250.594 357.002 250.755 356.84 250.955 356.84H465.318C465.517 356.84 465.679 357.002 465.679 357.201C465.679 357.401 465.517 357.563 465.318 357.563Z" fill="white"/>
<path d="M244.006 243.762C259.964 243.762 272.899 230.809 272.899 214.832C272.899 198.855 259.964 185.902 244.006 185.902C228.049 185.902 215.113 198.855 215.113 214.832C215.113 230.809 228.049 243.762 244.006 243.762Z" fill="#FFABCD"/>
<path d="M63.3884 192.145C63.1888 192.145 63.0273 191.983 63.0273 191.783V61.5021C63.0273 61.3023 63.1888 61.1406 63.3884 61.1406H130.533C130.733 61.1406 130.894 61.3023 130.894 61.5021C130.894 61.7019 130.733 61.8636 130.533 61.8636H63.7494V191.783C63.7494 191.983 63.5879 192.145 63.3884 192.145Z" fill="#FFABCD"/>
<path d="M406.658 298.863H244C243.801 298.863 243.639 298.701 243.639 298.501V243.762C243.639 243.563 243.801 243.401 244 243.401C244.2 243.401 244.361 243.563 244.361 243.762V298.14H406.297V61.8636H237.131C236.931 61.8636 236.77 61.7019 236.77 61.5021C236.77 61.3023 236.931 61.1406 237.131 61.1406H406.658C406.858 61.1406 407.019 61.3023 407.019 61.5021V298.501C407.019 298.701 406.858 298.863 406.658 298.863Z" fill="#FFABCD"/>
<path d="M89.971 263.239C86.1743 263.239 82.403 261.785 79.478 258.957L79.396 258.878C74.7973 254.457 68.974 252.223 63.4039 250.312C62.0679 249.854 60.6902 249.419 59.3581 248.998C55.9611 247.925 52.4483 246.816 49.2379 245.206C36.9145 239.027 28.5634 227.778 26.3258 214.345C25.2282 207.757 25.6952 200.885 27.676 194.471C29.7759 187.673 33.4348 181.579 38.5512 176.358C46.1615 168.593 56.145 163.774 66.662 162.789C77.1834 161.805 87.6446 164.711 96.119 170.975C109.208 180.65 114.991 194.035 113.308 210.758C113.191 211.916 113.067 213.074 112.942 214.232C112.649 216.95 112.345 219.761 112.161 222.53C111.939 225.869 112.167 229.168 112.86 232.615C113.237 234.491 113.785 236.365 114.489 238.186C116.616 243.692 114.555 250.048 109.589 253.301L98.1636 260.783C95.6453 262.431 92.801 263.239 89.971 263.239ZM70.691 163.293C59.2871 163.293 47.852 167.9 39.0665 176.865C29.1521 186.98 24.7678 200.598 27.0377 214.226C29.2368 227.429 37.4464 238.485 49.5611 244.56C52.7203 246.144 56.2049 247.244 59.5749 248.309C60.9114 248.731 62.2932 249.168 63.6374 249.629C69.284 251.565 75.1908 253.834 79.8954 258.357L79.9799 258.438C84.8404 263.137 92.1552 263.853 97.7679 260.177L109.193 252.696C113.876 249.629 115.82 243.636 113.815 238.447C113.096 236.588 112.537 234.674 112.152 232.758C111.446 229.247 111.214 225.886 111.44 222.482C111.626 219.699 111.93 216.88 112.223 214.155C112.348 212.998 112.473 211.842 112.589 210.686C114.244 194.234 108.559 181.07 95.6896 171.557C88.1854 166.01 79.4472 163.293 70.691 163.293Z" fill="white"/>
<path d="M94.0611 251.914C93.9434 251.914 93.8279 251.856 93.7586 251.75L76.8281 225.83C75.4329 226.283 73.9578 226.512 72.4735 226.5C64.5563 226.442 58.7698 223.898 57.3724 219.859C56.6472 217.763 56.9187 214.606 58.8499 212.882C60.3576 211.536 62.7081 211.154 65.299 211.833C67.8276 212.497 70.0416 214.119 71.5329 216.402L77.1237 224.961C78.0265 224.625 78.8934 224.188 79.71 223.653L81.1236 222.727C81.2903 222.618 81.5139 222.665 81.6235 222.832C81.7327 222.999 81.6858 223.223 81.519 223.332L80.1052 224.258C79.2893 224.792 78.426 225.235 77.5283 225.581L94.3627 251.354C94.472 251.521 94.4251 251.745 94.258 251.854C94.1974 251.895 94.1288 251.914 94.0611 251.914ZM62.8999 212.234C61.4654 212.234 60.205 212.641 59.3303 213.422C57.6323 214.938 57.4059 217.748 58.0545 219.623C59.3489 223.363 64.8759 225.722 72.4785 225.777C73.8268 225.785 75.152 225.591 76.4175 225.201L70.9285 216.798C69.5355 214.665 67.4711 213.151 65.1158 212.533C64.3519 212.332 63.6048 212.234 62.8999 212.234Z" fill="white"/>
<path d="M101.431 247.088C101.313 247.088 101.198 247.03 101.128 246.924L84.2938 221.151C83.6168 221.836 82.8659 222.451 82.0502 222.985L80.6367 223.91C80.4699 224.019 80.2461 223.973 80.137 223.806C80.0278 223.639 80.0747 223.415 80.2417 223.305L81.6552 222.379C82.4719 221.845 83.2199 221.225 83.8893 220.531L78.2985 211.972C76.8074 209.689 76.2101 207.008 76.6166 204.422C77.0332 201.774 78.3252 199.77 80.1611 198.927C82.513 197.846 85.5107 198.863 87.1375 200.368C90.2724 203.269 90.2813 209.596 87.1606 216.882C86.5726 218.255 85.7759 219.51 84.8021 220.608L101.733 246.528C101.842 246.695 101.795 246.919 101.628 247.028C101.567 247.069 101.498 247.088 101.431 247.088ZM82.3373 199.194C81.6918 199.194 81.0528 199.313 80.4622 199.584C78.8737 200.314 77.7025 202.165 77.3297 204.535C76.9511 206.943 77.5095 209.444 78.9026 211.577L84.3915 219.98C85.2556 218.975 85.9661 217.838 86.497 216.598C89.4935 209.602 89.5513 203.586 86.6475 200.899C85.6077 199.938 83.9521 199.194 82.3373 199.194Z" fill="white"/>
<path d="M110.921 292.815C109.586 292.815 108.275 292.163 107.491 290.963L104.328 286.12C104.276 286.04 104.258 285.942 104.277 285.848C104.297 285.754 104.353 285.672 104.433 285.62L128.452 269.891C128.619 269.782 128.843 269.829 128.952 269.996L132.115 274.838C132.713 275.754 132.919 276.848 132.695 277.918C132.472 278.989 131.845 279.909 130.93 280.507L113.153 292.149C112.465 292.6 111.689 292.815 110.921 292.815ZM105.13 286.027L108.096 290.567C109.112 292.123 111.204 292.562 112.759 291.544L130.535 279.903C131.288 279.41 131.805 278.652 131.989 277.77C132.173 276.889 132.003 275.988 131.511 275.234L128.545 270.694L105.13 286.027Z" fill="white"/>
<path d="M121.425 254.49L93.1328 273.016L104.697 290.721L132.989 272.195L121.425 254.49Z" fill="white"/>
<path d="M125.598 255.549L92.4458 277.258C90.7765 278.351 88.5384 277.883 87.4466 276.211L81.859 267.657C80.7672 265.985 81.2354 263.744 82.9047 262.651L116.057 240.942C117.726 239.849 119.965 240.317 121.056 241.989L126.644 250.543C127.735 252.215 127.267 254.456 125.598 255.549Z" fill="white"/>
<path d="M38.7778 162.318C38.6637 162.318 38.5515 162.264 38.4812 162.163L19.9478 135.564C19.8337 135.401 19.8737 135.175 20.0373 135.061C20.2015 134.947 20.426 134.987 20.5399 135.151L39.0733 161.75C39.1874 161.914 39.1474 162.139 38.9838 162.253C38.921 162.297 38.849 162.318 38.7778 162.318Z" fill="#FFABCD"/>
<path d="M46.5997 162.935C46.5788 162.935 46.5574 162.933 46.5359 162.929C46.3398 162.894 46.2088 162.706 46.244 162.51L50.6547 137.712C50.6898 137.516 50.8764 137.384 51.0735 137.42C51.2697 137.455 51.4006 137.643 51.3654 137.839L46.9547 162.637C46.9234 162.812 46.7711 162.935 46.5997 162.935Z" fill="#FFABCD"/>
<path d="M36.6549 169.882C36.6339 169.882 36.6125 169.88 36.5911 169.876L11.825 165.459C11.6288 165.425 11.4979 165.237 11.533 165.04C11.5682 164.844 11.755 164.713 11.9518 164.748L36.7179 169.164C36.9141 169.199 37.045 169.387 37.0099 169.583C36.9788 169.758 36.8265 169.882 36.6549 169.882Z" fill="#FFABCD"/>
<path d="M344.827 357.56C344.652 357.56 344.502 357.434 344.471 357.262L338.505 323.499C338.487 323.393 338.516 323.285 338.584 323.203C338.653 323.121 338.754 323.074 338.861 323.074H377.535C377.695 323.074 377.836 323.18 377.881 323.334L384.402 345.62C385.212 348.392 384.691 351.311 382.971 353.63C381.251 355.949 378.61 357.291 375.725 357.314L344.83 357.56C344.829 357.56 344.828 357.56 344.827 357.56ZM339.292 323.797L345.129 356.835L375.719 356.591C378.376 356.57 380.807 355.334 382.391 353.199C383.976 351.064 384.456 348.376 383.709 345.824L377.265 323.797L339.292 323.797Z" fill="white"/>
<path d="M267.352 357.562C266.28 357.562 265.382 356.9 265.063 355.874C264.743 354.845 265.11 353.787 265.998 353.178L291.917 335.403C291.977 335.362 292.048 335.34 292.121 335.34H325.658C325.818 335.34 325.959 335.446 326.004 335.6L330.161 349.808C330.689 351.615 330.35 353.518 329.228 355.03C328.107 356.541 326.385 357.416 324.505 357.431C321.229 357.457 306.74 357.484 292.728 357.509C283.197 357.526 273.653 357.544 267.359 357.561C267.357 357.562 267.354 357.562 267.352 357.562ZM292.233 336.063L266.406 353.775C265.653 354.291 265.575 355.087 265.752 355.659C265.93 356.23 266.443 356.839 267.352 356.839C267.354 356.839 267.355 356.839 267.357 356.839C273.651 356.821 283.195 356.804 292.726 356.786C306.737 356.761 321.225 356.734 324.499 356.709C326.151 356.695 327.663 355.927 328.648 354.599C329.634 353.271 329.932 351.599 329.468 350.012L325.387 336.063H292.233Z" fill="white"/>
<path d="M326.786 342.035C326.777 342.035 326.768 342.034 326.759 342.034L288.183 339.255C288.087 339.248 287.997 339.203 287.935 339.13C287.872 339.056 287.841 338.962 287.849 338.865L300.893 175.749C300.904 175.605 301.001 175.481 301.138 175.435L341.935 161.819C342.051 161.781 342.178 161.803 342.273 161.878C342.368 161.954 342.419 162.072 342.409 162.193L327.145 341.703C327.129 341.892 326.971 342.035 326.786 342.035ZM288.597 338.56L326.456 341.287L341.643 162.679L301.593 176.046L288.597 338.56Z" fill="white"/>
<path d="M198.833 357.506C198.829 357.506 198.826 357.506 198.822 357.506L164.911 357.432C161.359 357.425 158.006 356.049 155.469 353.559C152.933 351.07 151.493 347.741 151.414 344.185L151.6 337.829L188.05 333.625L190.327 339.205C190.712 340.148 191.323 340.998 192.093 341.664L201.649 349.913C203.052 351.124 203.522 352.957 202.874 354.695C202.229 356.429 200.68 357.506 198.833 357.506ZM152.303 338.476L152.136 344.187C152.291 351.186 157.903 356.694 164.912 356.709L198.824 356.783C198.827 356.783 198.83 356.783 198.833 356.783C200.671 356.783 201.776 355.574 202.198 354.442C202.62 353.308 202.574 351.666 201.178 350.461L191.622 342.211C190.765 341.472 190.087 340.527 189.659 339.479L187.588 334.406L152.303 338.476Z" fill="white"/>
<path d="M152.31 345.795C152.117 345.795 151.957 345.642 151.949 345.447C151.942 345.248 152.097 345.08 152.297 345.072C159.004 344.815 165.778 344.254 172.43 343.402C177.557 342.746 182.728 341.904 187.8 340.898C187.995 340.859 188.186 340.986 188.224 341.182C188.263 341.378 188.136 341.568 187.941 341.607C182.852 342.616 177.665 343.461 172.522 344.12C165.848 344.973 159.052 345.537 152.324 345.795C152.319 345.795 152.315 345.795 152.31 345.795Z" fill="white"/>
<path d="M129.083 357.505C129.038 357.505 128.994 357.504 128.95 357.503C123.304 357.344 117.518 357.341 111.923 357.338C106.324 357.335 100.536 357.332 94.8819 357.173C91.372 357.074 88.0822 355.498 85.6186 352.734C83.2433 350.069 81.8887 346.506 81.9024 342.957L81.9046 342.919L82.3737 338.576L118.793 333.336L120.931 338.988C121.292 339.941 121.88 340.807 122.633 341.492L131.972 349.987C133.344 351.234 133.765 353.077 133.074 354.798C132.398 356.477 130.877 357.505 129.083 357.505ZM82.6245 342.978C82.6067 350.096 88.2254 356.263 94.9021 356.451C100.546 356.609 106.329 356.612 111.923 356.615C117.523 356.619 123.314 356.621 128.97 356.781C130.822 356.828 131.953 355.651 132.404 354.528C132.855 353.405 132.852 351.763 131.487 350.522L122.148 342.027C121.311 341.266 120.657 340.303 120.256 339.244L118.323 334.134L83.0317 339.212L82.6245 342.978Z" fill="white"/>
<path d="M82.7554 345.017C82.5647 345.017 82.4054 344.867 82.395 344.674C82.3845 344.475 82.5373 344.305 82.7363 344.294C89.4384 343.938 96.2032 343.277 102.843 342.328C107.959 341.597 113.117 340.679 118.175 339.598C118.37 339.556 118.562 339.681 118.603 339.876C118.645 340.071 118.521 340.263 118.326 340.305C113.252 341.389 108.077 342.31 102.945 343.044C96.284 343.996 89.4976 344.659 82.7746 345.016C82.7681 345.016 82.7619 345.017 82.7554 345.017Z" fill="white"/>
<path d="M133.21 150.353C126.602 175.095 119.941 199.827 113.228 224.547C102.806 262.927 92.2602 301.274 81.5898 339.59C94.2636 338.293 106.937 336.996 119.611 335.699C136.633 275.492 153.655 215.285 170.677 155.077C163.98 151.553 157.284 148.028 150.588 144.504C144.795 146.454 139.002 148.404 133.21 150.353Z" fill="#FFABCD"/>
<path d="M183.446 152.578C185.204 213.249 186.961 273.919 188.719 334.59C176.323 336.072 163.927 337.554 151.53 339.036C150.142 279.292 148.755 219.547 147.367 159.803C149.584 157.511 153.696 153.905 159.856 151.745C170.946 147.854 180.687 151.448 183.446 152.578Z" fill="#FFABCD"/>
<path d="M185.778 161.764C185.767 161.764 185.756 161.763 185.744 161.762L175.298 160.804C175.194 160.794 175.098 160.739 175.037 160.654C174.976 160.568 174.955 160.46 174.98 160.358L176.402 154.492L172.556 160.636C172.486 160.749 172.359 160.815 172.226 160.804L127.336 157.688C127.219 157.68 127.113 157.615 127.052 157.515C126.992 157.414 126.983 157.29 127.03 157.183L136.248 136.088C136.312 135.94 136.465 135.853 136.627 135.874L190.614 143.186C190.717 143.2 190.809 143.257 190.866 143.343C190.924 143.43 190.941 143.537 190.914 143.637L186.126 161.496C186.083 161.655 185.939 161.764 185.778 161.764ZM175.781 160.122L185.508 161.015L190.111 143.847L136.8 136.627L127.897 157.002L172.06 160.068L176.972 152.221C177.066 152.07 177.255 152.011 177.419 152.08C177.582 152.149 177.671 152.326 177.629 152.498L175.781 160.122Z" fill="white"/>
<path d="M261.479 155.293H249.052L243.75 132.082L254.385 130.941L254.507 131.068C256.953 133.598 261.183 138.982 262.029 146.622C262.336 149.401 262.173 152.224 261.543 155.011L261.479 155.293ZM249.628 154.57H260.901C261.461 151.952 261.599 149.307 261.311 146.701C260.503 139.4 256.508 134.211 254.11 131.698L244.635 132.714L249.628 154.57Z" fill="white"/>
<path d="M205.798 147.852C205.787 147.852 205.775 147.852 205.764 147.851L195.562 146.901C195.392 146.885 195.256 146.751 195.237 146.581C194.874 143.36 195.078 140.172 195.844 137.104C197.936 128.717 203.653 123.538 206.875 121.198C206.966 121.132 207.083 121.112 207.191 121.144L214.732 123.422C214.828 123.451 214.907 123.518 214.952 123.607C214.996 123.697 215.002 123.801 214.967 123.894L206.136 147.617C206.083 147.759 205.947 147.852 205.798 147.852ZM195.923 146.208L205.556 147.105L214.156 124.003L207.155 121.889C203.989 124.219 198.551 129.238 196.544 137.28C195.823 140.17 195.614 143.173 195.923 146.208Z" fill="white"/>
<path d="M228.164 161.237C225.578 161.237 223.471 159.554 223.013 159.16L209.949 149.158C209.235 148.611 208.388 148.25 207.5 148.113L205.516 147.808L205.531 147.483C205.675 144.37 206.163 141.279 206.98 138.295C208.437 132.972 210.915 128.01 214.344 123.548L214.507 123.336L225.378 127.418L225.438 127.488L248.31 154.246L248.254 154.434C248.118 154.895 247.762 155.752 246.909 156.312C245.803 157.038 244.318 156.999 243.052 156.235C242.586 156.696 242.065 157.088 241.5 157.404C239.934 158.281 238.364 158.395 237.246 158.311C237.129 158.562 236.984 158.791 236.814 158.997C235.334 160.785 232.387 160.29 231.589 160.115C230.999 160.54 230.36 160.848 229.689 161.033C229.169 161.176 228.657 161.237 228.164 161.237ZM206.268 147.192L207.61 147.399C208.617 147.554 209.578 147.964 210.388 148.584L223.468 158.599C223.98 159.04 226.603 161.131 229.497 160.336C230.133 160.161 230.736 159.859 231.29 159.437L231.428 159.332L231.597 159.375C231.73 159.408 234.893 160.184 236.258 158.535C236.434 158.323 236.574 158.076 236.676 157.801L236.774 157.538L237.053 157.568C238.076 157.677 239.617 157.629 241.148 156.772C241.734 156.444 242.268 156.024 242.736 155.523L242.95 155.294L243.207 155.474C244.266 156.216 245.595 156.31 246.513 155.707C247.075 155.339 247.361 154.792 247.501 154.412L224.95 128.029L214.754 124.201C211.466 128.533 209.085 133.338 207.676 138.486C206.901 141.315 206.428 144.242 206.268 147.192Z" fill="white"/>
<path d="M242.998 156.134C242.914 156.134 242.83 156.105 242.762 156.046L229.355 144.42C229.204 144.289 229.188 144.061 229.319 143.91C229.449 143.759 229.677 143.743 229.828 143.873L243.235 155.5C243.386 155.63 243.402 155.859 243.271 156.009C243.2 156.092 243.099 156.134 242.998 156.134Z" fill="white"/>
<path d="M197.916 148.995C197.899 148.995 197.883 148.994 197.866 148.991L139.874 141.04C133.842 140.213 128.636 136.454 125.947 130.985C123.258 125.517 123.457 119.093 126.48 113.802L146.898 78.0681C149.594 73.3506 153.648 69.7081 158.624 67.5347C163.599 65.361 169.024 64.8624 174.311 66.0926L185.266 68.6413C185.426 68.6786 185.541 68.8206 185.545 68.9859L186.421 111.622L200.533 78.4744C200.575 78.3754 200.66 78.3002 200.763 78.2696C200.866 78.2388 200.977 78.2559 201.067 78.3159C204.269 80.4679 206.607 83.1693 208.018 86.3453C209.916 90.616 209.485 94.5181 209.069 98.2917L209.005 98.8765C208.234 105.976 207.827 113.554 207.795 121.4C207.795 121.473 207.773 121.543 207.732 121.603C204.977 125.626 202.768 130.002 201.169 134.608C199.595 139.143 198.621 143.87 198.275 148.659C198.268 148.759 198.22 148.851 198.143 148.914C198.078 148.967 197.998 148.995 197.916 148.995ZM168.55 66.1507C159.972 66.1507 151.948 70.686 147.525 78.4275L127.107 114.162C124.203 119.243 124.012 125.413 126.595 130.666C129.178 135.919 134.179 139.529 139.972 140.323L197.585 148.223C197.958 143.503 198.935 138.844 200.487 134.371C202.096 129.739 204.311 125.337 207.074 121.287C207.109 113.455 207.517 105.89 208.287 98.7987L208.352 98.2124C208.757 94.5344 209.177 90.7312 207.359 86.6395C206.057 83.7099 203.927 81.1966 201.025 79.1639L186.427 113.452C186.36 113.609 186.193 113.697 186.026 113.665C185.859 113.633 185.737 113.488 185.734 113.318L184.829 69.2818L174.148 66.7965C172.277 66.3618 170.4 66.1507 168.55 66.1507Z" fill="white"/>
<path d="M237.133 158.288C237.06 158.288 236.986 158.266 236.922 158.22L223.634 148.631C223.473 148.515 223.436 148.289 223.552 148.127C223.669 147.965 223.895 147.928 224.056 148.045L237.344 157.633C237.506 157.75 237.542 157.976 237.426 158.138C237.355 158.236 237.245 158.288 237.133 158.288Z" fill="white"/>
<path d="M231.868 160.208C231.798 160.208 231.727 160.188 231.665 160.146L219.275 151.696C219.11 151.583 219.068 151.358 219.18 151.193C219.292 151.028 219.517 150.985 219.681 151.098L232.071 159.548C232.236 159.66 232.278 159.885 232.166 160.05C232.096 160.153 231.983 160.208 231.868 160.208Z" fill="white"/>
<path d="M162.318 111.183C162.285 111.183 162.251 111.179 162.217 111.169C162.025 111.113 161.916 110.912 161.972 110.72L166.52 95.139C166.576 94.9475 166.777 94.8376 166.968 94.8935C167.16 94.9494 167.27 95.1501 167.214 95.342L162.665 110.923C162.619 111.081 162.475 111.183 162.318 111.183Z" fill="white"/>
<path d="M196.674 119.098C196.644 119.098 196.613 119.094 196.583 119.086C196.39 119.036 196.274 118.839 196.324 118.645L199.137 107.798C199.187 107.605 199.384 107.488 199.577 107.539C199.77 107.589 199.886 107.787 199.836 107.98L197.023 118.827C196.981 118.99 196.834 119.098 196.674 119.098Z" fill="white"/>
<path d="M204.096 120.892C204.069 120.892 204.042 120.889 204.015 120.883L156.491 109.976C156.297 109.931 156.176 109.737 156.22 109.542C156.265 109.348 156.459 109.227 156.653 109.271L204.176 120.178C204.37 120.222 204.492 120.416 204.447 120.611C204.409 120.778 204.26 120.892 204.096 120.892Z" fill="white"/>
<path d="M200.481 75.6913L200.256 75.6742C198.61 75.5499 196.971 75.2739 195.385 74.8541C191.555 73.8403 188.005 72.0021 184.834 69.3903L184.273 68.929L184.978 68.7594C186.751 68.3331 188.404 67.6238 189.893 66.6507C194.369 63.724 196.145 59.2168 196.805 56.7906L196.976 56.1602L206.098 66.0659L200.481 75.6913ZM185.848 69.2784C188.795 71.5876 192.062 73.227 195.57 74.1553C197.041 74.5447 198.559 74.8069 200.086 74.9353L205.206 66.1632L197.321 57.6015C196.513 60.2196 194.603 64.4344 190.288 67.2563C188.928 68.1453 187.437 68.8237 185.848 69.2784Z" fill="white"/>
<path d="M206.01 47.6608C205.311 48.4146 204.612 49.1935 203.915 49.9981C200.561 53.871 197.761 57.7586 195.416 61.5044C194.559 60.4417 191.983 56.972 192.064 52.0359C192.188 44.487 198.413 40.3141 199.007 39.9302C205.373 35.8188 213.902 37.4095 218.16 41.6082C219.055 42.4907 221.137 44.5422 220.973 47.4213C220.759 51.191 216.968 53.2545 216.664 53.4141C216.624 52.2154 216.584 51.017 216.544 49.8183C214.478 49.9106 211.7 49.7583 208.644 48.7397C207.673 48.416 206.795 48.0454 206.01 47.6608Z" fill="white"/>
<path d="M197.036 78.702C196.614 79.1707 196.194 79.638 195.773 80.1067C195.047 80.9152 194.319 81.724 193.593 82.5322C193.033 83.1552 192.71 83.9555 192.68 84.7932C192.511 89.5158 192.343 94.2376 192.174 98.9602C190.184 103.654 188.193 108.347 186.202 113.041L185.953 98.5958C187.157 96.1771 188.351 93.3761 189.374 90.2083C190.155 87.792 190.725 85.5096 191.143 83.4152C191.242 82.9214 191.256 82.4151 191.186 81.9163C191.065 81.0526 190.944 80.1894 190.823 79.3252C190.659 78.1591 190.496 76.9915 190.332 75.8254C191.459 74.966 192.586 74.1067 193.713 73.2461C194.148 73.5266 194.617 73.789 195.121 74.0276C195.285 74.1054 195.448 74.1775 195.609 74.2445V74.2457C195.726 74.2949 195.842 74.3416 195.958 74.386C196.317 75.8242 196.676 77.2626 197.036 78.702Z" fill="white"/>
<path d="M195.836 82.6616C195.773 82.6616 195.71 82.6454 195.654 82.6127C195.53 82.5404 195.461 82.4015 195.477 82.2589C195.623 80.9882 195.681 79.696 195.649 78.4185C195.622 77.3635 195.534 76.3024 195.386 75.2532C194.626 76.3702 193.768 77.4209 192.827 78.3862C191.836 79.4047 190.743 80.337 189.579 81.1576C189.498 81.2149 189.397 81.2359 189.299 81.2161C189.201 81.1961 189.117 81.1369 189.064 81.052L184.994 74.4599C184.96 74.4052 184.942 74.3425 184.94 74.2782L184.82 69.122C184.817 68.9543 184.93 68.8068 185.093 68.7656C185.601 68.6364 186.113 68.4788 186.614 68.2969C187.337 68.0345 188.047 67.7188 188.723 67.3587C188.81 67.3122 188.912 67.3038 189.006 67.3346C189.1 67.3657 189.176 67.4342 189.219 67.5236C189.826 68.8124 191.242 71.2304 193.904 72.9448C194.336 73.2231 194.795 73.4783 195.271 73.7034C195.43 73.7788 195.587 73.8485 195.744 73.9133C195.753 73.9169 195.761 73.921 195.769 73.9254C195.875 73.969 195.979 74.0109 196.083 74.0507C197.408 74.5611 198.817 74.8356 200.272 74.8674C200.441 74.871 200.585 74.9917 200.618 75.158L200.636 75.2479C200.859 76.3728 201.016 77.5264 201.103 78.6774C201.112 78.8019 201.057 78.9227 200.956 78.9964L196.048 82.5922C195.986 82.6382 195.911 82.6616 195.836 82.6616ZM196.051 74.81C196.233 75.9978 196.341 77.2028 196.37 78.4002C196.396 79.4401 196.365 80.4893 196.276 81.5297L200.368 78.5318C200.286 77.5413 200.151 76.5504 199.966 75.5805C198.612 75.5221 197.298 75.2636 196.051 74.81ZM185.66 74.163L189.475 80.3423C190.486 79.6032 191.439 78.7766 192.311 77.8814C193.343 76.8218 194.273 75.6556 195.079 74.4109C195.04 74.3931 195.001 74.375 194.963 74.3567C194.459 74.1184 193.971 73.8475 193.514 73.5526C190.918 71.8816 189.446 69.5818 188.73 68.1687C188.126 68.4738 187.498 68.7449 186.861 68.9765C186.428 69.1334 185.988 69.2729 185.549 69.3931L185.66 74.163Z" fill="white"/>
<path d="M252.665 155.174H247.384L227.681 132.594C226.591 133.797 222.758 137.634 218.952 136.46C218.488 136.317 217.402 135.982 216.941 135.081C215.901 133.05 218.715 129.133 225.305 123.439C226.458 122.443 228.157 122.322 229.435 123.147L243.225 132.038H244.661L244.76 132.241C245.701 134.17 246.59 136.153 247.403 138.135C249.591 143.474 251.329 149.059 252.569 154.736L252.665 155.174ZM247.712 154.451H251.767C250.543 148.966 248.851 143.572 246.735 138.409C245.957 136.512 245.108 134.612 244.21 132.761H243.013L229.044 123.755C228.032 123.103 226.689 123.198 225.777 123.987C217.51 131.129 217.095 133.797 217.584 134.752C217.906 135.381 218.788 135.653 219.164 135.769C222.562 136.818 226.127 133.233 227.139 132.109C227.277 131.955 227.465 131.863 227.683 131.869C227.89 131.871 228.088 131.962 228.225 132.119L247.712 154.451Z" fill="white"/>
<path d="M144.935 246.654C144.905 246.654 144.873 246.649 144.842 246.641C144.65 246.59 144.535 246.392 144.586 246.199L158.256 194.859C158.307 194.665 158.506 194.55 158.698 194.602C158.891 194.654 159.005 194.852 158.954 195.045L145.284 246.385C145.241 246.547 145.095 246.654 144.935 246.654Z" fill="white"/>
<path d="M382.569 341.478C382.567 341.478 382.566 341.478 382.564 341.478L341.767 340.923C341.592 340.92 341.443 340.792 341.416 340.618L311.907 157.023C311.891 156.922 311.918 156.818 311.983 156.738C312.048 156.658 312.143 156.61 312.246 156.605L356.151 154.45C356.335 154.439 356.5 154.575 356.526 154.76L382.926 341.066C382.941 341.17 382.91 341.276 382.84 341.355C382.771 341.433 382.673 341.478 382.569 341.478ZM342.08 340.204L382.152 340.75L355.858 155.188L312.684 157.307L342.08 340.204Z" fill="white"/>
<path d="M292.918 105.789L252.559 131.319C253.582 135.696 254.576 140.176 255.533 144.755C256.414 148.971 257.233 153.121 257.994 157.201C272.319 154.786 286.645 152.371 300.971 149.956L292.918 105.789Z" fill="#FFABCD"/>
<path d="M295.596 80.9157C295.565 80.9157 295.533 80.9116 295.503 80.9034C295.408 80.8781 295.328 80.8154 295.28 80.7296L288.873 69.1765C288.79 69.0266 288.824 68.8392 288.953 68.7274L298.916 60.1304C298.997 60.0605 299.105 60.0304 299.212 60.0478C299.317 60.0656 299.41 60.1295 299.464 60.2222C300.908 62.7027 302.714 64.9506 304.831 66.9036C306.63 68.5632 308.643 69.9976 310.814 71.1668C310.929 71.2283 311.001 71.3466 311.005 71.4765C311.008 71.6064 310.941 71.7279 310.83 71.7949L295.782 80.8639C295.725 80.8981 295.661 80.9157 295.596 80.9157ZM289.648 69.0828L295.73 80.0515L309.92 71.4989C307.906 70.3593 306.031 68.9944 304.341 67.4349C302.278 65.5319 300.503 63.3548 299.061 60.9597L289.648 69.0828Z" fill="white"/>
<path d="M293.562 87.5824L290.756 96.6986C287.607 106.927 286.175 117.607 286.519 128.304C289.11 147.667 291.701 167.031 294.292 186.394C308.685 186.161 326.063 184.458 345.166 179.442C353.016 177.382 360.246 175.001 366.833 172.491C363.561 156.747 360.289 141.004 357.017 125.26C343.45 107.643 329.884 90.0267 316.317 72.4102C308.732 77.4677 301.147 82.525 293.562 87.5824Z" fill="#FFABCD"/>
<path d="M353.879 172.862L327.253 198.035C326.049 199.173 324.152 199.118 323.015 197.913L282.646 155.107C281.51 153.901 281.564 152.001 282.768 150.863L309.393 125.69C310.597 124.552 312.495 124.607 313.632 125.812L354 168.618C355.137 169.824 355.083 171.724 353.879 172.862Z" fill="white"/>
<path d="M312.569 189.192C311.492 189.192 310.437 188.751 309.709 187.927C308.824 186.925 308.548 185.551 308.926 184.295C308.201 184.518 307.129 184.668 306.12 184.128C304.669 183.351 303.977 181.511 304.337 179.712C303.196 180.226 301.805 180.014 300.87 179.078C300.288 178.495 299.967 177.715 299.967 176.883C299.967 176.39 300.079 175.916 300.291 175.491C299.423 175.546 298.559 175.252 297.926 174.652C296.931 173.711 296.673 172.17 297.297 170.905C297.322 170.853 297.359 170.809 297.405 170.775L303.069 166.562C299.4 166.29 292.856 165.332 292.084 161.965C292.009 161.639 291.906 161.192 292.098 160.679C292.733 158.976 295.571 159.045 299.87 159.15C304.107 159.253 309.909 159.394 316.101 157.861C318.107 157.364 320.492 156.615 322.964 154.832C325.037 153.337 326.77 151.405 328.113 149.09C328.173 148.987 328.28 148.92 328.399 148.911C328.521 148.904 328.634 148.953 328.708 149.046L341.805 165.484C341.915 165.622 341.909 165.821 341.789 165.953C337.238 170.953 332.259 175.627 326.991 179.844C322.996 183.042 318.764 186.033 314.412 188.734C313.83 189.043 313.196 189.192 312.569 189.192ZM309.61 183.262C309.705 183.262 309.798 183.3 309.868 183.371C309.982 183.487 310.004 183.666 309.922 183.806C309.234 184.983 309.366 186.447 310.25 187.448C311.183 188.505 312.783 188.782 314.052 188.106C318.359 185.432 322.567 182.458 326.54 179.278C331.698 175.149 336.578 170.579 341.047 165.693L328.468 149.904C327.113 152.108 325.405 153.961 323.386 155.418C320.814 157.274 318.348 158.049 316.274 158.562C309.988 160.119 304.13 159.976 299.852 159.872C296.007 159.779 293.229 159.711 292.774 160.931C292.659 161.241 292.724 161.526 292.788 161.803C293.39 164.431 299.023 165.643 304.095 165.902C304.247 165.909 304.378 166.012 304.422 166.158C304.466 166.304 304.414 166.462 304.292 166.553L297.908 171.301C297.469 172.269 297.675 173.42 298.422 174.126C299.091 174.76 300.101 174.948 300.996 174.605C301.154 174.545 301.335 174.603 301.428 174.746C301.521 174.89 301.501 175.078 301.38 175.199C300.935 175.645 300.689 176.243 300.689 176.883C300.689 177.522 300.935 178.12 301.38 178.566C302.308 179.495 303.816 179.494 304.744 178.566C304.866 178.443 305.06 178.425 305.204 178.524C305.347 178.623 305.399 178.811 305.328 178.97C304.453 180.919 305.234 182.834 306.46 183.49C307.795 184.204 309.369 183.345 309.435 183.308C309.49 183.277 309.55 183.262 309.61 183.262Z" fill="white"/>
<path d="M336.913 172.201L320.469 154.921L320.77 154.674C321.844 153.794 322.901 152.864 323.911 151.911C325.498 150.413 327.019 148.81 328.432 147.146L328.592 146.957L328.826 147.038C333.229 148.574 339.367 151.734 343.601 158.07C344.615 159.588 345.476 161.228 346.161 162.947L346.251 163.172L336.913 172.201ZM321.528 154.985L336.934 171.176L345.399 162.991C344.749 161.4 343.942 159.882 343.001 158.472C338.951 152.412 333.101 149.331 328.821 147.803C327.436 149.42 325.952 150.978 324.406 152.437C323.478 153.313 322.511 154.169 321.528 154.985Z" fill="white"/>
<path d="M312.379 71.1458C316.913 70.285 324.114 69.6167 331.932 72.2538C340.616 75.1835 346.312 80.9269 353.883 90.7232C359.887 98.4923 367.407 109.245 374.983 123.168C377.971 128.66 376.876 135.482 372.321 139.76C361.932 149.518 351.544 159.276 341.155 169.034C335.683 162.015 330.21 154.997 324.738 147.979L346.32 126C337.22 116.334 328.12 106.669 319.02 97.0028L312.379 71.1458Z" fill="#FFABCD"/>
<path d="M293.973 90.1809C293.923 90.1809 293.872 90.1705 293.825 90.1496C293.706 90.0963 293.625 89.9828 293.613 89.8527L292.728 80.2094C292.717 80.0845 292.771 79.9628 292.871 79.8874L309.301 67.5024C309.453 67.388 309.666 67.4111 309.79 67.554C311.666 69.7145 314.831 73.4061 314.952 73.8553C315.034 74.1558 315.056 74.2368 311.653 76.8985C309.945 78.234 307.555 80.0636 304.55 82.3366C299.436 86.2056 294.24 90.071 294.188 90.1095C294.124 90.1565 294.049 90.1809 293.973 90.1809ZM293.466 80.3436L294.273 89.1451C301.892 83.473 312.81 75.2359 314.168 73.9187C313.627 73.142 311.159 70.2374 309.466 68.2825L293.466 80.3436Z" fill="white"/>
<path d="M341.154 169.393C341.145 169.393 341.136 169.393 341.126 169.392C341.025 169.384 340.932 169.334 340.87 169.254L324.453 148.199C324.341 148.056 324.353 147.852 324.48 147.723L343.143 128.717C344.643 127.189 344.669 124.771 343.201 123.213L318.756 97.2488C318.62 97.1035 318.626 96.8748 318.771 96.738C318.917 96.6008 319.145 96.6078 319.282 96.7531L343.726 122.717C345.462 124.56 345.431 127.418 343.658 129.224L325.217 148.004L341.196 168.497L372.073 139.495C376.508 135.329 377.579 128.694 374.677 123.36C368.409 111.838 361.316 100.931 353.597 90.9427C346.139 81.2922 340.458 75.51 331.816 72.5946C327.21 71.0407 322.261 70.4604 317.104 70.8694C316.908 70.8853 316.732 70.7366 316.716 70.5378C316.7 70.3387 316.849 70.1647 317.047 70.1488C322.3 69.7319 327.348 70.3245 332.047 71.9097C340.863 74.8837 346.623 80.738 354.168 90.5005C361.911 100.52 369.024 111.459 375.311 123.014C378.37 128.637 377.242 135.632 372.567 140.022L341.402 169.296C341.334 169.358 341.246 169.393 341.154 169.393Z" fill="white"/>
<path d="M301.056 175.428C300.952 175.428 300.848 175.382 300.777 175.295C300.651 175.14 300.674 174.912 300.828 174.786L309.926 167.355C310.08 167.228 310.308 167.252 310.434 167.407C310.56 167.561 310.537 167.789 310.382 167.915L301.284 175.346C301.217 175.401 301.137 175.428 301.056 175.428Z" fill="white"/>
<path d="M304.767 179.385C304.662 179.385 304.559 179.339 304.487 179.252C304.362 179.097 304.384 178.869 304.539 178.743L313.637 171.312C313.791 171.185 314.019 171.209 314.145 171.364C314.27 171.518 314.248 171.746 314.093 171.872L304.995 179.303C304.928 179.358 304.848 179.385 304.767 179.385Z" fill="white"/>
<path d="M309.553 184.056C309.448 184.056 309.344 184.011 309.273 183.923C309.147 183.769 309.17 183.541 309.324 183.415L318.422 175.984C318.576 175.857 318.804 175.881 318.93 176.035C319.056 176.19 319.033 176.418 318.878 176.544L309.78 183.975C309.714 184.03 309.633 184.056 309.553 184.056Z" fill="white"/>
<path d="M289.328 148.1C289.161 148.1 289.011 147.983 288.975 147.813C288.017 143.28 287.29 138.67 286.814 134.112C286.231 128.535 285.629 122.767 286.455 115.337C286.784 112.381 287.31 109.421 288.02 106.54C288.067 106.347 288.263 106.229 288.457 106.276C288.65 106.324 288.768 106.52 288.721 106.714C288.019 109.564 287.498 112.492 287.173 115.417C286.356 122.769 286.954 128.497 287.532 134.037C288.006 138.57 288.729 143.155 289.681 147.663C289.722 147.859 289.598 148.05 289.403 148.092C289.378 148.097 289.353 148.1 289.328 148.1Z" fill="white"/>
<path d="M298.739 60.9971C298.239 60.8657 297.738 60.7342 297.238 60.6028C297.096 59.7037 296.446 56.2779 293.581 54.4035C290.269 52.2365 285.151 52.898 281.324 56.4304C280.693 57.0136 279.755 57.1112 279.034 56.6439C278.413 56.2412 277.727 55.6604 277.156 54.8329C275.334 52.1941 276.159 49.1912 276.301 48.6777C277.36 44.8219 281.337 42.4344 284.917 42.1689C285.977 42.0901 286.937 42.2026 287.755 42.3906C289.086 42.6964 290.473 42.6884 291.804 42.387C297.32 41.1377 302.81 44.243 304.27 48.9333C305.612 53.2446 303.426 58.4995 298.739 60.9971Z" fill="white"/>
<path d="M288.72 74.5163C288.303 74.5163 287.883 74.4842 287.463 74.418C281.835 73.5326 278.177 66.9556 279.306 59.7571C279.851 56.2864 281.415 53.1854 283.71 51.025C286.029 48.8412 288.818 47.8758 291.561 48.3079C295.13 48.8696 298.066 51.7877 299.301 55.9659C300.678 55.4283 302.073 55.5948 303.019 56.432C304.543 57.781 304.402 60.442 302.705 62.3636C301.82 63.3666 300.66 64.0055 299.487 64.1452C298.09 70.2229 293.542 74.5163 288.72 74.5163ZM290.279 48.9306C288.145 48.9306 286.025 49.8377 284.204 51.5516C282.026 53.6026 280.54 56.5564 280.02 59.8692C278.951 66.6739 282.341 72.88 287.574 73.7037C287.958 73.7642 288.343 73.7936 288.725 73.7936C293.278 73.7941 297.586 69.611 298.839 63.7322C298.873 63.5722 299.01 63.455 299.173 63.4466C300.247 63.3912 301.337 62.8217 302.165 61.8845C303.598 60.2615 303.766 58.0587 302.541 56.9737C301.727 56.2542 300.457 56.1833 299.224 56.7889C299.128 56.8366 299.014 56.8383 298.915 56.7932C298.817 56.7484 298.744 56.6614 298.716 56.5568C297.63 52.4439 294.845 49.5567 291.449 49.0222C291.06 48.961 290.669 48.9306 290.279 48.9306Z" fill="white"/>
<path d="M300.034 54.3093C300.028 54.4553 299.82 57.7409 298.089 58.3812C295.303 59.4119 292.371 52.1792 288.104 52.6192C284.734 52.9667 283.989 57.746 280.838 57.6161C278.789 57.5317 276.701 55.4108 276.494 53.3776C276.087 49.364 282.852 44.078 289.306 44.5224C294.686 44.8928 297.926 49.1107 298.25 49.5505C299.011 50.5807 300.129 52.1414 300.034 54.3093Z" fill="white"/>
<path d="M299.322 61.4516C299.148 61.4516 298.995 61.3261 298.966 61.1487C298.933 60.9518 299.067 60.7658 299.263 60.7335C299.519 60.6916 300.164 60.5287 300.644 59.9259C301.098 59.3579 301.134 58.7302 301.129 58.4865C301.125 58.287 301.283 58.1217 301.483 58.1176C301.674 58.108 301.847 58.2718 301.851 58.4714C301.858 58.7936 301.809 59.6242 301.209 60.3771C300.572 61.1757 299.718 61.3914 299.38 61.4468C299.361 61.4502 299.341 61.4516 299.322 61.4516Z" fill="white"/>
<path d="M208.225 68.3982C204.079 68.3982 200.376 65.0186 198.952 59.9637C197.679 59.702 196.437 58.7392 195.665 57.4008C195.051 56.3354 194.784 55.1493 194.915 54.0607C195.051 52.9336 195.593 52.0427 196.441 51.5523C197.153 51.1409 198.008 51.058 198.883 51.3092C200.254 46.0981 203.969 42.625 208.225 42.625C213.671 42.625 218.102 48.406 218.102 55.5117C218.102 62.6174 213.671 68.3982 208.225 68.3982ZM197.91 51.8911C197.509 51.8911 197.133 51.987 196.802 52.1781C196.155 52.5522 195.74 53.2513 195.632 54.147C195.52 55.0813 195.753 56.1084 196.29 57.0391C197.001 58.2717 198.15 59.1332 199.288 59.2877L199.527 59.32L199.588 59.5528C200.879 64.4108 204.35 67.6747 208.225 67.6747C213.273 67.6747 217.38 62.2181 217.38 55.5112C217.38 48.8041 213.273 43.3475 208.225 43.3475C204.207 43.3475 200.696 46.7687 199.49 51.8608L199.393 52.2676L199.005 52.1133C198.632 51.9651 198.261 51.8911 197.91 51.8911Z" fill="white"/>
<path d="M198.469 57.6105C198.388 57.6105 198.306 57.583 198.239 57.5269C197.877 57.2254 197.397 56.7008 197.166 55.9127C196.734 54.4418 197.531 53.2002 197.696 52.9662C197.811 52.8031 198.036 52.7633 198.198 52.8783C198.362 52.993 198.401 53.2185 198.286 53.3817C198.156 53.568 197.52 54.5562 197.858 55.7089C198.039 56.3222 198.416 56.7338 198.701 56.9712C198.854 57.0989 198.875 57.3269 198.747 57.4801C198.676 57.5662 198.573 57.6105 198.469 57.6105Z" fill="white"/>
<path d="M199.006 46.284C199.388 45.3856 200.511 43.0897 203.076 41.6096C207.385 39.1236 211.937 41.1483 212.413 41.3698C213.542 45.0277 212.291 49.0095 209.301 51.3179C206.185 53.7235 201.808 53.8292 198.527 51.5577L199.006 46.284Z" fill="white"/>
</g>
<defs>
<clipPath id="clip0_3703_7931">
<rect width="466" height="401" fill="white"/>
</clipPath>
</defs>
</svg>
