<svg width="226" height="182" viewBox="0 0 226 182" fill="none" xmlns="http://www.w3.org/2000/svg">
<path d="M196.633 21.6889L197.733 20.4889H198.633V19.3889L198.933 18.9889H200.733L202.533 18.3889L204.133 16.5889L205.033 15.5889L205.533 15.9889L206.233 15.5889H206.633V14.4889L206.333 14.1889C206.333 13.8889 207.633 12.8889 207.633 12.8889L208.533 11.5889L208.733 11.0889L209.133 10.3889H210.133C210.133 10.3889 210.533 10.2889 210.533 10.0889C210.533 9.88889 210.833 9.48888 210.833 9.48888V7.58889C211.233 7.18889 211.433 6.88889 211.433 6.78889V6.1889L210.933 5.6889C210.733 5.3889 211.033 5.28889 211.033 5.28889L211.433 4.88889L211.933 4.28889C211.933 4.28889 211.833 3.88889 211.933 3.78889C212.033 3.58889 212.333 3.08889 212.333 3.08889C212.333 3.08889 212.233 2.58889 212.333 2.38889C212.433 2.18889 212.633 1.78889 212.633 1.78889C212.633 1.78889 212.633 1.2889 212.633 1.18889C212.633 0.988895 212.633 0.688895 212.633 0.688895V0.388892C213.333 0.288892 213.633 0.0888889 213.833 0.0888889H214.733C214.733 0.0888889 215.033 -0.111111 215.133 0.0888889C215.233 0.288889 215.733 0.288892 215.833 0.388892C215.933 0.488892 216.133 0.888895 216.133 1.18889C216.133 1.48889 216.133 1.98889 216.133 2.18889C216.133 2.3889 215.933 3.58889 215.933 3.58889L216.133 6.98888C216.133 6.98888 216.433 7.4889 216.133 7.6889C215.833 7.8889 215.633 8.4889 215.533 8.6889C215.433 8.9889 215.133 9.78889 215.133 9.78889C215.133 9.78889 215.133 10.3889 215.133 10.6889C215.133 10.9889 214.833 11.8889 214.833 11.8889C214.833 11.8889 214.533 12.4889 214.533 12.6889C214.533 12.8889 214.333 13.1889 214.533 13.3889C214.733 13.5889 214.833 14.0889 214.833 14.2889C214.833 14.4889 215.133 15.0889 215.133 15.0889V15.4889C215.133 15.4889 215.433 15.6889 215.333 15.9889C215.233 16.2889 215.033 16.5889 215.033 16.5889C215.033 16.5889 214.933 16.9889 214.833 17.1889C214.833 17.3889 214.833 17.7889 214.833 18.0889V18.8889C214.833 19.1889 214.933 19.8889 214.933 19.8889V20.4889C214.933 20.4889 214.933 20.7889 214.933 21.0889C214.933 21.3889 214.633 21.6889 214.633 21.6889H213.733L213.133 21.9889C213.133 21.9889 212.733 22.4889 212.633 22.3889C212.433 22.3889 212.333 22.5889 212.133 22.3889C211.633 21.8889 211.533 21.7889 211.333 21.8889C211.133 21.9889 211.133 22.4889 210.933 22.3889C210.733 22.3889 210.233 22.3889 210.233 22.3889C210.233 22.3889 209.933 22.9889 209.933 23.1889C209.933 23.3889 209.533 23.7889 209.533 23.7889C209.533 23.7889 209.233 23.5889 209.033 23.7889C208.833 23.9889 208.633 24.2889 208.333 24.2889C208.033 24.2889 208.033 24.2889 207.833 24.2889C207.633 24.2889 206.533 24.2889 206.533 24.2889C206.533 24.2889 206.233 24.9889 206.233 25.2889C206.233 25.5889 206.233 25.6889 206.233 25.9889C206.233 26.2889 205.833 26.4889 206.233 26.7889C206.633 27.0889 206.633 27.2889 206.733 27.6889C206.833 28.0889 206.733 28.3889 206.833 28.5889C206.833 28.7889 206.833 28.9889 206.933 29.2889C206.933 29.5889 207.133 29.5889 207.233 29.7889C207.233 29.9889 207.333 30.1889 207.533 30.2889C207.733 30.4889 207.833 30.4889 208.033 30.4889C208.233 30.4889 208.433 30.4889 208.533 30.4889C208.733 30.4889 208.933 30.4889 209.133 30.4889C209.333 30.4889 209.533 30.4889 209.733 30.4889C210.033 30.4889 210.233 30.4889 210.433 30.4889C210.633 30.4889 210.833 30.7889 211.033 30.4889C211.233 30.1889 211.433 30.2889 211.533 30.0889V29.8889L212.133 29.5889C212.433 29.3889 212.633 29.3889 212.633 29.3889C212.633 29.3889 212.933 29.3889 213.133 29.7889C213.333 30.1889 213.433 30.5889 213.533 30.7889C213.633 30.9889 213.933 31.2889 213.933 31.2889L214.133 31.5889L213.433 32.1889H212.833L212.333 32.8889L212.033 33.3889V33.7889C212.033 33.7889 212.133 34.0889 212.333 34.2889C212.533 34.4889 212.633 34.6889 212.733 34.7889C212.933 34.8889 213.133 35.2889 213.133 35.2889C213.433 35.0889 213.633 34.9889 213.633 34.9889V34.6889C214.033 34.4889 214.333 34.3889 214.333 34.3889C214.333 34.3889 214.533 34.7889 214.533 34.8889V35.8889C214.333 36.1889 213.933 36.1889 213.933 36.1889H213.433L213.133 36.6889L212.533 37.0889C212.533 37.0889 212.133 37.0889 212.033 37.0889C211.933 37.0889 211.533 37.0889 211.533 37.0889L211.033 36.7889C211.033 36.7889 210.833 36.5889 210.633 36.4889C210.433 36.4889 209.933 36.2889 209.933 36.2889L209.633 36.0889L209.133 35.6889L208.633 35.4889C208.633 35.4889 208.433 35.1889 208.233 35.1889C208.033 35.1889 207.733 34.9889 207.733 34.9889C207.333 34.5889 207.133 34.3889 207.133 34.3889L206.733 34.6889C206.333 34.9889 206.033 35.3889 206.033 35.3889V35.9889L206.333 36.6889L205.933 37.0889L205.733 37.5889C205.433 37.8889 204.733 36.6889 204.733 36.6889L204.033 35.7889L203.533 35.1889C203.533 35.1889 203.033 34.8889 202.933 34.8889C202.733 34.8889 202.433 34.5889 202.433 34.5889L202.733 34.0889L203.133 33.6889V33.2889C203.233 33.2889 203.333 32.8889 203.333 32.8889L203.033 32.3889L202.733 31.9889L202.333 31.7889L201.933 31.2889L201.433 30.8889L200.633 29.9889L200.833 26.6889L200.533 25.8889C200.533 25.8889 200.233 25.2889 200.133 25.1889C200.033 24.9889 199.633 24.6889 199.633 24.5889C199.633 24.4889 199.433 23.8889 199.433 23.6889C199.433 23.4889 199.433 22.8889 199.433 22.6889C199.433 22.4889 199.233 22.1889 199.033 22.1889C198.833 22.1889 198.433 21.7889 198.433 21.7889L197.933 21.5889H197.433C197.433 21.6889 197.033 21.5889 197.033 21.5889L196.533 21.0889L196.633 21.6889Z" fill="#D3EEFB"/>
<path d="M207.333 25.089H209.533L210.033 24.689C210.033 24.689 210.433 24.189 210.433 23.989C210.433 23.789 210.733 23.589 210.733 23.589L211.133 23.289L211.533 22.689L212.333 23.189L212.933 22.989L213.333 22.689C213.333 22.689 213.733 22.689 213.933 22.689C214.233 22.689 214.733 22.689 214.733 22.689H215.233L215.533 21.989C215.933 21.789 216.233 21.689 216.233 21.689L216.933 21.989C217.233 22.189 218.733 23.989 218.733 23.989L219.533 24.289L220.033 24.089L220.433 23.389C220.733 23.389 221.133 24.089 221.133 24.089C221.333 24.389 221.433 24.589 221.633 24.489C221.833 24.489 222.033 24.389 222.033 24.389C222.033 24.389 222.333 24.089 222.433 24.089C222.533 24.089 223.033 24.289 223.033 24.289L223.333 24.689L223.633 25.089H224.433C224.433 25.089 224.233 25.289 224.433 25.489C224.633 25.689 224.433 26.089 224.433 26.089C224.433 26.089 224.033 26.289 224.133 26.489C224.233 26.689 224.533 26.789 224.433 27.089C224.333 27.389 224.133 27.389 224.433 27.589C224.733 27.789 224.933 28.089 224.933 28.089C225.033 28.489 224.933 28.689 224.933 28.889C224.933 29.089 225.333 29.289 224.933 29.489C224.633 29.689 224.433 29.989 224.433 29.989C224.433 29.989 224.633 30.389 224.433 30.589C224.233 30.789 224.633 33.489 224.633 33.489L224.333 33.989L223.833 34.289L223.333 34.989L223.033 35.389C223.033 35.389 222.733 35.689 222.533 35.689C222.333 35.689 222.133 35.489 221.933 35.689C221.733 35.889 221.333 36.089 221.333 36.089C221.333 36.089 221.033 36.589 220.833 36.589C220.633 36.589 220.233 36.989 220.233 36.989C220.233 36.989 220.233 37.289 220.233 37.489C220.233 37.689 220.233 37.989 220.033 38.189C219.933 38.389 219.633 38.889 219.633 38.889C219.633 38.889 219.333 39.289 219.133 39.289C218.933 39.289 218.733 39.089 218.333 39.289C217.933 39.489 217.733 39.589 217.633 39.489C217.233 39.289 217.233 38.989 217.233 38.889C217.233 38.789 217.533 38.889 217.233 38.689C216.933 38.489 216.633 38.189 216.433 38.189C216.233 38.189 216.133 38.289 215.933 38.189C215.733 38.089 215.733 38.389 215.433 38.189C215.133 37.989 215.033 37.889 214.833 37.889C214.633 37.889 214.433 37.989 214.333 38.189C214.233 38.389 213.933 38.689 213.933 38.689L213.633 39.089C213.633 39.089 213.533 39.489 213.333 39.389V39.789H213.933H214.533C214.533 39.789 214.833 40.189 215.033 40.289C215.233 40.389 215.533 40.289 215.533 40.289L215.933 40.689C215.933 41.089 215.833 41.089 215.533 41.089C215.233 41.089 214.733 41.089 214.733 41.089L214.133 41.389L213.733 41.889L214.033 42.489H214.333C214.333 42.589 214.433 42.989 214.433 42.989C214.033 43.189 213.633 43.289 213.633 43.289V43.689L213.333 44.089H212.433L212.033 43.689C212.033 43.689 211.733 43.489 211.533 43.489C211.333 43.489 211.133 43.289 210.933 43.489C210.533 43.789 210.733 44.089 210.433 44.089H209.733L209.333 43.789C209.333 43.789 208.933 43.389 208.733 43.389C208.533 43.389 208.633 43.389 208.333 43.389C208.033 43.389 207.633 43.389 207.633 43.389C207.333 43.589 207.733 42.289 207.733 42.289L207.433 41.689C207.233 41.389 207.133 40.889 207.133 40.889L207.333 40.589H207.933C208.333 40.289 208.433 39.989 208.433 39.989L208.733 39.489L208.433 39.089C208.033 38.689 207.833 38.389 207.833 38.389L207.433 38.189L207.833 37.289L208.033 36.889L208.833 37.289L209.233 37.689C209.233 37.689 209.733 38.289 209.833 38.189C210.033 38.089 210.433 38.089 210.733 38.189C211.133 38.289 211.733 38.189 211.733 38.189H212.633C212.633 38.189 213.033 37.789 213.033 37.689C213.033 37.489 213.333 37.289 213.333 37.289H214.133L214.633 36.989C214.933 36.689 215.033 36.389 214.933 36.089C214.833 35.789 214.833 35.589 214.833 35.389C214.833 35.189 214.933 34.989 214.833 34.789C214.733 34.589 214.633 34.289 214.533 34.289C214.433 34.289 214.033 34.489 213.933 34.489C213.733 34.489 213.533 34.589 213.533 34.589H213.133C212.733 34.189 212.733 33.789 212.733 33.789C212.933 33.489 213.433 32.989 213.533 32.889C213.633 32.889 213.833 32.589 213.833 32.589C213.933 32.089 214.333 31.889 214.333 31.889C214.333 31.889 214.333 31.589 214.333 31.389C214.333 31.189 214.233 30.689 214.233 30.689C214.233 30.689 214.033 30.489 213.833 30.389C213.633 30.189 213.533 30.089 213.333 29.989C213.133 29.889 212.933 29.489 212.933 29.489H212.533C212.533 29.389 212.033 29.489 212.033 29.489L211.433 29.889L211.033 30.089H210.333L209.633 30.189C209.633 30.189 209.033 29.989 208.833 30.089C208.633 30.089 208.133 30.289 208.133 30.289L207.633 30.089L206.933 28.289V26.689C206.933 26.689 206.533 26.389 206.433 26.189C206.333 25.989 206.433 25.789 206.433 25.789V25.389L206.933 25.089H207.333Z" fill="#D3EEFB"/>
<path d="M207.534 38.789L207.234 39.089L206.934 39.389V40.189L207.134 40.489C207.434 40.289 207.534 40.189 207.534 40.189C208.034 40.189 208.234 40.089 208.234 40.089C208.434 39.689 208.234 39.289 208.234 39.289C208.134 38.989 207.534 38.689 207.534 38.689V38.789Z" fill="#D3EEFB"/>
<path d="M206.834 35.989H207.534C207.934 36.289 207.934 36.389 207.934 36.589C207.934 36.789 207.934 37.189 207.934 37.189L207.534 37.589V37.989C207.434 37.989 207.434 38.289 207.434 38.289L206.934 38.889L206.534 39.289L206.234 39.589C206.234 39.989 206.534 40.389 206.534 40.389V40.989L206.934 41.289C206.934 41.289 206.934 41.489 207.134 41.689C207.334 41.889 207.134 41.989 207.334 42.189C207.534 42.489 207.634 42.789 207.634 42.789C207.634 42.789 207.634 43.089 207.634 43.289C207.634 43.489 207.634 43.889 207.634 43.889V44.289C207.234 44.589 206.534 44.789 206.534 44.789H206.234V45.089L205.834 45.789C205.834 45.789 205.834 45.989 205.834 46.189C205.834 46.389 205.834 46.889 205.834 46.889L206.234 47.289C206.234 47.289 207.034 47.589 206.934 47.689C206.934 47.889 206.934 48.289 206.934 48.289L207.234 48.689L206.534 49.189C206.534 49.189 206.134 50.289 206.034 50.489C205.934 50.689 205.834 51.789 205.834 51.789C205.834 51.789 205.834 52.489 205.834 52.689C205.834 52.889 205.834 53.789 205.834 53.789V54.489C205.834 54.489 206.134 54.889 206.234 54.989C206.334 55.189 206.234 55.289 206.534 55.489C206.734 55.689 206.934 55.989 206.934 55.989V56.289V56.589H205.134L204.534 56.989C204.534 56.989 204.134 57.289 204.034 57.389C203.834 57.389 203.434 57.589 203.234 57.689C203.034 57.789 203.434 57.589 203.034 57.789C202.634 57.989 202.034 58.489 201.834 58.589C201.634 58.689 201.334 58.989 201.234 59.189C201.134 59.489 201.034 59.889 200.834 59.989C200.634 60.089 200.434 60.589 200.334 60.789C200.234 60.989 199.834 61.689 199.634 61.789C199.434 61.889 199.434 62.089 199.334 62.289C199.234 62.489 199.034 62.789 199.034 62.989C199.034 63.189 198.934 63.489 199.034 63.889C199.134 64.289 198.834 64.489 199.034 64.689C199.234 64.889 199.234 65.089 199.434 65.389C199.634 65.689 199.634 66.089 199.734 66.389C199.834 66.789 199.834 67.189 199.834 67.389C199.834 67.589 199.834 68.089 199.834 68.189C199.834 68.289 199.834 68.589 199.834 68.889C199.834 69.189 199.634 69.889 199.634 69.889V70.589C199.734 70.889 199.234 71.389 198.934 71.289C198.634 71.289 198.134 71.289 198.134 71.289H197.234L196.734 71.589C196.734 71.589 196.634 71.389 196.334 71.389C196.034 71.389 195.934 71.289 195.734 71.189C195.434 71.089 195.434 70.989 195.134 70.989C194.834 70.989 194.534 70.989 194.334 70.989C194.134 70.989 194.134 70.689 193.934 70.689H193.734C193.334 70.289 193.734 67.489 193.734 67.489L193.534 66.589C193.534 66.589 193.834 65.789 193.534 65.589C193.234 65.389 193.134 64.789 193.134 64.789C193.134 64.789 193.234 64.389 193.134 64.089C193.034 63.789 193.334 63.489 193.134 63.289C192.934 62.989 192.834 62.589 192.834 62.489C192.834 62.389 192.834 62.189 192.834 61.889C192.834 61.589 192.834 61.489 192.834 61.289C192.834 61.089 192.834 60.889 192.834 60.689C192.834 60.489 192.834 60.189 192.834 60.189C192.834 60.189 192.634 59.989 192.534 59.889C192.434 59.689 192.534 59.389 192.534 59.389L192.234 59.089L191.134 57.789L190.834 57.189V56.089C190.834 56.089 190.934 55.689 191.034 55.589C191.134 55.389 191.334 55.189 191.434 54.989C191.534 54.789 191.634 54.589 191.834 54.389C192.034 54.189 192.134 54.089 192.234 53.989C192.334 53.889 192.534 53.589 192.534 53.589L192.734 53.189C192.734 53.189 192.734 52.989 192.734 52.789C192.734 52.589 192.634 52.189 192.534 51.989C192.534 51.789 192.434 51.589 192.334 51.389C192.334 51.189 192.334 50.989 192.234 50.689C192.234 50.389 192.034 50.089 191.934 49.889C191.934 49.689 191.834 49.289 191.834 49.289L191.634 48.689L190.734 45.489L190.434 45.089H189.934C189.734 45.089 189.134 44.789 189.134 44.789C189.134 44.789 188.434 44.989 188.334 44.789C188.334 44.589 188.034 44.789 187.834 44.389C187.634 43.989 187.234 43.889 187.134 43.689C186.934 43.489 186.734 43.289 186.534 43.189C186.334 43.089 186.234 42.889 186.134 42.689C186.034 42.489 186.134 42.489 185.734 42.189C185.434 41.889 185.134 42.089 185.034 41.789V41.489C184.934 41.489 184.634 41.089 184.334 41.089C184.034 41.089 183.834 41.089 183.634 41.089C183.434 41.089 182.934 40.089 182.934 40.089L182.734 39.789C182.534 39.489 182.034 39.789 182.034 39.789H181.634L180.834 40.089C180.834 40.089 180.534 40.289 180.334 40.289C180.134 40.289 179.834 40.289 179.634 40.289C179.434 40.389 179.134 40.289 178.934 40.289C178.734 40.289 178.534 40.089 178.334 40.089C178.134 40.089 178.034 39.589 177.834 39.689C177.634 39.789 177.334 39.689 177.334 39.689L177.834 38.789L178.334 38.489L178.634 38.189L179.134 38.789H180.034C180.034 38.789 180.534 38.589 180.434 38.389C180.434 38.189 180.734 37.689 180.434 37.689C180.134 37.689 179.934 37.789 179.834 37.589C179.834 37.389 179.834 36.989 179.834 36.989C180.334 36.489 180.834 35.889 180.834 35.889L181.334 35.489C181.734 35.489 183.634 36.689 183.834 36.789C184.034 36.889 186.834 37.389 186.834 37.389H190.034L190.434 36.789C190.434 36.789 190.534 36.389 190.534 36.289C190.534 36.189 190.634 35.889 190.734 35.789C190.834 35.689 191.034 35.389 191.034 35.289C191.034 35.189 191.234 34.989 191.234 34.789C191.234 34.589 191.434 34.489 191.434 34.289V33.989C191.134 33.489 191.134 33.389 190.934 33.389C190.434 33.389 190.334 33.389 190.234 33.389C190.134 33.389 189.934 32.989 189.734 33.089C189.534 33.089 189.434 32.989 189.234 33.089C188.934 33.189 188.834 32.889 188.434 33.089C188.034 33.289 187.734 33.089 187.734 33.089C187.334 33.089 186.334 32.189 186.334 32.189C185.934 31.989 185.334 31.989 185.334 31.989L184.934 31.589L185.334 31.189L185.634 31.489C186.034 31.489 186.234 31.189 186.234 31.189C186.234 31.189 186.134 30.989 185.934 30.889C185.734 30.889 185.534 30.889 185.534 30.689C185.334 30.289 185.234 30.289 185.434 30.089C185.634 29.889 185.534 29.689 185.734 29.589C186.034 29.389 186.534 29.889 186.534 29.889L187.234 30.489L189.334 31.889L190.334 33.089L192.134 33.489L194.134 34.089L194.834 35.289L197.534 37.389L198.134 39.389L198.634 40.689L199.434 41.489L200.734 41.789L202.234 41.489L203.934 40.589L204.534 40.189L204.734 39.389V38.789C204.634 38.789 204.534 38.389 204.534 38.389L204.234 37.989C204.734 37.989 204.934 38.189 204.934 38.189L205.234 38.789C205.534 38.989 205.834 38.789 205.834 38.789C206.134 38.789 206.434 38.489 206.434 38.489C206.434 38.489 206.234 38.389 206.434 38.189C206.634 37.989 206.834 37.789 206.834 37.789C206.634 37.489 206.834 36.689 206.834 36.689V35.989Z" fill="#D3EEFB"/>
<path d="M182.634 33.989V34.989L182.934 35.489C182.934 35.489 183.434 35.789 183.334 35.489C183.334 35.189 183.334 34.789 183.334 34.789V33.989C183.734 33.989 184.134 33.989 184.134 33.989H184.634C184.634 33.989 184.634 33.889 184.634 33.689C184.634 33.489 184.434 33.389 184.334 33.289C184.234 33.189 183.934 32.989 183.934 32.989L183.734 32.689L183.934 32.189C183.934 31.989 184.234 31.689 184.234 31.689H184.634C184.634 31.689 184.634 32.289 184.834 32.389C185.034 32.489 185.434 32.789 185.434 32.789C185.434 32.789 185.834 33.189 186.034 32.989C186.234 32.789 186.734 33.689 186.734 33.689H187.234L188.534 33.889L190.034 33.689H190.834V34.589L190.134 36.389L189.834 36.889C189.834 36.889 189.434 37.089 189.234 36.889C189.034 36.7556 188.867 36.689 188.734 36.689C188.434 36.689 188.034 36.689 187.934 36.689C187.734 36.689 187.634 36.389 187.534 36.389C187.434 36.389 187.234 36.589 187.034 36.589C186.834 36.589 186.634 36.389 186.334 36.389H185.734C185.734 36.389 185.434 36.389 185.234 36.389C185.034 36.389 184.734 36.389 184.734 36.389L183.534 36.089H182.634L182.134 35.389L181.734 34.989C181.434 34.889 182.634 33.989 182.634 33.989Z" fill="#B5E2F7"/>
<path d="M187.734 25.889V27.989L188.134 28.589C188.134 28.589 188.734 28.789 188.934 28.589C189.134 28.389 189.634 28.289 189.634 28.289C189.634 28.289 190.134 28.289 190.334 28.189C190.534 28.189 191.034 27.989 191.234 28.089C191.434 28.189 191.534 28.089 191.734 27.989C191.934 27.989 192.434 27.789 192.434 27.589C192.434 27.389 192.634 27.389 192.134 26.989C191.734 26.589 191.534 26.589 191.534 26.589C191.534 26.589 191.534 26.389 191.734 26.289C191.934 26.189 192.534 26.189 192.534 25.889C192.534 25.589 192.534 25.189 192.834 24.989C193.134 24.789 193.434 24.389 193.734 24.189C194.034 23.889 194.234 23.789 194.534 23.589C194.834 23.389 195.334 23.089 195.434 22.989C195.534 22.889 196.134 22.489 196.134 22.489L196.534 22.189L197.334 22.889L198.034 23.189L198.534 22.989C198.834 23.189 199.034 23.589 199.134 23.789C199.234 23.989 199.034 24.289 199.134 24.489C199.234 24.689 199.134 25.089 199.134 25.189C199.134 25.389 199.434 25.889 199.434 25.889C199.834 26.289 199.934 26.789 200.034 26.889C200.034 27.089 200.034 27.689 200.034 27.889C200.034 28.089 200.034 29.389 200.034 29.489V30.689C200.234 30.989 200.834 31.689 200.834 31.689L201.734 32.989H202.434L202.934 33.389C203.134 33.789 202.934 34.189 202.934 34.189L202.534 34.789L202.034 35.189C202.034 35.189 201.934 35.489 202.234 35.589C202.534 35.689 203.034 35.889 203.134 35.989C203.134 36.189 203.434 36.089 203.634 36.289C203.834 36.489 204.034 36.989 204.034 36.989L204.334 37.289L203.834 37.789L204.034 38.189L204.234 38.789C204.234 38.789 204.434 38.789 204.434 38.989C204.434 39.189 204.434 39.689 204.434 39.689C204.034 39.989 203.634 40.289 203.634 40.289H203.234C203.034 40.289 202.734 40.089 202.634 40.289C202.434 40.489 202.234 40.689 202.034 40.889C201.834 41.089 202.234 40.889 201.834 41.089C201.534 41.289 201.034 41.089 200.734 41.089C200.434 41.089 200.134 40.889 200.134 40.889C200.134 40.889 199.734 40.589 199.734 40.389C199.734 40.189 199.634 39.689 199.534 39.489C199.534 39.289 199.334 38.889 199.234 38.789C199.134 38.789 199.134 38.389 199.034 38.189C198.934 37.989 198.834 37.589 198.734 37.389C198.534 37.189 198.534 36.989 198.334 36.889C198.034 36.889 198.734 36.889 197.734 36.289C196.834 35.689 196.734 35.489 196.634 35.389C196.434 35.189 196.634 35.089 196.334 34.989C196.034 34.989 196.034 34.789 195.834 34.689C195.634 34.589 195.834 34.489 195.634 34.289C195.434 34.089 195.534 33.889 195.334 33.889C195.134 33.889 194.734 33.589 194.734 33.589L194.034 33.289C194.034 33.289 193.434 32.989 193.334 32.889C193.134 32.789 192.734 32.589 192.534 32.489C192.334 32.389 191.734 32.289 191.534 32.289C191.334 32.289 191.034 32.289 190.934 32.089C190.834 31.889 190.734 31.889 190.634 31.789C190.434 31.689 190.034 31.289 190.034 31.289C189.634 30.889 190.334 31.289 189.334 30.789C188.334 30.189 188.534 30.089 188.234 30.089C187.934 30.089 187.134 29.189 187.134 29.189L186.734 28.989C186.434 28.589 187.434 27.189 187.434 27.189L187.734 26.689V26.289L188.034 25.989L188.334 25.789L187.734 25.889Z" fill="#B5E2F7"/>
<path d="M207.533 44.6888L208.233 44.1888C208.233 44.1888 208.734 44.4888 208.834 44.4888H209.334C209.634 44.7888 210.033 44.7888 210.033 44.7888H210.933L211.233 44.4888C211.233 44.4888 211.933 44.2888 212.033 44.4888C212.133 44.6888 212.533 44.7888 212.533 44.7888H214.334L214.533 44.2888L214.933 43.8888C214.933 43.8888 215.233 43.6888 215.133 43.4888C215.133 43.2888 215.133 43.0888 215.133 43.0888L214.834 42.6888L214.633 42.2888C214.633 42.2888 214.933 41.9888 215.033 41.9888H215.633C215.633 41.9888 216.133 41.6888 216.233 41.5888C216.333 41.4888 216.533 41.5888 216.533 41.2888C216.533 41.0888 216.733 40.7888 216.733 40.7888L216.533 40.4888C216.533 40.4888 216.534 39.7888 216.334 39.8888C216.134 39.9888 215.834 40.0888 215.834 40.0888C215.834 40.0888 215.633 39.8888 215.533 39.8888C215.333 39.8888 214.933 39.8888 214.933 39.8888C214.733 39.4888 214.433 39.5888 214.433 39.5888L214.834 38.9888C215.134 38.7888 215.733 38.9888 215.733 38.9888C215.733 38.9888 216.134 38.7888 216.334 38.9888C216.534 39.0888 216.834 39.3888 216.834 39.3888L217.233 39.6888V40.5888C217.233 40.5888 217.033 40.9888 217.233 41.1888C217.433 41.4888 217.533 41.7888 217.433 41.9888C217.333 42.1888 217.433 42.9888 217.433 42.9888V43.4888C217.233 43.7888 216.733 44.1888 216.733 44.1888L216.133 44.4888C216.133 44.4888 216.133 44.8888 215.933 44.9888C215.833 45.0888 215.733 45.4888 215.633 45.6888C215.533 45.8888 215.433 46.1888 215.433 46.3888C215.433 46.5888 215.133 47.1888 215.133 47.1888V47.5888C215.033 47.5888 214.933 48.3888 214.933 48.5888C214.933 48.7888 214.533 50.1888 214.533 50.1888L214.834 51.9888V54.1888L215.933 55.1888L216.433 56.1888C216.433 56.1888 216.633 56.7888 216.533 56.9888C216.533 57.1888 216.433 57.8888 216.433 57.8888C216.433 57.8888 216.133 57.9888 215.933 58.1888C215.733 58.3888 215.334 58.7888 215.334 58.7888V59.1888C215.334 59.1888 215.533 59.4888 215.633 59.6888C215.733 59.8888 215.833 60.2888 215.933 60.3888C216.033 60.4888 215.733 60.7888 216.133 60.7888C216.533 60.7888 216.634 60.9888 216.834 60.9888H217.433C217.733 60.9888 217.733 60.7888 218.133 60.9888C218.533 61.1888 218.533 61.0888 218.933 61.2888C219.333 61.4888 219.433 61.4888 219.633 61.5888C219.833 61.6888 220.133 62.0888 220.133 62.0888C220.133 62.0888 219.833 62.2888 220.133 62.3888C220.433 62.5888 220.533 62.5888 220.633 62.7888C220.733 62.9888 220.933 63.1888 220.933 63.1888C221.033 63.5888 219.533 63.7888 219.533 63.7888L218.633 64.2888H217.133L216.933 64.6888H212.834L210.133 62.1888L209.834 59.0888L209.433 57.9888L209.033 57.5888L208.633 57.1888C208.633 57.1888 208.333 56.9888 208.033 56.8888C207.733 56.8888 207.833 56.6888 207.533 56.6888H207.233L206.933 55.2888L206.033 54.1888C206.033 54.1888 205.733 53.6888 205.733 53.4888C205.733 53.2888 205.733 52.5888 205.733 52.3888C205.733 52.1888 205.533 52.0888 205.733 51.7888C205.833 51.4888 206.033 51.1888 206.033 51.1888L206.233 50.7888L206.733 49.8888L206.933 49.2888L207.133 48.7888V48.3888C207.133 48.3888 207.433 48.0888 207.133 47.9888C206.833 47.8888 206.433 47.5888 206.433 47.5888V47.0888C206.133 46.7888 206.233 47.0888 206.133 46.7888V46.3888C205.933 45.9888 206.033 45.9888 206.033 45.7888V45.5888L207.133 45.0888L207.533 44.6888Z" fill="#D3EEFB"/>
<path d="M209.433 61.3889L208.733 61.1889C208.733 61.1889 208.533 60.8889 208.333 60.9889C208.133 60.9889 207.833 61.2889 207.633 61.3889C207.433 61.4889 207.033 61.7889 207.133 61.8889C207.333 61.9889 207.633 62.3889 207.833 62.4889C208.033 62.5889 207.933 62.9889 208.233 63.0889C208.533 63.1889 208.733 63.6889 208.833 63.6889C209.033 63.6889 209.333 64.1889 209.333 64.1889C209.333 64.1889 209.133 64.8889 209.333 65.0889C209.533 65.2889 209.533 65.7889 209.733 65.9889C209.933 66.1889 210.033 66.2889 210.333 66.4889C210.633 66.7889 210.833 67.0889 210.933 67.1889C211.033 67.2889 210.933 67.6889 210.933 67.6889C210.933 67.6889 211.233 67.4889 211.433 67.3889C211.633 67.1889 211.933 66.6889 211.933 66.6889C211.933 66.6889 212.233 66.2889 212.233 66.0889C212.233 65.8889 212.533 65.2889 212.533 65.2889L212.833 64.7889V64.4889L211.833 63.5889L211.133 62.9889L210.533 62.4889L210.033 61.9889L209.433 61.2889V61.3889Z" fill="#D3EEFB"/>
<path d="M213.633 64.789H214.834C214.834 64.789 215.433 64.889 215.533 64.789C215.733 64.689 216.033 64.789 216.033 64.789H216.633C216.933 64.789 216.433 65.689 216.633 65.789C216.833 65.989 216.633 66.689 216.633 66.689L216.133 67.189H215.533L215.033 67.989V68.289C214.733 68.389 214.333 68.489 214.233 68.489C214.133 68.489 213.733 68.489 213.433 68.489C213.233 68.489 212.933 68.489 212.633 68.489C212.333 68.489 211.934 68.489 211.834 68.489C211.734 68.489 211.233 68.489 211.233 68.489C211.033 68.089 211.233 67.689 211.233 67.689H211.733C211.733 67.689 212.233 67.289 212.233 67.189C212.233 67.089 212.333 66.589 212.433 66.589L212.633 66.189L212.834 65.789L213.133 65.389C213.133 65.089 213.433 64.689 213.433 64.689L213.633 64.789Z" fill="#D3EEFB"/>
<path d="M215.733 52.1889H216.833L217.833 53.0889L218.133 53.5889L218.433 54.2889L218.733 54.6889V55.1889C218.733 55.1889 218.433 55.6889 218.733 55.7889C219.033 55.9889 219.033 56.1889 219.233 56.1889C219.433 56.1889 219.533 55.9889 219.733 56.1889C219.933 56.3889 220.033 55.9889 220.233 56.1889C220.533 56.3889 220.933 56.3889 220.933 56.4889H221.233H221.633C221.933 56.3889 221.933 55.7889 221.933 55.7889V53.9889C221.933 53.7889 221.733 53.3889 221.533 53.1889C221.333 52.9889 220.833 52.6889 220.933 52.4889C220.933 52.2889 220.933 52.1889 220.933 51.9889C220.933 51.7889 221.233 51.3889 221.233 51.3889L221.633 51.0889L222.133 50.7889C222.133 50.7889 222.433 50.7889 222.533 50.7889C222.733 50.7889 222.833 50.8889 223.033 50.7889C223.333 50.6889 223.533 50.2889 223.733 50.3889C224.033 50.4889 224.333 50.3889 224.333 50.3889C224.633 50.3889 224.633 46.5889 224.633 46.5889V43.5889C224.633 43.5889 224.433 42.8889 224.633 42.6889C224.833 42.4889 225.033 42.2889 225.033 42.0889C225.033 41.8889 225.033 41.5889 225.033 41.5889C225.033 41.5889 225.233 41.2889 225.233 41.0889V39.8889C224.733 40.0889 224.233 40.4889 224.233 40.4889H223.833C223.833 40.4889 223.833 40.8889 223.733 40.9889C223.733 41.1889 223.433 41.6889 223.433 41.8889C223.433 42.0889 223.133 42.4889 223.133 42.4889L222.633 42.8889L222.133 43.0889L221.433 43.4889C221.433 43.4889 221.133 44.0889 221.033 44.0889C220.833 44.0889 220.633 44.0889 220.633 44.0889C220.133 44.4889 219.933 44.4889 219.933 44.4889H219.433L218.633 44.2889L218.233 44.0889H216.833L216.433 44.4889L215.933 45.1889L215.733 45.5889V46.1889L215.433 46.8889V47.5889L215.133 48.1889V49.8889L215.333 50.3889L215.133 51.0889V51.5889L215.433 52.0889L215.733 52.1889Z" fill="#D3EEFB"/>
<path d="M215.533 52.6889L215.833 53.6889V54.1889L216.333 54.5889L216.833 55.4889L217.033 55.9889V56.5889C217.033 56.5889 216.833 56.8889 217.033 57.1889C217.233 57.3889 216.933 57.5889 217.033 57.6889C217.133 57.8889 216.833 58.1889 216.833 58.2889C216.833 58.3889 216.333 58.7889 216.333 58.7889V59.4889H216.833L217.133 59.9889C217.133 59.9889 217.433 60.0889 217.733 59.9889C218.033 59.8889 218.133 59.9889 218.433 59.9889C218.733 59.9889 218.833 59.6889 219.033 59.9889C219.233 60.2889 219.333 60.2889 219.533 60.3889C219.733 60.4889 219.933 60.6889 219.933 60.6889C220.233 60.6889 220.633 60.4889 220.633 60.4889C220.633 60.4889 220.633 60.0889 220.633 59.8889C220.633 59.6889 220.633 59.4889 220.633 59.2889C220.633 59.0889 220.433 58.9889 220.233 58.9889C220.033 58.9889 219.633 58.6889 219.633 58.6889C219.133 58.2889 219.033 57.9889 219.033 57.9889V57.4889V57.1889L219.233 56.7889C219.133 56.2889 218.633 56.0889 218.633 56.0889L218.433 55.6889C218.233 55.3889 218.133 55.0889 218.133 55.0889V53.9889C217.733 53.5889 217.633 53.2889 217.633 53.2889C217.333 53.0889 217.233 52.7889 217.233 52.7889C216.833 52.4889 216.633 52.3889 216.633 52.3889H216.233C216.233 52.2889 215.633 52.3889 215.633 52.3889L215.533 52.6889Z" fill="#D3EEFB"/>
<path d="M221.333 57.0888H220.433C219.933 57.0888 219.533 56.9888 219.533 57.4888C219.533 57.9888 219.833 58.2888 219.833 58.2888C220.133 58.5888 220.433 58.8888 220.433 58.8888C220.833 59.0888 220.733 58.6888 221.033 58.8888C221.333 59.0888 221.733 58.8888 221.733 58.8888C221.733 58.8888 222.233 58.6888 222.433 58.8888C222.633 59.0888 222.933 58.6888 223.133 58.8888C223.333 59.0888 223.433 58.8888 223.633 58.8888C223.833 58.8888 224.133 58.8888 224.133 58.8888C224.133 58.8888 224.233 58.6888 224.133 58.4888C224.033 58.2888 223.933 57.8888 223.933 57.8888L223.633 57.5888L222.933 57.2888C222.933 57.2888 222.633 57.2888 222.433 57.0888C221.933 56.7888 221.433 56.7888 221.433 56.7888L221.333 57.0888Z" fill="#D3EEFB"/>
<path d="M224.534 51.4888H223.434C222.934 51.2888 222.634 51.4888 222.634 51.4888H222.234L221.934 51.8888V53.8888H222.534V54.4888C222.534 54.4888 222.734 54.8888 222.734 55.0888V55.9888C222.834 55.9888 222.934 56.3888 222.934 56.3888C222.934 56.6888 223.334 56.8888 223.334 56.8888V57.1888L223.834 57.4888L224.234 56.8888C224.234 56.8888 224.434 56.5888 224.634 56.5888C224.834 56.5888 225.334 56.7888 225.334 56.5888C225.334 56.3888 225.534 56.2888 225.534 56.2888C225.534 56.2888 225.334 55.9888 225.334 55.7888C225.334 55.5888 225.334 55.2888 225.334 55.2888C225.334 55.2888 225.534 55.0888 225.334 54.8888C225.134 54.5888 225.134 54.5888 225.134 54.3888C225.134 54.1888 225.534 53.8888 225.334 53.6888C225.134 53.4888 225.134 53.0888 225.134 53.0888C225.134 53.0888 225.134 52.6888 225.034 52.4888V52.2888V51.5888L224.634 51.2888L224.534 51.4888Z" fill="#D3EEFB"/>
<path d="M221.133 59.4888C221.433 59.4888 221.933 59.6888 221.933 59.6888H223.733C224.033 60.1888 224.133 60.5888 224.133 60.5888C223.733 60.7888 223.533 60.7888 223.333 60.8888C223.133 60.8888 223.033 60.6888 222.833 60.8888C222.633 61.0888 222.933 61.1888 222.533 61.1888C222.133 61.1888 221.833 61.4888 221.833 61.4888V61.8888L221.433 62.1888L221.033 61.4888C221.033 61.0888 221.033 60.8888 221.033 60.8888H220.833C220.633 60.5888 221.033 59.4888 221.033 59.4888H221.133Z" fill="#D3EEFB"/>
<path d="M175.733 41.5888C175.733 41.3888 176.833 40.6888 177.033 40.5888C177.233 40.5888 179.133 40.9888 179.333 41.0888C179.533 41.1888 180.233 41.0888 180.233 41.0888L180.633 40.5888H181.333L181.633 40.2888C182.033 40.1888 182.233 40.2888 182.233 40.2888C182.533 40.2888 182.733 40.8888 182.933 40.8888C183.133 40.8888 183.133 40.8888 183.233 41.0888C183.333 41.2888 183.433 41.2888 183.633 41.4888C183.833 41.7888 183.833 41.7888 184.033 41.8888C184.233 41.9888 184.733 42.0888 184.733 42.0888C184.733 42.0888 185.733 42.8888 186.133 43.1888C186.533 43.4888 186.933 44.2888 186.933 44.2888L187.733 44.8888L188.533 45.1888L189.233 45.4888H190.033C190.333 45.6888 192.033 52.9888 192.033 52.9888L190.733 54.3888L190.133 55.6888L189.833 56.5888L190.133 57.3888L191.033 58.4888L192.033 59.7888L192.733 65.9888V70.1888L192.233 70.6888L191.833 70.9888C191.833 70.9888 191.433 70.8888 191.133 70.9888C190.833 71.0888 190.433 71.1888 190.233 71.1888C190.033 71.1888 189.833 71.1888 189.633 71.1888C189.433 71.1888 188.733 72.0888 188.733 72.0888L188.033 72.5888C188.033 72.5888 187.633 72.2888 187.433 72.3888C187.233 72.4888 186.433 72.5888 186.433 72.5888C186.433 72.5888 186.133 72.9888 186.133 73.1888C186.133 73.3888 185.833 73.6888 185.633 73.8888C185.433 74.0888 184.933 74.4888 184.933 74.4888C184.933 74.4888 184.633 74.8888 184.233 74.8888C183.933 74.8888 183.833 75.0888 183.433 75.1888C183.033 75.2888 182.733 74.8888 182.433 75.1888C182.133 75.4888 182.933 75.6888 181.833 75.5888C180.733 75.4888 181.133 75.4888 180.733 75.4888C180.333 75.4888 179.533 75.5888 179.533 75.5888C179.533 75.5888 179.033 75.5888 178.833 75.5888C178.633 75.5888 178.333 75.5888 178.133 75.5888C177.933 75.5888 176.333 75.5888 176.333 75.5888H175.033L174.533 75.9888C174.533 75.9888 174.033 76.0888 173.733 75.9888C173.433 75.8888 173.033 75.9888 172.733 75.9888C172.433 75.9888 171.833 75.9888 171.533 75.9888C171.233 75.9888 170.733 75.9888 170.533 75.9888C170.333 75.9888 170.333 75.9888 169.733 75.9888H169.133L167.733 71.8888L166.733 69.2888L164.633 63.5888L162.933 57.8888L162.533 57.1888V56.5888L162.833 56.2888H163.233C163.533 56.0888 164.033 56.5888 163.933 56.6888C163.933 56.8888 164.133 57.1888 164.133 57.1888L164.733 56.6888H165.133C165.133 56.6888 165.633 56.1888 165.533 55.9888C165.433 55.7888 165.333 55.5888 165.233 55.4888C165.133 55.2888 165.233 55.0888 165.033 55.0888C164.833 55.0888 164.533 55.1888 164.533 55.1888C164.233 54.9888 164.233 54.6888 164.233 54.6888H165.133C165.433 54.5888 168.933 50.5888 168.933 50.5888L170.333 48.9888C170.333 48.9888 171.233 47.8888 171.233 47.6888C171.233 47.4888 172.033 46.6888 172.133 46.4888C172.233 46.2888 172.833 45.6888 172.833 45.4888C172.833 45.2888 173.333 44.7888 173.433 44.6888C173.433 44.4888 173.933 43.8888 173.933 43.8888C173.933 43.8888 174.333 43.3888 174.333 43.2888C174.333 43.1888 174.533 42.7888 174.533 42.7888C174.933 42.3888 175.233 42.2888 175.433 42.2888C175.633 42.2888 175.933 42.5888 176.133 42.6888C176.333 42.7888 176.833 43.1888 176.833 43.1888C176.833 43.1888 177.033 43.4888 177.133 43.6888C177.233 43.8888 177.533 44.2888 177.533 44.2888C177.233 44.7888 176.833 44.8888 176.733 45.0888C176.633 45.2888 176.433 45.8888 176.433 45.8888C176.633 46.1888 176.733 46.0888 176.933 46.0888C177.133 46.0888 177.533 46.0888 177.533 45.8888C177.533 45.6888 177.433 45.3888 177.633 45.1888C177.933 44.9888 178.033 44.8888 178.133 44.6888C178.233 44.4888 178.633 44.4888 178.533 44.1888C178.333 43.8888 178.533 43.8888 178.233 43.5888C177.933 43.1888 177.633 42.9888 177.633 42.9888C177.633 42.9888 177.233 42.6888 177.033 42.5888C176.833 42.5888 176.433 42.2888 176.433 42.2888L175.833 41.7888L175.733 41.5888Z" fill="#B5E2F7"/>
<path d="M151.634 65.3889L151.234 64.6889C151.234 64.6889 150.934 64.3889 150.834 64.1889C150.734 63.9889 150.834 63.5889 150.834 63.5889C151.334 63.3889 151.934 63.8889 152.234 63.5889C152.534 63.2889 152.834 63.1889 152.934 63.0889C153.034 62.9889 153.534 62.4889 153.534 62.4889L154.234 61.8889L155.334 60.9889L156.734 59.9889L157.434 59.5889C157.434 59.5889 158.034 59.1889 158.234 58.8889C158.434 58.5889 159.034 58.3889 159.134 58.0889C159.234 57.7889 159.734 57.3889 159.934 57.2889C160.134 57.2889 160.734 56.9889 160.734 56.9889H161.334C161.634 56.7889 168.334 75.8889 168.334 75.8889L168.934 76.2889C168.934 76.2889 174.934 76.7889 175.134 76.5889C175.334 76.3889 176.034 75.8889 176.034 75.8889H182.134L184.134 75.2889L185.634 74.2889L186.434 73.4889L186.834 73.1889C186.834 73.1889 187.234 72.9889 187.534 72.9889C187.834 72.9889 188.134 72.8889 188.334 72.6889C188.534 72.4889 188.934 72.1889 189.134 72.0889C189.334 72.0889 189.534 71.8889 189.734 71.7889C189.934 71.6889 190.234 71.3889 190.434 71.3889C190.634 71.3889 191.034 70.9889 191.234 71.0889C191.434 71.1889 191.834 71.1889 192.034 71.0889C192.234 70.9889 192.534 70.8889 192.534 70.6889C192.534 70.4889 192.934 70.3889 192.934 70.3889L193.734 70.7889L194.934 71.2889H195.634C195.634 71.3889 195.834 71.4889 196.034 71.4889C196.234 71.4889 196.734 71.4889 196.734 71.4889C196.734 71.4889 196.934 71.4889 197.134 71.4889C197.334 71.4889 197.734 71.2889 197.934 71.2889H198.634L199.134 70.9889H199.534C199.834 70.8889 200.634 72.2889 200.634 72.2889V73.2889L199.234 74.3889L199.034 75.8889L197.634 77.1889L198.434 79.4889V83.8889L200.034 85.3889V88.9889L197.934 92.6889V94.2889L198.734 94.8889C198.734 94.8889 199.334 94.6889 199.534 94.6889C199.834 94.6889 200.334 94.6889 200.434 94.6889C200.634 94.6889 200.934 94.6889 201.034 94.8889C201.134 95.0889 201.434 95.4889 201.434 95.4889C201.434 95.4889 201.634 95.7889 201.934 95.4889C202.234 95.1889 202.434 95.2889 202.434 95.0889C202.434 94.8889 202.734 94.6889 202.834 94.5889C203.034 94.4889 203.134 94.1889 203.434 94.1889C203.734 94.1889 203.934 93.9889 204.234 93.9889C204.534 93.9889 204.834 93.9889 205.034 93.9889C205.234 93.9889 205.734 94.2889 205.734 94.2889L206.234 95.4889C206.234 95.4889 206.534 96.1889 206.534 96.3889C206.534 96.5889 206.834 98.3889 206.834 98.3889L208.234 100.089L209.034 101.489L207.834 102.389L205.734 102.589L204.234 102.989L202.934 103.689C202.934 103.689 202.234 104.089 202.034 104.089C201.834 104.089 201.434 104.189 201.134 104.389C200.834 104.589 200.434 104.989 200.434 104.989H199.834C199.834 104.989 199.534 105.289 199.334 104.989C199.134 104.689 199.134 104.489 198.834 104.389C198.534 104.189 198.334 103.989 198.134 103.989C197.934 103.989 198.434 103.989 197.934 103.989C197.434 103.889 197.134 103.989 197.134 103.989L196.334 104.589H195.634C195.634 104.589 195.334 104.789 195.134 104.589C194.834 104.389 194.834 104.389 194.534 104.389C194.234 104.389 194.034 104.289 193.734 104.289H192.034C192.034 104.289 191.434 104.289 191.234 104.289C191.034 104.289 190.634 104.089 190.534 104.289C190.434 104.489 190.534 104.689 190.034 104.989C189.534 105.289 189.334 105.589 188.734 105.889C188.134 106.189 187.634 106.489 187.434 106.589C187.234 106.689 186.834 106.889 186.634 106.989C186.334 107.189 185.934 107.289 185.634 107.289C185.334 107.289 184.734 106.989 184.534 107.289C184.334 107.589 183.634 107.689 183.634 107.689L183.934 109.289C183.934 109.289 185.334 110.089 185.534 110.189C185.734 110.289 186.334 110.889 186.534 110.889C186.734 110.889 187.034 111.189 187.134 111.389C187.134 111.589 187.534 111.989 187.534 111.989C187.534 111.989 187.734 112.189 187.734 112.489C187.734 112.789 187.934 113.389 187.934 113.789C187.934 114.189 187.934 114.989 187.934 115.189C187.934 115.389 187.934 115.789 187.934 115.989C187.934 116.189 188.034 116.289 188.134 116.589C188.234 116.989 188.334 116.789 188.334 117.289C188.334 117.789 188.434 117.889 188.334 117.989C188.234 118.089 187.434 119.189 187.334 119.489C187.234 119.789 187.134 119.889 186.834 120.189C186.434 120.489 185.934 121.589 185.634 121.689C185.334 121.789 185.134 121.989 185.034 122.189C184.934 122.389 184.634 126.589 184.634 126.589L184.234 128.189L183.634 128.989C183.634 128.989 183.434 129.689 183.234 129.689C183.034 129.689 182.634 130.289 182.434 130.389C182.234 130.489 181.134 131.689 181.134 131.689C181.134 131.689 180.734 132.189 180.534 132.289C180.334 132.389 179.434 138.989 179.434 138.989L178.834 140.889C178.834 140.889 178.434 141.589 178.434 141.789C178.434 141.989 178.134 143.189 177.934 143.489C177.734 143.789 176.934 144.889 176.734 145.089C176.534 145.389 176.334 145.889 176.134 146.189C175.934 146.489 175.534 147.489 175.334 147.789C175.134 148.089 174.734 148.489 174.434 148.889C174.134 149.389 174.034 149.689 173.834 149.989C173.634 150.289 173.434 150.489 173.334 150.689C173.234 150.889 173.034 153.589 173.034 153.589L172.234 155.089L171.834 155.889C171.834 155.889 172.234 156.789 172.134 157.489C172.134 158.189 172.034 158.789 172.034 158.989V159.989C172.034 160.389 171.834 161.589 171.834 161.589C171.834 161.589 171.834 162.589 171.834 163.089V164.189C171.834 164.389 171.834 164.389 171.834 165.189C171.834 165.989 171.834 166.789 171.834 166.789C171.834 166.789 171.834 168.289 171.634 168.589C171.534 168.989 171.434 171.189 171.434 171.189V171.689L162.134 181.589L120.734 171.989L57.6341 157.789L49.4341 156.389L28.9341 131.889L9.83414 108.889L3.33414 100.489V95.0889L3.63407 94.2889C3.63407 94.2889 3.43414 93.8889 3.33414 93.7889C3.23414 93.6889 3.03411 93.4889 2.93411 93.3889C2.93411 93.1889 2.63411 92.8889 2.93411 92.8889C3.23411 92.8889 3.43411 92.9889 3.43411 92.9889V92.5889C3.43411 92.3889 3.43411 91.9889 3.43411 91.6889C3.43411 91.3889 3.43411 90.8889 3.43411 90.8889V90.2889C3.53411 90.2889 3.53411 89.9889 3.43411 89.7889C3.43411 89.5889 3.43411 89.3889 3.43411 89.1889C3.43411 88.9889 3.53411 88.5889 3.43411 88.3889C3.43411 88.1889 3.73411 88.4889 3.43411 88.1889C3.13411 87.8889 3.23407 88.1889 3.13407 87.8889C3.03407 87.5889 2.83407 87.1889 3.13407 87.1889C3.43407 87.1889 3.83414 87.2889 3.83414 87.2889C3.83414 87.2889 4.13414 87.6889 4.33414 87.8889C4.53414 88.0889 4.73414 88.1889 4.83414 88.4889C4.93414 88.7889 5.13407 88.9889 5.13407 89.3889C5.13407 89.7889 5.43414 89.8889 5.33414 90.1889C5.23414 90.4889 5.03409 90.7889 5.03409 90.9889C5.03409 91.2889 5.23404 91.7889 5.23404 92.2889C5.23404 92.7889 5.23407 92.8889 5.13407 93.3889C5.13407 93.8889 5.13407 94.5889 5.13407 94.5889L5.53409 94.7889C5.53409 94.7889 5.33414 95.1889 5.33414 95.3889C5.33414 95.5889 6.03407 95.5889 6.13407 95.3889C6.13407 95.1889 6.43411 94.8889 6.43411 94.8889L6.63407 94.5889H7.13407C7.13407 94.5889 7.33414 94.3889 7.33414 94.1889C7.33414 93.9889 7.33414 93.2889 7.33414 93.2889V92.8889C7.73414 93.2889 7.93411 93.6889 7.93411 93.9889C7.93411 94.2889 7.93409 94.2889 8.03409 94.5889V94.8889C8.13409 94.8889 8.73404 95.2889 8.73404 95.2889C9.13404 95.0889 9.13411 95.1889 9.43411 94.9889C9.73411 94.7889 9.93411 94.4889 9.93411 94.4889C9.93411 94.4889 9.93404 94.3889 9.73404 94.1889V93.9889C9.63404 93.9889 9.43411 93.3889 9.43411 93.3889L9.63407 93.0889C10.0341 92.7889 10.0341 92.5889 10.1341 92.3889C10.1341 92.0889 10.4341 91.8889 10.4341 91.8889C10.8341 91.7889 10.9341 91.6889 11.1341 91.6889C11.3341 91.6889 11.5341 91.4889 11.6341 91.6889C11.8341 91.8889 12.234 91.8889 12.234 92.0889V92.7889C12.234 92.7889 12.0341 93.1889 11.9341 93.3889C11.8341 93.5889 11.8341 94.0889 11.8341 94.0889C12.0341 94.3889 12.1341 93.8889 12.0341 94.3889C12.0341 94.7889 11.9341 94.9889 11.8341 95.1889C11.8341 95.3889 11.8341 94.8889 11.8341 95.3889C11.7341 95.8889 11.834 95.9889 11.734 96.2889C11.634 96.5889 11.7341 96.8889 11.5341 97.1889C11.3341 97.4889 11.5341 98.9889 11.5341 98.9889C11.5341 98.9889 11.8341 99.8889 11.9341 99.9889C12.0341 100.089 12.134 100.689 12.234 100.789C12.234 100.989 12.234 101.789 12.234 102.189C12.234 102.589 12.5341 102.989 12.4341 103.089C12.3341 103.189 12.034 103.589 12.234 103.889C12.434 104.189 12.4341 104.189 12.6341 104.689C12.9341 105.189 13.1341 105.689 13.4341 105.889C13.7341 106.089 14.0341 106.189 14.3341 106.289C14.6341 106.389 14.8341 106.589 15.1341 106.689C15.4341 106.789 16.0341 107.089 16.1341 107.089C16.2341 107.089 16.5341 107.089 16.9341 107.289C17.3341 107.389 17.6341 107.289 17.8341 107.289C18.0341 107.289 18.5341 107.189 18.5341 107.189C18.7341 106.889 18.734 106.589 18.734 106.589C19.134 106.289 19.5341 106.089 19.5341 106.089L19.734 105.689H20.3341C20.3341 105.689 20.534 106.689 20.734 106.689C20.934 106.689 21.734 106.989 21.734 106.989C21.734 106.989 22.4341 106.989 22.6341 106.989C22.8341 106.989 23.234 106.789 23.234 106.789L23.6341 106.489C23.6341 106.489 24.034 106.789 24.234 106.989C24.534 107.189 24.7341 107.389 24.9341 107.489C25.1341 107.589 25.734 107.789 25.734 107.789L26.3341 107.989C26.3341 107.989 26.734 108.189 26.734 107.989C26.734 107.789 26.9341 107.489 26.9341 107.489C26.9341 107.489 27.3341 106.989 27.5341 107.189C27.7341 107.389 27.934 107.789 28.234 107.889C28.534 107.989 28.9341 108.089 28.9341 108.089H29.734H30.1341C30.1341 108.089 32.034 107.989 32.234 107.889C32.434 107.789 32.9341 107.489 32.9341 107.489C32.9341 107.489 33.1341 107.189 33.3341 107.289C33.5341 107.389 34.0341 107.389 34.0341 107.389C34.0341 107.389 34.5341 107.389 34.6341 107.289C34.8341 107.089 35.3341 106.589 35.3341 106.589C35.3341 106.589 35.7341 106.189 35.9341 106.289C36.1341 106.289 36.7341 106.089 36.9341 105.889C37.1341 105.689 37.7341 105.289 37.8341 105.189C37.9341 105.089 38.4341 104.789 38.6341 104.689C38.8341 104.589 39.734 103.989 39.734 103.989C39.734 103.989 40.2341 103.589 40.5341 103.489C40.8341 103.389 41.534 103.189 41.734 103.189C41.934 103.189 41.9341 103.189 42.1341 102.989C42.3341 102.889 42.6341 102.789 42.8341 102.489C43.0341 102.189 43.0341 102.089 43.3341 101.989C43.6341 101.889 43.8341 101.789 43.9341 101.589C44.0341 101.389 44.1341 101.789 43.9341 101.389C43.8341 100.989 44.0341 101.789 43.9341 101.389C43.8341 100.989 44.8341 100.689 44.8341 100.689C44.8341 100.689 45.4341 100.689 45.6341 100.589C45.8341 100.589 46.5341 100.189 46.5341 100.189C46.5341 100.189 46.7341 99.8889 46.9341 99.7889C47.1341 99.6889 47.8341 99.1889 47.8341 99.1889L48.5341 98.9889L49.1341 99.4889V99.1889C49.1341 99.1889 49.734 98.8889 49.734 98.7889C49.734 98.5889 49.7341 98.4889 49.5341 98.2889C49.4341 97.9889 49.3341 97.2889 49.3341 97.2889L49.5341 96.5889V96.0889C49.5341 96.0889 50.034 95.5889 50.234 95.5889C50.434 95.5889 50.8341 95.5889 51.0341 95.5889C51.2341 95.5889 51.5341 95.5889 51.6341 95.7889C51.7341 95.9889 52.3341 96.3889 52.3341 96.3889C52.3341 96.3889 52.8341 96.5889 52.8341 96.7889C52.8341 96.9889 52.8341 97.4889 52.8341 97.4889C52.8341 97.4889 53.2341 97.7889 53.4341 97.8889C53.7341 97.9889 53.9341 98.2889 53.9341 98.2889L54.234 98.5889L55.3341 98.3889L56.1341 98.6889H56.5341L56.9341 98.3889H57.4341C57.6341 98.3889 57.7341 98.6889 57.9341 98.8889C58.1341 99.0889 58.3341 99.2889 58.3341 99.2889C58.3341 99.2889 58.6341 99.2889 58.8341 99.2889C59.1341 99.2889 59.6341 99.3889 59.8341 99.2889C60.0341 99.1889 60.3341 99.2889 60.3341 99.2889L60.6341 98.6889C60.6341 98.6889 61.1341 98.4889 61.3341 98.4889C61.6341 98.4889 62.0341 98.1889 62.0341 98.1889C62.3341 98.3889 62.734 98.8889 62.734 98.8889L63.9341 99.2889C64.3341 98.9889 64.7341 98.4889 64.9341 98.4889C65.1341 98.4889 65.4341 98.3889 65.4341 98.3889L65.9341 99.2889C65.9341 99.2889 66.2341 99.3889 66.3341 99.2889C66.5341 99.1889 66.7341 99.0889 66.9341 98.9889C67.2341 98.8889 67.4341 98.7889 67.6341 98.6889C67.8341 98.5889 67.9341 98.3889 68.0341 98.1889C68.1341 97.8889 68.0341 97.6889 68.3341 97.6889C68.6341 97.6889 68.6341 97.4889 69.0341 97.7889C69.4341 98.0889 69.734 98.5889 69.734 98.5889C69.734 98.5889 70.1341 98.7889 70.3341 98.7889C70.5341 98.7889 70.8341 98.5889 71.0341 98.7889C71.2341 98.9889 71.2341 99.2889 71.4341 99.3889C71.6341 99.4889 71.9341 99.6889 71.9341 99.6889L73.3341 99.3889L74.0341 98.8889C74.0341 98.8889 74.0341 98.7889 74.3341 98.8889C74.6341 98.9889 74.9341 98.7889 75.1341 98.6889C75.3341 98.5889 75.5341 98.6889 75.6341 98.4889C75.8341 97.8889 75.5341 97.3889 75.6341 97.3889C76.1341 97.2889 76.2341 97.1889 76.4341 97.2889C76.6341 97.3889 79.234 98.8889 79.234 98.8889L80.5341 99.7889C80.8341 99.9889 81.3341 100.089 81.5341 99.9889C81.8341 99.8889 82.1341 99.7889 82.3341 99.9889C82.5341 100.189 82.7341 100.189 82.9341 100.289C83.1341 100.389 83.234 100.689 83.234 100.889C83.234 101.089 83.4341 101.289 83.4341 101.289C83.4341 101.289 83.8341 101.489 84.0341 101.489C84.2341 101.489 84.534 101.289 84.734 101.289C84.934 101.289 85.2341 101.289 85.4341 101.089C85.6341 100.889 85.7341 100.589 85.9341 100.489C86.1341 100.389 86.4341 100.189 86.6341 100.089C86.9341 99.9889 87.2341 99.8889 87.4341 99.8889C87.6341 99.8889 87.9341 100.089 88.1341 100.089C88.3341 100.089 88.534 100.089 88.734 99.8889C88.934 99.6889 89.1341 99.5889 89.3341 99.3889C89.5341 99.0889 89.7341 99.0889 89.8341 99.0889C90.0341 99.0889 91.5341 99.8889 91.6341 99.8889C91.7341 99.8889 92.5341 100.789 92.5341 100.789H93.234L94.3341 101.089C94.3341 101.089 94.4341 101.489 94.6341 101.689C94.8341 101.889 95.034 102.589 95.234 102.589C95.434 102.589 95.9341 102.889 96.0341 102.989C96.2341 103.089 96.3341 103.489 96.5341 103.389C96.8341 103.289 97.2341 103.489 97.4341 103.389C97.6341 103.389 98.3341 103.189 98.3341 103.189C98.3341 103.189 98.8341 102.989 99.0341 102.989H99.734C99.934 102.989 100.534 102.789 100.534 102.789L101.334 102.589C101.334 102.589 101.934 102.089 102.034 102.089C102.134 102.089 102.634 102.089 102.834 102.289C103.034 102.389 103.434 102.889 103.434 102.889H104.334C104.634 102.889 105.434 102.589 105.734 102.689C105.934 102.689 106.734 102.789 106.834 102.789C106.934 102.789 107.434 102.889 107.634 102.989C107.934 102.989 108.334 103.089 108.634 102.989C108.934 102.989 109.234 102.689 109.534 102.689C109.834 102.689 110.334 102.889 110.534 102.689C110.734 102.489 114.734 101.089 114.734 101.089L116.534 100.489C116.534 100.489 117.534 99.5889 117.734 99.6889C117.934 99.7889 118.234 99.6889 118.234 99.6889L120.834 99.1889L122.234 98.1889H122.734C122.734 98.1889 123.134 98.0889 123.234 97.8889C123.334 97.6889 124.034 96.7889 124.034 96.7889C124.034 96.7889 124.234 96.2889 124.434 96.1889C124.734 96.1889 125.134 95.9889 125.134 95.9889C125.134 95.9889 125.334 95.3889 125.134 94.9889C124.934 94.5889 124.934 93.9889 124.734 94.0889C124.534 94.1889 124.134 93.6889 123.934 93.6889C123.734 93.6889 123.734 93.6889 123.434 93.4889C123.134 93.2889 122.534 92.9889 122.534 92.9889C122.534 92.9889 122.034 92.7889 121.934 92.6889C121.834 92.4889 121.534 92.4889 121.534 92.3889C121.534 92.2889 121.534 92.1889 121.234 92.0889C120.934 91.9889 120.734 91.9889 120.534 92.0889C120.234 92.0889 120.534 92.3889 120.234 92.0889C119.934 91.8889 120.334 91.4889 120.334 91.4889C120.334 91.4889 120.634 91.2889 120.634 91.0889C120.634 90.8889 120.534 90.7889 120.534 90.5889C120.534 90.3889 120.734 90.0889 120.834 90.0889C121.034 90.0889 121.534 89.8889 121.634 89.6889C121.834 89.4889 122.134 89.2889 122.134 89.2889L123.134 91.1889L125.134 93.3889L126.434 94.5889H127.034C127.034 94.5889 128.134 94.7889 128.334 94.7889C128.534 94.7889 128.934 94.3889 129.234 94.2889C129.534 94.2889 129.934 93.9889 130.134 93.9889C130.334 93.9889 130.534 94.0889 130.734 94.1889C130.934 94.2889 131.234 94.3889 131.434 94.3889C131.634 94.3889 132.134 94.3889 132.234 94.2889C132.334 94.0889 132.634 93.5889 132.634 93.5889C132.634 93.5889 132.834 92.9889 133.034 92.7889C133.234 92.5889 133.434 92.4889 133.734 92.2889C134.034 91.9889 134.334 92.0889 134.734 91.5889C135.134 91.0889 135.434 90.9889 135.634 90.6889C135.834 90.3889 136.134 90.0889 136.334 89.9889C136.534 89.8889 137.034 89.4889 137.034 89.4889L137.234 88.3889C137.234 88.3889 137.534 87.6889 137.534 87.4889C137.534 87.2889 137.434 86.6889 137.534 86.4889C137.634 86.2889 137.934 85.9889 138.134 85.9889C138.334 85.9889 138.934 86.1889 139.134 86.1889C139.334 86.1889 139.834 86.0889 139.934 85.8889C140.034 85.6889 140.234 86.1889 140.034 85.6889C139.834 85.1889 139.534 84.9889 139.334 85.0889C139.034 85.1889 138.734 85.0889 138.734 85.0889C138.734 85.0889 138.634 84.6889 138.834 84.5889H139.034C139.034 84.4889 139.034 84.9889 139.034 84.4889C139.034 83.9889 139.634 83.7889 140.034 83.6889C140.434 83.6889 140.934 83.6889 141.434 83.4889C141.934 83.2889 142.634 83.0889 143.034 83.0889C143.434 83.0889 143.834 82.9889 144.034 82.7889C144.234 82.5889 144.234 82.4889 144.334 82.2889V82.0889C144.434 82.0889 144.034 81.7889 144.034 81.7889H143.434C143.034 81.7889 142.834 81.7889 142.934 81.4889C142.934 81.1889 143.334 80.5889 143.334 80.5889C143.034 80.3889 142.434 80.3889 142.234 80.3889H141.234C140.834 80.3889 140.134 80.2889 139.934 80.1889C139.734 80.1889 139.334 80.0889 139.334 80.0889C139.334 80.0889 138.834 80.0889 138.834 79.8889C138.834 79.6889 138.634 79.5889 138.434 79.5889C138.234 79.5889 138.034 78.1889 138.034 78.1889L137.734 77.5889L137.534 76.9889L137.834 76.6889C138.234 76.8889 138.534 77.3889 138.634 77.5889C138.834 77.8889 139.034 78.1889 139.234 78.2889C139.434 78.3889 139.834 78.9889 140.134 78.9889C140.434 78.9889 141.034 78.9889 141.334 78.9889C141.634 78.9889 141.934 78.7889 142.234 78.7889C142.534 78.7889 142.834 78.9889 143.034 78.9889C143.234 78.9889 143.434 78.9889 143.534 78.6889C143.634 78.3889 143.834 78.3889 143.934 78.1889C144.034 77.9889 144.334 77.6889 144.434 77.3889C144.434 77.0889 144.734 77.0889 144.734 76.8889C144.734 76.6889 144.834 76.5889 145.034 76.4889C145.234 76.3889 145.434 76.1889 145.534 76.0889C145.534 75.8889 145.734 75.9889 145.834 75.5889C145.934 75.1889 146.134 75.1889 146.034 74.6889C146.034 74.1889 146.334 74.4889 146.034 74.1889C145.734 73.8889 145.734 73.7889 145.334 73.7889C144.934 73.7889 144.934 73.7889 144.734 73.9889C144.534 74.0889 143.934 74.4889 144.234 73.9889C144.534 73.4889 144.934 73.4889 145.134 73.4889C145.334 73.4889 145.634 73.4889 145.634 73.4889L146.034 73.2889L146.234 72.7889L146.534 72.3889L146.834 71.7889L147.134 71.4889C147.134 71.4889 147.534 70.9889 147.234 70.9889C146.934 70.9889 146.734 70.7889 146.734 70.5889C146.734 70.3889 146.934 69.8889 146.934 69.8889C146.834 69.2889 146.934 68.1889 146.934 68.1889H146.334C146.034 67.9889 146.234 67.6889 146.234 67.6889L146.634 67.2889L146.834 66.8889C146.834 66.8889 146.834 66.3889 147.034 66.2889C147.234 66.1889 147.534 66.4889 147.734 65.9889C147.934 65.5889 148.434 65.2889 148.534 65.0889C148.634 64.8889 149.234 64.5889 149.234 64.2889C149.234 63.9889 149.234 63.6889 149.234 63.6889C150.034 63.6889 150.134 63.6889 150.334 63.6889C150.634 63.7889 150.734 64.0889 151.034 63.8889C151.334 63.6889 151.334 63.4889 151.034 63.2889C150.734 63.0889 150.534 63.1889 150.434 63.0889C150.334 62.9889 150.134 63.0889 150.034 63.0889C149.834 62.9889 149.534 62.6889 149.634 62.5889C149.834 62.4889 149.934 62.5889 150.234 62.3889C150.534 62.1889 150.534 62.5889 150.734 62.3889C150.934 62.1889 151.234 62.0889 151.334 62.3889C151.434 62.6889 151.634 62.9889 151.634 63.0889C151.634 63.2889 151.934 63.2889 151.934 63.4889V63.6889L152.634 63.9889V63.5889L151.634 65.3889Z" fill="#D3EEFB"/>
<path d="M188.734 24.5888C188.734 24.8888 188.434 25.5888 188.434 25.5888C188.134 25.7888 188.434 26.0888 188.434 26.0888C188.834 25.6888 188.734 26.0888 188.834 25.6888C188.934 25.2888 188.834 24.9888 188.834 24.9888L188.634 24.4888L188.734 24.5888Z" fill="#D3EEFB"/>
<path d="M188.634 26.689C188.434 26.889 188.334 27.389 188.334 27.389L188.634 27.789H189.234L188.934 27.289L188.634 26.789V26.689Z" fill="#D3EEFB"/>
<path d="M190.733 24.8889C190.433 25.0889 190.033 25.8889 190.033 25.8889C190.033 25.8889 189.933 26.0889 190.033 26.1889C190.133 26.2889 190.333 26.1889 190.333 26.1889L190.933 25.5889L190.733 24.8889Z" fill="#D3EEFB"/>
<path d="M191.333 23.3889L190.732 23.9889C190.932 24.2889 191.333 24.5889 191.333 24.5889L191.532 23.9889L191.333 23.3889Z" fill="#D3EEFB"/>
<path d="M163.433 9.28882C163.433 9.48882 162.033 10.6888 162.033 10.6888L162.433 11.3888C162.433 11.3888 163.333 11.8888 163.333 11.7888C163.333 11.6888 163.633 11.4888 163.633 11.4888L164.033 11.0888C164.033 11.0888 164.333 10.5888 164.033 10.3888C163.733 10.1888 163.333 9.38882 163.333 9.38882L163.433 9.28882Z" fill="#D3EEFB"/>
<path d="M125.632 42.5889C125.432 42.5889 124.532 43.0889 124.532 43.0889C124.532 43.0889 123.932 43.6889 124.232 43.8889C124.532 44.0889 125.132 44.4889 125.132 44.4889L125.632 44.8889L126.032 44.4889C126.032 44.4889 126.032 44.1889 126.032 43.9889C126.032 43.6889 125.632 42.5889 125.632 42.5889Z" fill="#D3EEFB"/>
<path d="M142.733 74.389L143.333 74.089V73.589L143.033 73.089H142.433C142.433 73.089 142.433 72.589 142.133 72.689C141.833 72.789 141.533 73.689 141.533 73.789V74.289L141.133 74.889C141.133 74.889 141.333 75.189 141.433 75.389C141.533 75.589 141.833 75.889 141.933 75.889C142.033 75.889 142.233 76.189 142.233 76.189C142.233 76.189 142.733 75.989 142.833 76.189C142.933 76.389 143.233 76.189 143.233 76.189L142.833 75.889C142.833 75.889 142.533 75.589 142.533 75.389C142.533 75.189 142.633 74.889 142.633 74.889V74.289L142.733 74.389Z" fill="#D3EEFB"/>
<path d="M140.334 73.8889C140.234 74.0889 139.733 74.7889 139.733 74.7889L138.933 75.0889C138.733 75.4889 139.234 76.1889 139.334 75.9889C139.534 75.7889 139.833 75.6889 140.033 75.6889C140.233 75.6889 140.533 75.4889 140.533 75.4889C140.833 75.2889 140.834 74.9889 140.834 74.9889L140.334 73.8889Z" fill="#D3EEFB"/>
<path d="M139.834 77.0889C139.834 77.0889 138.834 77.3889 139.134 77.3889C139.434 77.3889 139.834 77.6889 139.834 77.6889C139.834 77.6889 140.234 77.8889 140.534 77.9889C140.734 78.0889 140.834 78.1889 140.834 78.1889C141.334 78.1889 141.634 78.1889 141.634 78.1889C141.634 78.1889 141.534 77.6889 141.234 77.6889C140.934 77.6889 139.834 77.1889 139.834 77.1889V77.0889Z" fill="#D3EEFB"/>
<path d="M138.834 78.3889V78.7889L139.034 79.2889H140.234C140.134 78.8889 139.534 78.3889 139.534 78.3889C139.034 78.2889 138.834 78.3889 138.834 78.3889Z" fill="#D3EEFB"/>
<path d="M136.033 78.0888L135.433 78.5888L135.033 78.7888C135.033 78.7888 134.633 78.8888 134.533 78.9888C134.333 79.0888 134.133 79.2888 134.133 79.2888C134.233 79.5888 134.833 79.7888 135.033 79.8888C135.233 79.9888 135.633 80.1888 135.633 80.1888L135.933 80.3888C135.933 80.3888 136.433 80.5888 136.433 80.3888C136.433 79.8888 136.033 79.1888 136.033 79.1888V77.9888V78.0888Z" fill="#D3EEFB"/>
<path d="M138.334 82.0889C138.434 82.4889 138.734 82.5889 138.834 82.6889C139.034 82.7889 139.534 82.8889 139.534 82.9889C139.534 83.0889 140.034 83.2889 140.034 83.2889L140.234 83.5889L140.734 83.7889C140.734 83.7889 140.934 83.9889 141.134 83.7889C141.334 83.5889 141.734 83.5889 141.534 83.3889C141.334 83.1889 140.934 83.0889 140.734 82.9889C140.534 82.9889 140.234 82.9889 140.234 82.9889C140.234 82.9889 140.234 82.7889 139.934 82.6889C139.634 82.5889 139.934 82.6889 139.634 82.5889C139.234 82.4889 138.334 82.0889 138.334 82.0889Z" fill="#D3EEFB"/>
<path d="M139.133 83.289H138.933C138.933 83.289 138.433 83.389 138.433 83.589C138.333 83.889 138.033 83.789 138.033 83.789H137.533C137.533 83.789 137.133 84.189 137.533 84.189H138.633C139.033 84.189 139.133 84.189 139.133 84.189L139.433 83.889C139.833 83.889 139.833 83.689 139.833 83.689C139.633 83.389 139.133 83.189 139.133 83.189V83.289Z" fill="#D3EEFB"/>
<path d="M136.133 81.689L135.633 81.889L136.133 82.389L136.533 82.589H136.933V82.189L136.533 81.689H136.133Z" fill="#D3EEFB"/>
<path d="M133.534 80.9889C133.534 80.9889 133.234 81.2889 133.534 81.3889C133.834 81.4889 134.034 81.3889 134.234 81.6889C134.434 81.8889 134.834 82.1889 134.834 82.1889C135.134 81.9889 135.034 81.4889 134.634 81.5889C134.234 81.6889 134.334 81.0889 134.234 80.9889C134.134 80.9889 133.834 80.5889 133.834 80.5889L133.534 80.9889Z" fill="#D3EEFB"/>
<path d="M132.633 79.3889C132.633 79.3889 132.133 79.5889 132.133 79.6889C132.133 79.8889 132.333 79.9889 132.333 80.0889C132.333 80.1889 132.833 80.3889 132.833 80.3889L132.533 79.3889H132.633Z" fill="#D3EEFB"/>
<path d="M132.134 81.0889C131.934 81.1889 130.934 82.5889 130.934 82.5889L130.434 82.9889L132.534 84.0889C132.534 84.0889 134.534 84.8889 134.934 84.8889C135.334 84.8889 136.234 85.0889 136.334 85.0889C136.334 85.0889 136.834 85.3889 136.934 85.3889C137.034 85.3889 137.234 85.5889 137.234 85.5889C137.534 85.2889 137.234 84.8889 137.234 84.8889C137.234 84.8889 136.534 84.2889 136.434 84.2889C136.434 84.2889 136.134 83.7889 135.934 83.7889C135.734 83.7889 135.334 83.7889 135.234 83.5889C135.134 83.2889 134.834 82.9889 134.734 82.9889C134.734 82.9889 134.734 82.3889 134.534 82.5889C134.234 82.6889 134.234 82.5889 134.034 82.5889C133.834 82.5889 133.734 82.1889 133.434 82.1889C133.134 82.1889 132.834 81.6889 132.834 81.6889C132.834 81.6889 132.434 81.4889 132.434 81.3889C132.434 81.3889 132.834 81.0889 132.434 81.0889H132.034H132.134Z" fill="#D3EEFB"/>
<path d="M130.232 84.3889C130.232 84.5889 130.432 84.7889 130.432 84.9889C130.432 85.1889 130.832 85.2889 130.932 85.2889C131.032 85.2889 131.432 85.6889 131.532 85.6889C131.632 85.6889 132.032 85.5889 132.132 85.6889C132.232 85.7889 132.532 85.9889 132.532 85.9889C132.532 85.9889 132.632 85.7889 132.932 85.9889C133.232 86.1889 133.333 86.1889 133.333 86.1889H133.932L134.333 85.6889C134.333 85.6889 133.433 85.8889 133.333 85.6889C133.333 85.4889 132.632 85.4889 132.532 85.2889C132.432 85.0889 132.432 84.8889 132.132 84.8889C131.832 84.8889 131.632 84.6889 131.632 84.6889L131.032 84.3889C130.732 84.1889 130.432 83.8889 130.432 83.8889L130.232 84.3889Z" fill="#D3EEFB"/>
<path d="M128.232 86.989C128.432 87.089 128.732 87.489 128.932 87.889C129.132 88.289 129.432 88.689 129.432 88.689V89.089C129.432 89.489 129.032 89.689 129.032 89.689L128.732 89.489C128.732 89.489 128.633 90.289 128.833 89.989C129.033 89.689 129.432 89.689 129.432 89.789C129.332 89.689 129.432 89.889 129.432 89.789C129.532 89.889 129.932 89.589 129.932 89.589V89.189C129.932 89.189 130.332 89.089 130.232 88.889V88.689C130.132 88.689 129.833 88.089 129.833 88.089C129.833 88.089 129.832 87.789 129.632 87.689C129.532 87.489 129.332 87.289 129.232 87.289C129.132 87.289 129.132 86.989 128.932 86.989C128.732 86.989 128.232 86.689 128.232 86.689V86.989Z" fill="#D3EEFB"/>
<path d="M125.534 85.689V86.489L124.834 86.789H124.034L123.434 87.189C123.434 87.189 123.434 87.489 123.834 87.589C124.234 87.589 124.134 87.489 124.434 87.589C124.734 87.689 125.234 87.889 125.234 87.889C125.234 87.889 125.534 88.089 125.734 88.189C125.934 88.289 126.034 88.489 126.234 88.589C126.634 88.589 126.234 88.289 126.234 88.189C126.234 88.089 126.434 87.489 126.434 87.489V87.189C126.434 87.189 126.434 86.589 126.434 86.489C126.434 86.389 126.634 86.189 126.434 86.089C126.234 85.989 125.934 85.789 125.934 85.789H125.534V85.689Z" fill="#D3EEFB"/>
<path d="M124.633 88.8888C124.633 88.8888 124.333 89.3888 124.233 89.3888H123.533L122.933 89.6888L122.633 90.5888C122.633 90.5888 122.333 91.0888 122.633 91.0888C122.933 91.0888 123.233 91.0888 123.533 91.0888C123.833 91.0888 124.033 91.2888 124.233 91.4888C124.433 91.6888 124.933 91.8888 124.933 92.0888C124.933 92.2888 124.933 93.0888 124.933 93.0888L125.333 93.3888C125.333 93.3888 125.633 93.3888 125.833 93.3888C126.033 93.3888 126.433 92.8888 126.433 92.8888C126.433 92.8888 126.733 93.0888 126.933 93.0888C127.133 93.0888 127.333 92.9888 127.433 93.0888C127.633 93.1888 128.133 93.1888 128.133 93.1888C128.133 93.1888 128.133 92.9888 128.133 92.7888C128.133 92.5888 128.133 92.2888 127.833 92.1888C127.533 92.0888 127.233 91.7888 126.933 91.5888C126.633 91.3888 126.733 91.2888 126.433 91.0888C126.133 90.8888 125.933 90.6888 125.933 90.4888C125.933 90.2888 125.933 90.4888 125.833 90.0888C125.733 89.6888 125.933 89.5888 125.833 89.3888C125.633 89.1888 125.633 88.9888 125.433 88.9888C125.233 88.9888 125.433 88.7888 125.033 88.7888H124.633V88.8888Z" fill="#D3EEFB"/>
<path d="M118.733 94.789H118.033V95.089L118.733 95.689L119.233 95.989L119.733 96.489L120.133 96.889C120.533 96.789 120.533 96.489 120.533 96.489C120.533 96.489 120.433 96.189 120.233 96.089C120.033 95.989 119.633 95.789 119.633 95.789L119.233 95.289L118.733 94.689V94.789Z" fill="#D3EEFB"/>
<path d="M118.133 96.189V96.789H118.733C119.033 96.789 118.833 96.589 118.733 96.489C118.633 96.389 118.133 96.189 118.133 96.189Z" fill="#D3EEFB"/>
<path d="M115.834 96.4889L115.334 96.7889C115.334 96.7889 114.834 97.0889 115.334 97.1889C115.834 97.2889 116.134 97.3889 116.334 97.3889C116.534 97.3889 116.734 97.0889 116.834 97.3889C116.934 97.6889 117.334 97.9889 117.334 97.9889H117.934C117.934 97.9889 117.934 97.2889 117.934 97.1889C117.934 97.1889 118.733 96.6889 118.133 96.6889C117.533 96.6889 117.133 96.3889 117.133 96.3889C116.633 96.3889 115.733 96.3889 115.733 96.3889L115.834 96.4889Z" fill="#D3EEFB"/>
<path d="M108.034 92.6889C107.834 92.8889 107.434 93.3889 107.434 93.3889C107.434 93.3889 107.334 94.1889 107.434 94.2889C107.534 94.4889 107.934 95.0889 108.034 94.9889C108.134 94.8889 108.834 95.3889 108.834 95.3889C108.834 95.3889 109.234 95.1889 109.434 95.3889C109.634 95.5889 110.034 95.7889 110.134 95.6889C110.334 95.5889 110.634 95.6889 110.934 95.6889C111.234 95.6889 111.334 95.4889 111.634 95.6889C111.934 95.8889 111.934 95.8889 112.134 96.0889C112.334 96.2889 112.434 96.0889 112.634 96.3889C112.834 96.6889 113.134 97.0889 113.134 97.1889C113.234 97.6889 113.334 97.9889 113.134 98.1889C112.934 98.3889 112.834 98.5889 112.534 98.7889C112.134 98.9889 112.034 99.4889 111.734 99.4889C111.434 99.4889 111.034 99.4889 110.734 99.4889C110.434 99.4889 110.234 99.3889 109.934 99.2889C109.634 99.1889 109.534 99.1889 109.334 99.0889C109.034 98.9889 108.934 98.7889 108.734 98.6889C108.434 98.4889 108.234 97.9889 108.134 97.9889C108.034 97.9889 107.534 97.6889 107.534 97.5889C107.534 97.4889 107.334 97.0889 107.134 97.1889C106.934 97.1889 106.534 97.4889 106.434 97.6889C106.334 97.8889 106.434 98.2889 106.434 98.3889C106.434 98.4889 106.434 98.9889 106.434 98.9889C106.434 98.9889 106.734 99.1889 106.434 99.2889C106.134 99.3889 105.734 99.7889 105.534 99.7889C105.334 99.7889 105.134 99.7889 104.734 99.7889C104.334 99.7889 103.634 100.089 103.334 99.9889C103.034 99.8889 102.634 99.6889 102.634 99.6889C102.134 99.1889 102.034 98.8889 101.834 98.8889C101.634 98.8889 101.534 98.6889 101.134 98.5889C100.734 98.3889 100.334 97.9889 100.334 97.9889H99.7335C99.5335 97.9889 98.5336 98.4889 98.5336 98.4889C98.5336 98.4889 97.8335 98.3889 97.7335 98.2889C97.5335 98.1889 97.4336 97.9889 97.4336 97.9889V97.4889C97.4336 97.4889 97.8336 97.4889 98.0336 97.1889C98.2336 96.9889 98.6336 97.0889 98.8336 96.6889C99.1336 96.3889 99.0336 96.1889 99.3336 96.2889C99.6336 96.3889 99.8335 96.4889 100.134 96.2889C100.434 96.0889 100.734 96.1889 100.834 95.9889C100.934 95.7889 100.034 96.1889 101.034 95.5889C101.934 94.9889 102.234 94.5889 102.234 94.5889C102.734 94.6889 102.734 94.7889 103.034 94.8889C103.334 94.9889 103.434 95.0889 103.634 94.8889C103.834 94.6889 103.934 94.8889 104.234 94.5889C104.534 94.1889 104.634 93.9889 104.934 93.9889C105.234 93.9889 106.034 94.1889 106.134 94.0889C106.134 93.9889 106.334 93.8889 106.534 93.8889C106.734 93.8889 106.934 93.4889 106.934 93.4889L107.134 93.2889C107.334 92.7889 107.534 92.5889 107.534 92.5889H108.334L108.034 92.6889Z" fill="#D3EEFB"/>
<path d="M96.3341 90.3889C96.3341 90.3889 95.834 90.1889 95.734 90.3889C95.634 90.5889 95.3341 90.4889 95.5341 90.7889C95.7341 91.0889 95.9341 91.3889 95.9341 91.3889H96.3341L96.734 91.0889L96.3341 90.3889Z" fill="#D3EEFB"/>
<path d="M87.3328 94.789L86.4327 95.489C86.2327 95.889 86.6327 96.489 86.9327 96.389C87.2327 96.389 87.4327 96.589 87.6327 96.389C87.8327 96.289 88.3328 96.089 88.3328 96.089V95.689C88.3328 95.489 88.7328 94.889 88.3328 94.989C87.9328 95.089 87.3328 94.689 87.3328 94.689V94.789Z" fill="#D3EEFB"/>
<path d="M73.0332 89.2888C72.8332 89.2888 71.9332 89.2888 71.9332 89.2888L71.5332 90.0888C71.5332 90.0888 71.7332 90.8888 71.9332 90.7888C72.1332 90.7888 72.8333 90.5888 72.8333 90.5888L73.2332 90.2888V89.5888L73.0332 89.2888Z" fill="#D3EEFB"/>
<path d="M49.2339 92.389L48.2339 91.4889V90.9889C48.2339 90.9889 48.6339 90.589 48.5339 90.189C48.4339 89.789 48.2339 89.489 48.2339 89.189C48.2339 88.889 48.1339 88.6889 48.2339 88.4889C48.3339 88.2889 48.6339 87.989 49.0339 88.089C49.4339 88.089 50.3339 88.289 50.5339 88.289C50.7339 88.289 51.0339 88.2889 51.2339 88.4889C51.4339 88.6889 51.8339 89.089 52.0339 89.389C52.2339 89.689 52.7339 89.889 52.5339 90.189C52.3339 90.489 51.8339 91.089 51.6339 91.189C51.4339 91.289 51.0339 91.789 51.0339 91.789L50.834 92.389C50.834 92.389 50.434 92.089 50.334 92.389C50.134 92.689 50.534 92.489 50.334 92.789C50.134 93.089 50.0339 93.4889 50.0339 93.4889H49.7339C49.7339 93.4889 49.534 94.089 49.334 94.089C49.134 94.089 48.934 93.4889 48.934 93.4889L49.2339 92.789V92.389Z" fill="#D3EEFB"/>
<path d="M77.9335 90.2888L77.2334 90.5888C77.2334 90.5888 77.0334 90.7888 77.2334 91.0888C77.4334 91.3888 77.8335 91.6888 77.9335 91.6888C78.3335 91.8888 78.5335 91.6888 78.5335 91.6888L78.0335 90.5888L77.8335 90.2888H77.9335Z" fill="#D3EEFB"/>
<path d="M79.334 91.7889C79.534 91.7889 79.8339 92.2889 80.0339 92.4889C80.2339 92.6889 80.6339 92.6889 80.6339 92.6889L81.0339 92.1889V91.5889C81.0339 91.5889 81.5339 91.2889 81.6339 91.3889C81.7339 91.4889 82.0339 91.6889 82.2339 91.7889C82.4339 91.8889 82.834 91.7889 82.934 91.9889C83.034 92.1889 83.134 92.6889 83.334 92.6889C83.534 92.6889 83.7339 92.9889 83.7339 92.9889C84.0339 92.6889 84.034 91.8889 83.934 91.7889C83.834 91.6889 83.934 91.0889 83.934 91.0889C84.334 90.9889 84.6339 90.7889 84.6339 90.7889C84.6339 90.7889 85.0339 90.0889 84.6339 90.2889C84.2339 90.4889 83.9339 90.1889 83.6339 90.2889C83.3339 90.3889 82.9339 90.9889 82.7339 90.7889C82.5339 90.5889 82.3339 90.9889 82.1339 90.7889C81.8339 90.5889 82.334 90.5889 81.834 90.5889C81.434 90.5889 81.4339 90.7889 81.1339 90.7889C80.7339 90.7889 80.7339 90.9889 80.5339 90.8889C80.3339 90.8889 80.0339 90.9889 80.0339 90.9889C79.6339 91.1889 79.334 91.6889 79.334 91.6889V91.7889Z" fill="#D3EEFB"/>
<path d="M93.7334 96.189C93.7334 96.189 93.3334 95.789 93.2334 96.189C93.2334 96.589 93.0334 96.689 93.2334 96.789C93.4334 96.989 93.7334 96.789 93.7334 96.789V96.189Z" fill="#D3EEFB"/>
<path d="M21.5338 96.189C21.5338 96.189 21.1338 97.389 21.1338 97.589C21.1338 97.789 20.9338 98.289 21.1338 98.389C21.3338 98.489 21.3338 98.589 21.5338 98.389C21.7338 98.189 22.0338 97.889 22.0338 97.689C22.0338 97.489 22.0338 97.189 22.0338 96.989C22.0338 96.789 22.1338 96.589 22.0338 96.489C21.9338 96.289 21.5338 96.189 21.5338 96.189Z" fill="#D3EEFB"/>
<path d="M22.0327 93.5889C21.9327 93.7889 21.4327 94.5889 21.5327 94.7889C21.6327 94.9889 22.0327 95.4889 22.0327 95.4889H22.4327C22.4327 95.4889 22.9327 95.2889 22.9327 95.0889C22.9327 94.8889 22.9327 94.4889 22.9327 94.3889C22.9327 94.1889 22.9327 93.9889 22.9327 93.9889C22.6327 93.5889 22.1327 93.5889 22.1327 93.5889H22.0327Z" fill="#D3EEFB"/>
<path d="M8.73315 75.7888C8.43315 75.9888 8.0332 76.5888 8.0332 76.5888L8.43323 77.0888C8.43323 77.0888 8.8332 77.2888 9.0332 77.0888C9.2332 76.8888 9.5332 76.4888 9.5332 76.4888C9.5332 76.4888 9.7332 76.2888 9.5332 76.1888C9.3332 76.0888 8.83325 75.7888 8.83325 75.7888H8.73315Z" fill="#D3EEFB"/>
<path d="M0.833407 84.7888C0.633407 84.8888 0.133333 85.3888 0.133333 85.3888C0.133333 85.3888 -0.166667 85.5888 0.133333 85.6888C0.433333 85.7888 0.633407 85.8888 0.833407 85.6888C1.03341 85.4888 1.93338 85.6888 1.43338 85.2888L0.833407 84.7888Z" fill="#D3EEFB"/>
<path d="M42.3336 100.089C42.1336 100.289 41.9336 100.889 41.9336 100.889C42.3336 101.189 42.6335 101.189 42.6335 101.189C42.6335 101.189 42.8336 100.789 42.8336 100.689C42.8336 100.589 42.3336 100.189 42.3336 100.189V100.089Z" fill="#D3EEFB"/>
<path d="M171.934 52.6888C171.734 52.6888 171.534 52.3888 171.334 52.1888C169.034 49.5888 165.534 44.5888 164.934 41.1888C164.034 36.0888 168.634 31.7888 173.734 32.9888C177.434 33.8888 179.734 37.4888 179.134 41.1888C178.534 44.5888 175.134 49.6888 172.734 52.1888C170.334 54.6888 172.434 52.5888 172.134 52.6888H171.834H171.934ZM171.934 36.3888C169.134 36.4888 167.534 39.6888 169.134 42.0888C170.734 44.4888 174.434 43.9888 175.434 41.2888C176.334 38.8888 174.534 36.1888 171.934 36.3888Z" fill="#ED3983"/>
<path d="M192.533 27.9889C192.333 27.9889 192.133 27.6889 191.933 27.4889C189.633 24.8889 186.133 19.8889 185.533 16.4889C184.633 11.3889 189.233 7.08887 194.333 8.28887C198.033 9.18887 200.333 12.7889 199.733 16.4889C199.133 19.8889 195.733 24.9889 193.333 27.4889C193.133 27.6889 193.033 27.8889 192.733 27.9889H192.433H192.533ZM192.533 11.6889C189.733 11.7889 188.133 14.9889 189.733 17.3889C191.333 19.7889 195.033 19.2889 196.033 16.5889C196.933 14.1889 195.133 11.4889 192.533 11.6889Z" fill="#ED3983"/>
<path d="M184.434 34.8888C184.234 34.8888 184.034 34.5888 183.834 34.3888C181.534 31.7888 178.034 26.7888 177.434 23.3888C176.534 18.2888 181.134 13.9888 186.234 15.1888C189.934 16.0888 192.234 19.6888 191.634 23.3888C191.034 27.0888 187.634 31.8888 185.234 34.3888C182.834 36.8888 184.934 34.7888 184.634 34.8888H184.334H184.434ZM184.434 18.5888C181.634 18.6888 180.034 21.8888 181.634 24.2888C183.234 26.6888 186.934 26.1888 187.934 23.4888C188.934 20.7888 187.034 18.3888 184.434 18.5888Z" fill="#ED3983"/>
</svg>
