<svg width="96" height="96" viewBox="0 0 96 96" fill="none" xmlns="http://www.w3.org/2000/svg">
<path d="M43.9491 90.8167C37.7502 90.8167 32.2099 89.8481 27.3283 87.9109C22.4466 85.8963 18.5723 83.1455 15.7053 79.6586C12.9158 76.1718 11.5211 72.2587 11.5211 67.9195C11.5211 63.6577 12.4509 59.8609 14.3106 56.529C16.2477 53.1971 19.1922 50.1364 23.144 47.3469C27.1733 44.5574 32.2874 41.8841 38.4863 39.3271C42.5931 37.5449 45.8087 35.9564 48.1333 34.5617C50.4579 33.1669 52.0851 31.8496 53.015 30.6099C54.0223 29.2926 54.5259 27.9753 54.5259 26.6581C54.5259 25.0309 53.9835 23.7136 52.8987 22.7063C51.8139 21.6989 50.1867 21.1953 48.0171 21.1953C45.77 21.1953 43.9878 21.7764 42.6705 22.9387C41.4308 24.101 40.8109 25.5345 40.8109 27.2392C40.8109 28.2465 41.0046 29.2538 41.392 30.2612C41.8569 31.2685 42.7093 32.4308 43.9491 33.7481C45.2663 35.0653 47.0873 36.77 49.4118 38.8621L92.3005 76.9854L80.4451 90.5842L32.0937 47.4631C29.4591 45.1385 27.2895 42.8914 25.5848 40.7218C23.9576 38.5522 22.7178 36.3826 21.8655 34.213C21.0906 32.0434 20.7032 29.835 20.7032 27.5879C20.7032 23.4036 21.8267 19.7618 24.0738 16.6623C26.321 13.4854 29.4979 11.0446 33.6047 9.33989C37.7114 7.5577 42.5156 6.66661 48.0171 6.66661C53.0537 6.66661 57.4317 7.44147 61.151 8.9912C64.9478 10.5409 67.8923 12.788 69.9844 15.7325C72.0766 18.677 73.1226 22.1639 73.1226 26.1931C73.1226 29.7575 72.1928 33.0119 70.3331 35.9564C68.5509 38.9009 65.7614 41.6129 61.9646 44.0925C58.2453 46.572 53.4799 49.0128 47.6684 51.4149C44.104 52.8872 41.237 54.3594 39.0674 55.8316C36.9753 57.3039 35.4643 58.8148 34.5345 60.3646C33.6047 61.8368 33.1397 63.5415 33.1397 65.4787C33.1397 67.0284 33.6434 68.4619 34.6507 69.7792C35.658 71.0964 37.0915 72.1425 38.9512 72.9173C40.8109 73.6147 43.0192 73.9634 45.5763 73.9634C50.0705 73.9634 54.216 72.8786 58.0128 70.709C61.8096 68.4619 65.0641 65.2075 67.7761 60.9457C70.5656 56.684 72.464 51.5311 73.4713 45.4872L91.2544 50.8338C89.5497 58.8148 86.4503 65.7886 81.9561 71.7551C77.5394 77.7215 72.0766 82.4094 65.5677 85.8188C59.1364 89.1507 51.9301 90.8167 43.9491 90.8167Z" fill="url(#paint0_linear_8781_1710)"/>
<path d="M39.992 90.8167C33.7931 90.8167 28.2529 89.8481 23.3712 87.9109C18.4896 85.8963 14.6153 83.1455 11.7483 79.6586C8.9588 76.1718 7.56405 72.2587 7.56405 67.9195C7.56405 63.6577 8.49388 59.8609 10.3536 56.529C12.2907 53.1971 15.2352 50.1364 19.187 47.3469C23.2163 44.5574 28.3304 41.8841 34.5293 39.3271C38.636 37.5449 41.8517 35.9564 44.1763 34.5617C46.5009 33.1669 48.1281 31.8496 49.0579 30.6099C50.0652 29.2926 50.5689 27.9753 50.5689 26.6581C50.5689 25.0309 50.0265 23.7136 48.9417 22.7063C47.8569 21.6989 46.2297 21.1953 44.0601 21.1953C41.813 21.1953 40.0308 21.7764 38.7135 22.9387C37.4737 24.101 36.8538 25.5345 36.8538 27.2392C36.8538 28.2465 37.0476 29.2538 37.435 30.2612C37.8999 31.2685 38.7523 32.4308 39.992 33.7481C41.3093 35.0653 43.1302 36.77 45.4548 38.8621L88.3434 76.9854L76.4881 90.5842L28.1366 47.4631C25.5021 45.1385 23.3325 42.8914 21.6278 40.7218C20.0006 38.5522 18.7608 36.3826 17.9085 34.213C17.1336 32.0434 16.7462 29.835 16.7462 27.5879C16.7462 23.4036 17.8697 19.7618 20.1168 16.6623C22.3639 13.4854 25.5409 11.0446 29.6476 9.33989C33.7544 7.5577 38.5585 6.66661 44.0601 6.66661C49.0967 6.66661 53.4746 7.44147 57.194 8.9912C60.9908 10.5409 63.9353 12.788 66.0274 15.7325C68.1195 18.677 69.1656 22.1639 69.1656 26.1931C69.1656 29.7575 68.2358 33.0119 66.3761 35.9564C64.5939 38.9009 61.8044 41.6129 58.0076 44.0925C54.2882 46.572 49.5228 49.0128 43.7114 51.4149C40.147 52.8872 37.28 54.3594 35.1104 55.8316C33.0183 57.3039 31.5073 58.8148 30.5775 60.3646C29.6476 61.8368 29.1827 63.5415 29.1827 65.4787C29.1827 67.0284 29.6864 68.4619 30.6937 69.7792C31.701 71.0964 33.1345 72.1425 34.9942 72.9173C36.8538 73.6147 39.0622 73.9634 41.6192 73.9634C46.1134 73.9634 50.259 72.8786 54.0558 70.709C57.8526 68.4619 61.107 65.2075 63.8191 60.9457C66.6086 56.684 68.507 51.5311 69.5143 45.4872L87.2974 50.8338C85.5927 58.8148 82.4932 65.7886 77.999 71.7551C73.5823 77.7215 68.1195 82.4094 61.6107 85.8188C55.1793 89.1507 47.9731 90.8167 39.992 90.8167Z" fill="url(#paint1_linear_8781_1710)"/>
<path d="M36.0311 90.8167C29.8322 90.8167 24.2919 89.8481 19.4103 87.9109C14.5287 85.8963 10.6544 83.1455 7.78737 79.6586C4.99786 76.1718 3.60311 72.2587 3.60311 67.9195C3.60311 63.6577 4.53294 59.8609 6.39261 56.529C8.32977 53.1971 11.2742 50.1364 15.226 47.3469C19.2553 44.5574 24.3694 41.8841 30.5683 39.3271C34.6751 37.5449 37.8908 35.9564 40.2154 34.5617C42.5399 33.1669 44.1672 31.8496 45.097 30.6099C46.1043 29.2926 46.608 27.9753 46.608 26.6581C46.608 25.0309 46.0656 23.7136 44.9808 22.7063C43.896 21.6989 42.2687 21.1953 40.0991 21.1953C37.852 21.1953 36.0698 21.7764 34.7526 22.9387C33.5128 24.101 32.8929 25.5345 32.8929 27.2392C32.8929 28.2465 33.0866 29.2538 33.4741 30.2612C33.939 31.2685 34.7913 32.4308 36.0311 33.7481C37.3484 35.0653 39.1693 36.77 41.4939 38.8621L84.3825 76.9854L72.5271 90.5842L24.1757 47.4631C21.5412 45.1385 19.3716 42.8914 17.6669 40.7218C16.0397 38.5522 14.7999 36.3826 13.9475 34.213C13.1727 32.0434 12.7852 29.835 12.7852 27.5879C12.7852 23.4036 13.9088 19.7618 16.1559 16.6623C18.403 13.4854 21.5799 11.0446 25.6867 9.33989C29.7935 7.5577 34.5976 6.66661 40.0991 6.66661C45.1357 6.66661 49.5137 7.44147 53.233 8.9912C57.0299 10.5409 59.9743 12.788 62.0665 15.7325C64.1586 18.677 65.2047 22.1639 65.2047 26.1931C65.2047 29.7575 64.2748 33.0119 62.4152 35.9564C60.633 38.9009 57.8435 41.6129 54.0467 44.0925C50.3273 46.572 45.5619 49.0128 39.7504 51.4149C36.1861 52.8872 33.3191 54.3594 31.1495 55.8316C29.0573 57.3039 27.5464 58.8148 26.6165 60.3646C25.6867 61.8368 25.2218 63.5415 25.2218 65.4787C25.2218 67.0284 25.7254 68.4619 26.7328 69.7792C27.7401 71.0964 29.1736 72.1425 31.0332 72.9173C32.8929 73.6147 35.1013 73.9634 37.6583 73.9634C42.1525 73.9634 46.298 72.8786 50.0949 70.709C53.8917 68.4619 57.1461 65.2075 59.8581 60.9457C62.6476 56.684 64.546 51.5311 65.5534 45.4872L83.3364 50.8338C81.6317 58.8148 78.5323 65.7886 74.0381 71.7551C69.6214 77.7215 64.1586 82.4094 57.6498 85.8188C51.2184 89.1507 44.0122 90.8167 36.0311 90.8167Z" fill="url(#paint2_linear_8781_1710)"/>
<path style="mix-blend-mode:overlay" d="M36.2498 91.6272C30.0509 91.6272 24.5107 90.6586 19.6291 88.7215C14.7474 86.7068 10.8731 83.9561 8.00612 80.4692C5.21661 76.9823 3.82186 73.0693 3.82186 68.73C3.82186 64.4683 4.75169 60.6715 6.61136 57.3396C8.54852 54.0076 11.493 50.9469 15.4448 48.1574C19.4741 45.3679 24.5882 42.6947 30.7871 40.1376C34.8938 38.3554 38.1095 36.767 40.4341 35.3722C42.7587 33.9775 44.3859 32.6602 45.3157 31.4204C46.3231 30.1031 46.8267 28.7859 46.8267 27.4686C46.8267 25.8414 46.2843 24.5241 45.1995 23.5168C44.1147 22.5095 42.4875 22.0058 40.3179 22.0058C38.0708 22.0058 36.2886 22.587 34.9713 23.7493C33.7315 24.9116 33.1117 26.3451 33.1117 28.0498C33.1117 29.0571 33.3054 30.0644 33.6928 31.0717C34.1577 32.079 35.0101 33.2413 36.2498 34.5586C37.5671 35.8759 39.388 37.5806 41.7126 39.6727L84.6013 77.7959L72.7459 91.3948L24.3945 48.2737C21.7599 45.9491 19.5903 43.702 17.8856 41.5324C16.2584 39.3627 15.0186 37.1931 14.1663 35.0235C13.3914 32.8539 13.004 30.6455 13.004 28.3984C13.004 24.2142 14.1275 20.5723 16.3746 17.4729C18.6217 14.2959 21.7987 11.8551 25.9054 10.1504C30.0122 8.36825 34.8164 7.47716 40.3179 7.47716C45.3545 7.47716 49.7325 8.25202 53.4518 9.80174C57.2486 11.3515 60.1931 13.5986 62.2852 16.543C64.3774 19.4875 65.4234 22.9744 65.4234 27.0037C65.4234 30.5681 64.4936 33.8225 62.6339 36.767C60.8517 39.7114 58.0622 42.4235 54.2654 44.903C50.5461 47.3826 45.7807 49.8234 39.9692 52.2255C36.4048 53.6977 33.5378 55.1699 31.3682 56.6422C29.2761 58.1144 27.7651 59.6254 26.8353 61.1751C25.9054 62.6474 25.4405 64.3521 25.4405 66.2892C25.4405 67.8389 25.9442 69.2724 26.9515 70.5897C27.9588 71.907 29.3923 72.953 31.252 73.7279C33.1117 74.4253 35.32 74.774 37.8771 74.774C42.3713 74.774 46.5168 73.6891 50.3136 71.5195C54.1104 69.2724 57.3648 66.018 60.0769 61.7563C62.8664 57.4945 64.7648 52.3417 65.7721 46.2978L83.5552 51.6443C81.8505 59.6254 78.7511 66.5992 74.2568 72.5656C69.8401 78.532 64.3774 83.22 57.8685 86.6293C51.4372 89.9613 44.2309 91.6272 36.2498 91.6272Z" fill="url(#paint3_linear_8781_1710)"/>
<defs>
<linearGradient id="paint0_linear_8781_1710" x1="52.2137" y1="-3.52885" x2="52.1478" y2="98.4889" gradientUnits="userSpaceOnUse">
<stop stop-color="#9A3504"/>
<stop offset="0.07" stop-color="#F0A900"/>
<stop offset="0.1" stop-color="#C57D10"/>
<stop offset="0.17" stop-color="#C67E12"/>
<stop offset="0.19" stop-color="#C78219"/>
<stop offset="0.21" stop-color="#CB8924"/>
<stop offset="0.23" stop-color="#CF9435"/>
<stop offset="0.24" stop-color="#D5A14B"/>
<stop offset="0.25" stop-color="#DDB167"/>
<stop offset="0.26" stop-color="#E6C587"/>
<stop offset="0.27" stop-color="#F0DCAD"/>
<stop offset="0.28" stop-color="#FFFCE2"/>
<stop offset="0.34" stop-color="#F2D457"/>
<stop offset="0.39" stop-color="#F2D459"/>
<stop offset="0.4" stop-color="#F3D660"/>
<stop offset="0.41" stop-color="#F4D96B"/>
<stop offset="0.42" stop-color="#F5DE7C"/>
<stop offset="0.43" stop-color="#F7E392"/>
<stop offset="0.44" stop-color="#FBF2CE"/>
<stop offset="0.45" stop-color="white"/>
<stop offset="0.48" stop-color="#FFFEFC"/>
<stop offset="0.49" stop-color="#FEFBF3"/>
<stop offset="0.51" stop-color="#FDF5E2"/>
<stop offset="0.52" stop-color="#FBEDCC"/>
<stop offset="0.54" stop-color="#F8E2AF"/>
<stop offset="0.55" stop-color="#F5D68B"/>
<stop offset="0.56" stop-color="#F1C760"/>
<stop offset="0.57" stop-color="#EDB530"/>
<stop offset="0.58" stop-color="#ECB123"/>
<stop offset="0.71" stop-color="#AB5800"/>
<stop offset="0.75" stop-color="#AC5A02"/>
<stop offset="0.77" stop-color="#B06107"/>
<stop offset="0.78" stop-color="#B86E10"/>
<stop offset="0.79" stop-color="#C2801D"/>
<stop offset="0.8" stop-color="#D0982E"/>
<stop offset="0.81" stop-color="#E0B442"/>
<stop offset="0.82" stop-color="#EDCB53"/>
<stop offset="0.88" stop-color="#E7D297"/>
<stop offset="0.91" stop-color="#813C01"/>
<stop offset="0.96" stop-color="#FEFBE4"/>
<stop offset="1" stop-color="#DBA535"/>
</linearGradient>
<linearGradient id="paint1_linear_8781_1710" x1="6.97467" y1="10.8949" x2="96.594" y2="99.3007" gradientUnits="userSpaceOnUse">
<stop stop-color="#FEFBE4"/>
<stop offset="0.07" stop-color="#FDF7DA"/>
<stop offset="0.19" stop-color="#CB9F4C"/>
<stop offset="0.43" stop-color="#ECB123"/>
<stop offset="0.58" stop-color="#813C01"/>
<stop offset="0.77" stop-color="#FDF7DA"/>
<stop offset="0.81" stop-color="#EDCB53"/>
<stop offset="0.88" stop-color="#9F3C06"/>
<stop offset="1" stop-color="#FEFBE4"/>
</linearGradient>
<linearGradient id="paint2_linear_8781_1710" x1="6.47811" y1="0.205124" x2="61.8292" y2="98.1614" gradientUnits="userSpaceOnUse">
<stop stop-color="#B77918"/>
<stop offset="0.05" stop-color="#CCA03F"/>
<stop offset="0.13" stop-color="#E7D373"/>
<stop offset="0.18" stop-color="#F9F393"/>
<stop offset="0.22" stop-color="#FFFF9F"/>
<stop offset="0.28" stop-color="#FFF293"/>
<stop offset="0.37" stop-color="#FED87A"/>
<stop offset="0.42" stop-color="#F1C86B"/>
<stop offset="0.49" stop-color="#E5BA5E"/>
<stop offset="0.54" stop-color="#E1B55A"/>
<stop offset="0.6" stop-color="#E8C66A"/>
<stop offset="0.7" stop-color="#FAF293"/>
<stop offset="0.73" stop-color="#FFFF9F"/>
<stop offset="0.75" stop-color="#F9F494"/>
<stop offset="0.83" stop-color="#DDBF5F"/>
<stop offset="0.91" stop-color="#C89938"/>
<stop offset="0.96" stop-color="#BC8221"/>
<stop offset="1" stop-color="#B77918"/>
</linearGradient>
<linearGradient id="paint3_linear_8781_1710" x1="30.0808" y1="101.634" x2="57.9399" y2="-23.5457" gradientUnits="userSpaceOnUse">
<stop stop-color="#4F4648"/>
<stop offset="0.26" stop-color="#736C6E"/>
<stop offset="0.76" stop-color="#B5B3B3"/>
<stop offset="1" stop-color="#CFCFCF"/>
</linearGradient>
</defs>
</svg>
