<svg width="72" height="51" viewBox="0 0 72 51" fill="none" xmlns="http://www.w3.org/2000/svg">
<path d="M48.8557 18.5084L48.9626 18.0731L49.3738 18.0744C49.6176 20.9803 50.6681 23.778 52.4127 26.1679C52.4127 26.1679 42.9385 26.9958 43.291 26.0845C44.8304 23.3508 46.6982 20.8079 48.8557 18.5084V18.5084Z" fill="#D18819"/>
<path d="M9.8211 16.976L10.849 16.9791C10.849 16.9791 11.8188 18.2651 12.4734 19.2118C14.7648 21.5307 16.6873 24.1689 18.1757 27.0368L12.3934 27.3872C12.436 25.8011 12.5049 20.3921 9.8211 16.976Z" fill="#D18819"/>
<path d="M63.7741 18.7934L65.3822 17.1678L66.4101 17.1709C63.8066 20.5975 63.9883 25.9808 64.0728 27.5732L58.2791 27.185C59.6838 24.3669 61.5128 21.773 63.7064 19.4877L63.7741 18.7934Z" fill="#D18819"/>
<path d="M27.3524 18.0005L27.3812 18.4067C29.6307 20.7303 31.5883 23.3053 33.2117 26.0761C33.603 26.9954 24.0975 26.1193 24.0975 26.1193C25.7803 23.7528 26.7646 20.9767 26.9453 18.0876L27.3524 18.0005Z" fill="#D18819"/>
<path d="M57.5921 27.1646C58.653 24.4691 62.71 18.8425 65.4176 17.1378C62.9048 20.5618 63.0864 25.9451 63.1709 27.5375C63.1467 27.5315 57.6856 27.1502 57.5921 27.1646ZM51.8731 26.1585C50.1739 23.7666 49.1486 20.9886 48.9011 18.1064C46.6122 20.5187 44.6543 23.211 43.0753 26.1173C42.7223 26.9786 51.8488 26.1526 51.8488 26.1526L51.8731 26.1585ZM13.3301 27.3904C13.3726 25.8043 13.4387 20.407 10.8484 16.9765C13.5887 18.6976 17.782 24.3431 18.9068 27.0393C18.7797 27.0331 13.3301 27.3904 13.3301 27.3904ZM33.3767 26.0793C31.727 23.1605 29.6987 20.4567 27.3424 18.0356C27.1725 20.9195 26.2237 23.6981 24.5916 26.0911C24.5916 26.0911 33.7524 26.9575 33.4339 26.056L33.3767 26.0793Z" fill="url(#paint0_linear_8781_1420)"/>
<path d="M18.1266 15.0745L18.451 15.6906L16.611 13.9163L17.4484 13.91C21.1655 16.4698 25.2594 24.5607 28.9961 24.8427L28.8264 24.8009C25.3679 24.7994 21.6102 18.3753 18.1266 15.0745Z" fill="url(#paint1_linear_8781_1420)"/>
<path d="M61.9393 25.415C61.8195 25.398 61.7017 25.3691 61.5877 25.3285C63.3572 24.6158 63.6732 19.6666 69.2371 15.4955L70.519 15.5111L68.5343 17.5181L66.6049 20.1375L66.1459 19.9124C64.001 22.9902 63.5793 25.5435 61.9393 25.415Z" fill="url(#paint2_linear_8781_1420)"/>
<path d="M57.9293 15.3354C54.5387 18.6685 50.9383 24.8438 47.5289 24.9042L47.3591 24.8625C51.092 24.5323 54.9983 16.5362 58.6578 13.9927L59.5436 13.9983L58.2307 15.5217L57.9293 15.3354Z" fill="url(#paint3_linear_8781_1420)"/>
<path d="M5.70016 15.3141L6.98214 15.3297C12.6374 19.5258 13.0923 24.4773 14.8448 25.1947C14.7319 25.2419 14.6119 25.2714 14.489 25.282C12.8011 25.4535 12.3808 22.7682 10.0353 19.5974L7.40735 16.8437L5.70016 15.3141Z" fill="url(#paint4_linear_8781_1420)"/>
<path d="M38.3336 35.6674C23.9194 35.6682 12.2358 36.5395 12.0299 37.5865C12.1699 34.4527 12.3608 21.9014 5.69902 15.3125C12.1661 19.9201 12.0925 25.4527 14.4758 25.2775C16.859 25.1022 17.8022 17.8623 16.6205 13.8798C20.5617 16.4697 24.9027 24.7585 28.8243 24.8115C32.7459 24.8645 34.489 19.1309 38.0465 13.444C41.7871 19.1529 43.7496 24.824 47.5592 24.862C51.3687 24.8999 55.6643 16.5754 59.5381 13.9972C58.4434 17.9816 59.556 25.2277 61.8797 25.3995C64.2034 25.5713 64.0657 20.0616 70.4352 15.4897C63.9277 22.0359 64.3929 34.5863 64.604 37.7565C64.431 36.6289 52.7242 35.7107 38.3336 35.6674Z" fill="url(#paint5_radial_8781_1420)"/>
<g style="mix-blend-mode:multiply">
<path d="M12.084 37.4379C12.9429 36.4016 24.3557 35.6384 38.3501 35.6717C52.3445 35.705 63.8452 36.5724 64.6516 37.5814C64.6848 37.6165 64.7054 37.661 64.7105 37.7081C64.6758 37.8493 64.4719 37.9987 64.0654 38.1358C64.0885 38.0417 64.1174 37.9241 64.1405 37.83C64.1636 37.7359 64.1608 37.7476 64.1608 37.7476C62.3783 37.0477 53.2083 36.1667 38.4187 36.1251C24.6206 36.0777 15.7285 36.7867 13.184 37.4088C12.9912 37.4612 13.1407 37.5853 13.1943 37.7855C13.248 37.9858 13.2694 38.0036 13.2947 38.1096C12.5308 37.9219 12.1024 37.7293 12.1486 37.5411C12.1158 37.5146 12.093 37.4782 12.084 37.4379V37.4379Z" fill="#A67C52"/>
</g>
<path d="M11.2785 35.7333C11.3198 35.4676 11.4238 35.2156 11.5823 34.9971C11.7408 34.7785 11.9496 34.5993 12.1924 34.4735C13.8806 33.5162 24.907 32.8078 38.306 32.8569C51.6808 32.9001 62.7299 33.6691 64.4338 34.6366C64.6858 34.759 64.9055 34.9371 65.075 35.1565C65.2445 35.3759 65.359 35.6303 65.4094 35.8991C65.4419 36.2699 65.3903 36.6419 65.2584 36.9889C65.1265 37.3358 64.9174 37.6492 64.646 37.9069C64.6667 37.8829 64.6813 37.8545 64.6889 37.8239C64.6964 37.7933 64.6966 37.7613 64.6894 37.7305C64.6843 37.6833 64.6637 37.6389 64.6305 37.6037C63.7634 36.5799 52.3084 35.7361 38.329 35.694L37.0383 35.7137L35.7534 35.7098L34.4686 35.706L33.1837 35.7021L31.9716 35.7161L30.7837 35.7361L29.6201 35.762L28.4807 35.7939L27.3656 35.8317L26.2627 35.8726L25.1961 35.9223L24.1566 35.9663L23.1414 36.0162L21.972 36.0657L21.0325 36.1217L20.1322 36.1749C15.5164 36.4877 12.5255 36.9378 12.105 37.4457C12.0779 37.4831 12.0665 37.5293 12.0732 37.5751C12.0759 37.603 12.0843 37.6303 12.0981 37.6551C12.1119 37.68 12.1307 37.7019 12.1534 37.7195V37.7195C11.8672 37.4695 11.6404 37.1619 11.4892 36.8185C11.3379 36.4752 11.266 36.1046 11.2785 35.7333V35.7333Z" fill="url(#paint6_linear_8781_1420)"/>
<g style="mix-blend-mode:multiply">
<path d="M19.7007 35.879L20.6281 35.82L21.5827 35.7552L22.5707 35.7111L23.5981 35.6641L24.6618 35.6261L25.7526 35.5823L26.8677 35.5445L28.0071 35.5126L29.1707 35.4867L30.3586 35.4667L31.5736 35.4409L32.8613 35.433L34.1491 35.4251L35.4368 35.4172L36.7275 35.3976L38.0909 35.3958C52.0824 35.4409 63.5947 36.2613 64.8816 37.2511C64.7503 37.5079 64.5797 37.7435 64.3756 37.95V37.95C64.3962 37.9259 64.4109 37.8975 64.4184 37.8669C64.4259 37.8364 64.4261 37.8044 64.4189 37.7735C64.4138 37.7264 64.3932 37.6819 64.3601 37.6468C63.493 36.623 52.0379 35.7792 38.0585 35.7371L36.7678 35.7568L35.483 35.7529L34.1981 35.749L32.9132 35.7452L31.7011 35.7592L30.5132 35.7791L29.3496 35.8051L28.2103 35.8369L27.0952 35.8748L25.9922 35.9156L24.9256 35.9654L23.8861 36.0093L22.8709 36.0593L21.9701 36.0624L21.0305 36.1185L20.1302 36.1717C15.5144 36.4845 12.5236 36.9346 12.1031 37.4424C12.0759 37.4799 12.0646 37.5261 12.0713 37.5718C12.0739 37.5998 12.0824 37.6271 12.0962 37.6519C12.11 37.6767 12.1288 37.6986 12.1515 37.7163V37.7163C11.9469 37.5089 11.7705 37.2769 11.6267 37.026C12.1501 36.5185 15.1507 36.1331 19.7007 35.879Z" fill="#C69C6D"/>
</g>
<g style="mix-blend-mode:screen">
<path d="M65.3948 36.2799C65.3435 36.0114 65.2285 35.7574 65.0591 35.5381C64.8898 35.3189 64.6706 35.1406 64.4192 35.0174C62.7153 34.0499 51.6662 33.2809 38.2914 33.2377C24.9166 33.1945 13.8902 33.903 12.1778 34.8543C11.9364 34.9786 11.7286 35.1559 11.5706 35.3724C11.4126 35.5888 11.3086 35.8387 11.2668 36.1023C11.2554 36.1241 11.2495 36.1483 11.2494 36.1729C11.223 36.0196 11.2223 35.8636 11.2472 35.7108C11.2885 35.4451 11.3925 35.1931 11.551 34.9746C11.7096 34.7561 11.9184 34.5769 12.1611 34.451C13.8493 33.4938 24.8757 32.7853 38.2748 32.8345C51.6495 32.8777 62.6987 33.6467 64.4025 34.6141C64.6545 34.7366 64.8742 34.9147 65.0437 35.134C65.2132 35.3534 65.3278 35.6078 65.3781 35.8767C65.3993 36.031 65.4041 36.1869 65.3925 36.3417C65.3863 36.3213 65.3871 36.2996 65.3948 36.2799Z" fill="#A67C52"/>
</g>
<path d="M63.9039 34.8047C63.319 34.6235 62.7237 34.4773 62.1214 34.3667C61.5272 34.2208 60.8856 34.1629 60.3013 34.0817C59.0569 33.9131 57.8765 33.7977 56.657 33.6852C54.2149 33.4718 51.7739 33.3585 49.333 33.2452C46.8921 33.1319 44.4523 33.1187 42.0096 33.1172L38.3547 33.1298L34.6918 33.2277L42.0066 33.3909C44.447 33.4542 46.8873 33.5175 49.3312 33.619C51.775 33.7205 54.2067 33.8191 56.639 33.9677C57.9036 34.0539 59.0655 34.1398 60.2851 34.2523C61.5015 34.3581 62.7105 34.5426 63.9039 34.8047V34.8047Z" fill="white"/>
<g style="mix-blend-mode:multiply">
<path d="M14.4839 25.9278C16.266 25.7919 17.2389 21.7276 17.1365 18.0102C17.1484 16.886 17.0456 15.7619 16.8295 14.6543C20.7089 17.3912 24.9801 25.3884 28.8445 25.4648C32.7089 25.5412 34.4971 19.7812 38.0667 14.0972C41.8073 19.8062 43.7698 25.4773 47.5794 25.5153C51.389 25.5532 55.5303 17.4901 59.3481 14.7734C59.1543 15.8783 59.0808 17.0017 59.1289 18.1249C59.0985 21.8594 60.1837 25.8681 61.9513 26.053C64.1209 26.2243 64.1578 21.7305 68.8381 17.4919C67.6212 19.3171 66.6969 21.3145 66.0965 23.4167C64.7313 25.9377 63.3765 28.3116 62.1275 28.2666L61.8486 28.1981C61.256 28.1402 60.6832 27.9506 60.1744 27.6439C59.6656 27.3372 59.2344 26.9216 58.9143 26.4294C57.802 24.5973 57.1526 22.5387 57.0206 20.4258C56.8895 20.5932 56.7462 20.7576 56.6001 20.9337C53.7852 24.3832 51.098 27.6272 47.6943 27.664C43.5279 27.6132 41.32 23.7777 38.7514 19.3172L38.2366 18.4299C38.0736 18.7266 37.9107 19.0234 37.7357 19.3171C35.2942 23.7066 33.134 27.579 28.9866 27.6077C25.5668 27.5533 22.8212 24.2842 19.9163 20.8262L19.3943 20.3862C19.3278 22.501 18.7248 24.5596 17.639 26.3787C17.3345 26.8757 16.9146 27.2955 16.4124 27.6051C15.9102 27.9146 15.3394 28.1053 14.7449 28.1623L14.4458 28.1761C12.96 28.048 11.5395 25.1419 10.115 22.6714C9.47641 20.7797 8.5676 18.9817 7.4155 17.3306C12.1884 21.5593 12.3241 26.0831 14.4839 25.9278Z" fill="#D18F4B"/>
</g>
<path d="M62.0888 27.5839L61.7954 27.5741C61.2023 27.5145 60.6294 27.3229 60.121 27.0141C59.6127 26.7054 59.1826 26.2877 58.8641 25.7936C57.7459 23.964 57.0961 21.904 56.9703 19.7901C56.8363 19.9692 56.6931 20.1336 56.5469 20.3097C53.7228 23.7445 51.0448 27.0032 47.6412 27.0401C43.4748 26.9893 41.2548 23.1508 38.6983 18.6933L38.1863 17.7941C38.0205 18.1026 37.8576 18.3994 37.6825 18.6932C35.241 23.0827 33.0809 26.955 28.9335 26.9838C25.5258 26.9323 22.7802 23.6632 19.8753 20.2053L19.4371 19.686C19.37 21.8007 18.7671 23.8592 17.6818 25.6785C17.3773 26.1756 16.9574 26.5954 16.4552 26.9049C15.9529 27.2144 15.3821 27.4051 14.7876 27.4621L14.4885 27.4759C12.6735 27.3792 10.9531 23.3392 9.30224 20.6384C8.43838 18.6704 7.2176 16.866 5.69902 15.3125C12.1661 19.9201 12.0925 25.4527 14.4758 25.2775C16.859 25.1022 17.8022 17.8623 16.6205 13.8798C20.5617 16.4697 24.9027 24.7585 28.8243 24.8115C32.7459 24.8645 34.489 19.1309 38.0465 13.444C41.7871 19.1529 43.7496 24.824 47.5592 24.862C51.3687 24.8999 55.6643 16.5754 59.5381 13.9972C58.4434 17.9816 59.556 25.2277 61.8797 25.3995C64.2034 25.5713 64.0657 20.0616 70.4352 15.4897C68.7733 17.2478 67.4953 19.3175 66.6766 21.5763C65.1132 24.4851 63.5226 27.6617 62.0888 27.5839Z" fill="url(#paint7_linear_8781_1420)"/>
<g style="mix-blend-mode:multiply">
<path d="M14.2007 27.0438L14.497 27.0417C15.0933 26.9826 15.6661 26.7918 16.1717 26.4838C16.6774 26.1758 17.1027 25.7587 17.4154 25.2641C18.4992 23.4445 19.106 21.3883 19.1828 19.2745L19.6239 19.7821C22.5531 23.246 25.3108 26.518 28.7577 26.5667C32.9658 26.5528 35.1051 22.7128 37.5824 18.2822C37.7453 17.9854 37.9204 17.6917 38.0862 17.3832L38.6103 18.2853C41.1818 22.734 43.4139 26.5755 47.6196 26.6234C51.0718 26.5985 53.7619 23.3428 56.601 19.8992C56.7443 19.7349 56.8904 19.5587 57.0215 19.3914C57.1536 21.506 57.8129 23.5647 58.9424 25.3891C59.266 25.8815 59.6989 26.2978 60.2087 26.6067C60.7185 26.9156 61.2919 27.1091 61.8859 27.1726L62.1769 27.2441C63.5831 27.2777 65.154 24.2335 66.6913 21.4305C66.5757 21.9011 66.336 22.3536 66.184 22.8152C64.8037 25.3449 63.434 27.7276 62.182 27.6944L61.891 27.6229C61.2963 27.5655 60.7213 27.3759 60.2103 27.0686C59.6994 26.7614 59.2663 26.3448 58.9446 25.8511C57.8151 24.0268 57.1558 21.9681 57.0237 19.8534C56.8926 20.0208 56.7493 20.1851 56.6032 20.3613C53.7641 23.8049 51.0982 27.0665 47.6218 27.0855C43.4161 27.0375 41.184 23.1961 38.6125 18.7474L38.0884 17.8452C37.9226 18.1537 37.7475 18.4475 37.5846 18.7443C35.1189 23.1278 32.9801 27.0179 28.7599 27.0287C25.313 26.9801 22.5553 23.708 19.6261 20.2441L19.185 19.7366C19.1082 21.8504 18.5014 23.9066 17.4176 25.7262C17.1049 26.2207 16.6796 26.6378 16.1739 26.9458C15.6683 27.2539 15.0955 27.4447 14.4992 27.5038L14.2029 27.5058C12.7327 27.419 11.2788 24.4922 9.84442 21.9569C9.63263 21.406 9.3937 20.8608 9.13975 20.3244C10.8178 23.0193 12.5065 26.9268 14.2007 27.0438Z" fill="#C69C6D"/>
</g>
<g style="mix-blend-mode:screen">
<path d="M14.4831 25.9279C12.3233 26.0832 12.1732 21.6183 7.39339 17.313C6.88803 16.6008 6.32114 15.9315 5.69902 15.3125C12.1661 19.9201 12.0925 25.4527 14.4758 25.2775C16.1522 25.153 17.1181 21.536 17.1357 18.0104C17.2381 21.7277 16.2652 25.792 14.4831 25.9279ZM68.8345 17.5038C69.3263 16.7905 69.8822 16.1215 70.4958 15.5046C64.1263 20.0765 64.3888 25.6543 61.9404 25.4144C60.264 25.2769 59.2133 21.6509 59.1253 18.1367C59.0949 21.8713 60.1801 25.88 61.9477 26.0648C64.1172 26.2362 64.1542 21.7423 68.8345 17.5038ZM59.3473 14.7736C59.4109 14.5148 59.4745 14.256 59.5381 13.9972C55.6643 16.5754 51.5131 24.8356 47.5834 24.868C43.6537 24.9003 41.7871 19.1529 38.0708 13.4499C34.489 19.1309 32.6362 24.7877 28.8486 24.8175C25.0609 24.8473 20.5617 16.4697 16.6118 13.9151C16.6932 14.1596 16.7567 14.4246 16.8201 14.6897C20.6994 17.4266 24.9707 25.4238 28.8351 25.5002C32.6995 25.5766 34.4877 19.8166 38.0573 14.1327C41.7979 19.8416 43.7604 25.5127 47.57 25.5507C51.3795 25.5886 55.5417 17.4932 59.3473 14.7736Z" fill="#A67C52"/>
</g>
<path d="M59.3527 14.7757C58.328 15.612 57.3597 16.5114 56.4537 17.4687C55.9997 17.9558 55.5584 18.496 55.1344 18.9656C54.7104 19.4352 54.3118 20.0108 53.9063 20.5099C53.5008 21.009 53.0716 21.5522 52.6384 22.0071C52.1993 22.4874 51.7166 22.9281 51.1961 23.3241C50.6846 23.729 50.1216 24.0684 49.5206 24.3344C48.9052 24.5857 48.2578 24.7579 47.5946 24.8466C48.2718 24.8369 48.9418 24.7237 49.58 24.5112C50.2241 24.2822 50.8302 23.965 51.3802 23.5689C52.4527 22.76 53.4042 21.8103 54.2082 20.7463C55.0187 19.6981 55.817 18.6469 56.6737 17.6724C57.5303 16.6979 58.4355 15.7353 59.3527 14.7757Z" fill="white"/>
<path d="M38.0869 14.1036C37.3613 15.1726 36.7085 16.2596 36.0799 17.3525C35.4514 18.4454 34.8592 19.5472 34.2064 20.6342C33.895 21.1689 33.5657 21.7241 33.2116 22.2233C32.8662 22.7445 32.4861 23.2428 32.0736 23.715C31.6619 24.1846 31.1806 24.5917 30.6452 24.9232C30.1117 25.2641 29.4912 25.4565 28.8497 25.4799C29.5061 25.5196 30.1584 25.382 30.7346 25.0824C31.0304 24.9314 31.3107 24.7539 31.5721 24.5522C31.8212 24.3486 32.0589 24.1322 32.2843 23.9039C33.1598 22.9655 33.9191 21.9298 34.547 20.8177C35.1877 19.7277 35.7678 18.6229 36.3357 17.5151C36.9037 16.4073 37.4918 15.2172 38.0869 14.1036Z" fill="white"/>
<path d="M66.6108 20.1393C66.1337 20.5961 65.718 21.1099 65.3735 21.6689C65.0199 22.2182 64.7207 22.7559 64.4069 23.3524C64.1037 23.9162 63.7677 24.4625 63.4006 24.9886C63.2282 25.2419 63.0167 25.4676 62.7733 25.6577C62.6568 25.7449 62.5271 25.814 62.3886 25.8625C62.2516 25.9057 62.1076 25.9252 61.963 25.9201V25.9201C61.7504 25.9081 61.548 25.823 61.3919 25.68C61.2056 25.5467 61.0364 25.392 60.8879 25.2194C60.5776 24.8576 60.2983 24.4719 60.0526 24.0662C60.2312 24.51 60.459 24.9341 60.732 25.3308C60.8734 25.5319 61.04 25.7154 61.2279 25.8767C61.426 26.0645 61.6813 26.1842 61.9543 26.2173C62.1427 26.2436 62.3341 26.2311 62.5162 26.1808C62.7011 26.1291 62.8766 26.0502 63.0365 25.9469C63.3193 25.7487 63.5659 25.5058 63.766 25.2281C63.95 24.9556 64.1145 24.6709 64.2583 24.3761C64.4183 24.0911 64.5783 23.8061 64.7262 23.5181C65.022 22.9422 65.282 22.4073 65.6015 21.7873C65.8864 21.2091 66.2241 20.6576 66.6108 20.1393V20.1393Z" fill="white"/>
<path d="M48.9828 26.4593C48.0286 26.5512 47.0627 26.4786 46.1296 26.2447C45.2167 25.9749 44.3685 25.5244 43.6388 24.9217L43.3582 24.703C43.2649 24.6295 43.1771 24.5495 43.0955 24.4639L42.8842 24.2249C42.7943 24.1495 42.7114 24.0665 42.6365 23.9769L42.1469 23.4575L41.6932 22.8969L41.4663 22.6167L41.2666 22.3306L40.8429 21.7525L40.0312 20.5552C40.2327 20.9913 40.4462 21.4305 40.6777 21.8491C40.9091 22.2677 41.1677 22.6805 41.4593 23.064C42.0236 23.8824 42.7107 24.6148 43.4972 25.2361L43.7899 25.4578L44.1005 25.6588L44.4112 25.8599L44.7397 26.0404C44.861 26.0702 44.9678 26.1588 45.0861 26.2003L45.4499 26.2897C45.6854 26.36 45.9242 26.4187 46.1654 26.4655C47.0966 26.6642 48.0584 26.6621 48.9828 26.4593V26.4593Z" fill="white"/>
<path d="M15.0443 25.7306C14.8173 25.7648 14.5885 25.7876 14.3588 25.7991C14.138 25.8135 13.9173 25.7592 13.7283 25.6442C13.3736 25.3687 13.077 25.0288 12.8554 24.6439C12.3722 23.889 11.9492 23.099 11.4383 22.2999C10.9274 21.5009 10.4593 20.7372 9.89473 19.9998C9.34102 19.261 8.72974 18.5645 8.06641 17.9165C8.60384 18.6598 9.14762 19.4295 9.6637 20.155C9.90383 20.5384 10.1561 20.9247 10.3933 21.3197L11.1108 22.4814C11.6003 23.2628 12.0113 24.0498 12.6215 24.8109C12.8906 25.2135 13.2451 25.5559 13.6607 25.8147C13.8861 25.9176 14.137 25.9532 14.3813 25.9169C14.6081 25.875 14.83 25.8126 15.0443 25.7306V25.7306Z" fill="white"/>
<defs>
<linearGradient id="paint0_linear_8781_1420" x1="63.2451" y1="27.4135" x2="8.74433" y2="27.8928" gradientUnits="userSpaceOnUse">
<stop stop-color="#E2C260"/>
<stop offset="0.05" stop-color="#BE7A30"/>
<stop offset="0.09" stop-color="#A84D12"/>
<stop offset="0.1" stop-color="#9F3C06"/>
<stop offset="0.29" stop-color="#9F3C06"/>
<stop offset="0.35" stop-color="#B86812"/>
<stop offset="0.43" stop-color="#D69E21"/>
<stop offset="0.5" stop-color="#E9BF2A"/>
<stop offset="0.53" stop-color="#F0CC2D"/>
<stop offset="0.56" stop-color="#F0CD31"/>
<stop offset="0.59" stop-color="#F1CF3B"/>
<stop offset="0.62" stop-color="#F2D44E"/>
<stop offset="0.64" stop-color="#F4DA68"/>
<stop offset="0.67" stop-color="#F7E289"/>
<stop offset="0.7" stop-color="#FAEEBA"/>
<stop offset="0.73" stop-color="#FCF3CF"/>
<stop offset="0.78" stop-color="white"/>
<stop offset="0.91" stop-color="#EBC874"/>
<stop offset="0.95" stop-color="#E5B747"/>
</linearGradient>
<linearGradient id="paint1_linear_8781_1420" x1="26.6626" y1="30.6249" x2="14.9189" y2="18.0273" gradientUnits="userSpaceOnUse">
<stop stop-color="#9A3504"/>
<stop offset="0.16" stop-color="#FBC754"/>
<stop offset="0.45" stop-color="#F9C552"/>
<stop offset="0.6" stop-color="#F4BD4D"/>
<stop offset="0.73" stop-color="#EAAF44"/>
<stop offset="0.83" stop-color="#DD9C36"/>
<stop offset="0.92" stop-color="#CB8325"/>
<stop offset="1" stop-color="#B86812"/>
</linearGradient>
<linearGradient id="paint2_linear_8781_1420" x1="59.337" y1="31.0786" x2="67.3938" y2="19.844" gradientUnits="userSpaceOnUse">
<stop stop-color="#9A3504"/>
<stop offset="0.88" stop-color="#FBC754"/>
<stop offset="1" stop-color="#B86812"/>
</linearGradient>
<linearGradient id="paint3_linear_8781_1420" x1="45.4266" y1="30.5922" x2="56.8781" y2="18.7806" gradientUnits="userSpaceOnUse">
<stop stop-color="#9A3504"/>
<stop offset="0.88" stop-color="#FBC754"/>
<stop offset="1" stop-color="#B86812"/>
</linearGradient>
<linearGradient id="paint4_linear_8781_1420" x1="12.6268" y1="30.5741" x2="4.74732" y2="19.7588" gradientUnits="userSpaceOnUse">
<stop stop-color="#9A3504"/>
<stop offset="0.16" stop-color="#FBC754"/>
<stop offset="0.45" stop-color="#F9C552"/>
<stop offset="0.6" stop-color="#F4BD4D"/>
<stop offset="0.73" stop-color="#EAAF44"/>
<stop offset="0.83" stop-color="#DD9C36"/>
<stop offset="0.92" stop-color="#CB8325"/>
<stop offset="1" stop-color="#B86812"/>
</linearGradient>
<radialGradient id="paint5_radial_8781_1420" cx="0" cy="0" r="1" gradientUnits="userSpaceOnUse" gradientTransform="translate(24.4956 31.5438) rotate(13.8046) scale(29.8435 28.9505)">
<stop stop-color="#FFFFF7"/>
<stop offset="1" stop-color="#A66C00"/>
</radialGradient>
<linearGradient id="paint6_linear_8781_1420" x1="63.1584" y1="40.4743" x2="9.05612" y2="40.9501" gradientUnits="userSpaceOnUse">
<stop stop-color="#FFF39C"/>
<stop offset="0.04" stop-color="#FEFBE4"/>
<stop offset="0.09" stop-color="#EFD179"/>
<stop offset="0.16" stop-color="#B86812"/>
<stop offset="0.22" stop-color="#FED480"/>
<stop offset="0.23" stop-color="#FFEABF"/>
<stop offset="0.24" stop-color="#FFF2D7"/>
<stop offset="0.25" stop-color="#FFFCF6"/>
<stop offset="0.26" stop-color="#FFFEFD"/>
<stop offset="0.29" stop-color="white"/>
<stop offset="0.42" stop-color="#FEF8C5"/>
<stop offset="0.44" stop-color="#FEECA7"/>
<stop offset="0.46" stop-color="#FEE08A"/>
<stop offset="0.47" stop-color="#FED773"/>
<stop offset="0.49" stop-color="#FED163"/>
<stop offset="0.52" stop-color="#FECD5A"/>
<stop offset="0.55" stop-color="#F9C448"/>
<stop offset="0.56" stop-color="#F3BC37"/>
<stop offset="0.57" stop-color="#EFB52C"/>
<stop offset="0.58" stop-color="#EDB225"/>
<stop offset="0.62" stop-color="#ECB123"/>
<stop offset="0.69" stop-color="#9A3504"/>
<stop offset="0.74" stop-color="#A04911"/>
<stop offset="0.82" stop-color="#AD762D"/>
<stop offset="0.89" stop-color="#FDF7DA"/>
<stop offset="1" stop-color="#AD762D"/>
</linearGradient>
<linearGradient id="paint7_linear_8781_1420" x1="68.3457" y1="25.6824" x2="3.60732" y2="26.2517" gradientUnits="userSpaceOnUse">
<stop stop-color="#FFF39C"/>
<stop offset="0.04" stop-color="#FEFBE4"/>
<stop offset="0.09" stop-color="#EFD179"/>
<stop offset="0.16" stop-color="#B86812"/>
<stop offset="0.22" stop-color="#FED480"/>
<stop offset="0.23" stop-color="#FFEABF"/>
<stop offset="0.24" stop-color="#FFF2D7"/>
<stop offset="0.25" stop-color="#FFFCF6"/>
<stop offset="0.26" stop-color="#FFFEFD"/>
<stop offset="0.29" stop-color="white"/>
<stop offset="0.42" stop-color="#FEF8C5"/>
<stop offset="0.44" stop-color="#FEECA7"/>
<stop offset="0.46" stop-color="#FEE08A"/>
<stop offset="0.47" stop-color="#FED773"/>
<stop offset="0.49" stop-color="#FED163"/>
<stop offset="0.52" stop-color="#FECD5A"/>
<stop offset="0.55" stop-color="#F9C448"/>
<stop offset="0.56" stop-color="#F3BC37"/>
<stop offset="0.57" stop-color="#EFB52C"/>
<stop offset="0.58" stop-color="#EDB225"/>
<stop offset="0.62" stop-color="#ECB123"/>
<stop offset="0.69" stop-color="#9A3504"/>
<stop offset="0.74" stop-color="#A04911"/>
<stop offset="0.82" stop-color="#AD762D"/>
<stop offset="0.89" stop-color="#FDF7DA"/>
<stop offset="1" stop-color="#AD762D"/>
</linearGradient>
</defs>
</svg>
