<svg width="292" height="96" viewBox="0 0 292 96" fill="none" xmlns="http://www.w3.org/2000/svg">
<path d="M37.2078 39.3271H74.9823V56.529H37.2078V39.3271ZM38.835 71.4064H81.3749V89.1895H16.054V7.8289H79.8639V25.612H38.835V71.4064ZM131.344 89.1895V77.4503L129.833 74.5446V52.9259C129.833 49.439 128.749 46.7657 126.579 44.9061C124.487 42.9689 121.116 42.0003 116.467 42.0003C113.445 42.0003 110.384 42.504 107.285 43.5113C104.186 44.4412 101.551 45.7584 99.3814 47.4631L91.9427 32.4695C95.5071 30.1449 99.7688 28.3628 104.728 27.123C109.765 25.8057 114.762 25.1471 119.722 25.1471C129.95 25.1471 137.853 27.5104 143.432 32.2371C149.089 36.8862 151.917 44.2087 151.917 54.2044V89.1895H131.344ZM112.748 90.2355C107.711 90.2355 103.449 89.3832 99.9625 87.6785C96.4757 85.9738 93.8024 83.6492 91.9427 80.7047C90.1605 77.7602 89.2694 74.4671 89.2694 70.8252C89.2694 66.9509 90.238 63.619 92.1752 60.8295C94.1898 57.9625 97.2505 55.7929 101.357 54.3206C105.464 52.7709 110.772 51.9961 117.281 51.9961H132.158V63.5028H120.303C116.738 63.5028 114.22 64.0839 112.748 65.2462C111.353 66.4085 110.656 67.9582 110.656 69.8954C110.656 71.8325 111.392 73.3823 112.864 74.5446C114.336 75.7068 116.351 76.288 118.908 76.288C121.31 76.288 123.48 75.7068 125.417 74.5446C127.431 73.3048 128.904 71.4451 129.833 68.9655L132.855 77.1016C131.693 81.4408 129.407 84.734 125.998 86.9811C122.666 89.1507 118.249 90.2355 112.748 90.2355ZM165.856 89.1895V26.1931H186.894V44.5574L183.756 39.3271C185.615 34.6004 188.637 31.0748 192.822 28.7502C197.006 26.3481 202.081 25.1471 208.048 25.1471V45.0223C207.04 44.8673 206.149 44.7898 205.374 44.7898C204.677 44.7124 203.902 44.6736 203.05 44.6736C198.556 44.6736 194.914 45.9134 192.124 48.393C189.335 50.795 187.94 54.7468 187.94 60.2483V89.1895H165.856ZM258.19 25.1471C263.071 25.1471 267.488 26.1544 271.44 28.169C275.392 30.1062 278.491 33.1282 280.738 37.2349C283.063 41.3417 284.225 46.6495 284.225 53.1584V89.1895H262.142V56.7615C262.142 52.2673 261.212 49.0128 259.352 46.9982C257.57 44.9061 255.052 43.86 251.797 43.86C249.473 43.86 247.342 44.4024 245.404 45.4872C243.467 46.4945 241.956 48.083 240.872 50.2526C239.787 52.4222 239.244 55.2505 239.244 58.7374V89.1895H217.161V26.1931H238.198V44.0925L234.13 38.8621C236.532 34.2905 239.825 30.8811 244.01 28.634C248.194 26.3094 252.921 25.1471 258.19 25.1471Z" fill="url(#paint0_linear_8781_1704)"/>
<path d="M33.2507 39.3271H71.0253V56.529H33.2507V39.3271ZM34.8779 71.4064H77.4179V89.1895H12.097V7.8289H75.9069V25.612H34.8779V71.4064ZM127.387 89.1895V77.4503L125.876 74.5446V52.9259C125.876 49.439 124.792 46.7657 122.622 44.9061C120.53 42.9689 117.159 42.0003 112.51 42.0003C109.488 42.0003 106.427 42.504 103.328 43.5113C100.229 44.4412 97.594 45.7584 95.4244 47.4631L87.9857 32.4695C91.55 30.1449 95.8118 28.3628 100.771 27.123C105.808 25.8057 110.805 25.1471 115.764 25.1471C125.993 25.1471 133.896 27.5104 139.475 32.2371C145.132 36.8862 147.96 44.2087 147.96 54.2044V89.1895H127.387ZM108.791 90.2355C103.754 90.2355 99.4924 89.3832 96.0055 87.6785C92.5186 85.9738 89.8453 83.6492 87.9857 80.7047C86.2035 77.7602 85.3124 74.4671 85.3124 70.8252C85.3124 66.9509 86.281 63.619 88.2181 60.8295C90.2328 57.9625 93.2935 55.7929 97.4003 54.3206C101.507 52.7709 106.815 51.9961 113.324 51.9961H128.201V63.5028H116.346C112.781 63.5028 110.263 64.0839 108.791 65.2462C107.396 66.4085 106.699 67.9582 106.699 69.8954C106.699 71.8325 107.435 73.3823 108.907 74.5446C110.379 75.7068 112.394 76.288 114.951 76.288C117.353 76.288 119.523 75.7068 121.46 74.5446C123.474 73.3048 124.947 71.4451 125.876 68.9655L128.898 77.1016C127.736 81.4408 125.45 84.734 122.041 86.9811C118.709 89.1507 114.292 90.2355 108.791 90.2355ZM161.899 89.1895V26.1931H182.937V44.5574L179.799 39.3271C181.658 34.6004 184.68 31.0748 188.865 28.7502C193.049 26.3481 198.124 25.1471 204.091 25.1471V45.0223C203.083 44.8673 202.192 44.7898 201.417 44.7898C200.72 44.7124 199.945 44.6736 199.093 44.6736C194.599 44.6736 190.957 45.9134 188.167 48.393C185.378 50.795 183.983 54.7468 183.983 60.2483V89.1895H161.899ZM254.233 25.1471C259.114 25.1471 263.531 26.1544 267.483 28.169C271.435 30.1062 274.534 33.1282 276.781 37.2349C279.106 41.3417 280.268 46.6495 280.268 53.1584V89.1895H258.184V56.7615C258.184 52.2673 257.255 49.0128 255.395 46.9982C253.613 44.9061 251.094 43.86 247.84 43.86C245.515 43.86 243.385 44.4024 241.447 45.4872C239.51 46.4945 237.999 48.083 236.915 50.2526C235.83 52.4222 235.287 55.2505 235.287 58.7374V89.1895H213.204V26.1931H234.241V44.0925L230.173 38.8621C232.575 34.2905 235.868 30.8811 240.053 28.634C244.237 26.3094 248.964 25.1471 254.233 25.1471Z" fill="url(#paint1_linear_8781_1704)"/>
<path d="M29.2898 39.3271H67.0643V56.529H29.2898V39.3271ZM30.917 71.4064H73.457V89.1895H8.13605V7.8289H71.946V25.612H30.917V71.4064ZM123.426 89.1895V77.4503L121.916 74.5446V52.9259C121.916 49.439 120.831 46.7657 118.661 44.9061C116.569 42.9689 113.198 42.0003 108.549 42.0003C105.527 42.0003 102.466 42.504 99.367 43.5113C96.2676 44.4412 93.633 45.7584 91.4634 47.4631L84.0247 32.4695C87.5891 30.1449 91.8509 28.3628 96.81 27.123C101.847 25.8057 106.844 25.1471 111.804 25.1471C122.032 25.1471 129.935 27.5104 135.514 32.2371C141.171 36.8862 143.999 44.2087 143.999 54.2044V89.1895H123.426ZM104.83 90.2355C99.7932 90.2355 95.5314 89.3832 92.0446 87.6785C88.5577 85.9738 85.8844 83.6492 84.0247 80.7047C82.2426 77.7602 81.3515 74.4671 81.3515 70.8252C81.3515 66.9509 82.32 63.619 84.2572 60.8295C86.2718 57.9625 89.3325 55.7929 93.4393 54.3206C97.5461 52.7709 102.854 51.9961 109.363 51.9961H124.24V63.5028H112.385C108.82 63.5028 106.302 64.0839 104.83 65.2462C103.435 66.4085 102.738 67.9582 102.738 69.8954C102.738 71.8325 103.474 73.3823 104.946 74.5446C106.418 75.7068 108.433 76.288 110.99 76.288C113.392 76.288 115.562 75.7068 117.499 74.5446C119.513 73.3048 120.986 71.4451 121.916 68.9655L124.937 77.1016C123.775 81.4408 121.489 84.734 118.08 86.9811C114.748 89.1507 110.331 90.2355 104.83 90.2355ZM157.938 89.1895V26.1931H178.976V44.5574L175.838 39.3271C177.697 34.6004 180.719 31.0748 184.904 28.7502C189.088 26.3481 194.163 25.1471 200.13 25.1471V45.0223C199.122 44.8673 198.231 44.7898 197.456 44.7898C196.759 44.7124 195.984 44.6736 195.132 44.6736C190.638 44.6736 186.996 45.9134 184.206 48.393C181.417 50.795 180.022 54.7468 180.022 60.2483V89.1895H157.938ZM250.272 25.1471C255.153 25.1471 259.57 26.1544 263.522 28.169C267.474 30.1062 270.573 33.1282 272.82 37.2349C275.145 41.3417 276.307 46.6495 276.307 53.1584V89.1895H254.224V56.7615C254.224 52.2673 253.294 49.0128 251.434 46.9982C249.652 44.9061 247.134 43.86 243.879 43.86C241.555 43.86 239.424 44.4024 237.487 45.4872C235.549 46.4945 234.038 48.083 232.954 50.2526C231.869 52.4222 231.326 55.2505 231.326 58.7374V89.1895H209.243V26.1931H230.28V44.0925L226.212 38.8621C228.614 34.2905 231.908 30.8811 236.092 28.634C240.276 26.3094 245.003 25.1471 250.272 25.1471Z" fill="url(#paint2_linear_8781_1704)"/>
<path style="mix-blend-mode:overlay" d="M29.5085 40.1376H67.2831V57.3396H29.5085V40.1376ZM31.1358 72.2169H73.6757V90H8.3548V8.63945H72.1647V26.4225H31.1358V72.2169ZM123.645 90V78.2608L122.134 75.3551V53.7364C122.134 50.2496 121.049 47.5763 118.88 45.7166C116.788 43.7795 113.417 42.8109 108.768 42.8109C105.746 42.8109 102.685 43.3145 99.5858 44.3219C96.4863 45.2517 93.8518 46.569 91.6822 48.2737L84.2435 33.2801C87.8079 30.9555 92.0696 29.1733 97.0287 27.9335C102.065 26.6163 107.063 25.9576 112.022 25.9576C122.25 25.9576 130.154 28.321 135.733 33.0476C141.39 37.6968 144.218 45.0192 144.218 55.015V90H123.645ZM105.049 91.0461C100.012 91.0461 95.7502 90.1937 92.2633 88.489C88.7764 86.7843 86.1032 84.4597 84.2435 81.5153C82.4613 78.5708 81.5702 75.2776 81.5702 71.6358C81.5702 67.7615 82.5388 64.4295 84.476 61.64C86.4906 58.773 89.5513 56.6034 93.6581 55.1312C97.7648 53.5815 103.073 52.8066 109.581 52.8066H124.459V64.3133H112.603C109.039 64.3133 106.521 64.8945 105.049 66.0568C103.654 67.219 102.956 68.7688 102.956 70.7059C102.956 72.6431 103.693 74.1928 105.165 75.3551C106.637 76.5174 108.652 77.0985 111.209 77.0985C113.611 77.0985 115.78 76.5174 117.718 75.3551C119.732 74.1153 121.204 72.2557 122.134 69.7761L125.156 77.9121C123.994 82.2514 121.708 85.5445 118.299 87.7916C114.967 89.9613 110.55 91.0461 105.049 91.0461ZM158.157 90V27.0037H179.195V45.3679L176.057 40.1376C177.916 35.4109 180.938 31.8853 185.122 29.5607C189.307 27.1587 194.382 25.9576 200.348 25.9576V45.8328C199.341 45.6779 198.45 45.6004 197.675 45.6004C196.978 45.5229 196.203 45.4842 195.351 45.4842C190.856 45.4842 187.215 46.7239 184.425 49.2035C181.636 51.6056 180.241 55.5574 180.241 61.0589V90H158.157ZM250.491 25.9576C255.372 25.9576 259.789 26.9649 263.741 28.9796C267.692 30.9167 270.792 33.9387 273.039 38.0455C275.364 42.1522 276.526 47.4601 276.526 53.9689V90H254.442V57.572C254.442 53.0778 253.512 49.8234 251.653 47.8087C249.871 45.7166 247.352 44.6706 244.098 44.6706C241.773 44.6706 239.642 45.213 237.705 46.2978C235.768 47.3051 234.257 48.8936 233.172 51.0632C232.088 53.2328 231.545 56.061 231.545 59.5479V90H209.462V27.0037H230.499V44.903L226.431 39.6727C228.833 35.101 232.126 31.6916 236.311 29.4445C240.495 27.1199 245.221 25.9576 250.491 25.9576Z" fill="url(#paint3_linear_8781_1704)"/>
<defs>
<linearGradient id="paint0_linear_8781_1704" x1="150.872" y1="-3.52885" x2="150.852" y2="98.489" gradientUnits="userSpaceOnUse">
<stop stop-color="#9A3504"/>
<stop offset="0.07" stop-color="#F0A900"/>
<stop offset="0.1" stop-color="#C57D10"/>
<stop offset="0.17" stop-color="#C67E12"/>
<stop offset="0.19" stop-color="#C78219"/>
<stop offset="0.21" stop-color="#CB8924"/>
<stop offset="0.23" stop-color="#CF9435"/>
<stop offset="0.24" stop-color="#D5A14B"/>
<stop offset="0.25" stop-color="#DDB167"/>
<stop offset="0.26" stop-color="#E6C587"/>
<stop offset="0.27" stop-color="#F0DCAD"/>
<stop offset="0.28" stop-color="#FFFCE2"/>
<stop offset="0.34" stop-color="#F2D457"/>
<stop offset="0.39" stop-color="#F2D459"/>
<stop offset="0.4" stop-color="#F3D660"/>
<stop offset="0.41" stop-color="#F4D96B"/>
<stop offset="0.42" stop-color="#F5DE7C"/>
<stop offset="0.43" stop-color="#F7E392"/>
<stop offset="0.44" stop-color="#FBF2CE"/>
<stop offset="0.45" stop-color="white"/>
<stop offset="0.48" stop-color="#FFFEFC"/>
<stop offset="0.49" stop-color="#FEFBF3"/>
<stop offset="0.51" stop-color="#FDF5E2"/>
<stop offset="0.52" stop-color="#FBEDCC"/>
<stop offset="0.54" stop-color="#F8E2AF"/>
<stop offset="0.55" stop-color="#F5D68B"/>
<stop offset="0.56" stop-color="#F1C760"/>
<stop offset="0.57" stop-color="#EDB530"/>
<stop offset="0.58" stop-color="#ECB123"/>
<stop offset="0.71" stop-color="#AB5800"/>
<stop offset="0.75" stop-color="#AC5A02"/>
<stop offset="0.77" stop-color="#B06107"/>
<stop offset="0.78" stop-color="#B86E10"/>
<stop offset="0.79" stop-color="#C2801D"/>
<stop offset="0.8" stop-color="#D0982E"/>
<stop offset="0.81" stop-color="#E0B442"/>
<stop offset="0.82" stop-color="#EDCB53"/>
<stop offset="0.88" stop-color="#E7D297"/>
<stop offset="0.91" stop-color="#813C01"/>
<stop offset="0.96" stop-color="#FEFBE4"/>
<stop offset="1" stop-color="#DBA535"/>
</linearGradient>
<linearGradient id="paint1_linear_8781_1704" x1="13.6871" y1="10.8949" x2="64.9368" y2="174.052" gradientUnits="userSpaceOnUse">
<stop stop-color="#FEFBE4"/>
<stop offset="0.07" stop-color="#FDF7DA"/>
<stop offset="0.19" stop-color="#CB9F4C"/>
<stop offset="0.43" stop-color="#ECB123"/>
<stop offset="0.58" stop-color="#813C01"/>
<stop offset="0.77" stop-color="#FDF7DA"/>
<stop offset="0.81" stop-color="#EDCB53"/>
<stop offset="0.88" stop-color="#9F3C06"/>
<stop offset="1" stop-color="#FEFBE4"/>
</linearGradient>
<linearGradient id="paint2_linear_8781_1704" x1="20.9066" y1="0.205124" x2="42.8608" y2="125.594" gradientUnits="userSpaceOnUse">
<stop stop-color="#B77918"/>
<stop offset="0.05" stop-color="#CCA03F"/>
<stop offset="0.13" stop-color="#E7D373"/>
<stop offset="0.18" stop-color="#F9F393"/>
<stop offset="0.22" stop-color="#FFFF9F"/>
<stop offset="0.28" stop-color="#FFF293"/>
<stop offset="0.37" stop-color="#FED87A"/>
<stop offset="0.42" stop-color="#F1C86B"/>
<stop offset="0.49" stop-color="#E5BA5E"/>
<stop offset="0.54" stop-color="#E1B55A"/>
<stop offset="0.6" stop-color="#E8C66A"/>
<stop offset="0.7" stop-color="#FAF293"/>
<stop offset="0.73" stop-color="#FFFF9F"/>
<stop offset="0.75" stop-color="#F9F494"/>
<stop offset="0.83" stop-color="#DDBF5F"/>
<stop offset="0.91" stop-color="#C89938"/>
<stop offset="0.96" stop-color="#BC8221"/>
<stop offset="1" stop-color="#B77918"/>
</linearGradient>
<linearGradient id="paint3_linear_8781_1704" x1="96.5917" y1="101.634" x2="105.609" y2="-29.124" gradientUnits="userSpaceOnUse">
<stop stop-color="#4F4648"/>
<stop offset="0.26" stop-color="#736C6E"/>
<stop offset="0.76" stop-color="#B5B3B3"/>
<stop offset="1" stop-color="#CFCFCF"/>
</linearGradient>
</defs>
</svg>
