<svg width="342" height="96" viewBox="0 0 342 96" fill="none" xmlns="http://www.w3.org/2000/svg">
<path d="M16.054 89.1895V7.8289H53.2474C60.6861 7.8289 67.0787 9.02994 72.4253 11.432C77.8493 13.8341 82.0336 17.321 84.978 21.8927C87.9225 26.3869 89.3947 31.7334 89.3947 37.9323C89.3947 44.0537 87.9225 49.3615 84.978 53.8557C82.0336 58.2724 77.8493 61.6818 72.4253 64.0839C67.0787 66.4085 60.6861 67.5708 53.2474 67.5708H28.8393L39.0674 57.9238V89.1895H16.054ZM66.3813 89.1895L46.1574 59.551H70.6818L91.022 89.1895H66.3813ZM39.0674 60.3646L28.8393 49.7877H51.8527C56.6568 49.7877 60.2212 48.7416 62.5458 46.6495C64.9478 44.5574 66.1489 41.6516 66.1489 37.9323C66.1489 34.1355 64.9478 31.191 62.5458 29.0989C60.2212 27.0067 56.6568 25.9607 51.8527 25.9607H28.8393L39.0674 15.3838V60.3646ZM134.054 90.2355C126.615 90.2355 120.107 88.8408 114.528 86.0513C109.026 83.1843 104.726 79.31 101.626 74.4283C98.6041 69.4692 97.0931 63.8515 97.0931 57.5751C97.0931 51.2987 98.5654 45.7197 101.51 40.838C104.532 35.8789 108.677 32.0434 113.946 29.3313C119.215 26.5418 125.143 25.1471 131.729 25.1471C137.928 25.1471 143.585 26.4256 148.699 28.9827C153.813 31.4622 157.881 35.1428 160.903 40.0244C163.925 44.9061 165.436 50.8338 165.436 57.8075C165.436 58.5824 165.397 59.4735 165.32 60.4808C165.242 61.4881 165.165 62.418 165.087 63.2703H115.225V51.6474H153.348L144.98 54.9018C145.057 52.0348 144.515 49.5552 143.352 47.4631C142.268 45.371 140.718 43.7438 138.703 42.5815C136.766 41.4192 134.48 40.838 131.846 40.838C129.211 40.838 126.887 41.4192 124.872 42.5815C122.935 43.7438 121.424 45.4097 120.339 47.5793C119.254 49.6715 118.712 52.151 118.712 55.018V58.3887C118.712 61.4881 119.332 64.1614 120.571 66.4085C121.889 68.6556 123.748 70.399 126.15 71.6388C128.553 72.8011 131.42 73.3823 134.751 73.3823C137.851 73.3823 140.485 72.9561 142.655 72.1037C144.902 71.1739 147.11 69.7792 149.28 67.9195L160.903 80.0073C157.881 83.3392 154.162 85.8963 149.745 87.6785C145.328 89.3832 140.098 90.2355 134.054 90.2355ZM178.175 89.1895V26.8905C178.175 19.2969 180.422 13.2529 184.916 8.75874C189.488 4.18705 195.997 1.90121 204.443 1.90121C207.155 1.90121 209.828 2.17241 212.463 2.71482C215.097 3.25722 217.305 4.07082 219.088 5.15563L213.625 20.7304C212.695 20.188 211.649 19.7618 210.487 19.4518C209.324 19.0644 208.162 18.8707 207 18.8707C204.675 18.8707 202.854 19.5681 201.537 20.9628C200.297 22.2801 199.677 24.3335 199.677 27.123V31.6559L200.258 40.838V89.1895H178.175ZM168.993 45.0223V28.5177H214.671V45.0223H168.993ZM255.164 90.2355C247.725 90.2355 241.217 88.8408 235.638 86.0513C230.136 83.1843 225.836 79.31 222.736 74.4283C219.714 69.4692 218.203 63.8515 218.203 57.5751C218.203 51.2987 219.675 45.7197 222.62 40.838C225.642 35.8789 229.787 32.0434 235.056 29.3313C240.326 26.5418 246.253 25.1471 252.84 25.1471C259.038 25.1471 264.695 26.4256 269.809 28.9827C274.923 31.4622 278.991 35.1428 282.013 40.0244C285.035 44.9061 286.546 50.8338 286.546 57.8075C286.546 58.5824 286.507 59.4735 286.43 60.4808C286.352 61.4881 286.275 62.418 286.197 63.2703H236.335V51.6474H274.458L266.09 54.9018C266.167 52.0348 265.625 49.5552 264.462 47.4631C263.378 45.371 261.828 43.7438 259.813 42.5815C257.876 41.4192 255.59 40.838 252.956 40.838C250.321 40.838 247.997 41.4192 245.982 42.5815C244.045 43.7438 242.534 45.4097 241.449 47.5793C240.364 49.6715 239.822 52.151 239.822 55.018V58.3887C239.822 61.4881 240.442 64.1614 241.682 66.4085C242.999 68.6556 244.858 70.399 247.261 71.6388C249.663 72.8011 252.53 73.3823 255.862 73.3823C258.961 73.3823 261.595 72.9561 263.765 72.1037C266.012 71.1739 268.221 69.7792 270.39 67.9195L282.013 80.0073C278.991 83.3392 275.272 85.8963 270.855 87.6785C266.438 89.3832 261.208 90.2355 255.164 90.2355ZM296.728 89.1895V26.1931H317.765V44.5574L314.627 39.3271C316.487 34.6004 319.509 31.0748 323.693 28.7502C327.877 26.3481 332.953 25.1471 338.919 25.1471V45.0223C337.912 44.8673 337.021 44.7898 336.246 44.7898C335.549 44.7124 334.774 44.6736 333.921 44.6736C329.427 44.6736 325.785 45.9134 322.996 48.393C320.206 50.795 318.812 54.7468 318.812 60.2483V89.1895H296.728Z" fill="url(#paint0_linear_8781_1716)"/>
<path d="M12.097 89.1895V7.8289H49.2904C56.7291 7.8289 63.1217 9.02994 68.4682 11.432C73.8923 13.8341 78.0765 17.321 81.021 21.8927C83.9655 26.3869 85.4377 31.7334 85.4377 37.9323C85.4377 44.0537 83.9655 49.3615 81.021 53.8557C78.0765 58.2724 73.8923 61.6818 68.4682 64.0839C63.1217 66.4085 56.7291 67.5708 49.2904 67.5708H24.8822L35.1104 57.9238V89.1895H12.097ZM62.4243 89.1895L42.2004 59.551H66.7248L87.0649 89.1895H62.4243ZM35.1104 60.3646L24.8822 49.7877H47.8956C52.6998 49.7877 56.2641 48.7416 58.5887 46.6495C60.9908 44.5574 62.1918 41.6516 62.1918 37.9323C62.1918 34.1355 60.9908 31.191 58.5887 29.0989C56.2641 27.0067 52.6998 25.9607 47.8956 25.9607H24.8822L35.1104 15.3838V60.3646ZM130.097 90.2355C122.658 90.2355 116.149 88.8408 110.57 86.0513C105.069 83.1843 100.768 79.31 97.669 74.4283C94.6471 69.4692 93.1361 63.8515 93.1361 57.5751C93.1361 51.2987 94.6083 45.7197 97.5528 40.838C100.575 35.8789 104.72 32.0434 109.989 29.3313C115.258 26.5418 121.186 25.1471 127.772 25.1471C133.971 25.1471 139.628 26.4256 144.742 28.9827C149.856 31.4622 153.924 35.1428 156.946 40.0244C159.968 44.9061 161.479 50.8338 161.479 57.8075C161.479 58.5824 161.44 59.4735 161.363 60.4808C161.285 61.4881 161.208 62.418 161.13 63.2703H111.268V51.6474H149.391L141.023 54.9018C141.1 52.0348 140.558 49.5552 139.395 47.4631C138.311 45.371 136.761 43.7438 134.746 42.5815C132.809 41.4192 130.523 40.838 127.889 40.838C125.254 40.838 122.93 41.4192 120.915 42.5815C118.978 43.7438 117.467 45.4097 116.382 47.5793C115.297 49.6715 114.755 52.151 114.755 55.018V58.3887C114.755 61.4881 115.375 64.1614 116.614 66.4085C117.932 68.6556 119.791 70.399 122.193 71.6388C124.595 72.8011 127.462 73.3823 130.794 73.3823C133.894 73.3823 136.528 72.9561 138.698 72.1037C140.945 71.1739 143.153 69.7792 145.323 67.9195L156.946 80.0073C153.924 83.3392 150.205 85.8963 145.788 87.6785C141.371 89.3832 136.141 90.2355 130.097 90.2355ZM174.218 89.1895V26.8905C174.218 19.2969 176.465 13.2529 180.959 8.75874C185.531 4.18705 192.04 1.90121 200.486 1.90121C203.198 1.90121 205.871 2.17241 208.506 2.71482C211.14 3.25722 213.348 4.07082 215.131 5.15563L209.668 20.7304C208.738 20.188 207.692 19.7618 206.53 19.4518C205.367 19.0644 204.205 18.8707 203.043 18.8707C200.718 18.8707 198.897 19.5681 197.58 20.9628C196.34 22.2801 195.72 24.3335 195.72 27.123V31.6559L196.301 40.838V89.1895H174.218ZM165.036 45.0223V28.5177H210.714V45.0223H165.036ZM251.207 90.2355C243.768 90.2355 237.26 88.8408 231.681 86.0513C226.179 83.1843 221.879 79.31 218.779 74.4283C215.757 69.4692 214.246 63.8515 214.246 57.5751C214.246 51.2987 215.718 45.7197 218.663 40.838C221.685 35.8789 225.83 32.0434 231.099 29.3313C236.368 26.5418 242.296 25.1471 248.883 25.1471C255.081 25.1471 260.738 26.4256 265.852 28.9827C270.966 31.4622 275.034 35.1428 278.056 40.0244C281.078 44.9061 282.589 50.8338 282.589 57.8075C282.589 58.5824 282.55 59.4735 282.473 60.4808C282.395 61.4881 282.318 62.418 282.24 63.2703H232.378V51.6474H270.501L262.133 54.9018C262.21 52.0348 261.668 49.5552 260.505 47.4631C259.421 45.371 257.871 43.7438 255.856 42.5815C253.919 41.4192 251.633 40.838 248.999 40.838C246.364 40.838 244.04 41.4192 242.025 42.5815C240.088 43.7438 238.577 45.4097 237.492 47.5793C236.407 49.6715 235.865 52.151 235.865 55.018V58.3887C235.865 61.4881 236.485 64.1614 237.724 66.4085C239.042 68.6556 240.901 70.399 243.304 71.6388C245.706 72.8011 248.573 73.3823 251.904 73.3823C255.004 73.3823 257.638 72.9561 259.808 72.1037C262.055 71.1739 264.264 69.7792 266.433 67.9195L278.056 80.0073C275.034 83.3392 271.315 85.8963 266.898 87.6785C262.481 89.3832 257.251 90.2355 251.207 90.2355ZM292.771 89.1895V26.1931H313.808V44.5574L310.67 39.3271C312.53 34.6004 315.552 31.0748 319.736 28.7502C323.92 26.3481 328.996 25.1471 334.962 25.1471V45.0223C333.955 44.8673 333.064 44.7898 332.289 44.7898C331.592 44.7124 330.817 44.6736 329.964 44.6736C325.47 44.6736 321.828 45.9134 319.039 48.393C316.249 50.795 314.854 54.7468 314.854 60.2483V89.1895H292.771Z" fill="url(#paint1_linear_8781_1716)"/>
<path d="M8.13605 89.1895V7.8289H45.3294C52.7681 7.8289 59.1607 9.02994 64.5073 11.432C69.9313 13.8341 74.1156 17.321 77.0601 21.8927C80.0045 26.3869 81.4768 31.7334 81.4768 37.9323C81.4768 44.0537 80.0045 49.3615 77.0601 53.8557C74.1156 58.2724 69.9313 61.6818 64.5073 64.0839C59.1607 66.4085 52.7681 67.5708 45.3294 67.5708H20.9213L31.1495 57.9238V89.1895H8.13605ZM58.4634 89.1895L38.2395 59.551H62.7638L83.104 89.1895H58.4634ZM31.1495 60.3646L20.9213 49.7877H43.9347C48.7388 49.7877 52.3032 48.7416 54.6278 46.6495C57.0299 44.5574 58.2309 41.6516 58.2309 37.9323C58.2309 34.1355 57.0299 31.191 54.6278 29.0989C52.3032 27.0067 48.7388 25.9607 43.9347 25.9607H20.9213L31.1495 15.3838V60.3646ZM126.136 90.2355C118.697 90.2355 112.189 88.8408 106.61 86.0513C101.108 83.1843 96.8075 79.31 93.7081 74.4283C90.6861 69.4692 89.1751 63.8515 89.1751 57.5751C89.1751 51.2987 90.6474 45.7197 93.5919 40.838C96.6138 35.8789 100.759 32.0434 106.028 29.3313C111.297 26.5418 117.225 25.1471 123.811 25.1471C130.01 25.1471 135.667 26.4256 140.781 28.9827C145.895 31.4622 149.963 35.1428 152.985 40.0244C156.007 44.9061 157.518 50.8338 157.518 57.8075C157.518 58.5824 157.479 59.4735 157.402 60.4808C157.324 61.4881 157.247 62.418 157.169 63.2703H107.307V51.6474H145.43L137.062 54.9018C137.139 52.0348 136.597 49.5552 135.434 47.4631C134.35 45.371 132.8 43.7438 130.785 42.5815C128.848 41.4192 126.562 40.838 123.928 40.838C121.293 40.838 118.969 41.4192 116.954 42.5815C115.017 43.7438 113.506 45.4097 112.421 47.5793C111.336 49.6715 110.794 52.151 110.794 55.018V58.3887C110.794 61.4881 111.414 64.1614 112.653 66.4085C113.971 68.6556 115.83 70.399 118.232 71.6388C120.635 72.8011 123.502 73.3823 126.833 73.3823C129.933 73.3823 132.567 72.9561 134.737 72.1037C136.984 71.1739 139.193 69.7792 141.362 67.9195L152.985 80.0073C149.963 83.3392 146.244 85.8963 141.827 87.6785C137.41 89.3832 132.18 90.2355 126.136 90.2355ZM170.257 89.1895V26.8905C170.257 19.2969 172.504 13.2529 176.998 8.75874C181.57 4.18705 188.079 1.90121 196.525 1.90121C199.237 1.90121 201.91 2.17241 204.545 2.71482C207.179 3.25722 209.387 4.07082 211.17 5.15563L205.707 20.7304C204.777 20.188 203.731 19.7618 202.569 19.4518C201.406 19.0644 200.244 18.8707 199.082 18.8707C196.757 18.8707 194.936 19.5681 193.619 20.9628C192.379 22.2801 191.759 24.3335 191.759 27.123V31.6559L192.341 40.838V89.1895H170.257ZM161.075 45.0223V28.5177H206.753V45.0223H161.075ZM247.246 90.2355C239.807 90.2355 233.299 88.8408 227.72 86.0513C222.218 83.1843 217.918 79.31 214.818 74.4283C211.796 69.4692 210.285 63.8515 210.285 57.5751C210.285 51.2987 211.757 45.7197 214.702 40.838C217.724 35.8789 221.869 32.0434 227.138 29.3313C232.408 26.5418 238.335 25.1471 244.922 25.1471C251.12 25.1471 256.777 26.4256 261.891 28.9827C267.005 31.4622 271.073 35.1428 274.095 40.0244C277.117 44.9061 278.628 50.8338 278.628 57.8075C278.628 58.5824 278.589 59.4735 278.512 60.4808C278.434 61.4881 278.357 62.418 278.279 63.2703H228.417V51.6474H266.54L258.172 54.9018C258.249 52.0348 257.707 49.5552 256.545 47.4631C255.46 45.371 253.91 43.7438 251.895 42.5815C249.958 41.4192 247.672 40.838 245.038 40.838C242.403 40.838 240.079 41.4192 238.064 42.5815C236.127 43.7438 234.616 45.4097 233.531 47.5793C232.446 49.6715 231.904 52.151 231.904 55.018V58.3887C231.904 61.4881 232.524 64.1614 233.764 66.4085C235.081 68.6556 236.94 70.399 239.343 71.6388C241.745 72.8011 244.612 73.3823 247.944 73.3823C251.043 73.3823 253.678 72.9561 255.847 72.1037C258.094 71.1739 260.303 69.7792 262.472 67.9195L274.095 80.0073C271.073 83.3392 267.354 85.8963 262.937 87.6785C258.52 89.3832 253.29 90.2355 247.246 90.2355ZM288.81 89.1895V26.1931H309.847V44.5574L306.709 39.3271C308.569 34.6004 311.591 31.0748 315.775 28.7502C319.959 26.3481 325.035 25.1471 331.001 25.1471V45.0223C329.994 44.8673 329.103 44.7898 328.328 44.7898C327.631 44.7124 326.856 44.6736 326.003 44.6736C321.509 44.6736 317.867 45.9134 315.078 48.393C312.288 50.795 310.894 54.7468 310.894 60.2483V89.1895H288.81Z" fill="url(#paint2_linear_8781_1716)"/>
<path style="mix-blend-mode:overlay" d="M8.3548 90V8.63945H45.5482C52.9869 8.63945 59.3795 9.84049 64.726 12.2426C70.1501 14.6446 74.3343 18.1315 77.2788 22.7032C80.2233 27.1974 81.6955 32.544 81.6955 38.7429C81.6955 44.8643 80.2233 50.1721 77.2788 54.6663C74.3343 59.083 70.1501 62.4924 64.726 64.8945C59.3795 67.219 52.9869 68.3813 45.5482 68.3813H21.14L31.3682 58.7343V90H8.3548ZM58.6821 90L38.4582 60.3615H62.9826L83.3227 90H58.6821ZM31.3682 61.1751L21.14 50.5982H44.1534C48.9576 50.5982 52.522 49.5522 54.8465 47.4601C57.2486 45.3679 58.4497 42.4622 58.4497 38.7429C58.4497 34.946 57.2486 32.0016 54.8465 29.9094C52.522 27.8173 48.9576 26.7712 44.1534 26.7712H21.14L31.3682 16.1944V61.1751ZM126.355 91.0461C118.916 91.0461 112.407 89.6513 106.828 86.8618C101.327 83.9948 97.0263 80.1205 93.9268 75.2389C90.9049 70.2798 89.3939 64.662 89.3939 58.3856C89.3939 52.1092 90.8661 46.5302 93.8106 41.6486C96.8326 36.6895 100.978 32.8539 106.247 30.1419C111.516 27.3524 117.444 25.9576 124.03 25.9576C130.229 25.9576 135.886 27.2362 141 29.7932C146.114 32.2728 150.182 35.9534 153.204 40.835C156.226 45.7166 157.737 51.6443 157.737 58.6181C157.737 59.3929 157.698 60.284 157.621 61.2914C157.543 62.2987 157.466 63.2285 157.388 64.0809H107.526V52.4579H145.649L137.28 55.7123C137.358 52.8454 136.815 50.3658 135.653 48.2737C134.568 46.1815 133.019 44.5543 131.004 43.392C129.067 42.2297 126.781 41.6486 124.146 41.6486C121.512 41.6486 119.187 42.2297 117.173 43.392C115.236 44.5543 113.725 46.2203 112.64 48.3899C111.555 50.482 111.013 52.9616 111.013 55.8286V59.1992C111.013 62.2987 111.632 64.9719 112.872 67.219C114.189 69.4661 116.049 71.2096 118.451 72.4494C120.853 73.6117 123.72 74.1928 127.052 74.1928C130.152 74.1928 132.786 73.7666 134.956 72.9143C137.203 71.9845 139.411 70.5897 141.581 68.73L153.204 80.8179C150.182 84.1498 146.463 86.7068 142.046 88.489C137.629 90.1937 132.399 91.0461 126.355 91.0461ZM170.476 90V27.7011C170.476 20.1074 172.723 14.0635 177.217 9.56929C181.789 4.9976 188.298 2.71175 196.744 2.71175C199.456 2.71175 202.129 2.98296 204.763 3.52536C207.398 4.06776 209.606 4.88137 211.388 5.96618L205.926 21.5409C204.996 20.9985 203.95 20.5723 202.787 20.2624C201.625 19.875 200.463 19.6812 199.301 19.6812C196.976 19.6812 195.155 20.3786 193.838 21.7734C192.598 23.0906 191.978 25.144 191.978 27.9335V32.4665L192.559 41.6486V90H170.476ZM161.294 45.8328V29.3283H206.972V45.8328H161.294ZM247.465 91.0461C240.026 91.0461 233.517 89.6513 227.938 86.8618C222.437 83.9948 218.136 80.1205 215.037 75.2389C212.015 70.2798 210.504 64.662 210.504 58.3856C210.504 52.1092 211.976 46.5302 214.921 41.6486C217.943 36.6895 222.088 32.8539 227.357 30.1419C232.626 27.3524 238.554 25.9576 245.14 25.9576C251.339 25.9576 256.996 27.2362 262.11 29.7932C267.224 32.2728 271.292 35.9534 274.314 40.835C277.336 45.7166 278.847 51.6443 278.847 58.6181C278.847 59.3929 278.808 60.284 278.731 61.2914C278.653 62.2987 278.576 63.2285 278.498 64.0809H228.636V52.4579H266.759L258.39 55.7123C258.468 52.8454 257.926 50.3658 256.763 48.2737C255.678 46.1815 254.129 44.5543 252.114 43.392C250.177 42.2297 247.891 41.6486 245.257 41.6486C242.622 41.6486 240.297 42.2297 238.283 43.392C236.346 44.5543 234.835 46.2203 233.75 48.3899C232.665 50.482 232.123 52.9616 232.123 55.8286V59.1992C232.123 62.2987 232.743 64.9719 233.982 67.219C235.3 69.4661 237.159 71.2096 239.561 72.4494C241.963 73.6117 244.83 74.1928 248.162 74.1928C251.262 74.1928 253.896 73.7666 256.066 72.9143C258.313 71.9845 260.521 70.5897 262.691 68.73L274.314 80.8179C271.292 84.1498 267.573 86.7068 263.156 88.489C258.739 90.1937 253.509 91.0461 247.465 91.0461ZM289.029 90V27.0037H310.066V45.3679L306.928 40.1376C308.788 35.4109 311.81 31.8853 315.994 29.5607C320.178 27.1587 325.254 25.9576 331.22 25.9576V45.8328C330.213 45.6779 329.322 45.6004 328.547 45.6004C327.849 45.5229 327.074 45.4842 326.222 45.4842C321.728 45.4842 318.086 46.7239 315.297 49.2035C312.507 51.6056 311.112 55.5574 311.112 61.0589V90H289.029Z" fill="url(#paint3_linear_8781_1716)"/>
<defs>
<linearGradient id="paint0_linear_8781_1716" x1="176.04" y1="-3.52885" x2="176.023" y2="98.489" gradientUnits="userSpaceOnUse">
<stop stop-color="#9A3504"/>
<stop offset="0.07" stop-color="#F0A900"/>
<stop offset="0.1" stop-color="#C57D10"/>
<stop offset="0.17" stop-color="#C67E12"/>
<stop offset="0.19" stop-color="#C78219"/>
<stop offset="0.21" stop-color="#CB8924"/>
<stop offset="0.23" stop-color="#CF9435"/>
<stop offset="0.24" stop-color="#D5A14B"/>
<stop offset="0.25" stop-color="#DDB167"/>
<stop offset="0.26" stop-color="#E6C587"/>
<stop offset="0.27" stop-color="#F0DCAD"/>
<stop offset="0.28" stop-color="#FFFCE2"/>
<stop offset="0.34" stop-color="#F2D457"/>
<stop offset="0.39" stop-color="#F2D459"/>
<stop offset="0.4" stop-color="#F3D660"/>
<stop offset="0.41" stop-color="#F4D96B"/>
<stop offset="0.42" stop-color="#F5DE7C"/>
<stop offset="0.43" stop-color="#F7E392"/>
<stop offset="0.44" stop-color="#FBF2CE"/>
<stop offset="0.45" stop-color="white"/>
<stop offset="0.48" stop-color="#FFFEFC"/>
<stop offset="0.49" stop-color="#FEFBF3"/>
<stop offset="0.51" stop-color="#FDF5E2"/>
<stop offset="0.52" stop-color="#FBEDCC"/>
<stop offset="0.54" stop-color="#F8E2AF"/>
<stop offset="0.55" stop-color="#F5D68B"/>
<stop offset="0.56" stop-color="#F1C760"/>
<stop offset="0.57" stop-color="#EDB530"/>
<stop offset="0.58" stop-color="#ECB123"/>
<stop offset="0.71" stop-color="#AB5800"/>
<stop offset="0.75" stop-color="#AC5A02"/>
<stop offset="0.77" stop-color="#B06107"/>
<stop offset="0.78" stop-color="#B86E10"/>
<stop offset="0.79" stop-color="#C2801D"/>
<stop offset="0.8" stop-color="#D0982E"/>
<stop offset="0.81" stop-color="#E0B442"/>
<stop offset="0.82" stop-color="#EDCB53"/>
<stop offset="0.88" stop-color="#E7D297"/>
<stop offset="0.91" stop-color="#813C01"/>
<stop offset="0.96" stop-color="#FEFBE4"/>
<stop offset="1" stop-color="#DBA535"/>
</linearGradient>
<linearGradient id="paint1_linear_8781_1716" x1="15.3994" y1="10.8949" x2="60.0887" y2="178.214" gradientUnits="userSpaceOnUse">
<stop stop-color="#FEFBE4"/>
<stop offset="0.07" stop-color="#FDF7DA"/>
<stop offset="0.19" stop-color="#CB9F4C"/>
<stop offset="0.43" stop-color="#ECB123"/>
<stop offset="0.58" stop-color="#813C01"/>
<stop offset="0.77" stop-color="#FDF7DA"/>
<stop offset="0.81" stop-color="#EDCB53"/>
<stop offset="0.88" stop-color="#9F3C06"/>
<stop offset="1" stop-color="#FEFBE4"/>
</linearGradient>
<linearGradient id="paint2_linear_8781_1716" x1="24.5874" y1="0.205124" x2="43.4101" y2="126.636" gradientUnits="userSpaceOnUse">
<stop stop-color="#B77918"/>
<stop offset="0.05" stop-color="#CCA03F"/>
<stop offset="0.13" stop-color="#E7D373"/>
<stop offset="0.18" stop-color="#F9F393"/>
<stop offset="0.22" stop-color="#FFFF9F"/>
<stop offset="0.28" stop-color="#FFF293"/>
<stop offset="0.37" stop-color="#FED87A"/>
<stop offset="0.42" stop-color="#F1C86B"/>
<stop offset="0.49" stop-color="#E5BA5E"/>
<stop offset="0.54" stop-color="#E1B55A"/>
<stop offset="0.6" stop-color="#E8C66A"/>
<stop offset="0.7" stop-color="#FAF293"/>
<stop offset="0.73" stop-color="#FFFF9F"/>
<stop offset="0.75" stop-color="#F9F494"/>
<stop offset="0.83" stop-color="#DDBF5F"/>
<stop offset="0.91" stop-color="#C89938"/>
<stop offset="0.96" stop-color="#BC8221"/>
<stop offset="1" stop-color="#B77918"/>
</linearGradient>
<linearGradient id="paint3_linear_8781_1716" x1="113.559" y1="101.634" x2="121.236" y2="-29.2957" gradientUnits="userSpaceOnUse">
<stop stop-color="#4F4648"/>
<stop offset="0.26" stop-color="#736C6E"/>
<stop offset="0.76" stop-color="#B5B3B3"/>
<stop offset="1" stop-color="#CFCFCF"/>
</linearGradient>
</defs>
</svg>
