<svg width="500" height="500" viewBox="0 0 500 500" fill="none" xmlns="http://www.w3.org/2000/svg">
<path d="M78.2399 245.13C-16.6201 299.9 -16.6101 388.69 78.2399 443.46C173.09 498.23 326.89 498.22 421.75 443.46C516.61 388.7 516.6 299.9 421.75 245.13C326.9 190.36 173.1 190.37 78.2399 245.13Z" fill="#F5F5F5"/>
<path d="M253.67 391.54C253.648 391.762 253.575 391.975 253.457 392.165C253.339 392.354 253.179 392.513 252.99 392.63L252.9 392.68L143.58 455.78C142.936 456.12 142.218 456.295 141.49 456.29C140.698 456.317 139.912 456.137 139.21 455.77L66.7498 414C66.2972 413.741 65.9246 413.362 65.6724 412.905C65.4203 412.448 65.2983 411.931 65.3198 411.41V411.33C65.3397 410.921 65.4474 410.521 65.6354 410.157C65.8235 409.793 66.0876 409.473 66.4098 409.22L172 348.23C173.088 347.596 174.312 347.233 175.57 347.17H175.64C177.111 347.113 178.57 347.459 179.86 348.17L180.01 348.25L252.74 390.25L252.84 390.31L252.92 390.36C253.151 390.508 253.337 390.715 253.46 390.96C253.489 391.01 253.509 391.064 253.52 391.12C253.532 391.166 253.532 391.214 253.52 391.26C253.528 391.293 253.528 391.327 253.52 391.36V391.51L253.67 391.54Z" fill="#E0E0E0"/>
<path d="M94.3499 364.73C123.179 364.73 146.55 351.236 146.55 334.59C146.55 317.944 123.179 304.45 94.3499 304.45C65.5206 304.45 42.1499 317.944 42.1499 334.59C42.1499 351.236 65.5206 364.73 94.3499 364.73Z" fill="#E0E0E0"/>
<path d="M405.531 373.12C434.36 373.12 457.731 359.626 457.731 342.98C457.731 326.334 434.36 312.84 405.531 312.84C376.701 312.84 353.331 326.334 353.331 342.98C353.331 359.626 376.701 373.12 405.531 373.12Z" fill="#E0E0E0"/>
<path d="M314.79 288.81L220.38 343.34L94.8699 270.88L189.28 216.35L314.79 288.81Z" fill="#E0E0E0"/>
<path d="M293.802 94.1997V98.3997C293.802 98.3997 292.182 96.9197 292.092 95.8597C292.002 94.7997 293.802 94.1997 293.802 94.1997Z" fill="black"/>
<path d="M290.57 93.1802C290.388 93.7619 290.329 94.3751 290.395 94.981C290.462 95.5869 290.654 96.1724 290.958 96.7004C291.263 97.2285 291.673 97.6878 292.164 98.0492C292.655 98.4106 293.216 98.6663 293.81 98.8002C298.39 100.24 301.27 98.8002 301.95 100.08C302.63 101.36 280.22 114.29 280.22 114.29L284.48 95.7402L290.57 93.1802Z" fill="#263238"/>
<path d="M288.3 290.68V291L286.06 289.7L192.06 235.34L192.19 43.4801C192.19 40.8001 193.66 39.4801 195.46 40.4801L198.73 42.3801L288.67 94.2801L288.59 95.0701L288.3 290.68Z" fill="#37474F"/>
<path d="M269.001 119.44L264.281 114.13L288.431 100.19C292.071 102.94 294.871 104.41 298.131 103.03L269.001 119.44Z" fill="#FF7FB3"/>
<path d="M287.251 97.3399L198.171 45.9099C197.305 45.4714 196.348 45.2429 195.376 45.2429C194.405 45.2429 193.448 45.4714 192.581 45.9099L168.771 59.6599L259.101 111.35C259.101 111.35 263.001 110.35 265.661 112.49C268.321 114.63 268.171 111.91 268.171 111.91L288.471 100.19C286.811 97.9999 287.251 97.3399 287.251 97.3399Z" fill="#F5F5F5"/>
<path d="M267.3 118.34C266.38 117.81 265.99 117.19 266.42 116.94L267.18 116.51C268.02 116.02 267.24 114.77 265.42 113.72C263.6 112.67 261.42 112.2 260.61 112.72L259.85 113.16C259.42 113.41 257.85 112.89 256.3 112.01L256.85 299.29L259.1 300.58C259.539 300.681 259.999 300.635 260.41 300.45L261.17 300.02C262.01 299.53 264.17 300.02 265.97 301.02C267.77 302.02 268.57 303.33 267.73 303.81L266.97 304.25C266.54 304.5 266.97 305.11 267.85 305.64L267.3 118.34Z" fill="#263238"/>
<path d="M259.101 300.27V300.54L256.861 299.24L160.661 243.71V61.6C160.661 58.92 162.121 57.5999 163.931 58.6L167.201 60.5L259.081 111.3L259.101 300.27Z" fill="#37474F"/>
<path d="M266.25 304.67V117.21L272.25 119.62V306.54C271.142 306.766 269.991 306.651 268.95 306.21L266.25 304.67Z" fill="#37474F"/>
<path d="M304.361 287.32C304.371 287.426 304.371 287.533 304.361 287.64C304.38 287.712 304.38 287.788 304.361 287.86C304.317 288.014 304.253 288.162 304.171 288.3C304.14 288.379 304.104 288.456 304.061 288.53C303.916 288.792 303.742 289.037 303.541 289.26C303.337 289.514 303.117 289.755 302.881 289.98C302.611 290.23 302.331 290.46 302.031 290.71C301.865 290.857 301.688 290.99 301.501 291.11L301.061 291.42C300.731 291.65 300.371 291.87 299.991 292.09L279.271 304.09C277.116 305.355 274.741 306.199 272.271 306.58V119.62L304.431 100.35V287.27L304.361 287.32Z" fill="#455A64"/>
<path d="M272.221 142.75V162.85C285.071 158.49 296.101 152.56 304.381 144.28V124.19C296.101 132.47 285.071 138.39 272.221 142.75Z" fill="#FF7FB3"/>
<path opacity="0.4" d="M272.221 142.75V162.85C285.071 158.49 296.101 152.56 304.381 144.28V124.19C296.101 132.47 285.071 138.39 272.221 142.75Z" fill="white"/>
<path d="M272.221 170.29V177.78C285.071 173.42 296.101 167.5 304.381 159.22V151.73C296.101 160 285.071 165.93 272.221 170.29Z" fill="#FF7FB3"/>
<path opacity="0.4" d="M272.221 170.29V177.78C285.071 173.42 296.101 167.5 304.381 159.22V151.73C296.101 160 285.071 165.93 272.221 170.29Z" fill="white"/>
<path d="M303.651 99.2299L302.371 98.4899L301.371 97.8999L300.891 97.6099C300.673 97.543 300.443 97.5263 300.218 97.5609C299.993 97.5955 299.778 97.6807 299.591 97.8099L298.691 98.3299C297.801 98.8099 296.321 98.7699 294.551 97.7399C292.781 96.7099 292.001 95.4199 292.911 94.8999L293.641 94.4699L293.771 94.3799C294.121 94.0899 293.251 93.1899 291.771 92.3799L270.781 80.2599L205.261 42.4099L204.001 41.7199C203.801 41.5899 203.561 41.4699 203.301 41.3199C203.041 41.1699 202.681 40.9499 202.301 40.7499C201.921 40.5499 201.251 40.1599 200.711 39.8399L199.791 39.3099C199.271 39.0299 198.791 38.7299 198.311 38.4599C198.052 38.3282 197.766 38.2595 197.476 38.2595C197.185 38.2595 196.899 38.3282 196.641 38.4599L194.261 39.8399L193.361 40.3499C193.636 40.202 193.943 40.1245 194.256 40.1245C194.568 40.1245 194.876 40.202 195.151 40.3499L199.151 42.6499C199.611 42.8999 200.071 43.1799 200.511 43.4299L205.241 46.1599L287.751 93.7899L288.331 94.1099L288.611 94.2799C288.419 95.3099 288.603 96.3746 289.131 97.2799C289.875 98.4544 290.908 99.4184 292.131 100.08C294.241 101.32 297.461 102.3 299.831 101.27C299.811 101.275 299.79 101.275 299.771 101.27L299.111 101.74C298.841 101.92 298.551 102.1 298.261 102.27L277.541 114.27C275.455 115.551 273.084 116.297 270.641 116.44C270.763 115.492 270.562 114.53 270.071 113.71C269.297 112.512 268.23 111.531 266.971 110.86C265.527 110.01 263.924 109.465 262.261 109.26C262.151 109.26 262.021 109.26 261.911 109.26C260.922 109.163 259.926 109.35 259.041 109.8L173.781 60.5899L170.881 58.9199L167.191 56.7799C166.899 56.5826 166.561 56.4658 166.209 56.4412C165.858 56.4166 165.507 56.4851 165.191 56.6399L161.911 58.5299C162.225 58.3722 162.576 58.3003 162.927 58.3214C163.278 58.3425 163.617 58.4558 163.911 58.6499H163.971L173.741 64.2999L256.291 112C257.831 112.89 259.421 113.42 259.861 113.17L260.611 112.74C261.153 112.514 261.754 112.475 262.321 112.63C263.413 112.815 264.463 113.194 265.421 113.75C267.241 114.81 268.011 116.06 267.171 116.54L266.421 116.98C265.991 117.23 266.421 117.84 267.301 118.37L268.941 119.31C270.741 120.31 275.351 119.39 279.211 117.16L299.931 105.16C300.311 104.94 300.661 104.72 301.001 104.49L301.441 104.18C301.626 104.058 301.803 103.924 301.971 103.78C302.271 103.53 302.551 103.3 302.821 103.05C303.054 102.822 303.274 102.582 303.481 102.33C303.678 102.105 303.852 101.86 304.001 101.6C304.041 101.531 304.071 101.457 304.091 101.38C304.177 101.244 304.241 101.096 304.281 100.94C304.299 100.868 304.299 100.792 304.281 100.72C304.358 100.437 304.337 100.136 304.223 99.866C304.109 99.5959 303.907 99.3719 303.651 99.2299Z" fill="#455A64"/>
<path opacity="0.2" d="M303.651 99.2299L302.371 98.4899L301.371 97.8999L300.891 97.6099C300.673 97.543 300.443 97.5263 300.218 97.5609C299.993 97.5955 299.778 97.6807 299.591 97.8099L298.691 98.3299C297.801 98.8099 296.321 98.7699 294.551 97.7399C292.781 96.7099 292.001 95.4199 292.911 94.8999L293.641 94.4699L293.771 94.3799C294.121 94.0899 293.251 93.1899 291.771 92.3799L270.781 80.2599L205.261 42.4099L204.001 41.7199C203.801 41.5899 203.561 41.4699 203.301 41.3199C203.041 41.1699 202.681 40.9499 202.301 40.7499C201.921 40.5499 201.251 40.1599 200.711 39.8399L199.791 39.3099C199.271 39.0299 198.791 38.7299 198.311 38.4599C198.052 38.3282 197.766 38.2595 197.476 38.2595C197.185 38.2595 196.899 38.3282 196.641 38.4599L194.261 39.8399L193.361 40.3499C193.636 40.202 193.943 40.1245 194.256 40.1245C194.568 40.1245 194.876 40.202 195.151 40.3499L199.151 42.6499C199.611 42.8999 200.071 43.1799 200.511 43.4299L205.241 46.1599L287.751 93.7899L288.331 94.1099L288.611 94.2799C288.419 95.3099 288.603 96.3746 289.131 97.2799C289.875 98.4544 290.908 99.4184 292.131 100.08C294.241 101.32 297.461 102.3 299.831 101.27C299.811 101.275 299.79 101.275 299.771 101.27L299.111 101.74C298.841 101.92 298.551 102.1 298.261 102.27L277.541 114.27C275.455 115.551 273.084 116.297 270.641 116.44C270.763 115.492 270.562 114.53 270.071 113.71C269.297 112.512 268.23 111.531 266.971 110.86C265.527 110.01 263.924 109.465 262.261 109.26C262.151 109.26 262.021 109.26 261.911 109.26C260.922 109.163 259.926 109.35 259.041 109.8L173.781 60.5899L170.881 58.9199L167.191 56.7799C166.899 56.5826 166.561 56.4658 166.209 56.4412C165.858 56.4166 165.507 56.4851 165.191 56.6399L161.911 58.5299C162.225 58.3722 162.576 58.3003 162.927 58.3214C163.278 58.3425 163.617 58.4558 163.911 58.6499H163.971L173.741 64.2999L256.291 112C257.831 112.89 259.421 113.42 259.861 113.17L260.611 112.74C261.153 112.514 261.754 112.475 262.321 112.63C263.413 112.815 264.463 113.194 265.421 113.75C267.241 114.81 268.011 116.06 267.171 116.54L266.421 116.98C265.991 117.23 266.421 117.84 267.301 118.37L268.941 119.31C270.741 120.31 275.351 119.39 279.211 117.16L299.931 105.16C300.311 104.94 300.661 104.72 301.001 104.49L301.441 104.18C301.626 104.058 301.803 103.924 301.971 103.78C302.271 103.53 302.551 103.3 302.821 103.05C303.054 102.822 303.274 102.582 303.481 102.33C303.678 102.105 303.852 101.86 304.001 101.6C304.041 101.531 304.071 101.457 304.091 101.38C304.177 101.244 304.241 101.096 304.281 100.94C304.299 100.868 304.299 100.792 304.281 100.72C304.358 100.437 304.337 100.136 304.223 99.866C304.109 99.5959 303.907 99.3719 303.651 99.2299Z" fill="white"/>
<path d="M246.111 122.94V127.13C246.111 127.13 244.491 125.66 244.401 124.6C244.311 123.54 246.111 122.94 246.111 122.94Z" fill="black"/>
<path d="M242.88 121.92C242.698 122.501 242.639 123.114 242.706 123.719C242.772 124.324 242.964 124.909 243.269 125.436C243.573 125.963 243.984 126.422 244.475 126.782C244.966 127.143 245.526 127.397 246.12 127.53C250.7 128.97 253.58 127.53 254.26 128.82C254.94 130.11 232.53 143 232.53 143L236.79 124.44L242.88 121.92Z" fill="#FF7FB3"/>
<path opacity="0.3" d="M242.88 121.92C242.698 122.501 242.639 123.114 242.706 123.719C242.772 124.324 242.964 124.909 243.269 125.436C243.573 125.963 243.984 126.422 244.475 126.782C244.966 127.143 245.526 127.397 246.12 127.53C250.7 128.97 253.58 127.53 254.26 128.82C254.94 130.11 232.53 143 232.53 143L236.79 124.44L242.88 121.92Z" fill="black"/>
<path d="M240.612 319.42V319.68L238.372 318.39L144.372 264.02L144.502 72.17C144.502 69.49 145.962 68.17 147.772 69.17L151.002 71.11L240.942 123L240.862 123.78L240.612 319.42Z" fill="#FF7FB3"/>
<path opacity="0.2" d="M240.612 319.42V319.68L238.372 318.39L144.372 264.02L144.502 72.17C144.502 69.49 145.962 68.17 147.772 69.17L151.002 71.11L240.942 123L240.862 123.78L240.612 319.42Z" fill="black"/>
<path d="M221.35 148.18L216.63 142.87L240.78 128.93C244.42 131.67 247.22 133.14 250.48 131.77L221.35 148.18Z" fill="#455A64"/>
<path d="M239.561 126.07L150.481 74.6499C149.615 74.2114 148.657 73.9829 147.686 73.9829C146.715 73.9829 145.758 74.2114 144.891 74.6499L121.081 88.3899L211.411 140.09C211.411 140.09 215.311 139.09 217.971 141.22C220.631 143.35 220.481 140.65 220.481 140.65L240.781 128.93C239.121 126.7 239.561 126.07 239.561 126.07Z" fill="#F5F5F5"/>
<path d="M219.612 147.07C218.692 146.54 218.302 145.93 218.732 145.68L219.492 145.24C220.332 144.76 219.552 143.51 217.732 142.45C215.912 141.39 213.732 140.93 212.922 141.45L212.162 141.89C211.732 142.14 210.162 141.62 208.612 140.73L209.162 328L211.412 329.29C211.85 329.393 212.31 329.351 212.722 329.17L213.482 328.73C214.322 328.25 216.482 328.73 218.282 329.73C220.082 330.73 220.882 332.03 220.042 332.52L219.282 332.95C218.852 333.2 219.282 333.82 220.162 334.35L219.612 147.07Z" fill="#FF7FB3"/>
<path opacity="0.25" d="M219.612 147.07C218.692 146.54 218.302 145.93 218.732 145.68L219.492 145.24C220.332 144.76 219.552 143.51 217.732 142.45C215.912 141.39 213.732 140.93 212.922 141.45L212.162 141.89C211.732 142.14 210.162 141.62 208.612 140.73L209.162 328L211.412 329.29C211.85 329.393 212.31 329.351 212.722 329.17L213.482 328.73C214.322 328.25 216.482 328.73 218.282 329.73C220.082 330.73 220.882 332.03 220.042 332.52L219.282 332.95C218.852 333.2 219.282 333.82 220.162 334.35L219.612 147.07Z" fill="white"/>
<path d="M211.411 329V329.26L209.161 328L113.001 272.44V90.3299C113.001 87.6599 114.461 86.3299 116.271 87.3899L119.541 89.2799L211.421 140.09L211.411 329Z" fill="#FF7FB3"/>
<path opacity="0.4" d="M211.411 329V329.26L209.161 328L113.001 272.44V90.3299C113.001 87.6599 114.461 86.3299 116.271 87.3899L119.541 89.2799L211.421 140.09L211.411 329Z" fill="white"/>
<path d="M218.56 333.4V145.94L224.56 148.35V335.27C223.453 335.493 222.304 335.382 221.26 334.95L218.56 333.4Z" fill="#FF7FB3"/>
<path opacity="0.4" d="M218.56 333.4V145.94L224.56 148.35V335.27C223.453 335.493 222.304 335.382 221.26 334.95L218.56 333.4Z" fill="white"/>
<path d="M256.671 316.06C256.68 316.167 256.68 316.274 256.671 316.38C256.69 316.449 256.69 316.521 256.671 316.59C256.624 316.747 256.561 316.897 256.481 317.04C256.45 317.12 256.414 317.196 256.371 317.27C256.229 317.531 256.054 317.773 255.851 317.99C255.65 318.247 255.429 318.487 255.191 318.71C254.921 318.96 254.641 319.2 254.341 319.44C254.173 319.588 253.996 319.725 253.811 319.85L253.371 320.15C253.026 320.395 252.669 320.622 252.301 320.83L231.581 332.83C229.428 334.096 227.051 334.938 224.581 335.31V148.35L256.741 129.08V316L256.671 316.06Z" fill="#FF7FB3"/>
<g opacity="0.7">
<path d="M256.671 316.06C256.68 316.167 256.68 316.274 256.671 316.38C256.69 316.449 256.69 316.521 256.671 316.59C256.624 316.747 256.561 316.897 256.481 317.04C256.45 317.12 256.414 317.196 256.371 317.27C256.229 317.531 256.054 317.773 255.851 317.99C255.65 318.247 255.429 318.487 255.191 318.71C254.921 318.96 254.641 319.2 254.341 319.44C254.173 319.588 253.996 319.725 253.811 319.85L253.371 320.15C253.026 320.395 252.669 320.622 252.301 320.83L231.581 332.83C229.428 334.096 227.051 334.938 224.581 335.31V148.35L256.741 129.08V316L256.671 316.06Z" fill="white"/>
</g>
<path d="M224.531 162.16V182.26C237.381 177.89 248.411 171.97 256.691 163.69V143.6C248.411 151.87 237.381 157.8 224.531 162.16Z" fill="#FAFAFA"/>
<path d="M224.531 294.34V314.43C237.381 310.07 248.411 304.14 256.691 295.87V275.77C248.411 284.05 237.381 290 224.531 294.34Z" fill="#FAFAFA"/>
<path d="M231.52 145.86L229.91 143.06C227.829 144.351 225.456 145.097 223.01 145.23C223.132 144.282 222.931 143.32 222.44 142.5C221.66 141.306 220.595 140.327 219.34 139.65C217.893 138.808 216.291 138.267 214.63 138.06C214.513 138.05 214.396 138.05 214.28 138.06C213.288 137.964 212.29 138.151 211.4 138.6L126.09 89.3201L123.19 87.6601L119.49 85.5201C119.199 85.3212 118.861 85.2026 118.51 85.1763C118.159 85.1499 117.807 85.2168 117.49 85.3701L114.21 87.2601C114.531 87.0943 114.892 87.0189 115.253 87.0418C115.614 87.0647 115.962 87.1851 116.26 87.3901L126.04 93.0501L208.6 140.7C210.14 141.58 211.73 142.12 212.17 141.87L212.92 141.43C213.462 141.204 214.064 141.166 214.63 141.32C215.721 141.504 216.768 141.887 217.72 142.45C219.55 143.5 220.32 144.75 219.48 145.24L218.73 145.67C218.3 145.92 218.73 146.54 219.61 147.07L221.25 148C223.05 149.05 227.66 148.09 231.52 145.86Z" fill="#FF7FB3"/>
<path opacity="0.6" d="M231.52 145.86L229.91 143.06C227.829 144.351 225.456 145.097 223.01 145.23C223.132 144.282 222.931 143.32 222.44 142.5C221.66 141.306 220.595 140.327 219.34 139.65C217.893 138.808 216.291 138.267 214.63 138.06C214.513 138.05 214.396 138.05 214.28 138.06C213.288 137.964 212.29 138.151 211.4 138.6L126.09 89.3201L123.19 87.6601L119.49 85.5201C119.199 85.3212 118.861 85.2026 118.51 85.1763C118.159 85.1499 117.807 85.2168 117.49 85.3701L114.21 87.2601C114.531 87.0943 114.892 87.0189 115.253 87.0418C115.614 87.0647 115.962 87.1851 116.26 87.3901L126.04 93.0501L208.6 140.7C210.14 141.58 211.73 142.12 212.17 141.87L212.92 141.43C213.462 141.204 214.064 141.166 214.63 141.32C215.721 141.504 216.768 141.887 217.72 142.45C219.55 143.5 220.32 144.75 219.48 145.24L218.73 145.67C218.3 145.92 218.73 146.54 219.61 147.07L221.25 148C223.05 149.05 227.66 148.09 231.52 145.86Z" fill="white"/>
<path d="M229.911 143.06L250.621 131.06C250.921 130.89 251.201 130.71 251.481 130.53L252.141 130.06C252.163 130.043 252.183 130.022 252.201 130C249.831 131 246.611 130.05 244.501 128.81C243.276 128.151 242.242 127.187 241.501 126.01C240.972 125.105 240.787 124.04 240.981 123.01L240.701 122.84L240.121 122.52L157.571 74.9L152.841 72.16L151.481 71.38L147.481 69.08C147.205 68.9346 146.898 68.8586 146.586 68.8586C146.274 68.8586 145.967 68.9346 145.691 69.08L146.591 68.56L149.001 67.2C149.26 67.0633 149.548 66.9919 149.841 66.9919C150.133 66.9919 150.422 67.0633 150.681 67.2C151.151 67.47 151.681 67.76 152.161 68.04L153.081 68.57C153.621 68.89 154.171 69.2 154.671 69.48C155.171 69.76 155.361 69.87 155.671 70.05L156.371 70.45L157.591 71.15L223.091 109L244.001 121.07C245.491 121.93 246.371 122.82 246.001 123.12C245.963 123.152 245.923 123.182 245.881 123.21L245.151 123.63C244.241 124.16 244.971 125.43 246.791 126.47C248.611 127.51 250.031 127.54 250.931 127.06L251.831 126.54C252.02 126.414 252.234 126.331 252.459 126.298C252.684 126.265 252.913 126.283 253.131 126.35C253.271 126.42 253.441 126.53 253.611 126.63L254.611 127.23L256.001 128C256.267 128.134 256.48 128.354 256.606 128.625C256.731 128.895 256.761 129.2 256.691 129.49C256.709 129.559 256.709 129.631 256.691 129.7C256.651 129.859 256.587 130.011 256.501 130.15C256.48 130.228 256.446 130.303 256.401 130.37C256.259 130.629 256.088 130.871 255.891 131.09C255.683 131.344 255.459 131.585 255.221 131.81C254.961 132.06 254.681 132.3 254.381 132.55C254.081 132.8 254.031 132.82 253.851 132.95L253.411 133.26C253.071 133.48 252.721 133.71 252.341 133.93L231.621 145.93L229.911 143.06Z" fill="#FF7FB3"/>
<path opacity="0.6" d="M229.911 143.06L250.621 131.06C250.921 130.89 251.201 130.71 251.481 130.53L252.141 130.06C252.163 130.043 252.183 130.022 252.201 130C249.831 131 246.611 130.05 244.501 128.81C243.276 128.151 242.242 127.187 241.501 126.01C240.972 125.105 240.787 124.04 240.981 123.01L240.701 122.84L240.121 122.52L157.571 74.9L152.841 72.16L151.481 71.38L147.481 69.08C147.205 68.9346 146.898 68.8586 146.586 68.8586C146.274 68.8586 145.967 68.9346 145.691 69.08L146.591 68.56L149.001 67.2C149.26 67.0633 149.548 66.9919 149.841 66.9919C150.133 66.9919 150.422 67.0633 150.681 67.2C151.151 67.47 151.681 67.76 152.161 68.04L153.081 68.57C153.621 68.89 154.171 69.2 154.671 69.48C155.171 69.76 155.361 69.87 155.671 70.05L156.371 70.45L157.591 71.15L223.091 109L244.001 121.07C245.491 121.93 246.371 122.82 246.001 123.12C245.963 123.152 245.923 123.182 245.881 123.21L245.151 123.63C244.241 124.16 244.971 125.43 246.791 126.47C248.611 127.51 250.031 127.54 250.931 127.06L251.831 126.54C252.02 126.414 252.234 126.331 252.459 126.298C252.684 126.265 252.913 126.283 253.131 126.35C253.271 126.42 253.441 126.53 253.611 126.63L254.611 127.23L256.001 128C256.267 128.134 256.48 128.354 256.606 128.625C256.731 128.895 256.761 129.2 256.691 129.49C256.709 129.559 256.709 129.631 256.691 129.7C256.651 129.859 256.587 130.011 256.501 130.15C256.48 130.228 256.446 130.303 256.401 130.37C256.259 130.629 256.088 130.871 255.891 131.09C255.683 131.344 255.459 131.585 255.221 131.81C254.961 132.06 254.681 132.3 254.381 132.55C254.081 132.8 254.031 132.82 253.851 132.95L253.411 133.26C253.071 133.48 252.721 133.71 252.341 133.93L231.621 145.93L229.911 143.06Z" fill="white"/>
<path d="M138 294.19H48.3203L57.6003 332.83C58.3103 337.49 61.7403 342.03 67.9103 345.6C81.9103 353.65 104.48 353.65 118.43 345.6C125.08 341.76 128.52 336.78 128.83 331.76L138 294.19Z" fill="#37474F"/>
<path d="M127.089 320.68C128.986 319.582 130.786 318.324 132.469 316.92L137.519 296.27C134.898 299.144 131.833 301.579 128.439 303.48C109.519 314.41 79.1891 314.68 59.6191 304.37L61.8991 295.17L61.1991 294.17H48.3291L57.5991 332.8C58.3091 337.45 61.7391 342 67.9091 345.57C77.8491 351.3 92.1791 352.93 104.639 350.5C82.2891 352.16 66.9591 342.39 64.6391 333.38C63.7191 329.79 62.1191 321.83 62.1191 321.83C80.8191 331.34 109.249 331 127.089 320.68Z" fill="#263238"/>
<path d="M142.69 282.76C142.177 285.273 141.157 287.656 139.69 289.76C136.751 293.911 132.899 297.332 128.43 299.76C108.96 311 77.4299 311 57.9099 299.76C53.4417 297.335 49.5922 293.913 46.6599 289.76C45.1977 287.653 44.1772 285.272 43.6599 282.76C41.9199 274.31 46.6599 265.5 57.9099 259.02C77.3799 247.77 108.96 247.77 128.43 259.02C139.67 265.5 144.43 274.31 142.69 282.76Z" fill="#455A64"/>
<path d="M139.7 289.74C136.761 293.891 132.909 297.312 128.44 299.74C108.97 310.98 77.4399 310.98 57.9199 299.74C53.4517 297.315 49.6022 293.893 46.6699 289.74C45.2077 287.633 44.1872 285.252 43.6699 282.74L45.8799 298C46.8799 304.12 51.4499 310.08 59.5799 314.76C78.1399 325.47 108.22 325.47 126.78 314.76C134.78 310.13 139.35 304.25 140.43 298.21L140.55 297.43L142.69 282.79C142.174 285.285 141.157 287.65 139.7 289.74Z" fill="#37474F"/>
<path d="M122.57 262.41C106.34 253 79.9996 253 63.8096 262.41C54.6196 267.72 50.6396 274.88 51.8096 281.79C52.7396 287.1 56.7296 292.27 63.8096 296.33C80.0196 305.71 106.34 305.71 122.57 296.33C129.57 292.27 133.57 287.1 134.57 281.81C135.73 274.88 131.76 267.72 122.57 262.41Z" fill="#263238"/>
<path d="M54.5898 288.22C57.0228 291.575 60.1724 294.345 63.8098 296.33C80.0198 305.71 106.34 305.71 122.57 296.33C126.202 294.341 129.347 291.571 131.78 288.22C131.66 282.6 127.9 277.02 120.49 272.74C105.41 264.03 80.9598 264.03 65.8898 272.74C58.4698 277 54.7098 282.61 54.5898 288.22Z" fill="#FAFAFA"/>
<path d="M246.218 385C246.224 384.967 246.224 384.933 246.218 384.9C246.223 384.867 246.223 384.833 246.218 384.8C246.232 384.758 246.232 384.712 246.218 384.67C246.207 384.62 246.187 384.572 246.158 384.53C246.05 384.304 245.88 384.113 245.668 383.98H245.598L245.508 383.92L178.998 345.42L178.858 345.35C177.682 344.701 176.351 344.387 175.008 344.44H174.938C173.787 344.507 172.669 344.85 171.678 345.44L166.848 348.22L83.0584 396.56L72.3884 402.72C72.0916 402.947 71.8483 403.237 71.6755 403.569C71.5027 403.901 71.4047 404.266 71.3884 404.64V410.55C71.3872 411.01 71.5078 411.463 71.7378 411.861C71.9679 412.26 72.2993 412.591 72.6984 412.82L73.6984 413.43L138.818 451C139.438 451.314 140.123 451.478 140.818 451.478C141.513 451.478 142.199 451.314 142.818 451L232.388 399.29L245.388 391.79L245.508 391.71L245.588 391.66C245.763 391.552 245.91 391.406 246.02 391.233C246.129 391.06 246.197 390.864 246.218 390.66C246.218 390.61 246.188 385.32 246.218 385Z" fill="#FF7FB3"/>
<path opacity="0.25" d="M139.619 451.36H139.759C139.931 451.4 140.104 451.43 140.279 451.45H140.669H140.819V445.71C140.123 445.722 139.434 445.556 138.819 445.23L72.6791 407.1C72.2552 406.863 71.9066 406.511 71.6732 406.084C71.4397 405.658 71.3309 405.175 71.3591 404.69V410.58C71.3579 411.04 71.4784 411.493 71.7085 411.891C71.9386 412.29 72.27 412.621 72.6691 412.85L73.6691 413.46L138.819 451C138.965 451.081 139.115 451.155 139.269 451.22L139.619 451.36Z" fill="white"/>
<path opacity="0.15" d="M246.219 390.71C246.197 390.914 246.129 391.11 246.02 391.283C245.911 391.457 245.763 391.603 245.589 391.71L245.509 391.76L245.389 391.84L142.829 451C142.24 451.31 141.584 451.471 140.919 451.47H140.849V445.73C141.543 445.735 142.229 445.574 142.849 445.26L245.509 386L245.589 385.95C245.763 385.843 245.911 385.697 246.02 385.523C246.129 385.35 246.197 385.154 246.219 384.95C246.189 385.32 246.219 390.61 246.219 390.71Z" fill="white"/>
<path opacity="0.65" d="M246.22 385C246.198 385.204 246.13 385.4 246.021 385.573C245.912 385.747 245.764 385.893 245.59 386L245.51 386.05L232.39 393.63L178.14 424.95L142.83 445.3C142.241 445.61 141.585 445.771 140.92 445.77C140.197 445.794 139.479 445.629 138.84 445.29L137.71 444.64L86.9999 415.38L73.7199 407.71L72.7199 407.11C72.3064 406.872 71.9658 406.525 71.7349 406.107C71.5041 405.69 71.3917 405.217 71.4099 404.74V404.67C71.4262 404.296 71.5242 403.931 71.6969 403.599C71.8697 403.267 72.113 402.978 72.4099 402.75L83.0799 396.59L166.84 348.23L171.67 345.45C172.661 344.861 173.779 344.518 174.93 344.45H175C176.342 344.397 177.673 344.712 178.85 345.36L178.99 345.43L245.4 383.78L245.49 383.84H245.56C245.772 383.974 245.942 384.164 246.05 384.39C246.078 384.433 246.099 384.48 246.11 384.53C246.123 384.572 246.123 384.618 246.11 384.66C246.118 384.693 246.118 384.727 246.11 384.76C246.145 384.79 246.173 384.826 246.192 384.868C246.211 384.909 246.22 384.954 246.22 385Z" fill="white"/>
<path d="M116.479 410.59C111.959 413.2 104.029 412.87 98.8086 409.85C93.5886 406.83 93.0186 402.26 97.5386 399.65C102.059 397.04 109.989 397.37 115.209 400.39C120.429 403.41 120.999 408 116.479 410.59ZM98.2286 400.05C94.0386 402.47 94.5686 406.71 99.4086 409.51C104.249 412.31 111.599 412.61 115.789 410.19C119.979 407.77 119.459 403.53 114.609 400.73C109.759 397.93 102.419 397.63 98.2286 400.05Z" fill="white"/>
<path d="M115.069 409.77H114.899C106.249 411.69 97.5088 406.21 97.4188 406.15L97.2788 406.06V406C97.1988 404.24 98.2188 402.89 100.679 401.47C103.042 400.056 105.767 399.361 108.519 399.47H108.719L108.879 399.55C108.979 399.6 118.479 404.65 115.139 409.65L115.069 409.77ZM98.2388 405.94C99.3688 406.61 106.889 410.87 114.239 409.31C116.939 405.05 109.559 400.71 108.399 400.06C105.941 400 103.516 400.631 101.399 401.88C99.1688 403.17 98.2188 404.39 98.2388 405.94Z" fill="white"/>
<path d="M102.6 403.34L103.6 403.92L103.01 404.46L107.31 406.94C107.792 407.238 108.343 407.407 108.91 407.43C109.418 407.442 109.92 407.314 110.36 407.06C110.81 406.8 111.03 406.52 111.01 406.22C110.99 405.92 110.72 405.61 110.17 405.29L105.87 402.81L104.94 403.15L103.94 402.57L106.94 400.86L107.94 401.44L107.35 401.98L111.65 404.46C112.58 405 113.03 405.56 113 406.16C112.97 406.76 112.54 407.3 111.68 407.79C110.806 408.295 109.814 408.56 108.805 408.56C107.796 408.56 106.804 408.295 105.93 407.79L101.63 405.3L100.7 405.64L99.7 405.07L100.46 404.63L101.89 403.8L102.6 403.34Z" fill="white"/>
<path d="M118.769 412.29L117.979 412.65L115.969 412.13L116.759 411.76L118.769 412.29Z" fill="white"/>
<path d="M118.769 412.29L117.979 412.65L118.519 413.86L119.309 413.5L118.769 412.29Z" fill="white"/>
<path d="M116.75 413.2L115.86 413.45L114.02 412.74L114.92 412.49L116.75 413.2Z" fill="white"/>
<path d="M116.749 413.2L115.859 413.45L115.999 414.65L116.899 414.39L116.749 413.2Z" fill="white"/>
<path d="M114.48 413.81L113.5 413.96L111.9 413.09L112.88 412.94L114.48 413.81Z" fill="white"/>
<path d="M114.479 413.81L113.499 413.96L113.269 415.1L114.239 414.95L114.479 413.81Z" fill="white"/>
<path d="M111.909 414.18L110.899 414.22L109.569 413.24L110.579 413.2L111.909 414.18Z" fill="white"/>
<path d="M111.91 414.18L110.9 414.22L110.32 415.28L111.33 415.24L111.91 414.18Z" fill="white"/>
<path d="M109.208 414.28L108.188 414.22L107.148 413.16L108.168 413.22L109.208 414.28Z" fill="white"/>
<path d="M109.209 414.28L108.189 414.22L107.299 415.16L108.319 415.22L109.209 414.28Z" fill="white"/>
<path d="M106.47 414.11L105.47 413.95L104.75 412.85L105.75 413.01L106.47 414.11Z" fill="white"/>
<path d="M106.47 414.11L105.47 413.95L104.32 414.76L105.32 414.91L106.47 414.11Z" fill="white"/>
<path d="M103.72 413.64L102.77 413.39L102.36 412.28L103.31 412.52L103.72 413.64Z" fill="white"/>
<path d="M103.72 413.64L102.77 413.39L101.38 414.05L102.33 414.29L103.72 413.64Z" fill="white"/>
<path d="M101.009 412.89L100.139 412.56L100.059 411.47L100.939 411.8L101.009 412.89Z" fill="white"/>
<path d="M101.009 412.89L100.139 412.56L98.5688 413.05L99.4389 413.37L101.009 412.89Z" fill="white"/>
<path d="M98.4883 411.9L97.7183 411.51L97.9883 410.47L98.7583 410.87L98.4883 411.9Z" fill="white"/>
<path d="M98.4885 411.9L97.7185 411.51L96.0085 411.8L96.7785 412.2L98.4885 411.9Z" fill="white"/>
<path d="M96.399 410.79L95.749 410.34L96.329 409.38L96.969 409.83L96.399 410.79Z" fill="white"/>
<path d="M96.3995 410.79L95.7495 410.34L93.9595 410.44L94.6095 410.89L96.3995 410.79Z" fill="white"/>
<path d="M94.7092 409.54L94.1992 409.06L95.0392 408.21L95.5492 408.7L94.7092 409.54Z" fill="white"/>
<path d="M94.7099 409.54L94.1999 409.06L92.3899 408.98L92.8999 409.47L94.7099 409.54Z" fill="white"/>
<path d="M93.3886 408.17L93.0186 407.66L94.0886 406.94L94.4586 407.44L93.3886 408.17Z" fill="white"/>
<path d="M93.3893 408.17L93.0193 407.66L91.2393 407.42L91.6093 407.93L93.3893 408.17Z" fill="white"/>
<path d="M92.3997 406.66L92.1697 406.14L93.4497 405.56L93.6697 406.08L92.3997 406.66Z" fill="white"/>
<path d="M92.3995 406.66L92.1695 406.14L90.4795 405.75L90.6995 406.27L92.3995 406.66Z" fill="white"/>
<path d="M91.7995 405.08L91.7295 404.57L93.1695 404.15L93.2395 404.66L91.7995 405.08Z" fill="white"/>
<path d="M91.7997 405.08L91.7297 404.57L90.1597 404.03L90.2297 404.55L91.7997 405.08Z" fill="white"/>
<path d="M91.6797 403.49L91.7697 403L93.3197 402.74L93.2297 403.23L91.6797 403.49Z" fill="white"/>
<path d="M91.6793 403.49L91.7693 403L90.3693 402.33L90.2893 402.82L91.6793 403.49Z" fill="white"/>
<path d="M92.1182 401.89L92.3582 401.44L93.9782 401.37L93.7382 401.82L92.1182 401.89Z" fill="white"/>
<path d="M92.12 401.89L92.36 401.44L91.19 400.67L90.95 401.12L92.12 401.89Z" fill="white"/>
<path d="M93.1782 400.33L93.5682 399.94L95.1982 400.04L94.8082 400.44L93.1782 400.33Z" fill="white"/>
<path d="M93.179 400.33L93.569 399.94L92.659 399.08L92.269 399.48L93.179 400.33Z" fill="white"/>
<path d="M119.419 411.91L120.049 411.46L119.149 410.29L118.519 410.75L119.419 411.91Z" fill="white"/>
<path d="M119.419 411.91L120.049 411.46L122.149 411.77L121.519 412.22L119.419 411.91Z" fill="white"/>
<path d="M120.999 410.75L121.449 410.23L120.219 409.17L119.769 409.69L120.999 410.75Z" fill="white"/>
<path d="M121 410.75L121.45 410.23L123.52 410.31L123.07 410.83L121 410.75Z" fill="white"/>
<path d="M122.059 409.43L122.309 408.87L120.819 407.94L120.559 408.51L122.059 409.43Z" fill="white"/>
<path d="M122.06 409.43L122.31 408.87L124.3 408.73L124.04 409.3L122.06 409.43Z" fill="white"/>
<path d="M122.699 407.95L122.769 407.36L121.079 406.6L121.009 407.18L122.699 407.95Z" fill="white"/>
<path d="M122.699 407.95L122.769 407.36L124.599 407.03L124.529 407.62L122.699 407.95Z" fill="white"/>
<path d="M122.869 406.39L122.769 405.8L120.939 405.2L121.049 405.79L122.869 406.39Z" fill="white"/>
<path d="M122.87 406.39L122.77 405.8L124.41 405.29L124.51 405.88L122.87 406.39Z" fill="white"/>
<path d="M122.569 404.81L122.309 404.23L120.399 403.81L120.669 404.39L122.569 404.81Z" fill="white"/>
<path d="M122.568 404.81L122.308 404.23L123.708 403.56L123.968 404.14L122.568 404.81Z" fill="white"/>
<path d="M121.759 403.22L121.339 402.67L119.419 402.43L119.839 402.98L121.759 403.22Z" fill="white"/>
<path d="M121.759 403.22L121.339 402.67L122.469 401.87L122.899 402.42L121.759 403.22Z" fill="white"/>
<path d="M120.46 401.66L119.9 401.15L118.01 401.11L118.57 401.61L120.46 401.66Z" fill="white"/>
<path d="M120.459 401.66L119.899 401.15L120.739 400.25L121.299 400.75L120.459 401.66Z" fill="white"/>
<path d="M118.758 400.2L118.068 399.76L116.278 399.91L116.958 400.36L118.758 400.2Z" fill="white"/>
<path d="M118.76 400.2L118.07 399.76L118.58 398.77L119.27 399.21L118.76 400.2Z" fill="white"/>
<path d="M116.83 398.99L116.04 398.62L114.4 398.95L115.18 399.32L116.83 398.99Z" fill="white"/>
<path d="M116.829 398.99L116.039 398.62L116.229 397.59L117.009 397.96L116.829 398.99Z" fill="white"/>
<path d="M114.67 398.02L113.83 397.72L112.36 398.21L113.2 398.5L114.67 398.02Z" fill="white"/>
<path d="M114.668 398.02L113.828 397.72L113.698 396.68L114.548 396.98L114.668 398.02Z" fill="white"/>
<path d="M112.289 397.25L111.409 397.04L110.149 397.66L111.039 397.88L112.289 397.25Z" fill="white"/>
<path d="M112.29 397.25L111.41 397.04L111 396.01L111.88 396.23L112.29 397.25Z" fill="white"/>
<path d="M109.679 396.68L108.789 396.55L107.779 397.29L108.679 397.42L109.679 396.68Z" fill="white"/>
<path d="M109.679 396.68L108.789 396.55L108.109 395.57L108.999 395.7L109.679 396.68Z" fill="white"/>
<path d="M106.94 396.34L106.06 396.3L105.32 397.13L106.21 397.17L106.94 396.34Z" fill="white"/>
<path d="M106.94 396.34L106.06 396.3L105.13 395.39L106.02 395.43L106.94 396.34Z" fill="white"/>
<path d="M104.179 396.27L103.339 396.32L102.899 397.22L103.739 397.17L104.179 396.27Z" fill="white"/>
<path d="M104.179 396.27L103.339 396.32L102.179 395.51L103.029 395.46L104.179 396.27Z" fill="white"/>
<path d="M101.42 396.52L100.64 396.66L100.51 397.6L101.29 397.46L101.42 396.52Z" fill="white"/>
<path d="M101.419 396.52L100.639 396.66L99.2986 395.99L100.079 395.85L101.419 396.52Z" fill="white"/>
<path d="M98.7191 397.13L98.0291 397.36L98.2191 398.3L98.8991 398.08L98.7191 397.13Z" fill="white"/>
<path d="M98.7191 397.13L98.0291 397.36L96.5591 396.83L97.2391 396.61L98.7191 397.13Z" fill="white"/>
<path d="M96.2598 397.78L94.6198 397.97L94.2898 398.92L95.9398 398.73L96.2598 397.78Z" fill="white"/>
<path d="M96.2598 397.78L94.2898 398.92L95.9398 398.73L96.2598 397.78Z" fill="white"/>
<path d="M151.999 376.73L123.709 393.08C123.244 393.289 122.736 393.387 122.225 393.367C121.715 393.346 121.217 393.206 120.769 392.96C119.899 392.46 119.769 391.7 120.559 391.26L148.859 374.91C149.323 374.698 149.83 374.598 150.339 374.619C150.848 374.64 151.345 374.781 151.789 375.03C152.699 375.53 152.799 376.29 151.999 376.73Z" fill="white"/>
<path d="M159.1 380.8L130.8 397.15C130.337 397.362 129.83 397.461 129.321 397.44C128.812 397.419 128.315 397.279 127.87 397.03C127 396.53 126.87 395.77 127.65 395.34L156 379C156.466 378.789 156.975 378.692 157.485 378.714C157.996 378.737 158.494 378.879 158.94 379.13C159.76 379.61 159.85 380.37 159.1 380.8Z" fill="white"/>
<path d="M196.999 378.66L140.379 411.34C139.916 411.552 139.409 411.651 138.9 411.63C138.391 411.609 137.894 411.469 137.449 411.22C136.579 410.72 136.449 409.96 137.239 409.53L193.849 376.84C194.315 376.63 194.823 376.532 195.333 376.553C195.844 376.574 196.342 376.713 196.789 376.96C197.699 377.46 197.789 378.22 196.999 378.66Z" fill="white"/>
<path d="M204.089 382.73L147.479 415.42C147.013 415.629 146.505 415.728 145.995 415.707C145.485 415.686 144.986 415.547 144.539 415.3C143.669 414.79 143.539 414.03 144.329 413.6L200.999 380.91C201.463 380.7 201.971 380.602 202.48 380.624C202.989 380.647 203.485 380.789 203.929 381.04C204.749 381.54 204.849 382.3 204.089 382.73Z" fill="white"/>
<path opacity="0.2" d="M314.821 456.3L157.431 365.44L287.581 290.3L444.961 381.16L314.821 456.3Z" fill="black"/>
<path d="M285.541 256.32L282.731 254.7L156.731 327.48V329.1C156.743 338.932 159.335 348.589 164.248 357.105C169.162 365.622 176.225 372.699 184.731 377.63L314.801 452.73L440.831 380V376.76L312.151 302.43C304.06 297.755 297.341 291.033 292.67 282.939C287.999 274.845 285.541 265.665 285.541 256.32Z" fill="#FF7FB3"/>
<path opacity="0.4" d="M314.79 449.49L440.83 376.72V379.96L314.78 452.74L314.79 449.49Z" fill="black"/>
<path opacity="0.3" d="M159.49 329.1L156.69 327.48L282.74 254.71L285.54 256.32L159.49 329.1Z" fill="white"/>
<path d="M440.831 376.72L312.151 302.43C304.059 297.755 297.341 291.033 292.67 282.939C287.999 274.845 285.54 265.665 285.541 256.32L159.541 329.1C159.541 338.445 162.001 347.624 166.674 355.717C171.347 363.809 178.067 370.529 186.161 375.2L314.841 449.49L440.841 376.72H440.831Z" fill="#FF7FB3"/>
<path d="M188.5 371.06C181.544 367.027 175.697 361.331 171.482 354.482C167.267 347.634 164.817 339.848 164.35 331.82L281.35 264.29C282.583 273.031 285.785 281.378 290.713 288.702C295.641 296.026 302.168 302.135 309.8 306.57L431.31 376.72L314.79 444L188.5 371.06Z" fill="#FAFAFA"/>
<path opacity="0.2" d="M186.11 375.2L314.79 449.49V452.73L184.72 377.63C176.214 372.699 169.151 365.622 164.238 357.105C159.324 348.589 156.732 338.932 156.72 329.1V327.48L159.52 329.1C159.518 338.442 161.973 347.619 166.641 355.711C171.308 363.804 178.023 370.525 186.11 375.2Z" fill="black"/>
<path d="M250.311 293.2L274.851 279C275.018 278.868 275.212 278.775 275.42 278.729C275.628 278.682 275.843 278.683 276.051 278.731C276.258 278.779 276.452 278.873 276.618 279.006C276.784 279.139 276.919 279.308 277.011 279.5C277.122 279.959 277.076 280.442 276.88 280.872C276.684 281.301 276.35 281.653 275.931 281.87L251.391 296.04C251.223 296.172 251.028 296.264 250.819 296.31C250.611 296.355 250.395 296.354 250.188 296.305C249.98 296.256 249.787 296.161 249.621 296.027C249.455 295.892 249.322 295.723 249.231 295.53C249.127 295.077 249.178 294.602 249.373 294.181C249.568 293.759 249.898 293.414 250.311 293.2Z" fill="#E0E0E0"/>
<path d="M193.171 345.07L244.441 315.56C244.608 315.43 244.803 315.34 245.01 315.295C245.217 315.25 245.431 315.252 245.637 315.301C245.844 315.35 246.036 315.445 246.201 315.578C246.366 315.711 246.499 315.879 246.591 316.07C246.706 316.526 246.662 317.008 246.468 317.437C246.274 317.866 245.94 318.216 245.521 318.43L194.251 347.94C194.084 348.072 193.89 348.164 193.683 348.211C193.476 348.258 193.262 348.257 193.055 348.209C192.848 348.161 192.655 348.067 192.49 347.933C192.325 347.8 192.192 347.632 192.101 347.44C191.987 346.982 192.03 346.499 192.225 346.069C192.419 345.639 192.752 345.287 193.171 345.07Z" fill="#E0E0E0"/>
<path d="M201.421 357.52L286.001 308.7C286.482 308.446 287.016 308.309 287.56 308.301C288.104 308.292 288.642 308.412 289.131 308.65C289.971 309.13 289.921 309.94 289.031 310.45L204.491 359.26C204.01 359.515 203.477 359.654 202.933 359.664C202.389 359.675 201.85 359.557 201.361 359.32C200.481 358.84 200.531 358 201.421 357.52Z" fill="#E0E0E0"/>
<path d="M207.47 361L292 312.2C292.479 311.945 293.011 311.806 293.553 311.796C294.095 311.785 294.632 311.903 295.12 312.14C295.96 312.62 295.91 313.43 295.02 313.95L210.5 362.76C210.019 363.013 209.486 363.15 208.942 363.161C208.399 363.171 207.86 363.054 207.37 362.82C206.54 362.33 206.58 361.52 207.47 361Z" fill="#E0E0E0"/>
<path d="M249.841 385.47L334.391 336.66C334.87 336.407 335.402 336.27 335.943 336.259C336.485 336.249 337.022 336.366 337.511 336.6C338.351 337.09 338.301 337.9 337.411 338.41L252.871 387.22C252.39 387.475 251.857 387.614 251.313 387.624C250.769 387.635 250.23 387.517 249.741 387.28C248.911 386.8 249.001 386 249.841 385.47Z" fill="#E0E0E0"/>
<path d="M255.901 389L340.441 340.19C340.922 339.935 341.455 339.796 341.999 339.786C342.543 339.775 343.082 339.893 343.571 340.13C344.401 340.61 344.361 341.42 343.471 341.93L258.921 390.75C258.438 390.996 257.904 391.124 257.361 391.124C256.819 391.124 256.285 390.996 255.801 390.75C255.001 390.29 255.001 389.48 255.901 389Z" fill="#E0E0E0"/>
<path d="M268.001 396L352.541 347.19C353.021 346.935 353.555 346.796 354.099 346.786C354.642 346.775 355.181 346.893 355.671 347.13C356.511 347.61 356.461 348.42 355.571 348.94L271.001 397.71C270.521 397.963 269.99 398.1 269.448 398.111C268.906 398.121 268.369 398.004 267.881 397.77C267.061 397.28 267.111 396.48 268.001 396Z" fill="#E0E0E0"/>
<path d="M274.051 399.45L358.601 350.64C359.08 350.387 359.612 350.25 360.155 350.241C360.697 350.232 361.233 350.352 361.721 350.59C362.561 351.07 362.511 351.88 361.621 352.39L277.081 401.2C276.6 401.456 276.067 401.594 275.523 401.605C274.979 401.615 274.44 401.497 273.951 401.26C273.121 400.78 273.161 400 274.051 399.45Z" fill="#E0E0E0"/>
<path d="M289.191 408.19L334.141 382.24C334.62 381.987 335.152 381.85 335.694 381.839C336.236 381.829 336.772 381.945 337.261 382.18C338.101 382.67 338.051 383.47 337.161 383.99L292.161 409.94C291.682 410.193 291.15 410.33 290.608 410.34C290.066 410.351 289.53 410.234 289.041 410C288.251 409.51 288.301 408.7 289.191 408.19Z" fill="#E0E0E0"/>
<path d="M295.491 411.54L340.441 385.54C340.921 385.285 341.455 385.146 341.999 385.136C342.543 385.125 343.081 385.243 343.571 385.48C344.401 385.96 344.361 386.77 343.471 387.28L298.471 413.23C297.992 413.485 297.46 413.624 296.918 413.634C296.376 413.644 295.839 413.527 295.351 413.29C294.551 412.86 294.601 412.05 295.491 411.54Z" fill="#E0E0E0"/>
<path d="M383.65 382C377.56 385.52 366.87 385.08 359.83 381C352.79 376.92 352.03 370.77 358.12 367.25C364.21 363.73 374.9 364.17 381.94 368.25C388.98 372.33 389.75 378.5 383.65 382ZM359.05 367.8C353.4 371.06 354.11 376.8 360.64 380.55C367.17 384.3 377.07 384.73 382.72 381.47C388.37 378.21 387.67 372.47 381.14 368.71C374.61 364.95 364.7 364.55 359.05 367.82V367.8Z" fill="#FF7FB3"/>
<path d="M381.751 380.92L381.521 380.97C369.871 383.57 358.081 376.17 357.961 376.1L357.771 375.98V375.82C357.661 373.45 359.031 371.63 362.341 369.71C365.543 367.828 369.22 366.911 372.931 367.07H373.191L373.401 367.18C373.531 367.24 386.341 374.05 381.841 380.78L381.751 380.92ZM359.071 375.75C360.591 376.66 370.731 382.4 380.681 380.31C384.311 374.56 374.371 368.71 372.801 367.83C369.474 367.733 366.19 368.587 363.331 370.29C360.321 372 359.001 373.67 359.071 375.75Z" fill="#FF7FB3"/>
<path d="M364.94 372.25L366.28 373.03L365.48 373.76L371.28 377.11C371.933 377.508 372.677 377.732 373.44 377.76C374.123 377.781 374.799 377.611 375.39 377.27C375.99 376.92 376.29 376.54 376.27 376.13C376.25 375.72 375.87 375.31 375.14 374.88L369.33 371.53L368.08 371.99L366.73 371.22L370.73 368.91L372.08 369.69L371.27 370.42L377.08 373.77C378.32 374.49 378.93 375.25 378.9 376.05C378.87 376.85 378.27 377.59 377.11 378.25C375.934 378.934 374.597 379.294 373.235 379.294C371.874 379.294 370.537 378.934 369.36 378.25L363.56 374.9L362.3 375.36L360.96 374.59L361.96 373.99L363.89 372.88L364.94 372.25Z" fill="#FF7FB3"/>
<path d="M386.74 384.31L385.68 384.8L382.97 384.1L384.03 383.61L386.74 384.31Z" fill="#FF7FB3"/>
<path d="M386.74 384.31L385.68 384.8L386.41 386.43L387.46 385.94L386.74 384.31Z" fill="#FF7FB3"/>
<path d="M384.021 385.54L382.811 385.89L380.341 384.93L381.551 384.58L384.021 385.54Z" fill="#FF7FB3"/>
<path d="M384.021 385.54L382.811 385.89L383.001 387.5L384.221 387.15L384.021 385.54Z" fill="#FF7FB3"/>
<path d="M380.95 386.36L379.64 386.56L377.48 385.4L378.8 385.2L380.95 386.36Z" fill="#FF7FB3"/>
<path d="M380.95 386.36L379.64 386.56L379.32 388.11L380.64 387.9L380.95 386.36Z" fill="#FF7FB3"/>
<path d="M377.501 386.86L376.131 386.92L374.331 385.6L375.701 385.55L377.501 386.86Z" fill="#FF7FB3"/>
<path d="M377.501 386.86L376.131 386.92L375.341 388.35L376.711 388.29L377.501 386.86Z" fill="#FF7FB3"/>
<path d="M373.86 387L372.48 386.92L371.08 385.5L372.46 385.58L373.86 387Z" fill="#FF7FB3"/>
<path d="M373.86 387L372.48 386.92L371.28 388.19L372.66 388.27L373.86 387Z" fill="#FF7FB3"/>
<path d="M370.171 386.76L368.811 386.56L367.831 385.07L369.181 385.28L370.171 386.76Z" fill="#FF7FB3"/>
<path d="M370.17 386.76L368.81 386.56L367.26 387.65L368.61 387.86L370.17 386.76Z" fill="#FF7FB3"/>
<path d="M366.45 386.13L365.16 385.81L364.62 384.31L365.9 384.63L366.45 386.13Z" fill="#FF7FB3"/>
<path d="M366.451 386.13L365.161 385.81L363.301 386.69L364.581 387.02L366.451 386.13Z" fill="#FF7FB3"/>
<path d="M362.8 385.12L361.62 384.69L361.52 383.21L362.7 383.65L362.8 385.12Z" fill="#FF7FB3"/>
<path d="M362.801 385.12L361.621 384.69L359.501 385.34L360.681 385.77L362.801 385.12Z" fill="#FF7FB3"/>
<path d="M359.4 383.8L358.37 383.26L358.72 381.87L359.76 382.4L359.4 383.8Z" fill="#FF7FB3"/>
<path d="M359.4 383.8L358.37 383.26L356.06 383.66L357.1 384.19L359.4 383.8Z" fill="#FF7FB3"/>
<path d="M356.58 382.29L355.71 381.68L356.48 380.4L357.35 381.01L356.58 382.29Z" fill="#FF7FB3"/>
<path d="M356.581 382.29L355.711 381.68L353.301 381.82L354.171 382.43L356.581 382.29Z" fill="#FF7FB3"/>
<path d="M354.3 380.61L353.61 379.96L354.75 378.81L355.44 379.47L354.3 380.61Z" fill="#FF7FB3"/>
<path d="M354.301 380.61L353.611 379.96L351.181 379.86L351.871 380.52L354.301 380.61Z" fill="#FF7FB3"/>
<path d="M352.521 378.76L352.021 378.07L353.471 377.1L353.971 377.79L352.521 378.76Z" fill="#FF7FB3"/>
<path d="M352.521 378.76L352.021 378.07L349.631 377.75L350.131 378.44L352.521 378.76Z" fill="#FF7FB3"/>
<path d="M351.191 376.73L350.881 376.03L352.601 375.25L352.901 375.95L351.191 376.73Z" fill="#FF7FB3"/>
<path d="M351.191 376.73L350.881 376.03L348.601 375.5L348.901 376.2L351.191 376.73Z" fill="#FF7FB3"/>
<path d="M350.382 374.6L350.292 373.91L352.221 373.34L352.322 374.03L350.382 374.6Z" fill="#FF7FB3"/>
<path d="M350.381 374.6L350.291 373.91L348.171 373.19L348.271 373.88L350.381 374.6Z" fill="#FF7FB3"/>
<path d="M350.22 372.45L350.33 371.79L352.43 371.45L352.31 372.11L350.22 372.45Z" fill="#FF7FB3"/>
<path d="M350.22 372.45L350.33 371.79L348.46 370.89L348.34 371.55L350.22 372.45Z" fill="#FF7FB3"/>
<path d="M350.81 370.3L351.14 369.69L353.32 369.6L353 370.2L350.81 370.3Z" fill="#FF7FB3"/>
<path d="M350.811 370.3L351.141 369.69L349.561 368.65L349.231 369.26L350.811 370.3Z" fill="#FF7FB3"/>
<path d="M352.241 368.19L352.761 367.66L354.961 367.81L354.441 368.34L352.241 368.19Z" fill="#FF7FB3"/>
<path d="M352.241 368.19L352.761 367.66L351.541 366.51L351.021 367.05L352.241 368.19Z" fill="#FF7FB3"/>
<path d="M387.621 383.8L388.471 383.19L387.251 381.63L386.401 382.24L387.621 383.8Z" fill="#FF7FB3"/>
<path d="M387.621 383.8L388.471 383.19L391.291 383.61L390.441 384.22L387.621 383.8Z" fill="#FF7FB3"/>
<path d="M389.749 382.24L390.349 381.54L388.689 380.11L388.089 380.81L389.749 382.24Z" fill="#FF7FB3"/>
<path d="M389.75 382.24L390.35 381.54L393.14 381.65L392.54 382.35L389.75 382.24Z" fill="#FF7FB3"/>
<path d="M391.171 380.46L391.521 379.7L389.501 378.46L389.161 379.22L391.171 380.46Z" fill="#FF7FB3"/>
<path d="M391.17 380.46L391.52 379.7L394.19 379.52L393.84 380.28L391.17 380.46Z" fill="#FF7FB3"/>
<path d="M392.04 378.47L392.14 377.68L389.86 376.64L389.76 377.43L392.04 378.47Z" fill="#FF7FB3"/>
<path d="M392.04 378.47L392.14 377.68L394.6 377.22L394.51 378.01L392.04 378.47Z" fill="#FF7FB3"/>
<path d="M392.27 376.36L392.13 375.57L389.67 374.76L389.81 375.56L392.27 376.36Z" fill="#FF7FB3"/>
<path d="M392.271 376.36L392.131 375.57L394.341 374.88L394.481 375.67L392.271 376.36Z" fill="#FF7FB3"/>
<path d="M391.87 374.24L391.51 373.45L388.94 372.89L389.3 373.67L391.87 374.24Z" fill="#FF7FB3"/>
<path d="M391.871 374.24L391.511 373.45L393.401 372.56L393.761 373.33L391.871 374.24Z" fill="#FF7FB3"/>
<path d="M390.77 372.09L390.21 371.35L387.61 371.03L388.18 371.77L390.77 372.09Z" fill="#FF7FB3"/>
<path d="M390.769 372.09L390.209 371.35L391.739 370.27L392.299 371.01L390.769 372.09Z" fill="#FF7FB3"/>
<path d="M389.021 369.98L388.271 369.3L385.721 369.24L386.471 369.92L389.021 369.98Z" fill="#FF7FB3"/>
<path d="M389.021 369.98L388.271 369.3L389.391 368.08L390.151 368.76L389.021 369.98Z" fill="#FF7FB3"/>
<path d="M386.731 368.02L385.801 367.42L383.381 367.63L384.311 368.23L386.731 368.02Z" fill="#FF7FB3"/>
<path d="M386.731 368.02L385.801 367.42L386.491 366.09L387.411 366.69L386.731 368.02Z" fill="#FF7FB3"/>
<path d="M384.12 366.39L383.07 365.89L380.84 366.33L381.9 366.84L384.12 366.39Z" fill="#FF7FB3"/>
<path d="M384.12 366.39L383.07 365.89L383.31 364.5L384.36 365L384.12 366.39Z" fill="#FF7FB3"/>
<path d="M381.21 365.08L380.08 364.68L378.1 365.33L379.24 365.73L381.21 365.08Z" fill="#FF7FB3"/>
<path d="M381.211 365.08L380.081 364.68L379.911 363.27L381.051 363.67L381.211 365.08Z" fill="#FF7FB3"/>
<path d="M378 364.05L376.81 363.76L375.13 364.6L376.32 364.88L378 364.05Z" fill="#FF7FB3"/>
<path d="M378.001 364.05L376.811 363.76L376.261 362.38L377.451 362.67L378.001 364.05Z" fill="#FF7FB3"/>
<path d="M374.491 363.28L373.281 363.1L371.921 364.1L373.131 364.27L374.491 363.28Z" fill="#FF7FB3"/>
<path d="M374.491 363.28L373.281 363.1L372.371 361.78L373.571 361.96L374.491 363.28Z" fill="#FF7FB3"/>
<path d="M370.8 362.81L369.61 362.76L368.61 363.88L369.81 363.93L370.8 362.81Z" fill="#FF7FB3"/>
<path d="M370.801 362.81L369.611 362.76L368.351 361.54L369.551 361.59L370.801 362.81Z" fill="#FF7FB3"/>
<path d="M367.081 362.72L365.931 362.79L365.341 364L366.481 363.93L367.081 362.72Z" fill="#FF7FB3"/>
<path d="M367.08 362.72L365.93 362.79L364.38 361.7L365.52 361.63L367.08 362.72Z" fill="#FF7FB3"/>
<path d="M363.351 363.06L362.301 363.25L362.131 364.51L363.181 364.32L363.351 363.06Z" fill="#FF7FB3"/>
<path d="M363.351 363.06L362.301 363.25L360.501 362.34L361.551 362.15L363.351 363.06Z" fill="#FF7FB3"/>
<path d="M359.7 363.89L358.78 364.19L359.03 365.46L359.96 365.16L359.7 363.89Z" fill="#FF7FB3"/>
<path d="M359.7 363.89L358.78 364.19L356.79 363.48L357.72 363.18L359.7 363.89Z" fill="#FF7FB3"/>
<path d="M356.401 364.75L354.181 365.01L353.741 366.29L355.951 366.03L356.401 364.75Z" fill="#FF7FB3"/>
<path d="M356.401 364.75L353.741 366.29L355.951 366.03L356.401 364.75Z" fill="#FF7FB3"/>
<path d="M355.611 398.34C349.859 401.084 344.308 404.232 339.001 407.76L337.481 408.76C336.281 406.293 335.084 403.823 333.891 401.35C333.831 401.04 333.791 400.73 333.721 400.42C333.341 398.223 332.668 396.088 331.721 394.07C331.113 392.839 330.262 391.744 329.221 390.85C328.971 390.63 328.031 390.57 328.131 390.91C328.82 392.902 329.649 394.844 330.611 396.72L332.801 401.27C332.901 401.8 332.981 402.33 333.051 402.86C333.133 403.423 333.187 403.991 333.211 404.56C333.227 404.914 333.129 405.265 332.931 405.56L331.841 404.67C331.7 404.592 331.545 404.543 331.386 404.526C331.226 404.509 331.065 404.524 330.911 404.57C330.423 404.259 329.915 403.982 329.391 403.74C329.141 403.62 328.391 403.56 328.451 403.82C328.709 405.342 328.819 406.886 328.781 408.43C328.043 407.742 327.401 406.958 326.871 406.1C326.691 405.8 325.661 405.82 325.811 406.16C326.348 407.368 326.618 408.678 326.601 410C326.583 410.649 326.489 411.293 326.321 411.92C326.201 412.35 325.941 413.25 324.911 413.2C324.302 413.118 323.74 412.828 323.321 412.38C324.308 410.237 324.628 407.847 324.241 405.52C324.107 404.876 323.903 404.249 323.631 403.65C323.631 403.56 323.361 403.48 323.221 403.46C322.811 403.374 322.386 403.406 321.993 403.551C321.6 403.696 321.257 403.949 321.001 404.28C320.591 404.838 320.302 405.474 320.151 406.15C319.839 407.498 320.009 408.913 320.631 410.15C320.972 410.877 321.416 411.551 321.951 412.15C322.019 412.231 322.092 412.308 322.171 412.38C321.354 414.469 319.866 416.228 317.941 417.38C317.219 417.794 316.454 418.129 315.661 418.38C314.818 418.71 313.915 418.856 313.011 418.81H312.951C315.632 416.439 317.573 413.346 318.541 409.9C319.261 407.6 319.364 405.152 318.841 402.8C318.55 401.578 318.089 400.403 317.471 399.31C316.842 397.953 315.835 396.807 314.571 396.01C313.728 395.599 312.8 395.391 311.862 395.403C310.925 395.415 310.003 395.647 309.171 396.08C307.774 396.765 306.686 397.95 306.121 399.4C305.188 401.814 304.845 404.416 305.121 406.99C305.331 409.722 306.122 412.378 307.441 414.78C308.206 416.245 309.314 417.504 310.671 418.45C310.942 418.634 311.23 418.791 311.531 418.92C310.335 419.913 309.022 420.756 307.621 421.43C306.839 421.806 306.038 422.14 305.221 422.43C304.851 422.56 305.661 422.93 306.001 422.81C308.361 422.008 310.562 420.797 312.501 419.23C312.774 419.284 313.052 419.317 313.331 419.33C314.285 419.348 315.236 419.203 316.141 418.9C317.653 418.49 319.057 417.753 320.253 416.74C321.449 415.727 322.407 414.464 323.061 413.04C323.387 413.243 323.74 413.398 324.111 413.5C324.564 413.654 325.047 413.699 325.521 413.633C325.995 413.567 326.447 413.392 326.841 413.12C327.349 412.577 327.638 411.864 327.651 411.12C327.794 410.174 327.777 409.21 327.601 408.27C328.001 408.669 328.425 409.043 328.871 409.39C329.111 409.59 329.871 409.64 329.871 409.39C329.957 407.757 329.883 406.119 329.651 404.5C330.335 404.888 330.97 405.358 331.541 405.9C331.67 405.982 331.816 406.036 331.968 406.056C332.119 406.077 332.274 406.065 332.421 406.02L332.561 406.14C332.701 406.23 332.861 406.283 333.027 406.295C333.193 406.307 333.359 406.278 333.511 406.21C333.817 406.011 334.057 405.727 334.203 405.393C334.349 405.059 334.393 404.689 334.331 404.33C335.121 405.97 335.921 407.61 336.711 409.26C332.451 412.18 328.421 415.26 324.491 418.31C323.181 419.31 321.891 420.36 320.601 421.4L318.661 423L317.661 423.78L317.231 424.12C317.071 424.223 316.926 424.347 316.801 424.49C316.688 424.47 316.573 424.47 316.461 424.49C315.651 424.54 316.171 425.1 316.831 425.14C317.126 425.163 317.419 425.074 317.651 424.89L318.701 424.05C319.931 423.05 321.151 422.05 322.391 421.1C324.861 419.1 327.391 417.16 329.911 415.23C332.204 413.49 334.557 411.783 336.971 410.11C337.701 411.61 338.421 413.11 339.151 414.62C339.681 415.73 340.201 416.84 340.751 417.94C341.25 419.032 342.052 419.959 343.061 420.61C343.441 420.85 344.451 420.67 343.981 420.38C343.07 419.799 342.345 418.97 341.891 417.99C341.391 417.04 340.951 416.08 340.491 415.12L337.791 409.54C340.461 407.72 343.221 405.94 346.111 404.23C349.381 402.3 352.811 400.44 356.451 398.73C356.921 398.48 356.001 398.17 355.611 398.34ZM330.081 393.25C330.697 394.262 331.184 395.347 331.531 396.48C331.001 395.4 330.521 394.33 330.081 393.25ZM321.891 410.58C321.291 409.547 321.01 408.361 321.081 407.17C321.134 406.531 321.303 405.908 321.581 405.33C321.716 405.024 321.887 404.735 322.091 404.47C322.23 404.271 322.42 404.112 322.641 404.01C323.466 406.27 323.466 408.749 322.641 411.01C322.641 411.18 322.531 411.34 322.481 411.51C322.26 411.215 322.063 410.905 321.891 410.58ZM310.641 417.58C310.053 417.046 309.529 416.445 309.081 415.79C308.31 414.632 307.695 413.378 307.251 412.06C306.832 410.891 306.524 409.686 306.331 408.46C305.938 406.053 306.051 403.591 306.661 401.23C306.926 399.907 307.532 398.676 308.421 397.66C308.964 397.086 309.621 396.633 310.351 396.33C311.208 395.91 312.187 395.811 313.111 396.05C313.854 396.32 314.508 396.79 315.001 397.41C315.435 397.931 315.826 398.486 316.171 399.07C316.8 400.094 317.282 401.201 317.601 402.36C318.155 404.532 318.155 406.808 317.601 408.98C317.018 411.387 315.968 413.657 314.511 415.66C313.748 416.715 312.873 417.684 311.901 418.55C311.441 418.298 311.017 417.985 310.641 417.62V417.58ZM351.361 393.4C351.074 393.786 350.705 394.104 350.281 394.33C349.962 394.477 349.611 394.541 349.261 394.515C348.911 394.488 348.574 394.373 348.281 394.18C347.644 393.797 347.036 393.369 346.461 392.9C345.82 392.413 345.209 391.889 344.631 391.33C344.451 391.15 343.531 390.99 343.631 391.33C344.431 393.53 345.491 395.88 344.921 398.03C344.751 398.66 343.841 400.61 342.091 399.72C341.673 399.495 341.289 399.212 340.951 398.88C341.107 397.659 341.008 396.42 340.661 395.24C340.364 393.949 339.871 392.712 339.201 391.57C338.801 390.923 338.269 390.368 337.641 389.94C337.346 389.703 336.996 389.545 336.623 389.481C336.251 389.416 335.868 389.447 335.511 389.57C334.901 389.89 335.101 390.57 335.171 390.99C335.267 391.613 335.421 392.225 335.631 392.82C336.113 394.098 336.788 395.295 337.631 396.37C338.057 396.938 338.514 397.482 339.001 398C339.291 398.3 339.591 398.61 339.911 398.9C339.746 399.871 339.305 400.773 338.641 401.5C338.441 401.72 339.351 402.01 339.551 401.79C340.12 401.169 340.541 400.427 340.781 399.62C341.48 400.13 342.325 400.403 343.191 400.4C343.559 400.408 343.925 400.344 344.269 400.21C344.612 400.076 344.925 399.875 345.191 399.62C345.652 399.089 345.977 398.453 346.135 397.768C346.294 397.083 346.282 396.369 346.101 395.69C345.926 394.641 345.627 393.618 345.211 392.64L346.011 393.29C346.724 393.974 347.567 394.508 348.491 394.86C349.181 395.1 349.929 395.116 350.628 394.904C351.327 394.691 351.941 394.263 352.381 393.68C352.531 393.44 351.551 393.2 351.361 393.44V393.4ZM339.081 397C337.493 395.233 336.469 393.032 336.141 390.68C336.094 390.472 336.126 390.255 336.231 390.07C336.231 390.07 336.311 389.97 336.361 389.95H336.421C336.636 390.049 336.835 390.18 337.011 390.34C337.542 390.761 337.984 391.285 338.311 391.88C338.832 392.877 339.238 393.931 339.521 395.02C339.825 395.991 339.98 397.002 339.981 398.02C339.661 397.66 339.361 397.32 339.081 397ZM354.751 393.12C354.361 393.35 355.301 393.66 355.611 393.48C355.921 393.3 355.071 392.93 354.751 393.11V393.12Z" fill="#455A64"/>
<path d="M299.111 319.6L220.671 364.89L245.161 379L323.601 333.71L299.111 319.6ZM224.341 364.89L299.111 321.72L319.931 333.72L245.161 376.89L224.341 364.89ZM258.741 360.22C258.306 359.745 257.808 359.331 257.261 358.99C256.511 358.52 255.731 358.07 254.911 357.64C254.235 357.287 253.524 357.002 252.791 356.79C252.092 356.583 251.37 356.463 250.641 356.43C249.928 356.409 249.215 356.483 248.521 356.65C247.792 356.823 247.094 357.106 246.451 357.49L243.061 359.44C242.961 359.5 242.911 359.57 242.931 359.66C242.939 359.713 242.961 359.763 242.994 359.805C243.028 359.847 243.071 359.88 243.121 359.9L253.341 365.81C253.469 365.874 253.609 365.911 253.751 365.92C253.886 365.929 254.021 365.901 254.141 365.84L257.591 363.84C258.14 363.552 258.624 363.154 259.011 362.67C259.278 362.326 259.403 361.893 259.361 361.46C259.278 360.996 259.062 360.565 258.741 360.22ZM256.341 362.07C256.13 362.349 255.86 362.577 255.551 362.74L253.641 363.84L246.521 359.73L248.361 358.67C248.73 358.449 249.132 358.287 249.551 358.19C249.947 358.096 250.354 358.056 250.761 358.07C251.164 358.088 251.563 358.152 251.951 358.26C252.334 358.377 252.705 358.528 253.061 358.71C253.881 359.14 254.661 359.59 255.411 360.06C255.697 360.24 255.956 360.459 256.181 360.71C256.363 360.897 256.485 361.134 256.531 361.39C256.553 361.632 256.485 361.874 256.341 362.07ZM252.101 366.53L251.971 366.47L238.611 362.63C238.416 362.568 238.215 362.528 238.011 362.51C237.85 362.501 237.691 362.54 237.551 362.62L236.041 363.49C235.891 363.58 235.831 363.67 235.851 363.76C235.884 363.893 235.957 364.012 236.061 364.1L242.701 371.82L242.801 371.89C242.925 371.964 243.067 372.002 243.211 372C243.346 372.014 243.482 371.986 243.601 371.92L244.601 371.35C244.791 371.25 244.871 371.15 244.851 371.06C244.844 370.97 244.805 370.884 244.741 370.82L243.581 369.46L247.911 366.96L250.251 367.64C250.389 367.673 250.53 367.694 250.671 367.7C250.854 367.702 251.034 367.653 251.191 367.56L252.191 366.99C252.235 366.97 252.271 366.938 252.296 366.897C252.321 366.856 252.333 366.808 252.331 366.76C252.314 366.706 252.285 366.657 252.244 366.617C252.204 366.577 252.155 366.547 252.101 366.53ZM242.241 367.94L239.241 364.47L245.241 366.2L242.241 367.94ZM272.001 355L261.771 349.1C261.647 349.026 261.505 348.988 261.361 348.99C261.227 348.979 261.093 349.003 260.971 349.06L260.041 349.6C259.861 349.71 259.781 349.82 259.811 349.94C259.841 350.06 259.861 350.14 259.881 350.19L262.501 354.71L254.671 353.2H254.231C254.029 353.178 253.825 353.224 253.651 353.33L252.721 353.87C252.621 353.93 252.571 354 252.591 354.09C252.601 354.142 252.624 354.192 252.657 354.233C252.69 354.275 252.732 354.308 252.781 354.33L263.001 360.23C263.126 360.303 263.267 360.341 263.411 360.34C263.545 360.352 263.68 360.327 263.801 360.27L264.911 359.62C264.955 359.603 264.992 359.573 265.017 359.533C265.042 359.493 265.054 359.447 265.051 359.4C265.037 359.348 265.011 359.3 264.977 359.259C264.942 359.217 264.9 359.184 264.851 359.16L258.661 355.59L264.011 356.59H264.461C264.618 356.596 264.774 356.558 264.911 356.48L265.631 356.07C265.682 356.047 265.725 356.011 265.757 355.965C265.788 355.919 265.807 355.866 265.811 355.81C265.805 355.72 265.781 355.631 265.741 355.55L264.001 352.54L270.191 356.11C270.316 356.18 270.457 356.218 270.601 356.22C270.733 356.233 270.866 356.205 270.981 356.14L272.091 355.5C272.191 355.44 272.241 355.37 272.231 355.28C272.221 355.217 272.194 355.158 272.154 355.109C272.114 355.06 272.061 355.022 272.001 355ZM301.141 338.17L300.021 337.53C299.896 337.459 299.755 337.418 299.611 337.41C299.476 337.401 299.342 337.429 299.221 337.49L294.681 340.11L292.061 338.6L296.181 336.21C296.281 336.15 296.331 336.08 296.321 335.99C296.307 335.938 296.281 335.89 296.247 335.849C296.212 335.807 296.17 335.774 296.121 335.75L295.001 335.1C294.874 335.035 294.734 334.997 294.591 334.99C294.456 334.981 294.322 335.009 294.201 335.07L290.081 337.45L287.551 336L291.981 333.44C292.023 333.422 292.058 333.39 292.081 333.351C292.105 333.311 292.115 333.266 292.111 333.22C292.101 333.168 292.079 333.119 292.046 333.077C292.013 333.035 291.97 333.002 291.921 332.98L290.801 332.33C290.673 332.267 290.534 332.229 290.391 332.22C290.256 332.211 290.122 332.239 290.001 332.3L284.091 335.71C283.991 335.77 283.941 335.84 283.961 335.93C283.968 335.983 283.99 336.034 284.023 336.076C284.057 336.118 284.101 336.151 284.151 336.17L294.371 342.08C294.499 342.144 294.639 342.181 294.781 342.19C294.916 342.199 295.051 342.171 295.171 342.11L301.171 338.63C301.214 338.613 301.25 338.582 301.273 338.542C301.297 338.502 301.307 338.456 301.301 338.41C301.288 338.367 301.266 338.327 301.237 338.292C301.208 338.258 301.172 338.23 301.131 338.21L301.141 338.17ZM290.141 344.51L281.471 339.51L283.941 338.08C283.983 338.062 284.018 338.03 284.041 337.991C284.065 337.951 284.075 337.906 284.071 337.86C284.061 337.808 284.039 337.759 284.006 337.717C283.973 337.675 283.93 337.642 283.881 337.62L282.761 336.97C282.633 336.907 282.494 336.869 282.351 336.86C282.216 336.851 282.082 336.879 281.961 336.94L275.171 340.86C275.129 340.879 275.094 340.91 275.071 340.949C275.048 340.989 275.037 341.034 275.041 341.08C275.051 341.132 275.074 341.182 275.107 341.223C275.14 341.265 275.182 341.298 275.231 341.32L276.351 341.97C276.478 342.038 276.618 342.076 276.761 342.08C276.896 342.089 277.031 342.061 277.151 342L279.621 340.58L288.291 345.58C288.417 345.651 288.557 345.692 288.701 345.7C288.836 345.709 288.971 345.681 289.091 345.62L290.201 344.98C290.245 344.96 290.281 344.928 290.306 344.887C290.331 344.846 290.343 344.798 290.341 344.75C290.326 344.706 290.303 344.666 290.272 344.632C290.241 344.597 290.203 344.569 290.161 344.55L290.141 344.51ZM308.821 332.84C308.745 332.378 308.533 331.95 308.211 331.61C307.773 331.137 307.276 330.724 306.731 330.38C305.981 329.91 305.201 329.46 304.381 329.03C303.703 328.678 302.993 328.39 302.261 328.17C301.56 327.972 300.839 327.854 300.111 327.82C299.395 327.796 298.679 327.866 297.981 328.03C297.255 328.211 296.558 328.494 295.911 328.87L292.531 330.87C292.431 330.93 292.381 331 292.391 331.09C292.405 331.141 292.429 331.188 292.462 331.23C292.494 331.271 292.535 331.305 292.581 331.33L302.811 337.23C302.935 337.304 303.077 337.342 303.221 337.34C303.355 337.352 303.49 337.327 303.611 337.27L307.061 335.27C307.61 334.982 308.094 334.584 308.481 334.1C308.756 333.756 308.886 333.318 308.841 332.88L308.821 332.84ZM305.821 333.46C305.61 333.739 305.34 333.967 305.031 334.13L303.121 335.23L296.001 331.16L297.831 330.09C298.209 329.879 298.612 329.717 299.031 329.61C299.428 329.519 299.835 329.483 300.241 329.5C300.644 329.518 301.043 329.582 301.431 329.69C301.815 329.804 302.186 329.955 302.541 330.14C303.361 330.567 304.141 331.017 304.881 331.49C305.17 331.67 305.432 331.889 305.661 332.14C305.844 332.326 305.967 332.563 306.011 332.82C306.035 333.061 305.971 333.303 305.831 333.5L305.821 333.46ZM276.001 352.74L265.771 346.83C265.644 346.764 265.504 346.727 265.361 346.72C265.226 346.711 265.092 346.739 264.971 346.8L263.861 347.44C263.819 347.459 263.784 347.49 263.761 347.529C263.738 347.569 263.727 347.614 263.731 347.66C263.738 347.713 263.76 347.764 263.793 347.806C263.827 347.848 263.871 347.881 263.921 347.9L274.151 353.81C274.278 353.876 274.418 353.913 274.561 353.92C274.693 353.928 274.824 353.9 274.941 353.84L276.051 353.2C276.096 353.181 276.133 353.149 276.158 353.108C276.183 353.066 276.195 353.018 276.191 352.97C276.181 352.919 276.158 352.872 276.125 352.832C276.091 352.792 276.049 352.76 276.001 352.74ZM282.061 349.24L273.381 344.24L275.851 342.82C275.894 342.8 275.929 342.767 275.952 342.726C275.976 342.684 275.986 342.637 275.981 342.59C275.972 342.539 275.95 342.49 275.917 342.45C275.883 342.409 275.84 342.379 275.791 342.36L274.671 341.71C274.547 341.638 274.405 341.6 274.261 341.6C274.127 341.589 273.993 341.613 273.871 341.67L267.081 345.59C267.037 345.609 267.001 345.642 266.978 345.683C266.954 345.725 266.945 345.773 266.951 345.82C266.96 345.872 266.982 345.92 267.016 345.96C267.049 346.001 267.092 346.032 267.141 346.05L268.261 346.7C268.386 346.773 268.527 346.811 268.671 346.81C268.806 346.824 268.942 346.796 269.061 346.73L271.531 345.31L280.201 350.31C280.329 350.374 280.469 350.411 280.611 350.42C280.746 350.429 280.881 350.401 281.001 350.34L282.111 349.7C282.211 349.64 282.261 349.57 282.251 349.48C282.233 349.422 282.201 349.37 282.157 349.328C282.113 349.286 282.06 349.256 282.001 349.24H282.061Z" fill="#FF7FB3"/>
<path opacity="0.2" d="M280.63 455.27L272.82 446.39L213.95 412.28L212.29 411.33L209.59 409.77L209.4 409.66H209.47L206.87 408.17L196.25 402.05C194.2 400.65 191.13 403.5 189.93 406.36C189.743 406.787 189.603 407.233 189.51 407.69C189.346 408.198 189.339 408.744 189.491 409.257C189.643 409.769 189.946 410.223 190.36 410.56L199.03 415.56L201.38 416.92L203.33 418.04L203.51 418.14L205.75 419.43L205.84 419.51L207.73 420.58L267.62 455.26L279.02 457.52L282.12 458.13C282.191 458.144 282.264 458.142 282.333 458.123C282.403 458.104 282.467 458.068 282.52 458.02C282.6 457.936 282.644 457.825 282.644 457.71C282.644 457.595 282.6 457.484 282.52 457.4L280.63 455.27Z" fill="black"/>
<path d="M199.87 411.79L200.93 412.4L202.21 413.14L269.07 451.84C268.67 450.95 268.98 449.16 269.89 447.45C270.96 445.45 272.59 443.87 273.76 443.81L207.25 405.3L204.8 403.89C206.33 404.9 201.42 412.77 199.87 411.79Z" fill="#455A64"/>
<path d="M207.14 405.23L204.76 403.87C204.08 403.46 202.76 404.67 201.68 406.28C200.18 408.41 198.96 411.28 199.86 411.79L201.61 412.79L202.24 413.14C201.35 412.58 202.56 409.76 204.06 407.62C205.14 406.08 206.37 404.9 207.06 405.19L207.14 405.23Z" fill="#EBEBEB"/>
<path d="M206.539 404.9C204.969 403.9 200.069 411.84 201.639 412.81L204.019 414.18C202.449 413.18 207.349 405.3 208.919 406.27L206.539 404.9Z" fill="#FF7FB3"/>
<path d="M211.19 407.57L208.84 406.22C207.3 405.22 202.5 412.85 203.84 414.06L203.92 414.12L206.3 415.47C204.72 414.46 209.63 406.59 211.19 407.57Z" fill="#EBEBEB"/>
<path d="M204.79 403.88C204.12 403.45 202.84 404.67 201.71 406.29C200.23 408.38 199.02 411.15 199.85 411.76L189.93 406.06C189.554 405.757 189.279 405.347 189.141 404.885C189.004 404.422 189.01 403.929 189.16 403.47C189.71 400.58 193.09 396.9 195.24 398.37L204.79 403.88Z" fill="#F28F8F"/>
<path d="M280.099 452.21C279.279 453.32 279.359 453.87 279.359 453.87L269.069 451.87C268.069 450.31 268.719 447.78 270.129 445.97L270.579 446.23L280.099 452.21Z" fill="#F28F8F"/>
<path d="M282.159 454.42L279.359 453.87C279.359 453.87 279.229 453.32 280.099 452.21L282.539 453.75C282.613 453.826 282.654 453.928 282.654 454.035C282.654 454.141 282.613 454.243 282.539 454.32C282.489 454.366 282.428 454.399 282.361 454.417C282.295 454.434 282.226 454.435 282.159 454.42Z" fill="#37474F"/>
<path d="M273.759 443.81L280.819 451.81C280.537 451.857 280.28 451.998 280.089 452.21L270.569 446.21L270.119 445.95C270.529 445.346 271.068 444.841 271.698 444.471C272.327 444.101 273.031 443.875 273.759 443.81Z" fill="#FFA8A7"/>
<path d="M280.1 452.21C280.185 452.095 280.295 452 280.421 451.93C280.547 451.861 280.686 451.82 280.83 451.81L282.54 453.75L280.1 452.21Z" fill="#455A64"/>
<path opacity="0.2" d="M270.13 445.94L190.13 401.06C189.652 401.796 189.313 402.612 189.13 403.47C188.98 403.929 188.974 404.422 189.111 404.885C189.249 405.347 189.524 405.757 189.9 406.06L199.9 411.79L200.96 412.4L202.24 413.14L269.1 451.84C267.81 449.91 269.19 447 270.13 445.94Z" fill="black"/>
<path d="M448.101 166.81C447.531 167.04 441.891 165.42 436.621 163.07L437.621 142.75C437.621 142.75 444.621 143.8 446.391 151.88C449.551 165.8 448.101 166.81 448.101 166.81Z" fill="#263238"/>
<path d="M407.741 131.76C402.681 131.42 396.641 133.63 394.671 137.47C394.331 138.13 391.951 143.19 391.951 143.19C388.421 156.77 381.121 185.39 384.511 189.95C389.581 196.79 415.511 210.95 427.221 211.2C436.861 211.38 446.581 203.1 448.051 200.52C452.881 192.07 444.171 149.65 441.371 144.65C436.821 136.54 414.181 132.19 407.741 131.76Z" fill="#FF7FB3"/>
<path opacity="0.18" d="M384.51 190C389.58 196.84 415.51 211 427.22 211.25C429.845 211.253 432.446 210.765 434.89 209.81C432.11 210.95 428.98 209.49 428.28 205.92C427.58 202.35 427.93 179.92 429.15 155.74L392 143.19C388.42 156.77 381.12 185.39 384.51 190Z" fill="black"/>
<path opacity="0.5" d="M442.44 147.29C442.227 146.218 441.874 145.179 441.39 144.2C436.84 136.1 414.2 131.75 407.76 131.31C402.7 130.97 396.67 133.18 394.69 137.03C394.37 137.65 391.98 142.75 391.98 142.75C401.82 148.62 426.82 155.35 429.55 154.51C432.91 153.48 442.44 147.29 442.44 147.29Z" fill="black"/>
<path d="M447.091 178.53C446.851 178.4 443.381 175.7 442.971 175.53C442.261 175.15 431.701 182.04 430.721 183.23C430.031 184.05 430.911 201.71 431.301 202.64C431.441 202.97 435.301 205.34 435.421 205.64C435.811 206.57 446.961 199.57 447.671 197.85C448.381 196.13 448.141 179.08 447.091 178.53Z" fill="#FF7FB3"/>
<path opacity="0.18" d="M447.091 178.53C446.851 178.4 443.381 175.7 442.971 175.53C442.261 175.15 431.701 182.04 430.721 183.23C430.031 184.05 430.911 201.71 431.301 202.64C431.441 202.97 435.301 205.34 435.421 205.64C435.811 206.57 446.961 199.57 447.671 197.85C448.381 196.13 448.141 179.08 447.091 178.53Z" fill="black"/>
<path d="M434.831 186.22C434.151 187.05 435.031 204.71 435.421 205.63C435.811 206.55 446.961 199.56 447.671 197.84C448.381 196.12 448.141 179.08 447.091 178.53C446.381 178.15 435.821 185 434.831 186.22Z" fill="#FF7FB3"/>
<path opacity="0.4" d="M443.001 175.49C443.401 175.7 446.871 178.41 447.111 178.49C446.401 178.11 435.841 185 434.861 186.18L430.741 183.18C431.701 182 442.261 175.11 443.001 175.49Z" fill="black"/>
<path opacity="0.3" d="M434.831 186.22C434.151 187.05 435.031 204.71 435.421 205.63C435.811 206.55 446.961 199.56 447.671 197.84C448.381 196.12 448.141 179.08 447.091 178.53C446.381 178.15 435.821 185 434.831 186.22Z" fill="black"/>
<path d="M430.721 183.19C431.501 182.69 433.811 183.97 434.801 184.84C435.791 185.71 436.801 189.78 439.391 190.46C441.981 191.14 445.681 187.78 446.481 185.59C447.281 183.4 448.261 178.82 447.041 177.15C445.821 175.48 443.631 174.56 441.781 175.52C439.931 176.48 431.001 181.17 430.721 183.19Z" fill="#FF7FB3"/>
<path opacity="0.1" d="M430.721 183.19C431.501 182.69 433.811 183.97 434.801 184.84C435.791 185.71 436.801 189.78 439.391 190.46C441.981 191.14 445.681 187.78 446.481 185.59C447.281 183.4 448.261 178.82 447.041 177.15C445.821 175.48 443.631 174.56 441.781 175.52C439.931 176.48 431.001 181.17 430.721 183.19Z" fill="black"/>
<path d="M442.001 185.77C441.699 185.953 441.454 186.214 441.29 186.526C441.126 186.838 441.05 187.188 441.071 187.54C441.065 187.68 441.098 187.82 441.165 187.943C441.232 188.067 441.331 188.17 441.452 188.242C441.573 188.313 441.711 188.351 441.852 188.351C441.992 188.35 442.13 188.312 442.251 188.24C442.555 188.061 442.803 187.8 442.967 187.487C443.132 187.175 443.205 186.822 443.181 186.47C443.071 185.78 442.541 185.46 442.001 185.77Z" fill="#37474F"/>
<path d="M429.15 155.69C429.15 155.69 432.83 153.42 437.27 151.15C441.71 148.88 444.16 148.15 445.44 153.22C446.607 157.69 447.496 162.229 448.1 166.81C448.95 166.45 448.93 164.97 448.68 158.55C448.31 149.21 449.68 145.12 440.26 140.91C425.64 134.39 413.33 129.22 404.7 130.71C396.07 132.2 393.83 136.87 391.98 142.71C392 142.75 401.88 152.69 429.15 155.69Z" fill="#455A64"/>
<path d="M351.601 243.42C353.401 235.42 361.221 207.54 368.681 193.68L412.911 194.75L388.481 241.91C392.741 240.69 402.101 242.91 402.101 242.91C410.181 244.38 425.601 248.99 432.001 249.1C438.401 249.21 438.001 246.76 443.361 247.27C444.369 247.438 445.321 247.848 446.136 248.465C446.951 249.081 447.605 249.886 448.041 250.81C448.801 252.419 449.712 253.953 450.761 255.39C453.031 258.12 455.511 260.66 457.761 263.39C459.761 265.82 462.461 270.06 462.331 273.39C462.201 276.72 460.991 280.88 458.071 282.39C454.621 284.18 452.171 280.95 450.151 277.99C448.38 275.162 446.443 272.44 444.351 269.84C441.781 266.76 439.151 266.28 435.351 266.21C431.551 266.14 427.611 266.68 423.751 266.9C419.891 267.12 415.951 267.42 412.061 267.81C400.361 269.01 388.661 270.28 376.941 271.31C360.651 272.74 356.621 268.73 353.411 265.31C350.201 261.89 349.701 251.86 351.601 243.42Z" fill="#FFBDA7"/>
<path d="M436.351 248.66C439.011 248.48 447.751 257.66 451.001 262.79C454.251 267.92 454.001 272.79 451.921 274.4C449.841 276.01 447.561 274.17 447.561 274.17C447.561 274.17 450.401 278.71 452.141 281.64C453.881 284.57 459.741 284.44 461.821 279.69C462.859 277.331 463.238 274.736 462.917 272.179C462.597 269.622 461.589 267.2 460.001 265.17C456.741 261.1 451.841 255.78 450.481 253.23C448.781 250.03 448.371 247.39 443.571 246.64C441.001 246.24 436.351 248.66 436.351 248.66Z" fill="#455A64"/>
<path d="M367.761 191.65C362.121 205.49 353.871 227.31 351.221 241.49C348.571 255.67 349.281 265.28 355.831 268.92C362.381 272.56 367.601 272.36 376.201 272.08C384.801 271.8 416.851 267.94 416.851 267.94C418.369 263.911 419.023 259.608 418.771 255.31C418.251 248.62 415.691 245.55 415.691 245.55C409.361 243.16 396.091 239.42 390.461 240.2L415.301 192.63L367.761 191.65Z" fill="#37474F"/>
<path d="M368.25 191.66C368.3 196.35 368.351 201.66 368.351 201.66C368.131 207.78 370.92 214.2 373.41 218.19C370.58 228.49 366.411 247.52 365.891 254.94C365.361 261.85 365.2 266.06 371.24 272.23C372.78 272.23 374.41 272.16 376.24 272.1C383.19 271.87 405.51 269.31 413.77 268.33C411.94 265.42 408.39 260.58 404.02 258.58L412.11 244.31C405.24 242.07 395.21 239.56 390.5 240.22L410.11 202.67L408.11 192.5L368.25 191.66Z" fill="#263238"/>
<path d="M428.001 336L427.881 335.78C427.398 334.667 427.107 333.48 427.021 332.27C426.631 328.87 426.751 325.43 426.461 322.01C426.18 319.162 425.338 316.398 423.984 313.877C422.63 311.356 420.79 309.127 418.571 307.32C411.831 301.48 404.431 296.47 397.341 291.09C380.871 278.58 378.761 276.87 373.821 271.6C369.701 267.21 368.351 261.44 371.091 248.02C373.241 237.52 379.221 216.46 379.221 216.46C379.221 216.46 368.651 207.9 369.931 193.7L419.491 190.48C423.541 200.48 422.491 211.56 419.911 220.18C416.071 232.81 399.371 260.18 399.371 260.18C399.371 260.18 404.631 261 412.371 270.99C417.741 277.91 422.461 287.84 428.671 293.79C432.251 297.21 438.441 295.18 440.671 300.52C441.791 303.15 440.671 306.16 440.511 309.04C440.181 315.42 442.631 321.61 440.811 327.94C440.04 330.747 438.499 333.283 436.361 335.26C434.581 336.86 431.211 338.56 428.901 337.04C428.522 336.771 428.213 336.414 428.001 336Z" fill="#FFBDA7"/>
<path d="M432.002 295.68C434.362 296.97 435.002 302.96 435.432 311.28C435.862 319.6 434.742 323.6 431.592 325.28C427.792 327.28 426.472 322.95 426.472 322.95C426.472 322.95 426.052 329.72 426.152 332.83C426.252 335.94 427.962 339.93 432.442 338.38C434.829 337.471 436.96 335.994 438.65 334.078C440.34 332.162 441.538 329.863 442.142 327.38C443.422 322.17 440.652 314.07 440.862 310.96C441.072 307.85 442.462 302.42 441.072 300.09C439.682 297.76 438.822 296.61 432.002 295.68Z" fill="#455A64"/>
<path d="M367.761 191.65C367.141 201.39 369.191 208.58 377.341 216.87C377.341 216.87 372.221 235.07 370.241 246.82C368.261 258.57 366.841 266.05 374.731 273.47C382.621 280.89 407.411 299.34 407.411 299.34C407.411 299.34 413.291 299.34 417.901 293.45C422.511 287.56 420.381 282.1 420.381 282.1C420.381 282.1 412.151 265.29 400.801 259.42C400.801 259.42 410.701 242.26 416.431 230.91C422.161 219.56 425.841 202.23 419.431 190.49L367.761 191.65Z" fill="#455A64"/>
<path d="M400.582 260L398.182 263.89L402.342 261.02C401.782 260.65 401.182 260.3 400.582 260Z" fill="#37474F"/>
<path d="M419.231 96.1403C419.472 98.1702 420.481 100.031 422.051 101.34C423.111 102.11 424.371 102.58 425.451 103.34C427.165 104.675 428.488 106.447 429.281 108.47C430.161 110.47 430.791 112.52 431.751 114.47C433.544 118.051 436.387 120.999 439.901 122.92C443.481 124.87 448.901 126.34 452.901 124.73C456.721 123.18 459.751 121.26 462.091 117.73C463.488 115.716 464.482 113.451 465.021 111.06C465.55 108.649 465.276 106.131 464.241 103.89C464.262 105.12 463.82 106.312 463.001 107.23C463 105.756 462.7 104.296 462.121 102.94C461.818 102.267 461.321 101.699 460.694 101.309C460.067 100.919 459.339 100.725 458.601 100.75C457.521 100.973 456.564 101.594 455.921 102.49C454.701 103.96 453.971 105.37 452.071 105.94C450.875 106.284 449.622 106.377 448.388 106.216C447.155 106.054 445.968 105.64 444.901 105C442.901 103.83 441.821 101.78 440.601 99.8603C438.34 96.0825 435.184 92.9194 431.411 90.6503C427.641 88.5603 422.471 88.3603 419.411 91.3703C419.187 91.5717 419.007 91.8167 418.881 92.0903C418.769 92.4601 418.752 92.8521 418.831 93.2303C418.921 94.1703 419.001 95.1603 419.231 96.1403Z" fill="#263238"/>
<path d="M420.712 102.23C421.039 102.616 421.419 102.953 421.842 103.23C422.616 103.774 423.573 103.993 424.506 103.842C425.44 103.69 426.278 103.18 426.842 102.42C427.338 101.581 427.642 100.641 427.732 99.6703C428.048 97.2596 427.816 94.8085 427.052 92.5003C426.761 91.4479 426.211 90.4852 425.452 89.7003C424.913 89.2283 424.267 88.895 423.57 88.7294C422.873 88.5639 422.146 88.571 421.452 88.7503C419.832 89.0503 419.182 90.1503 418.672 91.6803C418.125 93.4718 418.024 95.3699 418.38 97.209C418.736 99.0481 419.536 100.772 420.712 102.23Z" fill="#FF7FB3"/>
<path d="M386.94 103.09C386.511 102.316 386.307 101.438 386.351 100.555C386.396 99.6709 386.686 98.8172 387.19 98.0902C386.331 97.5839 385.63 96.8474 385.167 95.9639C384.704 95.0803 384.498 94.085 384.57 93.0902C384.768 91.0775 385.655 89.1948 387.08 87.7602L387.19 87.6402C394.19 80.2502 406.19 78.9302 415.13 83.3702C415.797 83.6969 416.437 84.0569 417.05 84.4502C419.643 86.0301 421.835 88.1881 423.455 90.7555C425.075 93.3229 426.08 96.2302 426.39 99.2502C426.86 104.51 424.95 109.73 422.22 114.25C419.49 118.77 415.96 122.73 412.75 126.92C412.94 126.67 410.95 124.26 410.75 123.98C410.041 122.99 409.188 122.11 408.22 121.37C407.52 120.92 406.64 120.78 405.9 120.37C404.7 119.74 403.5 119.09 402.36 118.37C398.545 115.846 395.653 112.151 394.12 107.84C391.86 107.17 389.53 106.33 387.94 104.59C387.528 104.148 387.19 103.641 386.94 103.09Z" fill="#263238"/>
<path d="M340.491 110.16C339.201 115.26 340.551 116.65 347.571 123.37C358.881 134.2 373.961 146.77 373.961 146.77L388.161 130.77C383.421 129.3 380.221 128.46 377.761 126.48C367.711 118.36 360.381 112.19 358.101 109.92C358.101 109.92 364.021 89.2901 364.961 86.9201C365.901 84.5501 368.511 82.6301 369.091 82.1101C373.091 78.4901 373.481 76.4901 375.161 71.4601C375.451 70.6001 375.731 69.7301 376.001 68.8701C376.118 68.4435 376.265 68.0257 376.441 67.6201C376.611 67.2501 376.751 66.9201 376.351 66.6201C376.067 66.3975 375.711 66.2872 375.351 66.3101C374.736 66.3601 374.139 66.5391 373.598 66.8354C373.057 67.1318 372.584 67.5389 372.211 68.0301C371.452 69.0076 370.782 70.0519 370.211 71.1501C369.731 71.9601 369.311 70.9701 369.211 70.4701C368.581 68.0301 369.761 64.2001 370.471 61.8301C371.074 60.3201 371.559 58.7654 371.921 57.1801C372.103 56.1811 371.97 55.1503 371.541 54.2301C371.231 53.6201 370.731 53.1701 370.011 53.6301C369.585 53.9629 369.242 54.391 369.011 54.8801C368.451 55.8201 367.861 55.6401 366.731 55.9401C366.005 56.0433 365.295 56.2417 364.621 56.5301C363.846 57.0083 363.206 57.676 362.761 58.4701C362.394 58.3496 361.997 58.356 361.635 58.4884C361.272 58.6209 360.964 58.8715 360.761 59.2001C359.139 61.2424 357.868 63.5405 357.001 66.0001C356.146 68.9576 355.774 72.034 355.901 75.1101C355.874 77.0258 355.508 78.9216 354.821 80.7101C353.971 82.9101 351.921 87.2801 348.181 94.4901C344.441 101.7 341.771 105.07 340.491 110.16Z" fill="#FFBDA7"/>
<path d="M367.591 72.8101C366.174 73.3906 364.917 74.3046 363.928 75.4745C362.939 76.6444 362.248 78.0356 361.911 79.5301C361.719 77.939 362.129 76.3336 363.061 75.0301C363.606 74.3487 364.294 73.7963 365.077 73.4124C365.861 73.0286 366.719 72.8229 367.591 72.8101Z" fill="#F0997A"/>
<path d="M422.08 196.16C421.33 193.47 418.57 184.56 418.39 180.08C418.25 176.6 419.98 173.33 423.01 164.92C425.666 157.236 426.293 148.997 424.83 141C421.989 138.968 418.888 137.327 415.61 136.12C412.76 135.04 409.17 134.74 405.67 133.78C400.57 132.39 397.28 131.3 394.11 131.06C391.37 130.85 388.16 130.78 388.16 130.78C388.16 130.78 378.06 139.41 371.83 147.62C367.61 153.18 366.83 160.91 371.95 166.08L371.79 178.45L366.55 193.45C366.55 193.45 370.45 202.9 387.55 204.58C415.7 207.3 422.08 196.16 422.08 196.16Z" fill="#FF7FB3"/>
<path opacity="0.5" d="M422.08 196.16C421.33 193.47 418.57 184.56 418.39 180.08C418.25 176.6 419.98 173.33 423.01 164.92C425.666 157.236 426.293 148.997 424.83 141C421.989 138.968 418.888 137.327 415.61 136.12C412.76 135.04 409.17 134.74 405.67 133.78C400.57 132.39 397.28 131.3 394.11 131.06C391.37 130.85 388.16 130.78 388.16 130.78C388.16 130.78 378.06 139.41 371.83 147.62C367.61 153.18 366.83 160.91 371.95 166.08L371.79 178.45L366.55 193.45C366.55 193.45 370.45 202.9 387.55 204.58C415.7 207.3 422.08 196.16 422.08 196.16Z" fill="white"/>
<path opacity="0.5" d="M405.351 170.33C402.351 172.68 392.601 174.72 387.271 168.2C387.661 174.81 401.641 177.76 405.351 170.33Z" fill="#FF7FB3"/>
<path d="M449.421 127.27C432.421 151.14 429.421 154.32 423.241 164.27C418.301 163.4 410.181 146 419.171 135.49C425.736 128.275 431.441 120.322 436.171 111.79C436.501 107.47 437.011 87.1001 436.171 79.4401C436.012 78.1681 435.393 76.9981 434.431 76.1501C431.701 73.6201 430.431 70.4101 428.621 67.5301C427.181 65.2901 425.731 64.5301 426.081 63.9601C426.554 63.3559 427.241 62.956 428 62.8425C428.759 62.7291 429.532 62.9107 430.161 63.3501C431.211 63.9001 433.651 66.6901 434.551 67.1201C435.451 67.5501 434.121 63.1201 431.691 58.6101C430.301 56.0301 429.591 53.7401 430.101 51.7401C430.351 50.7901 431.101 50.2201 431.771 50.5201C432.037 50.6411 432.272 50.8186 432.461 51.0401C432.374 50.7049 432.375 50.3525 432.464 50.0177C432.553 49.6829 432.728 49.377 432.971 49.1301C433.851 48.2001 434.711 48.7301 435.331 49.5701L436.141 50.6801C436.619 50.4616 437.158 50.415 437.666 50.548C438.175 50.681 438.622 50.9856 438.931 51.4101C439.181 51.7101 439.721 52.5701 439.721 52.5701C440.541 52.2401 441.831 51.9301 443.091 53.7301C444.593 55.5583 445.903 57.5353 447.001 59.6301C447.839 61.3622 448.476 63.1839 448.901 65.0601C449.481 66.9326 449.817 68.8719 449.901 70.8301C449.658 75.3735 449.872 79.9297 450.541 84.4301C452.001 95.3301 452.301 98.1801 454.201 112.93C455.001 118.42 454.721 119.84 449.421 127.27Z" fill="#FFBDA7"/>
<path d="M436.53 67.1802C439.66 67.5802 441.95 71.6302 442.59 74.7102C442.77 70.8102 441.23 67.2202 436.53 67.1802Z" fill="#F0997A"/>
<path d="M412.852 132C413.242 128.48 414.432 120.51 414.432 120.51C414.892 121.51 417.842 123.2 421.432 120.66C422.801 119.658 423.755 118.188 424.112 116.529C424.47 114.87 424.206 113.138 423.372 111.66C421.632 108.93 418.372 108.74 415.872 111.83C413.622 111.83 412.872 109.83 414.962 105.66C415.962 100.66 410.872 99.6602 409.882 92.7202C402.712 94.5002 396.332 91.3302 391.122 95.1402C389.712 97.3402 388.122 99.9402 387.022 106.73C385.602 115.52 386.562 119.91 389.532 122.58C391.022 123.92 392.752 124.74 396.182 125.29C396.182 125.29 395.992 126.51 395.702 128.91C395.552 130.14 395.262 131.06 394.122 131.05C392.172 132.71 386.922 135.82 395.672 138.27C406.962 141.42 414.212 137.27 415.622 136.11C414.73 135.895 413.951 135.354 413.438 134.593C412.925 133.833 412.716 132.908 412.852 132Z" fill="#FFBDA7"/>
<path d="M396.171 125.27C402.361 126.15 407.971 125.12 411.421 121.37C410.722 123.21 409.384 124.737 407.651 125.67C401.011 128.67 395.911 127.13 395.911 127.13L396.171 125.27Z" fill="#F0997A"/>
<path d="M396.001 115.69C397.878 115.083 399.861 114.878 401.821 115.09C401.882 115.465 401.865 115.848 401.771 116.216C401.677 116.584 401.509 116.929 401.276 117.229C401.044 117.529 400.752 117.778 400.419 117.961C400.086 118.143 399.72 118.255 399.341 118.29C398.558 118.363 397.777 118.135 397.156 117.652C396.536 117.169 396.123 116.467 396.001 115.69Z" fill="#B16668"/>
<path d="M398.102 118.14C398.505 118.285 398.936 118.337 399.362 118.29C399.886 118.239 400.384 118.039 400.798 117.715C401.212 117.391 401.526 116.956 401.702 116.46C401.001 116.323 400.275 116.411 399.628 116.713C398.981 117.015 398.447 117.515 398.102 118.14Z" fill="#F28F8F"/>
<path d="M406.792 107.37C406.582 108.37 405.912 106.85 404.852 106.64C403.792 106.43 402.752 107.64 402.962 106.64C403.146 106.223 403.467 105.881 403.871 105.671C404.276 105.461 404.74 105.395 405.187 105.485C405.634 105.575 406.036 105.815 406.328 106.165C406.62 106.515 406.784 106.954 406.792 107.41V107.37Z" fill="#263238"/>
<path d="M395.001 104.39C394.791 105.39 394.131 103.98 393.081 103.77C392.031 103.56 390.971 104.67 391.181 103.62C391.3 103.131 391.604 102.707 392.029 102.437C392.454 102.166 392.967 102.071 393.461 102.171C393.955 102.27 394.391 102.557 394.678 102.97C394.965 103.384 395.081 103.893 395.001 104.39Z" fill="#263238"/>
<path d="M400.772 101.87L397.612 112.97L392.672 109.77L400.772 101.87Z" fill="#F0997A"/>
<path d="M391.292 100.67L395.902 99.6002C395.842 99.298 395.723 99.0109 395.55 98.756C395.378 98.501 395.156 98.2835 394.897 98.1164C394.638 97.9493 394.349 97.8361 394.045 97.7834C393.742 97.7308 393.431 97.7399 393.132 97.8102C392.516 97.9583 391.981 98.3383 391.638 98.871C391.295 99.4038 391.171 100.048 391.292 100.67Z" fill="#263238"/>
<path d="M409.121 104.51L405.181 101.79C405.347 101.526 405.565 101.298 405.822 101.12C406.078 100.943 406.369 100.82 406.674 100.758C406.98 100.696 407.296 100.697 407.601 100.761C407.907 100.825 408.196 100.951 408.451 101.13C408.977 101.498 409.34 102.056 409.465 102.685C409.59 103.315 409.467 103.969 409.121 104.51Z" fill="#263238"/>
<path d="M405.071 110.25C405.071 111.71 406.681 112.92 408.681 112.93C410.681 112.94 412.321 111.76 412.331 110.3C412.341 108.84 410.721 107.63 408.721 107.61C406.721 107.59 405.081 108.78 405.071 110.25Z" fill="#FFA8A7"/>
<path d="M384.642 104.87C384.152 106.26 385.292 107.87 387.172 108.59C389.052 109.31 390.992 108.68 391.482 107.29C391.972 105.9 390.842 104.29 388.952 103.58C387.062 102.87 385.132 103.49 384.642 104.87Z" fill="#FFA8A7"/>
<path d="M418.851 135.9C415.281 141.9 414.801 168.06 424.181 184.9L423.891 194.6C413.441 183.68 407.651 155.53 413.551 134.67C413.551 134.72 416.351 136.83 418.851 135.9Z" fill="#37474F"/>
<path d="M394.651 131C394.651 131 380.741 137.53 371.401 148.23C373.641 138.82 388.111 129.88 388.111 129.88L394.651 131Z" fill="#37474F"/>
<path d="M410.81 320.19L408.34 320.42C407.93 320.42 407.52 320.5 407.11 320.52H405.87L403.4 320.61C402.58 320.61 401.75 320.61 400.93 320.55C399.28 320.55 397.65 320.33 396.01 320.21C392.746 319.801 389.519 319.132 386.36 318.21C383.212 317.274 380.15 316.066 377.21 314.6C371.325 311.642 365.945 307.771 361.27 303.13C358.915 300.825 356.726 298.355 354.72 295.74C352.675 293.144 350.845 290.385 349.25 287.49C352.236 293.429 356.137 298.862 360.81 303.59C365.473 308.35 370.876 312.321 376.81 315.35C379.807 316.815 382.926 318.016 386.13 318.94L388.54 319.58C389.35 319.78 390.17 319.92 390.98 320.09L392.21 320.33L393.45 320.5C394.27 320.6 395.09 320.73 395.92 320.81C397.58 320.9 399.24 321.09 400.92 321.04C401.75 321.04 402.58 321.04 403.41 321.04L405.9 320.89L407.14 320.81C407.55 320.81 407.96 320.71 408.37 320.66L410.84 320.34C412.48 320.11 414.09 319.74 415.72 319.43L413.26 319.79C412.44 320 411.63 320.14 410.81 320.19Z" fill="#455A64"/>
<path d="M401.34 327.86C396.963 328.352 392.546 328.389 388.16 327.97C383.775 327.602 379.456 326.667 375.31 325.19C374.786 325.025 374.271 324.828 373.77 324.6L372.24 323.97C371.74 323.75 371.24 323.49 370.76 323.24C370.28 322.99 369.76 322.77 369.3 322.48C367.364 321.411 365.541 320.148 363.86 318.71C364.644 319.499 365.479 320.233 366.36 320.91C366.81 321.24 367.22 321.62 367.7 321.91L369.09 322.83C369.55 323.15 370.09 323.39 370.54 323.66C370.99 323.93 371.54 324.2 372.02 324.45L373.54 325.14C374.04 325.388 374.554 325.605 375.08 325.79C379.257 327.376 383.631 328.385 388.08 328.79C392.525 329.177 396.999 329.073 401.42 328.48C403.61 328.11 405.81 327.78 407.96 327.21C410.11 326.64 412.24 326.01 414.35 325.34C412.18 325.83 410.06 326.46 407.88 326.81C405.7 327.16 403.52 327.57 401.34 327.86Z" fill="#455A64"/>
<path d="M334.701 61.4C335.091 60.59 335.571 59.82 336.011 59.04C336.241 58.66 336.491 58.28 336.741 57.91C336.991 57.54 337.231 57.15 337.491 56.79C339.552 53.8609 341.982 51.2091 344.721 48.9C347.376 46.6318 350.265 44.6539 353.341 43C354.851 42.17 356.391 41.43 357.951 40.76C359.487 40.0855 361.059 39.4979 362.661 39C359.375 39.7907 356.198 40.9795 353.201 42.54C350.045 44.1473 347.085 46.1137 344.381 48.4C341.602 50.774 339.157 53.5121 337.111 56.54C335.097 59.5516 333.546 62.8483 332.511 66.32C333.135 64.6351 333.867 62.9917 334.701 61.4Z" fill="#455A64"/>
<path d="M348.56 53.4598C346.867 55.1568 345.34 57.0119 344 58.9998C343.336 59.9916 342.728 61.0199 342.18 62.0798C341.94 62.6198 341.67 63.1498 341.44 63.6898C341.21 64.2298 341.03 64.7898 340.84 65.3398C341.1 64.7998 341.35 64.2798 341.59 63.7498C341.83 63.2198 342.17 62.7498 342.45 62.2098C343.035 61.1916 343.676 60.2068 344.37 59.2598C345.78 57.3656 347.328 55.5775 349 53.9098C350.624 52.2559 352.351 50.7062 354.17 49.2698C355.08 48.5498 356 47.8698 356.95 47.2698C357.884 46.6281 358.855 46.0437 359.86 45.5198C357.752 46.3848 355.763 47.5138 353.94 48.8798C352.023 50.2557 350.224 51.7876 348.56 53.4598Z" fill="#455A64"/>
</svg>
