<svg width="500" height="500" viewBox="0 0 500 500" fill="none" xmlns="http://www.w3.org/2000/svg">
<path d="M244.922 470.565C362.53 470.565 457.871 415.521 457.871 347.62C457.871 279.72 362.53 224.676 244.922 224.676C127.313 224.676 31.9727 279.72 31.9727 347.62C31.9727 415.521 127.313 470.565 244.922 470.565Z" fill="#F5F5F5"/>
<path d="M358.632 441.528C382.142 441.528 401.201 429.579 401.201 414.838C401.201 400.098 382.142 388.148 358.632 388.148C335.121 388.148 316.062 400.098 316.062 414.838C316.062 429.579 335.121 441.528 358.632 441.528Z" fill="#E6E6E6"/>
<path d="M435.933 319.115L427.105 314.162C427.105 314.162 426.271 298.037 427.54 285.171C429.313 267.092 440.989 245.328 454.924 250.481C468.859 255.634 448.531 274 444.021 289.342C439.512 304.685 435.933 319.115 435.933 319.115Z" fill="#37474F"/>
<path d="M431.822 317.222C432.082 317.217 432.285 317.004 432.281 316.745C432.281 316.745 432.281 316.74 432.281 316.736C430.915 276.564 450.915 256.347 451.11 256.148C451.295 255.967 451.295 255.671 451.114 255.49C450.934 255.31 450.637 255.305 450.457 255.486C450.248 255.685 429.961 276.189 431.336 316.777C431.346 317.037 431.563 317.236 431.822 317.222Z" fill="white"/>
<path d="M440.781 321.912L435.263 318.722C435.263 318.722 434.323 307.324 439.911 293.467C444.777 281.407 456.86 271.407 462.925 273.504C468.99 275.601 468.869 279.916 465.897 284.407C462.925 288.898 444.915 299.717 440.781 321.912Z" fill="#455A64"/>
<path d="M437.916 320.69C438.175 320.695 438.388 320.491 438.393 320.236C438.393 320.236 438.393 320.232 438.393 320.227C438.281 294.824 462.129 277.611 462.379 277.482C462.587 277.329 462.633 277.037 462.49 276.829C462.342 276.621 462.05 276.57 461.842 276.718C461.842 276.718 461.842 276.718 461.837 276.718C461.587 276.884 437.346 294.338 437.457 320.227C437.457 320.486 437.666 320.695 437.925 320.695L437.916 320.69Z" fill="white"/>
<path d="M277.301 245.148L271.56 241.865C271.046 241.476 270.768 240.851 270.828 240.208V201.972C270.884 200.949 271.227 199.958 271.819 199.115L277.528 202.407C276.958 203.245 276.634 204.226 276.597 205.24V243.509C276.523 244.138 276.791 244.763 277.301 245.143V245.148Z" fill="#FF7FB3"/>
<path opacity="0.55" d="M277.301 245.148L271.56 241.865C271.046 241.476 270.768 240.851 270.828 240.208V201.972C270.884 200.949 271.227 199.958 271.819 199.115L277.528 202.407C276.958 203.245 276.634 204.226 276.597 205.24V243.509C276.523 244.138 276.791 244.763 277.301 245.143V245.148Z" fill="white"/>
<path d="M279.128 200.75L359.189 154.537C360.624 153.704 361.786 154.379 361.786 156.032V194.347C361.689 196.171 360.726 197.842 359.189 198.838L279.128 244.981C277.703 245.805 276.531 245.129 276.531 243.477V205.25C276.633 203.421 277.596 201.754 279.128 200.75Z" fill="#FF7FB3"/>
<path opacity="0.7" d="M279.128 200.75L359.189 154.537C360.624 153.704 361.786 154.379 361.786 156.032V194.347C361.689 196.171 360.726 197.842 359.189 198.838L279.128 244.981C277.703 245.805 276.531 245.129 276.531 243.477V205.25C276.633 203.421 277.596 201.754 279.128 200.75Z" fill="white"/>
<path d="M355.282 151.074L360.931 154.296C360.347 154.079 359.694 154.166 359.185 154.523L279.125 200.75C278.449 201.166 277.88 201.741 277.458 202.416L271.75 199.125C272.157 198.454 272.718 197.889 273.384 197.481L353.444 151.254C353.792 151.037 354.194 150.921 354.602 150.907C354.838 150.907 355.069 150.963 355.278 151.074H355.282Z" fill="#FF7FB3"/>
<path opacity="0.85" d="M355.282 151.074L360.931 154.296C360.347 154.079 359.694 154.166 359.185 154.523L279.125 200.75C278.449 201.166 277.88 201.741 277.458 202.416L271.75 199.125C272.157 198.454 272.718 197.889 273.384 197.481L353.444 151.254C353.792 151.037 354.194 150.921 354.602 150.907C354.838 150.907 355.069 150.963 355.278 151.074H355.282Z" fill="white"/>
<path d="M285.391 204.286L352.923 165.217C353.617 164.819 354.173 165.096 354.173 165.842C354.113 166.694 353.65 167.462 352.923 167.911L285.391 206.962C284.705 207.36 284.141 207.083 284.141 206.337C284.21 205.495 284.673 204.735 285.391 204.286Z" fill="#FF7FB3"/>
<path d="M285.391 231.62L352.923 192.569C353.617 192.171 354.173 192.449 354.173 193.203C354.113 194.051 353.645 194.819 352.923 195.263L285.391 234.273C284.705 234.671 284.141 234.384 284.141 233.638C284.219 232.81 284.682 232.06 285.391 231.615V231.62Z" fill="#FF7FB3"/>
<path d="M285.391 217.935L352.923 178.875C353.617 178.477 354.173 178.764 354.173 179.509C354.108 180.356 353.645 181.125 352.923 181.579L285.391 220.629C284.705 221.028 284.141 220.741 284.141 219.995C284.205 219.148 284.668 218.384 285.391 217.935Z" fill="#FF7FB3"/>
<path d="M285.391 224.754L352.923 185.703C353.617 185.305 354.173 185.583 354.173 186.328C354.113 187.18 353.65 187.948 352.923 188.398L285.391 227.448C284.705 227.847 284.141 227.569 284.141 226.823C284.205 225.972 284.668 225.203 285.391 224.754Z" fill="#FF7FB3"/>
<path d="M285.391 211.106L352.923 172.055C353.617 171.657 354.173 171.935 354.173 172.69C354.113 173.537 353.645 174.305 352.923 174.75L285.391 213.778C284.705 214.176 284.141 213.889 284.141 213.143C284.215 212.305 284.678 211.551 285.391 211.102V211.106Z" fill="#FF7FB3"/>
<path d="M276.866 186.797L271.417 183.695C270.898 183.311 270.62 182.681 270.685 182.037V80.3291C270.736 79.3014 271.083 78.3152 271.676 77.4727L276.986 80.5467C276.444 81.3662 276.139 82.3199 276.102 83.3014V185.116C276.028 185.774 276.319 186.417 276.866 186.792V186.797Z" fill="#263238"/>
<path d="M360.119 32.2405C359.638 32.1989 359.156 32.3146 358.753 32.5785L278.693 78.8053C277.994 79.2452 277.406 79.8424 276.98 80.5507L271.656 77.4766C272.068 76.81 272.628 76.2498 273.29 75.8331L353.351 29.6202C353.698 29.3979 354.101 29.2776 354.508 29.2637C354.744 29.2637 354.976 29.3192 355.184 29.4303L360.119 32.2452V32.2405Z" fill="#37474F"/>
<path d="M278.691 78.8055L358.751 32.5926C360.186 31.7592 361.348 32.4351 361.348 34.0879V135.991C361.251 137.815 360.288 139.486 358.751 140.481L278.7 186.625C277.265 187.449 276.094 186.773 276.094 185.12V83.3055C276.196 81.4768 277.159 79.8101 278.691 78.8055Z" fill="#455A64"/>
<path d="M283.129 82.1253L354.986 40.6392C356.273 39.8939 357.315 40.5003 357.315 41.9865V133.505C357.227 135.144 356.361 136.644 354.986 137.537L283.129 178.945C281.842 179.69 280.801 179.084 280.801 177.598V86.1578C280.889 84.5189 281.754 83.0189 283.129 82.1253Z" fill="#F0F0F0"/>
<mask id="mask0_748_3572" style="mask-type:luminance" maskUnits="userSpaceOnUse" x="280" y="40" width="78" height="140">
<path d="M283.129 82.1253L354.986 40.6392C356.273 39.8939 357.315 40.5003 357.315 41.9865V133.505C357.227 135.144 356.361 136.644 354.986 137.537L283.129 178.945C281.842 179.69 280.801 179.084 280.801 177.598V86.1578C280.889 84.5189 281.754 83.0189 283.129 82.1253Z" fill="white"/>
</mask>
<g mask="url(#mask0_748_3572)">
<path d="M342.863 119.625C340.257 115.069 334.733 113.079 329.821 114.917C329.821 114.917 329.405 122.579 333.331 133.579C333.331 133.579 350.428 158.495 353.835 160.815L358.562 145.134C358.562 145.134 346.085 124.667 342.863 119.625Z" fill="#B16668"/>
<path d="M300.971 124.949C296.939 126.486 297.541 130.893 297.67 134.81C297.74 137.217 298.138 141.301 298.393 146.903L299.541 164.93L299.281 204.041C312.393 208.509 329.073 204.578 343.069 189.028C343.069 189.028 342.286 138.977 342.286 130.759V129.639C341.791 118.398 336.212 113.592 329.837 114.94C327.795 115.375 323.374 116.782 320.453 117.694L312.425 120.291C312.425 120.291 304.99 123.412 300.967 124.949H300.971Z" fill="#FF7FB3"/>
<path opacity="0.2" d="M300.971 124.949C296.939 126.486 297.541 130.893 297.67 134.81C297.74 137.217 298.138 141.301 298.393 146.903L299.541 164.93L299.281 204.041C312.393 208.509 329.073 204.578 343.069 189.028C343.069 189.028 342.286 138.977 342.286 130.759V129.639C341.791 118.398 336.212 113.592 329.837 114.94C327.795 115.375 323.374 116.782 320.453 117.694L312.425 120.291C312.425 120.291 304.99 123.412 300.967 124.949H300.971Z" fill="black"/>
<path d="M331.336 86.0093C331.336 82.3935 331.9 77.6435 335.576 75.912C337.437 75.0278 340.095 74.662 341.868 75.8148C343.641 76.9676 344.771 78.588 344.456 80.8518C344.146 82.537 343.303 84.0833 342.049 85.2546C341.831 85.4213 341.669 85.6481 341.581 85.9074C341.549 86.1157 341.567 86.3287 341.632 86.5324C342.109 88.7639 342.076 91.3194 340.562 93.0231C339.502 94.2037 337.914 94.7593 336.349 94.5C334.599 94.088 333.136 92.8843 332.386 91.25C331.632 89.6111 331.271 87.8194 331.336 86.0185V86.0093Z" fill="#263238"/>
<path d="M307.094 98.7129C307.094 98.7129 309.135 109.227 309.95 110.824C310.45 111.768 311.395 112.393 312.459 112.481L312.321 104.75L307.098 98.7129H307.094Z" fill="#263238"/>
<path d="M309.601 82.1943C309.601 82.1943 307.708 82.6619 307.62 82.7082C306.745 83.0323 305.962 83.5601 305.328 84.2453C304.333 85.3055 303.916 86.7869 304.217 88.2082C304.537 89.2314 305.111 90.1527 305.893 90.8842C305.291 91.4953 304.824 92.2267 304.513 93.023C304.212 93.8332 304.212 94.7221 304.513 95.5323C304.726 96.0045 304.999 96.4443 305.328 96.8425C306.05 97.7638 306.902 98.6666 308.152 98.5277C309.064 98.4305 309.986 98.2777 310.898 98.1619L309.601 82.1943Z" fill="#263238"/>
<path d="M312.046 97.8936C311.282 98.639 310.185 97.2177 309.231 96.3288C308.278 95.4399 305.19 94.7038 303.643 98.8751C302.097 103.046 305.009 107.398 307.449 107.634C311.653 108.032 312.287 104.75 312.287 104.75L312.426 122.014C317.014 131.616 335.926 127.958 326.301 117.991V112.69C328.227 112.523 330.13 112.12 331.958 111.5C335.051 110.12 337.005 106.782 337.903 102.671C339.407 96.0603 339.282 92.1436 338.773 80.2223C338.426 72.0371 323.829 69.5093 316.551 76.7455C309.273 83.9816 312.042 97.8936 312.042 97.8936H312.046Z" fill="#B16668"/>
<path d="M309.214 96.329C308.719 95.9447 308.77 94.8105 308.737 94.2688C308.686 92.9493 308.709 91.6253 308.807 90.3058C308.936 88.2225 309.51 86.0419 309.033 84.0003C308.797 83.2595 308.728 82.4725 308.825 81.6993C308.941 80.9077 309.561 80.2781 310.353 80.1531C308.955 76.491 310.788 72.3892 314.446 70.991C315.723 70.5003 317.117 70.3938 318.459 70.6808C319.14 68.3521 321.043 66.5882 323.413 66.0836C324.746 65.8012 326.126 65.8521 327.436 66.2225C328.788 66.5882 329.908 67.5373 330.487 68.8105C331.311 67.0466 334.154 65.4586 336.751 65.7595C338.932 66.0188 341.172 67.366 341.913 69.1299C342.936 71.4447 342.936 74.0882 341.913 76.4031C341.094 78.0142 339.608 79.1855 337.848 79.616C336.08 80.0466 334.209 79.7503 332.654 78.8012C332.645 80.7271 331.376 82.4169 329.533 82.9632C328.283 83.366 326.95 83.4308 325.668 83.1531C324.464 82.6901 323.367 81.9864 322.446 81.0836C322.283 82.8105 321.168 84.3012 319.561 84.9494C317.959 85.5512 316.172 85.4169 314.677 84.5836C315.047 85.7642 315.251 86.9864 315.293 88.2225C315.348 88.866 315.251 89.5095 315.006 90.1068C314.737 90.6994 314.149 91.0836 313.501 91.0975C314.214 92.9031 314.473 94.8568 314.246 96.7873C314.223 97.5605 313.922 98.2966 313.395 98.8568C311.682 100.445 310.274 97.1716 309.214 96.3382V96.329Z" fill="#263238"/>
<path d="M309.611 83.1762L304.953 81.542C305.615 79.829 307.194 78.8059 308.481 79.2503C309.768 79.6948 310.263 81.4586 309.611 83.1762Z" fill="#263238"/>
<path d="M326.25 112.69C326.25 112.69 319.311 112.926 316.936 112.098C315.487 111.593 314.292 110.551 313.598 109.186C313.936 110.63 314.588 111.982 315.5 113.149C317.264 115.278 326.255 114.792 326.255 114.792V112.69H326.25Z" fill="#9A4A4D"/>
<path d="M324.469 93.9494C324.469 94.8337 323.914 95.6253 323.08 95.9309C322.316 96.1392 321.691 95.5559 321.691 94.6438C321.696 93.7596 322.252 92.9725 323.08 92.6624C323.844 92.454 324.469 93.0374 324.469 93.9494Z" fill="#263238"/>
<path d="M323.415 89.407L320.045 91.5459C319.744 90.4996 320.142 89.3792 321.035 88.7588C321.739 88.2449 322.725 88.3931 323.239 89.0968C323.308 89.194 323.369 89.2959 323.415 89.4023V89.407Z" fill="#263238"/>
<path d="M325.628 103.292L328.781 103.806C328.596 104.843 327.693 105.597 326.642 105.588C325.772 105.449 325.314 104.417 325.633 103.287L325.628 103.292Z" fill="#9A4A4D"/>
<path d="M336.999 88.7455L334.305 87.0696C334.851 86.0279 335.902 85.565 336.643 86.0187C337.43 86.7085 337.582 87.8751 336.999 88.7455Z" fill="#263238"/>
<path d="M336.292 91.1618C336.292 92.046 335.741 92.8331 334.912 93.1432C334.148 93.3516 333.523 92.7682 333.523 91.8562C333.533 90.9719 334.084 90.1849 334.912 89.8747C335.676 89.6664 336.292 90.2405 336.292 91.1618Z" fill="#263238"/>
<path d="M328.781 91.5508L328.939 101.18L333.897 98.5971L328.781 91.5508Z" fill="#9A4A4D"/>
<path d="M298.46 207.44C298.686 210.042 299.436 212.569 300.668 214.875C302.034 217.018 303.705 218.949 305.622 220.616C305.825 220.773 305.978 220.991 306.047 221.241C306.117 221.755 305.534 222.111 305.057 222.231C303.973 222.393 302.867 222.176 301.927 221.616C301.219 221.204 300.571 220.699 299.997 220.12C299.797 219.94 298.571 219.069 298.571 218.87C298.96 220.958 299.691 222.967 300.733 224.815C301.756 226.407 302.682 228.06 303.497 229.768C303.964 230.889 304.182 232.333 303.316 233.19C302.95 233.5 302.52 233.717 302.057 233.833C298.862 234.731 295.427 233.847 293.066 231.514C292.047 230.407 291.2 229.157 290.547 227.805C290.149 227.06 289.793 226.296 289.478 225.514C288.95 224.153 288.543 222.745 288.26 221.31C287.497 217.87 287.21 214.37 286.686 210.921C285.126 199.935 284.501 188.838 284.825 177.75C286.608 141.018 289.117 128.602 300.992 124.944C304.353 127.44 305.858 138.134 302.321 147.671C300.566 158.319 299.413 169.06 298.872 179.842C298.654 184.935 297.83 195.204 298.071 200.301C298.182 202.579 298.182 204.861 298.469 207.435L298.46 207.44Z" fill="#B16668"/>
</g>
<path d="M60.1796 370.425L54.4388 367.143C53.9249 366.754 53.6471 366.129 53.7073 365.486V327.259C53.7629 326.236 54.1055 325.245 54.6981 324.402L60.3092 327.694C59.7397 328.532 59.4157 329.513 59.3786 330.527V368.745C59.3138 369.412 59.6194 370.055 60.1796 370.421V370.425Z" fill="#FF7FB3"/>
<path opacity="0.55" d="M60.1796 370.425L54.4388 367.143C53.9249 366.754 53.6471 366.129 53.7073 365.486V327.259C53.7629 326.236 54.1055 325.245 54.6981 324.402L60.3092 327.694C59.7397 328.532 59.4157 329.513 59.3786 330.527V368.745C59.3138 369.412 59.6194 370.055 60.1796 370.421V370.425Z" fill="white"/>
<path d="M62.0035 326.032L142.064 279.805C143.49 278.972 144.661 279.648 144.661 281.301V319.616C144.559 321.444 143.591 323.116 142.054 324.116L62.0035 370.25C60.5683 371.074 59.4062 370.398 59.4062 368.745V330.518C59.5035 328.694 60.4664 327.023 62.0035 326.028V326.032Z" fill="#FF7FB3"/>
<path opacity="0.7" d="M62.0035 326.032L142.064 279.805C143.49 278.972 144.661 279.648 144.661 281.301V319.616C144.559 321.444 143.591 323.116 142.054 324.116L62.0035 370.25C60.5683 371.074 59.4062 370.398 59.4062 368.745V330.518C59.5035 328.694 60.4664 327.023 62.0035 326.028V326.032Z" fill="white"/>
<path d="M138.162 276.361L143.81 279.583C143.227 279.365 142.574 279.453 142.065 279.81L62.0043 326.036C61.3192 326.453 60.7358 327.023 60.3099 327.703L54.6016 324.411C55.0229 323.754 55.5923 323.203 56.2682 322.805L136.328 276.578C136.676 276.361 137.078 276.245 137.486 276.231C137.717 276.217 137.949 276.263 138.162 276.361Z" fill="#FF7FB3"/>
<path opacity="0.85" d="M138.162 276.361L143.81 279.583C143.227 279.365 142.574 279.453 142.065 279.81L62.0043 326.036C61.3192 326.453 60.7358 327.023 60.3099 327.703L54.6016 324.411C55.0229 323.754 55.5923 323.203 56.2682 322.805L136.328 276.578C136.676 276.361 137.078 276.245 137.486 276.231C137.717 276.217 137.949 276.263 138.162 276.361Z" fill="white"/>
<path d="M68.2344 329.56L135.767 290.509C136.452 290.111 137.017 290.389 137.017 291.144C136.952 291.991 136.489 292.755 135.767 293.204L68.2344 332.255C67.5399 332.653 66.9844 332.375 66.9844 331.63C67.0446 330.778 67.5075 330.009 68.2344 329.56Z" fill="#FF7FB3"/>
<path d="M68.2344 356.857L135.799 317.847C136.484 317.449 137.049 317.736 137.049 318.482C136.984 319.329 136.521 320.093 135.799 320.542L68.2344 359.551C67.5399 359.949 66.9844 359.662 66.9844 358.917C67.0446 358.07 67.5122 357.301 68.2344 356.857Z" fill="#FF7FB3"/>
<path d="M68.2344 343.208L135.767 304.157C136.452 303.759 137.017 304.037 137.017 304.782C136.952 305.629 136.489 306.398 135.767 306.852L68.2344 345.903C67.5399 346.301 66.9844 346.023 66.9844 345.278C67.0446 344.426 67.5075 343.653 68.2344 343.208Z" fill="#FF7FB3"/>
<path d="M68.2344 350.027L135.767 310.977C136.452 310.578 137.017 310.856 137.017 311.602C136.952 312.453 136.489 313.222 135.767 313.671L68.2344 352.722C67.5399 353.12 66.9844 352.842 66.9844 352.097C67.0446 351.245 67.5075 350.477 68.2344 350.027Z" fill="#FF7FB3"/>
<path d="M68.2344 336.388L135.767 297.328C136.452 296.93 137.017 297.217 137.017 297.962C136.952 298.809 136.489 299.573 135.767 300.022L68.2344 339.083C67.5399 339.481 66.9844 339.194 66.9844 338.448C67.0446 337.601 67.5122 336.833 68.2344 336.388Z" fill="#FF7FB3"/>
<path d="M59.8433 311.903L54.3619 308.842C53.8433 308.458 53.5656 307.828 53.6304 307.185V205.477C53.6813 204.449 54.0285 203.463 54.6211 202.62L59.9313 205.694C59.3896 206.514 59.0841 207.467 59.047 208.449V310.264C58.9915 310.912 59.297 311.541 59.8387 311.898L59.8433 311.903Z" fill="#263238"/>
<path d="M143.096 157.389C142.614 157.347 142.133 157.463 141.73 157.727L61.6699 203.954C60.9708 204.394 60.3828 204.991 59.9569 205.699L54.6328 202.625C55.0448 201.958 55.605 201.398 56.2671 200.982L136.327 154.769C136.674 154.546 137.077 154.426 137.485 154.412C137.721 154.412 137.952 154.468 138.161 154.579L143.096 157.394V157.389Z" fill="#37474F"/>
<path d="M61.6675 203.939L141.728 157.726C143.154 156.893 144.325 157.569 144.325 159.222V261.125C144.223 262.953 143.26 264.62 141.728 265.624L61.6675 311.759C60.2323 312.583 59.0703 311.916 59.0703 310.263V208.439C59.1722 206.611 60.1351 204.939 61.6675 203.939Z" fill="#455A64"/>
<path d="M65.7701 207.102L137.613 165.616C138.9 164.87 139.941 165.477 139.941 166.963V258.384C139.858 260.023 138.992 261.523 137.613 262.417L65.7701 303.875C64.4831 304.62 63.4414 304.014 63.4414 302.528V211.139C63.5294 209.5 64.3951 208 65.7701 207.107V207.102Z" fill="#F0F0F0"/>
<mask id="mask1_748_3572" style="mask-type:luminance" maskUnits="userSpaceOnUse" x="63" y="165" width="77" height="140">
<path d="M65.7701 207.102L137.613 165.616C138.9 164.87 139.941 165.477 139.941 166.963V258.384C139.858 260.023 138.992 261.523 137.613 262.417L65.7701 303.875C64.4831 304.62 63.4414 304.014 63.4414 302.528V211.139C63.5294 209.5 64.3951 208 65.7701 207.107V207.102Z" fill="white"/>
</mask>
<g mask="url(#mask1_748_3572)">
<path d="M123.463 245.25C117.852 237.967 108.598 238.995 108.598 238.995C109.412 245.328 110.954 251.546 113.186 257.528C113.186 257.528 130.292 282.435 133.7 284.764L138.426 269.074C138.426 269.074 127.098 249.986 123.459 245.25H123.463Z" fill="#FFBDA7"/>
<path d="M106.594 239.352C109.02 238.574 111.561 238.236 114.108 238.361C118.14 238.621 123.108 243.19 126.071 247.945C130.034 254.306 132.672 258.847 132.672 258.847C132.672 258.847 131.353 266.32 121.154 269.542L111.719 257.232L106.594 239.352Z" fill="#FF7FB3"/>
<path opacity="0.5" d="M106.594 239.352C109.02 238.574 111.561 238.236 114.108 238.361C118.14 238.621 123.108 243.19 126.071 247.945C130.034 254.306 132.672 258.847 132.672 258.847C132.672 258.847 131.353 266.32 121.154 269.542L111.719 257.232L106.594 239.352Z" fill="black"/>
<path d="M80.5655 268.552L79.2461 289.366L80.3063 328.306C93.4174 332.774 110.098 328.843 124.093 313.292C124.093 313.292 123.519 261.575 121.695 252.746C119.505 242.112 114.283 236.292 103.695 240.079L93.3202 244.223L82.6442 248.473C82.6442 248.473 80.5609 264.528 80.5609 268.552H80.5655Z" fill="#FF7FB3"/>
<path opacity="0.4" d="M80.5655 268.552L79.2461 289.366L80.3063 328.306C93.4174 332.774 110.098 328.843 124.093 313.292C124.093 313.292 123.519 261.575 121.695 252.746C119.505 242.112 114.283 236.292 103.695 240.079L93.3202 244.223L82.6442 248.473C82.6442 248.473 80.5609 264.528 80.5609 268.552H80.5655Z" fill="black"/>
<path d="M94.2656 210.509C94.2656 219.328 100.46 224.819 108.141 222.768C115.821 220.717 122.016 211.916 122.016 203.097C122.016 194.277 115.423 194.277 107.784 196.328C100.141 198.379 94.2656 201.689 94.2656 210.509Z" fill="#263238"/>
<path d="M92.0234 228.968L89.704 226.283L90.6438 222.417L88.6623 207.144C87.0095 206.866 85.366 207.704 84.6206 209.204C81.3012 215.232 89.0419 233.755 89.704 235.042C90.1993 235.986 91.1484 236.616 92.2132 236.709L92.0234 228.968Z" fill="#263238"/>
<path d="M91.7542 222.107C90.9903 222.853 89.8931 221.431 88.9394 220.542C87.9857 219.654 84.8977 218.917 83.3514 223.089C81.8052 227.26 84.7079 231.621 87.1477 231.848C91.3607 232.246 91.9857 228.964 91.9857 228.964L92.1339 246.904C99.1802 254.385 115.416 250.728 106.009 242.255V236.931C107.939 236.765 109.842 236.367 111.68 235.751C114.773 234.362 116.717 231.033 117.625 226.908C119.129 220.306 119.708 215.144 118.426 203.279C117.018 190.274 103.56 193.746 96.2635 200.978C88.9672 208.214 91.7542 222.098 91.7542 222.098V222.107Z" fill="#FFBDA7"/>
<path d="M91.6178 223.366C90.3307 223.028 89.4881 220.968 88.9418 220.542C88.3955 220.116 88.4881 219.023 88.465 218.482C88.5113 217.144 88.4789 215.801 88.3678 214.468C88.09 213.065 87.9372 211.639 87.9141 210.204C87.9141 207.232 87.9835 203.088 89.2011 200.343C91.4511 195.278 94.9604 194 99.1918 192.644C102.442 191.653 106.002 191.75 109.192 190.542C111.803 189.371 114.192 187.764 116.257 185.783C117.039 185.121 118.132 184.426 118.993 184.968C119.4 185.287 119.683 185.741 119.784 186.246C120.257 187.769 120.4 189.38 120.21 190.963C120.956 191.019 121.687 190.727 122.192 190.171C122.34 189.991 122.497 189.787 122.729 189.787C122.96 189.787 123.206 190.153 123.252 190.463C123.437 191.792 123.321 193.148 122.905 194.426C121.081 200.81 114.738 204.676 108.266 206.162C104.646 207.153 100.84 207.287 97.1548 206.56C96.7104 206.468 96.252 206.546 95.8678 206.787C95.5391 207.037 95.2983 207.384 95.1733 207.778C94.4696 209.593 95.1733 213.296 94.9928 215.796C94.7242 218.838 94.2613 221.417 93.1085 222.852C92.7844 223.347 92.1687 223.56 91.6131 223.366H91.6178Z" fill="#263238"/>
<path d="M88.2575 207.398L83.6094 205.754C84.2622 204.041 85.8409 203.018 87.1279 203.477C88.4149 203.935 88.9196 205.676 88.2575 207.403V207.398Z" fill="#263238"/>
<path d="M105.968 236.935C105.968 236.935 99.0279 237.185 96.6622 236.343C95.2131 235.838 94.0187 234.796 93.3242 233.431C93.6622 234.875 94.3103 236.227 95.2177 237.394C96.9816 239.523 105.972 239.037 105.972 239.037V236.935H105.968Z" fill="#F0997A"/>
<path d="M104.315 218.102C104.315 218.987 103.764 219.774 102.936 220.084C102.163 220.283 101.547 219.709 101.547 218.787C101.552 217.903 102.107 217.116 102.936 216.806C103.7 216.607 104.315 217.181 104.315 218.102Z" fill="#263238"/>
<path d="M102.093 212.088L99.121 214.764C98.7229 213.745 99.0006 212.588 99.8155 211.861C100.278 211.273 101.135 211.171 101.723 211.634C101.88 211.759 102.005 211.912 102.098 212.088H102.093Z" fill="#263238"/>
<path d="M105.343 227.459L108.505 227.982C108.311 229.014 107.403 229.76 106.352 229.755C105.491 229.635 105.033 228.584 105.343 227.454V227.459Z" fill="#F0997A"/>
<path d="M116.999 209.491L114.305 207.834C114.851 206.843 115.902 206.329 116.643 206.843C117.393 207.519 117.545 208.639 116.999 209.491Z" fill="#263238"/>
<path d="M116.417 214.398C116.413 215.282 115.857 216.069 115.028 216.38C114.264 216.588 113.649 216.005 113.649 215.092C113.635 214.194 114.186 213.38 115.028 213.06C115.811 212.903 116.417 213.477 116.417 214.398Z" fill="#263238"/>
<path d="M108.984 214.477L109.142 224.12L114.1 221.523L108.984 214.477Z" fill="#F0997A"/>
<path d="M64.1533 308.796C68.5144 262.273 74.4403 250.908 82.982 249.736C86.3339 252.232 87.394 262.917 85.0237 274C85.0237 274 80.1857 299.083 79.7598 308.116C79.3848 316.046 77.195 325.759 78.1626 332C78.3431 333.102 78.9172 336.31 79.5098 337.056C81.4913 339.495 81.0051 340.625 82.482 342.528C83.6718 344.014 85.644 344.908 85.4542 345.5C85.1672 346.213 83.8663 347.134 81.8061 346.185C80.607 345.542 79.5838 344.611 78.8338 343.482C78.8338 343.482 79.0514 346.454 81.8061 350.972C84.394 355.306 85.1579 359.824 77.9496 358.991C73.8755 358.523 70.8848 357.375 68.2459 346.87C67.5144 343.968 66.9172 338.695 66.3431 334.898C64.6487 323.945 63.5376 315.204 64.144 308.801L64.1533 308.796Z" fill="#FFBDA7"/>
<path d="M83.1071 248.319C83.1071 248.319 74.4728 250.014 72.0654 258.042C70.0839 264.819 68.4358 270.926 66.2969 285.157C70.8848 289.356 77.4959 290.509 83.2367 288.111C83.2367 288.111 87.7969 269.546 88.2506 261.204C88.7459 252.065 83.1071 248.319 83.1071 248.319Z" fill="#FF7FB3"/>
<path opacity="0.5" d="M83.1071 248.319C83.1071 248.319 74.4728 250.014 72.0654 258.042C70.0839 264.819 68.4358 270.926 66.2969 285.157C70.8848 289.356 77.4959 290.509 83.2367 288.111C83.2367 288.111 87.7969 269.546 88.2506 261.204C88.7459 252.065 83.1071 248.319 83.1071 248.319Z" fill="black"/>
</g>
<path d="M168.836 306.838L163.095 303.555C162.581 303.166 162.303 302.541 162.364 301.898V263.671C162.419 262.648 162.762 261.657 163.354 260.814L169.063 264.106C168.493 264.944 168.174 265.926 168.141 266.939V305.157C168.049 305.801 168.317 306.439 168.836 306.833V306.838Z" fill="#FF7FB3"/>
<path opacity="0.55" d="M168.836 306.838L163.095 303.555C162.581 303.166 162.303 302.541 162.364 301.898V263.671C162.419 262.648 162.762 261.657 163.354 260.814L169.063 264.106C168.493 264.944 168.174 265.926 168.141 266.939V305.157C168.049 305.801 168.317 306.439 168.836 306.833V306.838Z" fill="white"/>
<path d="M170.668 262.444L250.718 216.217C252.154 215.384 253.316 216.06 253.316 217.713V256.028C253.218 257.852 252.255 259.523 250.718 260.518L170.668 306.662C169.232 307.486 168.07 306.81 168.07 305.157V266.93C168.168 265.106 169.131 263.435 170.668 262.44V262.444Z" fill="#FF7FB3"/>
<path opacity="0.7" d="M170.668 262.444L250.718 216.217C252.154 215.384 253.316 216.06 253.316 217.713V256.028C253.218 257.852 252.255 259.523 250.718 260.518L170.668 306.662C169.232 307.486 168.07 306.81 168.07 305.157V266.93C168.168 265.106 169.131 263.435 170.668 262.44V262.444Z" fill="white"/>
<path d="M246.814 212.791L252.462 216.014C251.878 215.796 251.226 215.884 250.716 216.24L170.656 262.444C169.98 262.861 169.411 263.435 168.99 264.111L163.281 260.819C163.689 260.148 164.249 259.583 164.916 259.176L244.976 212.949C245.328 212.731 245.73 212.615 246.147 212.602C246.383 212.602 246.61 212.671 246.809 212.791H246.814Z" fill="#FF7FB3"/>
<path opacity="0.85" d="M246.814 212.791L252.462 216.014C251.878 215.796 251.226 215.884 250.716 216.24L170.656 262.444C169.98 262.861 169.411 263.435 168.99 264.111L163.281 260.819C163.689 260.148 164.249 259.583 164.916 259.176L244.976 212.949C245.328 212.731 245.73 212.615 246.147 212.602C246.383 212.602 246.61 212.671 246.809 212.791H246.814Z" fill="white"/>
<path d="M176.92 265.972L244.462 226.921C245.147 226.523 245.703 226.801 245.703 227.546C245.643 228.393 245.184 229.166 244.462 229.615L176.92 268.666C176.235 269.064 175.68 268.787 175.68 268.041C175.74 267.194 176.203 266.426 176.92 265.972Z" fill="#FF7FB3"/>
<path d="M176.92 293.269L244.462 254.209C245.147 253.811 245.703 254.098 245.703 254.843C245.643 255.69 245.18 256.454 244.462 256.903L176.92 295.963C176.235 296.362 175.68 296.075 175.68 295.329C175.74 294.482 176.203 293.718 176.92 293.269Z" fill="#FF7FB3"/>
<path d="M176.92 279.62L244.462 240.541C245.147 240.143 245.703 240.421 245.703 241.166C245.643 242.013 245.18 242.782 244.462 243.235L176.92 282.286C176.235 282.685 175.68 282.407 175.68 281.652C175.749 280.819 176.207 280.064 176.92 279.62Z" fill="#FF7FB3"/>
<path d="M176.92 286.44L244.462 247.389C245.147 246.99 245.703 247.268 245.703 248.014C245.643 248.861 245.184 249.634 244.462 250.083L176.92 289.102C176.235 289.5 175.68 289.222 175.68 288.477C175.749 287.639 176.207 286.884 176.92 286.435V286.44Z" fill="#FF7FB3"/>
<path d="M176.92 272.8L244.462 233.74C245.147 233.342 245.703 233.629 245.703 234.374C245.643 235.222 245.18 235.985 244.462 236.435L176.92 275.495C176.235 275.893 175.68 275.606 175.68 274.86C175.74 274.013 176.203 273.249 176.92 272.8Z" fill="#FF7FB3"/>
<path d="M168.727 249.56L163.288 246.486C162.769 246.102 162.491 245.472 162.556 244.829V143.093C162.607 142.065 162.954 141.079 163.547 140.236L168.857 143.31C168.315 144.13 168.01 145.084 167.973 146.065V247.88C167.894 248.533 168.186 249.181 168.727 249.556V249.56Z" fill="#263238"/>
<path d="M251.979 95.0091C251.497 94.9674 251.016 95.0832 250.613 95.347L170.553 141.574C169.854 142.014 169.266 142.611 168.84 143.319L163.516 140.245C163.928 139.579 164.488 139.018 165.15 138.602L245.21 92.3887C245.557 92.1665 245.96 92.0461 246.367 92.0322C246.604 92.0322 246.835 92.0878 247.043 92.1989L251.979 95.0137V95.0091Z" fill="#37474F"/>
<path d="M170.552 141.569L250.603 95.3424C252.038 94.5183 253.2 95.185 253.2 96.847V198.75C253.103 200.574 252.14 202.245 250.603 203.241L170.543 249.375C169.117 250.208 167.945 249.532 167.945 247.879V146.065C168.047 144.236 169.015 142.565 170.552 141.565V141.569Z" fill="#455A64"/>
<path d="M174.665 144.722L246.521 103.236C247.808 102.491 248.85 103.097 248.85 104.583V196.051C248.762 197.69 247.896 199.19 246.521 200.083L174.665 241.532C173.378 242.278 172.336 241.671 172.336 240.185V148.764C172.424 147.12 173.29 145.62 174.665 144.722Z" fill="#F0F0F0"/>
<mask id="mask2_748_3572" style="mask-type:luminance" maskUnits="userSpaceOnUse" x="172" y="102" width="77" height="140">
<path d="M174.665 144.722L246.521 103.236C247.808 102.491 248.85 103.097 248.85 104.583V196.051C248.762 197.69 247.896 199.19 246.521 200.083L174.665 241.532C173.378 242.278 172.336 241.671 172.336 240.185V148.754C172.424 147.116 173.29 145.616 174.665 144.722Z" fill="white"/>
</mask>
<g mask="url(#mask2_748_3572)">
<path d="M234.864 226.319C224.23 188.823 224.11 182.712 224.744 178.291C234.397 175.962 238.619 182.583 241.198 193.74C242.439 199.101 246.003 219.508 248.216 228.041C250.198 235.522 252.596 243.55 255.513 248.856C255.994 249.768 256.883 250.388 257.902 250.532C260.605 250.916 261.411 252.434 263.61 253.564C265.332 254.434 266.582 254.217 266.536 254.823C266.272 256.198 265.189 257.272 263.809 257.518C262.726 257.633 261.628 257.564 260.568 257.309C261.874 259.018 263.471 260.481 265.286 261.629C269.527 264.374 270.846 268.569 263.503 270.638C260.619 271.439 255.249 270.527 248.855 261.897C246.726 258.805 244.962 255.481 243.591 251.985C239.952 242.777 236.989 233.809 234.869 226.314L234.864 226.319Z" fill="#FFA8A7"/>
<path d="M209.044 182.602C209.044 182.602 198.516 186.338 195.803 187.616C202.743 195.94 194.438 218.657 194.438 218.657L198.868 233.958L232.169 222.291C237.678 208.416 238.762 202.125 238.275 198.315C237.174 189.694 232.021 184.032 224.748 178.282L209.049 182.592L209.044 182.602Z" fill="#FF7FB3"/>
<path d="M234.053 173.365L216.687 178.814C207.367 181.745 197.437 176.56 194.506 167.24C193.969 165.532 193.696 163.754 193.691 161.967V158.282C193.691 145.833 202.432 133.407 213.215 130.532L214.673 130.148C225.455 127.254 234.196 135.004 234.196 147.453V150.93C234.196 162.069 234.048 173.37 234.048 173.37L234.053 173.365Z" fill="#37474F"/>
<path d="M200.412 135.695C199.343 134.644 197.547 135.042 196.399 136.579L198.537 138.699C198.028 138.639 197.519 138.741 197.07 138.986C195.482 139.88 194.607 141.653 194.871 143.454L200.431 140.611C200.403 140.482 200.366 140.357 200.32 140.236C201.371 138.709 201.44 136.718 200.408 135.699L200.412 135.695Z" fill="#37474F"/>
<path d="M226.599 139.847C228.58 141.143 231.358 143.476 231.099 156.564C230.881 167.657 227.779 171.212 226.224 172.421C224.668 173.629 221.664 173.949 218.751 174.166V181.161C218.751 181.161 223.798 185.939 223.539 189.092C223.279 192.245 218.751 194.833 211.914 190.638C209.506 189.032 207.478 186.921 205.969 184.453L206.029 169.486C206.029 169.486 204.316 171.865 201.409 169.703C198.867 167.689 198.284 164.069 200.062 161.356C200.821 160.175 202.052 159.388 203.441 159.185C205.08 159.106 206.474 160.374 206.552 162.018C206.552 162.064 206.552 162.111 206.552 162.161V162.986C206.552 162.986 208.673 163.314 208.812 159.171C208.89 156.87 211.636 153.226 214.321 150.925C218.89 146.99 224.71 146.939 226.599 139.847Z" fill="#FFA8A7"/>
<path d="M219.213 155.879C219.25 156.661 218.791 157.379 218.074 157.684C217.412 157.902 216.847 157.434 216.815 156.694C216.778 155.911 217.231 155.184 217.953 154.879C218.606 154.629 219.18 155.087 219.213 155.879Z" fill="#263238"/>
<path d="M220.015 165.384L223.552 165.74C223.372 166.893 222.409 167.759 221.242 167.824C220.27 167.726 219.715 166.634 220.015 165.384Z" fill="#F28F8F"/>
<path d="M229.621 149.857L227.195 148.56C227.63 147.639 228.543 147.181 229.177 147.57C229.894 148.102 230.084 149.093 229.621 149.861V149.857Z" fill="#263238"/>
<path d="M215.773 153.454L218.199 150.848C217.755 150.172 216.852 150.195 216.218 150.917C215.537 151.579 215.356 152.602 215.773 153.454Z" fill="#263238"/>
<path d="M229.334 153.81C229.376 154.597 228.922 155.324 228.195 155.625C227.533 155.842 226.969 155.375 226.936 154.634C226.895 153.851 227.353 153.125 228.075 152.819C228.728 152.56 229.302 153.027 229.334 153.81Z" fill="#263238"/>
<path d="M223.555 154.208L223.745 162.514L227.55 160.134L223.555 154.208Z" fill="#F28F8F"/>
<path d="M218.744 174.138C215.67 174.495 209.351 174.138 208.355 171.472C208.703 172.736 209.49 173.833 210.578 174.564C212.471 175.921 218.744 176.347 218.744 176.347V174.138Z" fill="#F28F8F"/>
<path d="M177.668 247.537C180.95 211.708 182.82 191.518 195.806 187.615C197.737 188.319 199.533 192.569 199.871 195.652C200.455 200.865 199.751 209.865 196.519 214.481C196.519 214.481 192.445 235.949 190.871 248.305C189.783 256.856 187.431 269.176 187.978 276.115C188.237 277.37 188.788 278.546 189.584 279.546L191.783 283.203C192.218 283.972 192.714 284.699 193.269 285.384C193.774 285.967 194.357 286.472 194.904 287.018C195.311 287.416 195.705 288.009 195.371 288.486C195.242 288.639 195.07 288.754 194.876 288.814C193.566 289.31 192.103 289.171 190.913 288.439C190.181 287.986 189.584 287.319 188.82 286.921C188.885 288.199 189.246 289.444 189.88 290.56C190.316 291.463 190.751 292.375 191.237 293.264C191.76 294.157 192.223 295.083 192.626 296.037C193.038 296.99 193.14 298.055 192.913 299.069C192.399 300.652 191.029 301.805 189.385 302.041C187.765 302.25 186.121 301.926 184.695 301.12C179.811 298.592 178.172 293.518 177.561 288.426C176.964 284.189 176.635 279.916 176.57 275.639C176.76 264.319 177.038 254.509 177.672 247.532L177.668 247.537Z" fill="#FFA8A7"/>
<path d="M205.999 183.426C203.883 183.879 201.87 184.713 200.055 185.884C200.055 185.884 204.731 194.921 212.758 196.231C220.786 197.542 221.36 192.139 221.36 192.139C216.337 192.347 211.263 190.167 205.999 183.426Z" fill="#455A64"/>
<path d="M218.746 179.796V181.162C222.154 185.602 223.195 189.44 221.311 192.134C221.311 192.134 226.931 194.046 227.922 189.926C228.913 185.806 221.779 179.125 221.779 179.125C220.741 179.199 219.718 179.426 218.746 179.801V179.796Z" fill="#455A64"/>
</g>
<path d="M145.542 72.2732L139.597 75.713C139.63 75.4491 139.644 75.1852 139.648 74.9214V73.2084C139.648 70.1343 137.495 68.8982 134.843 70.4214C133.694 71.1251 132.713 72.0649 131.968 73.1852C131.542 69.3195 128.509 67.8936 124.843 70.0139C120.588 72.7778 117.917 77.4075 117.648 82.4723V85.051C117.625 86.0741 117.829 87.0927 118.255 88.0232L113.301 90.8797C111.731 91.9121 110.736 93.6204 110.625 95.5001C110.625 97.2038 111.824 97.8982 113.301 97.0464L145.551 78.4445C147.12 77.4121 148.106 75.6991 148.218 73.8241C148.227 72.1204 147.037 71.4352 145.551 72.2778L145.542 72.2732Z" fill="#EBEBEB"/>
<path d="M106.238 56.4727L102.928 57.7319V50.5051C102.928 44.7782 98.3584 43.3986 93.4047 46.2643C88.451 49.1393 84.4139 56.1069 84.4139 61.8338V62.8847C82.9972 62.4403 81.4556 62.681 80.2426 63.5282C76.4232 66.019 74.025 70.1764 73.7797 74.7273V75.2041L69.2287 77.8384C66.7148 79.4773 65.1315 82.2134 64.9648 85.2134C64.9648 87.931 66.8769 89.0282 69.2287 87.6717L106.238 66.3014C108.752 64.6625 110.331 61.9217 110.488 58.9264C110.488 56.1903 108.585 55.1116 106.238 56.468V56.4727Z" fill="#EBEBEB"/>
<path d="M312.732 263.339C311.333 262.191 309.185 261.95 306.607 262.913C301.445 264.825 296.509 270.783 295.574 276.204C295.107 278.922 295.741 280.991 297.13 282.149L391.829 367.005C393.75 368.82 396.866 369.265 400.648 367.866C407.861 365.191 414.773 356.876 416.06 349.283C416.745 345.32 415.732 342.343 413.583 340.769L312.727 263.334L312.732 263.339Z" fill="#FF7FB3"/>
<path opacity="0.15" d="M310.351 277.219C314.656 272.029 315.714 265.806 312.715 263.318C309.716 260.83 303.795 263.02 299.49 268.209C295.185 273.398 294.126 279.621 297.125 282.109C300.124 284.597 306.045 282.408 310.351 277.219Z" fill="black"/>
<path d="M277.074 242.83C273.694 244.288 271.218 247.279 270.412 250.867C270.051 252.145 270.407 253.515 271.343 254.455L300.213 278.409C301.306 279.163 302.722 279.265 303.912 278.677C307.292 277.219 309.768 274.228 310.583 270.64C310.944 269.358 310.583 267.983 309.644 267.043L280.782 243.098C279.685 242.344 278.268 242.242 277.074 242.83Z" fill="#263238"/>
<path opacity="0.1" d="M307.836 279.76L405.6 365.093C404.076 366.223 402.41 367.144 400.646 367.829C396.859 369.227 393.706 368.82 391.817 366.959L297.188 282.172C298.595 283.329 300.725 283.551 303.312 282.598C304.97 281.917 306.502 280.959 307.84 279.764L307.836 279.76Z" fill="black"/>
<path d="M327.7 150.352C327.7 149.362 327.621 148.371 327.543 147.38C327.464 146.39 327.422 145.45 327.325 144.496C327.325 143.852 327.205 143.227 327.126 142.584C326.959 140.927 326.718 139.283 326.441 137.727C326.32 137.015 326.191 136.292 326.056 135.575C325.922 134.857 325.779 134.227 325.64 133.593C325.223 131.788 324.779 130.024 324.274 128.329C324.005 127.528 323.76 126.723 323.492 125.94C323.441 125.825 323.399 125.7 323.371 125.575C323.084 124.792 322.806 124.038 322.51 123.297C322.214 122.556 321.834 121.593 321.441 120.778C321.163 120.172 320.904 119.589 320.589 119.005C320.408 118.565 320.195 118.144 319.955 117.737C319.709 117.214 319.436 116.704 319.14 116.209C319.08 116.093 319.015 115.977 318.941 115.871C318.705 115.436 318.427 114.987 318.168 114.552C317.908 114.116 317.802 113.996 317.63 113.718C316.38 111.741 314.973 109.871 313.418 108.13C313.149 107.834 312.88 107.538 312.644 107.246L311.982 106.552C311.714 106.265 311.418 105.996 311.121 105.7C310.32 104.89 309.473 104.13 308.584 103.422C308.168 103.065 307.732 102.727 307.288 102.431C306.843 102.135 306.418 101.778 305.95 101.44C305.251 100.927 304.524 100.454 303.769 100.024L303.186 99.658L303.066 99.5608L289.399 91.533L289.2 91.4127C282.538 87.6997 275.015 85.8108 267.385 85.9312C256.038 85.9312 243.242 89.6488 229.672 97.459C183.089 124.366 145.32 189.788 145.32 243.598C145.32 270.436 154.705 289.306 169.88 298.107L170.019 298.177L183.705 306.186L183.862 306.274L184.061 306.385L184.279 306.505C184.931 306.88 185.589 307.227 186.26 307.556C186.931 307.885 187.945 308.339 188.797 308.667C189.556 309.001 190.334 309.288 191.126 309.528C191.529 309.672 191.941 309.797 192.353 309.894C192.793 310.061 193.242 310.195 193.7 310.292C194.149 310.427 194.607 310.542 195.066 310.63C195.39 310.728 195.723 310.797 196.056 310.848C196.64 310.968 197.274 311.098 197.89 311.177C198.024 311.218 198.163 311.241 198.306 311.246C199.029 311.366 199.774 311.473 200.496 311.542C213.066 312.862 227.672 309.311 243.311 300.292C289.894 273.394 327.705 207.94 327.705 154.153C327.765 152.903 327.732 151.635 327.695 150.357L327.7 150.352ZM173.959 277.311C172.01 270.116 171.047 262.686 171.103 255.227C171.103 204.246 208.408 139.616 252.561 114.126C259.01 110.306 265.968 107.427 273.228 105.575C276.709 104.714 280.279 104.265 283.862 104.237C285.668 104.227 287.468 104.366 289.255 104.653H289.404C298.441 115.348 299.769 132.473 299.769 141.63C299.769 192.612 262.505 257.241 218.33 282.723C207.089 289.204 196.288 292.635 187.019 292.635C185.098 292.649 183.181 292.403 181.32 291.913C177.894 287.603 175.385 282.635 173.955 277.315L173.959 277.311Z" fill="#FF7FB3"/>
<path opacity="0.15" d="M315.63 150.58C315.63 177.667 305.103 208.589 288.612 235.468C287.839 236.746 287.047 237.996 286.232 239.255C285.547 240.334 284.843 241.417 284.112 242.487C282.566 244.788 281.001 247.056 279.353 249.274C278.58 250.334 277.797 251.385 276.992 252.417C276.191 253.45 275.246 254.686 274.357 255.806C272.663 257.945 270.908 260.029 269.126 262.061C267.955 263.417 266.756 264.746 265.547 266.024C255.834 276.468 245.218 285.292 234.177 291.654C232.066 292.871 229.982 293.982 227.913 294.982C221.195 298.394 213.922 300.566 206.436 301.394C205.228 301.515 204.038 301.561 202.89 301.561C202.274 301.561 201.691 301.561 201.107 301.51H201.038C199.918 301.464 198.797 301.348 197.686 301.163C197.14 301.084 196.607 300.996 196.089 300.876C195.57 300.774 195.056 300.649 194.552 300.501C189.32 299.172 184.672 296.163 181.32 291.936C183.177 292.431 185.089 292.672 187.01 292.658C196.279 292.658 207.08 289.237 218.32 282.746C262.492 257.265 299.76 192.635 299.76 141.654C299.76 132.496 298.431 115.371 289.394 104.677H289.246C300.765 106.519 307.316 114.348 311.001 123.399C312.047 125.973 312.89 128.621 313.519 131.33C313.519 131.478 313.589 131.626 313.617 131.774C313.737 132.26 313.853 132.765 313.945 133.242C314.038 133.718 314.135 134.232 314.223 134.667C314.251 134.788 314.274 134.913 314.293 135.033C314.39 135.547 314.482 136.052 314.561 136.552C314.848 138.445 315.084 140.288 315.246 142.052C315.246 142.566 315.334 143.042 315.367 143.538C315.399 144.033 315.427 144.283 315.445 144.64V145.093C315.445 145.492 315.496 145.876 315.515 146.265V146.593C315.515 147.08 315.515 147.584 315.566 148.029C315.626 148.88 315.635 149.751 315.635 150.575L315.63 150.58Z" fill="black"/>
<path opacity="0.1" d="M182.532 305.557L169.865 298.112C154.689 289.242 145.305 270.362 145.305 243.603C145.305 219.598 152.828 193.307 165.277 169.163L179.698 177.459C167.24 201.603 158.985 227.631 158.985 251.621C158.985 277.858 167.916 296.469 182.532 305.557Z" fill="black"/>
<path opacity="0.4" d="M303.191 99.6576L303.071 99.5604L289.413 91.5327H289.363L289.173 91.4123C282.515 87.7039 274.997 85.8151 267.376 85.9308C256.038 85.9308 243.233 89.6391 229.663 97.4586C203.895 112.324 180.733 139.084 165.242 169.176L179.594 177.621L179.288 178.213C194.798 148.482 217.802 121.593 243.344 105.496C266.464 90.9262 288.409 90.7271 303.733 100.047L303.187 99.6623L303.191 99.6576Z" fill="white"/>
<path opacity="0.3" d="M308.294 146.26C308.294 197.241 270.988 261.871 226.835 287.362C220.386 291.181 213.428 294.061 206.169 295.913C202.687 296.774 199.118 297.223 195.534 297.251C191.849 297.297 188.192 296.672 184.733 295.408C179.252 290.811 175.942 284.149 173.96 277.311C172.011 270.116 171.048 262.686 171.104 255.228C171.104 204.246 208.409 139.616 252.562 114.126C259.011 110.306 265.97 107.427 273.229 105.575C276.71 104.714 280.28 104.265 283.863 104.237C287.544 104.19 291.206 104.811 294.664 106.07C300.155 110.667 303.465 117.339 305.446 124.177C307.391 131.376 308.345 138.802 308.289 146.26H308.294Z" fill="white"/>
<mask id="mask3_748_3572" style="mask-type:luminance" maskUnits="userSpaceOnUse" x="171" y="104" width="129" height="189">
<path d="M218.327 282.774C262.498 257.292 299.767 192.663 299.767 141.681C299.767 132.524 298.438 115.399 289.401 104.704H289.253C287.471 104.417 285.665 104.278 283.859 104.288C280.276 104.315 276.707 104.764 273.225 105.626C265.975 107.468 259.026 110.329 252.582 114.13C208.429 139.621 171.123 204.25 171.123 255.232C171.068 262.69 172.026 270.116 173.98 277.315C175.434 282.751 178.026 287.82 181.582 292.181C183.383 292.496 185.211 292.649 187.045 292.635C196.29 292.676 207.096 289.255 218.332 282.774H218.327Z" fill="white"/>
</mask>
<g mask="url(#mask3_748_3572)">
<path d="M287.378 72.4121C286.679 72.3566 285.985 72.5325 285.397 72.9075L167.753 140.82C166.725 141.463 165.864 142.338 165.235 143.375L157.434 138.866C158.035 137.884 158.855 137.056 159.832 136.449L277.434 68.5603C277.943 68.2362 278.535 68.0556 279.137 68.0371C279.485 68.0371 279.822 68.1204 280.128 68.2871L287.373 72.4214L287.378 72.4121Z" fill="#37474F"/>
<path d="M167.76 140.806L285.362 72.9172C287.464 71.6996 289.177 72.6811 289.177 75.1163V224.774C289.029 227.454 287.612 229.908 285.362 231.376L167.76 299.195C165.649 300.403 163.945 299.422 163.945 296.987V147.38C164.103 144.709 165.519 142.269 167.76 140.811V140.806Z" fill="#455A64"/>
<path d="M173.799 145.444L279.341 84.4993C281.225 83.4114 282.762 84.291 282.762 86.4808V220.833C282.637 223.249 281.369 225.458 279.341 226.777L173.79 287.61C171.896 288.698 170.359 287.819 170.359 285.629V151.333C170.508 148.935 171.781 146.745 173.799 145.435V145.444Z" fill="#F0F0F0"/>
<mask id="mask4_748_3572" style="mask-type:luminance" maskUnits="userSpaceOnUse" x="170" y="84" width="113" height="205">
<path d="M173.799 145.444L279.341 84.4993C281.225 83.4114 282.762 84.291 282.762 86.4808V220.833C282.637 223.249 281.369 225.458 279.341 226.777L173.79 287.61C171.896 288.698 170.359 287.819 170.359 285.629V151.333C170.508 148.935 171.781 146.745 173.799 145.435V145.444Z" fill="white"/>
</mask>
<g mask="url(#mask4_748_3572)">
<path d="M262.225 265.318C246.605 210.244 246.438 201.226 247.36 194.772C261.54 191.351 267.716 201.064 271.522 217.467C273.355 225.397 278.586 255.346 281.841 267.855C284.698 278.846 288.272 290.652 292.545 298.499C293.253 299.832 294.559 300.74 296.054 300.948C300.017 301.513 301.207 303.754 304.448 305.397C306.985 306.693 308.86 306.388 308.739 307.258C308.36 309.286 306.758 310.865 304.725 311.221C303.369 311.457 302.318 311.221 299.98 310.902C301.897 313.42 304.244 315.573 306.92 317.263C313.142 321.295 315.086 327.499 304.295 330.494C300.063 331.666 292.165 330.328 282.79 317.661C279.665 313.124 277.073 308.24 275.059 303.11C269.707 289.48 265.364 276.309 262.235 265.309L262.225 265.318Z" fill="#FFA8A7"/>
<path d="M224.312 201.087C224.312 201.087 208.849 206.578 204.849 208.462C214.978 220.684 202.867 254.055 202.867 254.055L209.376 276.541C202.367 288.772 257.298 266.064 258.298 259.393C266.386 238.948 267.96 229.768 267.219 224.18C265.613 211.513 258.043 203.198 247.395 194.754L224.312 201.087Z" fill="#FF7FB3"/>
<path d="M209.359 276.536C222.563 276.189 252.322 264.791 258.281 259.388C266.369 238.943 267.943 229.763 267.202 224.175" fill="#FF7FB3"/>
<path d="M261.036 187.508L235.536 195.517C221.846 199.818 207.258 192.207 202.952 178.517C202.161 175.999 201.758 173.379 201.758 170.74V165.416C201.758 147.129 214.591 128.865 230.429 124.624L232.568 124.05C248.424 119.8 261.249 131.184 261.249 149.48V154.582C261.249 170.916 261.031 187.508 261.031 187.508H261.036Z" fill="#37474F"/>
<path d="M211.622 132.175C210.066 130.638 207.418 131.184 205.724 133.471L208.876 136.583C208.131 136.504 207.376 136.652 206.714 137.009C204.381 138.319 203.099 140.934 203.492 143.578L211.659 139.407C211.617 139.217 211.562 139.027 211.492 138.842C213.048 136.601 213.136 133.671 211.622 132.171V132.175Z" fill="#37474F"/>
<path d="M250.083 138.291C253.055 140.185 257.078 143.601 256.694 162.842C256.374 179.134 251.819 184.37 249.536 186.134C247.254 187.897 242.837 188.374 238.555 188.698V198.976C238.555 198.976 245.958 206.004 245.592 210.564C245.226 215.124 238.555 218.99 228.513 212.833C224.99 210.472 222.018 207.374 219.8 203.754L219.888 181.763C219.888 181.763 217.37 185.272 213.101 182.101C209.37 179.138 208.509 173.819 211.12 169.833C212.231 168.101 214.041 166.939 216.073 166.652C218.444 166.509 220.481 168.314 220.624 170.689C220.634 170.81 220.634 170.925 220.629 171.046V172.254C220.629 172.254 223.749 172.74 223.958 166.652C224.078 163.273 228.11 157.93 232.055 154.541C238.772 148.782 247.3 148.712 250.073 138.296L250.083 138.291Z" fill="#FFA8A7"/>
<path d="M239.238 161.827C239.293 162.98 238.626 164.045 237.562 164.494C236.571 164.814 235.756 164.128 235.71 162.966C235.659 161.818 236.325 160.758 237.386 160.309C238.358 159.99 239.191 160.675 239.238 161.827Z" fill="#263238"/>
<path d="M240.419 175.8L245.613 176.323C245.178 178.156 243.632 179.522 242.234 179.374C240.836 179.225 239.984 177.628 240.419 175.795V175.8Z" fill="#F28F8F"/>
<path d="M254.562 152.985L250.992 151.082C251.645 149.725 252.974 149.1 253.964 149.587C254.955 150.073 255.173 151.628 254.557 152.985H254.562Z" fill="#263238"/>
<path d="M234.188 158.282L237.757 154.467C237.104 153.476 235.776 153.476 234.785 154.555C233.808 155.541 233.567 157.041 234.192 158.282H234.188Z" fill="#263238"/>
<path d="M254.105 158.795C254.16 159.948 253.494 161.013 252.429 161.462C251.438 161.767 250.623 161.096 250.577 159.934C250.526 158.786 251.193 157.726 252.253 157.277C253.225 156.957 254.058 157.642 254.105 158.795Z" fill="#263238"/>
<path d="M245.617 159.379L245.904 171.578L251.492 168.083L245.617 159.379Z" fill="#F28F8F"/>
<path d="M238.559 188.698C234.041 189.221 224.754 188.628 223.305 184.781C223.814 186.633 224.971 188.244 226.564 189.318C229.337 191.3 238.555 191.943 238.555 191.943V188.693L238.559 188.698Z" fill="#F28F8F"/>
<path d="M178.249 296.476C183.077 243.837 185.823 214.216 204.887 208.457C207.73 209.448 210.369 215.772 210.832 220.263C211.684 227.915 210.651 241.147 205.878 247.952C205.878 247.952 199.934 279.489 197.582 297.638C195.975 310.207 192.526 328.314 193.332 338.499C193.489 340.42 194.721 341.92 195.693 343.536L198.924 348.897C199.563 350.026 200.295 351.101 201.114 352.11C201.846 352.971 202.712 353.716 203.512 354.508C204.105 355.091 204.693 356.003 204.198 356.67C204.008 356.897 203.758 357.059 203.475 357.147C201.54 357.888 199.374 357.684 197.61 356.601C196.531 355.925 195.628 354.943 194.526 354.369C194.619 356.244 195.156 358.073 196.091 359.702C196.725 361.04 197.36 362.378 198.073 363.665C198.86 364.966 199.559 366.318 200.165 367.707C200.767 369.114 200.915 370.679 200.591 372.175C199.818 374.485 197.809 376.165 195.397 376.517C193.012 376.814 190.596 376.337 188.508 375.151C181.341 371.443 178.943 363.989 178.031 356.508C177.17 350.281 176.707 344.008 176.633 337.726C176.869 321.165 177.258 306.716 178.249 296.476Z" fill="#FFA8A7"/>
<path d="M219.806 202.295C216.685 202.957 213.709 204.179 211.023 205.901C211.023 205.901 217.903 219.184 229.695 221.105C241.491 223.026 242.32 215.091 242.32 215.091C235.014 215.397 227.551 212.207 219.801 202.295H219.806Z" fill="#455A64"/>
<path d="M238.559 196.935V198.916C243.563 205.439 245.1 211.069 242.322 215.032C242.322 215.032 250.586 217.837 252.035 211.791C253.485 205.745 243.017 195.935 243.017 195.935C241.489 196.05 239.985 196.384 238.559 196.935Z" fill="#455A64"/>
</g>
</g>
<path d="M375.074 244.505C381.945 243.741 384.579 245.755 387.134 251.445C389.574 256.875 397.046 273.25 396.667 277.065C396.287 280.88 380.671 297.125 380.671 297.125L376.222 291.713L385.875 275.477L378.195 259.093L375.074 244.505Z" fill="#FFA8A7"/>
<path d="M361.281 239.175L362.568 252.652L374.61 251.898L373.647 236.953L361.281 239.175Z" fill="#FFA8A7"/>
<path d="M345.85 213.269C345.748 212.634 345.748 211.991 345.85 211.357C346.429 208.227 349.429 206.162 352.558 206.741C352.859 206.796 353.155 206.875 353.442 206.977C352.966 204.431 354.285 201.884 356.641 200.81C358.442 200.13 360.442 200.208 362.183 201.028C363.216 201.389 364.077 202.13 364.591 203.097C366.308 200.218 370.04 199.273 372.919 200.995C374.262 201.796 375.243 203.083 375.66 204.583C377.493 204.176 380.081 204.991 380.901 206.815C381.831 208.884 380.692 211.454 381.118 213.625C381.396 215.032 382.003 216.352 382.257 217.778C382.521 219.366 382.669 220.972 382.702 222.583C382.97 229.232 367.516 233.556 367.836 238.125L359.618 228.107C359.618 227.69 358.447 226.648 358.192 226.301C357.697 225.639 357.262 224.935 356.804 224.241C355.387 222.218 353.419 220.639 351.132 219.704C349.516 218.958 348.118 217.819 347.067 216.384C346.429 215.454 346.007 214.389 345.841 213.273L345.85 213.269Z" fill="#263238"/>
<path d="M352.339 224.384C352.339 224.384 349.672 228.347 350.019 228.764C350.644 229.171 351.334 229.468 352.061 229.634L352.339 224.38V224.384Z" fill="#F28F8F"/>
<path d="M360.48 211.801C357.892 213.12 353.416 215.546 352.254 224.945C351.073 234.579 353.244 237.926 354.592 239.185C355.494 240.037 360.152 240.343 362.578 239.611C365.61 238.681 372.203 235.486 375.281 230.514C378.911 224.657 379.661 216.857 375.471 213.806C369.573 209.532 362.675 210.722 360.476 211.806L360.48 211.801Z" fill="#FFA8A7"/>
<path d="M354.841 239.393C355.929 239.986 359.035 240.236 361.341 239.898L361.262 238.176C360.271 238.602 359.243 238.935 358.188 239.167C357.091 239.407 355.961 239.486 354.836 239.393H354.841Z" fill="#F28F8F"/>
<path d="M359.353 211.541C358.251 211.944 357.228 212.532 356.33 213.286C355.881 213.661 355.515 214.129 355.261 214.652C355.066 215.143 354.992 215.671 355.043 216.198C355.2 217.671 356.122 218.948 357.469 219.559C356.756 220.522 356.515 221.749 356.816 222.911C357.288 224.245 358.112 225.425 359.196 226.333C359.251 226.397 359.316 226.448 359.395 226.481C359.548 226.504 359.705 226.458 359.821 226.351C361.446 225.263 362.455 223.379 364.774 224.143C367.798 225.134 367.649 228.86 365.279 231.18C364.432 232.036 363.316 232.564 362.117 232.675C361.511 232.689 360.918 232.481 360.45 232.092C360.45 232.092 360.538 236.948 364.761 238.879C367.705 239.735 370.825 239.772 373.788 238.99C375.386 236.958 378.061 234.37 380.261 232.05C387.506 224.43 387.923 213.356 377.228 209.86C376.862 209.74 376.497 209.634 376.117 209.532C372.677 208.634 369.075 208.555 365.603 209.305C363.89 209.675 362.228 210.245 360.649 210.999L359.353 211.546V211.541Z" fill="#263238"/>
<path d="M359.005 229.727C357.847 229.338 357.227 228.083 357.616 226.926C357.625 226.903 357.63 226.884 357.639 226.861C358.074 225.69 359.375 225.088 360.551 225.514L359.005 229.727Z" fill="#263238"/>
<path d="M360.198 414.569C360.628 415.889 360.994 417.236 361.286 418.592C361.591 420.088 362.031 422.555 361.503 423.708C360.975 424.861 358.938 425.56 355.776 425.532C353.735 425.532 350.545 426.912 348.355 428.13C346.165 429.347 341.415 429.893 339.017 429.606C336.202 429.278 333.29 427.625 332.832 426.486C332.374 425.347 331.999 423.722 339.61 421.282C339.679 421.282 348.827 418.31 352.04 414.741L360.198 414.574V414.569Z" fill="#263238"/>
<path d="M360.192 414.778L358.734 414.598L352.035 414.737C348.822 418.274 339.674 421.26 339.604 421.278L338.387 421.686C337.067 422.755 338.188 424.57 341.359 424.848C344.53 425.125 354.294 421.875 356.466 420.792C358.79 419.699 360.248 417.343 360.192 414.778Z" fill="#FFA8A7"/>
<path d="M360.196 411.902V414.777C360.196 415.819 358.969 417.384 355.766 417.273C353.516 417.194 351.951 416.588 352.039 414.736V412.069L360.196 411.902Z" fill="#FFA8A7"/>
<path d="M381.704 402.528C382.278 402.765 382.398 403.876 382.426 406.089C382.426 407.755 382.722 410.677 380.75 411.204C378.778 411.732 375.935 411.362 374.713 409.755C373.208 407.774 372.194 405.991 370.037 403.542C368.153 401.413 366.074 399.417 365.407 396.477C364.773 393.829 365.407 392.7 367.213 391.987C369.018 391.274 370.671 391.857 373.157 393.968C373.861 394.436 374.611 394.834 375.398 395.149C377.074 395.644 381.125 402.292 381.704 402.533V402.528Z" fill="#263238"/>
<path d="M381.757 400.486L381.688 403.189C381.688 403.189 379.873 406.736 374.841 403.189C374.73 402.93 374.285 397.689 374.285 397.689L381.757 400.486Z" fill="#FFA8A7"/>
<path d="M375.422 395.153C374.635 394.838 373.885 394.445 373.182 393.973C371.2 393.32 366.876 394.07 368.811 397.014C370.408 399.445 372.455 401.547 374.839 403.209C377.117 404.329 377.922 402.94 377.922 402.94L377.108 396.588C376.663 395.987 376.089 395.496 375.422 395.153Z" fill="#FFA8A7"/>
<path d="M385.39 363.023C384.923 358.259 383.927 353.56 382.418 349.018C382.418 349.018 384.122 337.064 385.46 325.588C388.613 298.671 386.511 298.245 382.705 288.916C382.705 288.916 348.196 284.476 346.756 298.828C344.951 316.666 345.765 351.356 346.071 357.699C346.376 364.041 346.886 366.907 348.765 380.185C350.201 390.296 351.562 412.384 351.562 412.384C356.08 414.99 360.483 411.939 360.483 411.939C360.483 411.939 364.802 384.763 364.705 377.449C364.636 372.041 363.867 366.662 362.413 361.453C362.413 361.453 365.386 332.324 366.089 327.699C366.089 327.699 366.923 336.986 367.228 343.328C367.534 349.671 369.21 355.759 370.765 367.56C372.076 377.796 374.256 399.166 374.256 399.166C378.784 401.773 381.946 400.592 381.946 400.592C381.946 400.592 386.427 371.898 385.386 363.018L385.39 363.023Z" fill="#FF7FB3"/>
<g opacity="0.4">
<path d="M385.39 363.023C384.923 358.259 383.927 353.56 382.418 349.018C382.418 349.018 384.122 337.064 385.46 325.588C388.613 298.671 386.511 298.245 382.705 288.916C382.705 288.916 348.196 284.476 346.756 298.828C344.951 316.666 345.765 351.356 346.071 357.699C346.376 364.041 346.886 366.907 348.765 380.185C350.201 390.296 351.562 412.384 351.562 412.384C356.08 414.99 360.483 411.939 360.483 411.939C360.483 411.939 364.802 384.763 364.705 377.449C364.636 372.041 363.867 366.662 362.413 361.453C362.413 361.453 365.386 332.324 366.089 327.699C366.089 327.699 366.923 336.986 367.228 343.328C367.534 349.671 369.21 355.759 370.765 367.56C372.076 377.796 374.256 399.166 374.256 399.166C378.784 401.773 381.946 400.592 381.946 400.592C381.946 400.592 386.427 371.898 385.386 363.018L385.39 363.023Z" fill="black"/>
</g>
<path opacity="0.15" d="M366.094 327.648L367.76 315.06C372.626 315.051 377.344 313.407 381.159 310.394C381.159 310.394 378.899 314.991 369.733 317.005L367.941 329.958L367.297 344.232C366.992 338.653 366.594 333.13 366.098 327.648H366.094Z" fill="black"/>
<path d="M383.91 250.116C382.739 246.649 380.35 244.607 375.068 244.547H374.137C373.762 246.528 367.568 248.255 361.947 246.269C361.174 246.408 358.498 246.704 357.271 246.876L354.586 247.26C350.503 248.598 348.697 255.704 348.304 266.954C347.906 278.204 346.234 302.278 346.234 302.278C346.234 302.278 355.026 306.996 368.892 305.172C381.308 303.538 386.822 296.251 386.396 297.163C384.517 290.959 382.142 284.917 379.299 279.093C385.841 263.065 385.66 255.278 383.92 250.112L383.91 250.116Z" fill="#455A64"/>
<path d="M362.02 305.607C364.316 305.634 366.612 305.5 368.89 305.199C380.219 303.713 385.908 297.509 386.381 297.13C384.524 290.94 382.154 284.917 379.293 279.12C382.603 271.005 384.191 265.009 384.723 260.389C384.186 263.759 379.214 276.801 372.7 280.708C372.7 280.708 376.367 281.282 379.51 285.593C382.654 289.903 380.075 304.681 362.02 305.602V305.607Z" fill="#37474F"/>
<path d="M357.274 246.902C351.862 247.588 347.58 248.717 345.214 253.842C341.251 262.592 336.881 269.777 333.728 273.157C330.357 276.763 316.543 283.069 313.431 282.601C310.32 282.134 307.218 278.518 305.612 279.439C304.006 280.361 306.978 283.842 306.783 284.625C306.589 285.407 300.945 284.99 298.279 283.106C295.612 281.222 294.621 285.088 298.07 289.152C301.519 293.217 307.982 293.513 315.047 292.125C322.112 290.736 335.385 287 340.816 282.55C347.367 277.157 349.598 273.074 352.381 268.24C362.441 257.851 357.279 246.902 357.279 246.902H357.274Z" fill="#FFA8A7"/>
</svg>
