<svg width="100" height="100" viewBox="0 0 100 100" fill="none" xmlns="http://www.w3.org/2000/svg">
<path fill-rule="evenodd" clip-rule="evenodd" d="M47.8633 11.1445H77.4822C82.9439 11.1445 87.4119 15.6125 87.4119 21.0742V83.9568C87.4119 89.4166 82.9437 93.8848 77.4822 93.8848H47.8633C42.4016 93.8848 37.9336 89.4168 37.9336 83.9568V21.0742C37.9336 15.6125 42.4018 11.1445 47.8633 11.1445Z" fill="#ECEFF1"/>
<path fill-rule="evenodd" clip-rule="evenodd" d="M47.8643 12.2557C42.9998 12.2557 39.0449 16.2127 39.0449 21.0752V76.5436H86.3025V21.0752C86.3025 16.2127 82.3475 12.2557 77.4832 12.2557H47.8643ZM77.4832 94.9959H47.8643C41.7766 94.9959 36.8242 90.0455 36.8242 83.9578V77.6539V21.0752C36.8242 14.9875 41.7766 10.0352 47.8643 10.0352H77.4832C83.5707 10.0352 88.5232 14.9875 88.5232 21.0752V77.6539V83.9578C88.5232 90.0455 83.5707 94.9959 77.4832 94.9959Z" fill="#3F323E"/>
<path fill-rule="evenodd" clip-rule="evenodd" d="M47.8643 12.2537C45.493 12.2537 43.3383 13.1943 41.752 14.7213C39.6357 16.334 38.2678 18.8797 38.2678 21.7393V77.2076H86.3025V21.0732C86.3025 16.2107 82.3475 12.2537 77.4832 12.2537H47.8643ZM40.3098 13.0305C42.1818 11.5703 44.5346 10.6992 47.0873 10.6992H76.7062C82.7939 10.6992 87.7463 15.6518 87.7463 21.7393V78.318V84.6219C87.7463 87.7895 86.4051 90.6484 84.2613 92.6631C82.3893 94.123 80.0363 94.9939 77.4834 94.9939H47.8643C41.7766 94.9939 36.8242 90.0436 36.8242 83.9559V77.652V21.0732C36.8242 17.9055 38.1656 15.0455 40.3098 13.0305Z" fill="#4E3D4D"/>
<path fill-rule="evenodd" clip-rule="evenodd" d="M66.6336 18.9004H58.7158C58.1012 18.9004 57.6055 18.4027 57.6055 17.79C57.6055 17.1773 58.1012 16.6797 58.7158 16.6797H66.6336C67.2482 16.6797 67.7439 17.1773 67.7439 17.79C67.7439 18.4027 67.248 18.9004 66.6336 18.9004Z" fill="#3F323E"/>
<path fill-rule="evenodd" clip-rule="evenodd" d="M66.6336 18.9018H58.7158C58.1012 18.9018 57.6055 18.4041 57.6055 17.7914C57.6055 17.6416 57.6352 17.4988 57.6889 17.3684C57.8787 17.2162 58.1199 17.125 58.3828 17.125H66.3006C66.915 17.125 67.4109 17.6227 67.4109 18.2354C67.4109 18.3852 67.3813 18.5279 67.3275 18.6584C67.1375 18.8105 66.8965 18.9018 66.6336 18.9018Z" fill="#4E3D4D"/>
<path fill-rule="evenodd" clip-rule="evenodd" d="M66.6336 86.6484H58.7158C58.1012 86.6484 57.6055 86.1545 57.6055 85.54C57.6055 84.9256 58.1012 84.4297 58.7158 84.4297H66.6336C67.2482 84.4297 67.7439 84.9254 67.7439 85.54C67.7439 86.1545 67.248 86.6484 66.6336 86.6484Z" fill="#D4D7D9"/>
<path fill-rule="evenodd" clip-rule="evenodd" d="M66.6336 86.6516H58.7158C58.1012 86.6516 57.6055 86.1576 57.6055 85.5432C57.6055 85.4434 57.6187 85.3465 57.6432 85.2545C57.8461 85.0309 58.1393 84.8906 58.466 84.8906H66.3838C66.9982 84.8906 67.4941 85.3863 67.4941 86.001C67.4941 86.1006 67.4811 86.1969 67.4566 86.2885C67.2537 86.5117 66.9605 86.6516 66.6336 86.6516Z" fill="#ECEFF1"/>
<path fill-rule="evenodd" clip-rule="evenodd" d="M72.5242 68.1588H66.3606C64.6766 68.1588 63.3125 66.7896 63.3125 65.1107V58.9506C63.3125 57.2717 64.6766 55.9023 66.3606 55.9023H72.5242C74.2082 55.9023 75.5725 57.2715 75.5725 58.9506V65.1107C75.5725 66.7898 74.2084 68.1588 72.5242 68.1588Z" fill="#00CD8A"/>
<path fill-rule="evenodd" clip-rule="evenodd" d="M69.4416 54.0363C66.3936 54.0363 63.918 51.5523 63.918 48.5025C63.918 45.451 66.3936 42.9688 69.4416 42.9688C72.4898 42.9688 74.982 45.451 74.982 48.5025C74.982 51.5523 72.4896 54.0363 69.4416 54.0363Z" fill="#E4404D"/>
<path fill-rule="evenodd" clip-rule="evenodd" d="M59.8264 67.6406H52.0124C51.204 67.6406 50.4799 67.2246 50.0756 66.5309C49.6883 65.8353 49.6883 65.0035 50.0756 64.3078L53.9995 57.5295C54.4036 56.834 55.111 56.418 55.9192 56.418C56.7276 56.418 57.4348 56.834 57.8389 57.5295L61.7627 64.3078C62.1501 65.0033 62.1501 65.8352 61.7627 66.5309C61.3588 67.2246 60.6348 67.6406 59.8264 67.6406Z" fill="#E6BD5C"/>
<path fill-rule="evenodd" clip-rule="evenodd" d="M59.0008 54.6299H52.8371C51.1531 54.6299 49.7891 53.2625 49.7891 51.5834V45.423C49.7891 43.7406 51.1531 42.375 52.8371 42.375H59.0008C60.6848 42.375 62.0488 43.7408 62.0488 45.423V51.5834C62.0488 53.2625 60.6848 54.6299 59.0008 54.6299Z" fill="#56A5E6"/>
<path fill-rule="evenodd" clip-rule="evenodd" d="M64.0063 57.0141C64.4434 56.7713 64.9463 56.6328 65.4816 56.6328H71.6453C73.3293 56.6328 74.6936 58.002 74.6936 59.6809V65.841C74.6936 66.5744 74.4334 67.2484 73.9998 67.7754C73.5627 68.0182 73.0596 68.1566 72.5242 68.1566H66.3606C64.6766 68.1566 63.3125 66.7875 63.3125 65.1086V58.9484C63.3125 58.215 63.5729 57.5408 64.0063 57.0141Z" fill="#00E499"/>
<path fill-rule="evenodd" clip-rule="evenodd" d="M65.4937 44.6375C66.3719 44.0477 67.4275 43.7031 68.5629 43.7031C71.6111 43.7031 74.1033 46.1854 74.1033 49.2369C74.1033 50.7369 73.5002 52.0996 72.5248 53.0977C71.642 53.6912 70.5807 54.0383 69.4416 54.0383C66.3936 54.0383 63.918 51.5543 63.918 48.5045C63.918 47.001 64.5193 45.6357 65.4937 44.6375Z" fill="#FD4755"/>
<path fill-rule="evenodd" clip-rule="evenodd" d="M54.1161 57.3467C54.3983 57.2176 54.711 57.1484 55.0407 57.1484C55.8491 57.1484 56.5563 57.5644 56.9604 58.26L60.8842 65.0383C61.2715 65.7338 61.2715 66.5656 60.8842 67.2613C60.8497 67.3207 60.8127 67.3777 60.7737 67.433C60.4838 67.5668 60.1623 67.6387 59.8264 67.6387H52.0124C51.204 67.6387 50.4799 67.2227 50.0756 66.5289C49.6883 65.8334 49.6883 65.0016 50.0756 64.3059L53.9995 57.5275C54.0362 57.4648 54.075 57.4047 54.1161 57.3467Z" fill="#FFD266"/>
<path fill-rule="evenodd" clip-rule="evenodd" d="M59.0008 54.6318H52.8371C51.1531 54.6318 49.7891 53.2645 49.7891 51.5854V45.425C49.7891 44.6908 50.0488 44.017 50.4816 43.4906C50.9191 43.2479 51.4225 43.1094 51.9584 43.1094H58.1221C59.8061 43.1094 61.1701 44.4752 61.1701 46.1574V52.3176C61.1701 53.0504 60.9102 53.7238 60.4773 54.2502C60.0398 54.4932 59.5365 54.6318 59.0008 54.6318Z" fill="#60B7FF"/>
<path fill-rule="evenodd" clip-rule="evenodd" d="M34.6262 40.6049H21.1166C18.9814 40.6049 17.2432 38.8666 17.2432 36.7334C17.2432 35.0631 16.7141 33.6424 15.5994 32.3934C12.9354 29.393 11.4805 25.5328 11.4805 21.5178C11.4805 12.4768 18.8305 5.12109 27.8809 5.12109C36.9125 5.12109 44.2623 12.4766 44.2623 21.5178C44.2623 25.5328 42.8074 29.393 40.1434 32.3934C39.0285 33.6424 38.4994 35.0631 38.4994 36.7334C38.4994 38.8666 36.7611 40.6049 34.6262 40.6049Z" fill="#E6BD5C"/>
<path fill-rule="evenodd" clip-rule="evenodd" d="M34.6262 40.6031H21.1166C18.9814 40.6031 17.2432 38.8648 17.2432 36.7316C17.2432 35.0613 16.7141 33.6406 15.5994 32.3916C12.9354 29.3912 11.4805 25.5311 11.4805 21.516C11.4805 15.7416 14.4789 10.6553 19.0033 7.7332C21.1861 6.65684 23.6414 6.05078 26.2371 6.05078C35.2688 6.05078 42.6186 13.4062 42.6186 22.4473C42.6186 26.4623 41.1637 30.3225 38.4996 33.3229C37.3848 34.5717 36.8557 35.9926 36.8557 37.6629C36.8557 38.7635 36.393 39.759 35.6518 40.4648C35.3252 40.5549 34.9813 40.6031 34.6262 40.6031Z" fill="#FFD266"/>
<path fill-rule="evenodd" clip-rule="evenodd" d="M34.6434 44.348H21.0959C20.4912 44.348 20 43.8568 20 43.2521C20 42.6475 20.4912 42.1562 21.0959 42.1562H34.6434C35.248 42.1562 35.7393 42.6475 35.7393 43.2521C35.7391 43.8568 35.248 44.348 34.6434 44.348ZM31.998 51.8322H23.7412C23.1367 51.8322 22.6453 51.3428 22.6453 50.7383C22.6453 50.1318 23.1365 49.6424 23.7412 49.6424H31.998C32.6027 49.6424 33.0939 50.1318 33.0939 50.7383C33.0939 51.3428 32.6027 51.8322 31.998 51.8322ZM34.6434 48.0912H21.0959C20.4912 48.0912 20 47.6 20 46.9953C20 46.3908 20.4912 45.8994 21.0959 45.8994H34.6434C35.248 45.8994 35.7393 46.3908 35.7393 46.9953C35.7391 47.6 35.248 48.0912 34.6434 48.0912Z" fill="#3F323E"/>
<path fill-rule="evenodd" clip-rule="evenodd" d="M34.6434 44.3469H21.0959C20.4912 44.3469 20 43.8557 20 43.251C20 43.1229 20.0221 42.9996 20.0627 42.8854C20.2021 42.8211 20.3572 42.7852 20.5205 42.7852H34.0678C34.6725 42.7852 35.1637 43.2766 35.1637 43.8811C35.1637 44.0092 35.1416 44.1322 35.101 44.2467C34.9617 44.3109 34.8066 44.3469 34.6434 44.3469ZM22.7078 50.3711C22.8473 50.307 23.0025 50.2711 23.1658 50.2711H31.4227C32.0273 50.2711 32.5186 50.7605 32.5186 51.367C32.5186 51.4945 32.4965 51.617 32.4564 51.7309C32.317 51.7951 32.1615 51.8311 31.998 51.8311H23.7412C23.1367 51.8311 22.6453 51.3416 22.6453 50.7371C22.6453 50.6086 22.6674 50.4855 22.7078 50.3711ZM20.0629 46.6285C20.2021 46.5643 20.3574 46.5283 20.5207 46.5283H34.068C34.6727 46.5283 35.1639 47.0195 35.1639 47.6242C35.1639 47.7523 35.1416 47.8754 35.1012 47.9898C34.9617 48.0541 34.8068 48.09 34.6434 48.09H21.0959C20.4912 48.09 20 47.5988 20 46.9941C20.0002 46.8658 20.0223 46.743 20.0629 46.6285Z" fill="#4E3D4D"/>
<path fill-rule="evenodd" clip-rule="evenodd" d="M18.3777 21.4396C18.3211 21.4396 18.2832 21.4376 18.2266 21.4339C17.6408 21.3603 17.2062 20.8122 17.282 20.2115C17.8109 15.9886 20.7773 12.4818 24.8586 11.2837C25.4443 11.1119 26.049 11.4423 26.2189 12.0244C26.3889 12.6044 26.0678 13.2148 25.482 13.3847C22.2322 14.3388 19.8703 17.124 19.4547 20.4796C19.3791 21.0351 18.9256 21.4396 18.3777 21.4396Z" fill="#E6BD5C"/>
<path fill-rule="evenodd" clip-rule="evenodd" d="M46.2086 25.486C44.5649 25.486 43.2233 26.8237 43.2233 28.4713C43.2233 30.117 44.5647 31.4567 46.2086 31.4567C47.8524 31.4567 49.194 30.117 49.194 28.4713C49.194 26.8239 47.8526 25.486 46.2086 25.486ZM46.2086 41.5596C45.5663 41.5596 44.9428 41.5143 44.3192 41.4235C43.0344 41.2403 42.1085 40.1614 42.1085 38.8633C42.1085 38.1831 41.7495 37.5502 41.1637 37.21C40.578 36.8737 39.8411 36.8737 39.2553 37.2137C38.1217 37.8637 36.7235 37.5973 35.9299 36.577C35.1364 35.587 34.5129 34.4891 34.0405 33.3196C33.5682 32.1141 34.0215 30.7688 35.1553 30.119C35.7411 29.7827 36.119 29.1497 36.119 28.4713C36.119 27.793 35.7411 27.1583 35.1553 26.8219C34.0215 26.1739 33.5682 24.8266 34.0405 23.6231C34.5129 22.4516 35.1364 21.354 35.9299 20.3639C36.7235 19.3456 38.1217 19.0772 39.2553 19.729C39.8411 20.0672 40.578 20.0692 41.1637 19.7309C41.7495 19.3909 42.1085 18.7579 42.1085 18.0776C42.1085 16.7795 43.0342 15.7006 44.3192 15.5174C45.5663 15.336 46.851 15.3399 48.0792 15.5174C49.3639 15.7008 50.3086 16.7795 50.2897 18.0776C50.2897 18.7579 50.6676 19.3909 51.2534 19.7309C51.8391 20.0672 52.5571 20.0672 53.1618 19.729C54.2766 19.0772 55.6747 19.3454 56.4872 20.3639C57.2618 21.354 57.9042 22.4516 58.3577 23.6231C58.8491 24.8266 58.3766 26.1739 57.2428 26.8219C56.6571 27.162 56.2981 27.793 56.2981 28.4713C56.2981 29.1497 56.6571 29.7827 57.2428 30.119C58.3766 30.769 58.8489 32.1141 58.3577 33.3196C57.9042 34.4891 57.2618 35.587 56.4872 36.579C55.6747 37.5973 54.2764 37.862 53.1618 37.2137C52.5571 36.8737 51.8393 36.8737 51.2534 37.21C50.6676 37.5501 50.2897 38.1831 50.2897 38.8633C50.3086 40.1614 49.3639 41.2403 48.0792 41.4235C47.4557 41.5143 46.8323 41.5596 46.2086 41.5596Z" fill="#E4404D"/>
<path fill-rule="evenodd" clip-rule="evenodd" d="M46.2085 25.4852C45.3946 25.4852 44.6547 25.8133 44.1153 26.3446C43.1335 26.8336 42.4561 27.8477 42.4561 29.0184C42.4561 30.6641 43.7975 32.0038 45.4415 32.0038C46.2551 32.0038 46.9946 31.6754 47.534 31.1444C48.5161 30.6549 49.1936 29.6403 49.1936 28.4708C49.1938 26.8231 47.8524 25.4852 46.2085 25.4852ZM36.109 20.1565C36.8458 19.8155 37.7268 19.8379 38.4883 20.276C39.0741 20.6143 39.811 20.6163 40.3967 20.278C40.5887 20.1665 40.7563 20.0235 40.895 19.8579C40.9874 19.8227 41.0772 19.7801 41.1637 19.7301C41.7495 19.3901 42.1085 18.7571 42.1085 18.0768C42.1085 17.3795 42.3758 16.7456 42.8223 16.2795C43.0479 16.1751 43.2926 16.1014 43.5522 16.0643C44.7993 15.8829 46.084 15.8868 47.3122 16.0643C48.5969 16.2477 49.5417 17.3264 49.5229 18.6245C49.5229 19.3047 49.9008 19.9377 50.4866 20.2778C51.0723 20.6141 51.7903 20.6141 52.3948 20.2758C53.5096 19.6239 54.9079 19.8922 55.7202 20.9108C56.4948 21.9008 57.1374 22.9985 57.5907 24.17C58.0819 25.3735 57.6096 26.7208 56.4758 27.3688C55.8901 27.7088 55.5311 28.3399 55.5311 29.0182C55.5311 29.6965 55.8901 30.3295 56.4758 30.6659C57.6094 31.3159 58.0819 32.6612 57.5907 33.8667C57.1372 35.0362 56.4948 36.134 55.7202 37.126C55.6649 37.1954 55.6067 37.261 55.5462 37.3235C54.8012 37.6723 53.9165 37.652 53.1618 37.2131C52.5571 36.8731 51.8393 36.8731 51.2534 37.2094C51.0602 37.3215 50.8899 37.4657 50.7481 37.6327C50.6586 37.6672 50.5711 37.7086 50.4866 37.7573C49.9008 38.0973 49.5229 38.7303 49.5229 39.4106C49.5331 40.1059 49.2665 40.7383 48.8194 41.204C48.5905 41.3106 48.3419 41.3856 48.0792 41.4231C47.4557 41.5137 46.8321 41.5592 46.2086 41.5592C45.5663 41.5592 44.9428 41.5139 44.3192 41.4231C43.0344 41.2399 42.1085 40.161 42.1085 38.8629C42.1085 38.1827 41.7495 37.5499 41.1637 37.2096C40.578 36.8733 39.8411 36.8733 39.2553 37.2133C38.1217 37.8633 36.7235 37.5969 35.9299 36.5766C35.1364 35.5866 34.5129 34.4887 34.0405 33.3192C33.5682 32.1137 34.0215 30.7684 35.1553 30.1186C35.7411 29.7823 36.119 29.1493 36.119 28.471C36.119 27.7926 35.7411 27.1579 35.1553 26.8215C34.0215 26.1735 33.5682 24.8262 34.0405 23.6227C34.5129 22.4512 35.1364 21.3536 35.9299 20.3635C35.9866 20.2903 36.0465 20.2215 36.109 20.1565Z" fill="#FD4755"/>
</svg>
