<svg width="80" height="80" viewBox="0 0 80 80" fill="none" xmlns="http://www.w3.org/2000/svg">
<g clip-path="url(#clip0_3621_9588)">
<path d="M34.4815 34.481C34.4815 42.8606 27.6887 49.6534 19.3091 49.6534C10.9296 49.6534 4.13672 42.8606 4.13672 34.481C4.13672 26.1014 10.9296 19.3086 19.3091 19.3086C27.6887 19.3086 34.4815 26.1014 34.4815 34.481Z" fill="#DEDEE6"/>
<path d="M31.726 34.4841C31.726 41.3402 26.1684 46.8979 19.3122 46.8979C12.4561 46.8979 6.89844 41.3402 6.89844 34.4841C6.89844 27.628 12.4561 22.0703 19.3122 22.0703C26.1684 22.0703 31.726 27.628 31.726 34.4841Z" fill="#F3F3FB"/>
<path d="M80.0011 15.1724C80.0011 23.552 73.2082 30.3448 64.8287 30.3448C56.4491 30.3448 49.6562 23.552 49.6562 15.1724C49.6562 6.79283 56.4491 0 64.8287 0C73.2082 0 80.0011 6.79283 80.0011 15.1724Z" fill="#DEDEE6"/>
<path d="M77.2416 15.1716C77.2416 22.0277 71.684 27.5854 64.8279 27.5854C57.9717 27.5854 52.4141 22.0277 52.4141 15.1716C52.4141 8.31546 57.9717 2.75781 64.8279 2.75781C71.684 2.75781 77.2416 8.31546 77.2416 15.1716Z" fill="#F3F3FB"/>
<path d="M62.0675 64.8287C62.0675 73.2082 55.2747 80.0011 46.8951 80.0011C38.5155 80.0011 31.7227 73.2082 31.7227 64.8287C31.7227 56.4491 38.5155 49.6562 46.8951 49.6562C55.2747 49.6562 62.0675 56.4491 62.0675 64.8287Z" fill="#DEDEE6"/>
<path d="M59.312 64.8279C59.312 71.684 53.7543 77.2416 46.8982 77.2416C40.042 77.2416 34.4844 71.684 34.4844 64.8279C34.4844 57.9717 40.042 52.4141 46.8982 52.4141C53.7543 52.4141 59.312 57.9717 59.312 64.8279Z" fill="#F3F3FB"/>
<path d="M74.4821 52.4134C72.5512 52.4134 70.8405 51.42 69.8613 49.9033C69.2962 49.0338 68.9648 47.9993 68.9648 46.8961C68.9648 43.8479 71.4339 41.3789 74.4821 41.3789C77.5303 41.3789 79.9993 43.8479 79.9993 46.8961C79.9993 49.9444 77.5303 52.4134 74.4821 52.4134Z" fill="#DEDEE6"/>
<path d="M74.4543 26.9083C71.8338 29.0466 68.4818 30.3431 64.8268 30.3431C63.0063 30.3431 61.268 30.0259 59.6678 29.4467V29.4325C58.0265 28.8533 56.5233 27.9845 55.1992 26.9083C55.544 22.6606 59.1162 19.3086 63.4475 19.3086H66.2061C70.5373 19.3086 74.1095 22.6606 74.4543 26.9083Z" fill="#EE964B"/>
<path d="M70.3431 13.7946C70.3431 16.8415 67.8727 19.3118 64.8258 19.3118C61.779 19.3118 59.3086 16.8415 59.3086 13.7946C59.3086 10.7477 61.779 8.27734 64.8258 8.27734C67.8727 8.27734 70.3431 10.7477 70.3431 13.7946Z" fill="#EE964B"/>
<path d="M46.8974 79.9993C43.2282 79.9993 39.8627 78.7029 37.2422 76.5376C37.6005 72.3027 41.1734 68.9648 45.4904 68.9648H48.2491C52.5803 68.9648 56.1525 72.3168 56.4973 76.5645L56.5114 76.5787C53.8902 78.7163 50.5524 79.9993 46.8974 79.9993Z" fill="#FFCA55"/>
<path d="M52.386 63.4469C52.386 66.4938 49.9157 68.9642 46.8688 68.9642C43.8219 68.9642 41.3516 66.4938 41.3516 63.4469C41.3516 60.4001 43.8219 57.9297 46.8688 57.9297C49.9157 57.9297 52.386 60.4001 52.386 63.4469Z" fill="#FFCA55"/>
<path d="M38.6188 0C41.667 0 44.136 2.46902 44.136 5.51724C44.136 6.19343 44.0121 6.82786 43.7912 7.42053C43.0187 9.53125 40.9915 11.0345 38.6188 11.0345C35.5706 11.0345 33.1016 8.56546 33.1016 5.51724C33.1016 2.46902 35.5706 0 38.6188 0Z" fill="#DEDEE6"/>
<path d="M19.3114 49.6556C16.6356 49.6556 14.1255 48.9659 11.9461 47.7523C11.1319 47.3105 10.3735 46.7865 9.65625 46.1938C10.0145 41.9589 13.5874 38.6211 17.9045 38.6211H20.6631C24.9943 38.6211 28.5665 41.9731 28.9114 46.2208L28.9255 46.2349C26.3043 48.3726 22.9665 49.6556 19.3114 49.6556Z" fill="#5DBCD9"/>
<path d="M24.8001 33.1032C24.8001 36.1501 22.3297 38.6204 19.2829 38.6204C16.236 38.6204 13.7656 36.1501 13.7656 33.1032C13.7656 30.0563 16.236 27.5859 19.2829 27.5859C22.3297 27.5859 24.8001 30.0563 24.8001 33.1032Z" fill="#5DBCD9"/>
<path d="M17.9313 77.2415C14.8831 77.2415 12.4141 74.7725 12.4141 71.7243C12.4141 68.6761 14.8831 66.207 17.9313 66.207C20.5384 66.207 22.7178 68.014 23.297 70.4413C23.3933 70.8555 23.4485 71.2831 23.4485 71.7243C23.4485 74.7725 20.9795 77.2415 17.9313 77.2415Z" fill="#DEDEE6"/>
<path d="M5.51724 53.7932C6.48303 53.7932 7.40706 54.0417 8.19302 54.4963C9.88955 55.4345 11.0345 57.2415 11.0345 59.3105C11.0345 62.3587 8.56546 64.8277 5.51724 64.8277C2.46902 64.8277 0 62.3587 0 59.3105C0 56.2622 2.46902 53.7932 5.51724 53.7932Z" fill="#DEDEE6"/>
<path d="M5.51724 0C8.56546 0 11.0345 2.46902 11.0345 5.51724C11.0345 7.71013 9.75148 9.61409 7.88995 10.4829C7.17268 10.8412 6.35843 11.0345 5.51724 11.0345C2.46902 11.0345 0 8.56546 0 5.51724C0 2.46902 2.46902 0 5.51724 0Z" fill="#DEDEE6"/>
<path d="M6.64453 11.076L9.13578 9.89062L14.0321 20.1802L11.5408 21.3656L6.64453 11.076Z" fill="#45639C"/>
<path d="M6.98438 53.825L10.7364 47.082L13.1468 48.423L9.3948 55.1666L6.98438 53.825Z" fill="#45639C"/>
<path d="M43.3164 8.71457L44.2721 6.125L51.0717 8.63578L50.116 11.2254L43.3164 8.71457Z" fill="#45639C"/>
<path d="M50.7617 50.0838L58.3675 28.9766L60.9617 29.9107L53.356 51.0186L50.7617 50.0838Z" fill="#45639C"/>
<path d="M58.8594 55.4081L69.1106 48.75L70.6138 51.0648L60.3633 57.7229L58.8594 55.4081Z" fill="#45639C"/>
<path d="M28.4961 46.6406L30.5381 44.7852L37.7101 52.6765L35.6688 54.5319L28.4961 46.6406Z" fill="#45639C"/>
<path d="M22.9766 69.0993L31.8175 67L32.4539 69.6825L23.6137 71.7818L22.9766 69.0993Z" fill="#45639C"/>
<path d="M32.7461 27.2782L50.3215 19.832L51.3978 22.3724L33.8223 29.8179L32.7461 27.2782Z" fill="#45639C"/>
</g>
<defs>
<clipPath id="clip0_3621_9588">
<rect width="80" height="80" fill="white"/>
</clipPath>
</defs>
</svg>
