<svg width="100" height="100" viewBox="0 0 100 100" fill="none" xmlns="http://www.w3.org/2000/svg">
<path d="M15.6903 54.6385C16.173 55.2605 15.7274 56.1516 14.9477 56.1516H7.24361C6.46389 56.1516 6.01837 55.2605 6.50105 54.6478L10.3531 49.6541C10.7244 49.1622 11.4576 49.1622 11.8382 49.6541L15.6903 54.6385Z" fill="#7B94F2"/>
<path d="M81.1229 52.9794C81.1229 70.2236 67.1451 84.2011 49.901 84.2011H49.5756C44.5001 84.149 39.6979 82.8736 35.4812 80.6612C31.3688 78.5268 27.8155 75.5074 25.0306 71.8373C21.0481 66.6056 18.6797 60.0593 18.6797 52.9794C18.6797 41.6048 24.7573 31.6488 33.8414 26.2087C34.9083 25.571 36.0277 24.9854 37.1732 24.4778C39.0472 23.6319 41.0124 22.9681 43.0557 22.5256C45.2551 22.0181 47.5456 21.7578 49.901 21.7578C54.7166 21.7578 59.2847 22.851 63.3711 24.8162C67.731 26.8985 71.5311 29.9699 74.4724 33.7441C75.1231 34.551 75.7087 35.3839 76.2552 36.2559C77.3876 38.0389 78.3507 39.9389 79.1056 41.9302C80.4071 45.366 81.1229 49.0881 81.1229 52.9794Z" fill="#BBCCFF"/>
<path d="M79.2623 43.2201C79.0151 44.0791 77.6615 43.2201 77.1541 42.9989C76.4252 42.6865 75.0456 42.2701 74.5252 41.6584C75.1108 42.3351 75.6964 43.0119 76.2819 43.6887C76.8939 44.3914 77.5446 45.2503 77.3492 46.1614C77.1932 46.9423 76.3862 47.5019 75.5791 47.5149C74.7724 47.5279 74.0044 47.0724 73.497 46.4477C72.9896 45.836 72.703 45.0552 72.5079 44.2743C72.2216 43.1291 72.1174 41.9577 71.8441 40.8124C71.5709 39.6802 71.1022 38.5349 70.2434 37.7411C69.918 37.4547 69.5405 37.2074 69.3064 36.8431C69.0719 36.4786 69.0331 35.932 69.3715 35.6587C69.6708 35.3985 70.1131 35.4766 70.5036 35.4635C70.8941 35.4505 71.3755 35.2032 71.3106 34.8128C71.2716 34.5134 70.9202 34.3573 70.6078 34.3183C69.2673 34.123 67.8486 35.034 67.4584 36.3485C67.3282 36.817 67.237 37.4157 66.7686 37.5719C66.4042 37.702 66.0137 37.4547 65.7925 37.1424C65.5841 36.817 65.4929 36.4396 65.3369 36.0882C64.6862 34.6956 63.0203 34.084 61.4847 33.9929C59.9491 33.9018 58.4001 34.1621 56.8906 33.8757C55.381 33.5895 53.8451 32.5092 53.7542 30.9735C53.6891 29.8933 54.3919 28.8652 55.2898 28.2535C56.1877 27.6418 57.268 27.3555 58.3223 27.0822C59.3762 26.8219 60.4565 26.5486 61.3805 25.963C61.8882 25.6376 62.3305 25.2212 62.8773 24.9478C63.0333 24.8698 63.2027 24.8047 63.3717 24.7656C67.7317 26.848 71.5318 29.9194 74.4731 33.6936C73.7963 33.9538 73.2237 34.4874 72.9505 35.1641C72.8202 35.5025 72.7551 35.88 72.8723 36.2313C72.9762 36.5697 73.2889 36.869 73.653 36.869C73.9656 36.8821 74.2519 36.6739 74.5382 36.5177C75.0587 36.2183 75.6703 36.1273 76.2559 36.2054C77.3883 37.9883 78.3513 39.8884 79.1063 41.8796C79.0933 41.9186 79.1063 41.9577 79.1063 41.9967C79.1454 42.3742 79.3795 42.8557 79.2623 43.2201Z" fill="#98A2F5"/>
<path d="M59.7969 51.1315C58.6074 50.3521 56.986 50.9249 55.5803 51.1401C54.1745 51.3553 52.6305 51.4662 51.4342 50.6972C50.0443 49.8038 49.5573 47.9678 49.66 46.3187C49.7626 44.6696 50.3307 43.0851 50.5596 41.4487C50.7886 39.8123 50.6096 37.9787 49.4607 36.7913C48.6064 35.9084 47.2278 35.3558 47.0094 34.1468C46.7734 32.8401 48.2523 31.7306 49.5745 31.853C50.8967 31.9755 51.988 32.9149 52.8981 33.8817C53.8082 34.8486 54.6808 35.9217 55.8931 36.4635C58.3578 37.5652 61.6764 36.2342 63.6923 38.0301C64.4889 38.7397 64.8873 39.8105 65.6705 40.5349C66.5118 41.313 67.681 41.5948 68.77 41.9512C69.8591 42.3077 71.0021 42.8439 71.5061 43.8731C71.8922 44.6616 71.8251 45.5836 71.8856 46.4594C71.9462 47.3353 72.2194 48.3075 72.9922 48.7242C73.9501 49.2407 75.3476 48.7181 76.0907 49.5131C76.7329 50.2002 76.3339 51.3689 75.6431 52.007C74.9522 52.6451 74.0341 53.0038 73.371 53.6707C72.2017 54.8469 72.0786 56.6945 72.2222 58.3469C72.3659 59.9992 72.6985 61.7054 72.1901 63.2841C71.5182 65.3701 69.2778 66.8295 67.0982 66.6009C64.9186 66.3723 63.0297 64.4798 62.8053 62.2998C62.6119 60.4216 63.7251 53.7055 59.7969 51.1315Z" fill="#98A2F5"/>
<path d="M43.0544 22.5273C42.4685 23.3994 42.0783 24.3755 41.935 25.4166C41.7917 26.4577 41.779 27.7331 40.8678 28.2407C40.1262 28.6572 39.1628 28.2668 38.6163 27.6291C38.0698 26.9783 37.8226 26.1454 37.536 25.3515C37.4321 25.0521 37.3149 24.7659 37.1719 24.4795C39.0459 23.6336 41.0111 22.9699 43.0544 22.5273Z" fill="#6675E9"/>
<path d="M43.1596 59.485C42.7952 61.2159 42.3008 63.116 40.8042 64.04C39.7239 64.6907 38.2013 64.7949 37.5894 65.9011C36.9908 66.9813 37.6676 68.4389 37.0559 69.5322C36.3531 70.7945 34.2189 71.0157 34.0365 72.4474C33.9195 73.4104 34.8435 74.4126 34.3879 75.2715C34.0365 75.9352 33.0213 75.9612 32.4227 75.5188C31.8241 75.0633 31.5378 74.3215 31.3036 73.6056C31.0822 72.8768 30.848 72.122 30.3145 71.6014C29.4423 70.7425 28.024 70.7685 26.8655 71.1199C26.2408 71.3151 25.6422 71.5884 25.0306 71.8357C21.0481 66.6039 18.6797 60.0576 18.6797 52.9777C18.6797 41.6031 24.7573 31.6471 33.8414 26.207C33.8935 26.2331 33.9456 26.2591 33.9844 26.2981C34.4921 26.7536 34.2837 27.6777 34.9604 28.1722C35.4291 28.5236 36.1059 28.7318 36.2492 29.2914C36.4182 29.9422 35.7675 30.6059 35.9626 31.2436C36.158 31.8943 37.1601 32.2197 37.0559 32.8965C36.9777 33.4431 36.184 33.5732 35.6893 33.3389C35.1819 33.0917 34.8044 32.6231 34.271 32.428C33.6463 32.2067 32.8783 32.441 32.4878 33.0006C32.1104 33.5472 33.0083 34.3541 32.579 34.8617C31.8762 35.6946 30.1061 34.3021 29.13 34.7966C27.8416 35.4343 27.1257 37.2954 28.05 38.4016C28.6877 39.1825 29.898 39.4037 30.3927 40.2887C31.0173 41.4209 30.2103 42.7224 29.8198 43.7635C29.3515 45.0259 29.3772 46.4315 30.054 47.6158C30.7698 48.8652 32.0452 49.6721 33.2688 50.4269C35.3249 51.7024 37.4073 52.9908 39.6849 53.7977C40.9081 54.2402 42.3008 54.6176 42.9906 55.7238C43.6804 56.817 43.4329 58.2226 43.1596 59.485Z" fill="#98A2F5"/>
<path d="M49.5761 84.1993C44.5006 84.1473 39.6983 82.8719 35.4817 80.6594C35.4686 80.4252 35.4817 80.1909 35.5077 79.9566C35.6637 78.5901 36.6528 77.2106 38.0325 77.1064C39.2427 77.0284 40.2839 77.9004 41.1558 78.7333C42.041 79.5662 43.0301 80.4642 44.2404 80.4642C45.0601 80.4642 45.802 80.0477 46.57 79.7614C47.3377 79.4881 48.288 79.371 48.9127 79.9046C49.381 80.308 49.5373 80.9848 49.5373 81.6095C49.5373 82.2472 49.4071 82.8719 49.4461 83.4966C49.4592 83.7308 49.5113 83.9651 49.5761 84.1993Z" fill="#98A2F5"/>
<path d="M42.683 24.3506C42.683 30.0532 40.1143 35.1546 36.0711 38.5555C35.1361 39.3417 34.124 40.0403 33.0451 40.6311C32.4646 40.9497 31.8635 41.2424 31.247 41.4993C31.2162 41.5096 31.1905 41.5199 31.1597 41.5353C31.0056 41.597 30.8514 41.6586 30.6973 41.7151C28.6526 42.4909 26.4333 42.9174 24.1214 42.9174C21.7787 42.9174 19.5388 42.4806 17.4736 41.6894C17.3194 41.633 17.1653 41.5713 17.0112 41.5046C16.9855 41.4943 16.9547 41.484 16.9238 41.4737C16.256 41.186 15.6035 40.8674 14.9716 40.5078C14.0571 39.9889 13.1941 39.393 12.3875 38.7354C8.21588 35.3344 5.55469 30.1508 5.55469 24.3506C5.55469 14.1014 13.8671 5.78906 24.1214 5.78906C34.3706 5.78906 42.683 14.1014 42.683 24.3506Z" fill="#E8EFFF"/>
<path d="M33.5544 27.6124L33.0458 40.6306C32.4652 40.9491 31.8641 41.2419 31.2476 41.4988C31.2168 41.509 31.1911 41.5193 31.1603 41.5347C31.0062 41.5965 30.8521 41.658 30.6979 41.7146C28.6532 42.4904 26.4339 42.9168 24.122 42.9168C21.7793 42.9168 19.5394 42.4801 17.4742 41.6889C17.3201 41.6325 17.1659 41.5707 17.0118 41.504C16.9861 41.4937 16.9553 41.4834 16.9245 41.4732C16.2566 41.1854 15.6041 40.8669 14.9722 40.5073L14.4688 27.6124C14.4688 26.667 15.2137 25.8913 16.1538 25.8451C16.1847 25.8398 16.2155 25.8398 16.2463 25.8398H31.7819C31.8128 25.8398 31.8436 25.8398 31.8744 25.8451C32.8094 25.8913 33.5544 26.667 33.5544 27.6124Z" fill="#FF7581"/>
<path d="M31.7627 31.5054L31.2489 41.4976C31.2181 41.5079 31.1924 41.5182 31.1616 41.5336C31.0075 41.5953 30.8533 41.6569 30.6992 41.7135L31.2181 31.5054C31.2181 31.3564 31.3414 31.2383 31.4955 31.2383C31.5058 31.2383 31.5161 31.2383 31.5263 31.2433C31.6548 31.2536 31.7627 31.3667 31.7627 31.5054Z" fill="#F26678"/>
<path d="M17.4724 41.6878C17.3183 41.6313 17.1641 41.5696 17.01 41.5029C16.9843 41.4926 16.9535 41.4823 16.9227 41.472L16.4141 31.5054C16.4141 31.3667 16.5168 31.2536 16.6504 31.2433C16.6606 31.2383 16.6709 31.2383 16.6812 31.2383C16.8353 31.2383 16.9535 31.3564 16.9535 31.5054L17.4724 41.6878Z" fill="#F26678"/>
<path d="M36.0715 38.5536C35.1365 39.3398 34.1244 40.0384 33.0456 40.6292C32.4651 40.9478 31.864 41.2405 31.2475 41.4974C31.2167 41.5077 31.191 41.518 31.1602 41.5334L31.5249 31.2431L31.715 25.8438H32.1363C34.3762 25.8438 36.1897 27.6572 36.1897 29.8971C36.3284 32.3271 36.2205 35.6973 36.0715 38.5536Z" fill="#FF7581"/>
<path d="M17.0127 41.5027C16.987 41.4924 16.9562 41.4821 16.9254 41.4718C16.2575 41.1841 15.605 40.8655 14.9731 40.5059C14.0587 39.987 13.1956 39.3911 12.389 38.7335L11.9883 29.8971C11.9883 27.6572 13.8018 25.8438 16.0417 25.8438H16.463L16.6531 31.2431L17.0127 41.5027Z" fill="#FF7581"/>
<path d="M29.7988 24.9656C30.8251 24.9656 31.6572 24.1336 31.6572 23.1073V15.6249C31.6572 13.6482 30.8556 11.8615 29.5648 10.5639C28.159 9.15825 26.1788 8.33438 24.0047 8.4818C20.213 8.73892 17.3438 12.0445 17.3438 15.845V23.1073C17.3438 24.1336 18.1758 24.9656 19.2021 24.9656H29.7988Z" fill="#373754"/>
<path d="M27.642 25.8438L24.4977 32.2374L21.3594 25.8438H27.642Z" fill="#F26678"/>
<path d="M22.0078 22.2266H26.9925V25.8432H22.0078V22.2266Z" fill="#FDC7B4"/>
<path d="M26.9897 25.8438L24.4958 31.0984L22.0078 25.8438H26.9897Z" fill="#FDC7B4"/>
<path d="M26.9923 22.2266V24.8181C25.2274 24.9011 23.5743 24.4788 22.0078 23.6342V22.2266H26.9923Z" fill="#EFB5A3"/>
<path d="M29.5596 18.7016C30.2592 18.7016 30.8263 18.04 30.8263 17.2239C30.8263 16.4077 30.2592 15.7461 29.5596 15.7461C28.8601 15.7461 28.293 16.4077 28.293 17.2239C28.293 18.04 28.8601 18.7016 29.5596 18.7016Z" fill="#FDC7B4"/>
<path d="M30.0675 17.8902C30.038 17.8902 30.0088 17.8782 29.9876 17.8544C29.9489 17.8103 29.9526 17.7429 29.9968 17.7038C30.1487 17.5693 30.2323 17.3991 30.2323 17.2243C30.2323 17.0491 30.1487 16.8789 29.9972 16.7449C29.9531 16.7058 29.9489 16.6388 29.9876 16.5947C30.0267 16.5505 30.0946 16.5464 30.1378 16.5851C30.3364 16.7603 30.4454 16.9871 30.4454 17.2243C30.4454 17.4611 30.3364 17.688 30.1383 17.8636C30.1179 17.8815 30.0925 17.8902 30.0675 17.8902Z" fill="#EFB5A3"/>
<path d="M19.5128 18.7016C20.2123 18.7016 20.7794 18.04 20.7794 17.2239C20.7794 16.4077 20.2123 15.7461 19.5128 15.7461C18.8132 15.7461 18.2461 16.4077 18.2461 17.2239C18.2461 18.04 18.8132 18.7016 19.5128 18.7016Z" fill="#FDC7B4"/>
<path d="M19.0068 17.8902C19.0363 17.8902 19.0655 17.8782 19.0867 17.8544C19.1254 17.8103 19.1217 17.7429 19.0775 17.7038C18.9256 17.5693 18.842 17.3991 18.842 17.2243C18.842 17.0491 18.9256 16.8789 19.0771 16.7449C19.1212 16.7058 19.1254 16.6388 19.0867 16.5947C19.0476 16.5505 18.9797 16.5464 18.9365 16.5851C18.7379 16.7603 18.6289 16.9871 18.6289 17.2243C18.6289 17.4611 18.7379 17.688 18.936 17.8636C18.9564 17.8815 18.9818 17.8902 19.0068 17.8902Z" fill="#EFB5A3"/>
<path d="M29.7291 15.6126V18.3318C29.7291 21.2224 27.3845 23.5616 24.4993 23.5616C21.6087 23.5616 19.2695 21.2224 19.2695 18.3318V15.6126C19.2695 12.722 21.6087 10.3828 24.4993 10.3828C25.9446 10.3828 27.2507 10.9662 28.1981 11.9137C29.1456 12.8611 29.7291 14.1672 29.7291 15.6126Z" fill="#FDC7B4"/>
<path d="M22.9066 16.8745C22.9066 17.2376 22.7073 17.5298 22.4594 17.5298C22.2115 17.5298 22.0078 17.2376 22.0078 16.8745C22.0078 16.5115 22.2115 16.2148 22.4594 16.2148C22.7073 16.2148 22.9066 16.5115 22.9066 16.8745Z" fill="#333333"/>
<path d="M26.9886 16.8745C26.9886 17.2376 26.7894 17.5298 26.5414 17.5298C26.2935 17.5298 26.0898 17.2376 26.0898 16.8745C26.0898 16.5115 26.2935 16.2148 26.5414 16.2148C26.7894 16.2148 26.9886 16.5115 26.9886 16.8745Z" fill="#333333"/>
<path d="M22.6759 19.6953C22.6748 19.722 22.668 19.747 22.668 19.7739C22.668 20.7863 23.4887 21.607 24.501 21.607C25.5134 21.607 26.3341 20.7863 26.3341 19.7739C26.3341 19.747 26.3274 19.722 26.3262 19.6953H22.6759Z" fill="white"/>
<path d="M24.6763 14.7135C23.7263 14.9929 20.0395 15.8978 19.2798 15.7859C18.846 15.722 18.4648 15.5555 18.2188 15.3096C17.5358 14.6267 18.1319 13.5958 19.1315 12.59C19.2309 12.4906 19.3302 12.3975 19.4296 12.3107C19.2557 10.9756 20.9384 10.0318 23.1302 9.39224C25.4524 8.71555 27.4828 8.63475 27.905 10.1064C28.3335 11.5779 27.0047 14.0367 24.6763 14.7135Z" fill="#373754"/>
<path d="M30.8285 15.2764C30.1478 15.9572 28.4494 16.0289 27.4462 15.0257C26.4429 14.0224 26.5147 12.3241 27.1954 11.6433C27.8762 10.9626 28.9081 11.5572 29.9114 12.5604C30.9147 13.5637 31.5093 14.5957 30.8285 15.2764Z" fill="#373754"/>
<path d="M94.4447 75.6417C94.4447 81.0022 92.1762 85.828 88.5501 89.2002C87.5166 90.1813 86.3692 91.0309 85.1342 91.7402C85.1079 91.7577 85.0816 91.7753 85.0466 91.784C84.8189 91.9241 84.5911 92.0468 84.3546 92.1606C83.3036 92.7125 82.1912 93.1592 81.0263 93.4834C80.203 93.7284 79.3534 93.9038 78.4863 94.0263C77.6367 94.1488 76.7696 94.2102 75.8849 94.2102H75.8236C74.0544 94.2014 72.3464 93.9562 70.7348 93.4834C70.2969 93.3606 69.8589 93.2206 69.4385 93.054C69.2283 92.9841 69.0268 92.9052 68.8254 92.8265L68.8166 92.8175C68.7816 92.8089 68.7466 92.7914 68.7115 92.7826C67.4941 92.2658 66.3467 91.6352 65.2781 90.8819C60.4696 87.5362 57.3164 81.9567 57.3164 75.6417C57.3164 65.3853 65.6285 57.082 75.8849 57.082C86.1327 57.082 94.4447 65.3853 94.4447 75.6417Z" fill="#E8EFFF"/>
<path d="M83.6379 63.3856C84.1533 64.7889 83.103 67.8932 81.7083 68.5405C80.6397 69.0364 79.3153 67.7823 78.9188 66.2082C78.5214 64.6305 79.1275 63.117 80.2699 62.8293C81.4147 62.5409 83.077 61.8583 83.6379 63.3856Z" fill="#34324C"/>
<path d="M74.9572 64.8049C75.3537 66.3791 74.7476 67.8925 73.6028 68.1809C72.4604 68.4686 71.2098 67.4228 70.8133 65.8486C70.416 64.2709 71.022 62.7574 72.1644 62.4697C73.3092 62.1813 74.5598 63.2272 74.9572 64.8049Z" fill="#34324C"/>
<path d="M85.1336 91.7132V91.7393C85.1073 91.7568 85.081 91.7743 85.046 91.7831C84.8183 91.9232 84.5905 92.0459 84.354 92.1597C83.303 92.7116 82.1906 93.1583 81.0257 93.4824C80.2024 93.7275 79.3528 93.9028 78.4857 94.0254C77.6361 94.1479 76.769 94.2093 75.8843 94.2093H75.823C74.0538 94.2005 72.3458 93.9552 70.7342 93.4824C70.2963 93.3597 69.8583 93.2196 69.4379 93.0531C69.2277 92.9831 69.0262 92.9042 68.8248 92.8255L68.816 92.8166C68.781 92.808 68.746 92.7905 68.7109 92.7817L69.4555 75.0977H84.4416L85.1336 91.7132Z" fill="#FDDF8C"/>
<path d="M79.1829 89.0476L77.0918 91.0699L75.0039 89.0476L76.5667 75.75H77.6201L79.1829 89.0476Z" fill="#6675E9"/>
<path d="M77.0898 91.0699L78.5839 88.6225L77.0898 75.75H77.6181L79.1809 89.0476L77.0898 91.0699Z" fill="#4C4EE1"/>
<path d="M79.1662 75.1016L77.1202 77.1476L75.0742 75.1016H79.1662Z" fill="#6675E9"/>
<path d="M74.9474 75.0977H77.1225L74.7773 76.396L74.9474 75.0977Z" fill="#F2CF77"/>
<path d="M79.4662 76.396L77.4687 75.2901L77.1211 75.0977H79.2939L79.4662 76.396Z" fill="#F2CF77"/>
<path d="M74.9609 71.9688H79.2776V75.1007H74.9609V71.9688Z" fill="#FDC7B4"/>
<path d="M79.2774 71.9688V74.2129C77.749 74.2848 76.3175 73.9191 74.9609 73.1878V71.9688H79.2774Z" fill="#EFB5A3"/>
<path d="M81.3315 69.4271C81.9137 69.4271 82.3857 68.8768 82.3857 68.1979C82.3857 67.5191 81.9137 66.9688 81.3315 66.9688C80.7493 66.9688 80.2773 67.5191 80.2773 68.1979C80.2773 68.8768 80.7493 69.4271 81.3315 69.4271Z" fill="#FDC7B4"/>
<path d="M81.7527 68.7526C81.7282 68.7526 81.7039 68.7426 81.6863 68.7228C81.654 68.6861 81.6572 68.63 81.6939 68.5975C81.8203 68.4856 81.8899 68.344 81.8899 68.1985C81.8899 68.0527 81.8203 67.9111 81.6942 67.7996C81.6575 67.767 81.654 67.7112 81.6863 67.6745C81.7188 67.6378 81.7753 67.6344 81.8113 67.6666C81.9765 67.8124 82.0672 68.0011 82.0672 68.1985C82.0672 68.3956 81.9765 68.5843 81.8116 68.7305C81.7947 68.7453 81.7735 68.7526 81.7527 68.7526Z" fill="#EFB5A3"/>
<path d="M72.9721 69.4271C73.5543 69.4271 74.0263 68.8768 74.0263 68.1979C74.0263 67.5191 73.5543 66.9688 72.9721 66.9688C72.3899 66.9688 71.918 67.5191 71.918 68.1979C71.918 68.8768 72.3899 69.4271 72.9721 69.4271Z" fill="#FDC7B4"/>
<path d="M72.5527 68.7526C72.5773 68.7526 72.6016 68.7426 72.6192 68.7228C72.6514 68.6861 72.6483 68.63 72.6116 68.5975C72.4852 68.4856 72.4156 68.344 72.4156 68.1985C72.4156 68.0527 72.4852 67.9111 72.6113 67.7996C72.648 67.767 72.6514 67.7112 72.6192 67.6745C72.5867 67.6378 72.5302 67.6344 72.4942 67.6666C72.329 67.8124 72.2383 68.0011 72.2383 68.1985C72.2383 68.3956 72.329 68.5843 72.4939 68.7305C72.5108 68.7453 72.532 68.7526 72.5527 68.7526Z" fill="#EFB5A3"/>
<path d="M81.4707 66.8567V69.1212C81.4707 71.5226 79.5272 73.474 77.1261 73.474C74.7169 73.474 72.7734 71.5226 72.7734 69.1212V66.8567C72.7734 64.4475 74.7169 62.5039 77.1261 62.5039C78.3226 62.5039 79.4148 62.9939 80.2018 63.7809C80.9888 64.5679 81.4707 65.6521 81.4707 66.8567Z" fill="#FDC7B4"/>
<path d="M75.7948 67.9044C75.7948 68.2065 75.629 68.4497 75.4227 68.4497C75.2163 68.4497 75.0469 68.2065 75.0469 67.9044C75.0469 67.6023 75.2163 67.3555 75.4227 67.3555C75.629 67.3555 75.7948 67.6023 75.7948 67.9044Z" fill="#333333"/>
<path d="M79.1932 67.9044C79.1932 68.2065 79.0274 68.4497 78.8211 68.4497C78.6148 68.4497 78.4453 68.2065 78.4453 67.9044C78.4453 67.6023 78.6148 67.3555 78.8211 67.3555C79.0274 67.3555 79.1932 67.6023 79.1932 67.9044Z" fill="#333333"/>
<path d="M75.6043 70.2539C75.6033 70.2761 75.5977 70.2969 75.5977 70.3193C75.5977 71.1617 76.2806 71.8447 77.123 71.8447C77.9654 71.8447 78.6484 71.1617 78.6484 70.3193C78.6484 70.2969 78.6427 70.2761 78.6418 70.2539H75.6043Z" fill="white"/>
<path d="M71.1797 63.3985C71.1797 60.601 71.9327 59 75.2295 59C78.5263 59 81.1989 61.2678 81.1989 64.0654C81.1989 66.8629 71.1797 66.196 71.1797 63.3985Z" fill="#34324C"/>
<path d="M77.3518 61.7168C78.8888 60.1798 81.2798 60.0754 82.6882 61.4839C84.0967 62.8924 83.9895 65.2805 82.4524 66.8175C80.9154 68.3545 75.8147 63.2538 77.3518 61.7168Z" fill="#34324C"/>
<path d="M88.5493 89.2032C87.5157 90.1843 86.3683 91.0339 85.1333 91.7432C85.1071 91.7607 85.0808 91.7782 85.0458 91.787L84.9319 88.634L84.4414 75.1016C85.4486 75.1016 86.3683 75.5134 87.0252 76.1703C87.6822 76.8358 88.0938 77.7467 88.0938 78.7629L88.5493 89.2032Z" fill="#FDDF8C"/>
<path d="M85.1344 91.7161V91.7422C85.1082 91.7598 85.0819 91.7773 85.0469 91.7861C84.8191 91.9261 84.5914 92.0489 84.3549 92.1626L83.6367 81.0391H84.4425L84.933 88.633L85.1344 91.7161Z" fill="#F2CF77"/>
<path d="M69.464 75.1016L68.8159 92.8205C68.7808 92.8119 68.7458 92.7944 68.7108 92.7856C67.4933 92.2688 66.3459 91.6382 65.2773 90.8848L65.8116 78.7629C65.8116 77.7467 66.2233 76.8358 66.8802 76.1703C67.5458 75.5134 68.448 75.1016 69.4553 75.1016H69.464Z" fill="#FDDF8C"/>
<path d="M70.2694 81.0391L69.4373 93.056C69.2271 92.9861 69.0257 92.9072 68.8242 92.8285L69.4724 81.0391H70.2694Z" fill="#F2CF77"/>
<path d="M49.9 92.713C27.9915 92.713 10.168 74.8894 10.168 52.9805H12.0244C12.0244 73.8651 29.0154 90.8566 49.9 90.8566V92.713Z" fill="#7B94F2"/>
<path d="M89.631 52.9786H87.7745C87.7745 32.094 70.7835 15.1025 49.8984 15.1025V13.2461C71.8069 13.2461 89.631 31.0697 89.631 52.9786Z" fill="#7B94F2"/>
<path d="M93.1044 50.7968L89.2523 55.7904C88.881 56.2731 88.1477 56.2731 87.7672 55.7904L83.9151 50.7968C83.4325 50.184 83.878 49.293 84.6576 49.293H92.3618C93.1415 49.293 93.587 50.184 93.1044 50.7968Z" fill="#7B94F2"/>
<path d="M49.9011 65.6929C56.9205 65.6929 62.6109 60.0025 62.6109 52.9832C62.6109 45.9638 56.9205 40.2734 49.9011 40.2734C42.8817 40.2734 37.1914 45.9638 37.1914 52.9832C37.1914 60.0025 42.8817 65.6929 49.9011 65.6929Z" fill="white"/>
<path d="M56.7794 51.4531V56.6105C56.7794 56.8601 56.5483 57.0589 56.3032 57.008C53.8854 56.4995 52.124 57.3132 50.7278 58.848C50.5753 59.0191 50.2979 59.0191 50.1453 58.848C48.7445 57.3132 46.9832 56.4995 44.5698 57.008C44.3249 57.0589 44.0938 56.8601 44.0938 56.6105V51.4531H56.7794Z" fill="#382F93"/>
<path d="M40.6186 56.0222C40.3633 56.0222 40.1562 55.8154 40.1562 55.5599V49.4623C40.1562 49.2068 40.3633 49 40.6186 49C40.8739 49 41.0809 49.2068 41.0809 49.4623V55.5599C41.0809 55.8154 40.8739 56.0222 40.6186 56.0222Z" fill="#4B39A8"/>
<path d="M42.1062 55.1583L40.8684 56.8702C40.745 57.0409 40.4907 57.0409 40.3673 56.8702L39.1295 55.1583C38.9817 54.9538 39.1277 54.668 39.38 54.668H41.8557C42.108 54.668 42.254 54.9538 42.1062 55.1583Z" fill="#4B39A8"/>
<path d="M60.3234 50.1269L50.7031 54.3189C50.5313 54.3938 50.336 54.3938 50.1641 54.3189L40.5495 50.1269C40.0095 49.8914 40.0096 49.1255 40.5496 48.8902L50.1642 44.7007C50.336 44.6258 50.5312 44.6258 50.703 44.7006L60.3232 48.8901C60.8634 49.1254 60.8635 49.8915 60.3234 50.1269Z" fill="#4B39A8"/>
</svg>
