<svg width="100" height="100" viewBox="0 0 100 100" fill="none" xmlns="http://www.w3.org/2000/svg">
<path d="M64.7549 9.37706L54.6993 3.07891L51.8053 0.291948C51.1471 -0.342047 50.0502 0.124563 50.0502 1.03844V2.85136C25.6408 2.87949 5.5766 21.4556 3.19336 45.2439L15.2168 44.681C16.535 28.5172 29.8749 13.9592 52.7782 13.35L59.1146 12.5916L64.6875 10.9294C65.1723 10.5376 65.2039 9.80949 64.7549 9.37706ZM50.1058 2.85058C50.1056 2.85058 50.1055 2.85058 50.1053 2.85058L50.1058 2.85039V2.85058Z" fill="#FFE27A"/>
<path d="M51.7358 18.5524L55.4542 15.548L58.9294 14.1605L59.1124 12.5923C56.2218 11.8161 53.1838 11.3999 50.0482 11.3999C31.3223 11.3999 16.0459 26.1607 15.2148 44.6815L15.6393 44.6616C18.2333 27.9656 32.6808 15.1304 50.1039 15.1304L50.0482 15.15V17.7465C50.0482 18.6176 51.058 19.0998 51.7358 18.5524Z" fill="#F9CF58"/>
<path d="M98.9626 50.0497H97.1978C97.1978 50.0337 97.1983 50.0177 97.1983 50.0016C97.1983 25.5301 78.5551 5.41498 54.6973 3.07959L61.2372 9.37774C61.6862 9.81017 61.6546 10.5383 61.1696 10.9303L59.1124 12.5924L63.9613 16.4954C76.0132 21.9856 84.9192 32.1635 84.9192 46.2711C84.9192 46.9 84.9017 47.5248 84.8688 48.1456C84.9011 48.7604 84.9192 49.3788 84.9192 50.0016C84.9192 50.0177 84.9187 50.0337 84.9187 50.0497H84.8519H82.2553C81.384 50.0497 80.9018 51.0595 81.4493 51.7372L84.487 55.4968L89.0717 62.929C89.4635 63.414 90.1916 63.4456 90.6242 62.9966L96.9706 54.6486L99.7093 51.8048C100.343 51.1466 99.8765 50.0497 98.9626 50.0497Z" fill="#FFBA57"/>
<path d="M59.1114 12.5928L55.4531 15.5487C71.5477 18.0538 83.9979 31.5655 84.8677 48.1459C84.9005 47.5252 84.9181 46.9004 84.9181 46.2715C84.9183 30.1483 73.9749 16.5835 59.1114 12.5928Z" fill="#FFAC3E"/>
<path d="M2.89707 49.9517C2.89707 49.9677 2.89648 49.9837 2.89648 49.9997C2.90527 49.9862 2.89707 49.9677 2.89707 49.9517Z" fill="#8BCAFF"/>
<path d="M1.03826 49.9508H2.86993H2.89922H3.04317C4.3844 73.4311 18.2813 87.8208 36.6769 93.2515L40.7032 92.4906L44.2435 88.7724L44.563 84.4389C27.911 81.8074 15.1779 67.391 15.1779 49.9989C15.1779 49.9829 15.1785 49.9668 15.1785 49.9508H17.7458C18.6171 49.9508 19.0995 48.9411 18.5518 48.2633L10.9294 38.8294C10.5376 38.3444 9.80949 38.3128 9.37706 38.7618L0.291954 48.1957C-0.34204 48.8539 0.124569 49.9508 1.03826 49.9508Z" fill="#8BCAFF"/>
<path d="M40.701 92.4919C20.3079 88.3911 4.67776 71.1332 3.04102 49.9521H2.89707C2.89707 49.9682 2.89648 49.9842 2.89648 50.0002C2.89648 74.4356 21.4845 94.5287 45.2917 96.9127L44.8487 94.7933L40.701 92.4919Z" fill="#6CC4FF"/>
<path d="M72.1716 47.163L68.2284 46.5702C67.7489 44.0134 66.7438 41.642 65.3288 39.5727L67.6985 36.3644C68.1134 35.8029 68.055 35.0222 67.5614 34.5286L65.5204 32.4878C65.0268 31.994 64.2461 31.9358 63.6846 32.3507L60.4763 34.7204C58.407 33.3054 56.0356 32.3003 53.4788 31.8208L52.886 27.8778C52.7823 27.1873 52.1891 26.6768 51.4908 26.6768H48.6045C47.9064 26.6768 47.3132 27.1875 47.2093 27.8778L46.6165 31.8208C44.0595 32.3003 41.6883 33.3056 39.619 34.7204L36.4105 32.3507C35.849 31.9358 35.0685 31.9942 34.5747 32.4878L32.5337 34.5286C32.0399 35.0224 31.9817 35.8029 32.3964 36.3644L34.7663 39.5727C33.3513 41.642 32.3462 44.0134 31.8667 46.5702L27.9237 47.163C27.2332 47.2667 26.7227 47.8599 26.7227 48.5582V51.4445C26.7227 52.1428 27.2332 52.736 27.9237 52.8397L31.8667 53.4325C32.3462 55.9893 33.3515 58.3607 34.7663 60.43L32.3964 63.6383C31.9815 64.1998 32.0399 64.9805 32.5337 65.4741L34.5747 67.5151C35.0685 68.0089 35.849 68.0671 36.4105 67.6522L39.619 65.2825C41.6883 66.6975 44.0597 67.7026 46.6165 68.1821L47.2093 72.1252C47.313 72.8156 47.9062 73.3261 48.6045 73.3261H51.4908C52.1891 73.3261 52.7823 72.8154 52.886 72.1252L53.4788 68.1821C56.0356 67.7024 58.407 66.6973 60.4763 65.2825L63.6848 67.6522C64.2463 68.0671 65.027 68.0087 65.5206 67.5151L67.5616 65.4741C68.0552 64.9803 68.1136 64.1998 67.6987 63.6383L65.3289 60.43C66.744 58.3607 67.7491 55.9893 68.2286 53.4325L72.1718 52.8397C72.8623 52.736 73.3728 52.1428 73.3728 51.4445V48.5582C73.3726 47.8599 72.8621 47.2669 72.1716 47.163ZM59.1103 53.7319C57.8974 58.6847 53.8745 61.2429 50.0476 61.2429C45.8937 61.2429 42.1749 58.7507 41.0514 53.7319L40.8983 51.8666C40.776 51.2639 40.7116 50.6402 40.7116 50.0014C40.7116 44.8452 44.8915 40.6653 50.0478 40.6653C55.204 40.6653 59.3839 44.8452 59.3839 50.0014C59.3839 50.6402 59.3195 51.2639 59.1972 51.8666L59.1103 53.7319Z" fill="#FF4755"/>
<path d="M59.3851 53.7315C59.3851 53.0926 59.3206 52.469 59.1983 51.8662C58.3341 56.1286 54.5664 59.337 50.049 59.337C45.5315 59.337 41.7639 56.1286 40.8996 51.8662C40.7773 52.469 40.7129 53.0928 40.7129 53.7315C40.7129 58.8876 44.8928 63.0676 50.049 63.0676C55.2051 63.0678 59.3851 58.8878 59.3851 53.7315Z" fill="#FC2B3A"/>
<path d="M50.0486 93.4187C46.8487 93.4187 43.7241 93.0984 40.7031 92.4909L48.1974 99.7081C48.8556 100.342 49.9525 99.8754 49.9525 98.9616V97.1481C49.9847 97.1481 50.0166 97.1492 50.0486 97.1492C74.5207 97.1492 94.6364 78.505 96.9708 54.646L96.3286 55.3128C92.1096 77.0257 72.9951 93.4187 50.0486 93.4187Z" fill="#82D361"/>
<path d="M90.6238 61.2368C90.1913 61.6859 89.463 61.6542 89.0712 61.1692L84.4866 55.4949C81.851 72.1425 67.4367 84.8708 50.0479 84.8708C50.0159 84.8708 49.984 84.8696 49.9518 84.8696V84.8515V82.2549C49.9518 81.3836 48.942 80.9014 48.2643 81.4489L38.8303 89.0713C38.3454 89.4631 38.3137 90.1912 38.7628 90.6238L40.7024 92.4918C43.5605 93.919 47.3838 95.5223 50.5837 95.5223C73.5301 95.5223 92.373 77.2302 96.592 55.5174L96.6575 54.9717L90.6238 61.2368Z" fill="#98DB7C"/>
</svg>
