<svg width="100" height="100" viewBox="0 0 100 100" fill="none" xmlns="http://www.w3.org/2000/svg">
<g clip-path="url(#clip0_3621_9031)">
<path d="M95.8473 38.8426H4.15234C10.0592 19.1152 28.3506 4.73828 49.9998 4.73828C71.649 4.73828 89.9404 19.1152 95.8473 38.8426Z" fill="#93D0FD"/>
<path d="M49.1719 40.224V28.1963C49.1719 26.9295 50.2213 25.9023 51.5156 25.9023C52.81 25.9023 53.8594 26.9293 53.8594 28.1963V40.224H49.1719Z" fill="#0066ED"/>
<path d="M61.0256 29.3227H50.1484C49.6092 29.3227 49.1719 28.8854 49.1719 28.3462V23.6768C49.1719 21.329 50.8045 19.3134 53.0588 18.8786L57.132 18.0811C57.1393 18.0798 57.2434 18.0755 57.2508 18.0741C59.2141 17.7087 61.0256 19.2257 61.0256 21.2227V29.3227Z" fill="#0066ED"/>
<path d="M73.3859 29.3213H54.742C54.2006 29.3207 53.7617 28.8838 53.7617 28.3447V21.6602C53.7617 21.6482 53.7617 21.6363 53.7619 21.6244C53.774 19.9219 55.0342 18.4803 56.7141 18.1594L57.1473 18.0766C57.8646 17.9395 58.5871 17.835 59.3129 17.7631H59.3133C60.1094 17.6842 60.909 17.6445 61.7098 17.6445C63.2404 17.6445 64.7676 17.7891 66.2721 18.0766L70.4619 18.877C72.727 19.3119 74.3674 21.3273 74.3674 23.6752V28.3445C74.3672 28.884 73.9279 29.3213 73.3859 29.3213Z" fill="#0077F0"/>
<path d="M69.6797 40.224V28.1963C69.6797 26.9295 70.7291 25.9023 72.0234 25.9023C73.3178 25.9023 74.3672 26.9293 74.3672 28.1963V40.224H69.6797Z" fill="#0396FD"/>
<path d="M69.7773 23.3789V44.4061H53.7617V23.3789H69.7773Z" fill="#0077F0"/>
<path d="M68.9574 7.63105V9.88379C68.9574 13.0338 66.9314 15.7105 64.1115 16.6826V19.1248C64.1115 20.4191 63.0621 21.4686 61.7678 21.4686C60.4734 21.4686 59.424 20.4191 59.424 19.1248V16.6826C56.6041 15.7107 54.5781 13.034 54.5781 9.88379V7.63105C54.5781 3.66035 57.7971 0.441406 61.7678 0.441406C65.7385 0.441406 68.9574 3.66035 68.9574 7.63105Z" fill="#BB5D4C"/>
<path d="M69.0244 7.47754V10.0363C69.0244 13.0904 66.8918 15.7088 64.1133 16.682C61.3348 15.7088 59.4258 13.0904 59.4258 10.0363V7.47754C59.4258 4.42344 61.4139 1.83262 64.1924 0.859375C66.9711 1.83281 69.0244 4.42344 69.0244 7.47754Z" fill="#C96E59"/>
<path d="M49.1719 33.2734C49.1719 31.9791 50.1988 30.9297 51.4658 30.9297H60.9873C62.2543 30.9297 63.2812 31.9791 63.2812 33.2734C63.2812 34.5678 62.2543 35.6172 60.9873 35.6172H51.4658C50.1988 35.6172 49.1719 34.5678 49.1719 33.2734Z" fill="#0066ED"/>
<path d="M72.0068 35.6172H62.4854C61.2184 35.6172 60.1914 34.5678 60.1914 33.2734C60.1914 31.9791 61.2184 30.9297 62.4854 30.9297H72.0068C73.2736 30.9297 74.3008 31.9791 74.3008 33.2734C74.3008 34.5678 73.2736 35.6172 72.0068 35.6172Z" fill="#0396FD"/>
<path d="M57.082 33.2703C57.082 32.6642 57.3072 32.1121 57.6766 31.6959C57.7029 31.6611 57.732 31.6279 57.7637 31.5962L59.3551 30.0048C59.7365 29.6234 60.3547 29.6234 60.7361 30.0048C60.9859 30.2548 61.0721 30.6064 60.9945 30.9265H61.3369C62.6037 30.9265 63.6309 31.9759 63.6309 33.2703C63.6309 34.5646 62.6039 35.614 61.3369 35.614H59.376C58.109 35.614 57.082 34.5646 57.082 33.2703Z" fill="#BB5D4C"/>
<path d="M64.6143 35.614H62.6533C61.3865 35.614 60.3594 34.5646 60.3594 33.2703C60.3594 31.9759 61.3863 30.9265 62.6533 30.9265H62.9957C62.9182 30.6064 63.0043 30.2548 63.2541 30.0048C63.6355 29.6234 64.2537 29.6234 64.6352 30.0048L66.2266 31.5962C66.2582 31.6279 66.2873 31.6613 66.3137 31.6959C66.6832 32.1119 66.9082 32.6642 66.9082 33.2703C66.9082 34.5646 65.8811 35.614 64.6143 35.614Z" fill="#C96E59"/>
<path d="M9.64062 29.3213V35.7844C9.64062 37.0514 8.59121 38.0783 7.29687 38.0783C6.00254 38.0783 4.95312 37.0514 4.95312 35.7844V29.3213C4.95312 28.0545 6.00254 27.0273 7.29687 27.0273C8.59121 27.0273 9.64062 28.0545 9.64062 29.3213ZM27.8047 27.0273C26.5104 27.0273 25.4609 28.0543 25.4609 29.3213V41.4674C25.4609 42.7344 26.5104 43.7613 27.8047 43.7613C29.099 43.7613 30.1484 42.7344 30.1484 41.4674V29.3213C30.1484 28.0545 29.099 27.0273 27.8047 27.0273Z" fill="#FFA78F"/>
<path d="M16.8068 29.3227H4.95312V23.6768C4.95312 21.329 6.58574 19.3134 8.84004 18.8786L12.9133 18.0811C12.9205 18.0798 13.0246 18.0755 13.032 18.0741C14.9953 17.7087 16.8068 19.2257 16.8068 21.2227V29.3227Z" fill="#FF4343"/>
<path d="M30.1484 29.3213H10.5232C9.98184 29.3207 9.54297 28.8838 9.54297 28.3447V21.6602C9.54297 21.6482 9.54297 21.6363 9.54316 21.6244C9.55527 19.9219 10.8154 18.4803 12.4953 18.1594L12.9285 18.0766C13.6459 17.9395 14.3684 17.835 15.0941 17.7631H15.0945C15.8906 17.6842 16.6902 17.6445 17.491 17.6445C19.0217 17.6445 20.5488 17.7891 22.0533 18.0766L26.2432 18.877C28.5082 19.3119 30.1486 21.3273 30.1486 23.6752V28.3445C30.1484 28.884 30.6902 29.3213 30.1484 29.3213Z" fill="#FF5757"/>
<path d="M25.5586 23.3789V44.4061H9.54297V23.3789H25.5586Z" fill="#FF5757"/>
<path d="M25.4399 8.88058L25.0487 11.0991C24.5518 13.9167 22.477 16.0595 19.8934 16.7794V19.1247C19.8934 20.4191 18.844 21.4685 17.5496 21.4685C16.2553 21.4685 15.2059 20.4191 15.2059 19.1247V16.49C12.1621 15.2269 10.2918 11.9823 10.8877 8.60226L11.2789 6.38371C11.9684 2.47336 15.6973 -0.137776 19.6078 0.551873C23.5184 1.24133 26.1295 4.97023 25.4399 8.88058Z" fill="#FFA78F"/>
<path d="M25.5019 8.74277L25.0578 11.2627C24.5615 14.0771 22.384 16.1857 19.7305 16.8365C19.3764 16.9234 18.998 16.8566 18.6949 16.6539C16.424 15.1348 15.1369 12.41 15.6332 9.5957L16.0775 7.07578C16.6078 4.06797 19.0172 1.8627 21.9224 1.38672C24.4898 2.82793 26.0324 5.73516 25.5019 8.74277Z" fill="#FFBFAB"/>
<path d="M36.6262 34.1641C36.6262 35.2428 35.7518 36.1172 34.673 36.1172H18.7227C17.6439 36.1172 16.7695 35.2428 16.7695 34.1641C16.7695 33.0854 17.6439 32.2109 18.7227 32.2109H34.6732C35.7518 32.2109 36.6262 33.0854 36.6262 34.1641Z" fill="#ECECF1"/>
<path d="M20.8259 34.4031C20.6378 34.4838 20.4421 34.5219 20.2495 34.5219C19.6811 34.5219 19.1405 34.1891 18.9024 33.6338L14.7517 23.9484C14.4329 23.2047 14.7774 22.3438 15.521 22.025C16.2647 21.7065 17.1257 22.0508 17.4444 22.7943L21.5952 32.4797C21.914 33.2234 21.5694 34.0846 20.8259 34.4031Z" fill="#0066ED"/>
<path d="M5.58594 33.2461C5.58594 31.9518 6.61289 30.9023 7.87988 30.9023H17.4014C18.6684 30.9023 19.6953 31.9518 19.6953 33.2461C19.6953 34.5404 18.6684 35.5898 17.4014 35.5898H7.87988C6.61289 35.5898 5.58594 34.5404 5.58594 33.2461Z" fill="#FFA78F"/>
<path d="M15.2148 33.2468C15.2148 32.6408 15.44 32.0886 15.8094 31.6724C15.8357 31.6376 15.8648 31.6044 15.8965 31.5728L17.4879 29.9814C17.8693 29.6 18.4875 29.6 18.8689 29.9814C19.1187 30.2314 19.2049 30.583 19.1273 30.9031H19.4697C20.7365 30.9031 21.7637 31.9525 21.7637 33.2468C21.7637 34.5412 20.7367 35.5906 19.4697 35.5906H17.5088C16.2418 35.5906 15.2148 34.5412 15.2148 33.2468Z" fill="#FFBFAB"/>
<path d="M97.8516 40.2852V61.6719C97.8516 62.2111 97.4143 62.6484 96.875 62.6484H50.3906V88.5273C50.3906 89.0666 49.9533 89.5039 49.4141 89.5039L19.5492 88.4609C19.3699 88.3129 19.1918 88.1635 19.0146 88.0129C18.9262 87.9377 18.8379 88.9051 18.75 88.8291C8.5832 80.0543 2.14844 67.0734 2.14844 52.5898C2.14844 47.9816 2.7998 43.5256 4.01562 39.3086H96.875C97.4143 39.3086 97.8516 39.7459 97.8516 40.2852Z" fill="#955B50"/>
<path d="M100 36.4766V40.3828C100 40.9221 99.5627 41.3594 99.0234 41.3594H0.976562C0.437305 41.3594 0 40.9221 0 40.3828V36.4766C0 35.9373 0.437305 35.5 0.976562 35.5H99.0234C99.5627 35.5 100 35.9373 100 36.4766Z" fill="#AC695D"/>
<path d="M69.4766 51.501V57.9641C69.4766 59.2311 68.4271 60.258 67.1328 60.258C65.8385 60.258 64.7891 59.2311 64.7891 57.9641V51.501C64.7891 50.2342 65.8385 49.207 67.1328 49.207C68.4271 49.207 69.4766 50.234 69.4766 51.501ZM87.6406 49.207C86.3463 49.207 85.2969 50.234 85.2969 51.501V63.6471C85.2969 64.9141 86.3463 65.941 87.6406 65.941C88.935 65.941 89.9844 64.9141 89.9844 63.6471V51.501C89.9844 50.234 88.935 49.207 87.6406 49.207Z" fill="#F6A96C"/>
<path d="M76.6428 43.38V51.5003H64.7891V45.8544C64.7891 43.5066 66.4217 41.491 68.676 41.0562L72.5648 40.2939L72.8678 40.2517C74.8285 39.881 76.6428 41.3847 76.6428 43.38Z" fill="#00C53B"/>
<path d="M89.9805 51.5027H85.3906V66.5881H69.375V43.8416C69.375 43.8297 69.375 43.8177 69.3752 43.8058C69.3848 42.4664 70.1666 41.2885 71.3178 40.6906C71.6299 40.5285 72.0545 40.9416 72.4127 40.8732L73.1107 40.6986C73.8281 40.5615 73.8686 40.5711 74.5943 40.4992C74.5943 40.4992 74.9682 40.4619 74.9684 40.4617C75.7645 40.3828 76.524 40.4119 77.3246 40.4119C78.8553 40.4119 80.0092 40.2742 81.5135 40.5615L82.5563 40.7607L83.6828 40.6013L86.0748 41.0584C88.3398 41.4933 89.9803 43.5088 89.9803 45.8566L89.9805 51.5027Z" fill="#4BCD5C"/>
<path d="M71.0703 40.5867L72.7611 40.2563C73.4785 40.1191 74.201 40.0146 74.9268 39.9428H74.9272C75.7232 39.8639 76.5229 39.8242 77.3236 39.8242C78.8543 39.8242 80.3814 39.9688 81.8859 40.2563L83.6838 40.5996L78.0742 46.209C77.6928 46.5904 77.0746 46.5904 76.6932 46.209L71.0703 40.5867Z" fill="#ECECF1"/>
<path d="M85.2757 31.0603L84.8845 33.2788C84.3876 36.0964 82.3128 38.2392 79.7292 38.9591V41.3044C79.7292 42.5987 78.6798 43.6482 77.3854 43.6482C76.0911 43.6482 75.0417 42.5987 75.0417 41.3044V38.6696C71.9979 37.4066 70.1276 34.162 70.7237 30.7819L71.1149 28.5634C71.8044 24.653 75.5333 22.0419 79.4438 22.7316C83.3542 23.4208 85.9651 27.1499 85.2757 31.0603Z" fill="#F6A96C"/>
<path d="M85.3857 30.8775L84.9197 33.4082C84.4234 36.2227 82.2199 38.3637 79.5664 39.0146C79.2123 39.1016 78.834 39.0348 78.5308 38.832C76.2599 37.3129 74.9728 34.5881 75.4691 31.7738L75.9135 29.2539C76.4437 26.2461 78.8531 24.0424 81.7584 23.5664C84.3258 25.0074 85.9162 27.8697 85.3857 30.8775Z" fill="#FFBD86"/>
<path d="M96.4584 56.3438C96.4584 57.4225 95.584 58.2969 94.5053 58.2969H78.5547C77.476 58.2969 76.6016 57.4225 76.6016 56.3438C76.6016 55.265 77.476 54.3906 78.5547 54.3906H94.5053C95.584 54.3906 96.4584 55.265 96.4584 56.3438Z" fill="#ECECF1"/>
<path d="M80.6618 56.5828C80.4737 56.6635 80.278 56.7016 80.0854 56.7016C79.5171 56.7016 78.9765 56.3688 78.7384 55.8135L74.5876 46.1281C74.2688 45.3844 74.6134 44.5234 75.3569 44.2047C76.1007 43.8861 76.9616 44.2305 77.2804 44.974L81.4311 54.6594C81.7499 55.4031 81.4054 56.2641 80.6618 56.5828Z" fill="#0066ED"/>
<path d="M65.418 55.4258C65.418 54.1314 66.4449 53.082 67.7119 53.082H77.2334C78.5004 53.082 79.5273 54.1314 79.5273 55.4258C79.5273 56.7201 78.5004 57.7695 77.2334 57.7695H67.7119C66.4449 57.7695 65.418 56.7201 65.418 55.4258Z" fill="#F6A96C"/>
<path d="M75.0508 55.4265C75.0508 54.8205 75.276 54.2683 75.6453 53.8521C75.6717 53.8173 75.7008 53.7841 75.7324 53.7525L77.3238 52.1611C77.7053 51.7796 78.3234 51.7796 78.7049 52.1611C78.9547 52.4111 79.0408 52.7626 78.9633 53.0828H79.3057C80.5725 53.0828 81.5996 54.1322 81.5996 55.4265C81.5996 56.7208 80.5727 57.7703 79.3057 57.7703H77.3447C76.0777 57.7703 75.0508 56.7208 75.0508 55.4265Z" fill="#FFBD86"/>
<path d="M28.832 50.0244V63.6475C28.832 64.9145 27.7826 65.9414 26.4883 65.9414C25.1939 65.9414 24.1445 64.9145 24.1445 63.6475V50.0244C24.1445 48.7576 25.1939 47.7305 26.4883 47.7305C27.7826 47.7305 28.832 48.7574 28.832 50.0244ZM46.9961 47.7305C45.7018 47.7305 44.6523 48.7574 44.6523 50.0244V63.6475C44.6523 64.9145 45.7018 65.9414 46.9961 65.9414C48.2904 65.9414 49.3398 64.9145 49.3398 63.6475V50.0244C49.3398 48.7574 48.2904 47.7305 46.9961 47.7305Z" fill="#D78878"/>
<path d="M35.9982 51.5002H24.1445V45.8543C24.1445 43.5065 25.7772 41.4909 28.0314 41.0561L32.2014 40.2557L32.2232 40.2516C34.1838 39.8813 35.998 41.3848 35.998 43.3801L35.9982 51.5002Z" fill="#FFAA00"/>
<path d="M49.3398 51.501H44.75V66.5863H28.7344V43.8398C28.7344 43.8279 28.7344 43.816 28.7346 43.8041C28.7467 42.1016 30.0068 40.66 31.6867 40.3391L32.1199 40.2563C32.8373 40.1191 33.5598 40.0146 34.2855 39.9428H34.2859C35.082 39.8639 35.8816 39.8242 36.6824 39.8242C38.2131 39.8242 39.7402 39.9688 41.2447 40.2563L45.4346 41.0566C47.6996 41.4916 49.34 43.507 49.34 45.8549V51.501H49.3398Z" fill="#FFB509"/>
<path d="M43.934 29.8107V32.0635C43.934 35.2135 41.908 37.8902 39.0881 38.8623V41.3045C39.0881 42.5988 38.0387 43.6482 36.7443 43.6482C35.45 43.6482 34.4006 42.5988 34.4006 41.3045V38.8623C31.5807 37.8904 29.5547 35.2137 29.5547 32.0635V29.8107C29.5547 25.84 32.7736 22.6211 36.7443 22.6211C40.715 22.6213 43.934 25.84 43.934 29.8107Z" fill="#C96E59"/>
<path d="M43.9684 29.6572V32.216C43.9684 35.2701 41.8645 37.8885 39.0859 38.8617C36.3074 37.8885 34.3984 35.2701 34.3984 32.216V29.6572C34.3984 26.6031 36.3865 24.0123 39.165 23.0391C41.9436 24.0123 43.9684 26.6031 43.9684 29.6572Z" fill="#D78878"/>
<path d="M37.6211 58.1013H23.5586V55.4478C23.5586 54.9552 23.9254 54.5398 24.4141 54.4788L32.3885 53.4819C35.167 53.1347 37.6211 55.3011 37.6211 58.1013Z" fill="#D4D4DA"/>
<path d="M49.9258 55.4478V58.1013H35.8633C35.8633 55.3011 38.3174 53.1347 41.0959 53.4819L49.0703 54.4788C49.5592 54.5398 49.9258 54.9552 49.9258 55.4478Z" fill="#ECECF1"/>
<path d="M42.4613 98.9504C42.0943 98.8924 41.7289 98.8301 41.3646 98.7637C41.1828 98.7305 41.0014 99.5977 40.8203 99.5623C32.4893 97.9436 24.9301 94.1639 18.75 88.8297V62.4648C18.75 61.9256 19.1873 61.4883 19.7266 61.4883H97.0258C95.7084 68.4943 92.8639 74.9615 88.8514 80.5313C88.7598 80.6584 87.5957 80.785 87.5029 80.9111C87.1385 81.4066 86.7648 81.8947 86.3822 82.3754H43.4379C42.8986 82.3754 42.4613 82.8127 42.4613 83.352V98.9504Z" fill="#AC695D"/>
<path d="M99.0217 63.5391H17.0156C16.4764 63.5391 16.0391 63.1018 16.0391 62.5625V58.6562C16.0391 58.117 16.4764 57.6797 17.0156 57.6797H99.0217C99.5609 57.6797 99.9982 58.117 99.9982 58.6562V62.5625C99.9982 63.1018 99.5609 63.5391 99.0217 63.5391Z" fill="#B97D72"/>
<path d="M50.9023 72.876V86.499C50.9023 87.766 49.8529 88.793 48.5586 88.793C47.2643 88.793 46.2148 87.766 46.2148 86.499V72.876C46.2148 71.6092 47.2643 70.582 48.5586 70.582C49.8529 70.582 50.9023 71.609 50.9023 72.876ZM69.0664 70.582C67.7721 70.582 66.7227 71.609 66.7227 72.876V86.499C66.7227 87.766 67.7721 88.793 69.0664 88.793C70.3607 88.793 71.4102 87.766 71.4102 86.499V72.876C71.4102 71.609 70.3607 70.582 69.0664 70.582Z" fill="#FFCEBF"/>
<path d="M58.0725 74.3518H46.2188V68.7059C46.2188 66.3581 47.8514 64.3424 50.1057 63.9077L54.2756 63.1073L54.2975 63.1032C56.258 62.7329 58.0723 64.2364 58.0723 66.2317V74.3518H58.0725Z" fill="#00A4FB"/>
<path d="M71.4102 74.3525H66.8203V89.4379H50.8047V66.6914C50.8047 66.6795 50.8047 66.6676 50.8049 66.6557C50.817 64.9531 52.0771 63.5115 53.757 63.1906L54.1902 63.1078C54.9076 62.9707 55.6301 62.8662 56.3559 62.7943H56.3563C57.1523 62.7154 57.952 62.6758 58.7527 62.6758C60.2834 62.6758 61.8105 62.8203 63.315 63.1078L67.5049 63.9082C69.7699 64.3432 71.4104 66.3586 71.4104 68.7064V74.3525H71.4102Z" fill="#49B6FC"/>
<path d="M66.0043 52.6623V54.915C66.0043 58.065 63.9783 60.7418 61.1584 61.7139V64.1561C61.1584 65.4504 60.109 66.4998 58.8147 66.4998C57.5203 66.4998 56.4709 65.4504 56.4709 64.1561V61.7139C53.651 60.742 51.625 58.0652 51.625 54.915V52.6623C51.625 48.6916 54.8439 45.4727 58.8147 45.4727C62.7854 45.4729 66.0043 48.6916 66.0043 52.6623Z" fill="#FFCEBF"/>
<path d="M66.1145 52.4V54.9588C66.1145 58.0129 63.9387 60.7398 61.1602 61.7131C58.3816 60.7398 56.4727 58.1215 56.4727 55.0674V52.5086C56.4727 49.4545 58.4607 46.8639 61.2393 45.8906C64.0178 46.8637 66.1145 49.3459 66.1145 52.4Z" fill="#FFDFCF"/>
<path d="M78.9062 80.9102H59.375C58.2963 80.9102 57.4219 80.0357 57.4219 78.957C57.4219 77.8783 58.2963 77.0039 59.375 77.0039H78.9062C79.985 77.0039 80.8594 77.8783 80.8594 78.957C80.8594 80.0357 79.985 80.9102 78.9062 80.9102Z" fill="#0066ED"/>
<path d="M84.1215 84.3398C83.6578 84.8623 83.183 85.3746 82.6971 85.8762C82.5297 86.049 84.042 86.2205 83.8723 86.3906C75.21 95.0713 63.2322 100.442 50 100.442C46.8604 100.442 43.7912 100.14 40.8203 99.5625V85.3164C40.8203 84.7771 41.2576 84.3398 41.7969 84.3398H84.1215Z" fill="#B97D72"/>
<path d="M83.8705 86.3906H39.0859C38.5467 86.3906 38.1094 85.9533 38.1094 85.4141V81.5078C38.1094 80.9686 38.5467 80.5312 39.0859 80.5312H88.8496C87.3475 82.6164 85.6814 84.5758 83.8705 86.3906Z" fill="#C49087"/>
</g>
<defs>
<clipPath id="clip0_3621_9031">
<rect width="100" height="100" fill="white"/>
</clipPath>
</defs>
</svg>
