<svg width="80" height="80" viewBox="0 0 80 80" fill="none" xmlns="http://www.w3.org/2000/svg">
<path d="M1.21094 1.21094H39.8776V50.1806H1.21094V1.21094Z" fill="#E6E6E8"/>
<path d="M6.42188 21.8164H14.1795V29.574H6.42188V21.8164Z" fill="#E8664A"/>
<path d="M6.42188 9.33203H14.1795V17.0896H6.42188V9.33203Z" fill="#6FAC43"/>
<path d="M6.42188 34.1797H14.1795V41.9373H6.42188V34.1797Z" fill="#FAD22C"/>
<path d="M18.4219 9.33203H34.7855V12.1199H18.4219V9.33203Z" fill="#1E87B7"/>
<path d="M18.4219 14.3008H26.9067V17.0887H18.4219V14.3008Z" fill="#1E87B7"/>
<path d="M18.4219 21.8164H34.7855V24.6043H18.4219V21.8164Z" fill="#1E87B7"/>
<path d="M18.4219 26.7852H26.9067V29.573H18.4219V26.7852Z" fill="#1E87B7"/>
<path d="M18.4219 34.1797H34.7855V36.9676H18.4219V34.1797Z" fill="#1E87B7"/>
<path d="M18.4219 39.1484H26.9067V41.9363H18.4219V39.1484Z" fill="#1E87B7"/>
<path d="M53.1211 32.6175C53.5675 30.8661 53.1406 29.2452 52.1676 28.9972C51.1946 28.7491 50.0439 29.9679 49.5974 31.7194C49.151 33.4708 49.5779 35.0917 50.5509 35.3397C51.5239 35.5877 52.6746 34.369 53.1211 32.6175Z" fill="#C6A28A"/>
<path d="M26.8286 31.7391C26.3821 29.9877 25.2314 28.7689 24.2584 29.017C23.2853 29.265 22.8585 30.8859 23.3049 32.6373C23.7514 34.3888 24.9021 35.6075 25.8751 35.3595C26.8481 35.1115 27.275 33.4906 26.8286 31.7391Z" fill="#D5B79F"/>
<path d="M32.8477 42.7852H43.1507V51.1488H32.8477V42.7852Z" fill="#D5B79F"/>
<path d="M32.8477 42.7852H37.9386V51.1488H32.8477V42.7852Z" fill="#C6A28A"/>
<path d="M38.3015 45.8159C45.3306 45.8159 51.0288 38.761 51.0288 30.0584C51.0288 21.3557 45.3306 14.3008 38.3015 14.3008C31.2724 14.3008 25.5742 21.3557 25.5742 30.0584C25.5742 38.761 31.2724 45.8159 38.3015 45.8159Z" fill="#D5B79F"/>
<path d="M38.3008 14.3008V45.8159C45.3311 45.8159 51.0281 38.7856 51.0281 30.0584C51.0281 21.3311 45.3311 14.3008 38.3008 14.3008Z" fill="#C6A28A"/>
<path d="M60.4843 64.3621C60.6055 59.9985 57.5752 57.0894 54.0601 54.5439C50.5449 51.9985 43.151 49.5742 43.151 49.5742L38.3025 51.2712L37.9389 50.9076L33.454 49.6954C33.454 49.6954 26.1813 52.2409 22.5449 54.6651C19.0298 57.2106 15.9995 60.1197 16.1207 64.4833C16.2419 68.8469 16.1207 78.9075 16.1207 78.9075H38.3025H60.4843C60.4843 78.7863 60.3631 68.7257 60.4843 64.3621Z" fill="#D4D8DB"/>
<path d="M60.4828 64.3621C60.6041 59.9985 57.5737 57.0894 54.0586 54.5439C50.5434 51.9985 43.1495 49.5742 43.1495 49.5742L38.0586 50.7863V78.7863H60.604C60.4828 78.7863 60.3616 68.7257 60.4828 64.3621Z" fill="#E6E6E8"/>
<path d="M60.4828 78.7861H38.0586C43.6344 64.4831 43.998 52.7255 43.998 49.8164C44.604 50.0588 45.5737 50.4225 46.6647 50.9073C49.0889 51.877 52.1192 53.2103 54.0586 54.5437C57.5737 57.0891 60.604 59.9982 60.604 64.3619C60.3616 68.7255 60.4828 78.7861 60.4828 78.7861Z" fill="#D4D8DB"/>
<path d="M39.6375 50.7852H36.3648L34.7891 53.3306L36.3648 55.8761H39.6375L41.2133 53.3306L39.6375 50.7852Z" fill="#E8664A"/>
<path d="M41.214 53.3306L39.6383 50.7852H38.0625V55.8761H39.6383L41.214 53.3306Z" fill="#D95239"/>
<path d="M43.1495 47.0273L38.0586 50.7849L42.9071 54.6637L44.2404 49.9364L43.1495 47.0273Z" fill="#B5BABE"/>
<path d="M32.8487 47.0273L38.0608 50.7849L33.0911 54.6637L31.7578 50.1789L32.8487 47.0273Z" fill="#E6E6E8"/>
<path d="M41.0928 78.7841H38.0625V55.875H39.6383L41.0928 78.7841Z" fill="#E8664A"/>
<path d="M38.0617 78.7841H34.9102L36.3647 55.875H38.0617V78.7841Z" fill="#D95239"/>
<path d="M37.9389 78.7856H16.1207C16.1207 78.7856 16.2419 68.725 16.1207 64.3614C15.9995 59.9977 19.0298 57.0887 22.5449 54.5432C24.3631 53.2099 27.151 51.9977 29.454 51.028C30.4237 50.6644 31.3934 50.3008 31.9995 50.0583C32.1207 53.3311 32.6055 64.725 37.9389 78.7856Z" fill="#3B4C56"/>
<path d="M60.4828 78.7861H38.0586C43.6344 64.4831 43.998 52.7255 43.998 49.8164C44.604 50.0588 45.5737 50.4225 46.6647 50.9073C49.0889 51.877 52.1192 53.2103 54.0586 54.5437C57.5737 57.0891 60.604 59.9982 60.604 64.3619C60.3616 68.7255 60.4828 78.7861 60.4828 78.7861Z" fill="#465C6A"/>
<path d="M46.301 60.9685L47.2707 64.2412C44.3616 73.4534 38.4222 78.5443 38.0586 78.9079C42.0586 68.6049 43.7556 59.1503 43.998 49.2109L46.6647 50.9079L48.1192 58.7867L46.301 60.9685Z" fill="#3B4C56"/>
<path d="M37.9389 78.7868C37.3329 78.302 32.242 73.2111 29.3329 64.1201L30.3026 60.8474L28.4844 58.6656L29.4541 51.0292L32.1207 49.0898C32.4844 59.1505 33.9389 67.9989 37.9389 78.7868Z" fill="#465C6A"/>
<path d="M50.181 17.0873C50.181 17.0873 48.3629 11.0267 43.9992 10.9055C40.1204 10.7843 33.3326 10.2994 28.1204 13.5721C26.9083 14.2994 25.9386 15.5115 25.3326 16.9661C24.4841 19.1479 23.5144 23.1479 24.7265 27.9964L26.4235 34.1782C26.5447 34.5418 26.9083 34.7843 27.2719 34.7843C27.7568 34.7843 28.2416 34.2994 28.1204 33.8146C27.878 31.3903 27.2719 24.8449 28.2416 23.3903C29.4538 21.5721 29.6962 21.4509 33.575 22.4206C37.4538 23.5115 46.181 22.9055 47.0295 21.8146C47.0295 21.8146 47.878 23.754 47.878 25.9358C47.878 27.754 48.7265 32.6024 48.9689 34.1782C48.9689 34.4206 49.3326 34.663 49.575 34.663C49.8174 34.663 50.181 34.4206 50.181 34.1782C50.5447 31.754 51.9992 22.057 52.2416 19.754C52.6053 17.2085 50.181 17.0873 50.181 17.0873Z" fill="#465C6A"/>
<path d="M50.1796 17.0882C50.1796 17.0882 48.3614 11.0276 43.9977 10.9064C42.422 10.7852 40.4826 10.7852 38.3008 10.7852V22.9064C42.1796 23.0276 46.5432 22.5427 47.1493 21.8155C47.1493 21.8155 47.9977 23.7549 47.9977 25.9367C47.9977 27.7549 48.8462 32.6033 49.0887 34.1791C49.0887 34.4215 49.4523 34.6639 49.6947 34.6639C49.9371 34.6639 50.3008 34.4215 50.3008 34.1791C50.6644 31.7549 52.119 22.0579 52.3614 19.7549C52.6038 17.2094 50.1796 17.0882 50.1796 17.0882Z" fill="#3B4C56"/>
<path d="M69.6954 54.5455H53.5742V48.9697C53.5742 48.3636 54.0591 48 54.5439 48H68.6045C69.2106 48 69.5742 48.4849 69.5742 48.9697V54.5455H69.6954ZM55.2712 52.8485H67.9985V49.5758H55.2712V52.8485Z" fill="#3B4C56"/>
<path d="M45.4531 51.8789V77.091C45.4531 77.9395 46.1804 78.6668 47.0289 78.6668H76.3622C77.2107 78.6668 77.938 77.9395 77.938 77.091V51.8789H45.4531Z" fill="#C6A28A"/>
<path d="M77.4541 51.8789H45.8177C45.0904 51.8789 44.4844 52.485 44.4844 53.2122V63.5153C44.4844 64.2425 45.0904 64.8486 45.8177 64.8486H77.4541C78.1813 64.8486 78.7874 64.2425 78.7874 63.5153V53.2122C78.7874 52.485 78.1813 51.8789 77.4541 51.8789Z" fill="#D5B79F"/>
<path d="M61.6953 51.8789V78.6668H76.362C77.2105 78.6668 77.9377 77.9395 77.9377 77.091V51.8789H61.6953Z" fill="#D5B79F"/>
<path d="M77.4529 51.8789H61.6953V64.7274H77.4529C78.1802 64.7274 78.7862 64.1213 78.7862 63.3941V53.091C78.7862 52.485 78.1802 51.8789 77.4529 51.8789Z" fill="#C6A28A"/>
<path d="M59.7578 62.0625V65.4564C59.7578 66.5473 60.6063 67.3958 61.6972 67.3958C62.7881 67.3958 63.6366 66.5473 63.6366 65.4564V62.1837H59.7578V62.0625Z" fill="#465C6A"/>
<path d="M61.6963 66.3027C62.2318 66.3027 62.666 65.8685 62.666 65.333C62.666 64.7974 62.2318 64.3633 61.6963 64.3633C61.1607 64.3633 60.7266 64.7974 60.7266 65.333C60.7266 65.8685 61.1607 66.3027 61.6963 66.3027Z" fill="#E6E6E8"/>
<path d="M13.8169 76.8486C20.7121 76.8486 26.3017 71.2589 26.3017 64.3638C26.3017 57.4686 20.7121 51.8789 13.8169 51.8789C6.92169 51.8789 1.33203 57.4686 1.33203 64.3638C1.33203 71.2589 6.92169 76.8486 13.8169 76.8486Z" fill="#D95239"/>
<path d="M13.8168 72.7273C18.4359 72.7273 22.1804 68.9827 22.1804 64.3636C22.1804 59.7445 18.4359 56 13.8168 56C9.19765 56 5.45312 59.7445 5.45312 64.3636C5.45312 68.9827 9.19765 72.7273 13.8168 72.7273Z" fill="#E8664A"/>
<path d="M13.8164 51.8789V76.9698C20.7255 76.9698 26.3013 71.3941 26.3013 64.485C26.3013 57.4547 20.7255 51.8789 13.8164 51.8789Z" fill="#E8664A"/>
<path d="M13.8164 56V72.7273C18.4225 72.7273 22.18 68.9697 22.18 64.3636C22.18 59.7576 18.4225 56 13.8164 56Z" fill="#D95239"/>
<path d="M12.8475 68.1205L8.96875 64.3629L10.7869 62.5447L12.8475 64.6054L16.7263 60.7266L18.5445 62.4235L12.8475 68.1205Z" fill="white"/>
</svg>
