<svg width="80" height="80" viewBox="0 0 80 80" fill="none" xmlns="http://www.w3.org/2000/svg">
<path d="M62.677 43.8525H63.6178C66.9463 43.8525 69.6366 41.1209 69.5695 37.7773C69.5042 34.518 66.7602 31.9466 63.5002 31.9466H46.577C46.1528 31.9466 45.7555 31.8697 45.3934 31.7316C43.8969 31.1602 42.2923 30.9272 40.6903 30.9272H39.6389C37.1033 30.9272 35.5153 28.1859 36.7769 25.9864C38.982 22.1413 40.5814 17.9792 41.5187 13.6469L42.3794 9.66906C43.2758 6.73922 43.0491 4.37375 42.0552 2.57L38.8097 1.75391C37.7595 2.67469 37.0797 3.84609 36.7687 5.31797L36.0794 8.58078C35.1398 13.0272 33.5037 17.2972 31.2314 21.2328L26.7839 28.9361C24.4306 33.0122 20.0816 35.5231 15.375 35.5231V75.4269H23.0909C26.2073 75.4269 29.283 76.1353 32.0855 77.4987C34.8878 78.8622 37.9634 79.5706 41.08 79.5706H56.8797H58.3339V79.3614C60.8625 78.6742 62.7225 76.3637 62.7225 73.6175C62.7225 70.8714 60.8625 68.5608 58.3339 67.8737V67.6645H60.0631C63.3508 67.6645 66.0161 64.9994 66.0161 61.7116C66.0161 58.4239 63.3509 55.7586 60.0631 55.7586H62.6773C65.9652 55.7586 68.6303 53.0934 68.6303 49.8056C68.63 46.5178 65.9648 43.8525 62.677 43.8525Z" fill="#FFDDCE"/>
<path d="M40.8495 8.08672L39.4262 14.6648C38.4889 18.9972 36.8895 23.1592 34.6843 27.0044C33.4229 29.2039 35.0109 31.9452 37.5464 31.9452H46.5771C44.0415 31.9452 42.4537 29.2039 43.7151 27.0044C45.9203 23.1592 47.5196 18.9972 48.457 14.6648L49.8803 8.08672C50.6453 4.4661 48.3304 0.910941 44.7098 0.145941C42.517 -0.317341 40.3493 0.350316 38.8098 1.75235C40.5035 3.30094 41.3582 5.67891 40.8495 8.08672Z" fill="#FFCBBE"/>
<path d="M70.2336 43.8513H71.1744C74.5028 43.8513 77.1931 41.1197 77.1261 37.7761C77.0608 34.5167 74.3167 31.9453 71.0567 31.9453H65.89H62.0197C65.2634 31.9453 68.0053 34.4884 68.0942 37.7309C68.1866 41.0952 65.4869 43.8513 62.1436 43.8513H61.2028C64.4905 43.8513 67.1558 46.5164 67.1558 49.8042C67.1558 53.092 64.4906 55.7572 61.2028 55.7572H58.5886C61.8763 55.7572 64.5416 58.4223 64.5416 61.7102C64.5416 64.998 61.8763 67.6631 58.5886 67.6631H56.8594V67.8723C59.388 68.5595 61.248 70.87 61.248 73.6163C61.248 76.3625 59.388 78.673 56.8594 79.3602V79.5694H56.8778H64.3258H65.8902V79.3602C68.4187 78.673 70.2788 76.3625 70.2788 73.6163C70.2788 70.9434 68.5167 68.6831 66.0911 67.9308C65.9727 67.8941 65.8902 67.7872 65.8902 67.6631H67.6194C70.9072 67.6631 73.5723 64.998 73.5723 61.7102C73.5723 58.4225 70.9072 55.7572 67.6194 55.7572H70.2334C73.5213 55.7572 76.1864 53.092 76.1864 49.8042C76.1866 46.5164 73.5214 43.8513 70.2336 43.8513Z" fill="#FFCBBE"/>
<path d="M12.9525 72.0038C15.1542 72.0038 16.9392 70.2189 16.9392 68.017V32.5994C16.9392 31.8742 16.2372 30.5977 15.1689 30.5977H6.73891C4.60281 30.5977 2.87109 32.3294 2.87109 34.4655V71.0711L4.13125 72.0038H12.9525Z" fill="#9BC4F9"/>
<path d="M16.1066 30.5977H15.1689C15.6209 31.2306 15.8878 32.005 15.8878 32.8422V67.2033C15.8878 69.3394 14.1561 71.0711 12.02 71.0711H2.87109V76.1308C2.87109 78.2669 4.60281 79.9986 6.73891 79.9986H16.1066C18.2427 79.9986 19.9744 78.2669 19.9744 76.1308V34.4655C19.9742 32.3294 18.2427 30.5977 16.1066 30.5977Z" fill="#7FB2F9"/>
<path d="M70.2334 45.0589H54.5197C53.853 45.0589 53.3125 44.5184 53.3125 43.8517C53.3125 43.185 53.853 42.6445 54.5197 42.6445H70.2334C70.9002 42.6445 71.4406 43.185 71.4406 43.8517C71.4406 44.5184 70.9003 45.0589 70.2334 45.0589Z" fill="#FFCBBE"/>
<path d="M65.4312 56.9652H54.5197C53.853 56.9652 53.3125 56.4247 53.3125 55.758C53.3125 55.0911 53.853 54.5508 54.5197 54.5508H65.4312C66.098 54.5508 66.6384 55.0913 66.6384 55.758C66.6384 56.4247 66.098 56.9652 65.4312 56.9652Z" fill="#FFCBBE"/>
<path d="M63.6997 68.8714H56.1798C55.5131 68.8714 54.9727 68.3309 54.9727 67.6642C54.9727 66.9975 55.5131 66.457 56.1798 66.457H63.6997C64.3664 66.457 64.9069 66.9975 64.9069 67.6642C64.9069 68.3309 64.3666 68.8714 63.6997 68.8714Z" fill="#FFCBBE"/>
</svg>
