<svg width="80" height="80" viewBox="0 0 80 80" fill="none" xmlns="http://www.w3.org/2000/svg">
<path d="M74.9657 20.0747C65.6363 38.3571 55.8363 56.41 45.5951 74.2041C44.8833 75.4394 43.3539 75.8982 42.1598 75.2394L16.9069 61.2335C15.6892 60.5571 15.2892 58.9688 16.0127 57.71C26.2127 39.9865 35.9657 22.01 45.2598 3.80411C45.9304 2.48646 47.5127 1.96293 48.748 2.65117L74.001 16.6571C75.1716 17.31 75.601 18.8218 74.9657 20.0747Z" fill="#CEDEF5"/>
<path d="M16.8999 61.2296L21.0293 63.5178C32.0646 44.2237 42.6646 24.6884 52.8234 4.9178L48.747 2.65898C47.5117 1.97075 45.9352 2.49428 45.2646 3.81192C35.9646 22.0178 26.2058 39.9943 16.0117 57.7119C15.2823 58.9649 15.6882 60.5531 16.8999 61.2296Z" fill="#FD5797"/>
<path d="M43.0164 34.5449C43.0164 34.5449 43.0164 34.539 43.0222 34.539L54.9105 12.5272C55.0811 12.2155 54.9634 11.8272 54.6517 11.6567C54.3399 11.4861 53.9575 11.6037 53.787 11.9096C53.787 11.9096 53.787 11.9155 53.7811 11.9155L41.8869 33.9272C41.7164 34.239 41.834 34.6272 42.1458 34.7978C42.4575 34.9684 42.8458 34.8567 43.0164 34.5449Z" fill="#94959A"/>
<path d="M47.4753 37.0449C47.4753 37.0449 47.4753 37.039 47.4812 37.039L59.3694 15.0272C59.54 14.7155 59.4224 14.3272 59.1106 14.1567C58.7989 13.9861 58.4165 14.1037 58.2459 14.4096C58.2459 14.4096 58.2459 14.4155 58.24 14.4155L46.3518 36.4272C46.1812 36.739 46.2988 37.1272 46.6106 37.2978C46.9224 37.4684 47.3047 37.3508 47.4753 37.0449Z" fill="#94959A"/>
<path d="M51.9382 39.5462C51.9382 39.5462 51.9382 39.5403 51.9441 39.5403L63.8324 17.5285C64.0029 17.2168 63.8853 16.8285 63.5735 16.658C63.2618 16.4933 62.8794 16.605 62.7088 16.9109C62.7088 16.9109 62.7088 16.9168 62.7029 16.9168L50.8088 38.9285C50.6382 39.2403 50.7559 39.6286 51.0676 39.7991C51.3794 39.9638 51.7677 39.8521 51.9382 39.5462Z" fill="#94959A"/>
<path d="M56.3992 42.0384C56.3992 42.0384 56.3992 42.0325 56.4051 42.0325L68.2933 20.0207C68.4639 19.709 68.3462 19.3207 68.0345 19.1501C67.7227 18.9854 67.3404 19.0972 67.1698 19.4031C67.1698 19.4031 67.1698 19.409 67.1639 19.409L55.2698 41.4207C55.0992 41.7325 55.2168 42.1207 55.5286 42.2913C55.8404 42.4619 56.2286 42.3501 56.3992 42.0384Z" fill="#94959A"/>
<path d="M40.4578 39.5561C40.6284 39.2502 40.5225 38.862 40.2107 38.6855C39.9048 38.509 39.5107 38.6208 39.3342 38.9267L35.5931 45.5267C35.4225 45.8267 35.5284 46.2267 35.8342 46.4032C36.1401 46.5796 36.5342 46.4679 36.7107 46.162L40.4578 39.5561C40.4578 39.562 40.4578 39.562 40.4578 39.5561Z" fill="#94959A"/>
<path d="M44.9654 41.9741C45.136 41.6682 45.0301 41.28 44.7183 41.1035C44.4124 40.927 44.0183 41.0388 43.8419 41.3447L40.1007 47.9447V47.9505C39.9301 48.2564 40.036 48.6447 40.3477 48.8211C40.6536 48.9976 41.0477 48.8858 41.2242 48.58L44.9654 41.9741Z" fill="#94959A"/>
<path d="M49.4771 44.3842C49.6477 44.0783 49.5418 43.6901 49.23 43.5136C48.9242 43.3372 48.53 43.4489 48.3536 43.7548L44.6124 50.3548V50.3607C44.4418 50.6666 44.5477 51.0548 44.8595 51.2313C45.1653 51.4078 45.5595 51.296 45.7359 50.9901L49.4771 44.3842Z" fill="#94959A"/>
<path d="M53.981 46.7983C54.1516 46.4924 54.0457 46.1042 53.734 45.9277C53.4281 45.7512 53.034 45.863 52.8575 46.1689L49.1163 52.7689V52.7748C48.9457 53.0806 49.0516 53.4689 49.3634 53.6454C49.6692 53.8218 50.0634 53.7101 50.2398 53.4042L53.981 46.7983Z" fill="#94959A"/>
<path opacity="0.05" d="M17.71 59.7695L42.963 73.7754C43.363 73.9989 43.8924 73.8165 44.1453 73.3754C47.3747 67.7518 50.61 62.0401 53.7512 56.3754C60.51 44.193 67.1394 31.7165 73.4747 19.3107C73.7041 18.8636 73.563 18.3224 73.1806 18.1107L71.6806 17.2812C65.51 29.3695 59.0394 41.4989 52.4688 53.346C50.3688 57.1342 48.2336 60.9401 46.0806 64.7224C44.2865 67.8695 40.3394 69.0518 37.11 67.4048L17.9806 57.6107C17.7983 57.9224 17.6277 58.2224 17.4512 58.5342C17.1865 59.0048 17.3159 59.5518 17.71 59.7695Z" fill="black"/>
<path d="M35.8308 30.9746C35.8308 30.9746 35.8308 30.9687 35.8367 30.9687L47.7249 8.95693C47.8955 8.64517 47.7779 8.25694 47.4661 8.08635C47.1543 7.91576 46.772 8.03341 46.6014 8.33929C46.6014 8.33929 46.6014 8.34517 46.5955 8.34517L34.7073 30.3569C34.5367 30.6687 34.6543 31.0569 34.9661 31.2275C35.2778 31.3981 35.6602 31.2863 35.8308 30.9746Z" fill="white"/>
<path d="M33.1882 35.5288C33.3588 35.2229 33.2529 34.8346 32.9412 34.6582C32.6353 34.4817 32.2412 34.5935 32.0647 34.8994L28.3235 41.4994C28.1529 41.7994 28.2588 42.1994 28.5647 42.3758C28.8706 42.5523 29.2647 42.4405 29.4412 42.1346L33.1882 35.5288Z" fill="white"/>
<path d="M26.7234 47.185C26.894 46.8791 26.7881 46.4909 26.4763 46.3144C26.1705 46.138 25.7763 46.2497 25.5999 46.5556L21.8587 53.1556C21.6881 53.4556 21.794 53.8556 22.0999 54.0321C22.4057 54.2085 22.7999 54.0968 22.9763 53.7909L26.7234 47.185C26.7175 47.1909 26.7175 47.1909 26.7234 47.185Z" fill="white"/>
<path opacity="0.15" d="M16.8999 61.2285L17.7352 61.6932C21.494 59.3638 25.2352 57.0226 28.6234 54.1873C30.494 52.6285 32.3882 50.8638 34.7823 50.4108C38.5764 49.6991 42.1882 52.5167 46.047 52.6108C49.6823 52.6932 52.9882 50.2932 55.1117 47.3402C57.2293 44.3755 58.4293 40.8814 59.8764 37.5461C61.3176 34.2049 63.1587 30.8696 66.1293 28.7755C67.6529 27.699 69.547 27.0461 71.4058 26.9814C72.594 24.6814 73.7882 22.3814 74.9587 20.0755C75.5999 18.8226 75.1646 17.3167 73.9882 16.6638L48.747 2.65788C47.5117 1.96964 45.9352 2.49905 45.2646 3.81082C35.9646 22.0167 26.2058 39.9873 16.0117 57.7049C15.2823 58.9696 15.6882 60.552 16.8999 61.2285Z" fill="white"/>
<path opacity="0.15" d="M22.9766 45.4461C28.2295 41.7049 34.7236 39.5579 40.9766 37.6343C43.1883 36.9579 45.4824 36.2343 47.1824 34.652C49.906 32.1108 50.5119 27.8579 53.2766 25.3461C56.0413 22.8285 60.1707 22.7285 63.7236 21.5285C67.0177 20.4108 69.9001 18.2814 72.2413 15.6873L48.7472 2.65788C47.5119 1.96964 45.9354 2.49905 45.2648 3.81082C38.1001 17.8343 30.6766 31.7108 22.9766 45.4461Z" fill="white"/>
<path opacity="0.15" d="M16.8999 61.2284L30.8646 68.9755C30.7823 67.446 30.8999 65.8931 31.1999 64.3931C31.9352 60.6813 33.7058 57.246 35.9058 54.1755C37.5411 51.8813 39.4705 49.6696 40.1058 46.9284C41.0705 42.7872 38.8411 38.5696 38.9764 34.3225C39.0646 31.4872 40.194 28.799 41.0587 26.0931C42.9764 20.0108 43.5293 13.6637 43.494 7.25781C34.7352 24.2872 25.5646 41.1049 16.0117 57.7049C15.2823 58.9696 15.6882 60.5519 16.8999 61.2284Z" fill="white"/>
<path d="M47.1363 74.8176C47.7304 58.0234 47.8892 41.2117 47.6245 24.4058C47.601 22.8058 46.2892 21.5234 44.6892 21.5234H8.14214C6.50685 21.5234 5.19509 22.8646 5.21862 24.4999C5.48332 41.2058 5.3245 57.9234 4.73626 74.6176C4.67744 76.2764 6.00097 77.647 7.65979 77.647H44.201C45.7833 77.647 47.0774 76.394 47.1363 74.8176Z" fill="#3366CC"/>
<path opacity="0.1" d="M46.1587 24.4353C46.147 23.6412 45.4823 22.9883 44.6881 22.9883H43.3705V59.5353C43.3705 66.8706 37.4234 72.8118 30.094 72.8118H6.25284C6.23519 73.4295 6.22343 74.053 6.1999 74.6648C6.18813 75.0648 6.32931 75.4471 6.61166 75.7353C6.88813 76.0236 7.25872 76.1824 7.65872 76.1824H44.1999C44.9881 76.1824 45.6411 75.5589 45.6705 74.7648C46.2587 58.0706 46.4234 41.1353 46.1587 24.4353Z" fill="black"/>
<path opacity="0.1" d="M47.6545 53.647C46.3486 52.5411 44.8663 51.6411 43.2545 51.0234C40.7898 50.0764 38.1192 49.7587 35.6016 48.9823C33.0781 48.1999 30.5545 46.8176 29.331 44.4705C28.2545 42.4058 28.3486 39.8823 27.3016 37.794C26.1134 35.4234 23.6722 33.9881 21.2957 32.794C16.1781 30.2234 10.7957 28.1764 5.24865 26.6999C5.24276 25.9705 5.23688 25.2293 5.21924 24.494C5.18982 22.8587 6.50159 21.5234 8.14276 21.5234H44.6898C46.2957 21.5234 47.5957 22.8117 47.6251 24.4058C47.7781 34.1529 47.7898 43.8999 47.6545 53.647Z" fill="white"/>
<path d="M25.0649 59.7048C21.9649 59.7048 19.3237 58.7812 17.3767 57.0106C15.2708 55.093 14.0649 52.2636 13.9884 49.0342C13.8414 43.0636 17.7002 36.5048 25.3649 35.5048C28.6178 35.0812 31.6002 35.9283 33.9943 37.9518C36.6767 40.2165 38.359 43.8048 38.5061 47.5459C38.712 52.9753 35.5943 59.0048 26.212 59.6577C25.8178 59.6871 25.4355 59.7048 25.0649 59.7048ZM25.5472 36.9577C18.7414 37.8401 15.3178 43.6812 15.4472 48.9989C15.5178 51.8224 16.5531 54.2812 18.359 55.9283C20.2414 57.6401 22.9178 58.4283 26.1061 58.2048C34.4414 57.6224 37.2178 52.3518 37.0355 47.6106C36.9061 44.2753 35.4178 41.0812 33.0414 39.0812C30.9708 37.3224 28.3767 36.5871 25.5472 36.9577Z" fill="#CEDEF5"/>
<path d="M25.7011 59.7067C24.7893 59.7067 23.9305 59.3891 23.2011 58.7655C21.3422 57.1832 20.2422 53.6361 20.1893 49.0302C20.1246 43.2949 21.8128 36.6243 25.6775 35.5361C26.6834 35.2538 27.6775 35.4479 28.5481 36.1008C31.0246 37.942 32.2128 43.189 32.2893 47.5773C32.3834 52.9714 30.8599 58.9832 26.3069 59.6714C26.1069 59.6891 25.9011 59.7067 25.7011 59.7067ZM26.0775 36.9361C23.1246 37.7655 21.5952 43.7773 21.654 49.0067C21.7011 53.0655 22.6599 56.3714 24.1481 57.642C24.7246 58.1302 25.3599 58.3185 26.0893 58.2067C29.7128 57.6596 30.9069 52.142 30.8246 47.5891C30.7422 42.8302 29.4422 38.5832 27.6716 37.2655C27.1658 36.889 26.6422 36.7832 26.0775 36.9361Z" fill="#CEDEF5"/>
<path d="M14.7383 47.3438L37.7853 46.8367L37.8176 48.3014L14.7705 48.8085L14.7383 47.3438Z" fill="#CEDEF5"/>
<path d="M16.7656 54.5583L35.2186 54.3369L35.2361 55.8016L16.7832 56.0231L16.7656 54.5583Z" fill="#CEDEF5"/>
<path d="M16.9609 40.5195L35.4139 40.2981L35.4315 41.7628L16.9785 41.9842L16.9609 40.5195Z" fill="#CEDEF5"/>
<path d="M25.4648 58.9297L25.5104 36.1532L26.9751 36.1561L26.9295 58.9326L25.4648 58.9297Z" fill="#CEDEF5"/>
<path d="M33.7726 26.9354H18.7138C18.3079 26.9354 17.9844 26.606 17.9844 26.206C17.9844 25.8001 18.3138 25.4766 18.7138 25.4766H33.7667C34.1726 25.4766 34.4961 25.806 34.4961 26.206C34.502 26.606 34.1726 26.9354 33.7726 26.9354Z" fill="#CEDEF5"/>
<path d="M38.5049 31.3534H13.9755C13.5696 31.3534 13.2461 31.0239 13.2461 30.6239C13.2461 30.2181 13.5755 29.8945 13.9755 29.8945H38.5049C38.9108 29.8945 39.2343 30.2239 39.2343 30.6239C39.2343 31.0239 38.9108 31.3534 38.5049 31.3534Z" fill="#CEDEF5"/>
<path d="M39.7896 69.6997H12.6955C12.4013 69.6997 12.1602 69.4585 12.1602 69.1644V67.1056C12.1602 66.8115 12.4013 66.5703 12.6955 66.5703H39.7837C40.0778 66.5703 40.319 66.8115 40.319 67.1056V69.1644C40.3249 69.4644 40.0837 69.6997 39.7896 69.6997Z" fill="#CEDEF5"/>
<path opacity="0.1" d="M47.6598 27.0293C45.8127 28.694 44.2715 30.7058 43.0833 32.894C40.8304 37.0587 39.7951 41.7999 39.4892 46.5293C39.3598 48.5234 39.1127 50.9176 37.3245 51.7999C36.5951 52.1646 35.7363 52.1823 34.9363 52.3764C33.1068 52.8234 31.6245 54.2293 30.7127 55.8705C29.7951 57.5117 29.3774 59.3764 29.0598 61.2293C28.701 63.2705 28.2833 65.594 26.5186 66.6823C25.1363 67.5411 23.3715 67.3293 21.7421 67.4705C19.0186 67.7176 16.4245 69.1176 14.7186 71.2587C13.2892 73.0529 12.5068 75.3529 12.5127 77.6411H7.65978C6.00684 77.6411 4.67743 76.2646 4.73625 74.6117C5.32449 57.9176 5.48331 41.1999 5.21861 24.494C5.1892 22.8587 6.50096 21.5234 8.14214 21.5234H44.6892C46.2951 21.5234 47.5951 22.8117 47.6245 24.4058C47.6363 25.2823 47.6539 26.1587 47.6598 27.0293Z" fill="white"/>
<path opacity="0.1" d="M38.99 21.5234C36.1253 22.4176 33.4606 23.9352 31.5371 26.1999C29.9547 28.0587 28.9547 30.3293 27.6783 32.4117C26.3959 34.4999 24.7136 36.4999 22.4018 37.2823C20.3489 37.9764 18.0253 37.6352 16.0489 38.5176C13.7547 39.5529 12.4489 41.994 11.6489 44.3764C10.1783 48.7529 9.86062 53.447 8.50767 57.8646C7.77826 60.2529 6.6312 62.6411 5.04297 64.547C5.37826 51.1999 5.43709 37.8411 5.22532 24.494C5.19591 22.8587 6.50768 21.5234 8.14885 21.5234H38.99Z" fill="white"/>
<path d="M64.9762 53.47C64.2409 56.1877 62.9644 58.723 61.9997 61.37C61.0409 64.0171 60.382 66.8818 60.9409 69.6406H53.635C54.1938 66.8818 53.535 64.0171 52.5762 61.37C51.6115 58.723 50.335 56.1877 49.5997 53.47C48.8644 50.7524 48.7173 47.7465 49.9526 45.2171C51.0173 43.0524 54.4997 41.1406 57.282 41.1406C60.0938 41.1406 63.3703 42.6936 64.6115 45.2171C65.8585 47.7465 65.7115 50.7524 64.9762 53.47Z" fill="#EF8E49"/>
<path opacity="0.1" d="M64.2331 53.525C63.7684 55.2368 63.1037 56.8603 62.386 58.5721C61.986 59.5426 61.5684 60.5544 61.1978 61.5662C60.1037 64.5956 59.6684 67.125 59.886 69.4015H58.3096C58.0978 67.125 58.5272 64.5956 59.6213 61.5662C59.9919 60.5544 60.4096 59.5426 60.8154 58.5721C61.5272 56.8603 62.1919 55.2368 62.6566 53.525C63.2272 51.4132 63.639 48.3603 62.3625 45.7485C61.4448 43.8897 59.0449 42.4426 56.5625 42.1779C56.8213 42.1426 57.0743 42.125 57.3154 42.125C60.0743 42.125 62.9213 43.6838 63.939 45.7485C65.2154 48.3603 64.8037 51.4191 64.2331 53.525Z" fill="black"/>
<path opacity="0.1" d="M64.9746 53.4681C64.504 55.2152 63.8099 56.8858 63.1217 58.5563C63.0217 58.474 62.9158 58.4093 62.804 58.3505C60.9217 57.2975 58.3746 57.821 56.657 56.5093C55.4982 55.621 55.0158 54.0916 54.904 52.6387C54.7864 51.1799 54.9746 49.7152 54.8217 48.2563C54.6158 46.2152 53.7393 44.2799 52.4688 42.6622C53.9217 41.7446 55.7158 41.1328 57.2864 41.1328C60.104 41.1328 63.3746 42.6858 64.6158 45.2152C65.857 47.7446 65.7099 50.7505 64.9746 53.4681Z" fill="white"/>
<path opacity="0.1" d="M65.1761 46.6799C63.9408 47.7152 62.7114 48.7446 61.4761 49.774C60.882 50.274 60.2643 50.7975 59.9761 51.5152C59.5232 52.6328 59.9585 53.8916 60.082 55.0916C60.2349 56.6269 59.8291 58.2093 58.9585 59.4858C58.2585 60.5093 57.2526 61.3681 56.9055 62.5622C56.6349 63.474 56.7879 64.4387 56.8173 65.3858C56.8585 66.8387 56.5643 68.3034 55.9879 69.6387H53.6467C54.2055 66.8799 53.5467 64.0152 52.5879 61.3681C51.6232 58.721 50.3467 56.1858 49.6114 53.4681C48.8761 50.7505 48.7291 47.7446 49.9643 45.2152C51.0291 43.0505 54.5114 41.1328 57.2938 41.1328C60.1114 41.1328 63.382 42.6858 64.6232 45.2152C64.8526 45.6858 65.0349 46.1799 65.1761 46.6799Z" fill="white"/>
<path opacity="0.1" d="M60.2919 41.6803C60.0742 42.8156 59.8566 43.9568 59.6389 45.098C59.3566 46.5627 59.0213 48.1215 57.9683 49.1803C57.0507 50.098 55.686 50.5156 54.8919 51.5451C54.0919 52.5921 54.0625 54.0451 54.3095 55.3392C54.5625 56.6333 55.0625 57.8803 55.1919 59.1921C55.3801 61.0803 54.6978 62.9862 53.4742 64.4333C53.2507 63.398 52.9272 62.3745 52.5683 61.3803C51.6036 58.7333 50.3272 56.198 49.5919 53.4803C48.8566 50.7627 48.7095 47.7568 49.9448 45.2274C51.0095 43.0627 54.4919 41.1451 57.2742 41.1451C58.2683 41.1333 59.3036 41.3215 60.2919 41.6803Z" fill="white"/>
<path d="M72.4832 72.7578L41.8949 72.8755C41.5597 72.8755 41.2891 73.146 41.2891 73.4813V75.7813C41.2891 76.8108 42.1244 77.646 43.1597 77.646L71.2361 77.5402C72.2596 77.5343 73.0891 76.7049 73.0891 75.6755V73.3637C73.0949 73.0284 72.8185 72.7578 72.4832 72.7578Z" fill="#404042"/>
<path d="M39.1642 74.8378C39.1172 74.2437 39.1054 73.6437 39.129 73.0495C39.2054 70.9966 40.8995 69.3672 42.9525 69.3672H71.429C73.4878 69.3672 75.1819 70.9907 75.2525 73.0495C75.276 73.6437 75.2643 74.2437 75.2172 74.8378C75.1701 75.4554 74.6584 75.9319 74.0407 75.9319H40.3407C39.7231 75.9319 39.2113 75.4495 39.1642 74.8378Z" fill="#FFDF18"/>
<path opacity="0.1" d="M75.2276 74.6221C73.2923 73.5162 71.0041 73.028 68.7864 73.3045C67.2512 73.4986 65.7159 74.028 64.1982 73.7456C62.5747 73.4456 61.2747 72.2692 59.7806 71.5574C56.0629 69.7868 51.6806 71.0574 47.5688 70.7809C45.6335 70.6515 43.7747 70.175 41.957 69.4986C42.2747 69.4103 42.61 69.3633 42.9511 69.3633H71.4276C73.4806 69.3633 75.1747 70.9927 75.2511 73.0456C75.2747 73.575 75.2629 74.0986 75.2276 74.6221Z" fill="white"/>
<path opacity="0.1" d="M72.276 69.4633C71.5878 69.8045 70.9054 70.1692 70.2348 70.5339C67.5113 72.028 64.776 73.6515 61.729 74.2456C59.676 74.6456 57.5407 74.5633 55.5231 75.1162C54.776 75.3221 54.0525 75.6103 53.3466 75.9339H40.3407C39.7231 75.9339 39.2113 75.4515 39.1642 74.8339C39.1172 74.2398 39.1054 73.6456 39.129 73.0456C39.2054 70.9927 40.8995 69.3633 42.9525 69.3633H71.429C71.7172 69.3633 72.0054 69.3986 72.276 69.4633Z" fill="white"/>
<path opacity="0.1" d="M74.9217 74.8084C74.8864 75.2731 74.4982 75.6378 74.0393 75.6378H40.3393C39.904 75.6378 39.5276 75.3084 39.4688 74.8731C39.504 74.8848 39.5452 74.8848 39.5864 74.8848H71.757C73.1217 74.8848 74.2511 73.7672 74.2099 72.4025C74.2099 72.3554 74.2099 72.3084 74.204 72.2554C74.1746 71.5495 73.9393 70.9025 73.5511 70.3672C74.3746 70.979 74.9158 71.9495 74.957 73.0554C74.9805 73.6378 74.9688 74.2319 74.9217 74.8084Z" fill="black"/>
<path opacity="0.1" d="M74.1995 70.5574C71.429 71.9986 68.5054 73.0927 65.4348 72.9045C63.1937 72.7692 60.9584 71.9456 58.7525 72.3574C56.8642 72.7103 55.2231 73.9339 53.3348 74.2809C51.5584 74.6045 49.7466 74.1221 47.9642 73.8515C46.176 73.5809 44.1937 73.5692 42.7525 74.6633C42.2642 75.0398 41.8642 75.528 41.3937 75.9339H40.3407C39.7231 75.9339 39.2113 75.4515 39.1642 74.8339C39.1172 74.2398 39.1054 73.6456 39.129 73.0456C39.2054 70.9927 40.8995 69.3633 42.9525 69.3633H71.429C72.5172 69.3633 73.5054 69.8221 74.1995 70.5574Z" fill="white"/>
</svg>
