<svg width="422" height="547" viewBox="0 0 422 547" fill="none" xmlns="http://www.w3.org/2000/svg">
<g clip-path="url(#clip0_4198_7335)">
<rect width="422" height="546" transform="translate(0 0.799805)" fill="#000355"/>
<path d="M521.64 1148.87C520.903 1145.12 520.166 1141.36 519.38 1137.8C509.554 1091.07 497.517 1051.85 487.249 1006.44C467.99 921.251 455.363 814.666 451.286 703.202C449.812 663.045 450.843 612.755 460.473 595.679C464.747 587.985 469.709 589.486 474.426 587.047C479.142 584.608 484.301 575.975 485.529 558.524C486.61 543.324 484.35 528.125 482.336 514.239C469.464 425.481 471.036 341.226 469.562 244.024C468.137 153.389 463.519 61.2533 450.696 -16.6212C441.116 -74.7926 427.015 -124.895 423.085 -192.073C418.172 -275.577 430.553 -360.02 445.537 -423.633C460.522 -487.246 478.749 -541.477 489.705 -616.161C501.448 -696.1 503.56 -793.302 499.089 -883.374C494.569 -973.446 483.859 -1057.51 471.183 -1135.39C469.169 -1147.77 466.123 -1161.66 462.389 -1158.66C459.245 -1156.03 457.623 -1141.58 458.164 -1129.38C458.704 -1117.19 460.719 -1106.86 462.585 -1096.92C485.726 -972.883 491.965 -805.312 478.749 -661.76C469.906 -565.308 450.549 -475.424 424.313 -455.721C419.056 -451.78 412.915 -451.78 409.23 -466.605C404.906 -483.868 406.282 -513.705 410.507 -531.156C414.733 -548.607 420.874 -556.864 426.819 -563.995C432.763 -571.125 438.954 -578.444 443.425 -594.957C450.647 -621.603 451.531 -664.199 450.991 -702.667C450.45 -741.136 449.124 -781.48 453.447 -816.008C455.953 -835.899 460.08 -851.849 463.568 -869.488C467.056 -887.127 470.102 -907.768 469.66 -929.911C469.218 -951.866 464.059 -973.446 458.36 -969.88C451.728 -965.564 449.271 -934.79 448.141 -909.457C446.274 -866.486 444.407 -823.326 442.54 -780.354C440.477 -732.879 438.119 -682.777 429.816 -646.748C420.776 -607.529 406.135 -591.767 397.586 -550.859C390.511 -517.082 388.841 -467.918 393.41 -428.324C396.702 -399.614 402.892 -376.533 405.643 -347.072C409.476 -305.977 405.987 -261.129 404.268 -217.969C401.271 -142.159 413.946 -78.1702 426.082 -24.3148C437.775 27.6641 459.294 151.7 448.289 222.444C443.081 255.846 432.272 262.976 423.33 273.297C412.129 286.245 402.597 311.015 393.95 340.663C384.714 372.376 376.362 407.842 367.813 441.994C354.204 496.037 338.728 537.883 322.073 578.603C307.039 615.382 291.809 651.411 277.02 689.691C259.481 735.102 241.99 781.076 224.058 824.048C209.81 858.388 194.187 888.975 176.942 891.415C161.417 893.666 149.282 877.341 135.967 848.818C117.101 808.474 98.3334 767.566 79.1726 729.473C51.9053 675.242 27.3401 634.147 -3.7102 636.398C-18.2528 637.524 -32.8936 641.277 -47.387 645.406C-61.0453 649.159 -76.9635 656.102 -90.5726 674.304C-113.418 704.703 -109.881 781.827 -101.627 847.317C-96.2717 889.913 -90.2287 931.008 -83.5469 970.602C-79.3709 995.185 -75.7352 1013.57 -72.5417 1025.21C-63.9931 1057.11 -54.4618 1089.38 -47.7309 1125.04C-38.1997 1175.33 -28.0297 1227.12 -23.9027 1290.54C-18.6458 1371.23 -35.3992 1401.07 -40.5579 1467.5C-41.6879 1482.13 -39.8701 1497.9 -35.2519 1493.58C-28.8158 1487.58 -21.9375 1459.99 -17.9089 1439.54C-7.00194 1384.56 -7.78802 1323.76 -12.7502 1261.08C-16.2384 1216.99 -20.955 1176.83 -26.8997 1140.24C-32.7954 1104.21 -36.5784 1081.88 -38.2979 1072.68C-43.7023 1044.35 -50.0892 1026.15 -56.6727 1005.13C-64.5335 980.172 -68.6605 962.346 -72.4926 928.006C-76.8652 888.975 -86.0526 809.412 -80.8939 773.195C-76.4722 742.233 -61.684 728.159 -53.5283 720.466C-40.3614 708.081 -26.998 699.824 -13.438 695.508C8.22844 688.753 30.6319 706.017 50.3822 735.665C66.7426 760.06 83.0539 790.834 99.2669 827.614C120.393 875.464 136.262 914.12 156.405 938.514C180.234 967.412 207.452 953.151 227.153 893.103C237.176 862.516 243.808 842.438 247.198 832.868C260.513 794.587 274.76 762.499 289.942 736.416C298.097 722.342 307.579 708.456 317.111 692.506C328.558 673.178 338.482 647.095 346.982 614.068C351.747 595.491 357.103 566.03 361.131 548.391C365.799 528.125 370.319 512.175 374.74 500.728C378.966 489.657 382.65 478.586 385.795 467.327C391.101 448.374 396.26 419.664 401.222 395.645C408.69 359.616 424.362 311.39 437.431 320.96C458.459 336.347 448.19 459.445 443.179 506.545C436.645 567.906 427.113 627.392 425.836 694.945C424.903 745.611 428.98 796.089 434.827 841.687C451.826 974.918 482.581 1073.06 507.54 1186.59C513.878 1215.3 520.019 1246.82 521.787 1283.79C525.276 1357.72 510.242 1435.03 517.022 1505.59C517.759 1513.28 519.036 1521.54 521.149 1523.42C523.605 1525.48 526.013 1517.22 526.799 1508.03C527.585 1498.84 527.192 1488.89 527.044 1479.13C526.16 1418.15 535.446 1361.1 536.133 1299.93C536.87 1246.26 530.385 1193.34 521.64 1148.87ZM457.279 34.4196C457.181 34.4196 457.132 34.4196 457.034 34.4196C457.034 34.4196 457.23 34.4196 457.279 34.4196Z" fill="#000361"/>
<path d="M437.037 -1279.88C431.436 -1321.91 423.33 -1356.06 412.619 -1382.33C407.018 -1396.03 399.501 -1409.73 393.016 -1406.92C383.583 -1402.98 377.196 -1366.38 372.578 -1338.61C369.778 -1321.72 364.865 -1289.26 357.937 -1241.6C349.487 -1183.43 340.692 -1139.14 322.809 -1122.82C310.576 -1111.74 291.759 -1101.24 284.045 -1057.7C281.785 -1044.75 282.276 -1029.18 285.568 -1019.98C293.183 -998.967 308.021 -1044.38 314.211 -1060.14C319.566 -1073.84 326.739 -1086.79 332.93 -1074.03C335.779 -1068.02 338.678 -1054.14 341.184 -1047C348.848 -1025.24 356.709 -1047.19 358.625 -1077.4C359.215 -1086.6 359.804 -1098.61 360.492 -1113.81C363.145 -1174.98 369.139 -1235.22 379.063 -1285.13C384.124 -1310.46 390.953 -1333.92 399.894 -1328.85C412.374 -1321.91 422.298 -1262.24 425.933 -1220.21C431.633 -1154.34 426.277 -1092.04 421.757 -1024.86C419.252 -987.708 417.974 -937.23 415.272 -890.693C413.405 -858.792 409.966 -829.894 404.955 -804.374C400.926 -783.733 394.588 -761.215 389.184 -740.948C383.534 -719.556 379.161 -695.162 376.066 -667.578C374.592 -654.63 373.266 -637.554 371.89 -622.542C367.763 -576.005 362.162 -534.159 361.917 -486.121C361.868 -477.677 362.113 -463.04 362.703 -442.398C363.587 -410.686 364.422 -379.911 364.324 -347.072C364.128 -289.089 363.636 -239.549 367.763 -186.632C369.974 -158.297 373.217 -131.276 376.852 -105.193C380.439 -79.2969 384.369 -54.3394 388.054 -28.6313C391.837 -2.17285 395.424 25.0364 397.634 53.9343C398.126 60.6897 398.568 67.4452 398.961 74.2006C399.305 80.5807 399.452 87.1483 399.845 93.3407C400.386 108.353 401.024 161.833 408.443 152.075C413.798 144.944 414.683 109.291 414.241 91.6521C413.848 76.2648 412.865 60.8772 411.538 46.2405C410.212 31.6039 408.198 18.281 406.625 4.20728C404.906 -10.6171 402.793 -25.0659 400.828 -39.3273C398.961 -53.0258 397.094 -66.5366 395.276 -80.235C393.851 -90.931 392.427 -101.627 391.1 -112.511C380.881 -196.953 377.688 -289.464 374.789 -383.101C374.003 -409.372 373.561 -424.009 373.511 -426.823C371.645 -512.579 378.081 -581.259 387.514 -658.383C391.935 -694.411 397.536 -724.811 404.267 -749.956C407.411 -761.59 412.226 -775.288 415.37 -785.984C424.312 -816.008 428.881 -860.669 429.815 -905.142C430.061 -915.275 430.208 -930.287 430.257 -949.99C430.454 -1007.22 434.531 -1058.64 438.904 -1113.06C443.178 -1166.73 443.817 -1228.84 437.037 -1279.88Z" fill="#000361"/>
<path d="M348.31 -377.47C347.23 -404.116 345.117 -437.893 344.233 -468.292C343.545 -493.062 343.103 -521.772 341.776 -542.789C336.716 -623.103 317.85 -685.027 297.51 -706.607C292.449 -711.861 287.438 -717.303 282.378 -722.557C260.711 -745.075 241.157 -785.232 220.916 -820.885C216.789 -828.203 212.907 -834.208 209.272 -838.712C186.426 -867.797 159.896 -858.04 140.391 -800.994C130.761 -772.847 122.115 -737.944 114.942 -700.789C101.726 -632.11 95.3385 -549.732 108.653 -472.045C118.626 -414.061 134.643 -367.899 150.561 -338.063C165.251 -310.666 179.892 -282.894 194.484 -255.122C201.509 -241.799 207.552 -228.663 212.613 -215.716C222.783 -189.82 231.577 -153.604 239.192 -115.886C243.958 -92.2424 248.036 -66.7222 251.327 -39.513C254.717 -11.5532 257.223 17.9079 258.992 47.9318C260.662 77.0175 261.546 106.666 261.399 136.502C261.252 162.585 260.318 188.481 258.5 213.626C256.682 238.396 253.882 262.04 250.099 283.432C247.151 299.945 243.614 314.769 239.536 327.342C219.933 388.515 195.859 416.1 171.589 440.119C168.15 443.497 161.959 452.129 160.829 466.015C159.306 484.967 165.546 491.347 169.378 493.224C180.776 498.478 191.241 489.283 201.706 467.14C216.74 435.24 231.036 399.587 244.646 359.805C248.576 348.358 251.524 338.976 253.538 331.845C258.746 313.08 263.217 291.313 266.705 267.294C270.046 244.213 272.404 219.255 273.829 193.547C275.254 167.464 275.745 140.818 275.499 114.172C275.205 84.8988 274.025 55.6254 271.864 27.478C269.555 -1.98297 266.165 -30.6934 262.234 -57.5273C258.451 -83.6106 253.98 -108.193 248.92 -130.898C248.33 -133.713 247.692 -136.34 247.053 -138.967C233.64 -196.576 218.656 -243.3 202.295 -291.338C190.995 -324.552 179.548 -353.075 168.051 -377.094C160.878 -392.106 153.705 -407.118 146.532 -422.318C135.724 -445.211 126.929 -474.672 121.82 -518.394C111.797 -604.338 125.996 -694.409 143.879 -744.324C158.373 -784.856 176.404 -813.004 194.484 -798.93C202.443 -792.738 210.107 -783.355 217.526 -770.97C239.29 -734.379 259.876 -685.778 282.771 -662.509C287.192 -658.005 293.039 -654.065 298.492 -649.561C315.59 -634.925 328.069 -591.765 329.69 -522.522C330.034 -508.261 330.329 -494 330.574 -479.738C331.017 -453.092 332.884 -432.263 334.407 -408.619C335.93 -384.788 336.716 -359.643 337.649 -335.061C338.141 -322.488 339.713 -293.215 343.79 -290.4C351.799 -285.521 348.9 -362.833 348.31 -377.47Z" fill="#000361"/>
<path d="M368.745 152.263C367.517 95.2175 363.39 37.9845 357.74 -14.3696C347.865 -106.318 333.076 -189.259 318.043 -270.511C286.501 -440.709 249.801 -616.161 197.477 -675.646C188.289 -686.155 178.512 -692.722 169.079 -685.967C159.646 -679.212 150.557 -657.257 146.774 -623.48C140.191 -564.745 151.982 -496.816 166.623 -466.042C181.313 -435.267 198.508 -427.573 214.034 -403.367C247.295 -351.2 268.765 -229.228 288.27 -113.824C297.948 -56.4031 307.971 4.02002 309.445 72.1367C312.049 191.482 288.466 293.188 266.505 378.756C252.061 434.863 237.42 491.721 219.684 531.69C201.948 571.66 180.379 593.239 160.482 573.161C134.786 547.265 117.1 460.571 100.788 380.633C84.4771 300.694 65.1688 216.627 38.9333 201.24C25.5698 193.358 11.9116 204.805 -1.59924 201.24C-15.1101 197.674 -29.9965 172.717 -33.6813 122.99C-35.5482 97.4696 -35.4009 62.5665 -42.0335 54.3101C-48.1747 46.8041 -53.7265 72.8873 -54.7582 97.0941C-57.0673 151.888 -46.8482 205.743 -33.9269 231.264C-21.0057 256.784 -5.97182 260.162 8.61989 261.85C23.1624 263.539 38.0981 264.29 51.5598 285.307C87.3266 341.226 100.248 516.678 133.46 592.114C156.6 644.655 186.521 639.026 211.331 599.056C236.142 559.087 256.728 488.718 275.496 414.972C297.85 327.152 319.467 222.444 320.548 99.9089C321.58 -19.8114 302.812 -127.334 284.683 -225.1C263.999 -336.939 239.925 -456.659 204.846 -484.807C196.838 -491.187 188.388 -492.688 181.067 -506.949C173.796 -521.211 168.048 -554.237 171.045 -583.323C173.354 -605.465 180.035 -617.287 186.324 -616.912C192.564 -616.537 198.459 -606.403 204.06 -595.707C242.185 -522.899 275.594 -415.376 301.486 -286.086C314.407 -221.534 324.429 -153.605 332.978 -80.047C343.001 6.27185 354.939 88.0872 355.283 185.477C355.332 200.302 355.136 215.126 354.595 229.95C351.5 318.896 335.336 431.861 313.916 474.645C308.904 484.59 302.665 494.536 298.243 503.73C285.617 529.814 275.152 565.655 264.097 599.995C254.173 630.769 244.003 655.539 233.686 674.116C222.631 694.007 210.595 705.829 198.361 716.712C186.226 727.596 174.926 736.791 164.461 744.297C152.375 753.116 141.026 747.487 130.954 719.715C120.391 690.629 110.958 652.536 102.017 616.32C92.1905 576.726 82.4136 537.32 72.6367 497.726C60.6489 449.125 46.5976 402.4 30.8759 378.193C11.7151 348.732 -6.16835 369.937 -25.2309 384.761C-46.5043 401.462 -79.4707 409.718 -77.1616 284.181C-75.7368 206.118 -72.4943 135.187 -83.9416 64.2555C-99.4177 -31.6333 -137.739 -102.753 -127.324 -238.611C-123 -295.093 -106.05 -298.096 -93.522 -296.031C-80.6008 -293.967 -67.7777 -286.461 -54.8565 -285.335C-42.5739 -284.21 -30.4387 -292.278 -18.3036 -296.97C2.18379 -304.851 22.9659 -276.703 35.9363 -214.779C37.1154 -209.15 39.5228 -197.515 43.1093 -179.689C45.4185 -168.43 49.4963 -150.603 53.7706 -154.356C59.7154 -159.61 55.3428 -191.698 53.4759 -202.957C46.6959 -243.49 38.6877 -285.711 28.9107 -313.107C13.8768 -355.329 -6.61053 -343.694 -23.9535 -340.504C-38.1522 -337.877 -52.4491 -339.378 -66.5986 -343.882C-73.919 -346.134 -97.0594 -352.138 -95.6346 -396.799C-93.8659 -452.531 -63.4543 -487.621 -51.8595 -501.508C-39.0856 -516.707 -29.9474 -527.966 -21.104 -546.919C-6.61052 -577.881 7.2442 -612.596 20.5094 -650.876C36.6733 -697.601 51.1176 -750.518 64.4319 -808.877C72.1454 -842.654 79.0727 -878.871 84.5753 -918.652C86.1966 -930.474 87.8179 -942.108 89.4392 -953.743C97.9388 -1014.92 110.369 -1058.83 126.68 -1085.47C128.793 -1088.85 132.379 -1093.73 137.538 -1100.3C171.045 -1142.14 204.06 -1196.56 245.231 -1261.11C255.057 -1276.5 262.181 -1292.07 270.288 -1318.35C284.437 -1363.94 298.538 -1414.99 315.537 -1445.01C320.646 -1454.02 327.033 -1461.15 332.831 -1468.65C340.888 -1479.16 347.963 -1495.67 354.006 -1518.57C356.512 -1527.95 359.263 -1539.02 358.477 -1553.66C357.691 -1567.73 353.269 -1565.67 350.911 -1559.66C345.555 -1545.78 341.576 -1526.64 335.975 -1512.56C330.767 -1499.43 324.921 -1489.67 318.485 -1482.91C305.956 -1469.97 295.688 -1454.02 285.518 -1425.12C258.3 -1347.99 230.05 -1283.07 197.919 -1237.66C175.516 -1205.94 149.034 -1185.49 125.943 -1214.76C121.816 -1220.02 116.854 -1231.65 112.236 -1236.72C103.687 -1245.91 92.7801 -1248.54 83.4454 -1253.04C66.0041 -1261.68 50.2333 -1285.69 36.0837 -1325.1C25.7172 -1354.19 15.0068 -1381.4 4.05074 -1407.1C-1.40273 -1419.86 -6.21747 -1429.06 -10.2953 -1434.88C-22.9218 -1452.33 -46.8973 -1452.51 -55.5934 -1403.16C-58.0499 -1389.09 -59.0817 -1373.33 -58.6395 -1355.88C-57.0182 -1288.7 -26.3118 -1238.59 -12.2605 -1214.76C-4.94008 -1202.38 3.70683 -1185.49 7.98117 -1160.34C8.96378 -1154.53 10.0938 -1144.96 11.2729 -1131.82C13.4838 -1107.43 15.7929 -1083.03 18.2003 -1058.83C21.5903 -1024.67 23.5063 -991.648 18.9864 -957.12C16.4316 -937.98 8.66901 -898.198 10.0938 -879.996C11.4694 -862.92 15.9403 -866.11 18.8881 -874.179C34.659 -917.339 37.9015 -982.641 32.055 -1051.32C29.8441 -1076.84 27.8789 -1098.8 27.142 -1122.81C26.6015 -1140.27 26.3068 -1159.59 24.9803 -1174.23C20.5586 -1223.21 6.85121 -1248.54 -4.74353 -1265.99C-16.7313 -1284.19 -30.9792 -1298.64 -40.4613 -1333.73C-43.36 -1344.43 -44.5883 -1360.57 -41.3948 -1372.39C-38.0048 -1384.77 -31.3722 -1386.27 -26.8031 -1384.77C-12.7027 -1380.08 -0.174454 -1361.32 10.6342 -1328.48C11.0273 -1327.35 13.5821 -1318.35 18.3968 -1301.64C36.2803 -1239.35 61.1402 -1205.57 84.9684 -1194.87C94.5488 -1190.56 104.326 -1187.55 113.71 -1179.86C117.64 -1176.67 123.241 -1170.1 125.206 -1160.16C128.301 -1144.58 124.518 -1129.19 120.735 -1123.19C117.984 -1118.87 115.134 -1116.25 112.137 -1115.68C97.2509 -1112.31 83.7401 -1125.44 69.4923 -1138.58C63.1054 -1144.39 49.6437 -1155.47 45.5658 -1138.2C41.0459 -1119.25 43.6989 -1105.18 48.268 -1094.85C57.2097 -1074.78 72.6366 -1075.71 79.2201 -1037.81C85.4105 -1002.16 76.2232 -952.054 70.4749 -923.719C60.5506 -874.555 49.8893 -828.018 38.5403 -783.732C22.5238 -721.433 5.27905 -681.276 -15.0609 -646.748C-38.4469 -606.967 -63.2577 -568.311 -84.3346 -519.522C-96.0276 -492.5 -105.854 -457.222 -109.342 -405.619C-111.455 -374.281 -113.911 -354.015 -119.561 -333.374C-122.411 -322.865 -128.454 -304.288 -132.089 -293.967C-146.091 -254.561 -142.554 -177.625 -137.051 -125.458C-135.627 -111.947 -134.055 -98.8118 -132.286 -86.0516C-126.439 -43.4552 -117.792 -9.49072 -109.096 24.8491C-101.432 55.2483 -93.8168 86.9613 -89.2477 125.429C-80.1094 202.366 -95.5364 283.805 -86.742 358.865C-81.3868 404.839 -68.613 443.12 -55.9374 454.566C-48.6661 461.134 -41.3456 460.571 -33.9761 452.69C-27.4417 445.747 -21.1531 433.362 -14.8152 427.92C12.4029 404.839 38.2455 463.761 57.4063 533.567C82.9541 626.829 105.8 719.527 136.408 784.829C147.56 808.661 157.878 822.922 170.553 804.532C179.544 791.397 186.521 781.827 191.434 775.635C206.615 756.87 222.14 740.168 236.879 717.088C248.228 699.261 257.367 673.741 266.652 642.404C275.053 614.069 284.094 582.356 294.214 563.966C298.931 555.334 305.072 546.89 309.445 538.258C319.959 517.429 330.522 486.842 337.646 450.25C343.492 420.226 350.469 392.454 355.971 361.305C367.025 298.817 370.268 225.634 368.745 152.263Z" fill="#000361"/>
<path d="M157.288 110.228C140.092 103.66 122.946 90.3368 106.88 65.567C99.0191 53.5575 91.6987 32.7286 83.494 25.4103C75.2401 18.0919 68.0179 16.7782 60.5501 -1.98676C58.2901 -7.61623 56.1775 -14.1838 54.2614 -21.5021C51.068 -33.6993 45.8602 -57.5309 41.6841 -75.3576C21.7863 -161.113 -9.70622 -212.529 -39.8231 -193.764C-44.5887 -190.762 -49.944 -186.446 -54.2674 -186.258C-64.3883 -185.883 -73.9687 -205.399 -82.0752 -221.161C-84.6299 -226.04 -89.543 -232.796 -92.0978 -226.228C-94.4069 -220.411 -93.7191 -208.026 -92.0486 -201.083C-87.9708 -184.007 -80.3556 -171.246 -74.7547 -162.99C-62.0791 -144.788 -50.9266 -154.921 -38.2018 -163.177C-19.5323 -175.187 3.46069 -143.474 19.428 -106.507C31.9071 -77.6094 36.6728 -26.381 48.1201 6.64531C60.6975 42.8616 75.977 62.7525 90.7652 81.7051C116.067 114.168 141.369 146.444 166.672 178.908C171.142 184.537 176.645 189.603 180.035 177.218C183.72 163.708 181.853 138.188 177.726 126.741C173.599 115.294 168.195 113.981 163.085 112.479C161.12 111.729 159.204 110.978 157.288 110.228Z" fill="#000361"/>
<path d="M227.642 103.852C224.449 92.0297 221.059 81.3334 217.325 71.7633C203.961 37.4235 190.991 2.33307 175.466 -16.4319C169.177 -24.1255 161.316 -28.8167 153.848 -34.6338C108.747 -70.6625 88.5541 -209.523 67.0842 -347.07C57.4055 -409.182 43.9438 -455.719 24.7339 -467.916C17.2169 -472.608 -5.67781 -480.489 -11.0821 -454.218C-12.7034 -446.337 -12.3596 -435.078 -10.4435 -428.135C-6.02176 -411.809 6.26083 -411.621 12.353 -409.745C17.6591 -408.056 21.393 -406.18 23.6038 -404.303C39.4238 -390.417 48.5129 -351.949 57.8968 -304.099C66.5929 -259.626 74.2081 -219.656 80.7424 -183.815C87.375 -147.411 91.9932 -122.641 94.4989 -109.318C102.507 -67.2849 110.908 -40.8263 124.174 -26.7526C139.306 -10.8024 154.438 9.46393 169.226 30.6683C183.72 51.4974 198.508 71.0129 211.232 105.728C220.616 131.436 227.052 174.97 221.157 217.567C217.423 244.776 209.611 262.415 202.094 275.363C186.766 301.822 171.093 317.021 155.126 320.774C143.04 323.589 132.28 311.204 122.749 283.807C115.134 261.852 108.599 235.769 101.574 211.187C90.6176 172.906 76.2224 132.937 62.3185 120.927C54.7033 114.36 45.7125 108.543 39.2764 99.3477C22.3265 75.3286 13.3848 19.4092 0.954781 -26.002C-10.8856 -69.349 -24.8387 -90.5533 -40.9534 -89.8028C-55.496 -89.0522 -68.5155 -70.8503 -82.2228 -88.3017C-85.662 -92.6176 -94.8493 -114.76 -97.8954 -102.563C-99.7624 -95.2447 -97.9937 -82.8599 -96.4706 -77.0427C-87.7254 -42.7029 -75.5411 -37.6362 -63.7007 -44.9545C-57.9033 -48.5198 -52.0568 -53.0235 -47.3403 -54.1494C-33.7804 -57.3394 -21.2522 -37.824 -10.4435 -7.80005C0.266922 22.0362 8.61912 61.0674 18.5926 93.9061C25.7656 117.55 33.9212 135.189 43.1577 143.633C48.9551 148.887 54.7033 153.954 60.5007 158.832C74.945 171.03 87.0311 198.239 96.7097 240.648C103.588 270.484 109.975 301.259 118.327 325.653C132.722 367.499 148.984 381.948 167.064 368.437C181.017 358.117 194.479 342.166 207.499 320.211C218.258 302.197 229.509 275.926 234.275 232.767C239.335 189.044 236.633 137.628 227.642 103.852Z" fill="#000361"/>
<path d="M157.288 110.228C140.092 103.66 122.946 90.3368 106.88 65.567C99.0191 53.5575 91.6987 32.7286 83.494 25.4103C75.2401 18.0919 68.0179 16.7782 60.5501 -1.98676C58.2901 -7.61623 56.1775 -14.1838 54.2614 -21.5021C51.068 -33.6993 45.8602 -57.5309 41.6841 -75.3576C21.7863 -161.113 -9.70622 -212.529 -39.8231 -193.764C-44.5887 -190.762 -49.944 -186.446 -54.2674 -186.258C-64.3883 -185.883 -73.9687 -205.399 -82.0752 -221.161C-84.6299 -226.04 -89.543 -232.796 -92.0978 -226.228C-94.4069 -220.411 -93.7191 -208.026 -92.0486 -201.083C-87.9708 -184.007 -80.3556 -171.246 -74.7547 -162.99C-62.0791 -144.788 -50.9266 -154.921 -38.2018 -163.177C-19.5323 -175.187 3.46069 -143.474 19.428 -106.507C31.9071 -77.6094 36.6728 -26.381 48.1201 6.64531C60.6975 42.8616 75.977 62.7525 90.7652 81.7051C116.067 114.168 141.369 146.444 166.672 178.908C171.142 184.537 176.645 189.603 180.035 177.218C183.72 163.708 181.853 138.188 177.726 126.741C173.599 115.294 168.195 113.981 163.085 112.479C161.12 111.729 159.204 110.978 157.288 110.228Z" fill="#000361"/>
</g>
<defs>
<clipPath id="clip0_4198_7335">
<rect width="422" height="546" fill="white" transform="translate(0 0.799805)"/>
</clipPath>
</defs>
</svg>
