<svg width="52" height="52" viewBox="0 0 52 52" fill="none" xmlns="http://www.w3.org/2000/svg">
<rect width="52" height="52" rx="8" fill="#15186C"/>
<path fill-rule="evenodd" clip-rule="evenodd" d="M14.5682 24.7945C14.2058 25.1322 14 25.6054 14 26.1007V36.3214C14 37.8007 15.1992 39 16.6786 39H24.7143V33.6429C24.7143 32.6566 25.5138 31.8571 26.5 31.8571C27.4862 31.8571 28.2857 32.6566 28.2857 33.6429V39H36.3214C37.8007 39 39 37.8007 39 36.3214L38.6817 37.5889C38.6817 37.0935 38.7943 25.1322 38.4318 24.7945L27.0811 14.2149C26.7467 13.9284 26.2533 13.9283 25.9189 14.2149L14.5682 24.7945Z" fill="white"/>
</svg>
