<svg width="52" height="52" viewBox="0 0 52 52" fill="none" xmlns="http://www.w3.org/2000/svg">
<rect width="52" height="52" rx="8" fill="#15186C"/>
<g clip-path="url(#clip0_11534_151)">
<g clip-path="url(#clip1_11534_151)">
<path fill-rule="evenodd" clip-rule="evenodd" d="M38.9385 30.8839C38.9385 36.5624 33.7948 39.1137 26.5937 39.1137C19.3927 39.1137 14.249 36.5624 14.249 30.9251C14.249 24.7527 17.3352 21.6252 23.5076 18.4978L21.3218 14.4288C21.1914 14.2249 21.1188 13.9894 21.1117 13.7474C21.1047 13.5055 21.1634 13.2662 21.2817 13.055C21.3999 12.8438 21.5733 12.6687 21.7833 12.5483C21.9932 12.4279 22.2319 12.3667 22.4739 12.3713H31.1975C31.4244 12.3771 31.6461 12.4405 31.8417 12.5556C32.0373 12.6707 32.2004 12.8336 32.3156 13.0291C32.4308 13.2246 32.4944 13.4462 32.5005 13.6731C32.5064 13.9 32.4545 14.1246 32.3498 14.3259L29.6799 18.4978C35.8523 21.584 38.9385 24.7116 38.9385 30.8839ZM27.7876 21.7069C27.7876 21.0475 27.2531 20.513 26.5937 20.513C25.9343 20.513 25.3998 21.0475 25.3998 21.7069V22.9037C23.629 22.9779 22.2162 24.437 22.2162 26.226C22.2162 27.7887 23.3043 29.1405 24.8309 29.4745L27.6448 30.09C28.1925 30.2098 28.5835 30.6955 28.5835 31.257C28.5835 31.9168 28.0485 32.4517 27.3897 32.4517H25.7979C25.2799 32.4517 24.8361 32.1212 24.6716 31.6559C24.4519 31.0342 23.7698 30.7084 23.1481 30.9281C22.5264 31.1479 22.2006 31.8299 22.4203 32.4517C22.8691 33.7214 24.0143 34.6645 25.3998 34.8177V36.0333C25.3998 36.6927 25.9343 37.2272 26.5937 37.2272C27.2531 37.2272 27.7876 36.6927 27.7876 36.0333V34.8177C29.5788 34.6196 30.9713 33.1 30.9713 31.257C30.9713 29.5743 29.7997 28.1172 28.155 27.7574L25.3411 27.1419C24.9108 27.0477 24.604 26.6666 24.604 26.226C24.604 25.7082 25.0237 25.2885 25.5415 25.2885H27.3897C27.7432 25.2885 28.0595 25.4406 28.2798 25.6868C28.3833 25.8024 28.4639 25.9373 28.5159 26.0843C28.7356 26.706 29.4177 27.0318 30.0394 26.8121C30.6611 26.5924 30.9869 25.9103 30.7672 25.2886C30.6095 24.8425 30.3666 24.438 30.059 24.0943C29.4878 23.4562 28.6877 23.0224 27.7876 22.9227V21.7069Z" fill="white"/>
</g>
</g>
<defs>
<clipPath id="clip0_11534_151">
<rect x="12.3037" y="12.5605" width="26.7429" height="26.7429" rx="8" fill="white"/>
</clipPath>
<clipPath id="clip1_11534_151">
<rect width="26.7429" height="26.7429" fill="white" transform="translate(13.2178 12.3711)"/>
</clipPath>
</defs>
</svg>
