<svg width="52" height="52" viewBox="0 0 52 52" fill="none" xmlns="http://www.w3.org/2000/svg">
<rect width="52" height="52" rx="8" fill="#15186C"/>
<g clip-path="url(#clip0_1153_62379)">
<g clip-path="url(#clip1_1153_62379)">
<g clip-path="url(#clip2_1153_62379)">
<path fill-rule="evenodd" clip-rule="evenodd" d="M35.2751 14.4336C34.4408 14.4336 33.6407 14.765 33.0508 15.355L33.0489 15.3569L28.5946 19.8638L19.2003 15.5208C18.8143 15.3353 18.3946 15.2305 17.9667 15.213C17.5375 15.1955 17.1093 15.2661 16.7085 15.4204C16.3076 15.5747 15.9426 15.8096 15.6361 16.1104C15.3349 16.406 15.0963 16.7591 14.9344 17.1487C14.5757 17.8408 14.4901 18.6427 14.695 19.3954C14.9019 20.1554 15.3895 20.8084 16.0594 21.2226L22.9895 25.4903L20.8269 27.6531H16.8116C16.7989 27.6531 16.7863 27.6536 16.7737 27.6547C15.9968 27.7194 15.2726 28.0737 14.7447 28.6474C14.2168 29.2211 13.9238 29.9723 13.9238 30.752C13.9238 31.5316 14.2168 32.2828 14.7447 32.8565C15.2726 33.4302 15.9968 33.7845 16.7737 33.8492C16.7863 33.8503 16.7989 33.8509 16.8116 33.8509H19.0053V36.0448C19.0053 36.0574 19.0058 36.07 19.0069 36.0826C19.0715 36.8596 19.4258 37.5838 19.9995 38.1118C20.5732 38.6398 21.3243 38.9326 22.1039 38.9326C22.8834 38.9326 23.6345 38.6398 24.2082 38.1118C24.7819 37.5838 25.1362 36.8596 25.2009 36.0826C25.2019 36.07 25.2024 36.0574 25.2024 36.0448V32.0291L27.3651 29.8662L31.632 36.7962C32.046 37.4662 32.6996 37.9545 33.4593 38.1615C34.2125 38.3666 35.015 38.2807 35.7075 37.9213C36.0864 37.7607 36.4299 37.5269 36.7186 37.2333C37.012 36.9346 37.2423 36.5801 37.3961 36.1907C37.5498 35.8011 37.6238 35.3848 37.6136 34.9661C37.6036 34.5476 37.5092 34.1354 37.3367 33.7538L37.3359 33.752L32.9902 24.2615L37.4975 19.806L37.4994 19.8041C38.0893 19.2141 38.4207 18.414 38.4207 17.5796C38.4207 16.7452 38.0893 15.945 37.4994 15.355C36.9094 14.765 36.1093 14.4336 35.2751 14.4336Z" fill="white"/>
</g>
</g>
</g>
<defs>
<clipPath id="clip0_1153_62379">
<rect x="12.9058" y="12.5605" width="26.7429" height="26.7429" rx="8" fill="white"/>
</clipPath>
<clipPath id="clip1_1153_62379">
<rect width="25.0714" height="25.0714" fill="white" transform="translate(13.3496 14.4336)"/>
</clipPath>
<clipPath id="clip2_1153_62379">
<rect width="26.7429" height="26.7429" fill="white" transform="translate(13.3496 12.7617)"/>
</clipPath>
</defs>
</svg>
