<svg width="52" height="52" viewBox="0 0 52 52" fill="none" xmlns="http://www.w3.org/2000/svg">
<rect width="52" height="52" rx="8" fill="#15186C"/>
<g clip-path="url(#clip0_1153_62401)">
<g clip-path="url(#clip1_1153_62401)">
<path fill-rule="evenodd" clip-rule="evenodd" d="M30.3037 27.598C34.5235 27.598 37.9445 24.1771 37.9445 19.9572C37.9445 15.7373 34.5235 12.3164 30.3037 12.3164C26.0838 12.3164 22.6629 15.7373 22.6629 19.9572C22.6629 24.1771 26.0838 27.598 30.3037 27.598ZM30.3037 16.8531C30.9631 16.8531 31.4976 17.3877 31.4976 18.047V21.8674C31.4976 22.5268 30.9631 23.0613 30.3037 23.0613C29.6443 23.0613 29.1098 22.5268 29.1098 21.8674V18.047C29.1098 17.3877 29.6443 16.8531 30.3037 16.8531ZM15.6775 24.7327H12.1567V32.3736L15.6494 35.8662C17.0823 37.2992 19.0258 38.1042 21.0523 38.1042H32.2139C33.7963 38.1042 35.0792 36.8213 35.0792 35.2389C35.0792 33.6564 33.7963 32.3736 32.2139 32.3736H26.9095C26.7251 32.9972 26.3869 33.585 25.8947 34.0771C24.3207 35.6511 21.7689 35.6511 20.1949 34.0771L17.4251 31.3073C16.9589 30.8411 16.9589 30.0851 17.4251 29.6189C17.8913 29.1527 18.6473 29.1527 19.1135 29.6189L21.8833 32.3886C22.5248 33.0303 23.5648 33.0303 24.2063 32.3886C24.7832 31.812 24.8413 30.9127 24.3806 30.2709L21.0804 26.9707C19.6475 25.5378 17.704 24.7327 15.6775 24.7327Z" fill="white"/>
</g>
</g>
<defs>
<clipPath id="clip0_1153_62401">
<rect x="12.4443" y="12.2656" width="26.7429" height="26.7429" rx="8" fill="white"/>
</clipPath>
<clipPath id="clip1_1153_62401">
<rect width="26.7429" height="26.7429" fill="white" transform="translate(11.6738 11.8418)"/>
</clipPath>
</defs>
</svg>
