<svg width="342" height="72" viewBox="0 0 342 72" fill="none" xmlns="http://www.w3.org/2000/svg">
<path d="M38.0628 70.7307C37.9545 70.7305 37.8465 70.7184 37.7408 70.6946C30.6472 69.0966 24.2033 65.0351 19.5974 59.2584C14.9301 53.4047 12.3594 46.0213 12.3594 38.4671C12.3594 30.4768 15.2004 22.7655 20.3584 16.7557C20.609 16.4646 20.9645 16.2844 21.3474 16.2544C21.7303 16.2245 22.1095 16.3471 22.4023 16.5957C23.0111 17.1128 23.0833 18.023 22.5633 18.6289C17.853 24.1167 15.2589 31.1626 15.2589 38.4671C15.2589 45.3725 17.6062 52.1199 21.8686 57.4653C26.0647 62.7287 31.9291 66.4282 38.3818 67.8819C39.1623 68.0575 39.6521 68.8302 39.4755 69.6068C39.4019 69.9264 39.2222 70.2115 38.9656 70.4157C38.709 70.6198 38.3907 70.7309 38.0628 70.7307Z" fill="url(#paint0_linear_2390_7165)"/>
<path d="M12.6796 39.516C11.5489 38.4584 8.28351 36.0213 2.38888 36.2008C2.12848 36.2103 1.87254 36.2714 1.63586 36.3803C1.39917 36.4893 1.18643 36.6441 1.0099 36.8358C0.833381 37.0275 0.69658 37.2522 0.607403 37.4971C0.518226 37.7419 0.478439 38.002 0.49034 38.2623C0.590828 40.2447 1.18985 45.1979 4.57229 48.3599C5.66302 49.3804 8.73814 51.6848 14.2455 51.6848C14.4474 51.6848 14.6542 51.6819 14.863 51.6751C15.1233 51.6657 15.3791 51.6048 15.6157 51.496C15.8523 51.3871 16.0651 51.2325 16.2416 51.041C16.4181 50.8495 16.5549 50.625 16.6442 50.3803C16.7334 50.1356 16.7733 49.8757 16.7616 49.6155C16.6611 47.6321 16.062 42.6779 12.6796 39.516Z" fill="url(#paint1_linear_2390_7165)"/>
<path d="M26.7813 62.978C25.6457 61.3468 22.5111 57.4521 17.9618 56.5389C16.4399 56.2326 12.3735 55.8735 7.46133 59.1184C7.24444 59.2627 7.05851 59.4487 6.91446 59.6657C6.7704 59.8827 6.67111 60.1263 6.62241 60.3822C6.5737 60.6381 6.57657 60.9011 6.63083 61.1558C6.68509 61.4106 6.78966 61.652 6.9384 61.8658C8.07499 63.498 11.2086 67.3927 15.7579 68.3049C16.2213 68.3985 16.9189 68.4961 17.8047 68.4961C19.8311 68.4961 22.8408 67.9839 26.2594 65.7253C26.6916 65.4404 26.996 64.9829 27.0945 64.4687C27.144 64.2121 27.142 63.9482 27.0884 63.6924C27.0348 63.4366 26.9307 63.1941 26.7823 62.979L26.7813 62.978Z" fill="url(#paint2_linear_2390_7165)"/>
<path d="M15.1346 19.4033C14.4419 18.0238 12.2244 14.6111 6.6312 12.7535C6.3832 12.6727 6.12167 12.6418 5.86167 12.6625C5.60166 12.6832 5.34832 12.7551 5.1162 12.874C4.88408 12.993 4.67778 13.1567 4.50915 13.3557C4.34053 13.5546 4.21291 13.785 4.13364 14.0335C3.53852 15.9281 2.3795 20.7818 4.45364 24.9136C5.14633 26.2941 7.36389 29.7058 12.958 31.5643C13.459 31.7256 14.0034 31.6813 14.4717 31.4413C14.9401 31.2013 15.2939 30.7851 15.4556 30.2843C16.0507 28.3887 17.2088 23.535 15.1336 19.4043L15.1346 19.4033Z" fill="url(#paint3_linear_2390_7165)"/>
<path d="M31.3545 1.86937C31.2799 1.62308 31.1573 1.39404 30.9935 1.19552C30.8298 0.997002 30.6283 0.832957 30.4007 0.712895C30.1731 0.592834 29.9239 0.519143 29.6676 0.496096C29.4113 0.473049 29.153 0.501103 28.9077 0.578633C27.135 1.14742 22.7935 2.89182 20.7613 6.79819C18.736 10.6938 19.7633 15.2978 20.2989 17.0968C20.3734 17.3431 20.4961 17.5721 20.6599 17.7706C20.8236 17.9691 21.0251 18.133 21.2528 18.253C21.4804 18.373 21.7296 18.4466 21.9858 18.4695C22.2421 18.4924 22.5004 18.4642 22.7457 18.3866C24.5184 17.8178 28.8608 16.0734 30.8921 12.167C32.9184 8.27137 31.8901 3.66841 31.3545 1.86937Z" fill="url(#paint4_linear_2390_7165)"/>
<path d="M303.937 70.7307C304.043 70.7307 304.151 70.719 304.259 70.6946C311.353 69.0966 317.797 65.0351 322.402 59.2584C327.07 53.4047 329.64 46.0213 329.64 38.4671C329.64 30.4768 326.799 22.7655 321.641 16.7557C321.391 16.4646 321.035 16.2844 320.652 16.2544C320.269 16.2245 319.89 16.3471 319.597 16.5957C319.453 16.7183 319.334 16.8682 319.247 17.0369C319.161 17.2057 319.109 17.3898 319.094 17.5788C319.079 17.7678 319.101 17.9579 319.16 18.1381C319.219 18.3183 319.313 18.4851 319.437 18.6289C324.147 24.1167 326.741 31.1626 326.741 38.4671C326.741 45.3725 324.394 52.1199 320.131 57.4653C315.935 62.7287 310.071 66.4282 303.618 67.8819C302.837 68.0575 302.348 68.8302 302.524 69.6068C302.598 69.9264 302.778 70.2115 303.034 70.4157C303.291 70.6198 303.609 70.7309 303.937 70.7307Z" fill="url(#paint5_linear_2390_7165)"/>
<path d="M329.32 39.516C330.451 38.4584 333.716 36.0213 339.611 36.2008C339.871 36.2103 340.127 36.2713 340.364 36.3803C340.6 36.4892 340.813 36.6439 340.99 36.8355C341.166 37.027 341.303 37.2517 341.392 37.4964C341.481 37.7411 341.521 38.0011 341.51 38.2613C341.409 40.2438 340.81 45.197 337.428 48.3589C336.337 49.3794 333.262 51.6838 327.754 51.6838C327.552 51.6838 327.346 51.6809 327.137 51.6741C326.877 51.6647 326.621 51.6038 326.384 51.495C326.148 51.3862 325.935 51.2316 325.758 51.0401C325.582 50.8486 325.445 50.624 325.356 50.3793C325.266 50.1347 325.227 49.8747 325.238 49.6146C325.339 47.6311 325.938 42.6779 329.32 39.516Z" fill="url(#paint6_linear_2390_7165)"/>
<path d="M315.218 62.978C316.354 61.3468 319.488 57.4521 324.037 56.5389C325.559 56.2326 329.626 55.8735 334.538 59.1184C334.755 59.2627 334.941 59.4487 335.085 59.6657C335.229 59.8827 335.328 60.1263 335.377 60.3822C335.426 60.6381 335.423 60.9011 335.368 61.1558C335.314 61.4106 335.21 61.652 335.061 61.8658C333.924 63.498 330.791 67.3927 326.241 68.3049C325.778 68.3985 325.08 68.4961 324.195 68.4961C322.168 68.4961 319.158 67.9839 315.74 65.7253C315.524 65.5816 315.34 65.3965 315.196 65.1808C315.053 64.9651 314.954 64.723 314.905 64.4687C314.855 64.2121 314.857 63.9482 314.911 63.6924C314.965 63.4366 315.069 63.1941 315.217 62.979L315.218 62.978Z" fill="url(#paint7_linear_2390_7165)"/>
<path d="M326.866 19.4033C327.559 18.0238 329.776 14.6111 335.369 12.7535C335.617 12.6727 335.879 12.6418 336.139 12.6625C336.399 12.6832 336.652 12.7551 336.884 12.874C337.116 12.993 337.323 13.1567 337.491 13.3557C337.66 13.5546 337.788 13.785 337.867 14.0335C338.462 15.9281 339.621 20.7818 337.547 24.9136C336.854 26.2941 334.637 29.7058 329.043 31.5643C328.542 31.7256 327.997 31.6813 327.529 31.4413C327.061 31.2013 326.707 30.7851 326.545 30.2843C325.95 28.3887 324.792 23.535 326.867 19.4043L326.866 19.4033Z" fill="url(#paint8_linear_2390_7165)"/>
<path d="M310.645 1.86937C310.72 1.62308 310.842 1.39404 311.006 1.19552C311.17 0.997002 311.371 0.832957 311.599 0.712895C311.826 0.592834 312.076 0.519143 312.332 0.496096C312.588 0.473049 312.846 0.501103 313.092 0.578633C314.865 1.14742 319.207 2.89182 321.238 6.79819C323.264 10.6938 322.236 15.2978 321.701 17.0968C321.626 17.3431 321.503 17.5721 321.34 17.7706C321.176 17.9691 320.974 18.133 320.747 18.253C320.519 18.373 320.27 18.4466 320.014 18.4695C319.757 18.4924 319.499 18.4642 319.254 18.3866C317.481 17.8178 313.139 16.0734 311.107 12.167C309.081 8.27137 310.109 3.66939 310.645 1.86937Z" fill="url(#paint9_linear_2390_7165)"/>
<defs>
<linearGradient id="paint0_linear_2390_7165" x1="0.487179" y1="0.486336" x2="44.7662" y2="3.97119" gradientUnits="userSpaceOnUse">
<stop stop-color="#DCB231"/>
<stop offset="0.365" stop-color="#FEE47C"/>
<stop offset="1" stop-color="#DDA928"/>
</linearGradient>
<linearGradient id="paint1_linear_2390_7165" x1="0.487413" y1="0.486415" x2="44.7664" y2="3.97127" gradientUnits="userSpaceOnUse">
<stop stop-color="#DCB231"/>
<stop offset="0.365" stop-color="#FEE47C"/>
<stop offset="1" stop-color="#DDA928"/>
</linearGradient>
<linearGradient id="paint2_linear_2390_7165" x1="0.487672" y1="0.489751" x2="44.7667" y2="3.97461" gradientUnits="userSpaceOnUse">
<stop stop-color="#DCB231"/>
<stop offset="0.365" stop-color="#FEE47C"/>
<stop offset="1" stop-color="#DDA928"/>
</linearGradient>
<linearGradient id="paint3_linear_2390_7165" x1="0.488765" y1="0.486078" x2="44.7678" y2="3.97093" gradientUnits="userSpaceOnUse">
<stop stop-color="#DCB231"/>
<stop offset="0.365" stop-color="#FEE47C"/>
<stop offset="1" stop-color="#DDA928"/>
</linearGradient>
<linearGradient id="paint4_linear_2390_7165" x1="0.488154" y1="0.488876" x2="44.7672" y2="3.97373" gradientUnits="userSpaceOnUse">
<stop stop-color="#DCB231"/>
<stop offset="0.365" stop-color="#FEE47C"/>
<stop offset="1" stop-color="#DDA928"/>
</linearGradient>
<linearGradient id="paint5_linear_2390_7165" x1="341.513" y1="0.486336" x2="297.234" y2="3.97119" gradientUnits="userSpaceOnUse">
<stop stop-color="#DCB231"/>
<stop offset="0.365" stop-color="#FEE47C"/>
<stop offset="1" stop-color="#DDA928"/>
</linearGradient>
<linearGradient id="paint6_linear_2390_7165" x1="341.512" y1="0.486414" x2="297.233" y2="3.97127" gradientUnits="userSpaceOnUse">
<stop stop-color="#DCB231"/>
<stop offset="0.365" stop-color="#FEE47C"/>
<stop offset="1" stop-color="#DDA928"/>
</linearGradient>
<linearGradient id="paint7_linear_2390_7165" x1="341.512" y1="0.489753" x2="297.233" y2="3.97461" gradientUnits="userSpaceOnUse">
<stop stop-color="#DCB231"/>
<stop offset="0.365" stop-color="#FEE47C"/>
<stop offset="1" stop-color="#DDA928"/>
</linearGradient>
<linearGradient id="paint8_linear_2390_7165" x1="341.512" y1="0.486079" x2="297.233" y2="3.97093" gradientUnits="userSpaceOnUse">
<stop stop-color="#DCB231"/>
<stop offset="0.365" stop-color="#FEE47C"/>
<stop offset="1" stop-color="#DDA928"/>
</linearGradient>
<linearGradient id="paint9_linear_2390_7165" x1="341.511" y1="0.488877" x2="297.232" y2="3.97373" gradientUnits="userSpaceOnUse">
<stop stop-color="#DCB231"/>
<stop offset="0.365" stop-color="#FEE47C"/>
<stop offset="1" stop-color="#DDA928"/>
</linearGradient>
</defs>
</svg>
