<svg width="80" height="80" viewBox="0 0 80 80" fill="none" xmlns="http://www.w3.org/2000/svg">
<g clip-path="url(#clip0_5282_25417)">
<path d="M10.8431 16.8555C5.13781 23.5444 1.69531 32.2186 1.69531 41.697C1.69531 62.8519 18.8445 80.0009 39.9992 80.0009C40.697 80.0009 41.3916 79.9827 42.0809 79.9444L50.5992 71.4261V53.812L36.1972 47.3878V21.802L10.8431 16.8555Z" fill="#5877D1"/>
<path d="M74.5105 58.3342C76.9411 53.3034 78.3034 47.658 78.3034 41.6969C78.3034 32.3181 74.9308 23.7253 69.3334 17.0664L36.1992 21.802V47.3878L50.6013 53.812L74.5105 58.3342Z" fill="#5877D1"/>
<path d="M11.8461 45.0595C11.8461 35.1595 15.2236 26.0489 20.8883 18.8153L10.843 16.8555C5.13781 23.5444 1.69531 32.2186 1.69531 41.697C1.69531 58.3631 12.3403 72.5406 27.2009 77.8078C17.8189 69.9931 11.8461 58.2244 11.8461 45.0595Z" fill="#385AC4"/>
<path d="M74.5094 58.332C68.603 70.565 56.3833 79.1761 42.0819 79.942L41.0867 77.5264C40.4486 75.9775 40.968 74.1978 42.3245 73.23C43.2733 72.5572 43.8347 71.4656 43.8347 70.3025C43.7547 69.6083 44.178 68.0252 42.8628 66.6225L40.987 64.6222C39.8356 63.3944 39.6911 61.5303 40.6398 60.1397L41.1433 59.402C42.4906 57.425 41.5669 54.7086 39.2958 53.9625L33.8497 52.1748C33.3495 52.0103 32.9292 51.6698 32.6652 51.2145L28.9303 44.7898C28.1178 43.3892 26.1042 43.3627 25.2536 44.7417L24.3597 46.1905C23.9642 46.8302 23.2714 47.2089 22.5372 47.2089C21.1295 47.2089 20.1081 45.8795 20.4605 44.5241L22.3944 37.1208C22.5472 36.5309 22.9459 36.0342 23.4877 35.7552L27.4286 33.7266C28.3169 33.2712 28.7483 32.2777 28.5402 31.3558C28.1747 29.7094 26.8489 28.4483 25.1873 28.1642C23.1755 27.7442 21.8869 27.8345 20.2745 26.855L14.5555 23.3842C13.1416 22.5253 12.0998 21.1678 11.638 19.5795L10.8438 16.8531V16.8514C17.8698 8.61406 28.3234 3.39062 40 3.39062C51.7745 3.39062 62.3078 8.70391 69.3323 17.0641L67.7756 19.832C67.1839 20.8894 66.0834 21.6244 64.8167 21.7261C63.5508 21.8275 62.4227 22.5652 61.8228 23.6833L60.3973 26.3398C59.7013 27.6373 58.3073 28.405 56.8369 28.3003C55.9467 28.2408 55.7791 28.2122 55.3548 28.2122C53.4194 28.2122 51.5634 29.0212 50.2444 30.4584C47.6417 33.3 48.8928 36.3159 46.7505 39.1627L43.5008 43.4989C42.7448 44.5091 42.9608 45.9428 43.9827 46.6839L46.7988 48.7258C47.3453 49.1213 48.0398 49.2525 48.6944 49.083C52.542 48.1238 52.7903 47.9183 53.7317 47.9183C54.8881 47.9183 56.0128 48.3769 56.8452 49.2225C59.2061 51.6217 61.7817 49.7336 64.2269 51.0367C66.3917 52.2039 66.6086 52.2523 67.0911 52.6267L74.5094 58.332Z" fill="#71D5B4"/>
<path d="M30.6014 4.55469C22.7816 6.52734 15.9184 10.9031 10.8438 16.8527V16.8544L11.638 19.5808C12.0998 21.1691 13.1416 22.5266 14.5555 23.3855L16.9447 24.8355C20.2198 18.7745 24.9234 13.6012 30.6016 9.75859V4.55469H30.6014Z" fill="#31C695"/>
<path d="M28.726 5.46628e-05C23.8983 -0.0174453 20.1497 4.16943 20.4374 8.98865C20.731 13.9071 23.9977 18.3355 26.333 20.9044C27.5982 22.2961 29.7882 22.3004 31.0536 20.9088C33.5008 18.2177 36.9744 13.4818 36.9744 8.27912C36.9744 3.71693 33.2843 0.0166172 28.726 5.46628e-05Z" fill="#F98797"/>
<path d="M59.0854 41.4532C54.2577 41.4357 50.5091 45.6226 50.7968 50.4418C51.0904 55.3602 54.3571 59.7886 56.6924 62.3576C57.9575 63.7493 60.1475 63.7535 61.413 62.3619C63.8602 59.6708 67.3338 54.9349 67.3338 49.7322C67.3338 45.1701 63.6438 41.4697 59.0854 41.4532Z" fill="#F98797"/>
<path d="M26.9521 8.79802C26.9521 5.45693 28.2594 2.42287 30.3874 0.17318C29.8508 0.0617734 29.2952 0.00224216 28.726 5.46608e-05C23.8983 -0.0174453 20.1497 4.16959 20.4374 8.98865C20.731 13.9071 23.9977 18.3355 26.333 20.9044C27.5982 22.2961 29.7882 22.3004 31.0536 20.9088C31.5071 20.4102 31.9958 19.841 32.491 19.2121C29.1493 16.9558 26.9521 13.1336 26.9521 8.79802Z" fill="#E35B70"/>
<path d="M57.3114 50.2512C57.3114 46.9101 58.6188 43.876 60.7468 41.6263C60.2102 41.5149 59.6546 41.4554 59.0854 41.4532C54.2577 41.4357 50.5091 45.6227 50.7968 50.4418C51.0904 55.3602 54.3571 59.7887 56.6924 62.3576C57.9575 63.7493 60.1475 63.7535 61.413 62.3619C61.8664 61.8633 62.3552 61.2943 62.8504 60.6652C59.5086 58.409 57.3114 54.5868 57.3114 50.2512Z" fill="#E35B70"/>
<path d="M28.695 11.3119C30.3689 11.3119 31.7259 9.95488 31.7259 8.28094C31.7259 6.607 30.3689 5.25 28.695 5.25C27.0211 5.25 25.6641 6.607 25.6641 8.28094C25.6641 9.95488 27.0211 11.3119 28.695 11.3119Z" fill="#E8E7F9"/>
<path d="M59.0505 52.765C60.7244 52.765 62.0814 51.408 62.0814 49.7341C62.0814 48.0601 60.7244 46.7031 59.0505 46.7031C57.3765 46.7031 56.0195 48.0601 56.0195 49.7341C56.0195 51.408 57.3765 52.765 59.0505 52.765Z" fill="#E8E7F9"/>
</g>
<defs>
<clipPath id="clip0_5282_25417">
<rect width="80" height="80" fill="white"/>
</clipPath>
</defs>
</svg>
