<svg width="153" height="152" viewBox="0 0 153 152" fill="none" xmlns="http://www.w3.org/2000/svg">
<path fill-rule="evenodd" clip-rule="evenodd" d="M79.2743 0.00100415C103.265 -0.0849778 128.779 5.32912 143.129 24.6036C157.087 43.3519 152.608 68.4406 147.165 91.1906C141.826 113.513 134.43 137.572 113.749 147.424C93.1535 157.236 69.9242 147.806 49.4514 137.741C29.2245 127.797 9.61062 114.713 3.18262 93.067C-3.72531 69.8045 0.642394 43.8305 15.99 25.0592C31.117 6.5577 55.4124 0.086526 79.2743 0.00100415Z" fill="#EBD4FF"/>
<path d="M115.014 61.2004C114.979 57.4888 113.743 53.8902 111.494 50.9513C109.245 48.0125 106.106 45.8941 102.553 44.918C99.0003 43.9419 95.2287 44.1615 91.8112 45.5435C88.3937 46.9254 85.5171 49.3942 83.6186 52.5745C67.2552 28.1155 22.3896 61.0566 83.6186 100.573C83.6186 100.566 115.014 81.2315 115.014 61.2004Z" fill="#F87670"/>
<path d="M91.929 64.7366H86.6805V59.4461C86.6797 59.2148 86.6335 58.986 86.5448 58.7727C86.456 58.5594 86.3263 58.3659 86.1632 58.2032C86.0001 58.0406 85.8067 57.912 85.5942 57.8248C85.3816 57.7377 85.1541 57.6937 84.9247 57.6954H82.3004C82.0711 57.6937 81.8438 57.7377 81.6314 57.8249C81.419 57.9121 81.2259 58.0407 81.063 58.2034C80.9001 58.3661 80.7707 58.5596 80.6823 58.7729C80.5939 58.9862 80.5482 59.2149 80.5478 59.4461V64.7366H75.2993C74.8358 64.7349 74.3907 64.9186 74.0615 65.2475C73.7323 65.5763 73.546 66.0234 73.5435 66.4905V69.1518C73.546 69.6189 73.7323 70.066 74.0615 70.3948C74.3907 70.7237 74.8358 70.9074 75.2993 70.9057H80.5478V76.225C80.5482 76.4564 80.5939 76.6855 80.6822 76.8991C80.7705 77.1127 80.8998 77.3067 81.0626 77.4699C81.2254 77.6331 81.4185 77.7623 81.6309 77.8502C81.8433 77.9381 82.0708 77.9829 82.3004 77.9821H84.9247C85.1544 77.9829 85.3821 77.9381 85.5946 77.8503C85.8072 77.7624 86.0005 77.6332 86.1636 77.4701C86.3266 77.3069 86.4562 77.113 86.5449 76.8993C86.6336 76.6857 86.6797 76.4565 86.6805 76.225V70.9057H91.929C92.1583 70.9065 92.3855 70.8618 92.5977 70.7741C92.8099 70.6865 93.0029 70.5575 93.1657 70.3946C93.3284 70.2318 93.4577 70.0382 93.5463 69.8249C93.6348 69.6117 93.6808 69.3829 93.6816 69.1518C93.6056 67.6438 94.2458 64.7749 91.929 64.7366Z" fill="white"/>
<path d="M47.2692 77.2986C46.781 77.2559 46.2893 77.3153 45.825 77.4732C45.3607 77.6311 44.9337 77.884 44.571 78.2161C44.2082 78.5481 43.9174 78.9522 43.7169 79.4029C43.5164 79.8536 43.4105 80.3413 43.4058 80.8352V94.5982C43.4538 95.5514 43.8633 96.4496 44.5495 97.1071C45.2358 97.7646 46.1465 98.1313 47.0933 98.1313C48.0402 98.1313 48.9508 97.7646 49.6371 97.1071C50.3234 96.4496 50.7328 95.5514 50.7809 94.5982V80.8352C50.7784 79.8974 50.4075 78.9989 49.7494 78.3361C49.0913 77.6733 48.1995 77.3003 47.2692 77.2986Z" fill="#7A8E9B"/>
<path d="M97.7256 89.9227C96.4578 90.6064 95.1425 91.289 93.7797 91.9705C87.375 94.8258 80.1469 95.1833 73.4957 92.9737C73.1944 92.8687 72.9434 92.6531 72.7927 92.3698C72.642 92.0866 72.6027 91.7565 72.6827 91.4454C72.7626 91.1343 72.956 90.8649 73.2241 90.6911C73.4923 90.5172 73.8156 90.4516 74.1296 90.5073C80.1803 92.556 86.7684 92.2796 92.6292 89.731C94.9143 88.5266 94.9809 88.1049 95.076 87.2327C95.2029 86.6906 95.2082 86.1267 95.0914 85.5823C94.9746 85.0379 94.7387 84.5266 94.4009 84.0859C93.7181 83.45 92.817 83.1063 91.8876 83.1274C79.8155 83.3575 77.6254 82.0572 75.0899 80.5333C72.7858 79.2043 70.1774 77.658 56.0737 77.3833C55.6812 77.3764 55.2913 77.4488 54.927 77.5961C54.5626 77.7434 54.2312 77.9626 53.9521 78.241C53.673 78.5193 53.452 78.851 53.302 79.2167C53.152 79.5824 53.0761 79.9746 53.0787 80.3704V95.833C53.0754 96.4146 53.2352 96.9853 53.5397 97.4793C53.8441 97.9733 54.2809 98.3705 54.7996 98.6252C61.8039 102.063 83.1338 112.548 113.189 89.2422C113.576 89.0218 115.724 87.6448 114.774 85.7056C112.84 82.268 107.028 85.0666 97.7256 89.9227Z" fill="#F1BB6B"/>
<path d="M48.5591 94.305C48.5416 94.685 48.3795 95.0435 48.1065 95.3062C47.8335 95.5689 47.4707 95.7154 47.0933 95.7154C46.7159 95.7154 46.353 95.5689 46.08 95.3062C45.8071 95.0435 45.645 94.685 45.6274 94.305C45.645 93.925 45.8071 93.5664 46.08 93.3038C46.353 93.0411 46.7159 92.8945 47.0933 92.8945C47.4707 92.8945 47.8335 93.0411 48.1065 93.3038C48.3795 93.5664 48.5416 93.925 48.5591 94.305Z" fill="white"/>
</svg>
