<svg width="100" height="96" viewBox="0 0 100 96" fill="none" xmlns="http://www.w3.org/2000/svg">
<path d="M23.1611 91.7598C33.3638 91.7598 41.6348 83.4888 41.6348 73.2861C41.6348 63.0834 33.3638 54.8125 23.1611 54.8125C12.9584 54.8125 4.6875 63.0834 4.6875 73.2861C4.6875 83.4888 12.9584 91.7598 23.1611 91.7598Z" fill="#EAEAE8"/>
<path d="M76.8369 91.7598C87.0396 91.7598 95.3105 83.4888 95.3105 73.2861C95.3105 63.0834 87.0396 54.8125 76.8369 54.8125C66.6342 54.8125 58.3633 63.0834 58.3633 73.2861C58.3633 83.4888 66.6342 91.7598 76.8369 91.7598Z" fill="#EAEAE8"/>
<path d="M23.1604 79.516C26.5993 79.516 29.3871 76.7282 29.3871 73.2893C29.3871 69.8503 26.5993 67.0625 23.1604 67.0625C19.7214 67.0625 16.9336 69.8503 16.9336 73.2893C16.9336 76.7282 19.7214 79.516 23.1604 79.516Z" fill="#D5D5D3"/>
<path d="M76.8398 77.9766C79.4287 77.9766 81.5273 75.8779 81.5273 73.2891C81.5273 70.7002 79.4287 68.6016 76.8398 68.6016C74.251 68.6016 72.1523 70.7002 72.1523 73.2891C72.1523 75.8779 74.251 77.9766 76.8398 77.9766Z" fill="#D5D5D3"/>
<path d="M23.1615 93.3227C19.1987 93.3227 15.3249 92.1476 12.0299 89.946C8.73491 87.7444 6.16677 84.6152 4.65024 80.954C3.13371 77.2929 2.73689 73.2642 3.50998 69.3776C4.28306 65.4909 6.19132 61.9207 8.99344 59.1186C11.7956 56.3164 15.3657 54.4081 19.2524 53.635C23.139 52.8619 27.1677 53.2587 30.8289 54.7752C34.49 56.2917 37.6193 58.8598 39.8209 62.1547C42.0225 65.4497 43.1977 69.3235 43.1977 73.2863C43.1918 78.5985 41.0789 83.6913 37.3227 87.4476C33.5665 91.2038 28.4737 93.3167 23.1615 93.3227ZM23.1615 56.3752C19.8168 56.3752 16.5471 57.367 13.766 59.2252C10.9849 61.0834 8.81735 63.7246 7.53734 66.8148C6.25734 69.9049 5.92242 73.3052 6.57495 76.5857C7.22747 79.8662 8.83812 82.8795 11.2032 85.2446C13.5683 87.6097 16.5817 89.2204 19.8621 89.8729C23.1426 90.5254 26.543 90.1905 29.6331 88.9105C32.7233 87.6305 35.3644 85.4629 37.2227 82.6818C39.0809 79.9008 40.0727 76.6311 40.0727 73.2863C40.0676 68.8028 38.2842 64.5044 35.1139 61.334C31.9435 58.1637 27.6451 56.3803 23.1615 56.3752Z" fill="#484A50"/>
<path d="M76.8371 93.3227C72.8743 93.3227 69.0005 92.1476 65.7055 89.9459C62.4106 87.7443 59.8425 84.6151 58.326 80.9539C56.8095 77.2927 56.4127 73.2641 57.1858 69.3774C57.9589 65.4908 59.8672 61.9206 62.6693 59.1185C65.4714 56.3164 69.0416 54.4081 72.9282 53.635C76.8149 52.8619 80.8435 53.2587 84.5047 54.7752C88.1659 56.2917 91.2951 58.8598 93.4967 62.1548C95.6983 65.4497 96.8734 69.3235 96.8734 73.2863C96.8676 78.5985 94.7547 83.6914 90.9984 87.4477C87.2422 91.2039 82.1493 93.3168 76.8371 93.3227ZM76.8371 56.3752C73.4924 56.3752 70.2227 57.367 67.4417 59.2253C64.6606 61.0835 62.493 63.7247 61.2131 66.8149C59.9331 69.905 59.5982 73.3054 60.2507 76.5858C60.9033 79.8663 62.514 82.8796 64.8791 85.2447C67.2442 87.6098 70.2575 89.2204 73.538 89.8729C76.8185 90.5254 80.2188 90.1905 83.3089 88.9105C86.3991 87.6305 89.0403 85.4629 90.8985 82.6818C92.7567 79.9007 93.7485 76.6311 93.7484 73.2863C93.7434 68.8027 91.96 64.5042 88.7896 61.3339C85.6192 58.1635 81.3207 56.3802 76.8371 56.3752Z" fill="#484A50"/>
<path d="M82.8737 38.4746C82.7281 38.2788 82.5386 38.1198 82.3206 38.0102C82.1025 37.9007 81.8618 37.8437 81.6178 37.8438H74.7408C74.5618 37.8431 74.3841 37.8735 74.2155 37.9336L64.7877 39.893C64.3969 40.0336 64.0779 40.3238 63.901 40.6996C63.7241 41.0753 63.7036 41.506 63.8442 41.8969L65.4049 46.3203C62.5612 46.7246 55.8463 47.709 39.8151 50.0977L36.5983 41.7656H33.2467L37.026 51.5508L21.6705 72.6992C21.5075 72.9231 21.4069 73.1862 21.379 73.4617C21.3512 73.7372 21.397 74.0152 21.5118 74.2672C21.6267 74.5191 21.8064 74.736 22.0327 74.8957C22.2589 75.0554 22.5236 75.152 22.7994 75.1758L47.9323 77.3555C47.9772 77.3594 48.0221 77.3613 48.067 77.3613C48.3197 77.3612 48.5687 77.2999 48.7925 77.1825C49.0163 77.0652 49.2084 76.8953 49.3522 76.6875L67.0983 50.9981L75.3678 73.8203C75.4775 74.1224 75.6774 74.3834 75.9405 74.5679C76.2036 74.7524 76.5172 74.8514 76.8385 74.8516C77.0196 74.8509 77.1993 74.8192 77.3698 74.7578C77.7591 74.6161 78.0765 74.3258 78.2522 73.9506C78.4279 73.5753 78.4477 73.1457 78.3073 72.7559L67.317 42.309L75.0104 40.9688H79.5104L78.8307 43.207C78.7711 43.4034 78.7507 43.6095 78.7707 43.8138C78.7908 44.018 78.8508 44.2163 78.9475 44.3973C79.0442 44.5783 79.1755 44.7384 79.3341 44.8687C79.4927 44.9989 79.6754 45.0966 79.8717 45.1563C80.0681 45.2159 80.2742 45.2363 80.4784 45.2162C80.6827 45.1962 80.8809 45.1361 81.0619 45.0395C81.2429 44.9428 81.4031 44.8114 81.5333 44.6528C81.6636 44.4943 81.7613 44.3116 81.8209 44.1152L83.1139 39.8594C83.1844 39.6258 83.1994 39.379 83.1577 39.1386C83.116 38.8981 83.0188 38.6708 82.8737 38.4746ZM25.8229 72.3008L38.3678 55.0215L45.7076 74.0254L25.8229 72.3008ZM48.4596 72.4805L40.9694 53.084C48.9616 51.8945 59.0299 50.4024 64.2369 49.6445L48.4596 72.4805Z" fill="#71AE60"/>
<path d="M36.4059 38.0039H25.5117C24.2173 38.0039 23.168 39.0532 23.168 40.3477C23.168 41.6421 24.2173 42.6914 25.5117 42.6914H36.4059C37.7003 42.6914 38.7496 41.6421 38.7496 40.3477C38.7496 39.0532 37.7003 38.0039 36.4059 38.0039Z" fill="#5B5E65"/>
<path d="M46.4844 83.3438C50.3676 83.3438 53.5156 80.1958 53.5156 76.3125C53.5156 72.4292 50.3676 69.2812 46.4844 69.2812C42.6011 69.2812 39.4531 72.4292 39.4531 76.3125C39.4531 80.1958 42.6011 83.3438 46.4844 83.3438Z" fill="#D5D5D3"/>
<path d="M60.3789 20.1084C61.0658 21.2789 61.5199 22.5712 61.7162 23.9141L64.5398 22.6946C64.601 22.8166 65.0557 23.9998 65.4824 25.1194C65.5626 25.3292 65.6961 25.5145 65.8699 25.6568C66.0437 25.7991 66.2516 25.8936 66.4732 25.9308C66.6947 25.968 66.9221 25.9466 67.1328 25.8689C67.3436 25.7911 67.5303 25.6597 67.6746 25.4875L69.407 23.4211H71.3045L71.643 19.6813L73.485 18.1565C73.485 18.1565 72.7508 8.7639 65.0225 10.7373C60.0332 12.0114 61.0508 17.1711 61.0508 17.1711L58.9023 18.3576C59.4952 18.8484 59.9953 19.4413 60.3789 20.1084Z" fill="#FCD3C4"/>
<path d="M61.718 23.9148L64.5416 22.6953L61.3242 22.2305C61.4995 22.7807 61.6312 23.3439 61.718 23.9148Z" fill="#FFC7B5"/>
<path d="M68.0969 17.4989C69.2102 17.2079 71.2682 16.5987 73.0819 16.052C72.3495 13.4102 70.3446 9.37818 65.0219 10.7374C60.0327 12.0114 61.0503 17.1711 61.0503 17.1711L61.9387 17.6706C62.5634 18.0223 63.2542 18.2411 63.9675 18.3131C64.6808 18.385 65.4013 18.3086 66.0837 18.0887C66.678 17.8971 67.3633 17.6907 68.0969 17.4989Z" fill="#484A50"/>
<path d="M70.5133 9.79037C65.691 6.18099 58.2227 7.07982 58.2227 7.07982C58.2227 7.07982 60.1045 9.61634 60.1045 12.2556C60.1045 13.1345 59.4404 14.8648 59.4404 14.8648C59.4404 14.8648 62.1875 16.6158 64.542 17.524C67.4717 18.6536 70.2924 17.4286 70.2924 17.4286L73.9693 19.2036C73.9693 19.2036 75.6801 13.6576 70.5133 9.79037Z" fill="#E44D44"/>
<path d="M42.5669 34.3193L56.4817 46.0416C56.953 46.4386 57.2949 46.9673 57.4636 47.5599C57.6324 48.1525 57.6202 48.782 57.4288 49.3677L50.2276 71.3906L53.5737 72.8593C54.0276 73.0585 54.3925 73.4174 54.5992 73.8679C54.806 74.3184 54.8401 74.8291 54.6952 75.3031L53.66 78.6884C53.6157 78.8336 53.5157 78.9554 53.3819 79.0271C53.248 79.0988 53.0913 79.1147 52.9458 79.0712L44.6585 76.5955C44.2671 76.5107 43.8971 76.3469 43.5712 76.1142C43.2453 75.8814 42.9703 75.5846 42.7632 75.2418C42.556 74.8991 42.421 74.5177 42.3664 74.1209C42.3118 73.7242 42.3387 73.3205 42.4456 72.9345L48.2194 52.0878C48.2194 52.0878 45.5075 50.5902 42.0235 48.4693L41.6329 48.231C36.078 44.831 28.7981 39.9753 27.2983 37.047C24.8077 32.1837 31.9237 25.78 31.9237 25.78C31.9237 25.78 36.037 19.3794 41.6329 17.5964C48.3831 15.4459 58.363 17.5964 58.363 17.5964C59.9136 18.1896 61.8112 20.9168 62.1669 24.3568C62.5225 27.7968 62.1059 29.8451 62.1059 29.8451L64.1831 36.8097L74.1456 44.2816L78.1852 43.3419C78.4736 43.2749 78.7742 43.282 79.0591 43.3626C79.3439 43.4432 79.6037 43.5947 79.8141 43.8029L80.5323 44.513C80.8213 44.7987 80.9859 45.1868 80.9904 45.5931C80.995 45.9994 80.8391 46.3911 80.5565 46.6832L78.397 48.917C78.0831 49.2416 77.6838 49.4708 77.2452 49.5779C76.8066 49.6851 76.3466 49.6658 75.9184 49.5224L72.6106 48.4144L59.3212 40.4869L55.3944 32.1744L42.5669 34.3193Z" fill="#FCD3C4"/>
<path d="M43.0948 70.5938L42.4466 72.9342C42.3397 73.3201 42.3127 73.7238 42.3673 74.1206C42.4219 74.5173 42.557 74.8988 42.7641 75.2415C42.9713 75.5842 43.2462 75.8811 43.5721 76.1138C43.898 76.3466 44.268 76.5103 44.6594 76.5951L52.9467 79.0709C53.0922 79.1144 53.249 79.0985 53.3828 79.0268C53.5166 78.955 53.6166 78.8333 53.661 78.6881L54.6962 75.3027C54.8411 74.8287 54.8069 74.318 54.6002 73.8676C54.3935 73.4171 54.0285 73.0582 53.5747 72.859L50.2286 71.3902L46.662 71.5363L43.0948 70.5938Z" fill="#E44D44"/>
<path d="M42.5684 34.3195L55.3959 32.1742L56.4721 34.4523L63.0814 33.1089L62.108 29.8451C62.108 29.8451 62.5248 27.796 62.1689 24.3568C61.8131 20.9175 59.9156 18.1896 58.365 17.5964C58.365 17.5964 48.3846 15.4459 41.635 17.5964C36.0391 19.3794 31.9258 25.78 31.9258 25.78C31.9258 25.78 31.7867 25.9052 31.5547 26.1335L41.9389 34.4429L42.5684 34.3195Z" fill="#E44D44"/>
<path d="M31.9276 25.7812C31.9276 25.7812 24.8116 32.1857 27.3022 37.0482C28.6636 39.7062 34.7878 43.9525 40.061 47.2566L47.92 38.8273L42.5702 34.3205L31.9276 25.7812Z" fill="#484A50"/>
</svg>
