<svg width="100" height="94" viewBox="0 0 100 94" fill="none" xmlns="http://www.w3.org/2000/svg">
<path d="M50.0009 50.6737C61.2585 50.6737 70.3846 41.5476 70.3846 30.29C70.3846 19.0323 61.2585 9.90625 50.0009 9.90625C38.7433 9.90625 29.6172 19.0323 29.6172 30.29C29.6172 41.5476 38.7433 50.6737 50.0009 50.6737Z" fill="#D9C8B4"/>
<path d="M50 43.332C57.2034 43.332 63.043 37.4925 63.043 30.2891C63.043 23.0856 57.2034 17.2461 50 17.2461C42.7966 17.2461 36.957 23.0856 36.957 30.2891C36.957 37.4925 42.7966 43.332 50 43.332Z" fill="#A56F3F"/>
<path d="M50.0013 42.1676C43.4524 42.1676 38.125 36.8397 38.125 30.2908C38.125 23.742 43.4524 18.4141 50.0013 18.4141C56.5503 18.4141 61.8784 23.742 61.8784 30.2908C61.8784 36.8397 56.5503 42.1676 50.0013 42.1676ZM50.0013 19.169C43.8689 19.169 38.8799 24.1582 38.8799 30.2908C38.8799 36.4235 43.8689 41.4127 50.0013 41.4127C56.1338 41.4127 61.1234 36.4235 61.1234 30.2908C61.1234 24.1582 56.1337 19.169 50.0013 19.169Z" fill="#965F32"/>
<path d="M49.9997 40.3207C44.4689 40.3207 39.9688 35.8206 39.9688 30.2893C39.9688 24.7579 44.4689 20.2578 49.9997 20.2578C55.5313 20.2578 60.0315 24.7579 60.0315 30.2893C60.0315 35.8206 55.5313 40.3207 49.9997 40.3207ZM49.9997 21.0128C44.8847 21.0128 40.7237 25.1741 40.7237 30.2893C40.7237 35.4044 44.8847 39.5658 49.9997 39.5658C55.1148 39.5658 59.2765 35.4044 59.2765 30.2893C59.2765 25.1741 55.1148 21.0128 49.9997 21.0128Z" fill="#965F32"/>
<path d="M50 38.3798C45.5389 38.3798 41.9102 34.7505 41.9102 30.2895C41.9102 25.8285 45.5389 22.1992 50 22.1992C54.4611 22.1992 58.0905 25.8285 58.0905 30.2895C58.0905 34.7505 54.4611 38.3798 50 38.3798ZM50 22.9542C45.9554 22.9542 42.6651 26.2448 42.6651 30.2895C42.6651 34.3342 45.9554 37.6248 50 37.6248C54.0445 37.6248 57.3356 34.3342 57.3356 30.2895C57.3356 26.2448 54.0445 22.9542 50 22.9542Z" fill="#965F32"/>
<path d="M50.0092 11.9531C39.8626 11.9531 31.6641 20.1521 31.6641 30.2988C31.6641 40.4146 39.8626 48.6282 50.0092 48.6282C60.1404 48.6282 68.3392 40.4146 68.3392 30.2988C68.3392 20.1521 60.1404 11.9531 50.0092 11.9531ZM50.0092 14.3993C52.591 14.3993 54.6747 16.4983 54.6747 19.0801C54.6747 21.6619 52.591 23.7454 50.0092 23.7454C47.412 23.7454 45.3286 21.6619 45.3286 19.0801C45.3286 16.4983 47.412 14.3993 50.0092 14.3993ZM34.8499 25.5126C35.6199 23.0509 38.2471 21.6774 40.7082 22.4619C43.1694 23.2323 44.5434 25.8591 43.7582 28.3208C42.9882 30.7972 40.361 32.1559 37.8999 31.3855C35.4388 30.6003 34.0649 27.9735 34.8499 25.5126ZM47.3971 42.1663C45.9173 44.2799 43.0033 44.7931 40.8894 43.3134C38.7756 41.8338 38.2622 38.9202 39.7421 36.791C41.2217 34.6773 44.1357 34.1634 46.2496 35.6438C48.3635 37.1382 48.8768 40.0526 47.3971 42.1663ZM59.6725 42.9057C57.6189 44.4761 54.6898 44.0838 53.1194 42.0299C51.5493 39.9921 51.9268 37.0476 53.9802 35.4772C56.0336 33.9069 58.9629 34.2998 60.533 36.3383C62.1034 38.3916 61.7259 41.3206 59.6725 42.9057ZM62.1334 30.8421C59.7178 31.7327 57.0302 30.4794 56.1543 28.0487C55.2635 25.6328 56.5167 22.9455 58.9478 22.0696C61.3635 21.179 64.051 22.4324 64.9268 24.8631C65.8176 27.279 64.5645 29.9663 62.1334 30.8421Z" fill="#44433F"/>
<path d="M54.2953 30.2985C54.2953 32.6706 52.3816 34.5843 50.0092 34.5843C47.6168 34.5843 45.7031 32.6706 45.7031 30.2985C45.7031 27.9059 47.6168 25.9922 50.0092 25.9922C52.3816 25.9922 54.2953 27.9059 54.2953 30.2985Z" fill="#BABABA"/>
<path d="M52.9613 30.2943C52.9613 31.9283 51.6431 33.2464 50.009 33.2464C48.3611 33.2464 47.043 31.9283 47.043 30.2943C47.043 28.6463 48.3611 27.3281 50.009 27.3281C51.6431 27.3281 52.9613 28.6463 52.9613 30.2943Z" fill="#A5A4A2"/>
<path d="M2.59375 87.75H97.4086V90.0907H2.59375V87.75Z" fill="#7A8490"/>
<path d="M8.01562 64.3125H91.9845V87.7518H8.01562V64.3125Z" fill="#92E0B9"/>
<path d="M67.4414 64.2539H84.3207V87.7517H67.4414V64.2539Z" fill="#AB5033"/>
<path d="M67.0117 64.2539H67.8673V87.7517H67.0117V64.2539Z" fill="#ACEAC9"/>
<path d="M83.8906 64.2539H84.7462V87.7517H83.8906V64.2539Z" fill="#ACEAC9"/>
<path d="M69.793 69.375H75.8789V87.7513H69.793V69.375Z" fill="#DBDBDB"/>
<path d="M75.8789 69.375H81.9648V87.7513H75.8789V69.375Z" fill="#DBDBDB"/>
<path d="M82.2213 87.7504H81.7067V69.6305H70.0498V87.7504H69.5352V69.1172H82.2213V87.7504Z" fill="#2C2C34"/>
<path d="M75.6211 69.375H76.1359V87.7513H75.6211V69.375Z" fill="#2C2C34"/>
<path d="M76.8865 77.8047H77.4013V79.3269H76.8865V77.8047Z" fill="#2C2C34"/>
<path d="M74.3555 77.8047H74.8703V79.3269H74.3555V77.8047Z" fill="#2C2C34"/>
<path d="M15.6797 64.2539H32.5589V87.7517H15.6797V64.2539Z" fill="#AB5033"/>
<path d="M32.1328 64.2539H32.9884V87.7517H32.1328V64.2539Z" fill="#ACEAC9"/>
<path d="M15.2539 64.2539H16.1095V87.7517H15.2539V64.2539Z" fill="#ACEAC9"/>
<path d="M24.1211 69.375H30.207V87.7513H24.1211V69.375Z" fill="#DBDBDB"/>
<path d="M18.0352 69.375H24.1211V87.7513H18.0352V69.375Z" fill="#DBDBDB"/>
<path d="M17.7773 87.7504H18.2919V69.6305H29.9489V87.7504H30.4635V69.1172H17.7773V87.7504Z" fill="#2C2C34"/>
<path d="M23.8633 69.375H24.3781V87.7513H23.8633V69.375Z" fill="#2C2C34"/>
<path d="M22.5977 77.8047H23.1125V79.3269H22.5977V77.8047Z" fill="#2C2C34"/>
<path d="M25.1287 77.8047H25.6435V79.3269H25.1287V77.8047Z" fill="#2C2C34"/>
<path opacity="0.08" d="M38.0846 64.2656V87.7382H30.0782L8.00781 65.6691V64.299L38.0846 64.2656Z" fill="#2C2C34"/>
<path d="M38.1016 64.3125H61.9023V87.7518H38.1016V64.3125Z" fill="#5E7CD3"/>
<path d="M46.1742 78.8588V81.0027H41.3867V78.8588C41.3867 78.0458 42.0458 77.3867 42.8588 77.3867H44.7022C45.5152 77.3867 46.1742 78.0458 46.1742 78.8588Z" fill="#4A6DC6"/>
<path d="M58.6117 78.8588V81.0027H53.8242V78.8588C53.8242 78.0458 54.4833 77.3867 55.2963 77.3867H57.1397C57.9527 77.3867 58.6117 78.0458 58.6117 78.8588Z" fill="#4A6DC6"/>
<path d="M38.1016 81.5898H61.9023V87.7521H38.1016V81.5898Z" fill="#FF9933"/>
<path d="M49.4688 64.3125H50.5287V80.4147H49.4688V64.3125Z" fill="#FFCC33"/>
<path d="M38.0859 80.4141H61.9015V81.5889H38.0859V80.4141Z" fill="#FFCC33"/>
<path d="M37.6719 64.2539H38.5274V87.7517H37.6719V64.2539Z" fill="#ACEAC9"/>
<path d="M61.4727 64.2539H62.3282V87.7517H61.4727V64.2539Z" fill="#ACEAC9"/>
<path d="M9.10547 38.875H90.8847V49.1054H9.10547V38.875Z" fill="#92E0B9"/>
<path opacity="0.08" d="M45.547 38.875V49.1051H17.489L9.10547 40.7229V38.875H45.547Z" fill="#2C2C34"/>
<path d="M7.25391 36.6484H92.7295V38.8736H7.25391V36.6484Z" fill="#ACEAC9"/>
<path opacity="0.08" d="M88.315 49.104H61.9336L72.6094 36.6484H75.8599L88.315 49.104Z" fill="#2C2C34"/>
<path d="M66.5056 53.2632L74.9486 36.9767C75.3614 36.1806 74.954 35.1811 74.1002 34.9071C58.0326 29.7497 41.9651 29.7497 25.8975 34.9071C25.0437 35.1811 24.6363 36.1806 25.049 36.9767L33.4921 53.2632H66.5056Z" fill="#E63936"/>
<path d="M52.8867 41.091L53.5688 45.0701L50.0021 43.194L46.4214 45.0701L47.1176 41.091L44.2188 38.2774L48.2116 37.6946L50.0021 34.0859L51.7925 37.6946L55.7856 38.2774L52.8867 41.091Z" fill="#FFCC33"/>
<path d="M62.6329 43.429L63.1683 46.5528L60.3683 45.0799L57.5573 46.5528L58.1039 43.429L55.8281 41.2202L58.9627 40.7627L60.3683 37.9297L61.7739 40.7627L64.9087 41.2202L62.6329 43.429Z" fill="#FFCC33"/>
<path d="M41.8985 43.429L42.434 46.5528L39.634 45.0799L36.8229 46.5528L37.3695 43.429L35.0938 41.2202L38.2284 40.7627L39.634 37.9297L41.0395 40.7627L44.1743 41.2202L41.8985 43.429Z" fill="#FFCC33"/>
<path opacity="0.08" d="M8.01562 64.3125H91.9845V66.3369H8.01562V64.3125Z" fill="#2C2C34"/>
<path d="M6.65625 49.1211H93.3451V64.3055H6.65625V49.1211Z" fill="#FF9933"/>
<path d="M7.67188 48.625H9.75928V51.5006H7.67188V48.625Z" fill="#FFCC33"/>
<path d="M7.67188 61.9219H9.75928V64.7974H7.67188V61.9219Z" fill="#FFCC33"/>
<path d="M11.2617 48.625H13.3491V51.5006H11.2617V48.625Z" fill="#FFCC33"/>
<path d="M11.2617 61.9219H13.3491V64.7974H11.2617V61.9219Z" fill="#FFCC33"/>
<path d="M14.8516 48.625H16.939V51.5006H14.8516V48.625Z" fill="#FFCC33"/>
<path d="M14.8516 61.9219H16.939V64.7974H14.8516V61.9219Z" fill="#FFCC33"/>
<path d="M18.4414 48.625H20.5288V51.5006H18.4414V48.625Z" fill="#FFCC33"/>
<path d="M18.4414 61.9219H20.5288V64.7974H18.4414V61.9219Z" fill="#FFCC33"/>
<path d="M22.0312 48.625H24.1187V51.5006H22.0312V48.625Z" fill="#FFCC33"/>
<path d="M22.0312 61.9219H24.1187V64.7974H22.0312V61.9219Z" fill="#FFCC33"/>
<path d="M25.6211 48.625H27.7085V51.5006H25.6211V48.625Z" fill="#FFCC33"/>
<path d="M25.6211 61.9219H27.7085V64.7974H25.6211V61.9219Z" fill="#FFCC33"/>
<path d="M29.2112 48.625H31.2986V51.5006H29.2112V48.625Z" fill="#FFCC33"/>
<path d="M29.2112 61.9219H31.2986V64.7974H29.2112V61.9219Z" fill="#FFCC33"/>
<path d="M32.8008 48.625H34.8882V51.5006H32.8008V48.625Z" fill="#FFCC33"/>
<path d="M32.8008 61.9219H34.8882V64.7974H32.8008V61.9219Z" fill="#FFCC33"/>
<path d="M36.3906 48.625H38.478V51.5006H36.3906V48.625Z" fill="#FFCC33"/>
<path d="M36.3906 61.9219H38.478V64.7974H36.3906V61.9219Z" fill="#FFCC33"/>
<path d="M39.9805 48.625H42.0679V51.5006H39.9805V48.625Z" fill="#FFCC33"/>
<path d="M39.9805 61.9219H42.0679V64.7974H39.9805V61.9219Z" fill="#FFCC33"/>
<path d="M43.5703 48.625H45.6577V51.5006H43.5703V48.625Z" fill="#FFCC33"/>
<path d="M43.5703 61.9219H45.6577V64.7974H43.5703V61.9219Z" fill="#FFCC33"/>
<path d="M47.1602 48.625H49.2476V51.5006H47.1602V48.625Z" fill="#FFCC33"/>
<path d="M47.1602 61.9219H49.2476V64.7974H47.1602V61.9219Z" fill="#FFCC33"/>
<path d="M50.75 48.625H52.8374V51.5006H50.75V48.625Z" fill="#FFCC33"/>
<path d="M50.75 61.9219H52.8374V64.7974H50.75V61.9219Z" fill="#FFCC33"/>
<path d="M54.3398 48.625H56.4273V51.5006H54.3398V48.625Z" fill="#FFCC33"/>
<path d="M54.3398 61.9219H56.4273V64.7974H54.3398V61.9219Z" fill="#FFCC33"/>
<path d="M57.9297 48.625H60.0171V51.5006H57.9297V48.625Z" fill="#FFCC33"/>
<path d="M57.9297 61.9219H60.0171V64.7974H57.9297V61.9219Z" fill="#FFCC33"/>
<path d="M61.5195 48.625H63.6069V51.5006H61.5195V48.625Z" fill="#FFCC33"/>
<path d="M61.5195 61.9219H63.6069V64.7974H61.5195V61.9219Z" fill="#FFCC33"/>
<path d="M65.1094 48.625H67.1968V51.5006H65.1094V48.625Z" fill="#FFCC33"/>
<path d="M65.1094 61.9219H67.1968V64.7974H65.1094V61.9219Z" fill="#FFCC33"/>
<path d="M68.6992 48.625H70.7866V51.5006H68.6992V48.625Z" fill="#FFCC33"/>
<path d="M68.6992 61.9219H70.7866V64.7974H68.6992V61.9219Z" fill="#FFCC33"/>
<path d="M72.2891 48.625H74.3765V51.5006H72.2891V48.625Z" fill="#FFCC33"/>
<path d="M72.2891 61.9219H74.3765V64.7974H72.2891V61.9219Z" fill="#FFCC33"/>
<path d="M75.8789 48.625H77.9663V51.5006H75.8789V48.625Z" fill="#FFCC33"/>
<path d="M75.8789 61.9219H77.9663V64.7974H75.8789V61.9219Z" fill="#FFCC33"/>
<path d="M79.4688 48.625H81.5562V51.5006H79.4688V48.625Z" fill="#FFCC33"/>
<path d="M79.4688 61.9219H81.5562V64.7974H79.4688V61.9219Z" fill="#FFCC33"/>
<path d="M83.0586 48.625H85.146V51.5006H83.0586V48.625Z" fill="#FFCC33"/>
<path d="M83.0586 61.9219H85.146V64.7974H83.0586V61.9219Z" fill="#FFCC33"/>
<path d="M86.6484 48.625H88.7358V51.5006H86.6484V48.625Z" fill="#FFCC33"/>
<path d="M86.6484 61.9219H88.7358V64.7974H86.6484V61.9219Z" fill="#FFCC33"/>
<path d="M90.2383 48.625H92.3257V51.5006H90.2383V48.625Z" fill="#FFCC33"/>
<path d="M90.2383 61.9219H92.3257V64.7974H90.2383V61.9219Z" fill="#FFCC33"/>
</svg>
