<svg width="100" height="100" viewBox="0 0 100 100" fill="none" xmlns="http://www.w3.org/2000/svg">
<path d="M84.0231 100H15.9769C10.5143 100 6.08594 95.5717 6.08594 90.109V9.891C6.08595 4.42834 10.5143 0 15.9769 0H84.0231C89.4857 0 93.914 4.42834 93.914 9.891V90.109C93.9141 95.5717 89.4857 100 84.0231 100Z" fill="#F0F0FC"/>
<path d="M93.9023 9.89084V17.2183H6.07422V9.89084C6.07422 4.42042 10.5159 0.00390625 15.9863 0.00390625H84.0154C89.486 0.00390625 93.9023 4.42042 93.9023 9.89084Z" fill="#EA6387"/>
<path opacity="0.1" d="M93.9223 9.89208V90.1016C93.9223 95.5728 89.4801 99.9898 84.009 99.9898H47.8945C80.7241 80.7412 85.9221 35.307 68.983 0.00390625H84.009C89.4801 0.00390625 93.9223 4.42098 93.9223 9.89208Z" fill="#031621"/>
<path d="M36.6611 11.4386H17.1118C16.1245 11.4386 15.3242 10.6382 15.3242 9.651V6.91258C15.3242 5.92533 16.1245 5.125 17.1118 5.125H36.6611C37.6484 5.125 38.4487 5.92533 38.4487 6.91258V9.651C38.4487 10.6382 37.6484 11.4386 36.6611 11.4386Z" fill="#F0F0FC"/>
<path d="M61.6258 11.4391C63.2205 11.4391 64.5133 10.1463 64.5133 8.55156C64.5133 6.95684 63.2205 5.66406 61.6258 5.66406C60.0311 5.66406 58.7383 6.95684 58.7383 8.55156C58.7383 10.1463 60.0311 11.4391 61.6258 11.4391Z" fill="#F0F0FC"/>
<path d="M71.6961 11.4391C73.2908 11.4391 74.5836 10.1463 74.5836 8.55156C74.5836 6.95684 73.2908 5.66406 71.6961 5.66406C70.1014 5.66406 68.8086 6.95684 68.8086 8.55156C68.8086 10.1463 70.1014 11.4391 71.6961 11.4391Z" fill="#F0F0FC"/>
<path d="M81.7664 11.4391C83.3611 11.4391 84.6539 10.1463 84.6539 8.55156C84.6539 6.95684 83.3611 5.66406 81.7664 5.66406C80.1717 5.66406 78.8789 6.95684 78.8789 8.55156C78.8789 10.1463 80.1717 11.4391 81.7664 11.4391Z" fill="#F0F0FC"/>
<path d="M49.9937 87.8781C66.1576 87.8781 79.2609 74.7748 79.2609 58.6109C79.2609 42.4471 66.1576 29.3438 49.9937 29.3438C33.8299 29.3438 20.7266 42.4471 20.7266 58.6109C20.7266 74.7748 33.8299 87.8781 49.9937 87.8781Z" fill="#EA6387"/>
<path d="M68.9858 67.9011C65.5772 74.9456 58.3621 79.8031 49.9824 79.8031C38.3077 79.8031 28.8203 70.3157 28.8203 58.6124C28.8203 46.9093 38.3077 37.4219 49.9824 37.4219C58.3621 37.4219 65.5773 42.2791 68.9858 49.3239C65.5772 50.9997 63.2195 54.522 63.2195 58.6124C63.2195 62.7028 65.5772 66.2253 68.9858 67.9011Z" fill="#3B3B44"/>
<path d="M37.8985 68.9271C37.5776 68.9271 37.2553 68.8183 36.9875 68.5978C36.3806 68.0956 36.2969 67.1944 36.8005 66.5861L37.0405 66.2987C37.9026 65.2747 38.5262 64.5325 38.5262 62.9114C38.5262 61.2848 37.9068 60.5509 37.0488 59.5297C36.0876 58.3886 34.8906 56.9656 34.8906 54.2731C34.8906 51.6112 36.0695 50.2092 37.0167 49.0805L37.2427 48.8113C37.7408 48.2044 38.642 48.1165 39.2545 48.6215C39.8613 49.1238 39.9464 50.025 39.4442 50.6333L39.2042 50.9193C38.3909 51.8874 37.7478 52.6533 37.7478 54.2731C37.7478 55.9248 38.3714 56.6642 39.2349 57.691C40.192 58.8294 41.3834 60.244 41.3834 62.9114C41.3834 65.5761 40.1878 66.9963 39.2266 68.1374L38.9992 68.4109C38.7174 68.7513 38.31 68.9271 37.8985 68.9271ZM48.0003 68.4081L48.2305 68.1346C49.1889 66.9935 50.3817 65.5733 50.3817 62.9114C50.3817 60.244 49.1917 58.8294 48.2347 57.691C47.3711 56.6642 46.7475 55.9248 46.7475 54.273C46.7475 52.6519 47.3906 51.886 48.204 50.9178L48.4425 50.6333C48.9462 50.025 48.8597 49.1238 48.2528 48.6215C47.6418 48.1165 46.7419 48.2044 46.2411 48.8113L46.0165 49.0791C45.0692 50.2078 43.8904 51.6098 43.8904 54.2731C43.8904 56.9656 45.0873 58.3886 46.0486 59.5297C46.9065 60.5509 47.526 61.2848 47.526 62.9114C47.526 64.5325 46.9038 65.2719 46.043 66.2959L45.7988 66.5889C45.2966 67.1944 45.3803 68.0956 45.9886 68.5978C46.255 68.8183 46.5773 68.9271 46.8982 68.9271C47.3097 68.9271 47.7171 68.7513 48.0003 68.4081ZM56.9972 68.4081L57.2288 68.1319C58.1886 66.9907 59.3828 65.5705 59.3828 62.9114C59.3828 60.244 58.1914 58.8294 57.2344 57.691C56.3722 56.6642 55.7472 55.9248 55.7472 54.2731C55.7472 52.652 56.3889 51.8861 57.2037 50.9179L57.4436 50.6333C57.9459 50.025 57.8594 49.1238 57.2511 48.6216C56.6484 48.1193 55.7472 48.2044 55.2394 48.8113L55.0162 49.0791C54.0703 50.2078 52.8901 51.6098 52.8901 54.2731C52.8901 56.9656 54.087 58.3886 55.0497 59.5298C55.9062 60.551 56.5257 61.2848 56.5257 62.9115C56.5257 64.5298 55.9034 65.2692 55.0441 66.2931L54.7985 66.5889C54.2935 67.1944 54.38 68.0956 54.9883 68.5978C55.2533 68.8183 55.577 68.9271 55.8979 68.9271C56.308 68.9271 56.7154 68.7513 56.9972 68.4081Z" fill="#F0F0FC"/>
</svg>
