<svg width="153" height="152" viewBox="0 0 153 152" fill="none" xmlns="http://www.w3.org/2000/svg">
<path fill-rule="evenodd" clip-rule="evenodd" d="M79.2743 0.00100415C103.265 -0.0849778 128.779 5.32912 143.129 24.6036C157.087 43.3519 152.608 68.4406 147.166 91.1906C141.826 113.513 134.43 137.572 113.749 147.424C93.1536 157.236 69.9242 147.806 49.4514 137.741C29.2246 127.797 9.61068 114.713 3.18268 93.067C-3.72525 69.8045 0.642455 43.8305 15.99 25.0592C31.117 6.5577 55.4125 0.086526 79.2743 0.00100415Z" fill="#C4EAFF"/>
<g clip-path="url(#clip0_5335_24582)">
<path fill-rule="evenodd" clip-rule="evenodd" d="M41.269 87.3125H50.8088C51.8563 87.3125 52.7133 88.1734 52.7133 89.2256C52.7133 90.2777 51.8563 91.1387 50.8088 91.1387H41.269C40.2215 91.1387 39.3645 90.2777 39.3645 89.2256C39.3645 88.1734 40.2215 87.3125 41.269 87.3125Z" fill="#FDA02F"/>
<path fill-rule="evenodd" clip-rule="evenodd" d="M73.5932 49.0753C74.3072 40.2928 81.9252 33.7238 90.6754 34.3454C99.4256 34.9669 106.047 42.5473 105.524 51.3433C113.88 51.3433 120.716 58.2107 120.716 66.604C120.716 74.9972 113.88 81.8646 105.524 81.8646H52.6315C51.5842 81.8646 50.727 81.0038 50.727 79.9515C50.727 78.8992 51.584 78.0384 52.6315 78.0384C53.624 77.9679 54.4016 77.1297 54.4016 76.1302C54.4016 75.0779 53.5444 74.217 52.4971 74.217H46.6904C45.6431 74.217 44.7859 73.3562 44.7859 72.3039C44.7859 71.2516 45.6429 70.3908 46.6904 70.3908H48.5548C49.6023 70.3908 50.4593 69.5299 50.4593 68.4777C50.4593 67.4254 49.6021 66.5645 48.5548 66.5645H37.4019C36.3545 66.5645 35.4974 65.7037 35.4974 64.6514C35.4974 63.5992 36.3543 62.7383 37.4019 62.7383H47.0301C49.8359 59.3547 52.9714 58.902 55.9183 59.7408C54.4472 53.8828 58.2633 47.7435 63.7109 46.4515C67.0075 45.6694 70.8323 46.5584 73.593 49.0756L73.5932 49.0753Z" fill="#2A93FC"/>
<path fill-rule="evenodd" clip-rule="evenodd" d="M105.523 51.3448C113.871 51.3448 120.702 58.2062 120.702 66.5924C120.702 74.9785 113.871 81.8401 105.523 81.8401H67.4679C52.1476 81.8401 50.4843 63.9645 61.2287 59.7349C59.5153 48.6729 72.1215 46.3944 76.167 52.685C78.3554 32.5147 104.3 33.6527 105.523 51.345L105.523 51.3448Z" fill="#5CAEFF"/>
<path fill-rule="evenodd" clip-rule="evenodd" d="M89.6537 39.8082C89.0541 39.7704 88.5988 39.2515 88.6362 38.6492C88.6738 38.0468 89.1904 37.5894 89.79 37.6272C92.7127 37.8168 95.3244 38.8429 97.392 40.4877C99.4923 42.1585 101.024 44.4591 101.745 47.1638C101.9 47.7471 101.556 48.3465 100.975 48.5023C100.394 48.6582 99.7975 48.3117 99.6423 47.7283C99.0429 45.4809 97.778 43.5755 96.0466 42.1982C94.3215 40.8259 92.1259 39.9687 89.6537 39.8083V39.8082Z" fill="#BDDFFF"/>
<path fill-rule="evenodd" clip-rule="evenodd" d="M33.6167 71.6094H39.4831C40.5306 71.6094 41.3876 72.4702 41.3876 73.5225C41.3876 74.5748 40.5306 75.4356 39.4831 75.4356H33.6167C32.5691 75.4356 31.7122 74.5748 31.7122 73.5225C31.7122 72.4702 32.5691 71.6094 33.6167 71.6094Z" fill="#2A93FC"/>
<path fill-rule="evenodd" clip-rule="evenodd" d="M48.7768 95.25H54.24C55.2875 95.25 56.1445 96.1109 56.1445 97.1631C56.1445 98.2154 55.2875 99.0762 54.24 99.0762H48.7768C47.7293 99.0762 46.8723 98.2154 46.8723 97.1631C46.8723 96.1109 47.7293 95.25 48.7768 95.25Z" fill="#FDA02F"/>
<path fill-rule="evenodd" clip-rule="evenodd" d="M41.1284 78.8359H44.2867C45.3343 78.8359 46.1912 79.6968 46.1912 80.7491C46.1912 81.8013 45.3343 82.6622 44.2867 82.6622H41.1284C40.0809 82.6622 39.2239 81.8013 39.2239 80.7491C39.2239 79.6968 40.0809 78.8359 41.1284 78.8359Z" fill="#FDA02F"/>
<path fill-rule="evenodd" clip-rule="evenodd" d="M88.1986 61.0549L93.7252 63.3577L96.6215 61.4067L103.237 68.0518L101.294 70.9613L103.587 76.5129L107.005 77.1899V86.5875L103.587 87.2646L101.294 92.8162L103.237 95.7256L96.6215 102.371L93.7252 100.42L88.1986 102.722L87.5245 106.156H78.1693L77.4954 102.722L71.9686 100.42L69.0724 102.371L62.4572 95.7256L64.3995 92.8162L62.107 87.2646L58.6887 86.5875V77.1899L62.107 76.5129L64.3995 70.9613L62.4572 68.0518L69.0724 61.4067L71.9686 63.3577L77.4954 61.0549L78.1693 57.6211H87.5245L88.1986 61.0549Z" fill="#E68207"/>
<path fill-rule="evenodd" clip-rule="evenodd" d="M88.1973 61.0549L90.0662 61.8338L92.4869 62.8425L93.7237 63.3577L94.7841 63.7997L97.3091 62.0987L103.235 68.0518L101.293 70.9613L103.586 76.5129L107.004 77.1899V86.5875L103.586 87.2646L101.293 92.8162L103.235 95.7256L97.3089 101.679L94.7841 99.9779L93.7239 100.42L93.7237 100.42L88.1973 102.722L87.5232 106.156L79.3058 106.156L78.5803 102.46L72.6234 99.9779L71.9675 100.42L71.9674 100.42L70.0985 101.679L64.1721 95.7256L66.1143 92.8162L63.8219 87.2646L60.4036 86.5876V77.1899L63.8219 76.5129L66.1143 70.9613L64.1721 68.0518L70.0985 62.0987L71.9674 63.3577L72.6234 63.7997L78.5803 61.3174L79.3058 57.6211H87.5232L88.1973 61.0549Z" fill="#FDA02F"/>
<path d="M99.3623 82.788C99.8379 74.2723 93.3513 66.9816 84.8741 66.5038C76.3968 66.026 69.139 72.5419 68.6633 81.0576C68.1876 89.5733 74.6742 96.8639 83.1515 97.3418C91.6288 97.8196 98.8866 91.3036 99.3623 82.788Z" fill="#E68207"/>
<path d="M93.709 92.8138C99.7145 86.7811 99.7145 77.0001 93.709 70.9674C87.7035 64.9347 77.9666 64.9347 71.9611 70.9674C65.9556 77.0001 65.9556 86.7811 71.9611 92.8138C77.9666 98.8465 87.7035 98.8465 93.709 92.8138Z" fill="white"/>
<path fill-rule="evenodd" clip-rule="evenodd" d="M91.3158 71.8119C91.7414 71.3844 92.4314 71.3844 92.8568 71.8119C93.2824 72.2392 93.2824 72.9324 92.8568 73.3599L92.4634 73.7551C92.0378 74.1826 91.3478 74.1826 90.9224 73.7551C90.4968 73.3278 90.4968 72.6346 90.9224 72.2071L91.3158 71.8119ZM95.9117 80.7683C96.5136 80.7683 97.0015 81.2584 97.0015 81.863C97.0015 82.4677 96.5136 82.9578 95.9117 82.9578H95.3553C94.7533 82.9578 94.2655 82.4677 94.2655 81.863C94.2655 81.2584 94.7533 80.7683 95.3553 80.7683H95.9117ZM92.8568 90.3662C93.2824 90.7935 93.2824 91.4867 92.8568 91.9142C92.4312 92.3417 91.7414 92.3415 91.3158 91.9142L90.9224 91.519C90.4968 91.0917 90.4968 90.3985 90.9224 89.971C91.3479 89.5434 92.0378 89.5436 92.4634 89.971L92.8568 90.3662ZM83.9408 94.9829C83.9408 95.5875 83.4529 96.0776 82.851 96.0776C82.249 96.0776 81.7611 95.5875 81.7611 94.9829V94.424C81.7611 93.8193 82.249 93.3292 82.851 93.3292C83.4529 93.3292 83.9408 93.8193 83.9408 94.424V94.9829ZM74.3862 91.9142C73.9606 92.3415 73.2707 92.3415 72.8451 91.9142C72.4195 91.4867 72.4195 90.7935 72.8451 90.3662L73.2385 89.971C73.6641 89.5436 74.354 89.5436 74.7796 89.971C75.2052 90.3985 75.2052 91.0917 74.7796 91.519L74.3862 91.9142ZM69.7903 82.9578C69.1883 82.9578 68.7004 82.4677 68.7004 81.863C68.7004 81.2584 69.1883 80.7683 69.7903 80.7683H70.3466C70.9486 80.7683 71.4365 81.2584 71.4365 81.863C71.4365 82.4677 70.9486 82.9578 70.3466 82.9578H69.7903ZM72.8451 73.3599C72.4195 72.9324 72.4195 72.2392 72.8451 71.8119C73.2707 71.3845 73.9608 71.3844 74.3862 71.8119L74.7796 72.2071C75.2052 72.6346 75.2052 73.3278 74.7796 73.7551C74.354 74.1824 73.6639 74.1826 73.2385 73.7551L72.8451 73.3599ZM81.7611 68.7432C81.7611 68.1385 82.249 67.6484 82.851 67.6484C83.4529 67.6484 83.9408 68.1385 83.9408 68.7432V69.3021C83.9408 69.9068 83.4529 70.3969 82.851 70.3969C82.249 70.3969 81.7611 69.9068 81.7611 69.3021V68.7432Z" fill="#7986BF"/>
<path fill-rule="evenodd" clip-rule="evenodd" d="M83.6232 82.6386C83.1978 83.0659 82.5077 83.0659 82.0821 82.6386C81.6565 82.211 81.6565 81.5179 82.0821 81.0905L88.0634 75.0822C88.489 74.6549 89.1788 74.6549 89.6044 75.0822C90.03 75.5097 90.03 76.2029 89.6044 76.6302L83.6232 82.6386Z" fill="#7986BF"/>
<path d="M84.3929 83.4241C85.2511 82.5621 85.2511 81.1645 84.3929 80.3025C83.5348 79.4405 82.1436 79.4405 81.2854 80.3025C80.4273 81.1645 80.4273 82.5621 81.2854 83.4241C82.1436 84.2861 83.5348 84.2861 84.3929 83.4241Z" fill="#FDC72E"/>
</g>
<defs>
<clipPath id="clip0_5335_24582">
<rect width="93" height="71" fill="white" transform="translate(29.7122 34.7305)"/>
</clipPath>
</defs>
</svg>
