<svg width="100" height="100" viewBox="0 0 100 100" fill="none" xmlns="http://www.w3.org/2000/svg">
<g clip-path="url(#clip0_5335_26217)">
<path d="M40.1562 81.6289H100V98.9531H40.1562V81.6289Z" fill="#A87140"/>
<path d="M40.1562 0.125H100V62.9375H40.1562V0.125Z" fill="#BB844C"/>
<path d="M40.1562 0.125H100V9.98828H40.1562V0.125Z" fill="#A87140"/>
<path d="M40.1562 62.9375H100V81.6289H40.1562V62.9375Z" fill="#A87140"/>
<path d="M68.9062 9.98828H71.25V62.9375H68.9062V9.98828Z" fill="#915D33"/>
<path d="M76.7578 29.5391H79.1016V38.0547H76.7578V29.5391Z" fill="#915D33"/>
<path d="M61.6211 29.5391H63.9648V38.0547H61.6211V29.5391Z" fill="#915D33"/>
<path d="M62.793 67.8008H76.25V70.1445H62.793V67.8008Z" fill="#915D33"/>
<path d="M62.793 87.8203H76.25V90.1641H62.793V87.8203Z" fill="#915D33"/>
<path d="M40.1562 80.457H100V82.8008H40.1562V80.457Z" fill="#915D33"/>
<path d="M29.668 24.2266H8.65234L10.9961 8.07422H27.3242L29.668 24.2266Z" fill="#B8BCBA"/>
<path d="M19.1602 97.5273H20.332V24.2266H17.9883V97.5273H19.1602Z" fill="#915D33"/>
<path d="M19.1602 98.6992H24.4922V97.5273H20.332V98.6992H19.1602Z" fill="#915D33"/>
<path d="M19.1602 98.6992H14.2773V99.8711H24.4922V98.6992H19.1602Z" fill="#915D33"/>
<path d="M19.1602 98.6992H17.9883V97.5273H14.2773V98.6992H19.1602Z" fill="#915D33"/>
<path d="M19.1602 97.5273H20.332V98.6992H19.1602V97.5273Z" fill="#915D33"/>
<path d="M17.9883 97.5273H19.1602V98.6992H17.9883V97.5273Z" fill="#915D33"/>
<path d="M58.9844 98.6992H53.9062L51.6602 91.5508H58.9844V98.6992Z" fill="#915D33"/>
<path d="M4.58984 98.6992H9.6875L11.9336 91.5508H4.58984V98.6992Z" fill="#915D33"/>
<path d="M2.51953 78.5625H60.2734C61.6602 78.5625 62.793 79.6953 62.793 81.082V89.0508C62.793 90.4375 61.6602 91.5703 60.2734 91.5703H2.51953C1.13281 91.5703 0 90.4375 0 89.0508V81.082C0 79.6953 1.13281 78.5625 2.51953 78.5625Z" fill="#BB844C"/>
<path d="M7.65625 65.5547H55.1172C59.3359 65.5547 62.7734 68.9922 62.7734 73.2109V76.0234C62.7734 77.4102 61.6406 78.543 60.2539 78.543H2.51953C1.13281 78.543 0.0195312 77.4297 0 76.043V73.2109C0 68.9922 3.4375 65.5547 7.65625 65.5547Z" fill="#C6CDC9"/>
<path d="M10.1577 45.3984H52.3061C55.7436 45.3984 58.4194 47.918 58.1069 50.8281L56.4662 65.5547H5.99749L4.35687 50.8281C4.04437 47.918 6.72015 45.3984 10.1577 45.3984Z" fill="#B8BCBA"/>
</g>
<defs>
<clipPath id="clip0_5335_26217">
<rect width="100" height="100" fill="white"/>
</clipPath>
</defs>
</svg>
