<svg width="100" height="81" viewBox="0 0 100 81" fill="none" xmlns="http://www.w3.org/2000/svg">
<path d="M49.5192 25.0815C48.6288 25.0815 47.9062 24.3589 47.9062 23.4685V4.70726C47.9062 2.1121 49.9893 0 52.5498 0C55.1111 0 57.1942 2.1121 57.1942 4.70726V11.6452C57.1942 12.7556 58.0321 13.6258 59.1014 13.6258H65.4071C66.2974 13.6258 67.02 14.3484 67.02 15.2387C67.02 16.129 66.2974 16.8516 65.4071 16.8516H59.1014C56.2708 16.8516 53.9683 14.5161 53.9683 11.6452V4.70726C53.9683 3.90403 53.3183 3.22581 52.5498 3.22581C51.7813 3.22581 51.1321 3.90403 51.1321 4.70726V23.4685C51.1321 24.3589 50.4103 25.0815 49.5192 25.0815Z" fill="#C32545"/>
<path d="M57.5945 23.4688H42.409C39.7364 23.4688 37.5703 25.6349 37.5703 28.3075V34.2978H62.4332V28.3075C62.4332 25.6349 60.2671 23.4688 57.5945 23.4688Z" fill="#0087FF"/>
<path d="M57.5079 23.4688V30.1583H46.5345C45.3345 30.1583 44.3756 31.2034 44.499 32.4421C44.6014 33.4704 45.6313 34.297 46.6554 34.297H62.4329V28.4373C62.4329 25.6937 60.228 23.4688 57.5079 23.4688Z" fill="#005DEB"/>
<path d="M76.95 34.2969C76.9403 34.2969 76.9306 34.2977 76.9202 34.2977C76.9105 34.2977 76.9008 34.2969 76.8911 34.2969H23.1089C23.0992 34.2969 23.0895 34.2977 23.0798 34.2977C23.0702 34.2977 23.0605 34.2969 23.05 34.2969C10.3194 34.2969 0 44.6727 0 57.4711C0 70.2695 10.3194 80.6453 23.05 80.6453C23.0597 80.6453 23.0694 80.6445 23.0798 80.6445C27.95 80.638 32.4637 79.1098 36.1831 76.5122C40.5153 73.4864 43.7621 69.0057 45.2306 63.7727H54.7718C56.7468 70.8122 61.9427 76.4888 68.6621 79.0945C71.2266 80.0888 74.0097 80.6404 76.9218 80.6445C76.9315 80.6445 76.9411 80.6453 76.9516 80.6453C89.6806 80.6453 100 70.2703 100 57.4711C100 44.6719 89.6806 34.2969 76.95 34.2969Z" fill="#FF2641"/>
<path d="M36.6936 73.3663C35.9976 72.3445 34.6073 72.0848 33.5935 72.7913C30.4847 74.9631 26.8266 76.1139 23.0161 76.1195C12.7831 76.1195 4.45726 67.755 4.45726 57.4743C4.45726 47.1937 12.7831 38.8292 23.0161 38.8292C24.2452 38.8292 25.2452 37.8179 25.2452 36.5743C25.2452 35.3308 24.2452 34.3203 23.0161 34.3203C10.325 34.3211 0 44.7082 0 57.4751C0 63.6518 2.39839 69.4647 6.75323 73.8413C11.1089 78.2187 16.8944 80.6284 23.0444 80.6284H23.046C27.7476 80.6227 32.2702 79.1961 36.1258 76.5026C37.1726 75.6131 37.3613 74.5671 36.6936 73.3663Z" fill="#FF655A"/>
<path d="M63.2306 73.3663C63.9265 72.3445 65.3168 72.0848 66.3306 72.7913C69.4394 74.9631 73.0975 76.1139 76.908 76.1195C87.141 76.1195 95.4668 67.755 95.4668 57.4743C95.4668 47.1937 87.141 38.8292 76.908 38.8292C75.6789 38.8292 74.6789 37.8179 74.6789 36.5743C74.6789 35.3308 75.6789 34.3203 76.908 34.3203C89.5991 34.3203 99.9241 44.7074 99.9241 57.4743C99.9241 63.651 97.5257 69.4639 93.1709 73.8405C88.8152 78.2179 83.0298 80.6276 76.8798 80.6276C76.8789 80.6276 76.8781 80.6276 76.8781 80.6276C72.1765 80.6219 67.6539 79.1953 63.7983 76.5018C62.7515 75.6131 62.562 74.5671 63.2306 73.3663Z" fill="#C32545"/>
<path d="M85.1151 61.0908C87.1763 61.0908 88.8473 59.4108 88.8473 57.3384C88.8473 55.266 87.1763 53.5859 85.1151 53.5859C83.0538 53.5859 81.3828 55.266 81.3828 57.3384C81.3828 59.4108 83.0538 61.0908 85.1151 61.0908Z" fill="white"/>
<path d="M67.3104 61.0908C69.3717 61.0908 71.0426 59.4108 71.0426 57.3384C71.0426 55.266 69.3717 53.5859 67.3104 53.5859C65.2491 53.5859 63.5781 55.266 63.5781 57.3384C63.5781 59.4108 65.2491 61.0908 67.3104 61.0908Z" fill="white"/>
<path d="M76.2948 50.4892C78.356 50.4892 80.027 48.8092 80.027 46.7368C80.027 44.6644 78.356 42.9844 76.2948 42.9844C74.2335 42.9844 72.5625 44.6644 72.5625 46.7368C72.5625 48.8092 74.2335 50.4892 76.2948 50.4892Z" fill="white"/>
<path d="M76.2948 71.958C78.356 71.958 80.027 70.2779 80.027 68.2055C80.027 66.1331 78.356 64.4531 76.2948 64.4531C74.2335 64.4531 72.5625 66.1331 72.5625 68.2055C72.5625 70.2779 74.2335 71.958 76.2948 71.958Z" fill="white"/>
<path d="M24.359 71.2635C23.4687 71.2635 22.7461 70.5409 22.7461 69.6506V44.5699C22.7461 43.6796 23.4687 42.957 24.359 42.957C25.2493 42.957 25.9719 43.6796 25.9719 44.5699V69.6514C25.9719 70.5417 25.2501 71.2635 24.359 71.2635Z" fill="white"/>
<path d="M36.8331 58.7258H11.8863C10.996 58.7258 10.2734 58.0032 10.2734 57.1129C10.2734 56.2226 10.996 55.5 11.8863 55.5H36.8331C37.7234 55.5 38.446 56.2226 38.446 57.1129C38.446 58.0032 37.7234 58.7258 36.8331 58.7258Z" fill="white"/>
</svg>
