<svg width="100" height="100" viewBox="0 0 100 100" fill="none" xmlns="http://www.w3.org/2000/svg">
<path d="M80.5156 6.0625C76.8906 4.14063 72.8594 3.125 68.75 3.125C68.75 3.125 68.3594 7.8125 65.8125 12.5C63.2812 17.1875 58.5938 21.875 50 21.875C32.8125 21.875 31.25 3.125 31.25 3.125C27.1406 3.125 23.1094 4.14063 19.4844 6.0625L1.5625 15.625L7.8125 40.625L20.3125 37.5V45.8594V53.7656C23.0625 54.9844 25 57.7344 25 60.9375C25 64.1406 23.0625 66.8906 20.3125 68.1094V76.3594V87.5H50C50 83.1875 53.5 79.6875 57.8125 79.6875C59.625 79.6875 61.2812 80.2969 62.6094 81.3438C63.2516 76.4625 67.1297 72.6094 72.0219 71.9766C72.4875 71.9172 72.9563 71.875 73.4375 71.875C73.2438 71.6203 72.6578 70.5609 72.5422 70.2984C72.1266 69.3453 71.875 68.3 71.875 67.1875C71.875 62.875 75.375 59.375 79.6875 59.375V37.5L92.1875 40.625L98.4375 15.625L80.5156 6.0625ZM52.3438 29.6875C52.3438 31.4203 52.9531 32.9734 53.9453 34.1078C54.9375 35.2422 56.2969 35.9375 57.8125 35.9375C56.2969 35.9375 54.9375 36.6344 53.9453 37.7672C52.9531 38.9016 52.3438 40.4547 52.3438 42.1875C52.3438 40.4547 51.7344 38.9016 50.7422 37.7672C49.75 36.6344 48.3906 35.9375 46.875 35.9375C49.8984 35.9375 52.3438 33.1422 52.3438 29.6875ZM41.35 49.6203C39.9328 51.3219 39.0625 53.6516 39.0625 56.25C39.0625 53.6516 38.1922 51.3219 36.775 49.6203C35.3578 47.9203 33.4156 46.875 31.25 46.875C33.4156 46.875 35.3578 45.8297 36.775 44.1297C38.1922 42.4281 39.0625 40.0984 39.0625 37.5C39.0625 42.6828 42.5563 46.875 46.875 46.875C44.7094 46.875 42.7672 47.9203 41.35 49.6203ZM60.8906 59.3281C60.2344 60 59.4375 60.4531 58.6094 60.7031C59.1094 61.7187 59.375 62.8594 59.375 64.0625C59.375 68.375 55.875 71.875 51.5625 71.875C47.25 71.875 43.75 68.375 43.75 64.0625C43.75 59.75 47.25 56.25 51.5625 56.25H51.625C51.3906 54.5938 51.9062 52.875 53.1719 51.6094C55.2969 49.4687 58.7656 49.4687 60.8906 51.6094C63.0313 53.7344 63.0313 57.2031 60.8906 59.3281Z" fill="#F7753C"/>
<path d="M80.5172 12.3125L97.0609 21.1391L98.4391 15.625L80.5172 6.0625C76.8922 4.14063 72.8609 3.125 68.7516 3.125C68.7516 3.125 68.5109 5.95781 67.2109 9.42031C71.3875 9.63125 77.3219 10.6188 80.5172 12.3125Z" fill="#FC9972"/>
<path d="M19.4844 12.3125C22.6781 10.6188 28.6094 9.63125 32.7875 9.42031C31.4906 5.95781 31.25 3.125 31.25 3.125C27.1406 3.125 23.1094 4.14063 19.4844 6.0625L1.5625 15.625L2.94062 21.1391L19.4844 12.3125Z" fill="#FC9972"/>
<path d="M52.3438 42.1875C52.3438 40.4547 52.9531 38.9016 53.9453 37.7672C54.9375 36.6344 56.2969 35.9375 57.8125 35.9375C56.2969 35.9375 54.9375 35.2406 53.9453 34.1078C52.9531 32.975 52.3438 31.4203 52.3438 29.6875C52.3438 33.1422 49.8984 35.9375 46.875 35.9375C48.3906 35.9375 49.75 36.6344 50.7422 37.7672C51.7344 38.9016 52.3438 40.4547 52.3438 42.1875Z" fill="#B0E1F4"/>
<path d="M39.0625 37.5C39.0625 40.0984 38.1922 42.4281 36.775 44.1297C35.3578 45.8297 33.4156 46.875 31.25 46.875C33.4156 46.875 35.3578 47.9203 36.775 49.6203C38.1922 51.3219 39.0625 53.6516 39.0625 56.25C39.0625 53.6516 39.9328 51.3219 41.35 49.6203C42.7672 47.9203 44.7094 46.875 46.875 46.875C42.5562 46.875 39.0625 42.6828 39.0625 37.5Z" fill="#83CAED"/>
<path d="M68.75 3.125C68.75 3.125 68.3594 7.8125 65.8125 12.5C63.2812 17.1875 58.5938 21.875 50 21.875C32.8125 21.875 31.25 3.125 31.25 3.125C31.25 3.125 39.0625 7.8125 50 7.8125C60.9375 7.8125 68.75 3.125 68.75 3.125Z" fill="#E06027"/>
<path d="M20.3125 68.1094V76.3594C19.8125 76.5 19.2969 76.5625 18.75 76.5625C15.2969 76.5625 12.5 73.7656 12.5 70.3125C12.5 69.3437 12.7187 68.4219 13.125 67.6094C14.3125 68.3281 15.7031 68.75 17.1875 68.75C18.2969 68.75 19.3594 68.5156 20.3125 68.1094Z" fill="#B0E1F4"/>
<path d="M20.3125 45.8594V53.7656C19.3594 53.3594 18.2969 53.125 17.1875 53.125C15.8906 53.125 14.6562 53.4375 13.5781 54.0156C12.8906 53.1094 12.5 51.9844 12.5 50.7813C12.5 47.7656 14.9531 45.3125 17.9688 45.3125C18.8125 45.3125 19.6094 45.5 20.3125 45.8594Z" fill="#D8EFFA"/>
<path d="M25 60.9375C25 64.1406 23.0625 66.8906 20.3125 68.1094C19.3594 68.5156 18.2969 68.75 17.1875 68.75C15.7031 68.75 14.3125 68.3281 13.125 67.6094C10.875 66.2344 9.375 63.7656 9.375 60.9375C9.375 57.9219 11.0781 55.3125 13.5781 54.0156C14.6562 53.4375 15.8906 53.125 17.1875 53.125C18.2969 53.125 19.3594 53.3594 20.3125 53.7656C23.0625 54.9844 25 57.7344 25 60.9375Z" fill="#83CAED"/>
<path d="M58.6094 60.7031C59.1094 61.7187 59.375 62.8594 59.375 64.0625C59.375 68.375 55.875 71.875 51.5625 71.875C47.25 71.875 43.75 68.375 43.75 64.0625C43.75 59.75 47.25 56.25 51.5625 56.25H51.625C54.7031 56.2812 57.3594 58.0937 58.6094 60.7031Z" fill="#83CAED"/>
<path d="M60.8909 51.6094C63.0315 53.7344 63.0315 57.2031 60.8909 59.3281C60.2346 60 59.4377 60.4531 58.6096 60.7031C57.3596 58.0938 54.7034 56.2813 51.6252 56.25C51.3909 54.5938 51.9065 52.875 53.1721 51.6094C55.2971 49.4688 58.7659 49.4688 60.8909 51.6094Z" fill="#B0E1F4"/>
<path d="M87.5 67.1875C91.0781 67.9062 93.75 71.2188 93.75 75C93.75 79.3125 90.25 82.8125 85.9375 82.8125C85.4063 82.8125 84.375 82.8125 84.375 82.8125C84.375 79.7188 83.0938 76.9219 81.0156 74.9375C84.8906 74.1875 87.5 71.6094 87.5 67.1875Z" fill="#D8EFFA"/>
<path d="M87.5 67.1875C87.5 71.6094 84.8906 74.1875 81.0156 74.9375C79.0469 73.0312 76.3906 71.875 73.4375 71.875C72.4531 70.5781 71.875 68.9531 71.875 67.1875C71.875 62.875 75.375 59.375 79.6875 59.375C84 59.375 87.5 62.875 87.5 67.1875Z" fill="#B0E1F4"/>
<path d="M81.0156 74.9375C83.0937 76.9219 84.375 79.7188 84.375 82.8125C84.375 88.8594 79.4844 93.75 73.4375 93.75C70.1406 93.75 67.2031 92.2969 65.2188 90C63.5156 88.0781 62.5 85.5781 62.5 82.8125C62.5 82.3125 62.5312 81.8281 62.6094 81.3438C63.3125 76 67.8906 71.875 73.4375 71.875C76.3906 71.875 79.0469 73.0312 81.0156 74.9375Z" fill="#83CAED"/>
<path d="M65.2188 90C64.1719 93.0937 61.25 95.3125 57.8125 95.3125C53.5 95.3125 50 91.8125 50 87.5C50 83.1875 53.5 79.6875 57.8125 79.6875C59.625 79.6875 61.2812 80.2969 62.6094 81.3438C62.5312 81.8281 62.5 82.3125 62.5 82.8125C62.5 85.5781 63.5156 88.0781 65.2188 90Z" fill="#B0E1F4"/>
<path d="M94.5312 95.3125C96.6886 95.3125 98.4375 93.5636 98.4375 91.4062C98.4375 89.2489 96.6886 87.5 94.5312 87.5C92.3739 87.5 90.625 89.2489 90.625 91.4062C90.625 93.5636 92.3739 95.3125 94.5312 95.3125Z" fill="#D8EFFA"/>
<path d="M7.8125 87.5C9.53839 87.5 10.9375 86.1009 10.9375 84.375C10.9375 82.6491 9.53839 81.25 7.8125 81.25C6.08661 81.25 4.6875 82.6491 4.6875 84.375C4.6875 86.1009 6.08661 87.5 7.8125 87.5Z" fill="#D8EFFA"/>
<path d="M92.9688 46.875C92.9688 50.7625 95.4141 53.9062 98.4375 53.9062C96.9219 53.9062 95.5625 54.6891 94.5703 55.9656C93.5781 57.2422 92.9688 58.9891 92.9688 60.9375C92.9688 58.9891 92.3594 57.2406 91.3672 55.9656C90.375 54.6891 89.0156 53.9062 87.5 53.9062C89.0156 53.9062 90.375 53.1234 91.3672 51.8469C92.3594 50.5719 92.9688 48.8234 92.9688 46.875Z" fill="#83CAED"/>
<path d="M20.3125 71.875V76.3594V87.5H50C50 85.6625 50.6625 83.9953 51.725 82.6594C25.7437 81.3563 20.3125 71.875 20.3125 71.875Z" fill="#E06027"/>
<path d="M73.9375 89.0625C73.075 89.0625 72.375 88.3641 72.375 87.5C72.375 86.6359 73.075 85.9375 73.9375 85.9375C75.6609 85.9375 77.0625 84.5359 77.0625 82.8125C77.0625 81.9484 77.7625 81.25 78.625 81.25C79.4875 81.25 80.1875 81.9484 80.1875 82.8125C80.1875 86.2594 77.3828 89.0625 73.9375 89.0625Z" fill="#C7EDF9"/>
<path d="M82.8281 69.2031C81.9656 69.2031 81.2656 68.5047 81.2656 67.6406C81.2656 66.7781 80.5641 66.0781 79.7031 66.0781C78.8406 66.0781 78.1406 65.3797 78.1406 64.5156C78.1406 63.6516 78.8406 62.9531 79.7031 62.9531C82.2875 62.9531 84.3906 65.0562 84.3906 67.6406C84.3906 68.5047 83.6906 69.2031 82.8281 69.2031Z" fill="#D8EFFA"/>
<path d="M58.75 91.8438C56.1656 91.8438 54.0625 89.7406 54.0625 87.1562C54.0625 86.2922 54.7625 85.5938 55.625 85.5938C56.4875 85.5938 57.1875 86.2922 57.1875 87.1562C57.1875 88.0187 57.8891 88.7188 58.75 88.7188C59.6125 88.7188 60.3125 89.4172 60.3125 90.2812C60.3125 91.1453 59.6125 91.8438 58.75 91.8438Z" fill="#D8EFFA"/>
<path d="M20.3125 63.0156C19.45 63.0156 18.75 62.3172 18.75 61.4531C18.75 60.5906 18.0484 59.8906 17.1875 59.8906C16.325 59.8906 15.625 59.1922 15.625 58.3281C15.625 57.4641 16.325 56.7656 17.1875 56.7656C19.7719 56.7656 21.875 58.8687 21.875 61.4531C21.875 62.3172 21.175 63.0156 20.3125 63.0156Z" fill="#C7EDF9"/>
<path d="M49.3438 66.0781C48.4813 66.0781 47.7812 65.3797 47.7812 64.5156C47.7812 61.9312 49.8844 59.8281 52.4688 59.8281C53.3313 59.8281 54.0313 60.5266 54.0313 61.3906C54.0313 62.2547 53.3313 62.9531 52.4688 62.9531C51.6078 62.9531 50.9063 63.6531 50.9063 64.5156C50.9063 65.3797 50.2062 66.0781 49.3438 66.0781Z" fill="#C7EDF9"/>
</svg>
