<svg width="100" height="100" viewBox="0 0 100 100" fill="none" xmlns="http://www.w3.org/2000/svg">
<path d="M97.7553 57.1383C98.1703 56.9469 98.4359 56.5314 98.4359 56.0744V43.926C98.4359 43.4689 98.1703 43.0535 97.7553 42.8621L88.691 38.6773L85.3686 30.6455L88.8152 21.2826C88.973 20.8539 88.8674 20.3725 88.5443 20.0494L79.9551 11.4547C79.6318 11.1313 79.15 11.0254 78.7209 11.1834L69.3529 14.6354L61.3215 11.3076L57.1424 2.24375C56.951 1.82852 56.5355 1.5625 56.0781 1.5625H43.924C43.467 1.5625 43.0516 1.82813 42.8602 2.24316L38.6752 11.3076L30.649 14.6352L21.2811 11.1832C20.8523 11.0254 20.3705 11.1309 20.0473 11.4541L11.4525 20.0488C11.1293 20.3721 11.0234 20.8539 11.1816 21.2828L14.6334 30.6451L11.3057 38.677L2.24688 42.8617C1.83203 43.0533 1.56641 43.4686 1.56641 43.9256V56.074C1.56641 56.5309 1.83203 56.9463 2.24688 57.1379L11.3057 61.3227L14.6336 69.3545L12.517 75.0986L4.12461 83.4928C2.475 85.1391 1.5666 87.3381 1.5666 89.6848C1.5666 92.0314 2.47461 94.231 4.12383 95.8803C5.83145 97.5877 8.07422 98.4414 10.317 98.4414C12.56 98.4414 14.8029 97.5875 16.5104 95.8801L24.9123 87.4764L30.6488 85.3646L38.6752 88.6924L42.8602 97.7568C43.0516 98.1719 43.467 98.4375 43.924 98.4375H56.0781C56.5354 98.4375 56.9508 98.1715 57.1424 97.7562L61.3213 88.6926L67.9018 85.9697C69.2791 93.0639 75.5355 98.4375 83.0262 98.4375C91.523 98.4375 98.4355 91.5248 98.4355 83.0281C98.4355 75.5373 93.0619 69.2809 85.9678 67.9037L88.6908 61.323L97.7551 57.1383H97.7553ZM50.0012 72.9412C46.885 72.9412 43.9123 72.3156 41.201 71.185L45.1012 67.284C46.6943 67.7355 48.3381 67.9643 49.9982 67.9643C59.9037 67.9643 67.9623 59.9057 67.9623 50.0002C67.9623 48.0857 67.6639 46.2037 67.0752 44.407C66.9484 44.0201 66.6301 43.7268 66.234 43.632C65.8377 43.5371 65.4213 43.6551 65.1332 43.9428L57.2535 51.8174L48.1814 42.7453L56.0605 34.8713C56.3486 34.5834 56.4666 34.1666 56.3721 33.7703C56.2775 33.3742 55.984 33.0555 55.5971 32.9287C53.7885 32.3363 51.9047 32.0361 49.998 32.0361C40.0926 32.0361 32.034 40.0947 32.034 50.0002C32.034 51.6604 32.2625 53.3043 32.7143 54.8977L28.815 58.7977C27.6854 56.0869 27.06 53.1154 27.06 50.0002C27.06 37.3504 37.3512 27.0592 50.001 27.0592C62.6508 27.0592 72.942 37.3504 72.942 50.0002C72.942 62.65 62.6508 72.9412 50.001 72.9412H50.0012Z" fill="#FFC250"/>
<path d="M67.075 44.4061C66.9482 44.0191 66.6299 43.7258 66.2338 43.6311C65.8375 43.5361 65.4211 43.6541 65.133 43.9418L57.2533 51.8164L48.1813 42.7443L56.0603 34.8703C56.3484 34.5824 56.4664 34.1656 56.3719 33.7693C56.2773 33.3732 55.9838 33.0545 55.5969 32.9277C53.7883 32.3354 51.9045 32.0352 49.9978 32.0352C40.0924 32.0352 32.0338 40.0938 32.0338 49.9992C32.0338 51.6594 32.2623 53.3033 32.7141 54.8967L4.12441 83.4922C2.4748 85.1385 1.56641 87.3375 1.56641 89.6842C1.56641 92.0309 2.47441 94.2305 4.12363 95.8797C5.83125 97.5871 8.07402 98.4408 10.3168 98.4408C12.5598 98.4408 14.8027 97.5869 16.5102 95.8795L45.101 67.283C46.6941 67.7346 48.3379 67.9633 49.998 67.9633C59.9035 67.9633 67.9621 59.9047 67.9621 49.9992C67.9621 48.0848 67.6637 46.2027 67.075 44.4061Z" fill="#4A80AA"/>
<path d="M67.0729 44.4078C66.9461 44.0209 66.6277 43.7275 66.2316 43.6328C66.0506 43.5894 65.8658 43.5926 65.6904 43.634C65.9012 44.7422 66.01 45.8724 66.01 47.015C66.01 56.9205 57.9514 64.9791 48.0459 64.9791C46.3857 64.9791 44.7418 64.7506 43.1488 64.2988L14.558 92.8953C12.8504 94.6027 10.6074 95.4564 8.36465 95.4566C6.12188 95.4566 3.87891 94.6029 2.17148 92.8955C2.16895 92.8929 2.1666 92.8902 2.16406 92.8877C2.59727 93.998 3.25625 95.016 4.12148 95.8814C5.8291 97.5888 8.07188 98.4425 10.3146 98.4425C12.5576 98.4425 14.8006 97.5886 16.508 95.8812L45.0988 67.2847C46.692 67.7363 48.3357 67.965 49.9959 67.965C59.9014 67.965 67.96 59.9064 67.96 50.0009C67.96 48.0865 67.6615 46.2045 67.0729 44.4078Z" fill="#407093"/>
<path d="M45.7188 40.2842L48.1869 42.7523L56.0578 34.8699C56.3459 34.582 56.4639 34.1652 56.3693 33.7689C56.2748 33.3729 55.9813 33.0541 55.5943 32.9273C54.9365 32.7119 54.2684 32.5361 53.5932 32.3984L45.7188 40.2844V40.2842Z" fill="#407093"/>
<path d="M49.9957 22.3672C34.7613 22.3672 22.3672 34.7613 22.3672 49.9957C22.3672 54.2783 23.3695 58.5244 25.2715 62.335L28.8072 58.7986C27.6566 56.0232 27.0547 53.0211 27.0547 49.9957C27.0547 37.3459 37.3459 27.0547 49.9957 27.0547C62.6455 27.0547 72.9424 37.3459 72.9424 49.9957C72.9424 62.6455 62.6484 72.9367 49.9957 72.9367C46.9703 72.9367 43.968 72.3354 41.1928 71.1859L37.6568 74.7227C41.467 76.6229 45.7129 77.6242 49.9957 77.6242C65.2332 77.6242 77.6299 65.2301 77.6299 49.9957C77.6299 34.7613 65.2332 22.3672 49.9957 22.3672Z" fill="#F2B149"/>
<path d="M83.0266 98.4359C91.5369 98.4359 98.4359 91.5369 98.4359 83.0266C98.4359 74.5162 91.5369 67.6172 83.0266 67.6172C74.5162 67.6172 67.6172 74.5162 67.6172 83.0266C67.6172 91.5369 74.5162 98.4359 83.0266 98.4359Z" fill="#80B4FB"/>
<path d="M83.0234 67.6172C82.5955 67.6172 82.173 67.6393 81.7539 67.6736C89.6586 68.3219 95.8937 74.9576 95.8937 83.0266C95.8937 91.0955 89.6584 97.7313 81.7539 98.3795C82.173 98.4139 82.5955 98.4359 83.0234 98.4359C91.5203 98.4359 98.4328 91.5232 98.4328 83.0266C98.4328 74.5299 91.5201 67.6172 83.0234 67.6172Z" fill="#61A2F9"/>
<path d="M80.7839 89.6669C80.1835 89.6669 79.5837 89.4376 79.1265 88.9804L74.6474 84.5013C73.7321 83.5858 73.7321 82.102 74.6474 81.1866C75.5628 80.2712 77.0466 80.2712 77.962 81.1866L80.8177 84.0423L88.1249 77.0313C89.0591 76.1354 90.5425 76.1659 91.4388 77.0999C92.3349 78.0339 92.3042 79.5177 91.3702 80.4138L82.4064 89.0141C81.9524 89.4495 81.3679 89.6667 80.7837 89.6667L80.7839 89.6669Z" fill="#E4F6FF"/>
<path d="M52.8457 2.24395L57.0248 11.3078L67.0787 15.4734L69.3529 14.6354L61.3215 11.3076L57.1424 2.24375C56.951 1.82852 56.5355 1.5625 56.0781 1.5625H51.7812C52.2385 1.5625 52.6539 1.82852 52.8455 2.24375L52.8457 2.24395Z" fill="#F2B149"/>
<path d="M97.7561 42.8603L88.6918 38.6756L85.3693 30.6437L88.816 21.2809C88.9738 20.8521 88.8682 20.3707 88.5451 20.0476L79.9559 11.4529C79.6326 11.1295 79.1508 11.0236 78.7217 11.1816L76.2852 12.0795L84.2482 20.0476C84.5711 20.3707 84.6768 20.8521 84.5191 21.2809L81.0725 30.6437L84.3949 38.6756L93.4592 42.8603C93.8742 43.0518 94.1398 43.4672 94.1398 43.9242V56.0726C94.1398 56.5297 93.8742 56.9451 93.4592 57.1365L84.3949 61.3213L81.7666 67.6728C82.1828 67.6391 82.6023 67.617 83.027 67.617C84.033 67.617 85.0158 67.717 85.9686 67.9019L88.6916 61.3213L97.7559 57.1365C98.1709 56.9451 98.4365 56.5297 98.4365 56.0726V43.9242C98.4365 43.4672 98.1709 43.0518 97.7559 42.8603H97.7561Z" fill="#F2B149"/>
<path d="M66.3559 84.8281L57.0244 88.6895L52.8455 97.7531C52.6541 98.1684 52.2387 98.4344 51.7812 98.4344H56.0781C56.5354 98.4344 56.9508 98.1684 57.1424 97.7531L61.3213 88.6895L67.9018 85.9666C67.8451 85.6754 67.7979 85.3809 67.7584 85.084L66.3559 84.8283V84.8281Z" fill="#F2B149"/>
</svg>
