<svg width="100" height="78" viewBox="0 0 100 78" fill="none" xmlns="http://www.w3.org/2000/svg">
<path d="M14.2227 75.8498H9.56855C8.29668 75.8498 7.26562 74.8187 7.26562 73.5469V66.5898H16.5256V73.5469C16.5256 74.8187 15.4945 75.8498 14.2227 75.8498Z" fill="#394949"/>
<path d="M90.4336 75.8498H85.7795C84.5076 75.8498 83.4766 74.8187 83.4766 73.5469V66.5898H92.7365V73.5469C92.7365 74.8187 91.7055 75.8498 90.4336 75.8498Z" fill="#394949"/>
<path d="M95.0229 70.0598H4.97715C2.22832 70.0598 0 67.8315 0 65.0826V5.12559C0 2.37676 2.22832 0.148438 4.97715 0.148438H95.0229C97.7717 0.148438 100 2.37676 100 5.12559V65.0826C100 67.8315 97.7717 70.0598 95.0229 70.0598Z" fill="#557981"/>
<path d="M7.65234 60.1549V10.0543C7.65234 8.80977 8.66133 7.80078 9.90586 7.80078H68.8398C70.0844 7.80078 71.0934 8.80977 71.0934 10.0543V60.1551C71.0934 61.3996 70.0844 62.4086 68.8398 62.4086H9.90586C8.66133 62.4084 7.65234 61.3996 7.65234 60.1549Z" fill="#E8F3FF"/>
<path d="M68.8381 7.80078H60.8516C62.0961 7.80078 63.1051 8.80977 63.1051 10.0543V60.1551C63.1051 61.3996 62.0961 62.4086 60.8516 62.4086H68.8381C70.0826 62.4086 71.0916 61.3996 71.0916 60.1551V10.0543C71.0914 8.80977 70.0826 7.80078 68.8381 7.80078Z" fill="#D8EAFB"/>
<path d="M7.65234 54.3398V60.1559C7.65234 61.4004 8.66133 62.4094 9.90586 62.4094H68.8398C70.0844 62.4094 71.0934 61.4004 71.0934 60.1559V54.3398H7.65234Z" fill="#C1E2FF"/>
<path d="M63.1051 60.1559C63.1051 61.4004 62.0961 62.4094 60.8516 62.4094H68.8381C70.0826 62.4094 71.0916 61.4004 71.0916 60.1559V54.3398H63.1051V60.1559Z" fill="#B3D8FB"/>
<path d="M95.0221 0.148438H78.4922V70.0598H95.0221C97.7709 70.0598 99.9992 67.8315 99.9992 65.0826V5.12559C99.9992 2.37676 97.7709 0.148438 95.0221 0.148438Z" fill="#688B96"/>
<path d="M95.0217 0.148438H87.0352C89.784 0.148438 92.0123 2.37676 92.0123 5.12559V65.0826C92.0123 67.8315 89.784 70.0598 87.0352 70.0598H95.0217C97.7705 70.0598 99.9988 67.8315 99.9988 65.0826V5.12559C99.9988 2.37676 97.7705 0.148438 95.0217 0.148438Z" fill="#557981"/>
<path d="M93.882 37.6258H84.6078C83.7738 37.6258 83.0977 36.9496 83.0977 36.1156C83.0977 35.2816 83.7738 34.6055 84.6078 34.6055H93.882C94.716 34.6055 95.3922 35.2816 95.3922 36.1156C95.3922 36.9496 94.716 37.6258 93.882 37.6258Z" fill="#E8F3FF"/>
<path d="M93.882 43.2508H84.6078C83.7738 43.2508 83.0977 42.5746 83.0977 41.7406C83.0977 40.9066 83.7738 40.2305 84.6078 40.2305H93.882C94.716 40.2305 95.3922 40.9066 95.3922 41.7406C95.3922 42.5746 94.716 43.2508 93.882 43.2508Z" fill="#E8F3FF"/>
<path d="M84.6094 27.6408V9.4291C84.6094 8.52969 85.3385 7.80078 86.2377 7.80078H92.2551C93.1545 7.80078 93.8834 8.52988 93.8834 9.4291V27.6408C93.8834 28.5402 93.1543 29.2691 92.2551 29.2691H86.2377C85.3385 29.2691 84.6094 28.54 84.6094 27.6408Z" fill="#62D8F9"/>
<path d="M89.2465 62.4109C91.8075 62.4109 93.8836 60.3348 93.8836 57.7738C93.8836 55.2128 91.8075 53.1367 89.2465 53.1367C86.6855 53.1367 84.6094 55.2128 84.6094 57.7738C84.6094 60.3348 86.6855 62.4109 89.2465 62.4109Z" fill="#FBD307"/>
<path d="M52.7606 54.3404H25.9871L20.5008 45.2215C19.4375 43.4543 20.7104 41.2031 22.7727 41.2031H55.9748C58.0371 41.2031 59.31 43.4543 58.2467 45.2215L52.7606 54.3404Z" fill="#FD7E42"/>
<path d="M55.9738 41.2031H48.1402C50.2025 41.2031 51.4754 43.4543 50.4121 45.2215L44.9258 54.3404H52.7594L58.2457 45.2215C59.309 43.4543 58.0361 41.2031 55.9738 41.2031Z" fill="#FC5327"/>
<path d="M41.5166 34.4908C40.8859 33.9451 40.817 32.9912 41.3627 32.3605C42.0293 31.5906 42.4068 31.3349 42.4068 30.5082C42.4068 29.841 42.1863 29.5707 41.6428 28.9701C40.9906 28.2496 40.0977 27.2629 40.0977 25.4053C40.0977 23.4564 41.0213 22.5601 41.8613 21.5963C42.4092 20.9676 43.3631 20.9017 43.992 21.4496C44.6209 21.9974 44.6865 22.9513 44.1387 23.5803C43.4799 24.3365 43.1182 24.5894 43.1182 25.4051C43.1182 26.0722 43.3387 26.3426 43.8822 26.9429C44.5344 27.6635 45.4273 28.6502 45.4273 30.5078C45.4273 32.4818 44.466 33.389 43.6469 34.3365C43.1002 34.9687 42.1463 35.0355 41.5166 34.4908Z" fill="#688B96"/>
<path d="M32.4813 34.491C31.8506 33.9453 31.7816 32.9914 32.3273 32.3608C32.9906 31.5942 33.3717 31.3422 33.3717 30.5084C33.3717 29.8412 33.1512 29.5709 32.6076 28.9703C31.9555 28.25 31.0625 27.2631 31.0625 25.4055C31.0625 23.4602 31.9801 22.5686 32.8262 21.5963C33.374 20.9674 34.3281 20.9018 34.957 21.4498C35.5857 21.9977 35.6514 22.9518 35.1035 23.5807C34.4357 24.3463 34.083 24.5936 34.083 25.4055C34.083 26.0727 34.3035 26.343 34.8471 26.9434C35.4992 27.6639 36.3922 28.6506 36.3922 30.5082C36.3922 32.4822 35.434 33.3858 34.6117 34.3369C34.0648 34.969 33.1109 35.0358 32.4813 34.491Z" fill="#688B96"/>
</svg>
