<svg width="80" height="80" viewBox="0 0 80 80" fill="none" xmlns="http://www.w3.org/2000/svg">
<g clip-path="url(#clip0_5282_25375)">
<path d="M10.1758 67.1083C8.92935 67.109 7.72202 67.5435 6.76101 68.3372C5.8 69.131 5.14524 70.2345 4.90911 71.4583C4.47151 71.2508 3.99342 71.1427 3.50911 71.1417C2.62506 71.1417 1.77721 71.4929 1.15209 72.118C0.526971 72.7431 0.175781 73.5909 0.175781 74.475C0.175781 75.3591 0.526971 76.2069 1.15209 76.832C1.77721 77.4571 2.62506 77.8083 3.50911 77.8083H10.1758C10.8989 77.8368 11.6203 77.719 12.2968 77.4619C12.9732 77.2048 13.5908 76.8138 14.1125 76.3123C14.6342 75.8107 15.0492 75.209 15.3327 74.5432C15.6162 73.8774 15.7624 73.1612 15.7624 72.4375C15.7624 71.7138 15.6162 70.9976 15.3327 70.3318C15.0492 69.666 14.6342 69.0642 14.1125 68.5627C13.5908 68.0612 12.9732 67.6701 12.2968 67.4131C11.6203 67.156 10.8989 67.0382 10.1758 67.0667V67.1083Z" fill="#2AC58F"/>
<path d="M10.1328 9.93359H22.1328V29.3503H10.1328V9.93359Z" fill="#FFAB8A"/>
<path d="M10.1328 9.93359V12.7253H15.6078C15.9994 12.7239 16.3826 12.839 16.7087 13.0559C17.0348 13.2728 17.289 13.5818 17.439 13.9435C17.5891 14.3053 17.6282 14.7034 17.5514 15.0875C17.4746 15.4715 17.2854 15.824 17.0078 16.1003L10.1328 22.9753V29.3586H13.9411L22.1328 21.1586V9.93359H10.1328Z" fill="#FF8867"/>
<path d="M70.3745 38.8365V77.8531H10.1328V39.5365L40.5911 9.07812L70.3745 38.8365Z" fill="#FFB080"/>
<path d="M67.0339 43.3336V72.8252C67.0339 73.2673 66.8583 73.6912 66.5457 74.0038C66.2331 74.3163 65.8092 74.4919 65.3672 74.4919H15.1589C14.7168 74.4919 14.2929 74.3163 13.9804 74.0038C13.6678 73.6912 13.4922 73.2673 13.4922 72.8252V43.9836C13.4902 43.0115 13.6806 42.0485 14.0525 41.1504C14.4243 40.2522 14.9703 39.4365 15.6589 38.7502L38.8422 15.5586C39.3099 15.098 39.94 14.8398 40.5964 14.8398C41.2528 14.8398 41.8828 15.098 42.3505 15.5586L64.8505 38.0586C65.5468 38.7486 66.0984 39.5705 66.4733 40.4762C66.8482 41.382 67.0388 42.3533 67.0339 43.3336Z" fill="#FFD894"/>
<path d="M13.4766 40.9174L40.5932 13.8008L13.4766 40.9341V40.9174Z" fill="#FFB080"/>
<path d="M67.0354 40.2258V40.2425L40.5938 13.8008L67.0354 40.2258Z" fill="#FFB080"/>
<path d="M54.386 35.1021H26.811C26.5431 35.1076 26.2797 35.0329 26.0547 34.8874C25.8297 34.742 25.6534 34.5325 25.5485 34.286C25.4436 34.0394 25.4149 33.7671 25.4662 33.5041C25.5174 33.2412 25.6462 32.9995 25.836 32.8104L39.6526 19.0271C39.7773 18.9021 39.9253 18.8029 40.0883 18.7353C40.2514 18.6676 40.4261 18.6328 40.6026 18.6328C40.7791 18.6328 40.9539 18.6676 41.1169 18.7353C41.2799 18.8029 41.428 18.9021 41.5526 19.0271L55.336 32.8104C55.5241 32.9981 55.6523 33.2374 55.7043 33.498C55.7563 33.7586 55.7297 34.0287 55.628 34.2742C55.5262 34.5197 55.3538 34.7294 55.1327 34.8768C54.9116 35.0242 54.6517 35.1026 54.386 35.1021Z" fill="#FFF1AD"/>
<path d="M43.1668 25.3666L41.1085 23.3333C40.9726 23.1974 40.7882 23.1211 40.596 23.1211C40.4038 23.1211 40.2195 23.1974 40.0835 23.3333L38.0252 25.3833C37.9262 25.4862 37.8593 25.6158 37.8329 25.7562C37.8065 25.8966 37.8217 26.0416 37.8766 26.1734C37.9315 26.3053 38.0236 26.4183 38.1418 26.4985C38.26 26.5787 38.399 26.6227 38.5418 26.625H42.6585C42.8059 26.6285 42.9509 26.587 43.0741 26.506C43.1974 26.4251 43.293 26.3084 43.3482 26.1717C43.4034 26.035 43.4157 25.8847 43.3833 25.7409C43.3509 25.597 43.2754 25.4665 43.1668 25.3666Z" fill="white"/>
<path d="M78.333 40.1327L76.7496 41.666C76.5174 41.8991 76.2414 42.084 75.9375 42.2102C75.6337 42.3364 75.3079 42.4013 74.9788 42.4013C74.6498 42.4013 74.324 42.3364 74.0201 42.2102C73.7162 42.084 73.4402 41.8991 73.208 41.666L40.5997 9.06601L7.99132 41.666C7.75906 41.8991 7.48308 42.084 7.1792 42.2102C6.87532 42.3364 6.54952 42.4013 6.22049 42.4013C5.89145 42.4013 5.56565 42.3364 5.26177 42.2102C4.95789 42.084 4.68191 41.8991 4.44965 41.666L2.89965 40.1327C2.66533 39.9003 2.47935 39.6238 2.35242 39.3191C2.2255 39.0145 2.16016 38.6877 2.16016 38.3577C2.16016 38.0276 2.2255 37.7009 2.35242 37.3962C2.47935 37.0916 2.66533 36.8151 2.89965 36.5827L38.6913 0.832678C39.1973 0.329395 39.8819 0.046875 40.5955 0.046875C41.3091 0.046875 41.9937 0.329395 42.4996 0.832678L45.6913 4.02434L78.333 36.5827C78.5673 36.8151 78.7533 37.0916 78.8802 37.3962C79.0071 37.7009 79.0725 38.0276 79.0725 38.3577C79.0725 38.6877 79.0071 39.0145 78.8802 39.3191C78.7533 39.6238 78.5673 39.9003 78.333 40.1327Z" fill="#E66F49"/>
<path d="M78.9835 37.8676C79.0176 38.0732 78.9849 38.2843 78.8903 38.47C78.7957 38.6556 78.6441 38.8061 78.4577 38.8993C78.2713 38.9925 78.0599 39.0235 77.8546 38.9878C77.6493 38.9521 77.4608 38.8516 77.3168 38.7009C70.9751 32.3092 41.4251 2.77591 41.2751 2.61758C41.0946 2.44146 40.8524 2.34288 40.6001 2.34288C40.3479 2.34288 40.1057 2.44146 39.9251 2.61758C39.7585 2.78425 10.1835 32.3426 3.87514 38.6926C3.73115 38.8432 3.54267 38.9438 3.33735 38.9795C3.13203 39.0152 2.92068 38.9842 2.73428 38.891C2.54788 38.7978 2.39625 38.6473 2.30162 38.4616C2.20699 38.2759 2.17435 38.0648 2.20847 37.8592C2.30408 37.3732 2.54192 36.9265 2.89181 36.5759L38.7251 0.74258C39.2385 0.255348 39.924 -0.00857949 40.6316 0.00860174C41.3391 0.025783 42.011 0.322673 42.5001 0.834247L45.6918 4.02591L78.3335 36.5926C78.6698 36.9452 78.8957 37.3883 78.9835 37.8676Z" fill="#FF974E"/>
<path d="M43.0938 48.5156H64.0021V77.849H43.0938V48.5156Z" fill="#F02F62"/>
<path d="M45.6016 53.5099V74.5016C45.6016 74.971 45.9821 75.3516 46.4516 75.3516H60.6516C61.121 75.3516 61.5016 74.971 61.5016 74.5016V53.5099C61.5016 53.0405 61.121 52.6599 60.6516 52.6599H46.4516C45.9821 52.6599 45.6016 53.0405 45.6016 53.5099Z" fill="#FF4D6C"/>
<path d="M58.5099 55.168H48.5849C48.318 55.168 48.1016 55.3844 48.1016 55.6513V58.0763C48.1016 58.3432 48.318 58.5596 48.5849 58.5596H58.5099C58.7768 58.5596 58.9932 58.3432 58.9932 58.0763V55.6513C58.9932 55.3844 58.7768 55.168 58.5099 55.168Z" fill="white"/>
<path d="M43.0938 48.5156H64.0021V50.7656H43.0938V48.5156Z" fill="#B92053"/>
<path d="M37.4083 48.5156V62.6823C37.4083 62.9925 37.2857 63.2901 37.0671 63.5102C36.8486 63.7303 36.5519 63.8551 36.2417 63.8573H17.675C17.3634 63.8573 17.0645 63.7335 16.8442 63.5131C16.6238 63.2928 16.5 62.9939 16.5 62.6823V48.5156H37.4083Z" fill="#CEF0FC"/>
<path d="M34.8508 49.8281H19.0674C18.575 49.8281 18.1758 50.2273 18.1758 50.7198V61.6698C18.1758 62.1622 18.575 62.5615 19.0674 62.5615H34.8508C35.3432 62.5615 35.7424 62.1622 35.7424 61.6698V50.7198C35.7424 50.2273 35.3432 49.8281 34.8508 49.8281Z" fill="#FFFFFC"/>
<path d="M44.8854 44.043H62.2188C62.454 44.043 62.687 44.0893 62.9044 44.1794C63.1218 44.2694 63.3193 44.4014 63.4857 44.5677C63.652 44.7341 63.784 44.9316 63.874 45.149C63.9641 45.3664 64.0104 45.5994 64.0104 45.8346V48.518H43.0938V45.8346C43.0938 45.3595 43.2825 44.9037 43.6185 44.5677C43.9545 44.2317 44.4102 44.043 44.8854 44.043Z" fill="#E16A3F"/>
<path d="M46.4266 45.4766H60.6849C60.9059 45.4766 61.1179 45.5644 61.2742 45.7206C61.4304 45.8769 61.5182 46.0889 61.5182 46.3099V48.5349H45.6016V46.2932C45.6059 46.0766 45.6945 45.8701 45.8485 45.7176C46.0025 45.5652 46.2099 45.4787 46.4266 45.4766Z" fill="#F5923F"/>
<path d="M18.2917 44.043H35.625C36.1002 44.043 36.5559 44.2317 36.8919 44.5677C37.2279 44.9037 37.4167 45.3595 37.4167 45.8346V48.518H16.5V45.8346C16.5 45.3595 16.6888 44.9037 17.0248 44.5677C17.3608 44.2317 17.8165 44.043 18.2917 44.043Z" fill="#E16A3F"/>
<path d="M19.825 45.4766H34.0833C34.3043 45.4766 34.5163 45.5644 34.6726 45.7206C34.8289 45.8769 34.9167 46.0889 34.9167 46.3099V48.5349H19V46.2932C19.0043 46.0766 19.0929 45.8701 19.2469 45.7176C19.4009 45.5652 19.6083 45.4787 19.825 45.4766Z" fill="#F5923F"/>
<path d="M26.1016 48.5156H27.8099V63.874H26.1016V48.5156Z" fill="#FF6A4E"/>
<path d="M26.1016 49.8281H27.8099V62.5615H26.1016V49.8281Z" fill="#FF8D67"/>
<path d="M26.1016 54.6602H27.8099V57.7268H26.1016V54.6602Z" fill="#FF6A4E"/>
<path d="M16.5 55.3438H37.4083V57.0521H16.5V55.3438Z" fill="#FF6A4E"/>
<path d="M18.0742 55.3438H35.8326V57.0521H18.0742V55.3438Z" fill="#FF8D67"/>
<path d="M28.4914 55.3438H25.4164C24.947 55.3438 24.5664 55.7243 24.5664 56.1937V56.2021C24.5664 56.6715 24.947 57.0521 25.4164 57.0521H28.4914C28.9608 57.0521 29.3414 56.6715 29.3414 56.2021V56.1937C29.3414 55.7243 28.9608 55.3438 28.4914 55.3438Z" fill="#FFB585"/>
<path d="M48.499 64.9198C49.4563 64.9198 50.2323 64.1438 50.2323 63.1865C50.2323 62.2292 49.4563 61.4531 48.499 61.4531C47.5417 61.4531 46.7656 62.2292 46.7656 63.1865C46.7656 64.1438 47.5417 64.9198 48.499 64.9198Z" fill="#405075"/>
<path d="M24.5742 8.40964V5.68464C24.5742 4.847 23.8952 4.16797 23.0576 4.16797H9.21589C8.37825 4.16797 7.69922 4.847 7.69922 5.68464V8.40964C7.69922 9.24727 8.37825 9.9263 9.21589 9.9263H23.0576C23.8952 9.9263 24.5742 9.24727 24.5742 8.40964Z" fill="#FF5B49"/>
<path d="M20.5859 8.40964V5.68464C20.5859 4.847 19.9069 4.16797 19.0693 4.16797H13.2026C12.365 4.16797 11.6859 4.847 11.6859 5.68464V8.40964C11.6859 9.24727 12.365 9.9263 13.2026 9.9263H19.0693C19.9069 9.9263 20.5859 9.24727 20.5859 8.40964Z" fill="#FF7449"/>
<path d="M30.4003 69.0026H23.5169C23.2959 69.0026 23.084 68.9148 22.9277 68.7585C22.7714 68.6022 22.6836 68.3903 22.6836 68.1693C22.6836 67.9483 22.7714 67.7363 22.9277 67.58C23.084 67.4237 23.2959 67.3359 23.5169 67.3359H30.4003C30.6213 67.3359 30.8332 67.4237 30.9895 67.58C31.1458 67.7363 31.2336 67.9483 31.2336 68.1693C31.2336 68.3903 31.1458 68.6022 30.9895 68.7585C30.8332 68.9148 30.6213 69.0026 30.4003 69.0026Z" fill="#FFFBC6"/>
<path d="M79.8409 66.8526C79.8409 67.9859 78.6992 68.9526 78.4242 70.0026C78.1492 71.0526 78.6326 72.5026 78.0826 73.4276C77.5326 74.3526 76.0576 74.6609 75.2742 75.4359C74.4909 76.2109 74.2326 77.6859 73.2742 78.2443C72.3159 78.8026 70.9159 78.2943 69.8409 78.5776C68.7659 78.8609 67.8242 80.0026 66.6659 80.0026C65.5076 80.0026 64.5659 78.8609 63.5242 78.5776C62.4826 78.2943 61.0242 78.7859 60.0909 78.2443C59.1576 77.7026 58.8575 76.2193 58.0825 75.4359C57.3075 74.6526 55.8326 74.3859 55.2742 73.4276C54.7159 72.4693 55.2576 71.0776 54.9992 70.0026C54.7409 68.9276 53.5742 67.9859 53.5742 66.8526C53.5742 65.7193 54.7159 64.7609 54.9992 63.7109C55.2826 62.6609 54.7909 61.2109 55.3326 60.2859C55.8742 59.3609 57.3659 59.0526 58.1409 58.2776C58.9159 57.5026 59.1909 56.0276 60.1492 55.4693C61.1076 54.9109 62.4992 55.4193 63.5826 55.1359C64.6659 54.8526 65.5909 53.7109 66.7242 53.7109C67.8576 53.7109 68.8159 54.8526 69.8659 55.1359C70.9159 55.4193 72.3659 54.9193 73.2992 55.4693C74.2326 56.0193 74.5242 57.4943 75.2992 58.2776C76.0742 59.0609 77.5492 59.3193 78.1076 60.2859C78.6659 61.2526 78.1576 62.6359 78.4492 63.7109C78.7409 64.7859 79.8409 65.7276 79.8409 66.8526Z" fill="#27B9FC"/>
<path d="M61.5353 74.4921C60.9618 73.434 60.0933 72.5655 59.0353 71.992C58.8393 71.877 58.6769 71.7125 58.5644 71.5151C58.4518 71.3177 58.3929 71.0943 58.3936 70.8671C58.42 69.6832 58.1109 68.516 57.5019 67.5004C57.3855 67.3005 57.3242 67.0733 57.3242 66.842C57.3242 66.6108 57.3855 66.3836 57.5019 66.1837C58.1204 65.1619 58.4381 63.9863 58.4186 62.792C58.4204 62.5643 58.4812 62.341 58.5952 62.1438C58.7091 61.9466 58.8722 61.7823 59.0686 61.667C60.135 61.105 61.0065 60.2335 61.5686 59.167C61.6842 58.9685 61.8495 58.8034 62.0481 58.6879C62.2468 58.5725 62.4721 58.5108 62.7019 58.5087C63.8784 58.552 65.0404 58.2382 66.0353 57.6087C66.2357 57.494 66.4626 57.4336 66.6936 57.4336C66.9245 57.4336 67.1515 57.494 67.3519 57.6087C68.3718 58.2326 69.5482 58.5535 70.7436 58.5337C70.9716 58.5339 71.1956 58.594 71.3931 58.7081C71.5906 58.8222 71.7546 58.9862 71.8686 59.1837C72.4305 60.2334 73.2805 61.1007 74.3186 61.6837C74.5236 61.7962 74.695 61.9612 74.8151 62.1619C74.9352 62.3625 74.9997 62.5915 75.0019 62.8254C74.9881 64.0223 75.3147 65.1986 75.9436 66.217C76.0585 66.4144 76.1191 66.6387 76.1191 66.867C76.1191 67.0954 76.0585 67.3197 75.9436 67.517C75.3166 68.5333 74.9901 69.7063 75.0019 70.9004C75.0001 71.1291 74.9383 71.3533 74.8228 71.5507C74.7073 71.7481 74.5421 71.9118 74.3436 72.0254C73.2984 72.5991 72.4461 73.4688 71.8936 74.5254C71.7782 74.7254 71.6116 74.891 71.4109 75.0052C71.2103 75.1194 70.9828 75.1782 70.7519 75.1754C69.5746 75.1346 68.4125 75.4513 67.4186 76.0837C67.2166 76.1984 66.9883 76.2587 66.7561 76.2587C66.5238 76.2587 66.2956 76.1984 66.0936 76.0837C65.0768 75.4596 63.9031 75.1387 62.7103 75.1587C62.4721 75.1659 62.2366 75.1076 62.0294 74.99C61.8221 74.8724 61.6512 74.7002 61.5353 74.4921Z" fill="#27DCFC"/>
<path d="M65.2102 70.5108C65.1006 70.5114 64.9918 70.4904 64.8903 70.4489C64.7888 70.4074 64.6964 70.3463 64.6186 70.2691L61.2852 67.0691C61.2043 66.9892 61.1398 66.8942 61.0956 66.7894C61.0513 66.6846 61.0281 66.5721 61.0274 66.4583C61.0266 66.3446 61.0482 66.2318 61.091 66.1264C61.1339 66.021 61.197 65.9251 61.2769 65.8441C61.3568 65.7631 61.4518 65.6987 61.5566 65.6544C61.6614 65.6102 61.7739 65.587 61.8877 65.5862C62.0014 65.5854 62.1142 65.6071 62.2196 65.6499C62.325 65.6927 62.4209 65.7559 62.5019 65.8358L65.2519 68.4858L70.9519 63.4108C71.121 63.2605 71.3428 63.1835 71.5687 63.1968C71.7945 63.2101 72.0058 63.3125 72.1561 63.4816C72.3064 63.6507 72.3833 63.8725 72.37 64.0984C72.3568 64.3242 72.2543 64.5355 72.0852 64.6858L65.7936 70.2858C65.6357 70.4336 65.4265 70.5143 65.2102 70.5108Z" fill="white"/>
</g>
<defs>
<clipPath id="clip0_5282_25375">
<rect width="80" height="80" fill="white"/>
</clipPath>
</defs>
</svg>
