<svg width="80" height="80" viewBox="0 0 80 80" fill="none" xmlns="http://www.w3.org/2000/svg">
<g clip-path="url(#clip0_5282_25351)">
<path d="M57.1579 43.9615L41.5043 48.0318C40.537 48.2833 39.5218 48.2883 38.552 48.0466L22.0386 43.9288C19.4198 43.2759 17.582 40.9235 17.582 38.2245V20.1831C17.5819 9.03623 26.6183 0 37.7651 0H41.3743C52.5212 0 61.5574 9.03623 61.5574 20.1831V38.2718C61.5574 40.9488 59.7488 43.2877 57.1579 43.9615Z" fill="#FD9727"/>
<path d="M41.373 0H37.7637C36.8572 0 35.9648 0.0607811 35.0898 0.176562C44.9726 1.48484 52.5992 9.94279 52.5992 20.1831V38.2718C52.5992 40.9488 50.7906 43.2879 48.1997 43.9616L35.4566 47.2751L38.5508 48.0466C39.5206 48.2885 40.5356 48.2833 41.5031 48.0318L57.1567 43.9615C59.7476 43.2877 61.5562 40.9488 61.5562 38.2716V20.1831C61.556 9.03623 52.5198 0 41.373 0Z" fill="#FF6D3A"/>
<path d="M18.5166 32.7845H22.7994V22.3281H18.5166C17.2583 22.3281 16.2383 23.3481 16.2383 24.6064V30.5061C16.2383 31.7645 17.2583 32.7845 18.5166 32.7845Z" fill="#3D6687"/>
<path d="M61.4859 32.7845H57.2031V22.3281H61.4859C62.7442 22.3281 63.7642 23.3481 63.7642 24.6064V30.5061C63.7642 31.7645 62.7442 32.7845 61.4859 32.7845Z" fill="#3D6687"/>
<path d="M49.6714 51.0272C48.1736 50.7261 47.0959 49.4103 47.0959 47.8825V40.6523H40.0008H32.9058V47.8825C32.9058 49.4103 31.8281 50.7261 30.3303 51.0272L28.6016 51.3747V62.9854H40.0008H51.4001V51.3747L49.6714 51.0272Z" fill="#FED9A8"/>
<path d="M64.4413 54.9249L50.2104 50.4877C49.7687 50.3499 49.2869 50.4617 48.951 50.78L39.9984 59.2642L31.0457 50.7802C30.7098 50.4619 30.2281 50.35 29.7864 50.4878L15.5554 54.925C9.24609 56.7827 4.91406 62.5742 4.91406 69.1514V78.632C4.91406 79.3867 5.52594 79.9986 6.28062 79.9986H73.7163C74.471 79.9986 75.0828 79.3867 75.0828 78.632V69.1514C75.0827 62.5741 70.7507 56.7825 64.4413 54.9249Z" fill="#FF4C4C"/>
<path d="M64.4411 54.9249L50.2101 50.4877C49.7684 50.3499 49.2867 50.4617 48.9508 50.78L47.2773 52.366L55.4842 54.9249C61.7936 56.7825 66.1256 62.5741 66.1256 69.1512V79.9984H73.716C74.4707 79.9984 75.0826 79.3865 75.0826 78.6318V69.1512C75.0824 62.5741 70.7504 56.7825 64.4411 54.9249Z" fill="#EF2929"/>
<path d="M40.0018 46.6652C30.2344 46.6652 22.3164 38.7471 22.3164 28.9798V24.0097C22.3164 14.2423 30.2345 6.32422 40.0018 6.32422C49.7692 6.32422 57.6873 14.2423 57.6873 24.0097V28.9798C57.6873 38.7473 49.7693 46.6652 40.0018 46.6652Z" fill="#FED9A8"/>
<path d="M48.7265 8.625V28.9792C48.7265 37.1992 43.1183 44.1088 35.5195 46.092C36.95 46.4652 38.4506 46.6646 39.998 46.6646C49.7654 46.6646 57.6834 38.7465 57.6834 28.9792V24.009C57.6836 17.4161 54.0754 11.6664 48.7265 8.625Z" fill="#F4C892"/>
<path d="M31.0489 50.78L40.0015 59.2641L34.4803 61.145C33.1275 61.6058 31.6303 61.2052 30.6884 60.1303L23.8594 52.3366L29.7895 50.4877C30.2314 50.3499 30.7131 50.4617 31.0489 50.78Z" fill="#D4145A"/>
<path d="M48.9526 50.78L40 59.2641L45.0041 60.9688C46.6698 61.5363 48.5134 61.0428 49.6731 59.7194L56.1422 52.3366L50.212 50.4877C49.7701 50.3499 49.2884 50.4617 48.9526 50.78Z" fill="#D4145A"/>
<path d="M29.4359 72.9833H20.3331C19.8277 72.9833 19.418 72.5736 19.418 72.0681V68.0362C19.418 67.5308 19.8277 67.1211 20.3331 67.1211H29.4359C29.9414 67.1211 30.3511 67.5308 30.3511 68.0362V72.0681C30.3512 72.5734 29.9414 72.9833 29.4359 72.9833Z" fill="#EDA558"/>
<path d="M61.5576 23.9111C61.5576 23.9111 53.9273 23.3054 51.3163 16.2868C51.3163 16.2868 32.8712 31.0542 17.582 23.9111V20.1831C17.582 9.03623 26.6184 0 37.7653 0H41.3745C52.5213 0 61.5576 9.03623 61.5576 20.1831V23.9111Z" fill="#FD9727"/>
<path d="M41.373 0H37.7637C36.8572 0 35.9648 0.0607811 35.0898 0.176562C44.4869 1.42047 51.8432 9.12873 52.5439 18.6867C55.7615 23.4503 61.556 23.911 61.556 23.911V20.1831C61.556 9.03623 52.5198 0 41.373 0Z" fill="#FF6D3A"/>
<path d="M65.9819 66.5391C65.3145 66.5391 64.7734 67.08 64.7734 67.7475V80.0022H67.1901V67.7473C67.1903 67.08 66.6492 66.5391 65.9819 66.5391Z" fill="#D4145A"/>
<path d="M14.017 66.5391C13.3497 66.5391 12.8086 67.08 12.8086 67.7475V80.0022H15.2253V67.7473C15.2253 67.08 14.6844 66.5391 14.017 66.5391Z" fill="#D4145A"/>
<path d="M58.1766 32.7812V34.9855C58.1766 36.8855 56.8174 38.4978 54.9446 38.8187L42.7847 40.904C42.1276 41.0165 41.6861 41.6408 41.7988 42.2979C41.8996 42.8861 42.41 43.3014 42.9872 43.3014C43.055 43.3014 43.1236 43.2958 43.1927 43.2839L55.3525 41.1987C58.3878 40.6781 60.591 38.0651 60.591 34.9855V32.7812H58.1766Z" fill="#3D6687"/>
<path d="M43.1542 44.4659C42.0373 44.4659 41.0495 43.6624 40.8543 42.5244C40.6362 41.2528 41.4904 40.045 42.762 39.8269L46.7013 39.1513C47.9732 38.9328 49.1807 39.7872 49.3988 41.0589C49.617 42.3305 48.7627 43.5383 47.4912 43.7564L43.5518 44.432C43.4182 44.4549 43.2852 44.4659 43.1542 44.4659Z" fill="#D4145A"/>
</g>
<defs>
<clipPath id="clip0_5282_25351">
<rect width="80" height="80" fill="white"/>
</clipPath>
</defs>
</svg>
