<svg width="100" height="100" viewBox="0 0 100 100" fill="none" xmlns="http://www.w3.org/2000/svg">
<g clip-path="url(#clip0_5335_25941)">
<path d="M49.9996 24.5203L36.9375 3.47368L39.1622 2.24219L49.9996 19.2717L60.8371 2.24219L63.0617 3.47368L49.9996 24.5203Z" fill="#E1E6E9"/>
<path d="M49.9989 17.9023C47.1906 17.9023 44.9141 20.1789 44.9141 22.9872H55.0836C55.0838 20.1789 52.8072 17.9023 49.9989 17.9023Z" fill="#64798A"/>
<path d="M8.6875 88.5156V96.1871C8.6875 98.2933 10.395 100.001 12.5011 100.001H87.5018C89.608 100.001 91.3155 98.2933 91.3155 96.1871V88.5156H8.6875Z" fill="#3A556A"/>
<path d="M95.0015 94.1761H4.99483C3.52204 94.1761 2.32812 92.9822 2.32812 91.5094V28.198C2.32812 26.7252 3.52204 25.5312 4.99483 25.5312H95.0013C96.4741 25.5312 97.668 26.7252 97.668 28.198V91.5094C97.668 92.9822 96.4741 94.1761 95.0015 94.1761Z" fill="#64798A"/>
<path d="M72.2436 35.7043V84.0099C72.2436 86.1201 70.5402 87.8236 68.43 87.8236H12.4972C10.387 87.8236 8.68359 86.1201 8.68359 84.0099V35.7043C8.68359 33.5943 10.387 31.8906 12.4972 31.8906H68.43C70.5402 31.8906 72.2436 33.5943 72.2436 35.7043Z" fill="#EBF0F3"/>
<path d="M46.8213 31.8867H34.1094V87.8201H46.8213V31.8867Z" fill="#27A2DB"/>
<path d="M34.1143 31.8828H21.4023V87.8162H34.1143V31.8828Z" fill="#44C4A1"/>
<path d="M21.3955 31.8906V87.8233H12.4972C10.387 87.8233 8.68359 86.1199 8.68359 84.0097V35.7043C8.68359 33.5943 10.387 31.8906 12.4972 31.8906H21.3955Z" fill="#FCD462"/>
<path d="M59.5283 31.8906H46.8164V87.824H59.5283V31.8906Z" fill="#E56353"/>
<path d="M72.2434 35.7043V84.0099C72.2434 86.1201 70.54 87.8236 68.4297 87.8236H59.5312V31.8906H68.4297C70.54 31.8906 72.2434 33.5943 72.2434 35.7043Z" fill="#EBF0F3"/>
<path d="M92.5825 45.8851C92.5825 49.5717 89.9638 52.6479 86.4935 53.3599C85.9977 53.4615 85.4767 53.5124 84.9554 53.5124C84.4341 53.5124 83.9131 53.4615 83.4173 53.3599C79.9468 52.6479 77.3281 49.5717 77.3281 45.8851C77.3281 42.1859 79.9468 39.1224 83.4173 38.4105C83.9129 38.3086 84.4341 38.2578 84.9554 38.2578C85.4767 38.2578 85.9977 38.3086 86.4935 38.4105C89.9638 39.1224 92.5825 42.1859 92.5825 45.8851Z" fill="#3A556A"/>
<path d="M81.6068 40.8008L90.0408 49.235C89.8185 49.572 89.5531 49.8947 89.259 50.1889C88.965 50.483 88.6423 50.7484 88.3053 50.9707L79.8711 42.5362C80.0934 42.1991 80.3586 41.8764 80.6527 41.5823C80.9469 41.2883 81.2696 41.0229 81.6068 40.8008Z" fill="#64798A"/>
<path d="M92.5868 62.3867H77.332V64.2934H92.5868V62.3867Z" fill="#D5D6DB"/>
<path d="M92.5868 68.1055H77.332V70.0122H92.5868V68.1055Z" fill="#D5D6DB"/>
<path d="M92.5868 73.8242H77.332V75.7309H92.5868V73.8242Z" fill="#D5D6DB"/>
<path d="M92.5868 79.5469H77.332V81.4536H92.5868V79.5469Z" fill="#D5D6DB"/>
<path d="M62.7131 25.5324H37.2891V24.3855C37.2891 22.9127 38.483 21.7188 39.9558 21.7188H60.0464C61.5192 21.7188 62.7131 22.9127 62.7131 24.3855V25.5324Z" fill="#3A556A"/>
<path d="M61.7857 5.71992C63.3653 5.71992 64.6457 4.43947 64.6457 2.85996C64.6457 1.28045 63.3653 0 61.7857 0C60.2062 0 58.9258 1.28045 58.9258 2.85996C58.9258 4.43947 60.2062 5.71992 61.7857 5.71992Z" fill="#64798A"/>
<path d="M38.2115 5.71992C39.791 5.71992 41.0715 4.43947 41.0715 2.85996C41.0715 1.28045 39.791 0 38.2115 0C36.632 0 35.3516 1.28045 35.3516 2.85996C35.3516 4.43947 36.632 5.71992 38.2115 5.71992Z" fill="#64798A"/>
</g>
<defs>
<clipPath id="clip0_5335_25941">
<rect width="100" height="100" fill="white"/>
</clipPath>
</defs>
</svg>
