<svg width="100" height="100" viewBox="0 0 100 100" fill="none" xmlns="http://www.w3.org/2000/svg">
<g clip-path="url(#clip0_5335_25892)">
<path d="M58.2441 5.65391C59.7783 2.21934 63.2 0 66.9615 0C72.2262 0 76.509 4.28281 76.509 9.54746V27.7516L73.367 29.5094L70.4605 27.7516V9.54746C70.4605 7.61816 68.891 6.04844 66.9615 6.04844C65.5832 6.04844 64.3289 6.86172 63.7666 8.12051L30.4563 82.6943L26.3336 85.1924L23.832 82.6943L58.2441 5.65391Z" fill="#C6D0DA"/>
<path d="M22.2109 86.3244L25.474 88.41L28.8352 86.3244L30.4561 82.6953H23.8318L22.2109 86.3244Z" fill="#A0AAB7"/>
<path d="M18.3988 89.384L25.474 91.1418L32.5492 89.384V88.3404C32.5492 87.227 31.6465 86.3242 30.533 86.3242H20.4146C19.3012 86.3242 18.3984 87.2268 18.3984 88.3404V89.384H18.3988Z" fill="#DC4955"/>
<path d="M18.3984 93.0119L25.4738 94.7697L32.549 93.0119V89.3828H18.3984V93.0119Z" fill="#D82F3C"/>
<path d="M70.4609 27.75V31.3791L73.4852 33.1369L76.5094 31.3791V27.75H70.4609Z" fill="#A0AAB7"/>
<path d="M42.94 96.3705C41.8779 94.3402 39.7598 93.0117 37.3922 93.0117H11.7551C8.91602 93.0117 6.31797 94.2939 4.58594 96.3705L23.3859 98.1283L42.94 96.3705Z" fill="#808B95"/>
<path d="M42.9383 96.3711H4.5877C3.72598 97.4043 3.07754 98.633 2.72266 100H44.0525L43.4555 97.7008C43.3334 97.2309 43.1562 96.7875 42.9383 96.3711Z" fill="#5E6B75"/>
<path d="M78.0453 36.8354V32.3869C78.0453 31.8303 77.5939 31.3789 77.0373 31.3789H69.6994C69.1428 31.3789 68.6914 31.8303 68.6914 32.3869V37.7234L73.4861 39.026L78.0453 36.8354Z" fill="#F6E080"/>
<path d="M76.55 36.6445C73.8377 36.6445 71.2006 37.0201 68.6914 37.7236V41.3527L73.4861 42.6553L78.0455 40.4646V36.8355C77.5678 36.7111 77.0668 36.6445 76.55 36.6445Z" fill="#ECCD61"/>
<path d="M80.7143 98.2402H58.4627C43.7367 98.2402 44.2483 83.883 44.2483 83.883C44.2842 83.6006 44.3287 83.3172 44.382 83.033L47.4691 66.5609L68.6914 41.3508C71.2004 40.6475 73.8383 40.2734 76.5504 40.2734C79.8209 40.2734 82.4721 42.9246 82.4721 46.1951V96.3691L80.7143 98.2402Z" fill="#DC4955"/>
<path d="M44.2486 83.8828C43.1682 92.3656 49.7822 99.9977 58.4627 99.9977H82.4721V96.3686H58.4627C51.0457 96.3686 45.1375 90.7965 44.2486 83.8828Z" fill="#D82F3C"/>
<path d="M68.6895 60.1586V58.9027V41.3555C58.5844 44.1881 50.565 52.3584 48.168 62.935L50.9822 64.8064H64.657C66.8842 64.8063 68.6895 62.3856 68.6895 60.1586Z" fill="#F6E080"/>
<path d="M64.6592 62.9346H48.1709C48.0896 63.2928 48.0141 63.6535 47.9459 64.0172L47.4688 66.5637H64.6592C66.8861 66.5637 68.6914 64.7584 68.6914 62.5314V58.9023C68.6914 61.1291 66.8861 62.9346 64.6592 62.9346Z" fill="#ECCD61"/>
<path d="M82.4728 98.2402C97.1708 98.2402 97.2429 83.9703 97.1702 83.3754C96.2753 76.0537 90.0362 70.3828 82.4728 70.3828C74.9093 70.3828 68.6702 76.0535 67.7753 83.3754C67.7026 83.9703 67.6651 98.2402 82.4728 98.2402Z" fill="#808B95"/>
<path d="M82.4717 96.3719C74.9084 96.3719 68.674 90.7002 67.7787 83.3789C67.7061 83.974 67.6641 84.5787 67.6641 85.1934C67.6641 93.3713 74.2936 100.001 82.4717 100.001C90.6496 100.001 97.2791 93.3713 97.2791 85.1934C97.2791 84.5785 97.2373 83.974 97.1645 83.3789C96.2693 90.7004 90.035 96.3719 82.4717 96.3719Z" fill="#5E6B75"/>
<path d="M82.472 88.7156C87.4449 88.7156 87.6386 83.9451 87.4316 83.3793C86.6915 81.3572 84.7503 79.9141 82.472 79.9141C80.1937 79.9141 78.2523 81.3572 77.5124 83.3793C77.3052 83.9449 77.4992 88.7156 82.472 88.7156Z" fill="#F6E080"/>
<path d="M82.4711 86.8441C80.1928 86.8441 78.2516 85.401 77.5115 83.3789C77.3045 83.9447 77.1914 84.5559 77.1914 85.1934C77.1914 88.1092 79.5553 90.4731 82.4711 90.4731C85.3869 90.4731 87.7508 88.1092 87.7508 85.1934C87.7508 84.5559 87.6377 83.9447 87.4307 83.3789C86.6906 85.401 84.7494 86.8441 82.4711 86.8441Z" fill="#ECCD61"/>
</g>
<defs>
<clipPath id="clip0_5335_25892">
<rect width="100" height="100" fill="white"/>
</clipPath>
</defs>
</svg>
