<svg width="158" height="54" viewBox="0 0 158 54" fill="none" xmlns="http://www.w3.org/2000/svg">
<foreignObject x="-3.17588" y="-3.17588" width="164.352" height="60.3415"><div xmlns="http://www.w3.org/1999/xhtml" style="backdrop-filter:blur(1.59px);clip-path:url(#bgblur_0_7064_4537_clip_path);height:100%;width:100%"></div></foreignObject><g data-figma-bg-blur-radius="3.17588">
<rect width="158" height="53.9899" rx="9.52764" fill="white"/>
<g clip-path="url(#clip1_7064_4537)">
<mask id="mask0_7064_4537" style="mask-type:luminance" maskUnits="userSpaceOnUse" x="13" y="-24" width="130" height="104">
<path d="M142.373 -23.0356H13.9785V79.7898H142.373V-23.0356Z" fill="white"/>
</mask>
<g mask="url(#mask0_7064_4537)">
<mask id="mask1_7064_4537" style="mask-type:luminance" maskUnits="userSpaceOnUse" x="13" y="-24" width="130" height="104">
<path d="M142.373 -23.0356H13.9785V79.7898H142.373V-23.0356Z" fill="white"/>
</mask>
<g mask="url(#mask1_7064_4537)">
<path fill-rule="evenodd" clip-rule="evenodd" d="M27.7691 33.6928C27.2079 33.7687 26.6808 33.3701 26.605 32.797C26.5291 32.2352 26.9273 31.7076 27.4998 31.6317C31.6898 31.0699 35.6902 29.8324 39.3986 28.0294C43.2055 26.1694 46.7016 23.7173 49.7843 20.7718C50.2242 20.3542 51.1115 19.4698 51.9419 18.6271C52.2339 18.3272 52.5258 18.0312 52.7913 17.7617L51.2821 17.7237C51.1266 17.7161 50.9901 17.6098 50.9598 17.4542C50.9295 17.291 51.0053 17.1391 51.1532 17.0746L56.2684 14.7288C56.3935 14.6756 56.53 14.6984 56.6324 14.7819C56.7385 14.873 56.7802 15.0059 56.7385 15.1349L55.1839 20.5668C55.1384 20.7224 54.9981 20.8211 54.8464 20.8135C54.6834 20.8059 54.5545 20.6996 54.5241 20.5364L54.2625 19.2268C54.0084 19.4888 53.724 19.781 53.4321 20.0771C52.5751 20.9502 51.6689 21.8498 51.229 22.2749C48.8857 24.5031 46.33 26.4693 43.5847 28.1205C43.6302 28.7544 43.6909 29.3845 43.7781 30.0184C41.2907 31.5216 38.7843 32.797 36.2021 33.7687C35.1934 34.1483 34.1658 34.4785 33.1345 34.7632C33.1724 34.6152 33.2103 34.4785 33.2482 34.3381C33.4264 33.6738 33.5781 33.0437 33.6881 32.4402C31.7694 32.9944 29.7977 33.4119 27.7766 33.689" fill="#FF3185"/>
<path fill-rule="evenodd" clip-rule="evenodd" d="M25.9489 40.0959C25.418 40.0883 24.9782 39.686 24.9175 39.1622C24.8644 38.6307 25.2095 38.1449 25.7251 38.0272C28.5235 37.7273 31.2726 37.1542 33.9382 36.3456C38.6401 34.9184 43.9714 32.2955 47.9679 29.4106C49.9624 27.9758 51.8584 26.3626 53.6405 24.5823C54.05 24.1724 54.7022 24.1724 55.1041 24.5748C55.5137 24.9847 55.5137 25.6376 55.1117 26.0399C53.2537 27.8999 51.2744 29.5966 49.1775 31.0922C47.6608 32.1892 46.0948 33.1761 44.4833 34.0605C44.999 36.2887 45.6625 38.4789 46.4019 40.5932C46.5157 40.9234 46.4095 41.2726 46.1327 41.4814C45.8559 41.6902 45.4995 41.675 45.2075 41.489C42.5191 39.7847 40.9758 37.9095 40.0772 36.2507C38.7917 36.8277 37.4874 37.3477 36.1564 37.7995C35.0378 39.8986 33.7524 41.9179 31.5949 43.5767C30.6773 44.2865 29.6459 43.144 30.2867 41.8496C30.7493 40.9007 31.1664 39.9972 31.5342 39.1356C29.6914 39.5683 27.8296 39.8834 25.9489 40.0921" fill="#293386"/>
<path fill-rule="evenodd" clip-rule="evenodd" d="M33.3656 25.9261C33.6424 26.5524 33.8282 27.2774 33.9268 28.1087C35.9365 27.4444 37.8172 26.6815 39.5994 25.7629C40.972 25.0606 42.2878 24.2597 43.577 23.3335C43.6377 22.6693 43.7249 21.9974 43.831 21.3445C43.8386 21.3066 43.8386 21.2686 43.8462 21.2306C45.9582 19.9021 47.9072 18.3913 49.6856 16.7022C50.0951 16.3074 50.1179 15.647 49.7159 15.237C49.3216 14.8195 48.6694 14.8043 48.2523 15.199C45.7724 17.5677 42.9362 19.5567 39.7473 21.1699C36.5432 22.7983 32.9751 24.0396 29.0619 24.9126C28.5083 25.0379 28.1519 25.5921 28.277 26.1462C28.4021 26.708 28.9557 27.0572 29.5093 26.932C30.8327 26.6397 32.1219 26.3057 33.3694 25.9299" fill="#293386"/>
<path fill-rule="evenodd" clip-rule="evenodd" d="M30.1055 14.0367C30.2837 14.4846 30.3178 14.9021 30.2761 15.4032C30.3026 15.3918 30.3292 15.3804 30.3633 15.3766C30.3974 15.3728 30.4316 15.3766 30.4619 15.3842C30.5984 14.9249 30.4922 14.4163 30.4354 13.9722C30.3254 13.9949 30.2154 14.0139 30.1055 14.0367Z" fill="#293386"/>
<path fill-rule="evenodd" clip-rule="evenodd" d="M30.3803 15.4789C30.4485 15.4713 30.5092 15.5168 30.5168 15.5775C30.5244 15.6421 30.4751 15.699 30.4068 15.7066C30.3386 15.7142 30.2779 15.6686 30.2703 15.6079C30.2627 15.5434 30.312 15.4864 30.3803 15.4789Z" fill="#231F20"/>
<path fill-rule="evenodd" clip-rule="evenodd" d="M30.1706 15.7412C30.1365 16.1815 30.053 16.9597 29.9089 17.2937C29.7004 17.772 29.4805 18.2199 29.4805 18.2199C29.4805 18.2199 29.8331 18.6374 29.9544 18.6374C30.0758 18.6374 30.2047 18.6109 30.2047 18.6109L30.4815 17.5708L30.3488 18.5843L30.6483 18.4666C30.6483 18.4666 30.618 16.6446 30.5649 15.7792C30.5232 15.8247 30.4701 15.8551 30.4095 15.8627C30.3223 15.8741 30.235 15.8285 30.1706 15.7488" fill="#293386"/>
<path fill-rule="evenodd" clip-rule="evenodd" d="M36.5878 13.5585C34.5099 13.065 32.4244 14.3518 31.9314 16.432C31.4385 18.5121 32.7239 20.5998 34.8018 21.0932C36.8798 21.5867 38.9653 20.2999 39.4582 18.2198C39.9511 16.1397 38.6657 14.052 36.5878 13.5585Z" fill="#293386"/>
<path fill-rule="evenodd" clip-rule="evenodd" d="M33.0045 10.5941L38.222 10.3057L36.5916 12.0252L36.4626 12.2415L36.8418 13.1715C34.9611 12.7274 33.0765 13.5094 32.0262 15.0011L31.6698 14.1281L29.0762 14.0294L33.0045 10.5979V10.5941Z" fill="#293386"/>
<path d="M67.1224 17.6586V19.1883C67.1224 21.0293 66.201 22.0845 64.4264 22.0845C62.6519 22.0845 61.7305 21.0331 61.7305 19.1883V13.1985C61.7305 11.3575 62.6519 10.3022 64.4264 10.3022C66.201 10.3022 67.1224 11.3537 67.1224 13.1985V14.3182H65.4123V13.0846C65.4123 12.2609 65.0521 11.9496 64.4757 11.9496C63.8994 11.9496 63.5392 12.2609 63.5392 13.0846V19.3022C63.5392 20.1259 63.8994 20.4219 64.4757 20.4219C65.0521 20.4219 65.4123 20.1259 65.4123 19.3022V17.6586H67.1224Z" fill="#FF3185"/>
<path d="M74.1587 21.9555H72.3349L72.0239 19.8678H69.8057L69.4948 21.9555H67.834L69.673 10.439H72.3197L74.1587 21.9555ZM70.0332 18.3039H71.7737L70.9016 12.4811L70.0294 18.3039H70.0332Z" fill="#FF3185"/>
<path d="M78.8527 21.9559C78.7541 21.6598 78.6897 21.4776 78.6897 20.5401V18.7295C78.6897 17.659 78.3294 17.2643 77.5066 17.2643H76.881V21.9521H75.0723V10.4355H77.7986C79.6717 10.4355 80.4756 11.3086 80.4756 13.085V13.9885C80.4756 15.1728 80.0964 15.9471 79.2926 16.3267C80.195 16.7063 80.4908 17.5755 80.4908 18.7788V20.5553C80.4908 21.1132 80.5059 21.527 80.6879 21.9521H78.8489L78.8527 21.9559ZM76.881 12.0829V15.6207H77.5862C78.2612 15.6207 78.6707 15.3246 78.6707 14.4022V13.2672C78.6707 12.4435 78.3901 12.0829 77.7493 12.0829H76.8772H76.881Z" fill="#FF3185"/>
<path d="M83.5665 15.29H86.0502V16.9374H83.5665V20.3081H86.691V21.9555H81.7578V10.439H86.691V12.0826H83.5665V15.29Z" fill="#FF3185"/>
<path d="M89.6993 15.29H92.1792V16.9374H89.6993V20.3081H92.82V21.9555H87.8906V10.439H92.82V12.0826H89.6993V15.29Z" fill="#FF3185"/>
<path d="M97.8019 21.9559C97.7033 21.6598 97.6389 21.4776 97.6389 20.5401V18.7295C97.6389 17.659 97.2787 17.2643 96.4558 17.2643H95.8302V21.9521H94.0215V10.4355H96.7478C98.621 10.4355 99.4248 11.3086 99.4248 13.085V13.9885C99.4248 15.1728 99.0456 15.9471 98.2418 16.3267C99.1442 16.7063 99.44 17.5755 99.44 18.7788V20.5553C99.44 21.1132 99.4552 21.527 99.6372 21.9521H97.7981L97.8019 21.9559ZM95.8302 12.0829V15.6207H96.5355C97.2104 15.6207 97.6199 15.3246 97.6199 14.4022V13.2672C97.6199 12.4435 97.3393 12.0829 96.6985 12.0829H95.8264H95.8302Z" fill="#FF3185"/>
<path d="M67.1224 32.2836V33.8133C67.1224 35.6543 66.201 36.7095 64.4264 36.7095C62.6519 36.7095 61.7305 35.6581 61.7305 33.8133V27.8235C61.7305 25.9825 62.6519 24.9272 64.4264 24.9272C66.201 24.9272 67.1224 25.9787 67.1224 27.8235V28.9432H65.4123V27.7096C65.4123 26.8859 65.0521 26.5746 64.4757 26.5746C63.8994 26.5746 63.5392 26.8859 63.5392 27.7096V33.9272C63.5392 34.7509 63.8994 35.047 64.4757 35.047C65.0521 35.047 65.4123 34.7509 65.4123 33.9272V32.2836H67.1224Z" fill="#FF3185"/>
<path d="M68.1523 27.8274C68.1523 25.9864 69.123 24.9312 70.8976 24.9312C72.6722 24.9312 73.6429 25.9826 73.6429 27.8274V33.8172C73.6429 35.6582 72.6722 36.7134 70.8976 36.7134C69.123 36.7134 68.1523 35.662 68.1523 33.8172V27.8274ZM69.961 33.9311C69.961 34.7548 70.3213 35.066 70.8976 35.066C71.474 35.066 71.8342 34.7548 71.8342 33.9311V27.7135C71.8342 26.8898 71.474 26.5785 70.8976 26.5785C70.3213 26.5785 69.961 26.8898 69.961 27.7135V33.9311Z" fill="#FF3185"/>
<path d="M76.6192 25.061V33.9433C76.6192 34.767 76.9795 35.0631 77.5558 35.0631C78.1322 35.0631 78.4924 34.767 78.4924 33.9433V25.061H80.2025V33.8294C80.2025 35.6704 79.2811 36.7256 77.5065 36.7256C75.732 36.7256 74.8105 35.6742 74.8105 33.8294V25.061H76.6192Z" fill="#FF3185"/>
<path d="M83.1286 28.2382V36.5776H81.502V25.061H83.7695L85.6274 31.9543V25.061H87.239V36.5776H85.381L83.1286 28.2382Z" fill="#FF3185"/>
<path d="M91.0471 24.9312C92.8065 24.9312 93.7089 25.9826 93.7089 27.8274V28.188H91.9988V27.7097C91.9988 26.886 91.6689 26.5747 91.0964 26.5747C90.5238 26.5747 90.1939 26.886 90.1939 27.7097C90.1939 30.0783 93.7279 30.5224 93.7279 33.8134C93.7279 35.6544 92.8065 36.7096 91.0319 36.7096C89.2573 36.7096 88.3359 35.6582 88.3359 33.8134V33.1074H90.046V33.9311C90.046 34.7548 90.4063 35.0509 90.9826 35.0509C91.559 35.0509 91.9192 34.7548 91.9192 33.9311C91.9192 31.5625 88.3852 31.1184 88.3852 27.8274C88.3852 25.9864 89.2877 24.9312 91.0471 24.9312Z" fill="#FF3185"/>
<path d="M96.6506 29.9159H99.1342V31.5595H96.6506V34.934H99.7751V36.5776H94.8457V25.061H99.7751V26.7084H96.6506V29.9159Z" fill="#FF3185"/>
<path d="M100.977 25.061H102.785V34.934H105.762V36.5776H100.977V25.061Z" fill="#FF3185"/>
<path d="M106.625 25.061H108.434V34.934H111.41V36.5776H106.625V25.061Z" fill="#FF3185"/>
<path d="M114.088 25.061H112.279V36.5776H114.088V25.061Z" fill="#FF3185"/>
<path d="M117.097 28.2382V36.5776H115.471V25.061H117.738L119.596 31.9543V25.061H121.208V36.5776H119.35L117.097 28.2382Z" fill="#FF3185"/>
<path d="M125.296 30.1617H127.826V33.8133C127.826 35.6543 126.904 36.7095 125.13 36.7095C123.355 36.7095 122.434 35.6581 122.434 33.8133V27.8235C122.434 25.9825 123.355 24.9272 125.13 24.9272C126.904 24.9272 127.826 25.9787 127.826 27.8235V28.9432H126.115V27.7096C126.115 26.8859 125.755 26.5746 125.179 26.5746C124.603 26.5746 124.242 26.8859 124.242 27.7096V33.9272C124.242 34.7509 124.603 35.047 125.179 35.047C125.755 35.047 126.115 34.7509 126.115 33.9272V31.8053H125.293V30.1617H125.296Z" fill="#FF3185"/>
</g>
</g>
</g>
</g>
<defs>
<clipPath id="bgblur_0_7064_4537_clip_path" transform="translate(3.17588 3.17588)"><rect width="158" height="53.9899" rx="9.52764"/>
</clipPath><clipPath id="clip1_7064_4537">
<rect width="111.859" height="43.6521" fill="white" transform="translate(20.6426 5.55762)"/>
</clipPath>
</defs>
</svg>
