<svg width="40" height="42" viewBox="0 0 40 42" fill="none" xmlns="http://www.w3.org/2000/svg">
<rect x="0.0625" y="0.744629" width="39.0883" height="40.4133" rx="5.30011" fill="#6F8FCB"/>
<g clip-path="url(#clip0_9080_6022)">
<path d="M27.9746 10.3105H10.438C9.55752 10.3105 8.84375 11.0243 8.84375 11.9048V29.4414C8.84375 30.3219 9.55752 31.0357 10.438 31.0357H27.9746C28.8551 31.0357 29.5689 30.3219 29.5689 29.4414V11.9048C29.5689 11.0243 28.8551 10.3105 27.9746 10.3105Z" stroke="white" stroke-width="0.79712" stroke-linecap="round" stroke-linejoin="round"/>
<path d="M16.3828 24.2283V17.3411C16.3834 17.2259 16.4145 17.1129 16.4728 17.0135C16.5312 16.9142 16.6148 16.832 16.7151 16.7753C16.8155 16.7187 16.929 16.6896 17.0442 16.691C17.1595 16.6923 17.2723 16.7241 17.3712 16.7832L23.2699 20.2108C23.3692 20.2682 23.4517 20.3507 23.509 20.45C23.5664 20.5494 23.5966 20.662 23.5966 20.7767C23.5966 20.8914 23.5664 21.0041 23.509 21.1035C23.4517 21.2028 23.3692 21.2853 23.2699 21.3427L17.3712 24.7862C17.2723 24.8453 17.1595 24.8771 17.0442 24.8785C16.929 24.8798 16.8155 24.8507 16.7151 24.7941C16.6148 24.7374 16.5312 24.6552 16.4728 24.5559C16.4145 24.4565 16.3834 24.3435 16.3828 24.2283Z" stroke="white" stroke-width="0.79712" stroke-linecap="round" stroke-linejoin="round"/>
</g>
<defs>
<clipPath id="clip0_9080_6022">
<rect width="22.3194" height="22.3194" fill="white" transform="translate(8.03906 9.51367)"/>
</clipPath>
</defs>
</svg>
