<svg width="41" height="42" viewBox="0 0 41 42" fill="none" xmlns="http://www.w3.org/2000/svg">
<rect x="0.955078" y="0.849365" width="39.0883" height="40.4133" rx="5.30011" fill="#6F8FCB"/>
<path fill-rule="evenodd" clip-rule="evenodd" d="M20.0663 11.6335C14.5694 11.6335 10.1055 16.0975 10.1055 21.5944C10.1055 27.0913 14.5694 31.5553 20.0663 31.5553C20.4574 31.5553 20.8418 31.5272 21.2218 31.483L21.2336 31.4948L21.2469 31.48C26.1875 30.8949 30.0272 26.6914 30.0272 21.5944C30.0272 16.4981 26.1875 12.2976 21.2484 11.711C21.2358 11.7007 21.2247 11.6889 21.2115 11.6786V11.6741L21.1893 11.7014C20.8197 11.6594 20.4456 11.6335 20.0663 11.6335ZM19.6974 12.3898V16.0606H16.4952C17.1718 14.627 18.0993 13.3837 19.2075 12.4149C19.3691 12.4002 19.5336 12.3965 19.6974 12.3898ZM20.4353 12.3898C20.5998 12.3972 20.7651 12.3994 20.9267 12.4149C22.0371 13.3837 22.9668 14.6248 23.6449 16.0606H20.4353V12.3898ZM17.9089 12.6348C16.976 13.6427 16.2202 14.8009 15.6732 16.0606H12.699C13.9844 14.3472 15.8263 13.1357 17.9089 12.6348ZM22.2223 12.6348C24.3054 13.1354 26.1487 14.3469 27.4344 16.0606H24.4639C23.9154 14.8005 23.1571 13.6422 22.2223 12.6348ZM12.198 16.7984H15.3781C14.8596 18.2186 14.5774 19.7141 14.5429 21.2255H10.8618C10.921 19.6599 11.3816 18.1356 12.198 16.7984ZM16.1838 16.7984H19.6974V21.2255H15.2807C15.3212 19.7084 15.6268 18.2101 16.1838 16.7984ZM20.4353 16.7984H23.9548C24.5118 18.2101 24.8175 19.7084 24.8579 21.2255H20.4353V16.7984ZM24.759 16.7984H27.9347C28.7511 18.1356 29.2109 19.6599 29.2702 21.2255H25.5957C25.5605 19.714 25.2776 18.2184 24.7583 16.7984H24.759ZM10.861 21.9633H14.5421C14.5766 23.4748 14.8588 24.9703 15.3774 26.3904H12.1965C11.3805 25.053 10.921 23.5288 10.8618 21.9633H10.861ZM15.28 21.9633H19.6974V26.3904H16.1838C15.6268 24.9787 15.3212 23.4804 15.2807 21.9633H15.28ZM20.4345 21.9633H24.8387C24.7605 23.3527 24.3812 24.88 23.7187 26.3904H20.4353L20.4345 21.9633ZM25.5773 21.9633H29.2702C29.211 23.5288 28.7514 25.053 27.9354 26.3904H24.52C25.142 24.8926 25.505 23.377 25.5773 21.9633ZM12.699 27.1282H15.6747C16.2217 28.3879 16.9775 29.5462 17.9104 30.554C15.8269 30.0538 13.9833 28.8422 12.6975 27.1282H12.699ZM16.4959 27.1282H19.6982V30.799C19.5351 30.7916 19.3706 30.7887 19.2097 30.7739C18.1 29.8051 17.1733 28.5633 16.4959 27.1282ZM20.436 27.1282H23.3601C22.7019 28.4511 21.8671 29.6785 20.8787 30.7769C20.7326 30.7901 20.5836 30.7931 20.436 30.799V27.1282ZM24.1901 27.1282H27.4352C26.1017 28.9105 24.1674 30.1491 21.9906 30.6145C22.8607 29.5449 23.5987 28.3744 24.1887 27.1282H24.1901Z" fill="white"/>
</svg>
