<svg width="40" height="42" viewBox="0 0 40 42" fill="none" xmlns="http://www.w3.org/2000/svg">
<rect x="0.455078" y="0.849365" width="39.0883" height="40.4133" rx="5.30011" fill="#6F8FCB"/>
<path d="M23.8603 22.5669C23.2764 23.2074 22.5657 23.7341 21.766 24.114V26.3016C21.766 26.495 21.6863 26.6805 21.5445 26.8171C21.4027 26.9539 21.2104 27.0308 21.0098 27.0308H16.4726C16.272 27.0308 16.0797 26.9539 15.9379 26.8171C15.7961 26.6805 15.7164 26.495 15.7164 26.3016V24.114C14.6281 23.5933 13.7043 22.8012 13.0406 21.82C12.377 20.8387 11.9979 19.7041 11.9426 18.5339C11.8873 17.3636 12.1578 16.2004 12.7262 15.165C13.2945 14.1297 14.1398 13.2598 15.1744 12.6459C16.2091 12.0319 17.3953 11.6962 18.6099 11.6736C19.6232 11.6547 20.6255 11.8543 21.5445 12.2549" stroke="white" stroke-linecap="round" stroke-linejoin="round"/>
<path d="M15.7168 30.6313H21.7664" stroke="white" stroke-linecap="round" stroke-linejoin="round"/>
<path d="M22.3317 16.6804C21.8009 16.5914 21.8009 15.8567 22.3317 15.7676C24.2544 15.4451 25.7838 14.0328 26.2011 12.1944L26.2331 12.0534C26.3479 11.5476 27.0949 11.5445 27.2142 12.0493L27.2531 12.2135C27.6859 14.0433 29.2156 15.4436 31.1331 15.7653C31.6665 15.8548 31.6665 16.5932 31.1331 16.6827C29.2156 17.0044 27.6859 18.4047 27.2531 20.2345L27.2142 20.3987C27.0949 20.9036 26.3479 20.9004 26.2331 20.3946L26.2011 20.2537C25.7838 18.4152 24.2544 17.003 22.3317 16.6804Z" stroke="white" stroke-linecap="round" stroke-linejoin="round"/>
</svg>
