<svg width="40" height="42" viewBox="0 0 40 42" fill="none" xmlns="http://www.w3.org/2000/svg">
<rect x="0.320312" y="0.744629" width="39.0883" height="40.4133" rx="5.30011" fill="#6F8FCB"/>
<path d="M22.1466 10.8667V20.4321L27.8699 27.7178C28.1488 28.0706 28.3224 28.4948 28.371 28.9419C28.4196 29.3889 28.3412 29.8405 28.1448 30.245C27.9484 30.6495 27.642 30.9905 27.2606 31.2286C26.8793 31.4668 26.4385 31.5928 25.9887 31.5918H11.9275C11.4779 31.5928 11.0371 31.4668 10.6557 31.2286C10.2744 30.9905 9.96787 30.6495 9.77146 30.245C9.57505 29.8405 9.49665 29.3889 9.54527 28.9419C9.5939 28.4948 9.76756 28.0706 10.0463 27.7178L15.7697 20.4321V10.8667" stroke="white" stroke-width="0.79712" stroke-linecap="round" stroke-linejoin="round"/>
<path d="M13.375 10.8667H24.5347" stroke="white" stroke-width="0.79712" stroke-linecap="round" stroke-linejoin="round"/>
</svg>
