<svg width="40" height="41" viewBox="0 0 40 41" fill="none" xmlns="http://www.w3.org/2000/svg">
<rect x="0.421875" y="0.0585938" width="39.0883" height="40.4133" rx="5.30011" fill="#6F8FCB"/>
<g clip-path="url(#clip0_9080_5944)">
<path d="M11.5869 30.4995C13.3479 30.4995 14.7754 29.072 14.7754 27.311C14.7754 25.5502 13.3479 24.1226 11.5869 24.1226C9.82597 24.1226 8.39844 25.5502 8.39844 27.311C8.39844 29.072 9.82597 30.4995 11.5869 30.4995Z" stroke="white" stroke-width="0.79712" stroke-linecap="round" stroke-linejoin="round"/>
<path d="M25.9385 26.5141C27.6995 26.5141 29.127 25.0867 29.127 23.3257C29.127 21.5647 27.6995 20.1372 25.9385 20.1372C24.1775 20.1372 22.75 21.5647 22.75 23.3257C22.75 25.0867 24.1775 26.5141 25.9385 26.5141Z" stroke="white" stroke-width="0.79712" stroke-linecap="round" stroke-linejoin="round"/>
<path d="M29.1216 23.3257V10.8268C29.121 10.7049 29.0923 10.5847 29.0377 10.4755C28.9834 10.3664 28.9046 10.2712 28.8075 10.1972C28.7106 10.1233 28.5979 10.0727 28.4782 10.0491C28.3584 10.0256 28.235 10.0299 28.1172 10.0616L15.3633 13.6008C15.1948 13.6462 15.0458 13.7456 14.9392 13.8839C14.8327 14.0221 14.7744 14.1915 14.7734 14.366V27.3113" stroke="white" stroke-width="0.79712" stroke-linecap="round" stroke-linejoin="round"/>
<path d="M14.7734 18.5427L29.1216 14.5571" stroke="white" stroke-width="0.79712" stroke-linecap="round" stroke-linejoin="round"/>
</g>
<defs>
<clipPath id="clip0_9080_5944">
<rect width="22.3194" height="22.3194" fill="white" transform="translate(7.59375 9.10547)"/>
</clipPath>
</defs>
</svg>
