<svg width="40" height="42" viewBox="0 0 40 42" fill="none" xmlns="http://www.w3.org/2000/svg">
<rect x="0.351562" y="0.744629" width="39.0883" height="40.4133" rx="5.30011" fill="#6F8FCB"/>
<g clip-path="url(#clip0_9080_5995)">
<path d="M11.5078 13.7773H17.0877V20.1543C17.0877 21.0378 16.377 21.7569 15.4935 21.7673L13.1677 21.7947C12.2541 21.8055 11.5078 21.0679 11.5078 20.1543V13.7773Z" stroke="white" stroke-width="0.79712" stroke-linecap="round" stroke-linejoin="round"/>
<path d="M12.6953 13.7773V10.5889H15.8838V13.7773" stroke="white" stroke-width="0.79712" stroke-linecap="round" stroke-linejoin="round"/>
<path d="M17.0859 17.856H19.5131C22.3489 17.856 24.6477 20.1549 24.6477 22.9906V27.3281L29.0427 27.3279V23.0358C29.0427 17.9273 24.9015 13.7861 19.7931 13.7861H17.0859" stroke="white" stroke-width="0.79712" stroke-linecap="round" stroke-linejoin="round"/>
<path d="M16.2832 27.3286V28.1257C16.2832 29.1886 15.0078 31.3142 13.0947 31.3142H29.0372V27.3286H9.90625" stroke="white" stroke-width="0.79712" stroke-linecap="round" stroke-linejoin="round"/>
<path d="M13.5436 31.314H8.3125" stroke="white" stroke-width="0.79712" stroke-linecap="round" stroke-linejoin="round"/>
</g>
<defs>
<clipPath id="clip0_9080_5995">
<rect width="22.3194" height="22.3194" fill="white" transform="translate(7.52344 9.7915)"/>
</clipPath>
</defs>
</svg>
