<svg width="40" height="41" viewBox="0 0 40 41" fill="none" xmlns="http://www.w3.org/2000/svg">
<rect x="0.382812" y="0.0585938" width="39.0883" height="40.4133" rx="5.30011" fill="#6F8FCB"/>
<g clip-path="url(#clip0_9080_5919)">
<g clip-path="url(#clip1_9080_5919)">
<path d="M26.528 23.9839C26.849 23.6791 27.1045 23.3122 27.2792 22.9055C27.4538 22.4988 27.544 22.0608 27.544 21.6182C27.544 21.1756 27.4538 20.7376 27.2792 20.3309C27.1045 19.9242 26.849 19.5572 26.528 19.2524C25.8711 18.6289 24.9997 18.2812 24.0939 18.2812C23.1881 18.2812 22.3169 18.6289 21.6599 19.2524L19.2173 21.6951L16.7747 19.2524C16.1177 18.6289 15.2464 18.2812 14.3406 18.2812C13.4348 18.2812 12.5635 18.6289 11.9065 19.2524C11.5856 19.5572 11.33 19.9242 11.1553 20.3309C10.9807 20.7376 10.8906 21.1756 10.8906 21.6182C10.8906 22.0608 10.9807 22.4988 11.1553 22.9055C11.33 23.3122 11.5856 23.6791 11.9065 23.9839L19.2173 31.0896L26.528 23.9839Z" stroke="white" stroke-width="0.79712" stroke-linecap="round" stroke-linejoin="round"/>
<path d="M19.2131 15.7167C21.0998 15.7167 22.6293 14.1872 22.6293 12.3005C22.6293 10.4138 21.0998 8.88428 19.2131 8.88428C17.3264 8.88428 15.7969 10.4138 15.7969 12.3005C15.7969 14.1872 17.3264 15.7167 19.2131 15.7167Z" stroke="white" stroke-width="0.79712" stroke-linecap="round" stroke-linejoin="round"/>
</g>
</g>
<defs>
<clipPath id="clip0_9080_5919">
<rect width="23.9136" height="23.9136" fill="white" transform="translate(7.55469 8.30859)"/>
</clipPath>
<clipPath id="clip1_9080_5919">
<rect width="23.9136" height="23.9136" fill="white" transform="translate(7.25 8.03027)"/>
</clipPath>
</defs>
</svg>
