<svg width="32" height="32" viewBox="0 0 32 32" fill="none" xmlns="http://www.w3.org/2000/svg">
<g clip-path="url(#clip0_8051_5242)">
<path fill-rule="evenodd" clip-rule="evenodd" d="M27.384 0.685547C26.3408 0.685547 25.3404 1.09994 24.6028 1.83756L24.6005 1.83992L19.031 7.47459L7.28489 2.0448C6.80233 1.81286 6.27746 1.68192 5.74246 1.66004C5.20587 1.63809 4.67044 1.72631 4.16925 1.91927C3.66806 2.11223 3.21172 2.40583 2.82838 2.78197C2.45177 3.15148 2.15345 3.59297 1.95113 4.08005C1.50262 4.94531 1.3955 5.94794 1.65169 6.88897C1.91037 7.83912 2.52015 8.65559 3.35775 9.17338L12.0227 14.509L9.31867 17.2131H4.29821C4.28239 17.2131 4.26658 17.2137 4.25081 17.215C3.27942 17.2959 2.37391 17.7389 1.71388 18.4562C1.05385 19.1734 0.6875 20.1126 0.6875 21.0873C0.6875 22.0621 1.05385 23.0013 1.71388 23.7185C2.37391 24.4358 3.27942 24.8787 4.25081 24.9597C4.26658 24.961 4.28239 24.9617 4.29821 24.9617H7.04107V27.7046C7.04107 27.7204 7.04173 27.7361 7.04303 27.7519C7.12393 28.7233 7.56692 29.6287 8.2842 30.2888C9.00148 30.9489 9.94061 31.3151 10.9154 31.3151C11.8901 31.3151 12.8293 30.9489 13.5465 30.2888C14.2638 29.6287 14.7068 28.7233 14.7877 27.7519C14.789 27.7361 14.7896 27.7204 14.7896 27.7046V22.684L17.4937 19.98L22.8288 28.644C23.3465 29.4817 24.1637 30.0922 25.1136 30.351C26.0553 30.6074 27.0588 30.5 27.9246 30.0506C28.3984 29.85 28.8279 29.5576 29.1888 29.1905C29.5557 28.817 29.8437 28.3738 30.0359 27.887C30.2281 27.3999 30.3207 26.8794 30.3079 26.356C30.2953 25.8328 30.1774 25.3174 29.9616 24.8404L29.9607 24.8381L24.5271 12.9728L30.1628 7.40232L30.165 7.39996C30.9026 6.66234 31.317 5.66193 31.317 4.61877C31.317 3.57562 30.9026 2.57518 30.165 1.83756C29.4274 1.09994 28.427 0.685547 27.384 0.685547Z" fill="white"/>
</g>
<defs>
<clipPath id="clip0_8051_5242">
<rect width="32" height="32" fill="white"/>
</clipPath>
</defs>
</svg>
