<svg width="32" height="32" viewBox="0 0 32 32" fill="none" xmlns="http://www.w3.org/2000/svg">
<g clip-path="url(#clip0_8051_5194)">
<path fill-rule="evenodd" clip-rule="evenodd" d="M16 0.150391C15.5069 0.150391 15.0227 0.28224 14.5977 0.532276C14.5819 0.541552 14.5664 0.551202 14.5511 0.56122L1.0425 9.40692L1.03965 9.40882C0.0812986 10.0405 -0.209274 11.1309 0.160783 12.0622C0.516629 12.9578 1.4151 13.563 2.49143 13.563H29.5086C30.5849 13.563 31.4834 12.9578 31.8393 12.0622C32.2094 11.1309 31.9186 10.0405 30.9605 9.4088L30.9575 9.40695L17.4489 0.56122C17.4336 0.551202 17.4181 0.541552 17.4024 0.532276C16.9773 0.28224 16.4931 0.150391 16 0.150391ZM0 27.1476C0 25.7753 1.30638 25.1152 2.28571 25.1152H2.41077C2.4064 25.0747 2.40416 25.0333 2.40416 24.9917V17.652C2.40416 17.0208 2.91584 16.5092 3.54702 16.5092H7.35054C7.98171 16.5092 8.49339 17.0208 8.49339 17.652V24.9917C8.49339 25.0333 8.49115 25.0747 8.48681 25.1152H12.9617C12.9573 25.0747 12.9551 25.0333 12.9551 24.9917V17.652C12.9551 17.0208 13.4667 16.5092 14.0979 16.5092H17.9015C18.5326 16.5092 19.0443 17.0208 19.0443 17.652V24.9917C19.0443 25.0333 19.0421 25.0747 19.0377 25.1152H23.5127C23.5083 25.0747 23.5061 25.0333 23.5061 24.9917V17.652C23.5061 17.0208 24.0176 16.5092 24.6489 16.5092H28.4523C29.0837 16.5092 29.5952 17.0208 29.5952 17.652V24.9917C29.5952 25.0333 29.5929 25.0747 29.5886 25.1152H29.7143C30.6937 25.1152 32 25.7753 32 27.1476V29.8164C32 31.1888 30.6937 31.8489 29.7143 31.8489H2.28571C1.30638 31.8489 0 31.1888 0 29.8164V27.1476Z" fill="white"/>
</g>
<defs>
<clipPath id="clip0_8051_5194">
<rect width="32" height="32" fill="white"/>
</clipPath>
</defs>
</svg>
