<svg width="32" height="32" viewBox="0 0 32 32" fill="none" xmlns="http://www.w3.org/2000/svg">
<path fill-rule="evenodd" clip-rule="evenodd" d="M3.29327 1.00421C3.93624 0.361223 4.80833 0 5.71763 0H19.4319C19.735 0 20.0257 0.120408 20.24 0.334736L29.383 9.4776C29.5972 9.69191 29.7176 9.98261 29.7176 10.2857V28.5714C29.7176 29.4807 29.3565 30.3529 28.7135 30.9959C28.0706 31.6389 27.1983 32 26.2891 32H5.71763C4.80831 32 3.93624 31.6389 3.29327 30.9959C2.6503 30.3529 2.28906 29.4807 2.28906 28.5714V3.42857C2.28906 2.51927 2.6503 1.64719 3.29327 1.00421ZM11.3309 9.03145C12.624 9.03145 13.6722 7.9832 13.6722 6.6901C13.6722 5.39703 12.624 4.34878 11.3309 4.34878C10.0378 4.34878 8.98957 5.39703 8.98957 6.6901C8.98957 7.9832 10.0378 9.03145 11.3309 9.03145ZM6.57658 19.4285C6.57542 18.6395 7.21405 17.9999 8.00303 17.9999H24.0031C24.7919 17.9999 25.4326 18.6395 25.4338 19.4285C25.4349 20.2174 24.7963 20.8571 24.0072 20.857H8.0073C7.21834 20.857 6.57777 20.2174 6.57658 19.4285ZM6.57658 26.2857C6.57542 25.4967 7.21405 24.8571 8.00303 24.8571H17.1459C17.9349 24.8571 18.5754 25.4967 18.5766 26.2857C18.5778 27.0745 17.9392 27.7143 17.1502 27.7143H8.0073C7.21834 27.7143 6.57777 27.0745 6.57658 26.2857ZM11.3295 10.5921C9.72989 10.5921 8.2708 11.1936 7.16607 12.1828C6.51032 12.77 7.02241 13.7139 7.90262 13.7139H14.7564C15.6366 13.7139 16.1487 12.77 15.4929 12.1828C14.3882 11.1936 12.9291 10.5921 11.3295 10.5921Z" fill="white"/>
</svg>
