<svg width="32" height="32" viewBox="0 0 32 32" fill="none" xmlns="http://www.w3.org/2000/svg">
<path fill-rule="evenodd" clip-rule="evenodd" d="M3.25525 0.615861C3.58096 0.225594 4.06306 0 4.57138 0H16C16.5083 0 16.9904 0.225594 17.3161 0.615861C17.6418 1.00613 17.7775 1.52082 17.6866 2.02095L17.6322 2.32037C19.2939 2.55783 20.5714 3.98686 20.5714 5.71429V7.42857H16.5714C12.7843 7.42857 9.71428 10.4986 9.71428 14.2857V25.1429H3.42857C1.53502 25.1429 0 23.6078 0 21.7143V5.71429C0 3.98688 1.27746 2.55785 2.9392 2.32037L2.88475 2.02095C2.79383 1.52082 2.92953 1.00613 3.25525 0.615861ZM6.62546 3.42857L6.88903 4.87808C7.03723 5.69321 7.74715 6.28571 8.57566 6.28571H11.9957C12.8242 6.28571 13.5341 5.69321 13.6823 4.87808L13.9459 3.42857H6.62546Z" fill="white"/>
<path fill-rule="evenodd" clip-rule="evenodd" d="M16.5713 10.2856C14.3621 10.2856 12.5713 12.0765 12.5713 14.2856V27.9999C12.5713 30.2091 14.3621 31.9999 16.5713 31.9999H27.9999C30.209 31.9999 31.9999 30.2091 31.9999 27.9999V14.2856C31.9999 12.0765 30.209 10.2856 27.9999 10.2856H16.5713ZM17.9999 18.2856C17.9999 17.4967 18.6394 16.8571 19.4284 16.8571H25.1427C25.9317 16.8571 26.5713 17.4967 26.5713 18.2856C26.5713 19.0746 25.9317 19.7142 25.1427 19.7142H19.4284C18.6394 19.7142 17.9999 19.0746 17.9999 18.2856ZM19.4284 22.5714C18.6394 22.5714 17.9999 23.2109 17.9999 23.9999C17.9999 24.789 18.6394 25.4285 19.4284 25.4285H25.1427C25.9317 25.4285 26.5713 24.789 26.5713 23.9999C26.5713 23.2109 25.9317 22.5714 25.1427 22.5714H19.4284Z" fill="white"/>
</svg>
