<svg width="32" height="32" viewBox="0 0 32 32" fill="none" xmlns="http://www.w3.org/2000/svg">
<g clip-path="url(#clip0_8051_5186)">
<path fill-rule="evenodd" clip-rule="evenodd" d="M1.14286 0.286377C0.511675 0.286377 0 0.798052 0 1.42923V24.2863C0 24.9176 0.511675 25.4291 1.14286 25.4291H12.0139C11.6348 24.3569 11.4286 23.2028 11.4286 22.0007C11.4286 19.0947 12.6337 16.4701 14.5714 14.5996V3.26344C13.9244 1.52487 12.2497 0.286377 10.2857 0.286377H1.14286ZM17.4286 3.26342V12.6476C18.7332 12.0488 20.1848 11.7149 21.7143 11.7149C27.0025 11.7149 31.3586 15.7058 31.9353 20.8399H32V1.42923C32 0.798052 31.4882 0.286377 30.8571 0.286377H21.7143C19.7503 0.286377 18.0756 1.52483 17.4286 3.26342ZM21.7143 18.0007C19.5051 18.0007 17.7143 19.7915 17.7143 22.0007C17.7143 24.2097 19.5051 26.0006 21.7143 26.0006C23.9234 26.0006 25.7143 24.2097 25.7143 22.0007C25.7143 19.7915 23.9234 18.0007 21.7143 18.0007ZM14.2857 22.0007C14.2857 17.898 17.6116 14.5721 21.7143 14.5721C25.8169 14.5721 29.1429 17.898 29.1429 22.0007C29.1429 23.431 28.7387 24.7667 28.0382 25.9002L30.9255 28.7873C31.595 29.4568 31.595 30.5423 30.9255 31.2118C30.256 31.8812 29.1705 31.8812 28.501 31.2118L25.6139 28.3247C24.4805 29.025 23.1445 29.4291 21.7143 29.4291C17.6116 29.4291 14.2857 26.1034 14.2857 22.0007Z" fill="white"/>
</g>
<defs>
<clipPath id="clip0_8051_5186">
<rect width="32" height="32" fill="white"/>
</clipPath>
</defs>
</svg>
