<svg width="32" height="32" viewBox="0 0 32 32" fill="none" xmlns="http://www.w3.org/2000/svg">
<path fill-rule="evenodd" clip-rule="evenodd" d="M5.07359 0C3.53574 0 2.28906 1.24668 2.28906 2.78453V13.2318C2.28906 14.7696 3.53574 16.0163 5.07359 16.0163H26.9332C28.471 16.0163 29.7176 14.7696 29.7176 13.2318V2.78453C29.7176 1.24668 28.471 0 26.9332 0H5.07359ZM11.2511 21.5801C11.2511 23.3995 9.77613 24.8745 7.95667 24.8745C6.1372 24.8745 4.66225 23.3995 4.66225 21.5801C4.66225 19.7607 6.1372 18.2857 7.95667 18.2857C9.77613 18.2857 11.2511 19.7607 11.2511 21.5801ZM24.0614 24.8745C25.8808 24.8745 27.3558 23.3995 27.3558 21.5801C27.3558 19.7607 25.8808 18.2857 24.0614 18.2857C22.2419 18.2857 20.767 19.7607 20.767 21.5801C20.767 23.3995 22.2419 24.8745 24.0614 24.8745ZM7.95647 26.6537C5.3105 26.6537 3.11423 28.579 2.69226 31.1051C2.6113 31.5897 3.01736 31.9911 3.50865 31.9911H12.4043C12.8956 31.9911 13.3016 31.5897 13.2207 31.1051C12.7987 28.579 10.6025 26.6537 7.95647 26.6537ZM18.7972 31.1051C19.2191 28.579 21.4154 26.6537 24.0614 26.6537C26.7073 26.6537 28.9037 28.579 29.3256 31.1051C29.4065 31.5897 29.0006 31.9911 28.5092 31.9911H19.6136C19.1223 31.9911 18.7162 31.5897 18.7972 31.1051ZM18.5712 4.8491C18.5712 6.2672 17.4216 7.41682 16.0035 7.41682C14.5854 7.41682 13.4358 6.2672 13.4358 4.8491C13.4358 3.43097 14.5854 2.28137 16.0035 2.28137C17.4216 2.28137 18.5712 3.43097 18.5712 4.8491ZM11.489 12.9303C11.8508 10.764 13.7343 9.11287 16.0033 9.11287C18.2724 9.11287 20.1559 10.764 20.5177 12.9303C20.5871 13.3459 20.2389 13.69 19.8176 13.69H12.1891C11.7678 13.69 11.4196 13.3459 11.489 12.9303Z" fill="white"/>
</svg>
