<svg width="32" height="32" viewBox="0 0 32 32" fill="none" xmlns="http://www.w3.org/2000/svg">
<path fill-rule="evenodd" clip-rule="evenodd" d="M1.50421 1.00421C2.14719 0.361223 3.01927 0 3.92857 0H16.6961C17.6054 0 18.4775 0.361223 19.1205 1.00421L26.9243 8.80812C27.5673 9.45111 27.9287 10.3232 27.9287 11.2325V28.5714C27.9287 29.4807 27.5673 30.3529 26.9243 30.9959C26.2814 31.6389 25.4094 32 24.5001 32H3.92857C3.01925 32 2.14719 31.6389 1.50421 30.9959C0.861223 30.3529 0.5 29.4807 0.5 28.5714V3.42857C0.5 2.51927 0.861223 1.64719 1.50421 1.00421ZM12.1836 10.3506C12.954 10.9009 13.1324 11.9715 12.5821 12.7419L9.39015 17.2107C9.09726 17.6207 8.63879 17.8812 8.13657 17.9227C7.63438 17.9643 7.13934 17.7828 6.78299 17.4265L4.86782 15.5113C4.19835 14.8418 4.19835 13.7564 4.86782 13.0869C5.5373 12.4174 6.62272 12.4174 7.29218 13.0869L7.77643 13.5712L9.79218 10.7491C10.3425 9.9787 11.4131 9.80025 12.1836 10.3506ZM14.3543 14.5714C14.3543 13.6247 15.1218 12.8571 16.0686 12.8571H21.7829C22.7296 12.8571 23.4971 13.6247 23.4971 14.5714C23.4971 15.5182 22.7296 16.2857 21.7829 16.2857H16.0686C15.1218 16.2857 14.3543 15.5182 14.3543 14.5714ZM14.3543 23.643C14.3543 22.6961 15.1218 21.9286 16.0686 21.9286H21.7829C22.7296 21.9286 23.4971 22.6961 23.4971 23.643C23.4971 24.5897 22.7296 25.3573 21.7829 25.3573H16.0686C15.1218 25.3573 14.3543 24.5897 14.3543 23.643ZM12.5821 21.9562C13.1324 21.1858 12.954 20.1152 12.1836 19.5648C11.4131 19.0145 10.3425 19.193 9.79218 19.9634L7.77643 22.7854L7.29218 22.3012C6.62272 21.6317 5.5373 21.6317 4.86782 22.3012C4.19835 22.9707 4.19835 24.056 4.86782 24.7255L6.78299 26.6407C7.13934 26.997 7.63438 27.1785 8.13657 27.1369C8.63879 27.0955 9.09726 26.835 9.39015 26.4249L12.5821 21.9562Z" fill="white"/>
</svg>
