<svg width="72" height="72" viewBox="0 0 72 72" fill="none" xmlns="http://www.w3.org/2000/svg">
<path fill-rule="evenodd" clip-rule="evenodd" d="M32.8096 9.06045C30.3559 10.477 26.8403 12.5067 24.3864 13.9236C22.4397 15.0475 21.2402 17.1247 21.2402 19.3729V27.7476C21.2402 29.9957 22.4397 32.073 24.3864 33.1969C26.8403 34.6137 30.3559 36.6435 32.8096 38.06C34.7565 39.1842 37.1552 39.1842 39.1019 38.06C41.5558 36.6435 45.0714 34.6137 47.5254 33.1969C49.4721 32.073 50.6712 29.9957 50.6712 27.7476C50.6712 25.2583 50.6712 21.8622 50.6712 19.3729C50.6712 17.1247 49.4721 15.0475 47.5254 13.9236C45.0714 12.5067 41.5558 10.477 39.1019 9.06045C37.1552 7.93623 34.7565 7.93623 32.8096 9.06045Z" fill="#9BDAF7"/>
<path fill-rule="evenodd" clip-rule="evenodd" d="M49.7429 16.0845L49.2468 16.3965C47.6409 17.4042 46.0343 18.4109 44.4098 19.3881C43.0475 20.2079 41.6736 21.0099 40.2662 21.7506C39.4041 22.2042 38.5242 22.6405 37.6097 22.9803C37.3039 23.0938 36.9927 23.1966 36.6745 23.2688C36.4389 23.3222 36.1972 23.36 35.9551 23.3492V38.9031C37.0415 38.9031 38.1278 38.6218 39.1012 38.0598C41.5552 36.6433 45.0708 34.6136 47.5247 33.1967C49.4714 32.0728 50.6706 29.9956 50.6706 27.7474C50.6706 25.2581 50.6706 21.862 50.6706 19.3727C50.6706 18.1916 50.3397 17.0577 49.7429 16.0845Z" fill="#75C8EE"/>
<path fill-rule="evenodd" clip-rule="evenodd" d="M21.8242 16.7256L32.8097 23.0684C34.7567 24.1923 37.1554 24.1923 39.1021 23.0684L50.0876 16.7256C49.5512 15.5693 48.6667 14.5826 47.5255 13.9236C45.0716 12.5067 41.556 10.477 39.1021 9.06045C37.1554 7.93623 34.7567 7.93623 32.8097 9.06045C30.3561 10.477 26.8405 12.5067 24.3866 13.9236C23.2451 14.5826 22.3606 15.5693 21.8242 16.7256Z" fill="#B6E4F9"/>
<path fill-rule="evenodd" clip-rule="evenodd" d="M40.7488 55.9166L56.5489 55.9037C56.8129 56.0398 57.1405 55.9465 57.2918 55.6871C59.2496 52.3252 62.3631 48.1371 63.9706 45.8582C66.9711 41.6042 67.5859 37.7057 67.7952 32.7205C68.0344 27.0206 68.2914 24.1988 66.7678 19.2643C66.2826 17.6927 65.4235 16.669 64.3953 16.2824C63.6701 16.0092 62.8471 16.0345 61.9691 16.4342C60.6604 17.0299 60.0594 18.0406 59.7746 19.1988C59.5217 20.227 59.5351 21.379 59.4623 22.405C59.3348 24.2075 59.4871 25.8317 59.3844 27.4615C59.3725 27.4246 59.3604 27.3881 59.3483 27.3515C58.8626 25.9196 57.7667 25.1157 56.6203 24.9908C55.4751 24.8663 54.2452 25.4107 53.4742 26.7704C52.4886 28.5124 52.0641 30.2388 51.2522 32.1224C50.9596 32.8011 50.6141 33.5014 50.1657 34.2311C49.7267 34.9463 49.2108 35.6358 48.6343 36.2695C48.0602 36.9002 47.4265 37.4757 46.7472 37.9624C45.3398 38.9712 44.3871 39.2412 43.4746 39.8061C43.1944 39.9795 42.9177 40.178 42.6343 40.4253C41.5279 41.3907 40.6285 42.6001 39.9738 43.9322C39.3215 45.2592 38.9113 46.7073 38.7765 48.1519C38.711 48.8539 38.7819 49.6521 38.9278 50.4834C39.229 52.202 39.8541 54.0721 40.0986 55.4601C40.152 55.7653 40.4433 55.97 40.7488 55.9166Z" fill="#FACCD2"/>
<path fill-rule="evenodd" clip-rule="evenodd" d="M31.1598 55.9166L15.3597 55.9037C15.0957 56.0398 14.7681 55.9465 14.6168 55.6871C12.659 52.3252 9.54549 48.1371 7.93803 45.8582C4.93749 41.6042 4.32266 37.7057 4.1134 32.7205C3.87421 27.0206 3.61722 24.1988 5.14082 19.2643C5.62594 17.6927 6.48509 16.669 7.51331 16.2824C8.23844 16.0092 9.06145 16.0345 9.93947 16.4342C11.2481 17.0299 11.8492 18.0406 12.1343 19.1988C12.3869 20.227 12.3734 21.379 12.4463 22.405C12.5738 24.2075 12.4214 25.8317 12.5242 27.4615C12.5361 27.4246 12.5482 27.3881 12.5603 27.3515C13.046 25.9196 14.1419 25.1157 15.2882 24.9908C16.4335 24.8663 17.6634 25.4107 18.4344 26.7704C19.42 28.5124 19.8445 30.2388 20.6564 32.1224C20.9493 32.8011 21.2944 33.5014 21.7429 34.2311C22.1819 34.9463 22.6978 35.6358 23.2743 36.2695C23.8484 36.9002 24.4821 37.4757 25.1614 37.9624C26.5688 38.9712 27.5215 39.2412 28.434 39.8061C28.7142 39.9795 28.9909 40.178 29.2743 40.4253C30.3807 41.3907 31.2801 42.6001 31.9348 43.9322C32.5871 45.2592 32.9973 46.7073 33.1321 48.1519C33.1976 48.8539 33.1267 49.6521 32.9811 50.4834C32.6796 52.202 32.0545 54.0721 31.8099 55.4601C31.7565 55.7653 31.4653 55.97 31.1598 55.9166Z" fill="#FACCD2"/>
<path fill-rule="evenodd" clip-rule="evenodd" d="M59.1653 57.2271C58.711 55.6692 57.2826 54.5981 55.6597 54.5981C52.0853 54.5981 45.2675 54.5981 41.6933 54.5981C40.0702 54.5981 38.6421 55.6692 38.1877 57.2271L37.0969 60.9668C36.9092 61.6105 37.0354 62.3046 37.4375 62.8409C37.8399 63.3773 38.4711 63.6928 39.1412 63.6928H58.2115C58.8819 63.6928 59.5132 63.3773 59.9153 62.8409C60.3176 62.3046 60.4438 61.6105 60.2561 60.9668L59.1653 57.2271Z" fill="#0798F4"/>
<path fill-rule="evenodd" clip-rule="evenodd" d="M12.7444 57.2271C13.199 55.6692 14.6271 54.5981 16.25 54.5981H30.2164C31.8395 54.5981 33.2676 55.6692 33.722 57.2271L34.8128 60.9668C35.0004 61.6105 34.8742 62.3046 34.4722 62.8409C34.0698 63.3773 33.4386 63.6928 32.7684 63.6928C28.3516 63.6928 18.115 63.6928 13.6981 63.6928C13.0278 63.6928 12.3965 63.3773 11.9944 62.8409C11.5921 62.3046 11.4659 61.6105 11.6536 60.9668L12.7444 57.2271Z" fill="#0798F4"/>
<path fill-rule="evenodd" clip-rule="evenodd" d="M59.7578 59.2583H37.5953L37.0969 60.9666C36.9092 61.6103 37.0354 62.3044 37.4375 62.8408C37.8399 63.3771 38.4711 63.6926 39.1412 63.6926H58.2115C58.8819 63.6926 59.5132 63.3771 59.9153 62.8408C60.3176 62.3044 60.4438 61.6103 60.2561 60.9666L59.7578 59.2583Z" fill="#0D6ADF"/>
<path fill-rule="evenodd" clip-rule="evenodd" d="M12.1519 59.2583H34.3144L34.8128 60.9666C35.0004 61.6103 34.8742 62.3044 34.4722 62.8408C34.0698 63.3771 33.4386 63.6926 32.7684 63.6926C28.3516 63.6926 18.115 63.6926 13.6981 63.6926C13.0278 63.6926 12.3965 63.3771 11.9944 62.8408C11.5921 62.3044 11.4659 61.6103 11.6536 60.9666L12.1519 59.2583Z" fill="#0D6ADF"/>
<path fill-rule="evenodd" clip-rule="evenodd" d="M59.417 25.3101C59.4248 26.0363 59.4289 26.7482 59.3838 27.4612L59.3825 27.4571C59.8223 28.8459 59.8444 30.1637 59.653 31.4551C59.5254 32.3146 59.307 33.1629 59.0341 34.0145C58.8715 34.5223 58.6946 35.0303 58.5096 35.5432C58.2348 36.3053 57.9517 37.0722 57.6661 37.851C57.6095 37.9804 57.6682 38.1315 57.7977 38.1883C57.9271 38.245 58.0781 38.1862 58.135 38.0568C58.5163 37.316 58.9065 36.5928 59.2625 35.8609C59.5082 35.3561 59.7363 34.8507 59.9407 34.3411C60.298 33.4512 60.5833 32.5524 60.7491 31.6355C61.0255 30.1079 60.963 28.5333 60.404 26.8676C60.1834 26.2172 59.8369 25.6965 59.417 25.3101Z" fill="#EC8B93"/>
<path fill-rule="evenodd" clip-rule="evenodd" d="M12.4918 25.3101C12.484 26.0363 12.4799 26.7482 12.525 27.4612L12.5263 27.4571C12.0865 28.8459 12.0646 30.1637 12.2561 31.4551C12.3834 32.3146 12.6018 33.1629 12.8747 34.0145C13.0373 34.5223 13.2142 35.0303 13.3992 35.5432C13.674 36.3053 13.9571 37.0722 14.2427 37.851C14.2993 37.9804 14.2405 38.1315 14.1111 38.1883C13.9817 38.245 13.8307 38.1862 13.7738 38.0568C13.3925 37.316 13.0023 36.5928 12.6463 35.8609C12.4006 35.3561 12.1725 34.8507 11.9681 34.3411C11.6108 33.4512 11.3255 32.5524 11.1596 31.6355C10.8832 30.1079 10.9458 28.5333 11.5048 26.8676C11.7254 26.2172 12.0719 25.6965 12.4918 25.3101Z" fill="#EC8B93"/>
</svg>
