<svg width="75" height="75" viewBox="0 0 75 75" fill="none" xmlns="http://www.w3.org/2000/svg">
<g opacity="0.72">
<path d="M73.7109 17.8125C73.3594 17.461 73.0078 17.5196 72.5977 17.6368C70.957 18.1641 69.2578 18.4571 67.5 18.5157C64.5117 18.6329 61.9922 17.754 59.8828 15.586C59.4141 15.1172 58.9453 14.6485 58.418 14.1211C57.0703 12.7149 55.5469 11.4844 53.7891 10.6641C51.5039 9.60942 49.1602 9.02349 46.6406 8.78911C44.0039 8.55474 41.3672 8.67192 38.7891 9.31645C37.5586 9.60942 36.3867 10.0196 35.1562 10.3711V11.6602V12.5391L36.3281 12.4219V35.1563L35.0977 35.625V37.5L37.3242 36.7383C37.9102 36.504 38.4375 36.3282 39.0234 36.1524C40.1367 35.8008 41.25 35.5665 42.3633 35.4493C44.0625 35.2735 45.7617 35.3907 47.4023 36.0352C48.9258 36.6211 50.2734 37.4415 51.6211 38.379C52.8516 39.2579 54.082 40.1368 55.4297 40.7813C58.3008 42.1875 61.4062 42.4805 64.6289 42.1875C65.1562 42.129 65.5078 41.8946 65.6836 41.3672C68.3789 33.8672 71.0156 26.4258 73.7109 18.9258C74.0625 18.5157 74.0625 18.1641 73.7109 17.8125Z" fill="#1D75B9"/>
<path d="M31.6992 7.96875C30.8789 7.96875 30.1758 8.67188 30.1758 9.49219V65.9766C30.1758 66.7969 30.8789 67.5 31.6992 67.5C32.5195 67.5 33.2227 66.7969 33.2227 65.9766V9.49219C33.2227 8.61328 32.5195 7.96875 31.6992 7.96875Z" fill="#1D75B9"/>
<path d="M9.375 18.3398C9.55078 18.3984 9.66797 18.3984 9.84375 18.457C10.0781 18.5156 10.3711 18.5156 10.6055 18.5156C11.0742 18.5156 11.6016 18.457 12.0703 18.3398C12.2461 18.2812 12.4805 18.2227 12.6562 18.1641C14.2969 17.5195 15.7031 16.0547 16.2305 14.3555C16.4063 13.8281 16.4648 13.3008 16.4648 12.7734C16.5234 9.66797 13.8281 6.97266 10.7227 6.91406C7.55859 6.91406 4.86328 9.49219 4.86328 12.6562C4.86328 13.3594 4.98047 14.0039 5.21484 14.6484C5.91797 16.4062 7.5 17.8711 9.375 18.3398Z" fill="#FFB122"/>
<path d="M28.2422 32.8711V38.4961L21.6211 33.9258L21.4453 33.8086L21.0938 33.3984L18.6328 30.6445C18.5156 38.9062 18.2812 60.4688 18.2812 64.9805C18.2812 67.0312 17.168 68.2617 15.4102 68.0273C14.1797 67.8516 13.418 67.0898 13.2422 65.918C13.2422 65.8594 13.2422 65.7422 13.2422 65.6836C12.9492 62.8125 12.7148 58.3008 12.4219 55.4297C12.1875 52.5586 11.9531 49.6875 11.6602 46.8164C11.6602 46.6992 11.6016 46.6406 11.543 46.5234C11.25 46.1133 10.6055 46.1133 10.3711 46.5234C10.3711 46.582 10.3125 46.6406 10.3125 46.6406C10.0781 48.6328 9.96094 50.625 9.78516 52.6172C9.55078 56.3086 9.31641 61.6406 9.02344 65.3906C9.02344 65.5078 9.02344 65.625 8.96484 65.7422C8.73047 66.9141 7.91016 67.7344 6.79688 67.9688C5.625 68.2031 4.57031 67.7344 4.04297 66.6797C3.69141 65.9766 3.51562 65.0391 3.51562 64.2188C3.51562 63.9258 3.16406 47.8711 3.10547 46.0547V45.7617C3.10547 45.4688 3.10547 45.1758 3.04688 44.9414C2.98828 44.8242 2.92969 44.707 2.8125 44.5898C2.8125 44.5312 2.75391 44.5312 2.75391 44.5312C2.16797 43.8281 1.75781 43.1836 1.46484 42.4805C1.17187 41.7773 1.05469 41.0742 0.996094 40.3711C0.996094 39.6094 0.996094 38.8477 0.9375 38.0859C0.996094 35.1563 0.996094 28.125 1.05469 25.7227C1.05469 25.4883 1.11328 24.9023 1.17187 24.375C1.23047 23.9648 1.28906 23.5547 1.28906 23.3789C1.34766 22.7344 1.69922 22.207 2.40234 22.0312L2.51953 21.9727C3.33984 21.7383 4.16016 21.4453 4.98047 21.1523C5.03906 21.1523 5.15625 21.0938 5.27344 21.0352L5.68359 20.918C6.26953 20.6836 6.62109 20.625 6.79688 20.625H6.91406C7.03125 20.6836 7.14844 20.7422 7.20703 20.8008C7.32422 20.918 7.38281 21.0352 7.44141 21.2109C7.44141 21.2695 7.67578 21.9141 8.02734 23.0859C8.4375 24.3164 8.90625 25.8398 9.19922 26.7773L9.31641 25.7813C9.375 25.1367 9.49219 24.4922 9.55078 24.0234C9.55078 24.0234 9.55078 23.9648 9.55078 23.9063L9.60938 23.5547C9.60938 23.3789 9.66797 23.3203 9.66797 23.2617C9.60938 23.1445 9.55078 23.0273 9.49219 22.9102C9.43359 22.793 9.375 22.6758 9.375 22.6172L9.31641 22.5C9.25781 22.3828 9.19922 22.207 9.19922 22.0312C9.19922 21.9727 9.19922 21.9141 9.31641 21.6797C9.43359 21.4453 9.43359 21.3867 9.43359 21.3867C9.49219 21.3281 9.60938 21.2109 9.72656 21.2109H9.84375H9.96094H10.7227H11.543H11.6602H11.7773C11.9531 21.2695 12.0117 21.3281 12.1289 21.4453C12.1875 21.5039 12.3633 22.0313 12.3633 22.0898C12.3633 22.2656 12.3047 22.4414 12.2461 22.5586L12.1875 22.6172C12.1289 22.6758 12.1289 22.793 12.0703 22.8516C12.0117 23.0273 11.9531 23.1445 11.8945 23.2617C11.8945 23.3203 11.8945 23.4375 11.9531 23.5547L12.0117 23.9063V24.0234V24.082C12.0117 24.2578 12.0703 24.4922 12.0703 24.7266L12.3047 26.7188C12.5977 25.7812 13.0664 24.1992 13.4766 22.9688C13.7695 21.9727 14.0039 21.2109 14.0625 21.1523C14.0625 21.0938 14.1211 21.0352 14.1211 21.0352C14.2383 20.8008 14.4141 20.625 14.5898 20.5664H14.707H14.8828H15.293C15.8203 20.625 16.3477 20.625 16.875 20.6836C17.1094 20.6836 17.4609 20.7422 17.8125 20.7422C18.457 20.8008 19.043 21.1523 19.3945 21.6797L25.1953 30.2344L28.2422 32.8711Z" fill="#FFB122"/>
</g>
</svg>
