<svg width="72" height="72" viewBox="0 0 72 72" fill="none" xmlns="http://www.w3.org/2000/svg">
<path fill-rule="evenodd" clip-rule="evenodd" d="M53.2697 38.25L59.2889 54.0315C59.7274 55.1715 61.0149 55.7495 62.159 55.3151L69.1629 52.6403C70.3069 52.2058 70.885 50.9143 70.4464 49.7703L64.4272 33.9928C63.9887 32.8489 62.7012 32.2708 61.5572 32.7092L54.5533 35.38C53.4092 35.8184 52.8312 37.106 53.2699 38.25H53.2697Z" fill="#FFB122"/>
<path fill-rule="evenodd" clip-rule="evenodd" d="M54.0198 58.408C54.7612 59.5321 54.7612 61.2143 54.1194 62.3982C53.4776 63.5821 52.23 64.3156 50.8866 64.3037C50.4401 67.1458 47.1794 68.569 44.7957 66.9544C43.3526 69.8644 41.4632 70.7693 39.1272 69.6691C35.4957 72.1126 30.4332 69.2984 25.9926 65.7347C21.9426 62.4858 16.896 57.4233 12.8301 53.7441C16.5891 43.8105 18.63 38.5486 18.63 38.5486C21.52 37.6717 32.2829 34.9332 35.1051 37.1057C39.5577 40.0276 42.2244 42.5907 43.1173 44.8031L51.9826 46.0826L54.0196 58.408H54.0198Z" fill="#F6B4A8"/>
<path fill-rule="evenodd" clip-rule="evenodd" d="M54.0196 58.408C54.761 59.5321 54.761 61.2143 54.1192 62.3982C53.4774 63.5821 52.2298 64.3156 50.8864 64.3037C50.4399 67.1458 47.1792 68.569 44.7955 66.9544C43.3524 69.8644 41.463 70.7693 39.127 69.6691C38.812 69.8803 38.4892 70.0517 38.1543 70.1873C35.2724 69.2824 32.2149 67.2654 29.3727 64.9853C24.6172 61.1665 18.6856 55.219 13.9102 50.8979C16.9755 42.8098 18.6298 38.5486 18.6298 38.5486C21.5198 37.6717 32.2827 34.9332 35.1049 37.1057C39.5575 40.0276 42.2242 42.5907 43.1171 44.8031L51.9824 46.0826L54.0194 58.408H54.0196Z" fill="#F9C9C0"/>
<path fill-rule="evenodd" clip-rule="evenodd" d="M52.8229 63.7657C52.2489 64.1164 51.5792 64.3078 50.8857 64.3038L41.8927 56.443C41.5418 56.1401 41.5101 55.6059 41.813 55.2591C42.12 54.9084 42.6501 54.8724 43.0008 55.1794L49.4904 60.8518L52.8229 63.7657ZM47.9716 67.5047C46.9393 67.7718 45.7872 67.6283 44.7946 66.9546C44.7827 66.9785 44.7707 66.9985 44.7627 67.0185L35.5985 59.3808C35.2397 59.0858 35.188 58.5556 35.4829 58.1969C35.7778 57.8382 36.3081 57.7863 36.6668 58.0813L47.9716 67.5047ZM41.9685 69.9523C41.1075 70.2513 40.1587 70.1557 39.1263 69.6692C39.0944 69.6892 39.0666 69.709 39.0346 69.729L29.8345 62.2309C29.4717 61.9399 29.412 61.4137 29.699 61.0509C29.9899 60.6881 30.5201 60.6283 30.879 60.9193L41.9686 69.952L41.9685 69.9523Z" fill="#F6B4A8"/>
<path fill-rule="evenodd" clip-rule="evenodd" d="M18.7297 38.25L12.7064 54.0315C12.2719 55.1715 10.9843 55.7495 9.84036 55.3151L2.83653 52.6403C1.69255 52.2058 1.11444 50.9143 1.55305 49.7703L7.57222 33.9928C8.01069 32.8489 9.29825 32.2708 10.4422 32.7092L17.4461 35.38C18.5902 35.8184 19.1641 37.106 18.7297 38.25Z" fill="#4BB3FD"/>
<path fill-rule="evenodd" clip-rule="evenodd" d="M18.7291 38.2496L13.8459 51.0494C13.3555 52.0898 12.1318 52.6001 11.0396 52.1816L4.03575 49.5109C2.89176 49.0724 2.31365 47.7848 2.75226 46.6409L7.63547 33.841C8.12175 32.8007 9.34955 32.2903 10.4418 32.7088L17.4456 35.3796C18.5897 35.8181 19.1636 37.1056 18.7292 38.2496H18.7291Z" fill="#74C3FC"/>
<path fill-rule="evenodd" clip-rule="evenodd" d="M53.3692 38.5489C53.3692 38.5489 55.4101 43.8107 59.1691 53.7445C59.1691 53.7445 57.4511 55.2991 54.0189 58.4084C51.7149 56.0645 46.6085 50.5675 42.9889 47.8689C39.5847 45.3257 39.1462 46.4498 36.1965 48.1718C32.9677 50.0532 30.6716 50.1768 29.3043 48.5425C27.1238 45.6684 29.6511 41.8576 36.89 37.106C39.7162 34.9335 50.4792 37.6761 53.3692 38.5489Z" fill="#ED9082"/>
<path fill-rule="evenodd" clip-rule="evenodd" d="M53.3703 38.5489C53.3703 38.5489 55.4112 43.8107 59.1702 53.7445L56.0928 56.5308C53.3223 53.6806 46.9005 46.9559 43.5562 44.4605C40.148 41.9213 39.7095 43.0415 36.7596 44.7634C33.5347 46.645 31.2348 46.7685 29.8675 45.1382C29.5965 44.7755 29.3971 44.4008 29.2695 44.0101C30.4256 41.9851 32.9647 39.685 36.8913 37.106C39.7174 34.9335 50.4803 37.6761 53.3703 38.5489Z" fill="#F39E90"/>
<path fill-rule="evenodd" clip-rule="evenodd" d="M53.2699 38.2496L58.1529 51.0494C58.6433 52.0898 59.867 52.6001 60.9592 52.1816L67.9631 49.5109C69.107 49.0724 69.6811 47.7848 69.2465 46.6409L64.3635 33.841C63.8731 32.8007 62.6494 32.2903 61.5572 32.7088L54.5533 35.3796C53.4092 35.8181 52.8312 37.1056 53.2699 38.2496Z" fill="#FFC738"/>
<path fill-rule="evenodd" clip-rule="evenodd" d="M43.2578 25.6772H65.3694V20.1124C65.3694 10.2106 43.2578 10.2106 43.2578 20.1124V25.6772Z" fill="#FFC738"/>
<path fill-rule="evenodd" clip-rule="evenodd" d="M54.3114 13.8023C50.9549 13.7426 48.7227 9.89183 48.7227 6.68291C48.7227 -0.344824 59.904 -0.344824 59.904 6.68291C59.904 9.89183 57.6718 13.7426 54.3114 13.8023Z" fill="#F6B4A8"/>
<path fill-rule="evenodd" clip-rule="evenodd" d="M6.63086 25.6772H28.7425V20.1124C28.7425 10.2106 6.63086 10.2106 6.63086 20.1124V25.6772Z" fill="#74C3FC"/>
<path fill-rule="evenodd" clip-rule="evenodd" d="M17.6844 13.8023C14.328 13.7426 12.0957 9.89183 12.0957 6.68291C12.0957 -0.344824 23.2771 -0.344824 23.2771 6.68291C23.2771 9.89183 21.0448 13.7426 17.6844 13.8023Z" fill="#F6B4A8"/>
<path fill-rule="evenodd" clip-rule="evenodd" d="M15.9345 13.4038C13.5747 12.3316 12.0957 9.29408 12.0957 6.68309C12.0957 3.91264 13.8298 2.2385 15.9345 1.64844C18.0392 2.23836 19.7772 3.91264 19.7772 6.68309C19.7772 9.29408 18.2983 12.3316 15.9345 13.4038Z" fill="#F9C9C0"/>
<path fill-rule="evenodd" clip-rule="evenodd" d="M35.9979 32.2267C32.9405 31.4095 26.6621 28.9301 26.6621 23.6324V13.037C29.4365 11.5222 32.6176 10.6611 35.9979 10.6611C39.3783 10.6611 42.5633 11.5222 45.3377 13.037V23.6324C45.3377 28.9301 39.0593 31.4095 35.9979 32.2267Z" fill="#08A88A"/>
<path fill-rule="evenodd" clip-rule="evenodd" d="M35.9976 28.6592C38.3733 27.8859 41.917 26.1996 41.917 23.6325V15.2057C40.0395 14.4643 38.0385 14.0815 35.9976 14.0815C33.9567 14.0815 31.9595 14.4642 30.082 15.2057V23.6325C30.082 26.1996 33.6258 27.8859 35.9976 28.6592Z" fill="#E1DAE7"/>
<path fill-rule="evenodd" clip-rule="evenodd" d="M39.2582 14.4124C38.1899 14.1932 37.1017 14.0815 35.9976 14.0815C33.9606 14.0815 31.9595 14.4642 30.082 15.2057V23.6325C30.082 26.1996 33.6258 27.8859 35.9976 28.6592C37.9189 27.7383 39.2582 25.4861 39.2582 23.6325V14.4124Z" fill="#EBE6EF"/>
<path d="M32.2591 20.9414C32.0279 20.5388 32.1635 20.0245 32.5661 19.7933C32.9687 19.5582 33.483 19.6977 33.7181 20.0962L34.7386 21.8661L38.4139 18.1909C38.7448 17.8641 39.2788 17.8641 39.6058 18.1909C39.9367 18.5218 39.9367 19.0559 39.6058 19.3828L35.1571 23.8355H35.1532C35.1054 23.8872 35.0456 23.9311 34.9818 23.9669C34.5792 24.2022 34.0649 24.0626 33.8298 23.66L32.2591 20.9414Z" fill="#08A88A"/>
<path fill-rule="evenodd" clip-rule="evenodd" d="M52.5614 1.64795C54.6662 2.23787 56.4042 3.91215 56.4042 6.68261C56.4042 9.29359 54.9252 12.3311 52.5614 13.4034C50.2016 12.3311 48.7227 9.29359 48.7227 6.68261C48.7227 3.91215 50.4567 2.23801 52.5614 1.64795Z" fill="#F9C9C0"/>
</svg>
