<svg width="72" height="72" viewBox="0 0 72 72" fill="none" xmlns="http://www.w3.org/2000/svg">
<g clip-path="url(#clip0_3387_7383)">
<path fill-rule="evenodd" clip-rule="evenodd" d="M48.4894 65.1734C48.0948 54.3309 23.9063 54.3309 23.5117 65.1734V71.0132H48.4894V65.1734Z" fill="#CD212D"/>
<path fill-rule="evenodd" clip-rule="evenodd" d="M48.4885 65.1734C48.317 60.4776 43.6851 57.8188 38.4552 57.189C33.2292 57.8188 28.5972 60.4776 28.4258 65.1734V71.0132H48.4885V65.1734Z" fill="#EE2B39"/>
<path fill-rule="evenodd" clip-rule="evenodd" d="M47.1207 50.4402L47.1566 43.7673C47.1566 42.8226 47.5792 42.0134 48.3485 41.4672C53.0243 38.1707 56.329 33.0563 57.2218 27.1486C57.8237 23.1505 51.0512 22.708 50.4731 26.2756C49.3411 33.2515 43.2939 38.5771 35.9991 38.5771C28.7044 38.5771 22.6572 33.2515 21.5252 26.2756C20.9472 22.708 14.1746 23.1504 14.7805 27.1486C15.6735 33.0563 18.9739 38.1705 23.6499 41.4672C24.4232 42.0134 24.8418 42.8226 24.8418 43.7673V50.4402H47.1207Z" fill="#00ADE6"/>
<path fill-rule="evenodd" clip-rule="evenodd" d="M47.1222 50.4402L47.1581 43.7672C47.1581 42.8225 47.5806 42.0134 48.35 41.4672C53.0258 38.1706 56.3305 33.0562 57.2233 27.1486C57.8252 23.1505 51.0527 22.7079 50.4746 26.2756C49.3425 33.2514 43.2954 38.577 36.0006 38.577C28.7058 38.577 22.6587 33.2514 21.5266 26.2756C21.3552 25.2073 20.6258 24.4977 19.705 24.135C18.521 24.5974 17.66 25.6099 17.8912 27.1486C18.7842 33.0562 22.0846 38.1705 26.7605 41.4672C27.5338 42.0134 27.9564 42.8225 27.9564 43.7672V50.4402H47.1222Z" fill="#11BEF7"/>
<path fill-rule="evenodd" clip-rule="evenodd" d="M36.0003 3.97266L38.0013 9.01533L43.4146 9.36211L39.2411 12.8222L40.5843 18.08L36.0003 15.1779L31.4162 18.08L32.7594 12.8222L28.5859 9.36211L33.9992 9.01533L36.0003 3.97266Z" fill="#FFCB5B"/>
<path d="M28.1823 21.8586C27.9511 22.2613 27.4368 22.4008 27.0342 22.1696C26.6316 21.9384 26.4921 21.4241 26.7233 21.0215L27.7875 19.1838C28.0187 18.7812 28.5289 18.6417 28.9315 18.8729C29.3341 19.1041 29.4736 19.6184 29.2425 20.021L28.1823 21.8586ZM45.2753 21.0215C45.5064 21.4241 45.3669 21.9384 44.9643 22.1696C44.5617 22.4008 44.0475 22.2613 43.8163 21.8586L42.756 20.021C42.5248 19.6184 42.6643 19.1041 43.0669 18.8729C43.4695 18.6417 43.9837 18.7812 44.2149 19.1838L45.2753 21.0215ZM50.2102 10.7889C50.6726 10.7889 51.0513 11.1676 51.0513 11.6341C51.0513 12.1005 50.6726 12.4752 50.2102 12.4752H48.0855C47.619 12.4752 47.2405 12.1004 47.2405 11.6341C47.2405 11.1678 47.6192 10.7889 48.0855 10.7889H50.2102ZM48.2689 5.24409C48.6715 5.00896 49.1857 5.14846 49.4209 5.54699C49.6521 5.9496 49.5165 6.4678 49.1139 6.69899L47.2762 7.75931C46.8736 7.99443 46.3593 7.85493 46.1242 7.45232C45.893 7.05379 46.0286 6.53545 46.4312 6.30426L48.2689 5.24409ZM43.8163 1.40938C44.0475 1.00677 44.5617 0.867274 44.9643 1.09846C45.3669 1.32965 45.5064 1.84391 45.2753 2.24652L44.2149 4.08421C43.9837 4.48682 43.4695 4.62238 43.0669 4.3912C42.6643 4.16395 42.5248 3.64982 42.756 3.24721L43.8163 1.40938ZM49.1139 16.565C49.5165 16.8001 49.6521 17.3144 49.4209 17.717C49.1857 18.1196 48.6715 18.2551 48.2689 18.0239L46.4312 16.9636C46.0286 16.7285 45.893 16.2142 46.1242 15.8116C46.3593 15.409 46.8736 15.2735 47.2762 15.5046L49.1139 16.565ZM21.7923 12.4752C21.3258 12.4752 20.9473 12.1004 20.9473 11.6341C20.9473 11.1678 21.326 10.7889 21.7923 10.7889H23.9129C24.3794 10.7889 24.7579 11.1676 24.7579 11.6341C24.7579 12.1005 24.3792 12.4752 23.9129 12.4752H21.7923ZM22.8845 6.69913C22.4819 6.46795 22.3463 5.94974 22.5775 5.54713C22.8127 5.14846 23.3269 5.00896 23.7295 5.24423L25.5672 6.30454C25.9698 6.53573 26.1093 7.05393 25.8742 7.4526C25.643 7.85521 25.1248 7.99471 24.7261 7.75959L22.8845 6.69913ZM26.7233 2.24652C26.4921 1.84391 26.6316 1.32965 27.0342 1.09846C27.4368 0.867274 27.9511 1.00677 28.1823 1.40938L29.2426 3.24707C29.4738 3.64968 29.3343 4.16395 28.9317 4.39105C28.5291 4.62224 28.0189 4.48668 27.7877 4.08407L26.7234 2.24638L26.7233 2.24652ZM23.7297 18.0239C23.3271 18.2551 22.8128 18.1196 22.5777 17.717C22.3465 17.3144 22.482 16.8001 22.8847 16.565L24.7263 15.5046C25.125 15.2735 25.6432 15.409 25.8743 15.8116C26.1095 16.2142 25.97 16.7285 25.5674 16.9597L23.7297 18.0239Z" fill="#FFCB5B"/>
<path d="M68.0491 29.4247C68.0491 28.9582 68.4278 28.5795 68.8942 28.5795C69.3605 28.5795 69.7352 28.9582 69.7352 29.4247V30.2817H70.5922C71.0587 30.2817 71.4372 30.6564 71.4372 31.1227C71.4372 31.5891 71.0585 31.9679 70.5922 31.9679H69.7352V32.8249C69.7352 33.2913 69.3605 33.67 68.8942 33.67C68.4278 33.67 68.0491 33.2913 68.0491 32.8249V31.9679H67.1922C66.7257 31.9679 66.3472 31.5892 66.3472 31.1227C66.3472 30.6563 66.7259 30.2817 67.1922 30.2817H68.0491V29.4247ZM2.26448 29.4247C2.26448 28.9582 2.64319 28.5795 3.10556 28.5795C3.57202 28.5795 3.95058 28.9582 3.95058 29.4247V30.2817H4.80755C5.274 30.2817 5.65256 30.6564 5.65256 31.1227C5.65256 31.5891 5.27386 31.9679 4.80755 31.9679H3.95058V32.8249C3.95058 33.2913 3.57187 33.67 3.10556 33.67C2.64319 33.67 2.26448 33.2913 2.26448 32.8249V31.9679H1.40752C0.941063 31.9679 0.5625 31.5892 0.5625 31.1227C0.5625 30.6563 0.941203 30.2817 1.40752 30.2817H2.26448V29.4247ZM11.4368 16.9757C11.4368 16.5094 11.8155 16.1306 12.2818 16.1306C12.7481 16.1306 13.1268 16.5093 13.1268 16.9757V17.8327H13.9838C14.4461 17.8327 14.8248 18.2114 14.8248 18.6779C14.8248 19.1443 14.4461 19.5189 13.9838 19.5189H13.1268V20.376C13.1268 20.8424 12.7481 21.2211 12.2818 21.2211C11.8155 21.2211 11.4368 20.8424 11.4368 20.376V19.5189H10.5798C10.1133 19.5189 9.7387 19.1442 9.7387 18.6779C9.7387 18.2115 10.1135 17.8327 10.5798 17.8327H11.4368V16.9757ZM2.26448 4.5307C2.26448 4.06425 2.64319 3.68555 3.10556 3.68555C3.57202 3.68555 3.95058 4.06425 3.95058 4.5307V5.38767H4.80755C5.274 5.38767 5.65256 5.76244 5.65256 6.22875C5.65256 6.69506 5.27386 7.07391 4.80755 7.07391H3.95058V7.93087C3.95058 8.39733 3.57187 8.77603 3.10556 8.77603C2.64319 8.77603 2.26448 8.39733 2.26448 7.93087V7.07391H1.40752C0.941063 7.07391 0.5625 6.6952 0.5625 6.22875C0.5625 5.7623 0.941203 5.38767 1.40752 5.38767H2.26448V4.5307ZM58.8767 16.9757C58.8767 16.5094 59.2515 16.1306 59.7178 16.1306C60.1841 16.1306 60.5628 16.5093 60.5628 16.9757V17.8327H61.4199C61.8864 17.8327 62.2649 18.2114 62.2649 18.6779C62.2649 19.1443 61.8862 19.5189 61.4199 19.5189H60.5628V20.376C60.5628 20.8424 60.1841 21.2211 59.7178 21.2211C59.2515 21.2211 58.8767 20.8424 58.8767 20.376V19.5189H58.0198C57.5533 19.5189 57.1747 19.1442 57.1747 18.6779C57.1747 18.2115 57.5535 17.8327 58.0198 17.8327H58.8767V16.9757ZM68.049 4.5307C68.049 4.06425 68.4277 3.68555 68.894 3.68555C69.3603 3.68555 69.7351 4.06425 69.7351 4.5307V5.38767H70.5921C71.0585 5.38767 71.4371 5.76244 71.4371 6.22875C71.4371 6.69506 71.0584 7.07391 70.5921 7.07391H69.7351V7.93087C69.7351 8.39733 69.3603 8.77603 68.894 8.77603C68.4277 8.77603 68.049 8.39733 68.049 7.93087V7.07391H67.192C66.7256 7.07391 66.347 6.6952 66.347 6.22875C66.347 5.7623 66.7257 5.38767 67.192 5.38767H68.049V4.5307Z" fill="#FFCB5B"/>
<path fill-rule="evenodd" clip-rule="evenodd" d="M70.5929 65.1729C70.1983 54.3304 46.0098 54.3304 45.6152 65.1729V71.0127H70.5929V65.1729Z" fill="#32A13F"/>
<path fill-rule="evenodd" clip-rule="evenodd" d="M70.5939 65.1729C70.4225 60.4771 65.7906 57.8183 60.5646 57.1885C55.3346 57.8183 50.7027 60.4771 50.5312 65.1729V71.0128H70.5939V65.1729Z" fill="#3CB54B"/>
<path fill-rule="evenodd" clip-rule="evenodd" d="M26.3859 65.1729C25.9913 54.3304 1.8028 54.3304 1.4082 65.1729V71.0127H26.3859V65.1729Z" fill="#F7B84E"/>
<path fill-rule="evenodd" clip-rule="evenodd" d="M26.385 65.1729C26.2135 60.4771 21.5816 57.8183 16.3516 57.1885C11.1217 57.8183 6.48975 60.4771 6.32227 65.1729V71.0128H26.385V65.1729Z" fill="#FFCB5B"/>
<path fill-rule="evenodd" clip-rule="evenodd" d="M13.8962 44.7436C10.2488 44.7436 7.29102 47.6974 7.29102 51.3448C7.29102 54.9922 10.2488 57.9499 13.8962 57.9499C17.5436 57.9499 20.5013 54.9922 20.5013 51.3448C20.5013 47.6974 17.5436 44.7436 13.8962 44.7436ZM35.9998 21.8945C39.6391 21.8945 42.589 24.8444 42.589 28.4797C42.589 32.115 39.6393 35.069 35.9998 35.069C32.3602 35.069 29.4105 32.1192 29.4105 28.4797C29.4105 24.8402 32.3602 21.8945 35.9998 21.8945ZM35.9998 44.7436C32.3524 44.7436 29.3946 47.6974 29.3946 51.3448C29.3946 54.9922 32.3524 57.9499 35.9998 57.9499C39.6471 57.9499 42.6049 54.9922 42.6049 51.3448C42.6049 47.6974 39.6471 44.7436 35.9998 44.7436ZM58.1033 44.7436C54.4559 44.7436 51.5021 47.6974 51.5021 51.3448C51.5021 54.9922 54.4559 57.9499 58.1033 57.9499C61.7507 57.9499 64.7085 54.9922 64.7085 51.3448C64.7085 47.6974 61.7507 44.7436 58.1033 44.7436Z" fill="#E2B698"/>
<path fill-rule="evenodd" clip-rule="evenodd" d="M15.3475 57.7907C18.2973 57.1289 20.5017 54.494 20.5017 51.345C20.5017 48.196 18.2973 45.5649 15.3475 44.9032C12.4017 45.5649 10.1973 48.1998 10.1973 51.345C10.1973 54.4902 12.4017 57.129 15.3475 57.7907ZM37.4511 34.9097C34.5133 34.2479 32.3169 31.6211 32.3169 28.4799C32.3169 25.3388 34.5133 22.7158 37.4511 22.0542C40.393 22.7158 42.5894 25.3429 42.5894 28.4799C42.5894 31.617 40.393 34.2479 37.4511 34.9097ZM37.4511 44.9032C34.5053 45.5649 32.3008 48.1998 32.3008 51.345C32.3008 54.4902 34.5053 57.129 37.4511 57.7907C40.4008 57.1289 42.6053 54.494 42.6053 51.345C42.6053 48.196 40.4008 45.5649 37.4511 44.9032ZM59.5547 44.9032C56.6089 45.5649 54.4044 48.1998 54.4044 51.345C54.4044 54.4902 56.6089 57.129 59.5547 57.7907C62.5044 57.1289 64.7089 54.494 64.7089 51.345C64.7089 48.196 62.5044 45.5649 59.5547 44.9032Z" fill="#EFC9AE"/>
</g>
<defs>
<clipPath id="clip0_3387_7383">
<rect width="72" height="72" fill="white"/>
</clipPath>
</defs>
</svg>
