<svg width="72" height="72" viewBox="0 0 72 72" fill="none" xmlns="http://www.w3.org/2000/svg">
<path fill-rule="evenodd" clip-rule="evenodd" d="M11.8012 34.6175C12.3356 36.8148 16.1515 36.6732 16.1515 33.9653V27.2131C16.1515 24.3362 11.8012 24.336 11.8012 27.2131V34.6175ZM17.7294 33.2327C17.8571 35.5829 22.0798 35.9878 22.0798 32.6612V25.9089C22.0798 24.8864 21.9148 24.1695 21.5705 23.7422C21.2692 23.3685 20.7697 23.1937 20.0593 23.2022C19.088 23.2145 18.5148 23.5014 18.203 24.0489C17.7905 24.7745 17.7289 25.8476 17.7289 27.2129L17.7294 33.2327ZM6.76855 36.4811C6.97766 36.5454 6.95952 36.6006 7.12855 36.6685C8.42694 37.1903 10.2233 36.558 10.2233 34.6883V28.8969C10.2233 26.0197 5.87305 26.0199 5.87305 28.8969V34.6884C5.87305 35.5416 6.24486 36.1383 6.76855 36.4811ZM27.6145 33.2608C24.7271 32.6561 23.5926 29.0671 25.7231 26.9367C26.3361 26.3216 27.1437 25.9385 28.0078 25.8528V24.677C28.0078 21.5332 23.7019 21.0672 23.6547 24.9046H23.6576V32.5511C23.8056 32.9842 24.0822 33.362 24.4505 33.6339C25.461 34.3976 26.938 34.2239 27.6145 33.2608ZM32.4616 59.6076H8.25509V68.8714H32.4623L32.4616 59.6076ZM11.5366 58.0296V52.3505C11.5469 51.4402 11.3547 50.539 10.974 49.7121C10.5933 48.8852 10.0335 48.1532 9.33509 47.5692C8.70547 47.0328 8.19979 46.3661 7.85296 45.6152C7.50613 44.8643 7.32643 44.047 7.32627 43.2199V38.3542C8.81562 38.6224 10.4498 38.0408 11.266 36.7136C13.0152 38.3475 16.2131 37.9496 17.3337 35.7292C19.0966 37.2277 22.1196 36.8985 23.2276 34.6642C25.2395 36.486 28.4555 35.778 29.3318 33.3423H29.8679V35.7864C25.1217 36.4071 22.0282 38.8858 21.5315 43.7149C21.5188 43.9179 21.5852 44.118 21.7168 44.2732C21.8483 44.4284 22.0348 44.5267 22.2372 44.5474C22.4396 44.5681 22.6422 44.5097 22.8025 44.3844C22.9628 44.2591 23.0684 44.0766 23.0971 43.8752C23.5436 39.5341 26.3836 37.6621 30.7246 37.2727L31.4457 37.208V33.3414H33.1004C33.3079 33.3386 33.5059 33.2543 33.6516 33.1066C33.7973 32.9589 33.8789 32.7598 33.8789 32.5524C33.8789 32.3449 33.7973 32.1458 33.6516 31.9982C33.5059 31.8505 33.3079 31.7662 33.1004 31.7634H28.3754C27.7985 31.7634 27.2453 31.5342 26.8373 31.1263C26.4294 30.7184 26.2002 30.1651 26.2002 29.5882C26.2002 29.0113 26.4294 28.4581 26.8373 28.0501C27.2453 27.6422 27.7985 27.413 28.3754 27.413H35.1277C35.7039 27.4152 36.2559 27.6451 36.6634 28.0525C37.0708 28.46 37.3007 29.012 37.3029 29.5882V39.6632C37.3029 42.2152 32.7106 45.9542 30.8171 47.4348C30.0537 48.0146 29.4369 48.7654 29.0164 49.627C28.5959 50.4885 28.3834 51.4366 28.396 52.3952V58.0299L11.5366 58.0296ZM27.7263 63.8504C28.2937 64.4178 27.4321 65.2794 26.8647 64.712C26.2973 64.1446 27.159 63.2831 27.7263 63.8504ZM27.2957 62.0945C29.2363 62.0945 30.2169 64.453 28.8426 65.8279C27.4683 67.2027 25.1093 66.2226 25.1093 64.281C25.1095 63.7012 25.3399 63.1452 25.7499 62.7352C26.1599 62.3252 26.7159 62.0948 27.2957 62.0945ZM49.9452 4.89658C48.2695 3.71481 46.2617 3.09609 44.2115 3.12972C42.1613 3.16335 40.1748 3.84761 38.5388 5.08371C36.9028 6.31981 35.7019 8.0438 35.1095 10.0068C34.5171 11.9699 34.5638 14.0704 35.2429 16.0051C36.7523 20.3095 45.5903 25.6123 50.4112 29.0551C55.3204 25.5499 63.9939 20.3769 65.5797 16.0051C66.2593 14.0691 66.3056 11.9671 65.7119 10.003C65.1183 8.03896 63.9156 6.31451 62.2775 5.07894C60.6394 3.84336 58.6508 3.16067 56.5992 3.12953C54.5476 3.0984 52.5393 3.72043 50.8645 4.90572C50.7296 5.00066 50.5683 5.05085 50.4034 5.04921C50.2384 5.04757 50.0782 4.99418 49.9452 4.89658Z" fill="url(#paint0_linear_3395_7502)"/>
<defs>
<linearGradient id="paint0_linear_3395_7502" x1="5.87305" y1="36" x2="66.1278" y2="36" gradientUnits="userSpaceOnUse">
<stop offset="0.016" stop-color="#E65233"/>
<stop offset="1" stop-color="#F9A82D"/>
</linearGradient>
</defs>
</svg>
