<svg width="80" height="80" viewBox="0 0 80 80" fill="none" xmlns="http://www.w3.org/2000/svg">
<g clip-path="url(#clip0_3379_9630)">
<path d="M0.59375 12.6021C0.59375 5.5804 6.33656 -0.100069 13.3816 0.00133691C20.2058 0.0994619 25.7547 5.69602 25.7978 12.5207C25.822 16.3427 24.1442 19.7729 21.4783 22.0996C21.1969 22.3451 21.2375 22.7932 21.5589 22.9834L23.9334 24.3884C24.3173 24.6156 24.1563 25.204 23.7102 25.204L12.9573 25.2013C6.1075 25.074 0.59375 19.4823 0.59375 12.6021Z" fill="#7ACAA6"/>
<path d="M23.9362 24.3884L21.5616 22.9834C21.2419 22.7944 21.1975 22.3469 21.4773 22.1028C24.1737 19.7514 25.8603 16.2713 25.7992 12.3984C25.6934 5.69953 20.2716 0.200629 13.5745 0.00547287C12.6248 -0.0221834 11.698 0.0554729 10.8047 0.227192C16.5933 1.33688 21.0048 6.43922 21.0433 12.5206C21.0619 15.4658 20.0698 18.1783 18.3939 20.3325C17.3819 21.6333 17.7108 23.5195 19.1292 24.3589L19.1789 24.3883C19.5586 24.613 19.4045 25.1902 18.9697 25.2027L23.7128 25.2038C24.1589 25.2041 24.3202 24.6155 23.9362 24.3884Z" fill="#57BE92"/>
<path d="M62.0003 45.743H33.4119C26.2716 45.743 22.3641 37.4217 26.9245 31.9273L27.1781 31.6217C29.1872 29.2013 30.2869 26.1545 30.2869 23.0089V17.4959C30.287 7.83313 38.1201 0 47.783 0C57.4458 0 65.2789 7.83313 65.2789 17.4959V23.195C65.2789 26.3736 66.4017 29.45 68.4492 31.8814C73.0666 37.3645 69.1687 45.743 62.0003 45.743Z" fill="#C59191"/>
<path d="M77.0266 59.9117V78.8117H18.3828V60.0539C18.3828 55.807 20.9281 51.9742 24.8406 50.3273L34.3078 46.2117L37.4953 44.8258C39.9141 43.7742 41.4781 41.3883 41.4781 38.7508V37.5273H53.9297V38.6883C53.9297 41.3367 55.5094 43.732 57.9453 44.7758L70.75 50.2648C74.5656 51.9555 77.0266 55.7367 77.0266 59.9117Z" fill="white"/>
<path d="M34.3058 50.7177C37.5369 51.6831 42.2927 52.7128 48.0897 52.6114C53.5289 52.5164 57.9939 51.4587 61.1008 50.4664L62.6445 46.7903L57.9436 44.7755C55.5083 43.7316 53.9292 41.337 53.9292 38.6873V37.5273H41.4777V38.7505C41.4777 41.3877 39.9133 43.7734 37.495 44.825L33.6875 46.4805L34.3058 50.7177Z" fill="#FFCEBF"/>
<path d="M70.7489 50.2634L61.1033 46.1292L61.1016 46.1293V78.8107H77.0262V59.9112C77.0262 55.7366 74.5655 51.9546 70.7489 50.2634Z" fill="#8795DE"/>
<path d="M34.3078 46.2109V78.8109H18.3828V60.0531C18.3828 55.8062 20.9281 51.9734 24.8406 50.3266L34.3078 46.2109Z" fill="#8795DE"/>
<path d="M52.0205 44.3616C53.453 44.3616 54.818 44.0739 56.0622 43.5548C54.7275 42.3228 53.93 40.5697 53.93 38.6873V37.5273H41.4784V38.7503C41.4784 39.703 41.2733 40.6225 40.8984 41.4584C42.7839 43.2558 45.3347 44.3614 48.1452 44.3614L52.0205 44.3616Z" fill="#FFB09E"/>
<path d="M60.1477 18.7966V29.0973C60.1477 34.9005 55.4433 39.6047 49.6403 39.6047H45.7652C39.962 39.6047 35.2578 34.9003 35.2578 29.0973V18.7966C35.2578 15.0214 38.3181 11.9609 42.0934 11.9609H53.3122C57.0873 11.9611 60.1477 15.0214 60.1477 18.7966Z" fill="#FFCEBF"/>
<path d="M60.1474 24.1562C60.1427 24.1705 60.1369 24.1842 60.1327 24.1988C59.7528 25.5105 58.756 27.9883 56.3469 29.8459C55.2252 30.7111 53.9456 31.3361 52.5441 31.7039C51.9088 31.8706 51.5288 32.5208 51.6955 33.1561C51.8358 33.6903 52.3175 34.0439 52.8452 34.0439C52.945 34.0439 53.0466 34.0313 53.1478 34.0047C54.8591 33.5556 56.4241 32.7902 57.7995 31.7297C58.7494 30.9972 59.5181 30.1881 60.1405 29.3747C60.1428 29.2825 60.1475 29.1908 60.1475 29.098V24.1562H60.1474Z" fill="#7A6D79"/>
<path d="M51.2403 34.9886H48.4533C47.1847 34.9886 46.1562 33.9602 46.1562 32.6916C46.1562 31.423 47.1847 30.3945 48.4533 30.3945H51.2403C52.5089 30.3945 53.5373 31.423 53.5373 32.6916C53.5372 33.9603 52.5089 34.9886 51.2403 34.9886Z" fill="#685E68"/>
<path d="M50.1858 9.23266C50.4527 5.86703 53.6749 3.63344 56.7588 2.47656C61.8602 5.53328 65.2755 11.1147 65.2755 17.4945V18.6973C64.9935 18.7566 64.7129 18.8084 64.4354 18.8498C62.7365 19.1036 61.2897 18.9937 60.3013 18.8498C53.9321 18.0014 49.8635 13.2975 50.1858 9.23266Z" fill="#B98080"/>
<path d="M47.7809 0C51.7322 0 55.3772 1.31031 58.3061 3.51953C56.845 6.06187 53.49 11.0884 47.1989 14.8097C42.5286 17.5723 38.1248 18.5006 35.413 18.8511H30.2852V17.4958C30.285 7.83312 38.1181 0 47.7809 0Z" fill="#C59191"/>
<path d="M67.3405 78.8091H29.2696L27.1698 59.0005C27.0208 57.5955 28.1223 56.3711 29.5351 56.3711H67.0752C68.488 56.3711 69.5894 57.5955 69.4405 59.0005L67.3405 78.8091Z" fill="#EFEDEF"/>
<path d="M67.0736 56.3711H62.3164C63.7292 56.3711 64.8306 57.5955 64.6817 59.0005L62.5819 78.8092H67.3391L69.4389 59.0005C69.588 57.5955 68.4866 56.3711 67.0736 56.3711Z" fill="#E5E1E5"/>
<path d="M78.8281 80H1.17188C0.524531 80 0 79.4753 0 78.8281C0 78.1809 0.524531 77.6562 1.17188 77.6562H78.8281C79.4755 77.6562 80 78.1809 80 78.8281C80 79.4753 79.4755 80 78.8281 80Z" fill="#C9BFC8"/>
<path d="M48.3027 70.9217C50.1418 70.9217 51.6327 69.4308 51.6327 67.5917C51.6327 65.7526 50.1418 64.2617 48.3027 64.2617C46.4635 64.2617 44.9727 65.7526 44.9727 67.5917C44.9727 69.4308 46.4635 70.9217 48.3027 70.9217Z" fill="#C9BFC8"/>
<path d="M8.43922 13.7925C9.09601 13.7925 9.62844 13.2601 9.62844 12.6033C9.62844 11.9465 9.09601 11.4141 8.43922 11.4141C7.78243 11.4141 7.25 11.9465 7.25 12.6033C7.25 13.2601 7.78243 13.7925 8.43922 13.7925Z" fill="white"/>
<path d="M13.197 13.7925C13.8538 13.7925 14.3863 13.2601 14.3863 12.6033C14.3863 11.9465 13.8538 11.4141 13.197 11.4141C12.5402 11.4141 12.0078 11.9465 12.0078 12.6033C12.0078 13.2601 12.5402 13.7925 13.197 13.7925Z" fill="white"/>
<path d="M17.9548 13.7925C18.6116 13.7925 19.1441 13.2601 19.1441 12.6033C19.1441 11.9465 18.6116 11.4141 17.9548 11.4141C17.2981 11.4141 16.7656 11.9465 16.7656 12.6033C16.7656 13.2601 17.2981 13.7925 17.9548 13.7925Z" fill="white"/>
</g>
<defs>
<clipPath id="clip0_3379_9630">
<rect width="80" height="80" fill="white"/>
</clipPath>
</defs>
</svg>
