<svg width="80" height="80" viewBox="0 0 80 80" fill="none" xmlns="http://www.w3.org/2000/svg">
<g clip-path="url(#clip0_3379_9600)">
<path d="M44.265 21.2891H41.133L32.5391 25.6766L29.2213 33.242L27.8398 42.9806L30.3092 46.0192L30.2942 48.5875L33.1834 52.7758H54.3075L54.3086 52.7775C57.3408 49.3844 59.1852 44.9072 59.1852 39.9984C59.1855 30.8686 52.808 23.2287 44.265 21.2891Z" fill="#1CA8FF"/>
<path d="M29.3438 39.9988C29.3438 30.8688 35.7212 23.2289 44.2642 21.2892C42.8923 20.9778 41.4648 20.8125 39.9986 20.8125C29.4023 20.8125 20.8125 29.4025 20.8125 39.9986C20.8125 44.9069 22.6566 49.3839 25.6884 52.7769L25.6902 52.7758H34.2189C31.1873 49.3831 29.3438 44.9066 29.3438 39.9988Z" fill="#0084FD"/>
<path d="M40.0014 43.4364C43.8919 43.4364 47.0458 40.2825 47.0458 36.392C47.0458 32.5015 43.8919 29.3477 40.0014 29.3477C36.1109 29.3477 32.957 32.5015 32.957 36.392C32.957 40.2825 36.1109 43.4364 40.0014 43.4364Z" fill="#FFCEBE"/>
<path d="M42.0153 43.4336H37.9806C35.1058 43.4336 32.447 44.3986 30.308 46.0186L30.293 48.5869L34.9753 55.3744L40.4473 58.2316L44.2613 58.7069C48.2114 57.8097 51.6983 55.6937 54.3062 52.7752C52.8006 47.4036 47.8506 43.4336 42.0153 43.4336Z" fill="#BF7FE3"/>
<path d="M30.31 46.0195C28.107 47.6878 26.4555 50.0509 25.6914 52.7762C29.2048 56.708 34.3122 59.1852 40 59.1852C41.4656 59.1852 42.8922 59.0195 44.2634 58.708C37.6895 57.2145 32.3991 52.3455 30.31 46.0195Z" fill="#B166DB"/>
<path d="M4.41922 44.4166C6.85989 44.4166 8.83844 42.438 8.83844 39.9973C8.83844 37.5567 6.85989 35.5781 4.41922 35.5781C1.97855 35.5781 0 37.5567 0 39.9973C0 42.438 1.97855 44.4166 4.41922 44.4166Z" fill="#1CA8FF"/>
<path d="M15.6836 41.2073H13.633C12.9662 41.2073 12.4258 40.6669 12.4258 40.0002C12.4258 39.3334 12.9662 38.793 13.633 38.793H15.6836C16.3503 38.793 16.8908 39.3334 16.8908 40.0002C16.8908 40.6669 16.3503 41.2073 15.6836 41.2073Z" fill="#DBEDFF"/>
<path d="M75.5833 44.4166C78.024 44.4166 80.0025 42.438 80.0025 39.9973C80.0025 37.5567 78.024 35.5781 75.5833 35.5781C73.1426 35.5781 71.1641 37.5567 71.1641 39.9973C71.1641 42.438 73.1426 44.4166 75.5833 44.4166Z" fill="#B166DB"/>
<path d="M66.3711 41.2073H64.3205C63.6538 41.2073 63.1133 40.6669 63.1133 40.0002C63.1133 39.3334 63.6538 38.793 64.3205 38.793H66.3711C67.0378 38.793 67.5783 39.3334 67.5783 40.0002C67.5783 40.6669 67.038 41.2073 66.3711 41.2073Z" fill="#DBEDFF"/>
<path d="M22.2083 75.233C24.6489 75.233 26.6275 73.2544 26.6275 70.8138C26.6275 68.3731 24.6489 66.3945 22.2083 66.3945C19.7676 66.3945 17.7891 68.3731 17.7891 70.8138C17.7891 73.2544 19.7676 75.233 22.2083 75.233Z" fill="#E79380"/>
<path d="M26.8118 64.0422C26.607 64.0422 26.3995 63.99 26.2093 63.8804C25.632 63.5469 25.434 62.8086 25.7674 62.2313L26.7927 60.4554C27.126 59.8779 27.8643 59.6802 28.4418 60.0135C29.0191 60.3469 29.2171 61.0852 28.8837 61.6625L27.8584 63.4385C27.6349 63.8257 27.2291 64.0422 26.8118 64.0422Z" fill="#DBEDFF"/>
<path d="M57.7903 13.6041C60.231 13.6041 62.2095 11.6255 62.2095 9.18484C62.2095 6.74418 60.231 4.76562 57.7903 4.76562C55.3496 4.76562 53.3711 6.74418 53.3711 9.18484C53.3711 11.6255 55.3496 13.6041 57.7903 13.6041Z" fill="#FF72C7"/>
<path d="M52.1595 20.1438C51.9546 20.1438 51.7471 20.0916 51.557 19.9819C50.9796 19.6486 50.7816 18.9104 51.1151 18.3329L52.1404 16.5569C52.4735 15.9794 53.2118 15.7818 53.7895 16.115C54.3668 16.4483 54.5648 17.1866 54.2313 17.7641L53.206 19.54C52.9826 19.9274 52.5766 20.1438 52.1595 20.1438Z" fill="#DBEDFF"/>
<path d="M57.7903 75.233C60.231 75.233 62.2095 73.2544 62.2095 70.8138C62.2095 68.3731 60.231 66.3945 57.7903 66.3945C55.3496 66.3945 53.3711 68.3731 53.3711 70.8138C53.3711 73.2544 55.3496 75.233 57.7903 75.233Z" fill="#98D829"/>
<path d="M53.187 64.0422C52.7698 64.0422 52.364 63.8258 52.1404 63.4384L51.1151 61.6625C50.7816 61.085 50.9796 60.3465 51.557 60.0134C52.1343 59.6803 52.8727 59.8778 53.206 60.4553L54.2313 62.2312C54.5648 62.8087 54.3668 63.5472 53.7895 63.8803C53.5995 63.99 53.3918 64.0422 53.187 64.0422Z" fill="#DBEDFF"/>
<path d="M22.2083 13.6041C24.6489 13.6041 26.6275 11.6255 26.6275 9.18484C26.6275 6.74418 24.6489 4.76562 22.2083 4.76562C19.7676 4.76562 17.7891 6.74418 17.7891 9.18484C17.7891 11.6255 19.7676 13.6041 22.2083 13.6041Z" fill="#FFE02F"/>
<path d="M27.8395 20.1436C27.4221 20.1436 27.0165 19.9272 26.7928 19.5399L25.7675 17.7641C25.434 17.1867 25.6318 16.4483 26.2093 16.115C26.7868 15.7817 27.5251 15.9795 27.8586 16.5569L28.8839 18.3327C29.2173 18.91 29.0195 19.6485 28.442 19.9817C28.252 20.0914 28.0443 20.1436 27.8395 20.1436Z" fill="#DBEDFF"/>
</g>
<defs>
<clipPath id="clip0_3379_9600">
<rect width="80" height="80" fill="white"/>
</clipPath>
</defs>
</svg>
