<svg width="80" height="80" viewBox="0 0 80 80" fill="none" xmlns="http://www.w3.org/2000/svg">
<path d="M58.4125 72.3H78.0125C79.1125 72.3 79.9875 71.4125 79.9875 70.325V23.0625H0V70.325C0 71.425 0.8875 72.3 1.975 72.3H20.9625H58.4125Z" fill="#DFDFDF"/>
<path d="M0 9.68607V23.0611H80V9.68607C80 8.58607 79.1125 7.71107 78.025 7.71107H1.975C0.8875 7.69857 0 8.58607 0 9.68607Z" fill="#178BFF"/>
<path d="M69.4766 16.4875C69.4766 18.15 70.8266 19.4875 72.4766 19.4875C74.1266 19.4875 75.4641 18.15 75.4641 16.4875C75.4641 14.8375 74.1266 13.5 72.4766 13.5C70.8266 13.5125 69.4766 14.85 69.4766 16.4875Z" fill="white"/>
<path d="M58.0625 16.4875C58.0625 18.15 59.4 19.4875 61.0375 19.4875C62.6875 19.4875 64.0375 18.15 64.0375 16.4875C64.0375 14.8375 62.6875 13.5 61.0375 13.5C59.4 13.5125 58.0625 14.85 58.0625 16.4875Z" fill="white"/>
<path d="M46.6367 16.4875C46.6367 18.15 47.9742 19.4875 49.6242 19.4875C51.2867 19.4875 52.6242 18.15 52.6242 16.4875C52.6242 14.8375 51.2867 13.5 49.6242 13.5C47.9742 13.5125 46.6367 14.85 46.6367 16.4875Z" fill="white"/>
<path d="M6.67605 18.6609H40.2511C40.7761 18.6609 41.1886 18.2359 41.1886 17.7234V15.2734C41.1886 14.7484 40.7635 14.3359 40.2511 14.3359H6.67605C6.15105 14.3359 5.73855 14.7609 5.73855 15.2734V17.7234C5.72605 18.2484 6.15105 18.6609 6.67605 18.6609Z" fill="white"/>
<path d="M53.1852 32.4766C51.3477 32.4766 49.8477 33.9641 49.8477 35.8141C49.8477 36.3266 49.9602 36.8141 50.1727 37.2391C50.4602 37.8391 50.9227 38.3391 51.4852 38.6766C51.9852 38.9766 52.5602 39.1391 53.1852 39.1391C55.0227 39.1391 56.5227 37.6516 56.5227 35.8016C56.5227 33.9641 55.0227 32.4766 53.1852 32.4766ZM53.1852 37.6016C52.1852 37.6016 51.3852 36.7891 51.3852 35.8016C51.3852 34.8016 52.1977 34.0016 53.1852 34.0016C54.1852 34.0016 54.9977 34.8141 54.9977 35.8016C54.9852 36.8016 54.1852 37.6016 53.1852 37.6016Z" fill="#1889FB"/>
<path d="M54.9836 35.8C54.9836 36.8 54.1711 37.6 53.1711 37.6C52.1711 37.6 51.3711 36.7875 51.3711 35.8C51.3711 34.8 52.1836 34 53.1711 34C54.1836 34 54.9836 34.8125 54.9836 35.8Z" fill="#1E88E0"/>
<path d="M19.7617 62.1133H60.2367V64.1008H19.7617V62.1133Z" fill="#494A5A"/>
<path d="M29.8883 53.1242V62.1117H23.8633V53.1242C23.8633 52.5492 24.3383 52.0742 24.9133 52.0742H28.8383C29.4133 52.0742 29.8883 52.5367 29.8883 53.1242Z" fill="#00CB6E"/>
<path d="M38.5758 42.3742V62.1117H32.5508V42.3742C32.5508 41.7992 33.0258 41.3242 33.6008 41.3242H37.5258C38.1133 41.3242 38.5758 41.7992 38.5758 42.3742Z" fill="#EDC750"/>
<path d="M47.5602 49.5383V62.1133H41.5352V49.5383C41.5352 48.9633 42.0102 48.4883 42.5852 48.4883H46.5102C47.0852 48.4883 47.5602 48.9633 47.5602 49.5383Z" fill="#F95353"/>
<path d="M56.2008 43.5383V62.1133H50.1758V43.5383C50.1758 42.9633 50.6508 42.4883 51.2258 42.4883H55.1508C55.7258 42.4883 56.2008 42.9633 56.2008 43.5383Z" fill="#1889FB"/>
<path d="M29.6234 43.7234C29.2859 43.2359 28.8109 42.8359 28.2609 42.5859C27.8359 42.3859 27.3609 42.2734 26.8609 42.2734C25.0234 42.2734 23.5234 43.7609 23.5234 45.6109C23.5234 47.4484 25.0109 48.9484 26.8609 48.9484C28.6984 48.9484 30.1984 47.4609 30.1984 45.6109C30.1984 44.9109 29.9859 44.2484 29.6234 43.7234ZM26.8734 47.4109C25.8734 47.4109 25.0734 46.5984 25.0734 45.5984C25.0734 44.5984 25.8859 43.7984 26.8734 43.7984C27.8609 43.7984 28.6734 44.6109 28.6734 45.5984C28.6734 46.5984 27.8609 47.4109 26.8734 47.4109Z" fill="#00CB6E"/>
<path d="M28.6742 45.6125C28.6742 46.6125 27.8617 47.425 26.8742 47.425C25.8867 47.425 25.0742 46.6125 25.0742 45.6125C25.0742 44.6125 25.8867 43.8125 26.8742 43.8125C27.8617 43.8125 28.6742 44.6125 28.6742 45.6125Z" fill="#06C168"/>
<path d="M35.5602 31.25C33.7227 31.25 32.2227 32.7375 32.2227 34.5875C32.2227 35.35 32.4727 36.05 32.9102 36.6125C33.2602 37.075 33.7227 37.4375 34.2727 37.6625C34.6727 37.8375 35.0977 37.925 35.5602 37.925C36.2227 37.925 36.8477 37.725 37.3602 37.4C37.8852 37.0625 38.3102 36.5875 38.5727 36.025C38.7852 35.5875 38.8977 35.1 38.8977 34.6C38.8977 32.75 37.4102 31.25 35.5602 31.25ZM35.5602 36.3875C34.5602 36.3875 33.7602 35.575 33.7602 34.5875C33.7602 33.5875 34.5727 32.7875 35.5602 32.7875C36.5602 32.7875 37.3602 33.6 37.3602 34.5875C37.3602 35.5875 36.5602 36.3875 35.5602 36.3875Z" fill="#EDC750"/>
<path d="M37.3617 34.5891C37.3617 35.5891 36.5492 36.3891 35.5617 36.3891C34.5617 36.3891 33.7617 35.5766 33.7617 34.5891C33.7617 33.5891 34.5742 32.7891 35.5617 32.7891C36.5617 32.7891 37.3617 33.6016 37.3617 34.5891Z" fill="#DBB54B"/>
<path d="M47.6984 41.6008C47.4984 41.0133 47.1234 40.5008 46.6609 40.1133C46.0859 39.6383 45.3484 39.3633 44.5484 39.3633C43.8109 39.3633 43.1359 39.6008 42.5734 40.0133C42.1109 40.3508 41.7359 40.8133 41.5109 41.3383C41.3109 41.7508 41.2109 42.2133 41.2109 42.7008C41.2109 44.5383 42.7109 46.0383 44.5484 46.0383C46.3859 46.0383 47.8859 44.5508 47.8859 42.7008C47.8734 42.3133 47.8109 41.9383 47.6984 41.6008ZM44.5484 44.4883C43.5484 44.4883 42.7484 43.6758 42.7484 42.6883C42.7484 41.6883 43.5609 40.8883 44.5484 40.8883C45.5484 40.8883 46.3609 41.7008 46.3609 42.6883C46.3484 43.6883 45.5484 44.4883 44.5484 44.4883Z" fill="#F95353"/>
<path d="M46.3508 42.6867C46.3508 43.6867 45.5383 44.4867 44.5383 44.4867C43.5383 44.4867 42.7383 43.6742 42.7383 42.6867C42.7383 41.6867 43.5508 40.8867 44.5383 40.8867C45.5508 40.8867 46.3508 41.6992 46.3508 42.6867Z" fill="#F24E4E"/>
<path d="M54.9875 35.8C54.9875 36.8 54.175 37.6 53.175 37.6C52.175 37.6 51.375 36.7875 51.375 35.8C51.375 34.8 52.1875 34 53.175 34C54.1875 34 54.9875 34.8125 54.9875 35.8Z" fill="#1485E2"/>
<path d="M34.2742 37.6633L29.6242 43.7258C29.2867 43.2383 28.8117 42.8383 28.2617 42.5883L32.9117 36.6133C33.2617 37.0758 33.7367 37.4383 34.2742 37.6633Z" fill="#494A5A"/>
<path d="M42.575 39.9984C42.1125 40.3359 41.7375 40.7984 41.5125 41.3234L37.375 37.3984C37.9 37.0609 38.325 36.5859 38.5875 36.0234L42.575 39.9984Z" fill="#494A5A"/>
<path d="M51.4891 38.6719L47.7016 41.5969C47.5016 41.0094 47.1266 40.4969 46.6641 40.1094L50.1891 37.2344C50.4641 37.8344 50.9266 38.3344 51.4891 38.6719Z" fill="#494A5A"/>
</svg>
