<svg width="80" height="80" viewBox="0 0 80 80" fill="none" xmlns="http://www.w3.org/2000/svg">
<g clip-path="url(#clip0_3379_9779)">
<path d="M60.0006 75.0002H55.0005C55.0005 72.2387 52.7619 70.0001 50.0005 70.0001V63.4375H30.0002V70.0001C27.2388 70.0001 25.0001 72.2387 25.0001 75.0002H20.0001C17.2386 75.0002 15 77.2388 15 80.0002H20.0001H25.0001H55.0004H60.0005H65.0005C65.0007 77.2386 62.7621 75.0002 60.0006 75.0002Z" fill="#C5DDEF"/>
<path d="M35 65L39.0219 73.0377C39.425 73.8434 40.575 73.8434 40.9781 73.0377L45 65L43.7109 63.4375H36.4453L35 65Z" fill="#FFB850"/>
<path d="M41.5625 71.8703L40.9781 73.0375C40.575 73.8438 39.425 73.8438 39.0219 73.0375L35 65L36.4453 63.4375H39.5703L38.125 65L41.5625 71.8703Z" fill="#F5A30F"/>
<path d="M29.4578 60L26.6234 63.1783C25.9946 63.8834 26.4951 65.0001 27.4396 65.0001H52.5579C53.5025 65.0001 54.003 63.8834 53.3742 63.1783L50.5398 60L48.7879 58.4375H31.218L29.4578 60Z" fill="#F07281"/>
<path d="M34.2874 60L29.8271 64.9997H27.4396C26.4949 64.9997 25.9946 63.8827 26.6235 63.1778L29.4585 60H34.2874Z" fill="#EB5569"/>
<path d="M60.2687 59.2097L51.8516 55.001V35.1719L60.4076 43.5817C61.3314 44.4895 61.8515 45.7305 61.8515 47.0256V58.2313C61.8517 59.0444 60.9959 59.5733 60.2687 59.2097Z" fill="#F07281"/>
<path d="M19.7313 59.2097L28.1484 55.001V35.1719L19.5924 43.5817C18.6686 44.4895 18.1484 45.7305 18.1484 47.0256V58.2313C18.1483 59.0444 19.0039 59.5733 19.7313 59.2097Z" fill="#F07281"/>
<path d="M55.0015 35.4559C55.0015 40.4378 54.3706 45.3876 53.131 50.1138L51.8513 55.0007L50.4436 55.9637L49.6363 58.7762L30.4766 58.8084L29.3235 56.1199L28.1502 55.0007L26.8705 50.1138C26.2508 47.7508 25.7839 45.3313 25.47 42.8815C25.1577 40.4299 25 37.9461 25 35.4561C25 27.3094 26.6853 19.3866 29.8098 12.4376C31.4018 8.8996 33.3656 7.17504 35.6706 4.24219H44.3307C46.6358 7.17504 48.5997 8.89944 50.1916 12.4376C50.9579 14.1423 51.6386 15.9066 52.2279 17.7174C54.0421 23.2884 55.0015 29.3086 55.0015 35.4559Z" fill="#EAF6FF"/>
<path d="M50.1901 12.4366H29.8086C31.4008 8.89908 33.3649 5.61153 35.6696 2.67868L36.2009 2.00211C37.8806 -0.136984 40.3994 -0.56199 42.4135 0.727091C42.9135 1.04585 43.3807 1.47241 43.7978 2.00211L44.3291 2.67868C46.6338 5.61153 48.5979 8.89908 50.1901 12.4366Z" fill="#F07281"/>
<path d="M29.8098 12.4375C26.6853 19.3865 25 27.3094 25 35.4561C25 37.9463 25.1578 40.4301 25.47 42.8815C25.7839 45.3314 26.2508 47.7508 26.8705 50.1138L28.1502 55.0007L29.4605 60.0005H34.2897L32.9793 55.0007L31.6996 50.1138C31.0799 47.7508 30.613 45.3314 30.2991 42.8815C29.9869 40.4299 29.8291 37.9461 29.8291 35.4561C29.8291 27.3094 31.5145 19.3865 34.6389 12.4375H29.8098Z" fill="#D8ECFE"/>
<path d="M42.4135 0.727091V0.728653C41.915 1.04741 41.4463 1.47241 41.0291 2.00211L40.4978 2.67868C38.1931 5.61153 36.229 8.89908 34.6368 12.4366H29.8086C31.4008 8.89908 33.3649 5.61153 35.6696 2.67868L36.2009 2.00211C37.8806 -0.136984 40.3994 -0.56199 42.4135 0.727091Z" fill="#EB5569"/>
<path d="M51.8495 55L50.5409 59.9998H29.4588L28.1484 55H51.8495Z" fill="#88B4F5"/>
<path d="M34.2878 59.9997H29.4587L28.1484 55H32.9775L34.2878 59.9997Z" fill="#6EA2F2"/>
<path d="M40 45C45.5228 45 50 40.5228 50 35C50 29.4771 45.5228 25 40 25C34.4771 25 30 29.4771 30 35C30 40.5228 34.4771 45 40 45Z" fill="#F07281"/>
<path d="M41.6091 44.8698C41.0859 44.9551 40.5467 45.0003 39.9994 45.0003C34.4846 45.0003 30 40.5141 30 35.0009C30 29.4862 34.4846 25 39.9994 25C40.5467 25 41.0859 25.045 41.6091 25.1303C36.8573 25.9014 33.2194 30.0335 33.2194 35.0009C33.2193 39.9666 36.8571 44.0987 41.6091 44.8698Z" fill="#EB5569"/>
<path d="M40.0016 39.9914C42.7595 39.9914 44.9953 37.7556 44.9953 34.9977C44.9953 32.2397 42.7595 30.0039 40.0016 30.0039C37.2436 30.0039 35.0078 32.2397 35.0078 34.9977C35.0078 37.7556 37.2436 39.9914 40.0016 39.9914Z" fill="#88B4F5"/>
<path d="M41.6106 39.7263C41.1052 39.8984 40.5644 39.9919 40.0009 39.9919C37.2469 39.9919 35.0078 37.7512 35.0078 34.9987C35.0078 32.2447 37.2469 30.0039 40.0009 30.0039C40.5644 30.0039 41.1052 30.0973 41.6106 30.2695C39.6436 30.9408 38.227 32.808 38.227 34.9987C38.227 37.1878 39.6436 39.0552 41.6106 39.7263Z" fill="#6EA2F2"/>
</g>
<defs>
<clipPath id="clip0_3379_9779">
<rect width="80" height="80" fill="white"/>
</clipPath>
</defs>
</svg>
