<svg width="80" height="80" viewBox="0 0 80 80" fill="none" xmlns="http://www.w3.org/2000/svg">
<path d="M51.6268 6.42188H6.80182C4.72155 6.42188 3.03516 8.10827 3.03516 10.1885V75.4052C3.03516 77.4855 4.72155 79.1719 6.80182 79.1719H51.6268C53.7071 79.1719 55.3935 77.4855 55.3935 75.4052V10.1885C55.3935 8.10827 53.7071 6.42188 51.6268 6.42188Z" fill="#B3C4F3"/>
<path d="M61.0185 15.8902V70.0985C61.0185 71.1152 60.6146 72.0902 59.8957 72.8091C59.1768 73.528 58.2018 73.9318 57.1852 73.9318H12.5018C11.4844 73.9318 10.5085 73.5282 9.7883 72.8096C9.06808 72.0909 8.66236 71.1159 8.66016 70.0985V4.67352C8.66016 3.65464 9.0649 2.6775 9.78535 1.95705C10.5058 1.23659 11.4829 0.831849 12.5018 0.831849C48.9852 0.831849 46.5268 0.690182 47.5685 1.17352C48.6102 1.65685 47.9768 1.24018 59.9018 13.1735C60.2597 13.529 60.5428 13.9525 60.7346 14.4191C60.9263 14.8856 61.0229 15.3858 61.0185 15.8902Z" fill="#D2DDF2"/>
<path d="M12.8203 69.7661V5.00781H45.837L56.8536 16.0328V69.7661H12.8203Z" fill="#E6ECF2"/>
<path d="M47.868 17.3086H19.8346C18.2238 17.3086 16.918 18.6144 16.918 20.2253V44.7669C16.918 46.3778 18.2238 47.6836 19.8346 47.6836H47.868C49.4788 47.6836 50.7846 46.3778 50.7846 44.7669V20.2253C50.7846 18.6144 49.4788 17.3086 47.868 17.3086Z" fill="white"/>
<path d="M47.868 53.7891H19.8346C18.2238 53.7891 16.918 55.0949 16.918 56.7057V59.0807C16.918 60.6916 18.2238 61.9974 19.8346 61.9974H47.868C49.4788 61.9974 50.7846 60.6916 50.7846 59.0807V56.7057C50.7846 55.0949 49.4788 53.7891 47.868 53.7891Z" fill="white"/>
<path d="M61.0197 15.8888C61.0197 16.0055 62.1947 15.9638 45.8947 15.9638C45.8947 -0.32788 45.8364 0.830453 45.978 0.830453C46.4795 0.829224 46.9763 0.927261 47.4397 1.11891C47.9031 1.31057 48.3239 1.59204 48.678 1.94712C60.778 14.0638 60.2614 13.3971 60.678 14.2888C60.9052 14.7915 61.0218 15.3371 61.0197 15.8888Z" fill="#D2DDF2"/>
<path d="M47.5586 1.18359V14.3003H60.6753C60.2669 13.4169 60.7753 14.0586 48.6753 1.95859C48.35 1.63845 47.9723 1.37633 47.5586 1.18359Z" fill="#B3C4F3"/>
<path d="M51.3701 26.9753H24.3451C24.124 26.9753 23.9121 26.8875 23.7558 26.7312C23.5995 26.5749 23.5117 26.3629 23.5117 26.1419C23.5117 25.9209 23.5995 25.709 23.7558 25.5527C23.9121 25.3964 24.124 25.3086 24.3451 25.3086H51.3701C51.5911 25.3086 51.803 25.3964 51.9593 25.5527C52.1156 25.709 52.2034 25.9209 52.2034 26.1419C52.2034 26.3629 52.1156 26.5749 51.9593 26.7312C51.803 26.8875 51.5911 26.9753 51.3701 26.9753Z" fill="#3C3264"/>
<path d="M51.3701 32.9909H24.3451C24.124 32.9909 23.9121 32.9031 23.7558 32.7468C23.5995 32.5905 23.5117 32.3786 23.5117 32.1576C23.5117 31.9365 23.5995 31.7246 23.7558 31.5683C23.9121 31.412 24.124 31.3242 24.3451 31.3242H51.3701C51.5911 31.3242 51.803 31.412 51.9593 31.5683C52.1156 31.7246 52.2034 31.9365 52.2034 32.1576C52.2034 32.3786 52.1156 32.5905 51.9593 32.7468C51.803 32.9031 51.5911 32.9909 51.3701 32.9909Z" fill="#3C3264"/>
<path d="M39.7284 38.9987H24.3451C24.124 38.9987 23.9121 38.9109 23.7558 38.7546C23.5995 38.5983 23.5117 38.3864 23.5117 38.1654C23.5117 37.9444 23.5995 37.7324 23.7558 37.5761C23.9121 37.4198 24.124 37.332 24.3451 37.332H39.7284C39.9494 37.332 40.1614 37.4198 40.3176 37.5761C40.4739 37.7324 40.5617 37.9444 40.5617 38.1654C40.5617 38.3864 40.4739 38.5983 40.3176 38.7546C40.1614 38.9109 39.9494 38.9987 39.7284 38.9987Z" fill="#3C3264"/>
<path d="M51.3701 44.9987H24.3451C24.124 44.9987 23.9121 44.9109 23.7558 44.7546C23.5995 44.5983 23.5117 44.3864 23.5117 44.1654C23.5117 43.9444 23.5995 43.7324 23.7558 43.5761C23.9121 43.4198 24.124 43.332 24.3451 43.332H51.3701C51.5911 43.332 51.803 43.4198 51.9593 43.5761C52.1156 43.7324 52.2034 43.9444 52.2034 44.1654C52.2034 44.3864 52.1156 44.5983 51.9593 44.7546C51.803 44.9109 51.5911 44.9987 51.3701 44.9987Z" fill="#3C3264"/>
<path d="M51.3701 57.0417H24.3451C24.124 57.0417 23.9121 56.9539 23.7558 56.7976C23.5995 56.6413 23.5117 56.4293 23.5117 56.2083C23.5117 55.9873 23.5995 55.7754 23.7558 55.6191C23.9121 55.4628 24.124 55.375 24.3451 55.375H51.3701C51.5911 55.375 51.803 55.4628 51.9593 55.6191C52.1156 55.7754 52.2034 55.9873 52.2034 56.2083C52.2034 56.4293 52.1156 56.6413 51.9593 56.7976C51.803 56.9539 51.5911 57.0417 51.3701 57.0417Z" fill="#3C3264"/>
<path d="M34.0867 63.0495H24.3451C24.124 63.0495 23.9121 62.9617 23.7558 62.8054C23.5995 62.6491 23.5117 62.4372 23.5117 62.2161C23.5117 61.9951 23.5995 61.7832 23.7558 61.6269C23.9121 61.4706 24.124 61.3828 24.3451 61.3828H34.0867C34.3077 61.3828 34.5197 61.4706 34.676 61.6269C34.8323 61.7832 34.9201 61.9951 34.9201 62.2161C34.9201 62.4372 34.8323 62.6491 34.676 62.8054C34.5197 62.9617 34.3077 63.0495 34.0867 63.0495Z" fill="#3C3264"/>
<path d="M32.3117 51.0221H24.3451C24.124 51.0221 23.9121 50.9343 23.7558 50.7781C23.5995 50.6218 23.5117 50.4098 23.5117 50.1888C23.5117 49.9678 23.5995 49.7558 23.7558 49.5995C23.9121 49.4433 24.124 49.3555 24.3451 49.3555H32.3117C32.5327 49.3555 32.7447 49.4433 32.901 49.5995C33.0573 49.7558 33.1451 49.9678 33.1451 50.1888C33.1451 50.4098 33.0573 50.6218 32.901 50.7781C32.7447 50.9343 32.5327 51.0221 32.3117 51.0221Z" fill="#3C3264"/>
<path d="M19.7701 28.9904H16.8367C16.321 28.9904 15.8263 28.7861 15.4608 28.4222C15.0953 28.0583 14.8889 27.5644 14.8867 27.0487V25.2404C14.8955 24.7298 15.1051 24.2432 15.47 23.886C15.835 23.5288 16.326 23.3298 16.8367 23.3321H19.7701C20.285 23.3321 20.7789 23.5366 21.143 23.9008C21.5072 24.2649 21.7117 24.7588 21.7117 25.2737V27.0821C21.703 27.5912 21.4946 28.0766 21.1314 28.4335C20.7682 28.7905 20.2793 28.9905 19.7701 28.9904ZM16.8367 24.9987C16.763 24.9987 16.6922 25.0274 16.6393 25.0787C16.5864 25.1301 16.5556 25.2 16.5534 25.2737V27.0821C16.5556 27.1557 16.5864 27.2257 16.6393 27.277C16.6922 27.3284 16.763 27.3571 16.8367 27.3571H19.7701C19.843 27.3571 19.9129 27.3281 19.9645 27.2765C20.0161 27.2249 20.0451 27.155 20.0451 27.0821V25.2404C20.0451 25.1675 20.0161 25.0975 19.9645 25.0459C19.9129 24.9944 19.843 24.9654 19.7701 24.9654L16.8367 24.9987Z" fill="#3C3264"/>
<path d="M19.7701 41.0164H16.8367C16.321 41.0164 15.8263 40.8121 15.4608 40.4482C15.0953 40.0843 14.8889 39.5905 14.8867 39.0747V37.2664C14.8867 36.7492 15.0922 36.2532 15.4579 35.8875C15.8236 35.5219 16.3195 35.3164 16.8367 35.3164H19.7701C20.0257 35.3164 20.2789 35.3669 20.515 35.465C20.7511 35.5631 20.9656 35.7069 21.146 35.888C21.3264 36.0692 21.4692 36.2843 21.5663 36.5208C21.6634 36.7573 21.7128 37.0107 21.7117 37.2664V39.0747C21.7117 39.5897 21.5072 40.0836 21.143 40.4477C20.7789 40.8118 20.285 41.0164 19.7701 41.0164ZM16.8367 36.9831C16.7616 36.9831 16.6895 37.0129 16.6364 37.0661C16.5832 37.1192 16.5534 37.1913 16.5534 37.2664V39.0747C16.5556 39.1484 16.5864 39.2184 16.6393 39.2697C16.6922 39.3211 16.763 39.3498 16.8367 39.3497H19.7701C19.843 39.3497 19.9129 39.3208 19.9645 39.2692C20.0161 39.2176 20.0451 39.1477 20.0451 39.0747V37.2664C20.0462 37.2296 20.0399 37.1929 20.0266 37.1586C20.0132 37.1243 19.9932 37.093 19.9675 37.0665C19.9419 37.0401 19.9112 37.0191 19.8773 37.0048C19.8433 36.9904 19.8069 36.9831 19.7701 36.9831H16.8367Z" fill="#3C3264"/>
<path d="M19.7701 53.0398H16.8367C16.3195 53.0398 15.8236 52.8344 15.4579 52.4687C15.0922 52.103 14.8867 51.607 14.8867 51.0898V49.2898C14.8867 48.7727 15.0922 48.2767 15.4579 47.911C15.8236 47.5453 16.3195 47.3398 16.8367 47.3398H19.7701C20.0257 47.3398 20.2789 47.3903 20.515 47.4884C20.7511 47.5865 20.9656 47.7303 21.146 47.9115C21.3264 48.0927 21.4692 48.3077 21.5663 48.5442C21.6634 48.7808 21.7128 49.0342 21.7117 49.2898V51.0898C21.7128 51.3455 21.6634 51.5989 21.5663 51.8354C21.4692 52.072 21.3264 52.287 21.146 52.4682C20.9656 52.6494 20.7511 52.7932 20.515 52.8912C20.2789 52.9893 20.0257 53.0398 19.7701 53.0398ZM16.8367 49.0065C16.7616 49.0065 16.6895 49.0364 16.6364 49.0895C16.5832 49.1426 16.5534 49.2147 16.5534 49.2898V51.0898C16.5534 51.165 16.5832 51.2371 16.6364 51.2902C16.6895 51.3433 16.7616 51.3732 16.8367 51.3732H19.7701C19.8069 51.3732 19.8433 51.3658 19.8773 51.3515C19.9112 51.3371 19.9419 51.3161 19.9675 51.2897C19.9932 51.2633 20.0132 51.232 20.0266 51.1976C20.0399 51.1633 20.0462 51.1267 20.0451 51.0898V49.2898C20.0462 49.253 20.0399 49.2164 20.0266 49.182C20.0132 49.1477 19.9932 49.1164 19.9675 49.09C19.9419 49.0636 19.9112 49.0425 19.8773 49.0282C19.8433 49.0139 19.8069 49.0065 19.7701 49.0065H16.8367Z" fill="#3C3264"/>
<path d="M19.7701 65.0672H16.8367C16.3195 65.0672 15.8236 64.8617 15.4579 64.496C15.0922 64.1304 14.8867 63.6344 14.8867 63.1172V61.3172C14.8867 60.8 15.0922 60.304 15.4579 59.9383C15.8236 59.5726 16.3195 59.3672 16.8367 59.3672H19.7701C20.0257 59.3672 20.2789 59.4177 20.515 59.5158C20.7511 59.6139 20.9656 59.7576 21.146 59.9388C21.3264 60.12 21.4692 60.3351 21.5663 60.5716C21.6634 60.8081 21.7128 61.0615 21.7117 61.3172V63.1172C21.7128 63.3729 21.6634 63.6263 21.5663 63.8628C21.4692 64.0993 21.3264 64.3144 21.146 64.4955C20.9656 64.6767 20.7511 64.8205 20.515 64.9186C20.2789 65.0167 20.0257 65.0672 19.7701 65.0672ZM16.8367 61.0339C16.7616 61.0339 16.6895 61.0637 16.6364 61.1168C16.5832 61.17 16.5534 61.242 16.5534 61.3172V63.1172C16.5534 63.1544 16.5607 63.1912 16.575 63.2256C16.5892 63.26 16.6101 63.2912 16.6364 63.3175C16.6627 63.3438 16.6939 63.3647 16.7283 63.379C16.7627 63.3932 16.7995 63.4005 16.8367 63.4005H19.7701C19.8069 63.4005 19.8433 63.3932 19.8773 63.3788C19.9112 63.3645 19.9419 63.3435 19.9675 63.3171C19.9932 63.2906 20.0132 63.2593 20.0266 63.225C20.0399 63.1907 20.0462 63.154 20.0451 63.1172V61.3172C20.0462 61.2804 20.0399 61.2437 20.0266 61.2094C20.0132 61.1751 19.9932 61.1438 19.9675 61.1173C19.9419 61.0909 19.9112 61.0699 19.8773 61.0556C19.8433 61.0412 19.8069 61.0338 19.7701 61.0339H16.8367Z" fill="#3C3264"/>
<path d="M76.5515 73.1558L73.0765 76.6641C72.9403 76.8004 72.7786 76.9086 72.6006 76.9823C72.4226 77.0561 72.2317 77.0941 72.039 77.0941C71.8463 77.0941 71.6555 77.0561 71.4775 76.9823C71.2995 76.9086 71.1377 76.8004 71.0015 76.6641C62.8015 68.4724 63.9765 69.6308 61.5265 67.1808C61.3895 67.0458 61.2806 66.885 61.2063 66.7076C61.132 66.5302 61.0938 66.3398 61.0938 66.1474C61.0938 65.9551 61.132 65.7647 61.2063 65.5873C61.2806 65.4099 61.3895 65.249 61.5265 65.1141L65.0015 61.6058C65.1377 61.4695 65.2995 61.3613 65.4775 61.2875C65.6555 61.2138 65.8463 61.1758 66.039 61.1758C66.2317 61.1758 66.4226 61.2138 66.6006 61.2875C66.7786 61.3613 66.9403 61.4695 67.0765 61.6058L76.5515 71.0808C76.8248 71.3569 76.9781 71.7298 76.9781 72.1183C76.9781 72.5068 76.8248 72.8796 76.5515 73.1558Z" fill="#FE4A55"/>
<path d="M65.1448 61.4807L61.4031 65.2307L56.9531 60.7807C58.4044 59.753 59.6721 58.488 60.7031 57.0391L65.1448 61.4807Z" fill="#F0824B"/>
<path d="M47.6703 58.3484C53.5245 58.3484 58.2703 53.6027 58.2703 47.7484C58.2703 41.8942 53.5245 37.1484 47.6703 37.1484C41.8161 37.1484 37.0703 41.8942 37.0703 47.7484C37.0703 53.6027 41.8161 58.3484 47.6703 58.3484Z" fill="#E9ECEF"/>
<path d="M47.6703 55.8328C46.0683 55.8328 44.5022 55.3578 43.1702 54.4677C41.8382 53.5777 40.8 52.3126 40.1869 50.8326C39.5738 49.3525 39.4134 47.7238 39.726 46.1526C40.0385 44.5813 40.8099 43.1381 41.9428 42.0052C43.0756 40.8724 44.5188 40.101 46.0901 39.7885C47.6613 39.4759 49.29 39.6363 50.7701 40.2494C52.2501 40.8625 53.5152 41.9007 54.4052 43.2327C55.2953 44.5647 55.7703 46.1308 55.7703 47.7328C55.7703 49.8811 54.9169 51.9413 53.3979 53.4604C51.8788 54.9794 49.8186 55.8328 47.6703 55.8328Z" fill="white"/>
<path d="M58.9832 36.43C56.7447 34.1903 53.8923 32.6648 50.7868 32.0465C47.6813 31.4281 44.4621 31.7447 41.5365 32.9561C38.6108 34.1674 36.1102 36.2193 34.3508 38.852C32.5914 41.4847 31.6523 44.5801 31.6523 47.7466C31.6523 50.9131 32.5914 54.0085 34.3508 56.6412C36.1102 59.274 38.6108 61.3258 41.5365 62.5372C44.4621 63.7486 47.6813 64.0651 50.7868 63.4468C53.8923 62.8284 56.7447 61.3029 58.9832 59.0633C61.9836 56.0614 63.669 51.9909 63.669 47.7466C63.669 43.5024 61.9836 39.4319 58.9832 36.43ZM55.1582 55.2383C53.6753 56.7194 51.7865 57.7276 49.7306 58.1356C47.6748 58.5435 45.5442 58.3328 43.6081 57.5301C41.6719 56.7275 40.0172 55.3688 38.8531 53.626C37.6889 51.8831 37.0676 49.8342 37.0676 47.7383C37.0676 45.6424 37.6889 43.5935 38.8531 41.8506C40.0172 40.1077 41.6719 38.7491 43.6081 37.9464C45.5442 37.1438 47.6748 36.9331 49.7306 37.341C51.7865 37.7489 53.6753 38.7572 55.1582 40.2383C56.1439 41.2228 56.9259 42.3919 57.4594 43.6788C57.9929 44.9657 58.2675 46.3452 58.2675 47.7383C58.2675 49.1314 57.9929 50.5109 57.4594 51.7978C56.9259 53.0847 56.1439 54.2538 55.1582 55.2383Z" fill="#FFCA6E"/>
<path d="M44.2449 35.9485C44.2459 35.4869 44.1286 35.0327 43.9042 34.6293C43.6797 34.2259 43.3555 33.8868 42.9627 33.6444C42.5698 33.402 42.1213 33.2643 41.6601 33.2446C41.1989 33.2249 40.7403 33.3238 40.3282 33.5319C36.8466 35.3232 34.1469 38.3344 32.7449 41.9902C32.589 42.398 32.5341 42.8373 32.5847 43.2709C32.6353 43.7045 32.7899 44.1194 33.0354 44.4804C33.281 44.8413 33.6101 45.1375 33.9948 45.3438C34.3795 45.5501 34.8084 45.6604 35.2449 45.6652C35.7805 45.6697 36.3052 45.5132 36.751 45.216C37.1967 44.9189 37.5429 44.4947 37.7449 43.9985C38.6644 41.5753 40.4444 39.5758 42.7449 38.3819C43.1975 38.1573 43.5781 37.8101 43.8433 37.38C44.1085 36.9498 44.2476 36.4539 44.2449 35.9485Z" fill="#FFE391"/>
<path d="M51.0938 59.5487C51.0927 60.0103 51.21 60.4645 51.4345 60.8679C51.6589 61.2713 51.9831 61.6104 52.376 61.8528C52.7688 62.0952 53.2173 62.2329 53.6785 62.2526C54.1397 62.2723 54.5983 62.1734 55.0104 61.9654C58.4876 60.1723 61.186 57.1656 62.5938 53.5154C62.7493 53.1071 62.804 52.6674 62.7533 52.2335C62.7027 51.7995 62.5481 51.3842 62.3028 51.0228C62.0575 50.6613 61.7286 50.3643 61.344 50.157C60.9595 49.9498 60.5306 49.8383 60.0938 49.832C59.5525 49.8327 59.0242 49.997 58.578 50.3033C58.1318 50.6097 57.7887 51.0438 57.5938 51.5487C56.6725 53.9688 54.8927 55.9652 52.5938 57.157C52.1462 57.3769 51.7688 57.7172 51.5038 58.1397C51.2388 58.5621 51.0969 59.05 51.0938 59.5487Z" fill="#FFA64D"/>
<path d="M68.5508 74.2031L74.1007 68.6532L75.2791 69.8315L69.7291 75.3815L68.5508 74.2031Z" fill="#E61F34"/>
<path d="M72.4008 66.9328L66.8508 72.4828L65.6758 71.2995L71.2174 65.7578L72.4008 66.9328Z" fill="#E61F34"/>
<path d="M62.8203 68.3945L68.3722 62.8505L69.5505 64.0305L63.9986 69.5745L62.8203 68.3945Z" fill="#E61F34"/>
<path d="M45.6608 51.4993L42.9608 48.3743C42.824 48.2064 42.7579 47.9919 42.7765 47.7761C42.7952 47.5604 42.8971 47.3603 43.0607 47.2184C43.2243 47.0765 43.4367 47.0038 43.6529 47.0158C43.8691 47.0278 44.0722 47.1235 44.2191 47.2827L46.3191 49.716L51.7274 43.9743C51.8788 43.813 52.0881 43.7184 52.3093 43.7114C52.5304 43.7043 52.7453 43.7854 52.9066 43.9368C53.0679 44.0882 53.1625 44.2975 53.1696 44.5186C53.1766 44.7398 53.0955 44.9546 52.9441 45.116L46.9024 51.5327C46.822 51.6179 46.7244 51.6852 46.6161 51.7302C46.5079 51.7751 46.3913 51.7967 46.2742 51.7936C46.157 51.7904 46.0418 51.7626 45.9361 51.7119C45.8304 51.6612 45.7366 51.5888 45.6608 51.4993Z" fill="#3AB67D"/>
</svg>
