<svg width="80" height="80" viewBox="0 0 80 80" fill="none" xmlns="http://www.w3.org/2000/svg">
<path d="M65.353 38.921L63.3208 22.4128L59.5127 22.8815L59.5143 22.8789L52.1315 18.724C51.344 18.2809 50.4402 18.0881 49.5404 18.1712L37.8833 19.2493C36.4503 19.3818 35.1698 20.1995 34.4469 21.4439L26.2306 35.5857C25.6239 36.6299 26.1002 37.9691 27.23 38.3958L27.5661 38.5227C28.2127 38.7669 28.8772 38.9083 29.5414 38.9636L28.5003 39.8703L26.4175 41.685L20.4936 46.7381C19.4391 47.6567 19.3296 49.2552 20.2482 50.3097L20.8491 50.998C22.0288 52.3508 24.0821 52.4912 25.4374 51.3112L27.7014 53.9081C28.4375 54.7534 29.5159 55.1273 30.552 54.9998C31.1747 54.9233 31.7822 54.6651 32.2895 54.2214L34.5511 56.8184C35.2898 57.6659 36.3681 58.0373 37.4042 57.9098C38.0268 57.8331 38.6345 57.5775 39.142 57.1339L40.3711 58.1961C41.5511 59.5512 43.6067 59.6914 44.962 58.5114L46.6328 57.0537L60.6789 46.1144L60.6941 46.1005L66.236 46.095L65.353 38.921Z" fill="#F29F5C"/>
<path d="M59.3313 41.8502L59.3162 41.8641L45.27 52.8034L43.5992 54.261C42.2441 55.441 40.1883 55.3009 39.0083 53.9457L37.7792 52.8835C37.2717 53.3271 36.6639 53.5829 36.0414 53.6595C35.0053 53.787 33.9272 53.4156 33.1883 52.5681L30.9268 49.9711C30.4193 50.4147 29.8118 50.6728 29.1893 50.7495C28.1532 50.877 27.0747 50.5032 26.3386 49.6578L24.0746 47.0609C22.9143 48.0712 21.2437 48.1106 20.0463 47.2526C19.4323 48.1786 19.4813 49.4336 20.2468 50.3123L20.8477 51.0006C22.0274 52.3534 24.0807 52.4939 25.436 51.3139L27.7 53.9107C28.4361 54.756 29.5146 55.1299 30.5507 55.0024C31.1733 54.9259 31.7807 54.6678 32.2882 54.224L34.5497 56.8212C35.2885 57.6687 36.3667 58.0401 37.4028 57.9126C38.0255 57.8359 38.6331 57.5802 39.1406 57.1367L40.3697 58.1988C41.5497 59.554 43.6053 59.6941 44.9606 58.5141L46.6314 57.0565L60.6776 46.1172L60.6927 46.1033L66.2346 46.0978L65.6215 41.1172L59.3313 41.8502Z" fill="#D37D42"/>
<path d="M61.8903 48.9876L54.3645 42.4985L52.2717 40.6954L50.7742 39.4057L44.3357 33.8558L45.0792 27.5261C45.3308 25.3853 43.9832 23.3811 41.9057 22.8063L27.8706 18.9227C26.3856 18.5118 24.816 19.2008 24.1135 20.5722L22.3486 24.0175L14.7723 23.5033L12.8317 40.0226L11.9883 47.2015L19.3629 47.692L19.3783 47.7059L34.7848 60.986L36.4637 62.4344C37.8254 63.6069 39.8802 63.4553 41.0527 62.0936L43.2996 59.4865C43.8094 59.9272 44.4186 60.1796 45.0417 60.2529C46.0785 60.3747 47.1547 59.9972 47.8888 59.1457L50.1359 56.5361C50.6458 56.9769 51.2547 57.2318 51.8778 57.3049C52.9145 57.4268 53.9909 57.0469 54.7223 56.1974L56.9719 53.588C58.3336 54.7605 60.3861 54.6087 61.5582 53.2493L62.1554 52.5576C63.0682 51.4982 62.9498 49.9004 61.8903 48.9876Z" fill="#F9C295"/>
<path d="M61.8911 48.9883L59.5988 47.0117C60.3438 47.9997 60.3285 49.4051 59.4877 50.3811L58.8538 51.1153C57.6094 52.5583 55.4307 52.7195 53.9851 51.4748L51.597 54.2448C50.8206 55.1465 49.6779 55.5497 48.5773 55.4204C47.9159 55.3428 47.2695 55.0723 46.7282 54.6043L44.3426 57.3746C43.5634 58.2785 42.4211 58.6792 41.3204 58.55C40.659 58.4723 40.0123 58.2043 39.4711 57.7364L37.0858 60.5042C36.6364 61.0262 36.0641 61.3779 35.4492 61.5592L36.4647 62.4353C37.8264 63.6077 39.8812 63.4562 41.0537 62.0945L43.3006 59.4873C43.8104 59.9281 44.4197 60.1804 45.0428 60.2537C46.0795 60.3754 47.1557 59.9981 47.8898 59.1465L50.137 56.537C50.6468 56.9778 51.2557 57.2326 51.8788 57.3057C52.9156 57.4276 53.992 57.0478 54.7234 56.1982L56.9729 53.5889C58.3346 54.7614 60.3871 54.6095 61.5593 53.2501L62.1565 52.5584C63.0691 51.4989 62.9507 49.9011 61.8911 48.9883Z" fill="#E59F6A"/>
<path d="M57.7367 52.7188L53.6129 49.1632C53.1231 48.7407 52.3829 48.7954 51.9601 49.2855C51.5375 49.7757 51.5923 50.5157 52.0825 50.9383L56.1989 54.4877L56.9748 53.5877C57.2845 53.8544 57.6309 54.049 57.9935 54.18C58.2612 53.7036 58.1664 53.0893 57.7367 52.7188Z" fill="#E59F6A"/>
<path d="M51.1434 57.1274C51.4257 56.6485 51.3353 56.0221 50.8993 55.6461L47.195 52.4523C46.7048 52.0298 45.965 52.0844 45.5422 52.5746C45.1195 53.0648 45.1744 53.8047 45.6645 54.2274L49.3689 57.4213C49.3704 57.4225 49.372 57.4236 49.3736 57.4249L50.1389 56.5361C50.444 56.8 50.7853 56.9958 51.1434 57.1274Z" fill="#E59F6A"/>
<path d="M19.7458 47.675L18.8531 48.8537C17.8811 50.1373 18.1336 51.9659 19.4172 52.9381C20.7008 53.9101 22.5294 53.6576 23.5015 52.374L24.3942 51.1953C25.3662 49.9117 25.1137 48.0831 23.8301 47.1109C22.5465 46.1389 20.7178 46.3914 19.7458 47.675Z" fill="#F29F5C"/>
<path d="M25.1826 50.1555L23.5016 52.3753C22.5295 53.6589 22.782 55.4875 24.0656 56.4597C25.3492 57.4317 27.1778 57.1792 28.15 55.8956L29.8311 53.6758C30.8031 52.3922 30.5506 50.5636 29.267 49.5914C27.9833 48.6194 26.1547 48.8719 25.1826 50.1555Z" fill="#F29F5C"/>
<path d="M30.4411 52.8704L28.15 55.8957C27.178 57.1793 27.4305 59.0078 28.7141 59.98C29.9976 60.9521 31.8262 60.6996 32.7984 59.416L35.0895 56.3907C36.0615 55.1071 35.809 53.2785 34.5254 52.3063C33.2418 51.3341 31.4133 51.5868 30.4411 52.8704Z" fill="#F29F5C"/>
<path d="M35.2225 56.214L32.7984 59.4148C31.8264 60.6984 32.0789 62.527 33.3625 63.4992C34.6461 64.4712 36.4747 64.2187 37.4468 62.9351L39.8709 59.7343C40.8429 58.4508 40.5904 56.6222 39.3068 55.65C38.0231 54.678 36.1945 54.9305 35.2225 56.214Z" fill="#F29F5C"/>
<path d="M59.5137 22.8789L52.1309 18.724C51.3434 18.2809 50.4397 18.0881 49.5399 18.1712L37.8827 19.2493C36.4497 19.3818 35.1693 20.1995 34.4463 21.4439L26.2301 35.5857C25.6234 36.63 26.0996 37.9691 27.2295 38.3958L27.5656 38.5227C30.5773 39.6602 33.9785 38.6922 35.9399 36.1396L39.0879 32.0427C39.0879 32.0427 46.6549 40.8041 54.9861 30.5724" fill="#F29F5C"/>
<path d="M79.99 48.302L76.1286 16.9348C76.0906 16.6264 75.9317 16.3456 75.6867 16.1544C75.4417 15.9631 75.131 15.8772 74.8224 15.915L65.793 17.0265C63.4479 17.3153 61.7749 19.4581 62.0637 21.8031L65.1643 46.9905C65.4311 49.1588 67.2829 50.7523 69.4143 50.7523C69.588 50.7523 69.7641 50.7417 69.9408 50.72L78.9702 49.6084C79.6123 49.5292 80.0691 48.9444 79.99 48.302Z" fill="#5C9CEE"/>
<path d="M79.9895 48.3037L79.5656 44.8606C79.3734 45.1427 79.0665 45.3442 78.7012 45.3892L69.2361 46.5544C69.0508 46.5772 68.8662 46.5883 68.684 46.5883C67.0903 46.5883 65.6464 45.738 64.8477 44.4258L65.1636 46.992C65.4305 49.1603 67.2822 50.7539 69.4136 50.7539C69.5873 50.7539 69.7634 50.7433 69.9401 50.7215L78.9695 49.61C79.6118 49.5309 80.0685 48.9461 79.9895 48.3037Z" fill="#3580D3"/>
<path d="M14.2059 17.0266L5.17653 15.915C4.86763 15.8771 4.55716 15.9632 4.31216 16.1544C4.06716 16.3457 3.90826 16.6264 3.87029 16.9349L0.00889616 48.3022C-0.070166 48.9446 0.386551 49.5294 1.02874 49.6085L10.0581 50.7201C10.235 50.7418 10.4107 50.7524 10.5846 50.7524C12.7159 50.7524 14.5677 49.1587 14.8346 46.9905L17.9352 21.8031C18.224 19.4581 16.551 17.3153 14.2059 17.0266Z" fill="#ED5575"/>
<path d="M0.00889857 48.3037L0.432803 44.8606C0.62499 45.1427 0.931864 45.3442 1.29717 45.3892L10.7623 46.5544C10.9476 46.5772 11.1321 46.5883 11.3143 46.5883C12.9081 46.5883 14.352 45.738 15.1507 44.4258L14.8348 46.992C14.5679 49.1603 12.7162 50.7539 10.5848 50.7539C10.411 50.7539 10.235 50.7433 10.0582 50.7215L1.02889 49.61C0.386397 49.5309 -0.0701636 48.9461 0.00889857 48.3037Z" fill="#CC3A60"/>
<path d="M72.4997 45.5462C73.7508 45.5462 74.765 44.532 74.765 43.2809C74.765 42.0298 73.7508 41.0156 72.4997 41.0156C71.2486 41.0156 70.2344 42.0298 70.2344 43.2809C70.2344 44.532 71.2486 45.5462 72.4997 45.5462Z" fill="#EBEEF2"/>
<path d="M7.37468 45.5462C8.62577 45.5462 9.63998 44.532 9.63998 43.2809C9.63998 42.0298 8.62577 41.0156 7.37468 41.0156C6.12359 41.0156 5.10938 42.0298 5.10938 43.2809C5.10938 44.532 6.12359 45.5462 7.37468 45.5462Z" fill="#EBEEF2"/>
</svg>
