<svg width="72" height="72" viewBox="0 0 72 72" fill="none" xmlns="http://www.w3.org/2000/svg">
<path d="M69.75 31.5L2.25 69.75H69.75V31.5Z" fill="#FCE797"/>
<path d="M24.75 69.75V57.0004L36 50.625V69.75H24.75Z" fill="#F9D266"/>
<path d="M36 69.7499V50.6249L47.25 44.2495V69.7499H36Z" fill="#F6B940"/>
<path d="M58.5 69.7501H47.25V44.2497L58.5 37.8755V69.7501Z" fill="#F4A93C"/>
<path d="M58.5 69.75H69.75V31.5L58.5 37.8754V69.75Z" fill="#D5883E"/>
<path d="M48.375 40.5C58.9374 40.5 67.5 31.9374 67.5 21.375C67.5 10.8126 58.9374 2.25 48.375 2.25C37.8126 2.25 29.25 10.8126 29.25 21.375C29.25 31.9374 37.8126 40.5 48.375 40.5Z" fill="#5E87CA"/>
<path d="M63.0002 19.1251C63.0018 16.0092 62.2411 12.9403 60.7846 10.1858C59.328 7.43138 57.2198 5.07503 54.6437 3.32222C50.2656 1.80056 45.4838 1.92141 41.1882 3.66228C36.8925 5.40315 33.3757 8.64544 31.2922 12.7858C29.2087 16.9261 28.7004 21.6824 29.862 26.1694C31.0236 30.6565 33.7759 34.5687 37.6067 37.178C40.4871 38.1864 43.5672 38.4894 46.5889 38.0616C49.6105 37.6339 52.4855 36.4878 54.9728 34.7195C57.4601 32.9512 59.4871 30.6123 60.8838 27.899C62.2806 25.1856 63.0063 22.1769 63.0002 19.1251Z" fill="#78A0D4"/>
<path d="M28.125 12.375H32.625C33.2217 12.375 33.794 12.6121 34.216 13.034C34.6379 13.456 34.875 14.0283 34.875 14.625V28.125C34.875 28.7217 34.6379 29.294 34.216 29.716C33.794 30.1379 33.2217 30.375 32.625 30.375H20.25L15.75 28.125H12.375V12.375H15.75L20.25 7.875H25.875C26.4717 7.875 27.044 8.11205 27.466 8.53401C27.8879 8.95597 28.125 9.52826 28.125 10.125V12.375Z" fill="#FBE1CA"/>
<path d="M2.25 10.125H12.375V30.375H2.25V10.125Z" fill="#3B5892"/>
<path d="M7.875 23.625V10.125H2.25V27H4.5C5.39511 27 6.25355 26.6444 6.88649 26.0115C7.51942 25.3786 7.875 24.5201 7.875 23.625Z" fill="#4C6CB5"/>
<path d="M24.75 24.75H34.875V27H24.75V24.75Z" fill="#FFCBA4"/>
<path d="M24.75 20.25H34.875V22.5H24.75V20.25Z" fill="#FFCBA4"/>
<path d="M29.25 15.75V12.375H27V16.875H25.875C25.5766 16.875 25.2905 16.7565 25.0795 16.5455C24.8685 16.3345 24.75 16.0484 24.75 15.75V12.375H22.5V13.5C22.5 14.6935 22.0259 15.8381 21.182 16.682C20.3381 17.5259 19.1935 18 18 18V20.25C18.9955 20.2502 19.9787 20.0299 20.8789 19.6049C21.7792 19.1799 22.5741 18.5607 23.2065 17.7919C23.5186 18.2046 23.9218 18.5396 24.3847 18.7709C24.8475 19.0021 25.3576 19.1233 25.875 19.125H28.125C28.4234 19.125 28.7095 19.0065 28.9205 18.7955C29.1315 18.5845 29.25 18.2984 29.25 18H34.875V15.75H29.25Z" fill="#FFCBA4"/>
<path d="M40.5 14.625L45 7.875L48.375 12.375L40.5 14.625Z" fill="#F2F2F2"/>
<path d="M40.5 28.125L45 34.875L48.375 30.375L40.5 28.125Z" fill="#F2F2F2"/>
<path d="M40.5 21.375L48.375 18V24.75L40.5 21.375Z" fill="#F2F2F2"/>
</svg>
