<svg width="20" height="20" viewBox="0 0 20 20" fill="none" xmlns="http://www.w3.org/2000/svg">
<g clip-path="url(#clip0_4904_37500)">
<mask id="mask0_4904_37500" style="mask-type:luminance" maskUnits="userSpaceOnUse" x="0" y="0" width="21" height="20">
<path d="M20.002 0H0.00195312V20H20.002V0Z" fill="white"/>
</mask>
<g mask="url(#mask0_4904_37500)">
<path d="M10.002 20C15.5248 20 20.002 15.5228 20.002 10C20.002 4.47715 15.5248 0 10.002 0C4.4791 0 0.00195312 4.47715 0.00195312 10C0.00195312 15.5228 4.4791 20 10.002 20Z" fill="#1DD882"/>
<path d="M19.9309 11.193C19.4766 15.0078 16.8747 18.1633 13.3684 19.4164L4.96992 11.018L4.65039 10.0609L4.74179 9.19531L5.28047 8.7164L6.36914 8.59687L7.06523 8.91836L8.69219 10.5441L12.9387 6.29843L14.0891 6.00781L15.0364 6.29843L19.9309 11.193Z" fill="url(#paint0_linear_4904_37500)"/>
<path d="M12.9383 6.30137L8.69179 10.547L7.06484 8.92012C6.78653 8.64222 6.40931 8.48614 6.01601 8.48614C5.62271 8.48614 5.24549 8.64222 4.96718 8.92012C4.68929 9.19843 4.5332 9.57565 4.5332 9.96895C4.5332 10.3622 4.68929 10.7394 4.96718 11.0177L7.55038 13.6009C7.57812 13.6341 7.60741 13.6666 7.63866 13.6978C7.91847 13.976 8.29702 14.1322 8.69159 14.1322C9.08617 14.1322 9.46471 13.976 9.74452 13.6978C9.77577 13.6666 9.80507 13.6341 9.8328 13.6009L15.036 8.39863C15.3139 8.12032 15.47 7.7431 15.47 7.34981C15.47 6.95651 15.3139 6.57929 15.036 6.30098C14.7576 6.02314 14.3804 5.86712 13.9871 5.86719C13.5938 5.86727 13.2166 6.02342 12.9383 6.30137Z" fill="white"/>
</g>
</g>
<defs>
<linearGradient id="paint0_linear_4904_37500" x1="7.64101" y1="6.29609" x2="17.743" y2="16.3984" gradientUnits="userSpaceOnUse">
<stop stop-color="#068C46"/>
<stop offset="1" stop-color="#068C46" stop-opacity="0"/>
</linearGradient>
<clipPath id="clip0_4904_37500">
<rect width="20" height="20" fill="white" transform="translate(0.00195312)"/>
</clipPath>
</defs>
</svg>
