<svg width="210" height="54" viewBox="0 0 210 54" fill="none" xmlns="http://www.w3.org/2000/svg">
<path d="M25.6778 49.899C26.1441 50.1745 26.8328 50.4217 27.5463 50.4217C28.62 50.4217 29.224 49.8707 29.224 49.0477C29.224 48.306 28.7825 47.8645 27.7123 47.4548C26.3913 46.9886 25.5684 46.2998 25.5684 45.1731C25.5684 43.9086 26.6138 42.9727 28.1821 42.9727C29.0086 42.9727 29.6125 43.1634 29.9693 43.3576L29.6938 44.2089C29.4183 44.0711 28.8955 43.8239 28.1538 43.8239C27.0553 43.8239 26.6421 44.4844 26.6421 45.0354C26.6421 45.7771 27.1366 46.1621 28.235 46.6036C29.609 47.1263 30.2977 47.7868 30.2977 48.9665C30.2977 50.1462 29.3618 51.2765 27.4651 51.2765C26.6951 51.2765 25.8438 51.0575 25.4023 50.7537L25.6778 49.8743V49.9025V49.899Z" fill="white"/>
<path d="M33.4646 43.7386C33.4646 44.0954 33.2174 44.3991 32.8041 44.3991C32.4474 44.3991 32.1719 44.1236 32.1719 43.7386C32.1719 43.3536 32.4474 43.0781 32.8324 43.0781C33.2174 43.0781 33.4929 43.3536 33.4929 43.7386H33.4646ZM32.3096 51.163V45.3633H33.3551V51.163H32.3096Z" fill="white"/>
<path d="M35.6815 46.9286C35.6815 46.3246 35.6815 45.8302 35.625 45.3604H36.561L36.6175 46.2964C36.946 45.7454 37.4687 45.2227 38.433 45.2227C39.2312 45.2227 39.8352 45.6889 40.0824 46.3776C40.2732 46.0491 40.4957 45.8019 40.7429 45.6359C41.0997 45.3604 41.4847 45.2227 42.0357 45.2227C42.8056 45.2227 43.9324 45.7171 43.9324 47.7233V51.1318H42.9151V47.8611C42.9151 46.7344 42.5019 46.0739 41.6507 46.0739C41.0467 46.0739 40.5769 46.5154 40.4145 47.0346C40.3579 47.1723 40.3332 47.3631 40.3332 47.5573V51.1318H39.316V47.6668C39.316 46.7308 38.9027 46.0739 38.1045 46.0739C37.444 46.0739 36.9778 46.5966 36.8118 47.1194C36.7553 47.2854 36.7305 47.4478 36.7305 47.6421V51.1353H35.7133V46.9004H35.6568L35.685 46.9286H35.6815Z" fill="white"/>
<path d="M46.2714 47.261C46.2714 46.5193 46.2714 45.9153 46.2148 45.3643H47.1508L47.2074 46.3533C47.6489 45.6398 48.3341 45.2266 49.2701 45.2266C50.6723 45.2266 51.7178 46.4098 51.7178 48.1687C51.7178 50.2597 50.4533 51.2769 49.0793 51.2769C48.3093 51.2769 47.6489 50.9485 47.2921 50.3692V53.5304H46.2466V47.261H46.2749H46.2714ZM47.3168 48.801C47.3168 48.967 47.3168 49.1047 47.3734 49.2425C47.5641 49.9842 48.1998 50.4787 48.9416 50.4787C50.0683 50.4787 50.7005 49.571 50.7005 48.25C50.7005 47.095 50.0966 46.106 48.9698 46.106C48.2564 46.106 47.5676 46.6288 47.3769 47.3988C47.3486 47.5365 47.2957 47.6743 47.2957 47.8403V48.8292H47.3239V48.801H47.3168Z" fill="white"/>
<path d="M53.6992 42.6719H54.7447V51.1664H53.6992V42.6719Z" fill="white"/>
<path d="M58.2927 43.7386C58.2927 44.0954 58.0455 44.3991 57.6322 44.3991C57.2755 44.3991 57 44.1236 57 43.7386C57 43.3536 57.2755 43.0781 57.6605 43.0781C58.0455 43.0781 58.321 43.3536 58.321 43.7386H58.2927ZM57.1095 51.163V45.3633H58.155V51.163H57.1095Z" fill="white"/>
<path d="M60.6273 51.1641V46.1592H59.8008V45.3609H60.6273V45.0855C60.6273 44.259 60.818 43.5172 61.2878 43.051C61.6728 42.666 62.2238 42.5 62.69 42.5C63.0467 42.5 63.3787 42.5812 63.5977 42.666L63.46 43.4925C63.294 43.4113 63.1032 43.3547 62.7995 43.3547C61.8917 43.3547 61.6728 44.153 61.6728 45.0325V45.3362H63.075V46.1345H61.6728V51.1394H60.6273V51.1676V51.1641Z" fill="white"/>
<path d="M64.9849 45.3633L66.2494 48.8C66.3871 49.185 66.5249 49.6265 66.6061 49.9832C66.7156 49.6265 66.8251 49.185 66.9629 48.7717L68.1178 45.3633H69.2163L67.6481 49.4887C66.9064 51.4666 66.3836 52.4839 65.6701 53.1196C65.1474 53.5859 64.6529 53.7519 64.3774 53.8084L64.1019 52.9289C64.3774 52.8477 64.7059 52.6817 65.0379 52.4062C65.3134 52.1872 65.6984 51.7739 65.9174 51.2229C65.9739 51.1135 65.9986 51.0322 65.9986 50.9757C65.9986 50.9192 65.9986 50.838 65.9174 50.7002L63.7734 45.3668H64.9849V45.3633Z" fill="white"/>
<path d="M72.0271 43.7386C72.0271 44.0954 71.7799 44.3991 71.3666 44.3991C71.0099 44.3991 70.7344 44.1236 70.7344 43.7386C70.7344 43.3536 71.0099 43.0781 71.3949 43.0781C71.7799 43.0781 72.0554 43.3536 72.0554 43.7386H72.0271ZM70.8439 51.163V45.3633H71.8894V51.163H70.8439Z" fill="white"/>
<path d="M74.2323 46.9286C74.2323 46.3246 74.2323 45.8302 74.1758 45.3604H75.1118L75.1683 46.3211C75.4438 45.7701 76.129 45.2227 77.0932 45.2227C77.8915 45.2227 79.1277 45.6889 79.1277 47.6986V51.1635H78.0822V47.8081C78.0822 46.8721 77.7255 46.1021 76.7365 46.1021C76.0478 46.1021 75.5003 46.5966 75.3343 47.1759C75.2778 47.3136 75.253 47.4796 75.253 47.6704V51.1635H74.2076V46.9286H74.2358H74.2323Z" fill="white"/>
<path d="M86.495 45.3648C86.495 45.7781 86.4385 46.2443 86.4385 46.9578V50.3132C86.4385 51.6342 86.163 52.4572 85.612 52.9517C85.061 53.4744 84.238 53.6404 83.4963 53.6404C82.7546 53.6404 82.0376 53.4744 81.5713 53.1742L81.8468 52.376C82.2318 52.6232 82.8358 52.8422 83.5528 52.8422C84.6265 52.8422 85.4212 52.2912 85.4212 50.8077V50.1472C85.0928 50.6982 84.4853 51.1079 83.5775 51.1079C82.147 51.1079 81.1016 49.8964 81.1016 48.2752C81.1016 46.322 82.3943 45.1953 83.7153 45.1953C84.7325 45.1953 85.2835 45.7181 85.5307 46.2125L85.5873 45.3331H86.5232H86.495V45.3613V45.3648ZM85.3965 47.6465C85.3965 47.4558 85.3965 47.3181 85.34 47.1803C85.1493 46.5763 84.6265 46.0536 83.8566 46.0536C82.8393 46.0536 82.1259 46.9048 82.1259 48.254C82.1259 49.3808 82.7016 50.345 83.8318 50.345C84.4923 50.345 85.068 49.9318 85.2906 49.2713C85.3471 49.0805 85.3718 48.8863 85.3718 48.7203V47.6748L85.4001 47.6465H85.3965Z" fill="white"/>
<path d="M98.0988 50.8058C97.6325 50.9718 96.6965 51.2473 95.6228 51.2473C94.4113 51.2473 93.3941 50.9436 92.5994 50.1736C91.9106 49.5131 91.4727 48.4146 91.4727 47.1784C91.4727 44.759 93.1504 43 95.8453 43C96.7813 43 97.523 43.1907 97.8515 43.3567L97.6043 44.208C97.1628 44.0172 96.6436 43.8512 95.8171 43.8512C93.8639 43.8512 92.5711 45.0627 92.5711 47.0972C92.5711 49.1316 93.8073 50.3431 95.6793 50.3431C96.3681 50.3431 96.8343 50.2619 97.0815 50.1241V47.7047H95.4321V46.8782H98.0988V50.8094V50.8058Z" fill="white"/>
<path d="M100.242 42.6719H101.288V51.1664H100.242V42.6719Z" fill="white"/>
<path d="M108.927 48.2205C108.927 50.3644 107.444 51.3004 106.042 51.3004C104.474 51.3004 103.266 50.1454 103.266 48.3299C103.266 46.3767 104.53 45.25 106.151 45.25C107.773 45.25 108.927 46.4615 108.927 48.2205ZM104.308 48.277C104.308 49.5414 105.049 50.5057 106.067 50.5057C107.084 50.5057 107.825 49.5697 107.825 48.2522C107.825 47.2633 107.331 46.0235 106.095 46.0235C104.859 46.0235 104.308 47.1785 104.308 48.277Z" fill="white"/>
<path d="M110.79 51.1664C110.79 50.7815 110.846 50.1775 110.846 49.683V42.6719H111.892V46.3028C112.248 45.6423 112.937 45.2291 113.87 45.2291C115.3 45.2291 116.317 46.4406 116.317 48.1995C116.317 50.2622 115.025 51.3077 113.704 51.3077C112.877 51.3077 112.192 50.9792 111.75 50.2093H111.722L111.666 51.17H110.758H110.786L110.79 51.1664ZM111.863 48.8282C111.863 48.8282 111.863 49.1037 111.92 49.2132C112.111 49.9549 112.746 50.4494 113.488 50.4494C114.587 50.4494 115.247 49.5417 115.247 48.2207C115.247 47.0657 114.643 46.0768 113.516 46.0768C112.803 46.0768 112.114 46.5713 111.923 47.3695C111.923 47.479 111.867 47.645 111.867 47.811V48.8565V48.8282H111.863Z" fill="white"/>
<path d="M121.463 51.1639L121.382 50.4222H121.354C121.025 50.8884 120.418 51.2734 119.595 51.2734C118.412 51.2734 117.836 50.4469 117.836 49.5957C117.836 48.1935 119.072 47.4235 121.329 47.4517V47.3423C121.329 46.876 121.191 45.9965 120.008 45.9965C119.457 45.9965 118.91 46.1626 118.496 46.438L118.249 45.7493C118.715 45.4455 119.432 45.2266 120.146 45.2266C121.905 45.2266 122.346 46.438 122.346 47.5895V49.7617C122.346 50.2562 122.346 50.7507 122.428 51.1639H121.467H121.463ZM121.297 48.1935C120.142 48.1935 118.85 48.3842 118.85 49.4862C118.85 50.1749 119.316 50.5034 119.839 50.5034C120.58 50.5034 121.075 50.0372 121.241 49.5427C121.269 49.4332 121.297 49.3237 121.297 49.2142V48.197V48.1935Z" fill="white"/>
<path d="M124.629 42.6719H125.674V51.1664H124.629V42.6719Z" fill="white"/>
<path d="M135.401 47.3695H132.269V50.2835H135.762V51.163H131.227V43.0781H135.599V43.9576H132.272V46.5148H135.405V47.366L135.401 47.3695Z" fill="white"/>
<path d="M142.632 42.6685V49.6796C142.632 50.2023 142.632 50.7781 142.689 51.1631H141.753L141.696 50.1458C141.368 50.8063 140.679 51.2726 139.718 51.2726C138.316 51.2726 137.242 50.0893 137.242 48.3304C137.242 46.4054 138.425 45.2222 139.828 45.2222C140.707 45.2222 141.311 45.6354 141.587 46.1016V42.6367H142.632V42.665V42.6685ZM141.558 47.7264C141.558 47.7264 141.558 47.4226 141.502 47.2849C141.336 46.6244 140.76 46.0734 139.99 46.0734C138.892 46.0734 138.259 47.0341 138.259 48.3021C138.259 49.4853 138.835 50.4461 139.965 50.4461C140.679 50.4461 141.311 49.9798 141.505 49.1816C141.534 49.0438 141.562 48.9061 141.562 48.7153V47.6981V47.7264H141.558Z" fill="white"/>
<path d="M149.816 49.5703C149.816 50.1743 149.816 50.697 149.873 51.1385H148.937L148.88 50.2025C148.605 50.6688 148.001 51.2763 146.955 51.2763C146.048 51.2763 144.949 50.7818 144.949 48.7474V45.3672H145.995V48.5849C145.995 49.6833 146.323 50.4286 147.287 50.4286C148.001 50.4286 148.499 49.9341 148.69 49.4679C148.746 49.3019 148.771 49.1111 148.771 48.9169V45.3707H149.816V49.5774V49.5703Z" fill="white"/>
<path d="M156.298 50.9445C156.022 51.0823 155.418 51.273 154.62 51.273C152.861 51.273 151.734 50.0898 151.734 48.3026C151.734 46.5154 152.946 45.2227 154.843 45.2227C155.475 45.2227 156.026 45.3887 156.301 45.5264L156.054 46.3529C155.807 46.2151 155.394 46.0774 154.843 46.0774C153.522 46.0774 152.808 47.0664 152.808 48.2779C152.808 49.6236 153.659 50.4501 154.814 50.4501C155.418 50.4501 155.803 50.2841 156.107 50.1746L156.298 50.9728V50.9445Z" fill="white"/>
<path d="M161.331 51.1639L161.249 50.4222H161.221C160.893 50.8884 160.285 51.2734 159.462 51.2734C158.279 51.2734 157.703 50.4469 157.703 49.5957C157.703 48.1935 158.939 47.4235 161.196 47.4517V47.3423C161.196 46.876 161.059 45.9965 159.875 45.9965C159.324 45.9965 158.777 46.1626 158.364 46.438L158.116 45.7493C158.583 45.4455 159.3 45.2266 160.013 45.2266C161.772 45.2266 162.214 46.438 162.214 47.5895V49.7617C162.214 50.2562 162.214 50.7507 162.295 51.1639H161.334H161.331ZM161.193 48.1935C160.038 48.1935 158.745 48.3842 158.745 49.4862C158.745 50.1749 159.211 50.5034 159.734 50.5034C160.476 50.5034 160.97 50.0372 161.136 49.5427C161.165 49.4332 161.193 49.3237 161.193 49.2142V48.197V48.1935Z" fill="white"/>
<path d="M165.737 43.7148V45.3926H167.249V46.1908H165.737V49.3237C165.737 50.0372 165.928 50.4504 166.536 50.4504C166.811 50.4504 167.002 50.4505 167.14 50.3692L167.196 51.1674C167.005 51.2487 166.673 51.3052 166.26 51.3052C165.766 51.3052 165.381 51.1392 165.133 50.8637C164.83 50.5599 164.72 50.0372 164.72 49.352V46.1908H163.812V45.3926H164.72V43.9904L165.737 43.7148Z" fill="white"/>
<path d="M170.179 43.7386C170.179 44.0954 169.932 44.3991 169.519 44.3991C169.162 44.3991 168.887 44.1236 168.887 43.7386C168.887 43.3536 169.162 43.0781 169.547 43.0781C169.932 43.0781 170.208 43.3536 170.208 43.7386H170.179ZM168.996 51.163V45.3633H170.042V51.163H168.996Z" fill="white"/>
<path d="M177.677 48.2205C177.677 50.3644 176.194 51.3004 174.792 51.3004C173.224 51.3004 172.016 50.1454 172.016 48.3299C172.016 46.3767 173.28 45.25 174.901 45.25C176.523 45.25 177.677 46.4615 177.677 48.2205ZM173.058 48.277C173.058 49.5414 173.799 50.5057 174.817 50.5057C175.834 50.5057 176.575 49.5697 176.575 48.2522C176.575 47.2633 176.081 46.0235 174.845 46.0235C173.609 46.0235 173.058 47.1785 173.058 48.277Z" fill="white"/>
<path d="M179.596 46.9286C179.596 46.3246 179.596 45.8302 179.539 45.3604H180.475L180.532 46.3211C180.807 45.7701 181.492 45.2227 182.457 45.2227C183.255 45.2227 184.491 45.6889 184.491 47.6986V51.1635H183.445V47.8081C183.445 46.8721 183.089 46.1021 182.1 46.1021C181.411 46.1021 180.864 46.5966 180.698 47.1759C180.641 47.3136 180.616 47.4796 180.616 47.6704V51.1635H179.571V46.9286H179.599H179.596Z" fill="white"/>
<path d="M21.8732 7.38557C15.7275 3.31313 7.9782 4.41158 3.15697 10.19C-1.25455 15.4881 -0.534012 22.5239 2.21391 26.3985C2.28455 26.5115 2.45409 26.4974 2.52473 26.3985L7.20468 19.8713C7.27532 19.7724 7.4166 19.7583 7.50137 19.8572L9.96674 22.5203C9.96674 22.5203 10.0374 22.6899 9.98087 22.7605L5.14551 29.482C5.08899 29.5668 5.10312 29.6939 5.18789 29.7504L6.65368 30.8065C6.73845 30.863 6.86561 30.8489 6.92212 30.7641L11.7575 24.0285C11.7575 24.0285 11.9129 23.9296 11.9977 23.972L15.2824 25.4519C15.3955 25.5084 15.4379 25.6356 15.3531 25.7345L13.029 28.9628L10.6625 32.2758C10.5778 32.3889 10.6343 32.5443 10.7614 32.5725C16.0878 34.0242 23.1377 31.8273 26.4331 25.4555C29.7461 19.0413 27.7435 11.3061 21.8662 7.38557H21.8803H21.8732ZM25.3276 22.7181C23.5933 28.0162 18.7191 30.7111 14.7562 30.7924C14.6008 30.7924 14.5019 30.6087 14.6008 30.4816L19.0405 24.2934C19.0971 24.2087 19.0829 24.0815 18.9982 24.025L7.56848 15.979C7.48371 15.9225 7.35656 15.9366 7.30005 16.0214L2.94504 22.0824C2.86027 22.2095 2.66248 22.1813 2.60597 22.04C1.56402 19.2214 1.9702 14.1741 5.48104 10.6527C9.42633 6.69329 15.5438 5.90211 20.0542 8.69242C24.9602 11.737 27.0865 17.3177 25.3099 22.7005L25.324 22.7146L25.3276 22.7181Z" fill="white"/>
<path d="M8.57031 14.7275L10.7001 16.264L10.9968 16.0944C10.9968 16.0944 12.1094 15.6847 12.6745 15.4728C13.8578 17.4331 15.5496 18.6022 17.7077 19.0966C17.6936 19.8419 17.6794 20.5483 17.6653 21.2936L19.6397 22.6746V21.6326C19.7669 17.9275 19.8799 14.3037 20.0071 10.5703C16.468 11.8948 13.0313 13.177 9.53455 14.4873L8.57737 14.7275H8.57031ZM18.407 21.4207C18.5624 21.449 18.7179 21.4772 18.8733 21.5055L18.407 21.4207ZM17.8984 13.5125C17.856 14.7099 17.8278 15.8224 17.7854 17.0375C16.4185 16.6701 15.4189 15.9249 14.5712 14.7558C15.7121 14.3319 16.7576 13.9399 17.8984 13.516V13.5125Z" fill="white"/>
<path d="M31.8231 9.33054H35.348C35.4893 9.33054 35.6165 9.40118 35.673 9.52833L41.2819 20.4106C41.2819 20.4106 41.2819 20.4388 41.296 20.4388C41.409 20.7072 41.4938 20.9474 41.5927 21.1593C41.6916 21.3713 41.7622 21.6256 41.8329 21.9187H41.8753C41.96 21.622 42.0448 21.3677 42.1296 21.1452C42.2143 20.9333 42.3132 20.6931 42.4263 20.4247L47.908 9.51421C47.9645 9.38706 48.0916 9.31641 48.2329 9.31641H51.7155C51.9133 9.31641 52.0828 9.48595 52.0828 9.68374V25.4967C52.0828 25.6945 51.9133 25.864 51.7155 25.864H49.3349C49.1371 25.864 48.9676 25.6945 48.9676 25.4967C48.9676 25.4967 49.1795 13.7421 49.2078 13.4878C49.2078 13.4878 48.5579 14.8264 48.4766 15.109V15.1513L43.2916 25.6662C43.2351 25.7934 43.1079 25.864 42.9667 25.864H40.6143C40.473 25.864 40.3459 25.7934 40.2894 25.6662L34.6946 14.731C34.5675 14.4767 33.9635 13.0957 33.9635 13.0957C33.9635 13.237 34.1754 25.5108 34.1754 25.5108C34.1754 25.7086 34.0059 25.8781 33.8081 25.8781H31.8478C31.65 25.8781 31.4805 25.7086 31.4805 25.5108V9.69787C31.4805 9.50008 31.65 9.33054 31.8478 9.33054H31.8337H31.8231Z" fill="white"/>
<path d="M54.2109 19.6899C54.2109 17.8709 54.8608 16.4051 56.1712 15.2925C57.4675 14.1799 59.1169 13.6289 61.1055 13.6289C63.094 13.6289 64.6446 14.1516 65.8278 15.1936C67.011 16.2355 67.5903 17.6872 67.5762 19.5203V20.6329H55.8922V18.6303H64.6305V18.9835C64.6305 18.1111 64.3761 17.4047 63.8993 16.8537C63.4225 16.3027 62.4194 16.0378 60.9112 16.0378C59.7704 16.0378 58.8379 16.3627 58.135 17.0091C57.4286 17.659 57.079 18.5031 57.079 19.531V20.0678C57.079 21.1945 57.4887 22.0846 58.2904 22.7451C59.0922 23.4091 60.0953 23.7305 61.2927 23.7305C62.1933 23.7305 62.9563 23.5892 63.6026 23.3067C64.249 23.0241 64.7435 22.6851 65.0967 22.2647L67.4066 23.561C66.9828 24.4193 66.2375 25.0833 65.1814 25.5213C64.1254 25.9592 62.8009 26.1853 61.222 26.1853C59.1346 26.1853 57.4463 25.6343 56.1606 24.5358C54.8785 23.4374 54.2427 21.9433 54.2427 20.0537V19.7005H54.2145V19.6863L54.2109 19.6899Z" fill="white"/>
<path d="M67.8711 13.9248H76.8071V16.5738H67.8711V13.9248ZM70.2517 14.8679L70.3082 14.7125L70.2517 9.34375H73.1974L73.2539 21.3951C73.2539 22.3099 73.4235 22.9174 73.7767 23.1999C74.1299 23.4966 74.5784 23.6379 75.1577 23.6379C75.4402 23.6379 75.6804 23.6097 75.8782 23.5673C76.076 23.5249 76.2597 23.4542 76.4151 23.3836L76.4716 25.8348C76.2879 25.9055 76.0054 25.962 75.6416 26.0185C75.2742 26.075 74.8398 26.1033 74.3312 26.1033C73.1197 26.1033 72.1343 25.7783 71.3713 25.1461C70.6261 24.4962 70.2446 23.3977 70.2446 21.8189V14.8573L70.2587 14.8714L70.2517 14.8679Z" fill="white"/>
<path d="M79.222 19.5363C80.3628 18.8158 81.8004 18.4661 83.5487 18.4661H87.1867V17.3959C87.1867 16.8873 86.9465 16.5094 86.4662 16.2551C85.9858 16.0008 85.2406 15.8736 84.241 15.8736C83.3545 15.8736 82.6339 16.0008 82.0582 16.241C81.4825 16.4811 81.1999 16.8767 81.1999 17.4101V17.9187H78.2966V17.2688C78.2966 16.1844 78.8758 15.3085 80.0308 14.648C81.1858 13.984 82.6657 13.6484 84.4706 13.6484C86.2755 13.6484 87.6847 13.9451 88.6984 14.535C89.7121 15.1248 90.2207 16.1279 90.2207 17.509V22.9624C90.2207 23.4993 90.2773 23.9902 90.3903 24.4847C90.5033 24.9651 90.6728 25.3713 90.8989 25.6821V25.8658H87.9249C87.7978 25.668 87.6989 25.4137 87.6141 25.0923C87.5293 24.7708 87.4728 24.4282 87.4304 24.0786C87.1479 24.573 86.5298 25.0216 85.569 25.4313C84.6083 25.841 83.5381 26.0388 82.3549 26.0388C80.9456 26.0388 79.7906 25.728 78.8864 25.124C77.9716 24.5165 77.5195 23.63 77.5195 22.475C77.5195 21.2353 78.0847 20.2639 79.2255 19.5434L79.222 19.5363ZM81.2812 23.4958C81.7474 23.7501 82.4079 23.8772 83.2556 23.8772C84.1562 23.8772 85.0463 23.6653 85.9046 23.2415C86.7629 22.8176 87.1867 22.2702 87.1867 21.5637V20.5359H84.1562C83.0295 20.5359 82.1394 20.6772 81.5213 21.0021C80.8997 21.313 80.5783 21.7757 80.5783 22.369C80.5783 22.8777 80.8185 23.2556 81.2847 23.4958H81.2812Z" fill="white"/>
<path d="M99.4269 9.34375H103.287L110.362 25.8772H106.894L101.973 13.448C101.832 13.0665 101.705 12.7274 101.592 12.4484C101.479 12.1694 101.352 11.8974 101.239 11.6325H101.182C101.069 11.9151 100.956 12.1835 100.857 12.4625C100.744 12.731 100.617 13.07 100.448 13.448L95.5416 25.8772H92.4688L99.4304 9.34375H99.4163H99.4269ZM96.58 19.7456H106.064L106.908 22.2392H95.7465L96.5765 19.7456H96.58Z" fill="white"/>
<path d="M111.249 13.9115H113.545C113.672 13.9115 113.771 14.0104 113.771 14.1234V15.3773C114.096 14.8969 114.672 14.4766 115.506 14.1375C116.336 13.7984 117.254 13.6289 118.239 13.6289C119.945 13.6289 121.312 14.1375 122.326 15.1371C123.34 16.1366 123.848 17.5318 123.848 19.2943V19.6334C123.848 21.4241 123.354 22.8334 122.354 23.8754C121.355 24.9173 120.044 25.4259 118.409 25.4259C117.438 25.4259 116.548 25.2705 115.718 24.9738C115.11 24.7619 114.619 24.5076 114.266 24.2144C114.125 24.1014 113.899 24.2003 113.899 24.384V30.4732C113.899 30.6004 113.785 30.6993 113.672 30.6993H111.249C111.122 30.6993 111.023 30.6004 111.023 30.4732V14.1234C111.023 13.9962 111.122 13.8973 111.249 13.8973V13.9115ZM115.237 22.4661C115.915 22.8334 116.661 23.0029 117.476 23.0029C118.603 23.0029 119.465 22.7204 120.041 22.1729C120.62 21.6219 120.899 20.7777 120.899 19.6651V19.2554C120.899 18.1428 120.616 17.3234 120.041 16.8325C119.461 16.338 118.603 16.0872 117.462 16.0872C116.689 16.0872 115.954 16.2567 115.276 16.6099C114.598 16.9632 114.163 17.3305 113.909 17.7791C113.895 17.8073 113.881 17.8497 113.881 17.8921V21.2051C113.881 21.2051 113.881 21.2758 113.909 21.3182C114.135 21.7561 114.587 22.1341 115.234 22.4873V22.4731L115.237 22.4661Z" fill="white"/>
<path d="M125.743 13.5469H128.067C128.18 13.5469 128.265 13.6317 128.265 13.7447V15.3941C128.59 14.9138 129.166 14.4935 129.999 14.1544C130.829 13.8153 131.748 13.6458 132.733 13.6458C134.439 13.6458 135.806 14.1544 136.82 15.154C137.833 16.1535 138.342 17.5487 138.342 19.3112V19.6502C138.342 21.441 137.847 22.8503 136.848 23.8922C135.848 24.9342 134.538 25.4428 132.903 25.4428C131.931 25.4428 131.041 25.2874 130.211 24.9907C129.59 24.7646 129.099 24.5103 128.717 24.203C128.59 24.09 128.392 24.1889 128.392 24.3585V30.5042C128.392 30.6172 128.293 30.702 128.18 30.702H125.729C125.616 30.702 125.531 30.6172 125.531 30.5042V13.7482C125.531 13.6352 125.63 13.5504 125.743 13.5504V13.5469ZM129.759 22.4688C130.437 22.8362 131.183 23.0057 131.998 23.0057C133.125 23.0057 133.987 22.7231 134.563 22.1757C135.142 21.6247 135.421 20.7805 135.421 19.6679V19.2582C135.421 18.1456 135.138 17.3262 134.563 16.8352C133.983 16.3407 133.125 16.0899 131.984 16.0899C131.211 16.0899 130.476 16.2595 129.798 16.6127C129.148 16.9518 128.685 17.3332 128.431 17.7818C128.417 17.8101 128.403 17.8524 128.403 17.8807V21.1937C128.403 21.1937 128.403 21.2644 128.431 21.2926C128.657 21.7306 129.109 22.1085 129.756 22.4617V22.4759L129.759 22.4688Z" fill="white"/>
<path d="M140.14 9.19141H142.592C142.747 9.19141 142.888 9.31856 142.888 9.4881V25.5836C142.888 25.739 142.761 25.8803 142.592 25.8803H140.14C139.985 25.8803 139.844 25.7531 139.844 25.5836V9.4881C139.844 9.33269 139.971 9.19141 140.14 9.19141Z" fill="white"/>
<path d="M145.182 28.1315C145.45 28.2162 145.733 28.2727 146.026 28.301C146.319 28.3292 146.648 28.3434 146.997 28.3434C147.69 28.3575 148.308 28.1597 148.845 27.7359C149.382 27.312 149.887 26.5102 150.353 25.3411L150.197 24.9032L144.688 13.6289H147.859L151.427 20.9579C151.568 21.2122 151.681 21.7879 151.681 21.7879H151.808C151.808 21.7879 151.949 21.2228 152.077 20.9579L155.725 13.6289H158.544L152.44 26.6798C151.805 28.1597 151.102 29.2017 150.31 29.7951C149.537 30.4026 148.548 30.6957 147.351 30.6957C146.856 30.6957 146.436 30.6675 146.111 30.6251C145.786 30.5827 145.475 30.5121 145.196 30.4132V28.1173L145.182 28.1315Z" fill="white"/>
<path d="M166.535 0H165.539V36.3941H166.535V0Z" fill="white"/>
<path d="M207.858 11.739C206.633 9.53144 204.969 7.68772 202.913 6.26784C200.671 4.71022 198.166 3.77069 195.475 3.48106C194.885 3.41748 194.288 3.38216 193.702 3.38216C192.109 3.38216 190.52 3.62587 188.962 4.10976C188.128 2.87002 187.033 1.89517 185.705 1.20643C184.462 0.567128 183.141 0.242188 181.781 0.242188C181.304 0.242188 180.821 0.281035 180.34 0.35874C177.14 0.870886 174.516 3.12079 173.488 6.22899C172.976 7.80074 172.912 9.40783 173.304 11.0043C173.711 12.6538 174.544 14.0842 175.784 15.2604V15.7973C175.773 16.3942 175.773 16.9911 175.773 17.588C175.773 18.1849 175.773 18.7501 175.763 19.3576V20.9329C175.741 22.1585 175.741 23.4018 175.741 24.6097V26.3086C175.741 26.6053 175.759 26.8702 175.802 27.1033C175.915 27.8486 176.197 28.5268 176.656 29.1272C177.221 29.8619 177.956 30.4305 178.832 30.8155C179.574 31.151 180.404 31.3312 181.375 31.3771C181.467 31.3842 181.562 31.3842 181.658 31.3842C181.884 31.3842 182.127 31.3736 182.368 31.3559C182.505 31.3453 182.643 31.3347 182.777 31.3171C185.719 34.0014 189.188 35.4496 193.094 35.6191C193.331 35.6297 193.564 35.6332 193.801 35.6332C197.612 35.6332 201.317 34.2487 204.238 31.7374C210.094 26.7042 211.588 18.4852 207.865 11.739H207.858ZM203.422 30.7943C200.656 33.1749 197.054 34.5453 193.14 34.3758C189.266 34.2063 185.953 32.6981 183.176 29.989V29.9784C183.063 29.9996 182.95 30.0208 182.837 30.042C182.657 30.0773 182.463 30.102 182.283 30.1091C181.997 30.1338 181.704 30.1444 181.421 30.1338C180.697 30.0985 179.994 29.9749 179.337 29.6782C178.67 29.385 178.09 28.9541 177.635 28.3643C177.306 27.9334 177.101 27.4459 177.024 26.9126C176.988 26.7077 176.981 26.5029 176.981 26.3016V24.6027C176.981 23.3876 176.981 22.1655 177.002 20.9505V19.3505C177.024 18.1708 177.002 16.9946 177.024 15.8149V14.7023C175.756 13.6392 174.904 12.3112 174.509 10.7005C174.17 9.31599 174.223 7.95616 174.668 6.60692C175.554 3.92963 177.854 2.00467 180.538 1.57376C182.149 1.31239 183.692 1.55257 185.14 2.29783C186.592 3.04662 187.669 4.15568 188.418 5.60028C190.664 4.74906 192.967 4.44177 195.344 4.70314C197.848 4.97511 200.141 5.83693 202.214 7.278C204.128 8.60605 205.647 10.2944 206.785 12.3359C210.172 18.4816 208.823 26.1567 203.429 30.7908L203.422 30.7943ZM207.297 20.1947C207.297 19.8344 207.297 19.4706 207.261 19.0962C207.24 18.8242 207.219 18.5381 207.184 18.2662C207.148 17.9377 207.092 17.6198 207.021 17.3055C206.876 16.5673 206.647 15.8538 206.332 15.1827C206.004 14.494 205.584 13.8688 205.061 13.3143C204.485 12.7032 203.814 12.2264 203.079 11.8379C202.119 11.3504 201.084 11.0538 200.028 10.8983C199.72 10.8524 199.427 10.8206 199.12 10.7853C198.781 10.75 198.438 10.7253 198.099 10.7182C197.612 10.7041 197.124 10.7041 196.641 10.7182C196.266 10.7394 195.892 10.7606 195.517 10.7959C195.256 10.8206 194.984 10.8524 194.723 10.8983C194.246 10.9655 193.783 11.0679 193.331 11.1844C192.469 11.4105 191.629 11.7284 190.859 12.1805C190.11 12.6114 189.449 13.1341 188.877 13.7664C188.068 14.6529 187.524 15.6843 187.21 16.8286C187.072 17.3267 186.973 17.8459 186.924 18.3686C186.889 18.6865 186.867 18.9938 186.867 19.3081V20.1593C186.889 20.5126 186.924 20.8516 186.97 21.2013C187.037 21.6216 187.129 22.0384 187.252 22.4375C187.694 23.8079 188.478 24.9311 189.612 25.8141C190.325 26.3687 191.12 26.789 191.968 27.1033C192.48 27.2976 192.999 27.4424 193.532 27.559C193.917 27.6402 194.302 27.7073 194.687 27.7638C194.959 27.7992 195.231 27.8309 195.503 27.8521C195.835 27.8875 196.164 27.898 196.503 27.9122C197.068 27.9334 197.647 27.9334 198.212 27.9122C198.573 27.9122 198.94 27.8769 199.314 27.8451C199.607 27.8203 199.901 27.785 200.187 27.7532C200.582 27.7108 200.971 27.6402 201.352 27.5625C202.087 27.4142 202.815 27.2022 203.517 26.8949C204.178 26.6089 204.785 26.2486 205.322 25.7612C205.753 25.3762 206.106 24.9453 206.378 24.4366C206.714 23.8009 206.898 23.1086 206.979 22.3951C206.979 22.381 206.979 22.3598 206.954 22.3386C206.209 22.3245 205.446 22.3386 204.687 22.3245C203.429 22.3104 202.158 22.3245 200.904 22.3104H200.858C200.858 22.3775 200.837 22.4481 200.822 22.5152C200.734 22.9249 200.536 23.2746 200.243 23.5819C199.982 23.8433 199.678 24.034 199.35 24.1682C198.873 24.3731 198.371 24.4649 197.863 24.5002C197.534 24.5214 197.206 24.5002 196.877 24.5002C196.503 24.4649 196.139 24.3978 195.775 24.2848C195.129 24.0799 194.564 23.7408 194.097 23.2287C193.61 22.6954 193.327 22.0702 193.2 21.3708C193.165 21.166 193.144 20.9611 193.133 20.7492C193.133 20.7351 193.133 20.7245 193.169 20.7033H193.271C194.02 20.7033 194.779 20.7033 195.528 20.7174H196.683C197.863 20.7174 199.042 20.7174 200.222 20.7386C201.006 20.7527 201.776 20.7386 202.557 20.7386C203.472 20.7386 204.404 20.7386 205.322 20.7527H207.29C207.29 20.7527 207.29 20.728 207.29 20.7174V20.1947H207.297ZM205.34 19.513C204.415 19.4988 203.482 19.4989 202.56 19.4989C202.299 19.4989 201.26 19.5059 201.003 19.5059C200.745 19.5059 200.494 19.5059 200.243 19.4989C199.053 19.4777 197.849 19.4777 196.683 19.4777H195.549C194.793 19.4635 194.027 19.4635 193.271 19.4635H192.798L192.487 19.6719C192.116 19.9192 191.901 20.3112 191.901 20.7492V20.8128C191.915 21.0706 191.943 21.3214 191.989 21.5863C192.162 22.547 192.565 23.3806 193.19 24.0622C193.783 24.7157 194.532 25.189 195.415 25.468C195.849 25.6058 196.294 25.6905 196.771 25.7329L196.828 25.74H196.888C196.987 25.74 197.086 25.74 197.188 25.74C197.305 25.74 197.425 25.747 197.545 25.747C197.683 25.747 197.82 25.747 197.954 25.7329C198.668 25.6835 199.286 25.5457 199.83 25.3126C200.328 25.1042 200.766 24.8181 201.144 24.4366C201.405 24.1682 201.61 23.875 201.769 23.5501H202.804C203.433 23.5501 204.061 23.5501 204.676 23.5572C204.93 23.5572 205.181 23.5642 205.432 23.5642C205.389 23.6596 205.343 23.755 205.294 23.8468C205.1 24.2106 204.842 24.532 204.496 24.8428C204.104 25.2031 203.627 25.5033 203.034 25.7541C202.451 26.0084 201.804 26.2062 201.116 26.344C200.709 26.4287 200.374 26.4817 200.049 26.5206C199.784 26.5523 199.505 26.5841 199.212 26.6089H199.18C198.841 26.6442 198.52 26.6724 198.223 26.6724H198.173C197.909 26.683 197.637 26.6865 197.365 26.6865C197.093 26.6865 196.828 26.6795 196.552 26.6724C196.245 26.6583 195.934 26.6512 195.616 26.6194C195.362 26.5982 195.108 26.5629 194.882 26.5347C194.521 26.4817 194.154 26.4181 193.801 26.3475C193.299 26.238 192.847 26.1108 192.413 25.9448C191.629 25.6517 190.965 25.2879 190.382 24.8358C189.442 24.1011 188.806 23.1934 188.443 22.0631C188.351 21.7629 188.27 21.4097 188.206 21.0212C188.167 20.7033 188.135 20.4101 188.118 20.1134V19.3046C188.118 19.068 188.132 18.8172 188.171 18.471C188.21 18.0543 188.287 17.6092 188.411 17.15C188.683 16.1646 189.153 15.3063 189.799 14.5964C190.286 14.0595 190.837 13.6215 191.498 13.2401C192.116 12.8763 192.822 12.5902 193.642 12.3783C194.136 12.2546 194.539 12.1699 194.91 12.1169L194.949 12.1098C195.161 12.071 195.401 12.0427 195.641 12.0215C195.994 11.9897 196.351 11.9685 196.701 11.9474C196.93 11.9474 197.156 11.9403 197.382 11.9403C197.608 11.9403 197.849 11.9403 198.071 11.9474C198.382 11.9615 198.7 11.9791 198.996 12.0109C199.286 12.0463 199.569 12.0745 199.855 12.1204C200.847 12.2688 201.748 12.5443 202.514 12.9328C203.175 13.2789 203.722 13.6816 204.171 14.1549C204.602 14.614 204.944 15.1227 205.223 15.7125C205.488 16.267 205.686 16.8852 205.824 17.5633C205.891 17.8777 205.937 18.1426 205.965 18.4181C205.993 18.6547 206.015 18.9019 206.032 19.1386L206.039 19.2057C206.05 19.3081 206.053 19.407 206.057 19.513H205.347H205.34ZM207.272 20.8269L207.293 20.7492C207.286 20.781 207.276 20.8163 207.276 20.8163V20.8269H207.272ZM187.853 6.80471C186.945 4.17334 184.416 2.33668 181.513 2.40379C178.768 2.4709 176.31 4.28637 175.459 6.96366C174.622 9.60209 175.526 12.5301 177.91 14.2396H177.931L177.956 14.2291V14.4092C177.956 15.6348 177.956 16.8675 177.931 18.0931V18.637C177.931 20.0216 177.931 21.4026 177.91 22.7872V26.2345C177.91 26.3616 177.91 26.4852 177.931 26.6194C177.991 27.0292 178.136 27.4036 178.373 27.7285C178.659 28.1382 179.04 28.442 179.475 28.6822C180.054 28.9965 180.676 29.1448 181.322 29.1802C181.64 29.2014 181.958 29.1802 182.276 29.1802C182.685 29.1448 183.067 29.0565 183.455 28.9188C183.989 28.7139 184.466 28.4173 184.851 28.0005C185.282 27.5237 185.508 26.9656 185.518 26.3228V22.5576C185.518 21.5722 185.518 20.5761 185.539 19.5872V14.1902C187.92 12.4207 188.761 9.42549 187.853 6.79765V6.80471ZM178.08 12.7844C176.596 11.3964 176.024 9.28774 176.642 7.33805C177.327 5.18351 179.298 3.69652 181.545 3.64001H181.672C183.932 3.64001 185.946 5.07402 186.684 7.20737C187.44 9.3937 186.684 11.8061 184.801 13.2012L184.3 13.5721V19.5624C184.278 20.5655 184.278 21.5792 184.278 22.5647V26.3086C184.271 26.6477 184.165 26.9161 183.936 27.1669C183.703 27.4177 183.406 27.612 183.025 27.7603C182.738 27.8592 182.477 27.9228 182.216 27.9475C182.12 27.9475 182.025 27.9475 181.93 27.9546C181.834 27.9546 181.739 27.9546 181.644 27.9546C181.566 27.9546 181.488 27.9546 181.389 27.9475C180.881 27.9192 180.45 27.8062 180.075 27.6014C179.764 27.4318 179.542 27.2411 179.379 27.0044C179.263 26.842 179.192 26.6618 179.16 26.4499V26.4146C179.15 26.3793 179.15 26.3086 179.15 26.2309V22.8048C179.171 21.4097 179.171 20.0004 179.171 18.6335V18.1143C179.196 16.8781 179.196 15.6207 179.196 14.4057V14.2255" fill="white"/>
<path d="M207.277 20.8246H205.306C204.387 20.8246 203.459 20.814 202.54 20.814H200.206C199.026 20.7928 197.846 20.8034 196.67 20.7928H195.515C194.766 20.7822 194.007 20.7822 193.258 20.7822H193.156C193.156 20.7822 193.12 20.8175 193.12 20.8281C193.141 21.033 193.156 21.2484 193.187 21.4533C193.311 22.1562 193.597 22.7813 194.085 23.3112C194.551 23.8092 195.116 24.1624 195.762 24.3637C196.126 24.4767 196.486 24.5438 196.861 24.5792C197.189 24.6145 197.518 24.6145 197.846 24.5792C198.355 24.5438 198.856 24.4555 199.33 24.2507C199.669 24.1023 199.965 23.9116 200.227 23.6608C200.52 23.3677 200.714 23.0145 200.806 22.5942C200.806 22.5271 200.827 22.4564 200.841 22.3999V22.3893H200.863C202.12 22.3893 203.391 22.3893 204.649 22.3999C205.408 22.3999 206.168 22.3999 206.916 22.4105C206.938 22.4211 206.938 22.4458 206.938 22.467C206.871 23.1805 206.687 23.8728 206.337 24.5085C206.065 25.0065 205.712 25.448 205.285 25.8366C204.751 26.3134 204.14 26.6772 203.483 26.9704C202.791 27.2776 202.067 27.479 201.318 27.6379C200.933 27.7156 200.548 27.7863 200.149 27.8322C199.856 27.8675 199.57 27.8993 199.277 27.924C198.913 27.9593 198.553 27.9805 198.178 27.9911C197.613 28.0123 197.034 28.0123 196.465 27.9911C196.137 27.9911 195.808 27.9558 195.469 27.9346C195.197 27.9134 194.925 27.8781 194.653 27.8428C194.268 27.7863 193.883 27.7297 193.498 27.6379C192.965 27.5249 192.446 27.3765 191.934 27.1858C191.082 26.8679 190.291 26.4476 189.574 25.8931C188.44 25.0101 187.66 23.8869 187.215 22.5164C187.091 22.1067 186.989 21.7005 186.932 21.2802C186.876 20.9412 186.84 20.588 186.83 20.2383C186.83 19.9557 186.809 19.6732 186.83 19.3871C186.83 19.0692 186.865 18.7619 186.886 18.4476C186.943 17.9248 187.035 17.4162 187.169 16.9041C187.487 15.7597 188.031 14.7283 188.836 13.8418C189.415 13.206 190.083 12.6868 190.821 12.2559C191.602 11.8144 192.432 11.4859 193.293 11.2598C193.76 11.1362 194.222 11.0444 194.689 10.9773C194.95 10.942 195.222 10.8996 195.483 10.8748C195.858 10.8395 196.232 10.8183 196.606 10.7971C197.094 10.776 197.581 10.776 198.069 10.7971C198.408 10.7971 198.75 10.8325 199.089 10.8643C199.397 10.8996 199.7 10.9314 199.997 10.9773C201.064 11.1468 202.085 11.4294 203.045 11.9168C203.794 12.2912 204.462 12.7786 205.03 13.3897C205.553 13.9442 205.97 14.5694 206.298 15.2616C206.616 15.9433 206.842 16.6568 206.991 17.3809C207.058 17.6988 207.114 18.0272 207.15 18.3451C207.185 18.6171 207.206 18.8891 207.227 19.1716C207.248 19.5354 207.263 19.8957 207.263 20.2701V20.7928C207.263 20.7928 207.263 20.8599 207.241 20.8953L207.263 20.8175L207.284 20.8281L207.277 20.8246ZM201.11 17.4586V17.3561C201.089 17.0842 201.053 16.8122 200.986 16.5508C200.848 16.0422 200.601 15.5972 200.237 15.2228C199.888 14.8731 199.467 14.6117 199.001 14.4422C198.468 14.2374 197.913 14.1702 197.345 14.1491C196.97 14.1385 196.596 14.1597 196.221 14.2162C195.882 14.2621 195.554 14.3539 195.225 14.4775C194.816 14.6365 194.455 14.8625 194.138 15.1698C193.742 15.5548 193.456 16.021 193.297 16.5544C193.219 16.8369 193.159 17.1195 193.138 17.4162C193.173 17.4515 193.216 17.4374 193.251 17.4374H194.851C195.826 17.4374 196.801 17.4374 197.776 17.448H201.11V17.4586Z" fill="white"/>
<path d="M177.949 14.2361C175.579 12.523 174.66 9.59851 175.501 6.95654C176.352 4.28279 178.81 2.46733 181.555 2.40022C184.458 2.33311 186.984 4.16977 187.891 6.79761C188.799 9.42898 187.958 12.41 185.578 14.1902C185.557 14.2926 185.578 14.395 185.578 14.508V19.5871C185.557 20.5726 185.578 21.5721 185.557 22.5576V26.3227C185.557 26.9691 185.32 27.5236 184.889 28.0004C184.504 28.4207 184.027 28.7139 183.494 28.9188C183.12 29.0671 182.724 29.1448 182.314 29.1801C181.996 29.2154 181.678 29.2154 181.361 29.1801C180.714 29.1448 180.078 29 179.513 28.6821C179.082 28.4455 178.708 28.1382 178.415 27.7285C178.178 27.3894 178.03 27.0256 177.973 26.6159C177.952 26.4923 177.952 26.3651 177.952 26.2309V22.7836C177.973 21.399 177.952 20.018 177.973 18.6335V18.0895C177.995 16.8639 177.973 15.6312 177.995 14.4056V14.2255H177.973L177.952 14.2361H177.949ZM181.714 14.2149C184.638 14.2149 187.03 11.8449 187.03 8.92036C187.03 7.46869 186.507 6.21129 185.486 5.17993C184.455 4.13798 183.183 3.62584 181.721 3.60464C180.28 3.62584 179.022 4.12738 177.991 5.14814C176.96 6.1795 176.437 7.42631 176.416 8.88857C176.416 11.8696 178.832 14.2184 181.71 14.2184L181.714 14.2149Z" fill="white"/>
</svg>
