<svg width="25" height="25" viewBox="0 0 25 25" fill="none" xmlns="http://www.w3.org/2000/svg">
<path d="M5.55525 13.4755L16.6806 24.6006C16.9379 24.8581 17.2814 25 17.6476 25C18.0139 25 18.3574 24.8581 18.6147 24.6006L19.434 23.7815C19.9671 23.2478 19.9671 22.3803 19.434 21.8474L10.0918 12.5052L19.4444 3.15262C19.7017 2.8951 19.8438 2.55181 19.8438 2.18575C19.8438 1.81929 19.7017 1.476 19.4444 1.21828L18.6251 0.399387C18.3675 0.141869 18.0243 1.59066e-07 17.658 1.91085e-07C17.2917 2.23104e-07 16.9482 0.141869 16.6909 0.399388L5.55525 11.5347C5.29732 11.793 5.15566 12.1379 5.15647 12.5046C5.15566 12.8727 5.29732 13.2174 5.55525 13.4755Z" fill="#00275C"/>
</svg>
