<svg width="39" height="39" viewBox="0 0 39 39" fill="none" xmlns="http://www.w3.org/2000/svg">
<path d="M35.1178 35.1249V3.93461H3.9274V4.50787C3.9274 11.3348 3.9274 18.1618 3.9274 24.9887C3.9274 25.3274 3.92743 25.6922 3.79714 26.031C3.51051 26.9169 2.5985 27.412 1.66045 27.2817C0.800563 27.1514 0.097036 26.3958 0.0449219 25.4838C0.0449219 25.3535 0.0449219 25.1972 0.0449219 25.0669C0.0449219 17.4582 0.0449219 9.8235 0.0449219 2.21485C0.0449219 1.48525 0.227423 0.859882 0.800678 0.390856C1.24365 0.0521141 1.73873 0 2.25987 0C7.96636 0 13.6468 0 19.3533 0C25.1901 0 31.0268 0 36.8635 0C37.6452 0 38.3228 0.208456 38.6876 0.885939C38.896 1.25074 39.0002 1.74582 39.0002 2.18879C39.0002 6.09735 39.0002 10.032 39.0002 13.9405C39.0002 21.5492 39.0002 29.1839 39.0002 36.7925C39.0002 37.5221 38.87 38.1996 38.2186 38.5905C37.8538 38.825 37.4107 38.9813 36.9938 38.9813C29.2288 38.9813 21.4639 38.9813 13.6729 38.9813C12.5003 38.9813 11.6925 38.1475 11.6925 37.0531C11.6925 35.9327 12.5262 35.1249 13.7249 35.1249C20.63 35.1249 27.5351 35.1249 34.4403 35.1249C34.6487 35.1249 34.8311 35.1249 35.0917 35.1249H35.1178Z" fill="white"/>
<path d="M21.2813 20.3242C21.1771 20.4806 21.0989 20.663 20.9686 20.8193C15.1579 26.63 9.37325 32.4408 3.56253 38.2515C3.14562 38.6684 2.67655 39.0071 2.05118 39.0071C1.21735 39.0071 0.591952 38.6684 0.227153 37.9388C-0.137646 37.2092 -0.0594299 36.4796 0.435654 35.8282C0.565939 35.6718 0.696154 35.5416 0.852497 35.3852C6.63716 29.6005 12.448 23.7898 18.2327 18.0052C18.3629 17.8749 18.4671 17.7446 18.6495 17.5622C18.415 17.5622 18.2586 17.5622 18.1022 17.5622C16.6431 17.5622 15.1839 17.5622 13.7247 17.5622C12.8127 17.5622 12.1092 17.0411 11.8487 16.2333C11.5881 15.4776 11.7965 14.6178 12.4479 14.1487C12.7867 13.8882 13.2817 13.6797 13.6986 13.6797C17.0078 13.6536 20.3171 13.6536 23.6263 13.6797C24.5904 13.6797 25.4243 14.3311 25.4243 15.7382C25.4243 18.9172 25.4243 22.0961 25.4243 25.3011C25.4243 25.3272 25.4243 25.3533 25.4243 25.4054C25.3982 26.4476 24.6166 27.2815 23.6004 27.3336C22.5321 27.3857 21.6721 26.7082 21.5418 25.6138C21.4897 25.2751 21.5157 24.9103 21.5157 24.5715C21.5157 23.2166 21.5157 21.8616 21.5157 20.5066C21.4636 20.4545 21.3854 20.4024 21.3333 20.3764L21.2813 20.3242Z" fill="white"/>
</svg>
