<svg width="127" height="115" viewBox="0 0 127 115" fill="none" xmlns="http://www.w3.org/2000/svg">
<path d="M119.066 16.8797C112.549 3.67215 99.8445 -1.67771 85.7134 0.454724C60.7736 4.21652 0.423403 36.6311 1.53467 69.4698C2.03024 84.1453 15.4894 93.6475 27.8598 99.6543C46.8039 108.852 69.3259 115.227 90.5189 113.11C97.881 112.374 105.57 110.286 111.438 105.59C117.7 100.578 121.09 92.3823 123.283 84.8812C125.929 75.8183 127.153 65.8469 126.984 56.4162C126.751 43.4714 124.859 28.6232 119.066 16.8797Z" fill="url(#paint0_linear_71_191238)"/>
<path d="M120.662 26.9033C117.674 13.2602 107.192 5.44377 93.7029 4.18984C69.8857 1.97106 6.94874 18.0619 0.495119 48.543C-2.38818 62.1673 7.83476 73.9783 17.855 82.3241C33.1987 95.1037 52.4808 106.104 72.4686 108.98C79.414 109.978 86.9639 109.809 93.4363 106.821C100.344 103.633 105.33 96.8645 109.054 90.4559C113.552 82.7146 116.953 73.8169 118.947 65.0957C121.68 53.127 123.32 39.0259 120.662 26.8995V26.9033Z" fill="url(#paint1_linear_71_191238)"/>
<path d="M119.066 17.7489C112.549 4.54129 99.8445 -0.808572 85.7134 1.32386C60.7736 5.08566 0.423403 37.5002 1.53467 70.339C2.03024 85.0145 15.4894 94.5166 27.8598 100.523C46.8039 109.721 69.3259 116.096 90.5189 113.979C97.881 113.243 105.57 111.156 111.438 106.459C117.7 101.447 121.09 93.2514 123.283 85.7503C125.929 76.6875 127.153 66.7161 126.984 57.2853C126.751 44.3405 124.859 29.4923 119.066 17.7489Z" fill="url(#paint2_linear_71_191238)"/>
<path d="M120.662 27.7724C117.674 14.1293 107.192 6.31291 93.7029 5.05898C69.8857 2.8402 6.94874 18.9311 0.495119 49.4122C-2.38818 63.0365 7.83476 74.8475 17.855 83.1933C33.1987 95.9729 52.4808 106.973 72.4686 109.849C79.414 110.847 86.9639 110.678 93.4363 107.69C100.344 104.503 105.33 97.7336 109.054 91.3251C113.552 83.5837 116.953 74.686 118.947 65.9648C121.68 53.9962 123.32 39.895 120.662 27.7687V27.7724Z" fill="url(#paint3_linear_71_191238)"/>
<defs>
<linearGradient id="paint0_linear_71_191238" x1="142.616" y1="88.3795" x2="20.0356" y2="28.5935" gradientUnits="userSpaceOnUse">
<stop stop-color="#DA0C01"/>
<stop offset="1" stop-color="#EDBA2C"/>
</linearGradient>
<linearGradient id="paint1_linear_71_191238" x1="126.057" y1="98.0921" x2="26.8465" y2="15.1374" gradientUnits="userSpaceOnUse">
<stop stop-color="#DD4C1A"/>
<stop offset="1" stop-color="#F1CB4E"/>
</linearGradient>
<linearGradient id="paint2_linear_71_191238" x1="142.616" y1="89.2486" x2="20.0356" y2="29.4626" gradientUnits="userSpaceOnUse">
<stop stop-color="#FF3185"/>
<stop offset="1" stop-color="#FFCEC0"/>
</linearGradient>
<linearGradient id="paint3_linear_71_191238" x1="126.057" y1="98.9613" x2="26.8465" y2="16.0065" gradientUnits="userSpaceOnUse">
<stop stop-color="#FF3185"/>
<stop offset="1" stop-color="#FDB0A0"/>
</linearGradient>
</defs>
</svg>
