<svg width="57" height="55" viewBox="0 0 57 55" fill="none" xmlns="http://www.w3.org/2000/svg">
<path d="M57 26.6987C56.0994 28.5862 54.5618 29.9928 53.2682 31.5796C51.0994 34.2426 48.8532 36.8416 46.671 39.4942C44.6481 41.9548 42.0283 43.1322 38.8889 43.153C34.0794 43.1858 29.27 43.2022 24.462 43.1396C22.8052 43.1173 21.7841 44.0462 20.7763 45.1075C20.7004 45.1879 20.7034 45.3814 20.7287 45.5124C20.9803 46.8193 20.6334 47.9223 19.6748 48.8556C17.9853 50.5005 16.3152 52.1662 14.6316 53.8169C14.4366 54.009 14.2029 54.1623 13.9871 54.332H13.3188C12.9868 54.0417 12.6355 53.7693 12.3244 53.4567C8.40954 49.521 4.49914 45.5794 0.588744 41.6377C-0.191251 40.8517 -0.195717 40.3278 0.57237 39.5567C2.19637 37.9253 3.8293 36.3013 5.44586 34.6609C6.23181 33.863 7.14726 33.4403 8.28302 33.4879C8.4542 33.4954 8.7132 33.3629 8.79656 33.217C12.4986 26.724 20.5858 25.1298 26.4001 27.3641C26.6859 27.4742 27.0118 27.5189 27.32 27.5204C31.1262 27.5308 34.9324 27.5442 38.7401 27.5189C40.2911 27.5085 41.6293 27.9297 42.8529 29.3543C42.9482 29.1414 42.9839 28.93 43.1074 28.802C45.1706 26.6645 47.2471 24.5388 49.3147 22.4057C51.8005 19.841 55.5546 20.5748 56.9032 23.8928C56.9226 23.9419 56.9658 23.9806 56.9985 24.0238V26.6972L57 26.6987ZM19.3444 43.3406C19.4456 43.2498 19.5796 43.1501 19.6897 43.0295C21.0919 41.4844 22.8231 40.8785 24.9115 40.9113C29.5141 40.9827 34.1196 40.9336 38.7237 40.9336C40.9371 40.9336 42.975 40.3233 44.4367 38.6353C47.8127 34.7338 51.086 30.7431 54.3846 26.7761C55.1884 25.8085 55.0649 24.4718 54.1628 23.6695C53.2638 22.8702 51.93 22.9252 51.0503 23.8243C48.6776 26.2551 46.3108 28.6919 43.95 31.136C43.8234 31.267 43.7148 31.4784 43.7133 31.6526C43.688 34.6252 41.8466 36.462 38.8606 36.4665C36.0949 36.471 33.3277 36.468 30.562 36.4665C29.5602 36.4665 29.0273 36.0691 29.0318 35.3337C29.0363 34.5999 29.5543 34.2277 30.5784 34.2262C33.3441 34.2262 36.1113 34.2263 38.877 34.2233C39.1539 34.2233 39.4367 34.2143 39.7076 34.1637C40.8597 33.9509 41.6517 32.7883 41.4433 31.6362C41.2259 30.4305 40.3417 29.7576 38.9395 29.7547C34.9666 29.7487 30.9937 29.7591 27.0208 29.7428C26.6233 29.7413 26.2021 29.6758 25.8314 29.5344C22.3765 28.2125 18.9559 28.3391 15.6052 29.8425C13.3872 30.8383 11.7335 32.4817 10.6126 34.5865C13.5376 37.5189 16.4313 40.4171 19.3444 43.3361V43.3406ZM2.6727 40.5764C6.40596 44.2337 10.099 47.8524 13.9484 51.6243C15.3313 50.1775 16.8109 48.6398 18.2756 47.0858C18.7311 46.6035 18.7058 45.9857 18.2295 45.4871C17.6653 44.8961 17.0788 44.3275 16.5013 43.7499C13.9797 41.2298 11.4596 38.7068 8.935 36.1896C8.35 35.6061 7.75607 35.5481 7.22466 36.0676C5.71082 37.5457 4.21632 39.0447 2.6727 40.5764Z" fill="white"/>
<path d="M33.2611 24.5416C26.466 24.5371 20.9851 19.0384 21 12.2418C21.0134 5.4823 26.5136 -0.00297587 33.2731 1.21127e-06C40.0548 0.00297829 45.552 5.52249 45.5342 12.3102C45.5163 19.0801 40.0325 24.5461 33.2597 24.5416H33.2611ZM33.2388 22.3103C38.7747 22.3281 43.282 17.8595 43.3028 12.3311C43.3252 6.78924 38.8566 2.25663 33.3505 2.23281C27.7774 2.20751 23.2492 6.6776 23.2299 12.2209C23.2105 17.794 27.6747 22.2939 33.2388 22.3118V22.3103Z" fill="white"/>
<path d="M26.587 35.1773C26.5736 35.7816 26.0838 36.2669 25.4855 36.2669C24.8781 36.2669 24.3512 35.728 24.3676 35.1237C24.3839 34.5074 24.9139 34.0192 25.539 34.046C26.1464 34.0728 26.6019 34.5625 26.5885 35.1758L26.587 35.1773Z" fill="white"/>
<path d="M34.158 6.75679C34.7236 7.14827 35.2505 7.46087 35.7135 7.84937C36.2479 8.29743 36.2791 8.94792 35.8668 9.43021C35.4604 9.90356 34.8233 9.93333 34.2681 9.5344C33.9704 9.32154 33.6608 9.09231 33.3199 8.97918C32.7111 8.77674 32.0591 9.22181 31.9445 9.85295C31.8329 10.4603 32.2601 11.0438 32.8867 11.142C33.2708 11.2016 33.6682 11.2165 34.0359 11.3266C35.316 11.7092 36.2449 12.8583 36.3729 14.1653C36.5054 15.5169 35.8311 16.8297 34.6149 17.446C34.2369 17.638 34.0999 17.8479 34.1475 18.2498C34.1803 18.5237 34.1714 18.808 34.1416 19.0834C34.0776 19.6863 33.5998 20.0897 33.0014 20.0733C32.4327 20.0569 31.8894 19.6342 31.9549 19.067C32.0666 18.0742 31.754 17.4609 30.8206 17.0634C30.4381 16.9012 30.1344 16.5008 29.8576 16.1584C29.4854 15.697 29.5613 15.0896 29.9752 14.6967C30.4083 14.2858 31.0142 14.2784 31.489 14.6833C31.7852 14.9348 32.0532 15.2296 32.3792 15.4305C32.8198 15.7029 33.3065 15.7163 33.7307 15.371C34.1103 15.0628 34.2532 14.6505 34.094 14.1757C33.9198 13.6562 33.5224 13.4314 32.9939 13.3853C31.2449 13.2305 30.0928 12.2659 29.7578 10.6865C29.4452 9.2099 30.1597 7.82854 31.6349 7.00239C31.7718 6.92499 31.8686 6.71659 31.9147 6.54988C31.9624 6.37721 31.9251 6.18072 31.9251 5.99614C31.9251 5.00179 32.3285 4.45848 33.0549 4.4689C33.7694 4.47932 34.1535 5.00477 34.155 5.96935C34.155 6.26557 34.155 6.56179 34.155 6.75976L34.158 6.75679Z" fill="white"/>
</svg>
