<svg width="44" height="45" viewBox="0 0 44 45" fill="none" xmlns="http://www.w3.org/2000/svg">
<path d="M21.6345 0C24.4814 0.0146747 26.8587 0.410903 29.1773 1.20334C29.867 1.43813 30.2339 1.95174 30.1898 2.56808C30.1458 3.14039 29.7349 3.65397 29.1626 3.72735C28.8544 3.77137 28.5169 3.71274 28.2234 3.61001C23.3808 2.03982 18.5968 2.18657 13.989 4.34375C7.89895 7.19065 4.09819 11.9746 2.90954 18.6075C1.22194 27.9847 6.44614 36.995 15.3097 40.2674C26.6239 44.4497 39.0534 37.2885 41.1372 25.4019C41.7095 22.1295 41.46 18.9157 40.4035 15.7753C40.1246 14.9535 40.3154 14.3226 40.9317 13.9851C41.6655 13.5742 42.5753 13.9117 42.8101 14.8068C43.2357 16.4211 43.7346 18.0352 43.8814 19.6935C44.5711 26.9574 42.2525 33.1649 36.9549 38.169C33.2862 41.6322 28.8838 43.5693 23.8503 43.9508C13.9009 44.6992 5.0814 39.1374 1.44207 29.863C-1.8304 21.5278 0.60559 11.5344 7.34129 5.62044C10.8632 2.52408 14.9428 0.689676 19.5947 0.146711C20.4165 0.0439883 21.2383 0.0293494 21.6638 0H21.6345Z" fill="white"/>
<path d="M28.2519 26.3119C30.6439 27.075 32.4929 28.4544 33.8136 30.5235C34.0778 30.9491 34.3125 31.3894 34.518 31.859C34.8115 32.5487 34.562 33.253 33.931 33.5612C33.2853 33.884 32.5369 33.664 32.1994 32.9596C31.583 31.7122 30.7759 30.6263 29.6313 29.8338C28.3986 28.9827 27.0339 28.5424 25.5371 28.5278C23.1744 28.5278 20.8265 28.4691 18.4638 28.5278C15.5436 28.6011 13.3717 29.9806 11.9923 32.5633C11.9189 32.6954 11.8749 32.8275 11.8015 32.9449C11.42 33.6199 10.7156 33.8694 10.0699 33.5612C9.42421 33.253 9.17475 32.5193 9.48292 31.8149C10.5248 29.511 12.2124 27.8381 14.5164 26.7815C14.8979 26.6054 15.2794 26.4733 15.7197 26.2972C13.0929 23.9933 11.8162 21.1318 12.1097 17.6538C12.3445 15.0124 13.5038 12.8111 15.4996 11.0648C19.3884 7.68963 25.1702 7.85107 28.8829 11.4464C31.0107 13.5155 32.0233 16.069 31.8912 19.0333C31.7592 21.9682 30.4824 24.3748 28.2372 26.3119H28.2519ZM14.6631 18.593C14.6631 22.6432 17.9796 25.9157 22.0298 25.9157C26.0654 25.9157 29.3525 22.5992 29.3525 18.549C29.3525 14.4988 26.036 11.2263 21.9858 11.2263C17.9356 11.2263 14.6631 14.5281 14.6631 18.593Z" fill="white"/>
<path d="M37.9684 6.04582C38.9516 6.04582 39.8761 6.04582 40.7859 6.04582C41.6811 6.04582 42.2681 6.55943 42.2828 7.32252C42.2828 8.11495 41.6958 8.62859 40.7713 8.62859C39.8614 8.62859 38.9516 8.62859 37.9684 8.62859C37.9684 9.67049 37.9831 10.6831 37.9684 11.681C37.9537 12.4147 37.3814 12.943 36.6917 12.943C36.002 12.943 35.4297 12.4147 35.4003 11.681C35.371 11.1967 35.4003 10.7124 35.4003 10.2282C35.4003 9.72923 35.4003 9.21558 35.4003 8.62859C34.784 8.62859 34.1823 8.62859 33.5806 8.62859C33.1844 8.62859 32.7882 8.62859 32.392 8.62859C31.6289 8.59924 31.0859 8.04158 31.0859 7.32252C31.0859 6.60345 31.6436 6.0605 32.4067 6.04582C33.3752 6.03115 34.3437 6.04582 35.4003 6.04582C35.4003 5.16534 35.4003 4.31418 35.4003 3.44837C35.4003 2.33309 35.8846 1.7021 36.721 1.73145C37.5428 1.74612 37.9977 2.34776 37.9977 3.44837C37.9977 4.28483 37.9977 5.13599 37.9977 6.04582H37.9684Z" fill="white"/>
</svg>
