<svg width="44" height="44" viewBox="0 0 44 44" fill="none" xmlns="http://www.w3.org/2000/svg">
<path d="M41.1927 12.3465H29.6147C30.6056 11.3923 31.4679 10.5666 32.3487 9.7593C32.4771 9.64921 32.6972 9.63086 32.8807 9.63086C36.0734 9.63086 39.2844 9.63086 42.477 9.63086C43.4128 9.63086 43.945 10.1446 44 11.0804C44 11.2455 44 11.429 44 11.5942C44 21.7226 44 31.8511 44 41.9979C44 43.5575 43.5779 43.9979 42.0183 43.9979C28.6605 43.9979 15.3211 43.9979 1.96332 43.9979C0.440381 43.9979 0 43.5759 0 42.0529C0 31.9061 0 21.741 0 11.5942C0 10.0529 0.422014 9.64921 1.94495 9.64921C5.41284 9.64921 8.89907 9.64921 12.367 9.64921C12.789 9.64921 13.0825 9.77765 13.3578 10.0896C13.9633 10.8235 14.6055 11.5391 15.3211 12.3832H2.80728V41.1905H41.156V12.3832L41.1927 12.3465Z" fill="white"/>
<path d="M22.1106 13.8148C24.1657 11.8515 26.1656 9.94321 28.1656 8.03495C30.7895 5.53953 33.4134 3.02576 36.0373 0.530348C36.6061 -0.0201108 37.1565 -0.130201 37.7253 0.145029C38.6244 0.585396 38.7712 1.68632 37.9639 2.45696C36.7161 3.66797 35.4501 4.86063 34.2024 6.05329C30.8813 9.22761 27.5601 12.4019 24.239 15.5579C22.7711 16.9524 21.1565 16.879 19.8354 15.3744C17.9822 13.2643 16.1473 11.1359 14.2941 9.02578C13.7436 8.38357 13.6335 7.8331 13.9454 7.2643C14.4042 6.40191 15.5051 6.27348 16.2207 7.06247C17.3583 8.32853 18.4592 9.61292 19.5785 10.879C20.4042 11.8331 21.2482 12.7872 22.129 13.7964L22.1106 13.8148Z" fill="white"/>
<path d="M22 33.6683C17.5412 33.6683 13.0825 33.6683 8.60547 33.6683C7.59629 33.6683 7.00907 33.2279 6.93568 32.4389C6.86228 31.6866 7.30272 31.0995 8.03666 30.9527C8.25685 30.916 8.51374 30.916 8.73392 30.916C17.578 30.916 26.4219 30.916 35.2476 30.916C35.5412 30.916 35.8532 30.916 36.1468 31.0078C36.7339 31.1729 37.1008 31.6866 37.1008 32.3105C37.1008 32.9344 36.7339 33.4481 36.1468 33.5949C35.8532 33.6683 35.5595 33.6867 35.2476 33.6867C30.8256 33.6867 26.4036 33.6867 21.9816 33.6867L22 33.6683Z" fill="white"/>
<path d="M21.9814 39.1544C17.5043 39.1544 13.0089 39.1544 8.53183 39.1544C7.541 39.1544 6.9722 38.6957 6.9355 37.87C6.89881 37.1361 7.39426 36.5306 8.12821 36.4388C8.275 36.4205 8.42179 36.4388 8.58693 36.4388C17.5594 36.4388 26.5318 36.4388 35.486 36.4388C36.5502 36.4388 37.1557 36.9893 37.119 37.8884C37.0823 38.5489 36.6236 39.0627 35.9631 39.1544C35.6878 39.1911 35.4127 39.1728 35.1191 39.1728C30.7338 39.1728 26.3667 39.1728 21.9814 39.1728V39.1544Z" fill="white"/>
<path d="M15.4675 28.1636C13.1372 28.1636 10.7886 28.1636 8.45833 28.1636C7.5776 28.1636 6.99051 27.6866 6.91711 26.9343C6.84372 26.1269 7.35746 25.5214 8.1648 25.4297C8.31159 25.4297 8.45838 25.4297 8.62352 25.4297C13.1923 25.4297 17.7611 25.4297 22.3299 25.4297C22.4583 25.4297 22.5868 25.4297 22.7153 25.4297C23.5043 25.4847 24.073 26.0352 24.073 26.7691C24.073 27.5214 23.5042 28.1453 22.6785 28.1453C21.0272 28.1636 19.3758 28.1453 17.7244 28.1453C16.9721 28.1453 16.2198 28.1453 15.4675 28.1453V28.1636Z" fill="white"/>
<path d="M12.6977 22.659C11.2849 22.659 9.87204 22.659 8.45919 22.659C7.48671 22.659 6.93632 22.1452 6.91797 21.3195C6.91797 20.4755 7.5051 19.9434 8.49592 19.9434C11.3216 19.9434 14.1657 19.9434 16.9914 19.9434C17.9822 19.9434 18.5693 20.4755 18.5693 21.3379C18.5693 22.1635 18.0005 22.6773 17.028 22.6773C15.5968 22.6773 14.1473 22.6773 12.7161 22.6773L12.6977 22.659Z" fill="white"/>
<path d="M20.293 9.64941H24.4948C23.6874 10.4201 22.9718 11.099 22.2012 11.8329C21.5773 11.1357 20.9902 10.4384 20.293 9.64941Z" fill="white"/>
</svg>
