<svg width="50" height="43" viewBox="0 0 50 43" fill="none" xmlns="http://www.w3.org/2000/svg">
<path d="M0.0141844 38.7381C0.170213 37.8303 0.255319 36.8941 0.48227 36.0005C2.39716 28.7381 7.02128 24.2417 14.383 22.809C22.4113 21.2488 30.2411 25.4615 33.5603 32.9509C34.5816 35.2488 35.0355 37.6601 35.0071 40.1707C35.0071 40.9367 35.0071 41.6885 35.0071 42.5254C34.7376 42.5254 34.5106 42.5254 34.2837 42.5254C23.078 42.5254 11.8865 42.5254 0.680851 42.5254C0.453901 42.5254 0.22695 42.5395 0 42.5537C0 41.2771 0 40.0147 0 38.7381H0.0141844ZM29.7589 37.4757C29.2057 35.0076 28.0709 32.9083 26.2979 31.1636C24.0426 28.9225 21.3191 27.6885 18.156 27.5324C11.1915 27.2062 6.31206 32.341 5.31915 37.4757H29.7589Z" fill="white"/>
<path d="M17.503 0.000132673C22.9782 -0.0282361 27.503 4.49658 27.5314 9.98594C27.5456 15.4611 23.0775 19.9576 17.5881 20.0001C12.0704 20.0285 7.55975 15.5746 7.53138 10.071C7.50302 4.53913 11.9711 0.0285015 17.503 0.000132673ZM17.5314 5.0072C14.7796 5.0072 12.5243 7.23417 12.5243 9.98594C12.5243 12.7235 14.7796 14.993 17.5172 14.993C20.269 14.993 22.5101 12.7519 22.5243 10.0001C22.5243 7.23418 20.3115 5.00723 17.5456 4.99305L17.5314 5.0072Z" fill="white"/>
<path d="M46.4402 11.248C47.6743 12.4821 48.8232 13.631 50.0005 14.7941C46.114 18.7658 42.2133 22.7516 38.3267 26.7232C35.8161 24.2125 33.3338 21.7303 30.8516 19.248C31.9863 18.1275 33.1353 16.9785 34.3126 15.787C35.6033 16.9927 36.9225 18.2267 38.2275 19.4608C40.965 16.7232 43.7026 13.9856 46.4402 11.248Z" fill="white"/>
</svg>
